%TF.GenerationSoftware,KiCad,Pcbnew,(6.0.5)*%
%TF.CreationDate,2022-06-26T21:14:40+09:00*%
%TF.ProjectId,dynamis,64796e61-6d69-4732-9e6b-696361645f70,rev?*%
%TF.SameCoordinates,Original*%
%TF.FileFunction,Legend,Top*%
%TF.FilePolarity,Positive*%
%FSLAX46Y46*%
G04 Gerber Fmt 4.6, Leading zero omitted, Abs format (unit mm)*
G04 Created by KiCad (PCBNEW (6.0.5)) date 2022-06-26 21:14:40*
%MOMM*%
%LPD*%
G01*
G04 APERTURE LIST*
%ADD10C,0.150000*%
%ADD11C,0.120000*%
G04 APERTURE END LIST*
D10*
%TO.C,RE0*%
X461698070Y-206146846D02*
X461221880Y-206480179D01*
X461698070Y-206718275D02*
X460698070Y-206718275D01*
X460698070Y-206337322D01*
X460745690Y-206242084D01*
X460793309Y-206194465D01*
X460888547Y-206146846D01*
X461031404Y-206146846D01*
X461126642Y-206194465D01*
X461174261Y-206242084D01*
X461221880Y-206337322D01*
X461221880Y-206718275D01*
X461174261Y-205718275D02*
X461174261Y-205384941D01*
X461698070Y-205242084D02*
X461698070Y-205718275D01*
X460698070Y-205718275D01*
X460698070Y-205242084D01*
X460698070Y-204623037D02*
X460698070Y-204527799D01*
X460745690Y-204432560D01*
X460793309Y-204384941D01*
X460888547Y-204337322D01*
X461079023Y-204289703D01*
X461317118Y-204289703D01*
X461507594Y-204337322D01*
X461602832Y-204384941D01*
X461650451Y-204432560D01*
X461698070Y-204527799D01*
X461698070Y-204623037D01*
X461650451Y-204718275D01*
X461602832Y-204765894D01*
X461507594Y-204813513D01*
X461317118Y-204861132D01*
X461079023Y-204861132D01*
X460888547Y-204813513D01*
X460793309Y-204765894D01*
X460745690Y-204718275D01*
X460698070Y-204623037D01*
D11*
X447745690Y-216927799D02*
X447745690Y-212027799D01*
X457845690Y-202727799D02*
X458145690Y-202427799D01*
X460345690Y-212027799D02*
X460345690Y-216927799D01*
X447745690Y-203527799D02*
X450545690Y-203527799D01*
X458145690Y-203027799D02*
X457845690Y-202727799D01*
X460345690Y-203527799D02*
X457845690Y-203527799D01*
X454545690Y-210227799D02*
X453545690Y-210227799D01*
X454045690Y-209727799D02*
X454045690Y-210727799D01*
X447745690Y-208427799D02*
X447745690Y-203527799D01*
X458145690Y-202427799D02*
X458145690Y-203027799D01*
X460345690Y-216927799D02*
X447745690Y-216927799D01*
X460345690Y-208327799D02*
X460345690Y-203527799D01*
X457045690Y-210227799D02*
G75*
G03*
X457045690Y-210227799I-3000000J0D01*
G01*
%TD*%
M02*
