%TF.GenerationSoftware,KiCad,Pcbnew,(6.0.5)*%
%TF.CreationDate,2022-06-26T21:14:40+09:00*%
%TF.ProjectId,dynamis,64796e61-6d69-4732-9e6b-696361645f70,rev?*%
%TF.SameCoordinates,Original*%
%TF.FileFunction,Soldermask,Bot*%
%TF.FilePolarity,Negative*%
%FSLAX46Y46*%
G04 Gerber Fmt 4.6, Leading zero omitted, Abs format (unit mm)*
G04 Created by KiCad (PCBNEW (6.0.5)) date 2022-06-26 21:14:40*
%MOMM*%
%LPD*%
G01*
G04 APERTURE LIST*
G04 Aperture macros list*
%AMRoundRect*
0 Rectangle with rounded corners*
0 $1 Rounding radius*
0 $2 $3 $4 $5 $6 $7 $8 $9 X,Y pos of 4 corners*
0 Add a 4 corners polygon primitive as box body*
4,1,4,$2,$3,$4,$5,$6,$7,$8,$9,$2,$3,0*
0 Add four circle primitives for the rounded corners*
1,1,$1+$1,$2,$3*
1,1,$1+$1,$4,$5*
1,1,$1+$1,$6,$7*
1,1,$1+$1,$8,$9*
0 Add four rect primitives between the rounded corners*
20,1,$1+$1,$2,$3,$4,$5,0*
20,1,$1+$1,$4,$5,$6,$7,0*
20,1,$1+$1,$6,$7,$8,$9,0*
20,1,$1+$1,$8,$9,$2,$3,0*%
G04 Aperture macros list end*
%ADD10C,0.300000*%
%ADD11C,1.750000*%
%ADD12C,3.987800*%
%ADD13C,3.000000*%
%ADD14R,2.550000X2.500000*%
%ADD15C,3.048000*%
%ADD16R,2.500000X2.550000*%
%ADD17R,2.000000X2.000000*%
%ADD18C,2.000000*%
%ADD19R,2.500000X3.000000*%
%ADD20RoundRect,0.250000X0.625000X-0.312500X0.625000X0.312500X-0.625000X0.312500X-0.625000X-0.312500X0*%
%ADD21RoundRect,0.250000X0.650000X-0.325000X0.650000X0.325000X-0.650000X0.325000X-0.650000X-0.325000X0*%
%ADD22R,1.200000X0.900000*%
%ADD23R,1.500000X1.000000*%
%ADD24R,1.000000X1.500000*%
%ADD25R,1.400000X1.200000*%
%ADD26RoundRect,0.250000X-0.625000X0.312500X-0.625000X-0.312500X0.625000X-0.312500X0.625000X0.312500X0*%
%ADD27RoundRect,0.250000X-0.650000X0.325000X-0.650000X-0.325000X0.650000X-0.325000X0.650000X0.325000X0*%
%ADD28RoundRect,0.250000X-0.325000X-0.650000X0.325000X-0.650000X0.325000X0.650000X-0.325000X0.650000X0*%
%ADD29RoundRect,0.250000X0.312500X0.625000X-0.312500X0.625000X-0.312500X-0.625000X0.312500X-0.625000X0*%
%ADD30R,0.750000X1.000000*%
%ADD31R,1.558716X0.422474*%
%ADD32RoundRect,0.211237X-0.568121X0.000000X0.568121X0.000000X0.568121X0.000000X-0.568121X0.000000X0*%
%ADD33RoundRect,0.195000X-0.405000X0.130000X-0.405000X-0.130000X0.405000X-0.130000X0.405000X0.130000X0*%
%ADD34C,1.300000*%
%ADD35R,1.500000X0.550000*%
%ADD36R,0.550000X1.500000*%
%ADD37C,0.650000*%
%ADD38R,0.600000X1.450000*%
%ADD39R,0.300000X1.450000*%
%ADD40O,1.000000X1.600000*%
%ADD41O,1.000000X2.100000*%
G04 APERTURE END LIST*
D10*
X175321428Y-235953571D02*
X175321428Y-234453571D01*
X175321428Y-235882142D02*
X175464285Y-235953571D01*
X175750000Y-235953571D01*
X175892857Y-235882142D01*
X175964285Y-235810714D01*
X176035714Y-235667857D01*
X176035714Y-235239285D01*
X175964285Y-235096428D01*
X175892857Y-235025000D01*
X175750000Y-234953571D01*
X175464285Y-234953571D01*
X175321428Y-235025000D01*
X174750000Y-234953571D02*
X174392857Y-235953571D01*
X174035714Y-234953571D02*
X174392857Y-235953571D01*
X174535714Y-236310714D01*
X174607142Y-236382142D01*
X174750000Y-236453571D01*
X173464285Y-234953571D02*
X173464285Y-235953571D01*
X173464285Y-235096428D02*
X173392857Y-235025000D01*
X173250000Y-234953571D01*
X173035714Y-234953571D01*
X172892857Y-235025000D01*
X172821428Y-235167857D01*
X172821428Y-235953571D01*
X171464285Y-235953571D02*
X171464285Y-235167857D01*
X171535714Y-235025000D01*
X171678571Y-234953571D01*
X171964285Y-234953571D01*
X172107142Y-235025000D01*
X171464285Y-235882142D02*
X171607142Y-235953571D01*
X171964285Y-235953571D01*
X172107142Y-235882142D01*
X172178571Y-235739285D01*
X172178571Y-235596428D01*
X172107142Y-235453571D01*
X171964285Y-235382142D01*
X171607142Y-235382142D01*
X171464285Y-235310714D01*
X170750000Y-235953571D02*
X170750000Y-234953571D01*
X170750000Y-235096428D02*
X170678571Y-235025000D01*
X170535714Y-234953571D01*
X170321428Y-234953571D01*
X170178571Y-235025000D01*
X170107142Y-235167857D01*
X170107142Y-235953571D01*
X170107142Y-235167857D02*
X170035714Y-235025000D01*
X169892857Y-234953571D01*
X169678571Y-234953571D01*
X169535714Y-235025000D01*
X169464285Y-235167857D01*
X169464285Y-235953571D01*
X168750000Y-235953571D02*
X168750000Y-234953571D01*
X168750000Y-234453571D02*
X168821428Y-234525000D01*
X168750000Y-234596428D01*
X168678571Y-234525000D01*
X168750000Y-234453571D01*
X168750000Y-234596428D01*
X168107142Y-235882142D02*
X167964285Y-235953571D01*
X167678571Y-235953571D01*
X167535714Y-235882142D01*
X167464285Y-235739285D01*
X167464285Y-235667857D01*
X167535714Y-235525000D01*
X167678571Y-235453571D01*
X167892857Y-235453571D01*
X168035714Y-235382142D01*
X168107142Y-235239285D01*
X168107142Y-235167857D01*
X168035714Y-235025000D01*
X167892857Y-234953571D01*
X167678571Y-234953571D01*
X167535714Y-235025000D01*
X165821428Y-234953571D02*
X165464285Y-235953571D01*
X165107142Y-234953571D01*
X163750000Y-235953571D02*
X164607142Y-235953571D01*
X164178571Y-235953571D02*
X164178571Y-234453571D01*
X164321428Y-234667857D01*
X164464285Y-234810714D01*
X164607142Y-234882142D01*
X163107142Y-235810714D02*
X163035714Y-235882142D01*
X163107142Y-235953571D01*
X163178571Y-235882142D01*
X163107142Y-235810714D01*
X163107142Y-235953571D01*
X162107142Y-234453571D02*
X161964285Y-234453571D01*
X161821428Y-234525000D01*
X161750000Y-234596428D01*
X161678571Y-234739285D01*
X161607142Y-235025000D01*
X161607142Y-235382142D01*
X161678571Y-235667857D01*
X161750000Y-235810714D01*
X161821428Y-235882142D01*
X161964285Y-235953571D01*
X162107142Y-235953571D01*
X162250000Y-235882142D01*
X162321428Y-235810714D01*
X162392857Y-235667857D01*
X162464285Y-235382142D01*
X162464285Y-235025000D01*
X162392857Y-234739285D01*
X162321428Y-234596428D01*
X162250000Y-234525000D01*
X162107142Y-234453571D01*
X160964285Y-235810714D02*
X160892857Y-235882142D01*
X160964285Y-235953571D01*
X161035714Y-235882142D01*
X160964285Y-235810714D01*
X160964285Y-235953571D01*
X159964285Y-234453571D02*
X159821428Y-234453571D01*
X159678571Y-234525000D01*
X159607142Y-234596428D01*
X159535714Y-234739285D01*
X159464285Y-235025000D01*
X159464285Y-235382142D01*
X159535714Y-235667857D01*
X159607142Y-235810714D01*
X159678571Y-235882142D01*
X159821428Y-235953571D01*
X159964285Y-235953571D01*
X160107142Y-235882142D01*
X160178571Y-235810714D01*
X160250000Y-235667857D01*
X160321428Y-235382142D01*
X160321428Y-235025000D01*
X160250000Y-234739285D01*
X160178571Y-234596428D01*
X160107142Y-234525000D01*
X159964285Y-234453571D01*
X157035714Y-235953571D02*
X157035714Y-234453571D01*
X157035714Y-235882142D02*
X157178571Y-235953571D01*
X157464285Y-235953571D01*
X157607142Y-235882142D01*
X157678571Y-235810714D01*
X157750000Y-235667857D01*
X157750000Y-235239285D01*
X157678571Y-235096428D01*
X157607142Y-235025000D01*
X157464285Y-234953571D01*
X157178571Y-234953571D01*
X157035714Y-235025000D01*
X155750000Y-235882142D02*
X155892857Y-235953571D01*
X156178571Y-235953571D01*
X156321428Y-235882142D01*
X156392857Y-235739285D01*
X156392857Y-235167857D01*
X156321428Y-235025000D01*
X156178571Y-234953571D01*
X155892857Y-234953571D01*
X155750000Y-235025000D01*
X155678571Y-235167857D01*
X155678571Y-235310714D01*
X156392857Y-235453571D01*
X155107142Y-235882142D02*
X154964285Y-235953571D01*
X154678571Y-235953571D01*
X154535714Y-235882142D01*
X154464285Y-235739285D01*
X154464285Y-235667857D01*
X154535714Y-235525000D01*
X154678571Y-235453571D01*
X154892857Y-235453571D01*
X155035714Y-235382142D01*
X155107142Y-235239285D01*
X155107142Y-235167857D01*
X155035714Y-235025000D01*
X154892857Y-234953571D01*
X154678571Y-234953571D01*
X154535714Y-235025000D01*
X153821428Y-235953571D02*
X153821428Y-234953571D01*
X153821428Y-234453571D02*
X153892857Y-234525000D01*
X153821428Y-234596428D01*
X153750000Y-234525000D01*
X153821428Y-234453571D01*
X153821428Y-234596428D01*
X152464285Y-234953571D02*
X152464285Y-236167857D01*
X152535714Y-236310714D01*
X152607142Y-236382142D01*
X152750000Y-236453571D01*
X152964285Y-236453571D01*
X153107142Y-236382142D01*
X152464285Y-235882142D02*
X152607142Y-235953571D01*
X152892857Y-235953571D01*
X153035714Y-235882142D01*
X153107142Y-235810714D01*
X153178571Y-235667857D01*
X153178571Y-235239285D01*
X153107142Y-235096428D01*
X153035714Y-235025000D01*
X152892857Y-234953571D01*
X152607142Y-234953571D01*
X152464285Y-235025000D01*
X151750000Y-234953571D02*
X151750000Y-235953571D01*
X151750000Y-235096428D02*
X151678571Y-235025000D01*
X151535714Y-234953571D01*
X151321428Y-234953571D01*
X151178571Y-235025000D01*
X151107142Y-235167857D01*
X151107142Y-235953571D01*
X149821428Y-235882142D02*
X149964285Y-235953571D01*
X150250000Y-235953571D01*
X150392857Y-235882142D01*
X150464285Y-235739285D01*
X150464285Y-235167857D01*
X150392857Y-235025000D01*
X150250000Y-234953571D01*
X149964285Y-234953571D01*
X149821428Y-235025000D01*
X149750000Y-235167857D01*
X149750000Y-235310714D01*
X150464285Y-235453571D01*
X148464285Y-235953571D02*
X148464285Y-234453571D01*
X148464285Y-235882142D02*
X148607142Y-235953571D01*
X148892857Y-235953571D01*
X149035714Y-235882142D01*
X149107142Y-235810714D01*
X149178571Y-235667857D01*
X149178571Y-235239285D01*
X149107142Y-235096428D01*
X149035714Y-235025000D01*
X148892857Y-234953571D01*
X148607142Y-234953571D01*
X148464285Y-235025000D01*
X146607142Y-235953571D02*
X146607142Y-234453571D01*
X146607142Y-235025000D02*
X146464285Y-234953571D01*
X146178571Y-234953571D01*
X146035714Y-235025000D01*
X145964285Y-235096428D01*
X145892857Y-235239285D01*
X145892857Y-235667857D01*
X145964285Y-235810714D01*
X146035714Y-235882142D01*
X146178571Y-235953571D01*
X146464285Y-235953571D01*
X146607142Y-235882142D01*
X145392857Y-234953571D02*
X145035714Y-235953571D01*
X144678571Y-234953571D02*
X145035714Y-235953571D01*
X145178571Y-236310714D01*
X145250000Y-236382142D01*
X145392857Y-236453571D01*
X142964285Y-235953571D02*
X142964285Y-234453571D01*
X142964285Y-235025000D02*
X142821428Y-234953571D01*
X142535714Y-234953571D01*
X142392857Y-235025000D01*
X142321428Y-235096428D01*
X142250000Y-235239285D01*
X142250000Y-235667857D01*
X142321428Y-235810714D01*
X142392857Y-235882142D01*
X142535714Y-235953571D01*
X142821428Y-235953571D01*
X142964285Y-235882142D01*
X141607142Y-235953571D02*
X141607142Y-234453571D01*
X141607142Y-235025000D02*
X141464285Y-234953571D01*
X141178571Y-234953571D01*
X141035714Y-235025000D01*
X140964285Y-235096428D01*
X140892857Y-235239285D01*
X140892857Y-235667857D01*
X140964285Y-235810714D01*
X141035714Y-235882142D01*
X141178571Y-235953571D01*
X141464285Y-235953571D01*
X141607142Y-235882142D01*
X140250000Y-235953571D02*
X140250000Y-234953571D01*
X140250000Y-235239285D02*
X140178571Y-235096428D01*
X140107142Y-235025000D01*
X139964285Y-234953571D01*
X139821428Y-234953571D01*
X139535714Y-234953571D02*
X138964285Y-234953571D01*
X139321428Y-235953571D02*
X139321428Y-234667857D01*
X139250000Y-234525000D01*
X139107142Y-234453571D01*
X138964285Y-234453571D01*
X138464285Y-235953571D02*
X138464285Y-234453571D01*
X138321428Y-235382142D02*
X137892857Y-235953571D01*
X137892857Y-234953571D02*
X138464285Y-235525000D01*
X137250000Y-235953571D02*
X137250000Y-234953571D01*
X137250000Y-235239285D02*
X137178571Y-235096428D01*
X137107142Y-235025000D01*
X136964285Y-234953571D01*
X136821428Y-234953571D01*
D11*
%TO.C,SW04_00*%
X151948890Y-229169199D03*
D12*
X146868890Y-229169199D03*
D13*
X149408890Y-224089199D03*
X143058890Y-226629199D03*
D11*
X141788890Y-229169199D03*
D14*
X139783890Y-226629199D03*
X152710890Y-224089199D03*
%TD*%
D11*
%TO.C,SW06_01*%
X377508490Y-172074999D03*
X387668490Y-172074999D03*
D12*
X382588490Y-172074999D03*
D13*
X378778490Y-169534999D03*
X385128490Y-166994999D03*
D14*
X375503490Y-169534999D03*
X388430490Y-166994999D03*
%TD*%
D11*
%TO.C,SW04_05*%
X294163490Y-229219999D03*
D15*
X287305490Y-236204999D03*
D11*
X304323490Y-229219999D03*
D13*
X295433490Y-226679999D03*
X301783490Y-224139999D03*
D12*
X311181490Y-220964999D03*
D15*
X311181490Y-236204999D03*
D12*
X299243490Y-229219999D03*
X287305490Y-220964999D03*
D14*
X292158490Y-226679999D03*
X305085490Y-224139999D03*
%TD*%
D12*
%TO.C,SW09_05*%
X384968490Y-229219999D03*
D11*
X379888490Y-229219999D03*
X390048490Y-229219999D03*
D13*
X387508490Y-224139999D03*
X381158490Y-226679999D03*
D14*
X377883490Y-226679999D03*
X390810490Y-224139999D03*
%TD*%
D13*
%TO.C,SWET_AN00*%
X394183490Y-188569999D03*
D12*
X399263490Y-191109999D03*
D11*
X399263490Y-186029999D03*
D13*
X396723490Y-194919999D03*
D11*
X399263490Y-196189999D03*
D16*
X396723490Y-198194999D03*
X394183490Y-185267999D03*
%TD*%
D13*
%TO.C,SW00_00*%
X140653490Y-150459999D03*
D11*
X149543490Y-152999999D03*
D12*
X144463490Y-152999999D03*
D11*
X139383490Y-152999999D03*
D13*
X147003490Y-147919999D03*
D14*
X137378490Y-150459999D03*
X150305490Y-147919999D03*
%TD*%
D12*
%TO.C,SWBS_S00*%
X392113490Y-152999999D03*
D13*
X395923490Y-155539999D03*
D11*
X397193490Y-152999999D03*
D13*
X389573490Y-158079999D03*
D11*
X387033490Y-152999999D03*
D14*
X399198490Y-155539999D03*
X386271490Y-158079999D03*
%TD*%
D12*
%TO.C,SW08_04*%
X320663490Y-210169999D03*
D13*
X316853490Y-207629999D03*
D11*
X315583490Y-210169999D03*
X325743490Y-210169999D03*
D13*
X323203490Y-205089999D03*
D14*
X313578490Y-207629999D03*
X326505490Y-205089999D03*
%TD*%
D13*
%TO.C,SWSP_L04*%
X263378690Y-234299999D03*
X269728690Y-231759999D03*
D11*
X270998690Y-229219999D03*
X260838690Y-229219999D03*
D15*
X315918590Y-236204999D03*
X215918790Y-236204999D03*
D12*
X315918590Y-220964999D03*
X215918790Y-220964999D03*
X265918690Y-229219999D03*
D14*
X273003690Y-231759999D03*
X260076690Y-234299999D03*
%TD*%
D11*
%TO.C,SW02_06*%
X278133490Y-191109999D03*
X267973490Y-191109999D03*
D13*
X269243490Y-188569999D03*
X275593490Y-186029999D03*
D12*
X273053490Y-191109999D03*
D14*
X265968490Y-188569999D03*
X278895490Y-186029999D03*
%TD*%
D11*
%TO.C,SWCL_S00*%
X141763490Y-191124999D03*
D13*
X149383490Y-186044999D03*
D11*
X151923490Y-191124999D03*
D13*
X143033490Y-188584999D03*
D12*
X146843490Y-191124999D03*
D14*
X139758490Y-188584999D03*
X152685490Y-186044999D03*
%TD*%
D11*
%TO.C,SW06_05*%
X301308490Y-172049999D03*
D13*
X308928490Y-166969999D03*
D11*
X311468490Y-172049999D03*
D13*
X302578490Y-169509999D03*
D12*
X306388490Y-172049999D03*
D14*
X299303490Y-169509999D03*
X312230490Y-166969999D03*
%TD*%
D17*
%TO.C,RE0*%
X456545690Y-202727799D03*
D18*
X451545690Y-202727799D03*
X454045690Y-202727799D03*
D19*
X448445690Y-210227799D03*
X459645690Y-210227799D03*
%TD*%
D13*
%TO.C,SW00_04*%
X216853490Y-150479999D03*
D12*
X220663490Y-153019999D03*
D13*
X223203490Y-147939999D03*
D11*
X225743490Y-153019999D03*
X215583490Y-153019999D03*
D14*
X213578490Y-150479999D03*
X226505490Y-147939999D03*
%TD*%
D13*
%TO.C,SW05_01*%
X369228490Y-150459999D03*
D12*
X373038490Y-152999999D03*
D13*
X375578490Y-147919999D03*
D11*
X367958490Y-152999999D03*
X378118490Y-152999999D03*
D14*
X365953490Y-150459999D03*
X378880490Y-147919999D03*
%TD*%
D13*
%TO.C,SW02_01*%
X174003490Y-188579999D03*
D11*
X182893490Y-191119999D03*
D12*
X177813490Y-191119999D03*
D13*
X180353490Y-186039999D03*
D11*
X172733490Y-191119999D03*
D14*
X170728490Y-188579999D03*
X183655490Y-186039999D03*
%TD*%
D15*
%TO.C,SWBS_L00*%
X413576490Y-146014999D03*
D11*
X406718490Y-152999999D03*
D12*
X401638490Y-152999999D03*
D11*
X396558490Y-152999999D03*
D15*
X389700490Y-146014999D03*
D12*
X413576490Y-161254999D03*
D13*
X397828490Y-150459999D03*
D12*
X389700490Y-161254999D03*
D13*
X404178490Y-147919999D03*
D14*
X394553490Y-150459999D03*
X407480490Y-147919999D03*
%TD*%
D11*
%TO.C,SW00_05*%
X234633490Y-152999999D03*
D13*
X242253490Y-147919999D03*
D12*
X239713490Y-152999999D03*
D11*
X244793490Y-152999999D03*
D13*
X235903490Y-150459999D03*
D14*
X232628490Y-150459999D03*
X245555490Y-147919999D03*
%TD*%
D11*
%TO.C,SW05_04*%
X320993490Y-152999999D03*
X310833490Y-152999999D03*
D12*
X315913490Y-152999999D03*
D13*
X312103490Y-150459999D03*
X318453490Y-147919999D03*
D14*
X308828490Y-150459999D03*
X321755490Y-147919999D03*
%TD*%
D12*
%TO.C,SW00_03*%
X201613490Y-153019999D03*
D13*
X197803490Y-150479999D03*
D11*
X206693490Y-153019999D03*
D13*
X204153490Y-147939999D03*
D11*
X196533490Y-153019999D03*
D14*
X194528490Y-150479999D03*
X207455490Y-147939999D03*
%TD*%
D12*
%TO.C,SW09_03*%
X434955690Y-229219999D03*
D11*
X440035690Y-229219999D03*
X429875690Y-229219999D03*
D13*
X431145690Y-226679999D03*
X437495690Y-224139999D03*
D14*
X427870690Y-226679999D03*
X440797690Y-224139999D03*
%TD*%
D11*
%TO.C,SW09_01*%
X440053490Y-210169999D03*
D13*
X431163490Y-207629999D03*
D11*
X429893490Y-210169999D03*
D12*
X434973490Y-210169999D03*
D13*
X437513490Y-205089999D03*
D14*
X427888490Y-207629999D03*
X440815490Y-205089999D03*
%TD*%
D11*
%TO.C,SW08_06*%
X287653490Y-210169999D03*
D13*
X285113490Y-205089999D03*
D12*
X282573490Y-210169999D03*
D11*
X277493490Y-210169999D03*
D13*
X278763490Y-207629999D03*
D14*
X275488490Y-207629999D03*
X288415490Y-205089999D03*
%TD*%
D11*
%TO.C,SW04_03*%
X222713290Y-229219999D03*
D12*
X227793290Y-229219999D03*
D15*
X215855290Y-236204999D03*
D13*
X230333290Y-224139999D03*
X223983290Y-226679999D03*
D15*
X239731290Y-236204999D03*
D12*
X239731290Y-220964999D03*
X215855290Y-220964999D03*
D11*
X232873290Y-229219999D03*
D14*
X220708290Y-226679999D03*
X233635290Y-224139999D03*
%TD*%
D11*
%TO.C,SW08_03*%
X334643490Y-210169999D03*
X344803490Y-210169999D03*
D12*
X339723490Y-210169999D03*
D13*
X335913490Y-207629999D03*
X342263490Y-205089999D03*
D14*
X332638490Y-207629999D03*
X345565490Y-205089999D03*
%TD*%
D12*
%TO.C,AN_STAB_00*%
X411201490Y-182854999D03*
D15*
X387325490Y-198094999D03*
D12*
X387325490Y-182854999D03*
D15*
X411201490Y-198094999D03*
%TD*%
D12*
%TO.C,SW07_02*%
X368303490Y-191109999D03*
D11*
X363223490Y-191109999D03*
D13*
X364493490Y-188569999D03*
D11*
X373383490Y-191109999D03*
D13*
X370843490Y-186029999D03*
D14*
X361218490Y-188569999D03*
X374145490Y-186029999D03*
%TD*%
D11*
%TO.C,SW02_04*%
X229853490Y-191089999D03*
X240013490Y-191089999D03*
D13*
X237473490Y-186009999D03*
D12*
X234933490Y-191089999D03*
D13*
X231123490Y-188549999D03*
D14*
X227848490Y-188549999D03*
X240775490Y-186009999D03*
%TD*%
D12*
%TO.C,SW02_03*%
X215913490Y-191099999D03*
D13*
X218453490Y-186019999D03*
D11*
X210833490Y-191099999D03*
D13*
X212103490Y-188559999D03*
D11*
X220993490Y-191099999D03*
D14*
X208828490Y-188559999D03*
X221755490Y-186019999D03*
%TD*%
D13*
%TO.C,SW04_06*%
X339883490Y-224139999D03*
X333533490Y-226679999D03*
D11*
X342423490Y-229219999D03*
D12*
X337343490Y-229219999D03*
D11*
X332263490Y-229219999D03*
D14*
X330258490Y-226679999D03*
X343185490Y-224139999D03*
%TD*%
D11*
%TO.C,SW04_01*%
X165563290Y-229219999D03*
D12*
X170643290Y-229219999D03*
D11*
X175723290Y-229219999D03*
D13*
X173183290Y-224139999D03*
X166833290Y-226679999D03*
D14*
X163558290Y-226679999D03*
X176485290Y-224139999D03*
%TD*%
D13*
%TO.C,SW07_06*%
X294643490Y-186029999D03*
D11*
X287023490Y-191109999D03*
X297183490Y-191109999D03*
D12*
X292103490Y-191109999D03*
D13*
X288293490Y-188569999D03*
D14*
X285018490Y-188569999D03*
X297945490Y-186029999D03*
%TD*%
D11*
%TO.C,SW03_05*%
X239401090Y-210144599D03*
D13*
X247021090Y-205064599D03*
X240671090Y-207604599D03*
D11*
X249561090Y-210144599D03*
D12*
X244481090Y-210144599D03*
D14*
X237396090Y-207604599D03*
X250323090Y-205064599D03*
%TD*%
D12*
%TO.C,SW01_05*%
X249238490Y-172049999D03*
D13*
X251778490Y-166969999D03*
D11*
X254318490Y-172049999D03*
X244158490Y-172049999D03*
D13*
X245428490Y-169509999D03*
D14*
X242153490Y-169509999D03*
X255080490Y-166969999D03*
%TD*%
D11*
%TO.C,SW03_04*%
X220351090Y-210144599D03*
D12*
X225431090Y-210144599D03*
D13*
X227971090Y-205064599D03*
D11*
X230511090Y-210144599D03*
D13*
X221621090Y-207604599D03*
D14*
X218346090Y-207604599D03*
X231273090Y-205064599D03*
%TD*%
D11*
%TO.C,SW09_00*%
X416243490Y-152999999D03*
D12*
X411163490Y-152999999D03*
D13*
X408623490Y-158079999D03*
X414973490Y-155539999D03*
D11*
X406083490Y-152999999D03*
D14*
X418248490Y-155539999D03*
X405321490Y-158079999D03*
%TD*%
D13*
%TO.C,SW07_05*%
X307343490Y-188569999D03*
D12*
X311153490Y-191109999D03*
D11*
X306073490Y-191109999D03*
X316233490Y-191109999D03*
D13*
X313693490Y-186029999D03*
D14*
X304068490Y-188569999D03*
X316995490Y-186029999D03*
%TD*%
D13*
%TO.C,SWRS_S01*%
X382423490Y-215249999D03*
X388773490Y-212709999D03*
D11*
X390043490Y-210169999D03*
D12*
X384963490Y-210169999D03*
D11*
X379883490Y-210169999D03*
D14*
X392048490Y-212709999D03*
X379121490Y-215249999D03*
%TD*%
D11*
%TO.C,SW05_03*%
X340043490Y-152999999D03*
D13*
X331153490Y-150459999D03*
X337503490Y-147919999D03*
D11*
X329883490Y-152999999D03*
D12*
X334963490Y-152999999D03*
D14*
X327878490Y-150459999D03*
X340805490Y-147919999D03*
%TD*%
D13*
%TO.C,SW05_06*%
X274003490Y-150459999D03*
X280353490Y-147919999D03*
D11*
X282893490Y-152999999D03*
X272733490Y-152999999D03*
D12*
X277813490Y-152999999D03*
D14*
X270728490Y-150459999D03*
X283655490Y-147919999D03*
%TD*%
D12*
%TO.C,SW04_02*%
X194468490Y-229219999D03*
D13*
X190658490Y-226679999D03*
X197008490Y-224139999D03*
D11*
X199548490Y-229219999D03*
X189388490Y-229219999D03*
D14*
X187383490Y-226679999D03*
X200310490Y-224139999D03*
%TD*%
D13*
%TO.C,SW06_04*%
X327978490Y-166969999D03*
D11*
X330518490Y-172049999D03*
D12*
X325438490Y-172049999D03*
D11*
X320358490Y-172049999D03*
D13*
X321628490Y-169509999D03*
D14*
X318353490Y-169509999D03*
X331280490Y-166969999D03*
%TD*%
D13*
%TO.C,SW00_06*%
X254953490Y-150459999D03*
D11*
X253683490Y-152999999D03*
D12*
X258763490Y-152999999D03*
D13*
X261303490Y-147919999D03*
D11*
X263843490Y-152999999D03*
D14*
X251678490Y-150459999D03*
X264605490Y-147919999D03*
%TD*%
D11*
%TO.C,SW01_06*%
X273368490Y-172049999D03*
D13*
X264478490Y-169509999D03*
D12*
X268288490Y-172049999D03*
D13*
X270828490Y-166969999D03*
D11*
X263208490Y-172049999D03*
D14*
X261203490Y-169509999D03*
X274130490Y-166969999D03*
%TD*%
D11*
%TO.C,SW06_06*%
X292393490Y-172049999D03*
D13*
X289853490Y-166969999D03*
X283503490Y-169509999D03*
D12*
X287313490Y-172049999D03*
D11*
X282233490Y-172049999D03*
D14*
X280228490Y-169509999D03*
X293155490Y-166969999D03*
%TD*%
D11*
%TO.C,SW01_03*%
X216218490Y-172049999D03*
D13*
X213678490Y-166969999D03*
D11*
X206058490Y-172049999D03*
D12*
X211138490Y-172049999D03*
D13*
X207328490Y-169509999D03*
D14*
X204053490Y-169509999D03*
X216980490Y-166969999D03*
%TD*%
D13*
%TO.C,SW09_02*%
X456545690Y-224139999D03*
D11*
X459085690Y-229219999D03*
D12*
X454005690Y-229219999D03*
D11*
X448925690Y-229219999D03*
D13*
X450195690Y-226679999D03*
D14*
X446920690Y-226679999D03*
X459847690Y-224139999D03*
%TD*%
D11*
%TO.C,SW08_00*%
X416243490Y-210169999D03*
D13*
X408623490Y-215249999D03*
D12*
X411163490Y-210169999D03*
D11*
X406083490Y-210169999D03*
D13*
X414973490Y-212709999D03*
D14*
X418248490Y-212709999D03*
X405321490Y-215249999D03*
%TD*%
D13*
%TO.C,SW03_02*%
X183521090Y-207604599D03*
X189871090Y-205064599D03*
D12*
X187331090Y-210144599D03*
D11*
X182251090Y-210144599D03*
X192411090Y-210144599D03*
D14*
X180246090Y-207604599D03*
X193173090Y-205064599D03*
%TD*%
D11*
%TO.C,SW00_01*%
X158433490Y-152999999D03*
D13*
X166053490Y-147919999D03*
D12*
X163513490Y-152999999D03*
D13*
X159703490Y-150459999D03*
D11*
X168593490Y-152999999D03*
D14*
X156428490Y-150459999D03*
X169355490Y-147919999D03*
%TD*%
D13*
%TO.C,SW07_01*%
X384813490Y-194919999D03*
D12*
X387353490Y-191109999D03*
D11*
X387353490Y-196189999D03*
X387353490Y-186029999D03*
D13*
X382273490Y-188569999D03*
D16*
X384813490Y-198194999D03*
X382273490Y-185267999D03*
%TD*%
D12*
%TO.C,SW02_05*%
X253983490Y-191109999D03*
D13*
X250173490Y-188569999D03*
X256523490Y-186029999D03*
D11*
X248903490Y-191109999D03*
X259063490Y-191109999D03*
D14*
X246898490Y-188569999D03*
X259825490Y-186029999D03*
%TD*%
D13*
%TO.C,SW02_02*%
X199403490Y-186019999D03*
D11*
X201943490Y-191099999D03*
D12*
X196863490Y-191099999D03*
D13*
X193053490Y-188559999D03*
D11*
X191783490Y-191099999D03*
D14*
X189778490Y-188559999D03*
X202705490Y-186019999D03*
%TD*%
D12*
%TO.C,IS_STAB_00*%
X400532340Y-193507599D03*
D15*
X415772340Y-193507599D03*
D12*
X400532340Y-169631599D03*
D15*
X415772340Y-169631599D03*
%TD*%
D11*
%TO.C,SW00_02*%
X187643490Y-153019999D03*
X177483490Y-153019999D03*
D13*
X178753490Y-150479999D03*
D12*
X182563490Y-153019999D03*
D13*
X185103490Y-147939999D03*
D14*
X175478490Y-150479999D03*
X188405490Y-147939999D03*
%TD*%
D13*
%TO.C,SWET_IS00*%
X403703490Y-179059999D03*
D11*
X408783490Y-176519999D03*
D12*
X408783490Y-181599999D03*
D11*
X408783490Y-186679999D03*
D13*
X406243490Y-185409999D03*
D16*
X406243490Y-188684999D03*
X403703490Y-175757999D03*
%TD*%
D11*
%TO.C,SW09_06*%
X366223290Y-229219999D03*
D13*
X363683290Y-224139999D03*
X357333290Y-226679999D03*
D11*
X356063290Y-229219999D03*
D12*
X361143290Y-229219999D03*
D14*
X354058290Y-226679999D03*
X366985290Y-224139999D03*
%TD*%
D11*
%TO.C,SW06_02*%
X368618490Y-172049999D03*
D12*
X363538490Y-172049999D03*
D13*
X366078490Y-166969999D03*
D11*
X358458490Y-172049999D03*
D13*
X359728490Y-169509999D03*
D14*
X356453490Y-169509999D03*
X369380490Y-166969999D03*
%TD*%
D13*
%TO.C,SW01_04*%
X226378490Y-169509999D03*
D12*
X230188490Y-172049999D03*
D11*
X225108490Y-172049999D03*
X235268490Y-172049999D03*
D13*
X232728490Y-166969999D03*
D14*
X223103490Y-169509999D03*
X236030490Y-166969999D03*
%TD*%
D12*
%TO.C,SWCL_N00*%
X151613490Y-191124999D03*
D11*
X146533490Y-191124999D03*
X156693490Y-191124999D03*
D13*
X155423490Y-193664999D03*
X149073490Y-196204999D03*
D14*
X158698490Y-193664999D03*
X145771490Y-196204999D03*
%TD*%
D12*
%TO.C,SW05_05*%
X296863490Y-152999999D03*
D13*
X299403490Y-147919999D03*
X293053490Y-150459999D03*
D11*
X301943490Y-152999999D03*
X291783490Y-152999999D03*
D14*
X289778490Y-150459999D03*
X302705490Y-147919999D03*
%TD*%
D12*
%TO.C,SW07_03*%
X349253490Y-191109999D03*
D13*
X345443490Y-188569999D03*
D11*
X354333490Y-191109999D03*
D13*
X351793490Y-186029999D03*
D11*
X344173490Y-191109999D03*
D14*
X342168490Y-188569999D03*
X355095490Y-186029999D03*
%TD*%
D12*
%TO.C,SW08_02*%
X358773490Y-210169999D03*
D13*
X354963490Y-207629999D03*
X361313490Y-205089999D03*
D11*
X363853490Y-210169999D03*
X353693490Y-210169999D03*
D14*
X351688490Y-207629999D03*
X364615490Y-205089999D03*
%TD*%
D11*
%TO.C,SW01_02*%
X187008490Y-172049999D03*
D13*
X194628490Y-166969999D03*
D12*
X192088490Y-172049999D03*
D11*
X197168490Y-172049999D03*
D13*
X188278490Y-169509999D03*
D14*
X185003490Y-169509999D03*
X197930490Y-166969999D03*
%TD*%
D13*
%TO.C,SW01_01*%
X175578490Y-166969999D03*
D11*
X178118490Y-172049999D03*
X167958490Y-172049999D03*
D12*
X173038490Y-172049999D03*
D13*
X169228490Y-169509999D03*
D14*
X165953490Y-169509999D03*
X178880490Y-166969999D03*
%TD*%
D12*
%TO.C,SW06_03*%
X344488490Y-172049999D03*
D13*
X347028490Y-166969999D03*
X340678490Y-169509999D03*
D11*
X339408490Y-172049999D03*
X349568490Y-172049999D03*
D14*
X337403490Y-169509999D03*
X350330490Y-166969999D03*
%TD*%
D11*
%TO.C,SW03_06*%
X268611090Y-210169999D03*
X258451090Y-210169999D03*
D13*
X266071090Y-205089999D03*
X259721090Y-207629999D03*
D12*
X263531090Y-210169999D03*
D14*
X256446090Y-207629999D03*
X269373090Y-205089999D03*
%TD*%
D13*
%TO.C,SW09_04*%
X418445690Y-224139999D03*
D12*
X415905690Y-229219999D03*
D11*
X420985690Y-229219999D03*
D13*
X412095690Y-226679999D03*
D11*
X410825690Y-229219999D03*
D14*
X408820690Y-226679999D03*
X421747690Y-224139999D03*
%TD*%
D11*
%TO.C,SW06_00*%
X406388490Y-166969999D03*
D13*
X411468490Y-174589999D03*
X408928490Y-168239999D03*
D12*
X406388490Y-172049999D03*
D11*
X406388490Y-177129999D03*
D16*
X408928490Y-164964999D03*
X411468490Y-177891999D03*
%TD*%
D12*
%TO.C,SW01_00*%
X149238490Y-172049999D03*
D13*
X145428490Y-169509999D03*
D11*
X154318490Y-172049999D03*
X144158490Y-172049999D03*
D13*
X151778490Y-166969999D03*
D14*
X142153490Y-169509999D03*
X155080490Y-166969999D03*
%TD*%
D12*
%TO.C,SW05_02*%
X354013490Y-152999999D03*
D13*
X356553490Y-147919999D03*
D11*
X359093490Y-152999999D03*
X348933490Y-152999999D03*
D13*
X350203490Y-150459999D03*
D14*
X346928490Y-150459999D03*
X359855490Y-147919999D03*
%TD*%
D15*
%TO.C,SWRS_L01*%
X406431490Y-203174999D03*
D12*
X382555490Y-218414999D03*
D15*
X382555490Y-203174999D03*
D13*
X390683490Y-207619999D03*
D11*
X389413490Y-210159999D03*
D12*
X394493490Y-210159999D03*
D11*
X399573490Y-210159999D03*
D13*
X397033490Y-205079999D03*
D12*
X406431490Y-218414999D03*
D14*
X387408490Y-207619999D03*
X400335490Y-205079999D03*
%TD*%
D15*
%TO.C,SWLS_L01*%
X144430490Y-203184999D03*
D11*
X151288490Y-210169999D03*
D13*
X158908490Y-205089999D03*
D12*
X168306490Y-218424999D03*
X144430490Y-218424999D03*
D15*
X168306490Y-203184999D03*
D13*
X152558490Y-207629999D03*
D11*
X161448490Y-210169999D03*
D12*
X156368490Y-210169999D03*
D14*
X149283490Y-207629999D03*
X162210490Y-205089999D03*
%TD*%
D13*
%TO.C,SW03_03*%
X208921090Y-205064599D03*
D12*
X206381090Y-210144599D03*
D11*
X201301090Y-210144599D03*
X211461090Y-210144599D03*
D13*
X202571090Y-207604599D03*
D14*
X199296090Y-207604599D03*
X212223090Y-205064599D03*
%TD*%
D13*
%TO.C,SW03_00*%
X144278090Y-215224599D03*
X150628090Y-212684599D03*
D12*
X146818090Y-210144599D03*
D11*
X151898090Y-210144599D03*
X141738090Y-210144599D03*
D14*
X153903090Y-212684599D03*
X140976090Y-215224599D03*
%TD*%
D13*
%TO.C,SWLS_S01*%
X172091090Y-212684599D03*
X165741090Y-215224599D03*
D11*
X173361090Y-210144599D03*
X163201090Y-210144599D03*
D12*
X168281090Y-210144599D03*
D14*
X175366090Y-212684599D03*
X162439090Y-215224599D03*
%TD*%
D11*
%TO.C,SWSP_S04*%
X266223490Y-229219999D03*
D13*
X257333490Y-226679999D03*
D12*
X261143490Y-229219999D03*
D11*
X256063490Y-229219999D03*
D13*
X263683490Y-224139999D03*
D14*
X254058490Y-226679999D03*
X266985490Y-224139999D03*
%TD*%
D11*
%TO.C,SW07_04*%
X335283490Y-191109999D03*
D13*
X332743490Y-186029999D03*
D11*
X325123490Y-191109999D03*
D12*
X330203490Y-191109999D03*
D13*
X326393490Y-188569999D03*
D14*
X323118490Y-188569999D03*
X336045490Y-186029999D03*
%TD*%
D11*
%TO.C,SW08_05*%
X296543490Y-210169999D03*
X306703490Y-210169999D03*
D13*
X297813490Y-207629999D03*
D12*
X301623490Y-210169999D03*
D13*
X304163490Y-205089999D03*
D14*
X294538490Y-207629999D03*
X307465490Y-205089999D03*
%TD*%
D20*
%TO.C,R3*%
X453975000Y-155237500D03*
X453975000Y-152312500D03*
%TD*%
D21*
%TO.C,C9*%
X432300000Y-184800000D03*
X432300000Y-181850000D03*
%TD*%
D22*
%TO.C,D08_03*%
X347700000Y-217425000D03*
X347700000Y-214125000D03*
%TD*%
%TO.C,D09_04*%
X423900000Y-233575000D03*
X423900000Y-236875000D03*
%TD*%
%TO.C,D08_04*%
X328000000Y-217425000D03*
X328000000Y-214125000D03*
%TD*%
D23*
%TO.C,LED8*%
X430750000Y-239125000D03*
X430750000Y-242325000D03*
X425850000Y-242325000D03*
X425850000Y-239125000D03*
%TD*%
D24*
%TO.C,LED4*%
X134525000Y-210575000D03*
X131325000Y-210575000D03*
X131325000Y-205675000D03*
X134525000Y-205675000D03*
%TD*%
D25*
%TO.C,Y0*%
X431325000Y-167875000D03*
X429125000Y-167875000D03*
X429125000Y-166275000D03*
X431325000Y-166275000D03*
%TD*%
D26*
%TO.C,R2*%
X435525000Y-147012500D03*
X435525000Y-149937500D03*
%TD*%
D22*
%TO.C,D02_01*%
X185810000Y-198360000D03*
X185810000Y-195060000D03*
%TD*%
D20*
%TO.C,R7*%
X458375000Y-178012500D03*
X458375000Y-175087500D03*
%TD*%
D22*
%TO.C,D05_05*%
X304860000Y-160250000D03*
X304860000Y-156950000D03*
%TD*%
D27*
%TO.C,C7*%
X428750000Y-186700000D03*
X428750000Y-189650000D03*
%TD*%
D22*
%TO.C,D03_04*%
X224200000Y-217400000D03*
X224200000Y-214100000D03*
%TD*%
%TO.C,D06_01*%
X390575000Y-179325000D03*
X390575000Y-176025000D03*
%TD*%
%TO.C,D03_03*%
X214375000Y-217400000D03*
X214375000Y-214100000D03*
%TD*%
%TO.C,D07_04*%
X331250000Y-198350000D03*
X331250000Y-195050000D03*
%TD*%
D20*
%TO.C,R1*%
X453975000Y-150362500D03*
X453975000Y-147437500D03*
%TD*%
D22*
%TO.C,D09_01*%
X442975000Y-214100000D03*
X442975000Y-217400000D03*
%TD*%
%TO.C,D01_06*%
X276275000Y-179300000D03*
X276275000Y-176000000D03*
%TD*%
D23*
%TO.C,LED6*%
X259100000Y-239150000D03*
X259100000Y-242350000D03*
X254200000Y-242350000D03*
X254200000Y-239150000D03*
%TD*%
D22*
%TO.C,D06_06*%
X295325000Y-179300000D03*
X295325000Y-176000000D03*
%TD*%
%TO.C,D06_02*%
X371520000Y-179300000D03*
X371520000Y-176000000D03*
%TD*%
%TO.C,D07_02*%
X376290000Y-198350000D03*
X376290000Y-195050000D03*
%TD*%
D27*
%TO.C,C1*%
X446225000Y-163275000D03*
X446225000Y-166225000D03*
%TD*%
D22*
%TO.C,D03_05*%
X252475000Y-217400000D03*
X252475000Y-214100000D03*
%TD*%
D28*
%TO.C,C4*%
X428700000Y-179575000D03*
X431650000Y-179575000D03*
%TD*%
D22*
%TO.C,D02_02*%
X204850000Y-198350000D03*
X204850000Y-195050000D03*
%TD*%
%TO.C,D02_00*%
X161500000Y-198350000D03*
X161500000Y-195050000D03*
%TD*%
%TO.C,D01_04*%
X238175000Y-179300000D03*
X238175000Y-176000000D03*
%TD*%
%TO.C,D09_03*%
X442970000Y-233595000D03*
X442970000Y-236895000D03*
%TD*%
%TO.C,D08_02*%
X366780000Y-217420000D03*
X366780000Y-214120000D03*
%TD*%
%TO.C,D05_03*%
X342970000Y-160230000D03*
X342970000Y-156930000D03*
%TD*%
D29*
%TO.C,R5*%
X431662500Y-172075000D03*
X428737500Y-172075000D03*
%TD*%
D22*
%TO.C,D07_00*%
X407250000Y-198350000D03*
X407250000Y-195050000D03*
%TD*%
%TO.C,D08_01*%
X398425000Y-217400000D03*
X398425000Y-214100000D03*
%TD*%
%TO.C,D01_05*%
X257230000Y-179300000D03*
X257230000Y-176000000D03*
%TD*%
%TO.C,D06_03*%
X352490000Y-179310000D03*
X352490000Y-176010000D03*
%TD*%
%TO.C,D07_01*%
X390510000Y-198350000D03*
X390510000Y-195050000D03*
%TD*%
D30*
%TO.C,RESET_SW0*%
X456925000Y-167025000D03*
X456925000Y-173025000D03*
X460675000Y-167025000D03*
X460675000Y-173025000D03*
%TD*%
D22*
%TO.C,D09_05*%
X392925000Y-233575000D03*
X392925000Y-236875000D03*
%TD*%
%TO.C,D04_06*%
X329325000Y-220900000D03*
X329325000Y-224200000D03*
%TD*%
%TO.C,D08_06*%
X290570000Y-217400000D03*
X290570000Y-214100000D03*
%TD*%
D27*
%TO.C,C6*%
X432300000Y-186725000D03*
X432300000Y-189675000D03*
%TD*%
D22*
%TO.C,D00_00*%
X152475000Y-160325000D03*
X152475000Y-157025000D03*
%TD*%
D28*
%TO.C,C3*%
X428725000Y-175800000D03*
X431675000Y-175800000D03*
%TD*%
D31*
%TO.C,U4*%
X438798293Y-194475000D03*
D32*
X438798293Y-193825000D03*
X438798293Y-193175000D03*
X440551707Y-193175000D03*
X440551707Y-193825000D03*
X440551707Y-194475000D03*
%TD*%
D22*
%TO.C,D09_00*%
X405300000Y-164175000D03*
X405300000Y-160875000D03*
%TD*%
D23*
%TO.C,LED5*%
X172550000Y-239150000D03*
X172550000Y-242350000D03*
X167650000Y-242350000D03*
X167650000Y-239150000D03*
%TD*%
D31*
%TO.C,U6*%
X449298293Y-194525000D03*
D32*
X449298293Y-193875000D03*
X449298293Y-193225000D03*
X451051707Y-193225000D03*
X451051707Y-193875000D03*
X451051707Y-194525000D03*
%TD*%
D20*
%TO.C,R0*%
X457600000Y-150362500D03*
X457600000Y-147437500D03*
%TD*%
D33*
%TO.C,U2*%
X459875001Y-185449999D03*
X459875001Y-186399999D03*
X459875001Y-187349998D03*
X456925002Y-187349998D03*
X456925002Y-185449999D03*
%TD*%
D22*
%TO.C,D05_00*%
X402220000Y-160240000D03*
X402220000Y-156940000D03*
%TD*%
D23*
%TO.C,LED1*%
X339425000Y-143050000D03*
X339425000Y-139850000D03*
X344325000Y-139850000D03*
X344325000Y-143050000D03*
%TD*%
D22*
%TO.C,D00_01*%
X171510000Y-160250000D03*
X171510000Y-156950000D03*
%TD*%
%TO.C,D00_04*%
X228660000Y-160250000D03*
X228660000Y-156950000D03*
%TD*%
%TO.C,D05_01*%
X381070000Y-160240000D03*
X381070000Y-156940000D03*
%TD*%
%TO.C,D01_01*%
X179100000Y-179275000D03*
X179100000Y-175975000D03*
%TD*%
%TO.C,D02_04*%
X242950000Y-198350000D03*
X242950000Y-195050000D03*
%TD*%
%TO.C,D07_05*%
X319150000Y-198350000D03*
X319150000Y-195050000D03*
%TD*%
%TO.C,D07_03*%
X357250000Y-198350000D03*
X357250000Y-195050000D03*
%TD*%
%TO.C,D04_01*%
X179350000Y-220900000D03*
X179350000Y-224200000D03*
%TD*%
%TO.C,D01_00*%
X157225000Y-179300000D03*
X157225000Y-176000000D03*
%TD*%
%TO.C,D08_05*%
X309625000Y-217400000D03*
X309625000Y-214100000D03*
%TD*%
%TO.C,D04_02*%
X203110000Y-220825000D03*
X203110000Y-224125000D03*
%TD*%
%TO.C,D05_04*%
X323910000Y-160260000D03*
X323910000Y-156960000D03*
%TD*%
%TO.C,D05_06*%
X285800000Y-160250000D03*
X285800000Y-156950000D03*
%TD*%
D27*
%TO.C,C2*%
X457600000Y-152275000D03*
X457600000Y-155225000D03*
%TD*%
D22*
%TO.C,D09_02*%
X462000000Y-233600000D03*
X462000000Y-236900000D03*
%TD*%
D24*
%TO.C,LED9*%
X463950000Y-205800000D03*
X467150000Y-205800000D03*
X467150000Y-210700000D03*
X463950000Y-210700000D03*
%TD*%
D22*
%TO.C,D06_05*%
X314380000Y-179300000D03*
X314380000Y-176000000D03*
%TD*%
%TO.C,D07_06*%
X293125000Y-198350000D03*
X293125000Y-195050000D03*
%TD*%
%TO.C,D00_02*%
X190560000Y-160260000D03*
X190560000Y-156960000D03*
%TD*%
D23*
%TO.C,LED3*%
X167650000Y-143050000D03*
X167650000Y-139850000D03*
X172550000Y-139850000D03*
X172550000Y-143050000D03*
%TD*%
D22*
%TO.C,D06_04*%
X333430000Y-179300000D03*
X333430000Y-176000000D03*
%TD*%
%TO.C,D03_02*%
X195325000Y-217400000D03*
X195325000Y-214100000D03*
%TD*%
%TO.C,D00_06*%
X266760000Y-160250000D03*
X266760000Y-156950000D03*
%TD*%
D21*
%TO.C,C0*%
X442525000Y-166175000D03*
X442525000Y-163225000D03*
%TD*%
D22*
%TO.C,D00_05*%
X247700000Y-160250000D03*
X247700000Y-156950000D03*
%TD*%
%TO.C,D02_05*%
X257870000Y-198330000D03*
X257870000Y-195030000D03*
%TD*%
%TO.C,D04_05*%
X307850000Y-220850000D03*
X307850000Y-224150000D03*
%TD*%
%TO.C,D04_03*%
X236400000Y-220850000D03*
X236400000Y-224150000D03*
%TD*%
%TO.C,D09_06*%
X369150000Y-233525000D03*
X369150000Y-236825000D03*
%TD*%
D23*
%TO.C,LED2*%
X254175000Y-143075000D03*
X254175000Y-139875000D03*
X259075000Y-139875000D03*
X259075000Y-143075000D03*
%TD*%
D22*
%TO.C,D01_03*%
X219125000Y-179300000D03*
X219125000Y-176000000D03*
%TD*%
%TO.C,D03_01*%
X159625000Y-217400000D03*
X159625000Y-214100000D03*
%TD*%
%TO.C,D01_02*%
X200075000Y-179300000D03*
X200075000Y-176000000D03*
%TD*%
%TO.C,D02_03*%
X223910000Y-198370000D03*
X223910000Y-195070000D03*
%TD*%
D34*
%TO.C,U1*%
X439075000Y-183100000D03*
X439075000Y-181320000D03*
X439075000Y-179540000D03*
X439075000Y-177760000D03*
X439075000Y-175980000D03*
X439075000Y-174200000D03*
X439075000Y-172420000D03*
X439075000Y-170640000D03*
X449775000Y-169750000D03*
X449775000Y-171530000D03*
X449775000Y-173310000D03*
X449775000Y-175090000D03*
X449775000Y-176870000D03*
X449775000Y-178650000D03*
X449775000Y-180430000D03*
X449775000Y-182210000D03*
%TD*%
D35*
%TO.C,U0*%
X450250000Y-149950000D03*
X450250000Y-150750000D03*
X450250000Y-151550000D03*
X450250000Y-152350000D03*
X450250000Y-153150000D03*
X450250000Y-153950000D03*
X450250000Y-154750000D03*
X450250000Y-155550000D03*
X450250000Y-156350000D03*
X450250000Y-157150000D03*
X450250000Y-157950000D03*
D36*
X448550000Y-159650000D03*
X447750000Y-159650000D03*
X446950000Y-159650000D03*
X446150000Y-159650000D03*
X445350000Y-159650000D03*
X444550000Y-159650000D03*
X443750000Y-159650000D03*
X442950000Y-159650000D03*
X442150000Y-159650000D03*
X441350000Y-159650000D03*
X440550000Y-159650000D03*
D35*
X438850000Y-157950000D03*
X438850000Y-157150000D03*
X438850000Y-156350000D03*
X438850000Y-155550000D03*
X438850000Y-154750000D03*
X438850000Y-153950000D03*
X438850000Y-153150000D03*
X438850000Y-152350000D03*
X438850000Y-151550000D03*
X438850000Y-150750000D03*
X438850000Y-149950000D03*
D36*
X440550000Y-148250000D03*
X441350000Y-148250000D03*
X442150000Y-148250000D03*
X442950000Y-148250000D03*
X443750000Y-148250000D03*
X444550000Y-148250000D03*
X445350000Y-148250000D03*
X446150000Y-148250000D03*
X446950000Y-148250000D03*
X447750000Y-148250000D03*
X448550000Y-148250000D03*
%TD*%
D22*
%TO.C,D02_06*%
X281050000Y-198360000D03*
X281050000Y-195060000D03*
%TD*%
D23*
%TO.C,LED0*%
X425925000Y-143075000D03*
X425925000Y-139875000D03*
X430825000Y-139875000D03*
X430825000Y-143075000D03*
%TD*%
D21*
%TO.C,C10*%
X436000000Y-184800000D03*
X436000000Y-181850000D03*
%TD*%
D26*
%TO.C,R8*%
X456925000Y-161287500D03*
X456925000Y-164212500D03*
%TD*%
D31*
%TO.C,U3*%
X433498293Y-194475000D03*
D32*
X433498293Y-193825000D03*
X433498293Y-193175000D03*
X435251707Y-193175000D03*
X435251707Y-193825000D03*
X435251707Y-194475000D03*
%TD*%
D22*
%TO.C,D08_00*%
X402450000Y-217400000D03*
X402450000Y-214100000D03*
%TD*%
D31*
%TO.C,U7*%
X454498293Y-194550000D03*
D32*
X454498293Y-193900000D03*
X454498293Y-193250000D03*
X456251707Y-193250000D03*
X456251707Y-193900000D03*
X456251707Y-194550000D03*
%TD*%
D22*
%TO.C,D03_06*%
X271525000Y-217425000D03*
X271525000Y-214125000D03*
%TD*%
D23*
%TO.C,LED7*%
X344225000Y-239125000D03*
X344225000Y-242325000D03*
X339325000Y-242325000D03*
X339325000Y-239125000D03*
%TD*%
D22*
%TO.C,D03_00*%
X156725000Y-217400000D03*
X156725000Y-214100000D03*
%TD*%
%TO.C,D04_00*%
X155470000Y-220825000D03*
X155470000Y-224125000D03*
%TD*%
D27*
%TO.C,C5*%
X436000000Y-186750000D03*
X436000000Y-189700000D03*
%TD*%
D22*
%TO.C,D04_04*%
X248225000Y-220850000D03*
X248225000Y-224150000D03*
%TD*%
D20*
%TO.C,R4*%
X461325000Y-155200000D03*
X461325000Y-152275000D03*
%TD*%
D22*
%TO.C,D05_02*%
X362000000Y-160250000D03*
X362000000Y-156950000D03*
%TD*%
D24*
%TO.C,JP0*%
X453550000Y-175100000D03*
X454850000Y-175100000D03*
%TD*%
D21*
%TO.C,C8*%
X428700000Y-184800000D03*
X428700000Y-181850000D03*
%TD*%
D22*
%TO.C,D00_03*%
X209600000Y-160250000D03*
X209600000Y-156950000D03*
%TD*%
%TO.C,D06_00*%
X398250000Y-179325000D03*
X398250000Y-176025000D03*
%TD*%
D31*
%TO.C,U5*%
X444073293Y-194525000D03*
D32*
X444073293Y-193875000D03*
X444073293Y-193225000D03*
X445826707Y-193225000D03*
X445826707Y-193875000D03*
X445826707Y-194525000D03*
%TD*%
D26*
%TO.C,R6*%
X454200000Y-178012500D03*
X454200000Y-180937500D03*
%TD*%
D37*
%TO.C,J0*%
X453835000Y-143040000D03*
X459615000Y-143040000D03*
D38*
X453475000Y-144485000D03*
X454275000Y-144485000D03*
D39*
X455475000Y-144485000D03*
X456475000Y-144485000D03*
X456975000Y-144485000D03*
X457975000Y-144485000D03*
D38*
X459175000Y-144485000D03*
X459975000Y-144485000D03*
X459975000Y-144485000D03*
X459175000Y-144485000D03*
D39*
X458475000Y-144485000D03*
X457475000Y-144485000D03*
X455975000Y-144485000D03*
X454975000Y-144485000D03*
D38*
X454275000Y-144485000D03*
X453475000Y-144485000D03*
D40*
X461045000Y-139390000D03*
X452405000Y-139390000D03*
D41*
X452405000Y-143570000D03*
X461045000Y-143570000D03*
%TD*%
M02*
