M48
; DRILL file {KiCad (6.0.5)} date Sun Jun 26 21:14:42 2022
; FORMAT={-:-/ absolute / inch / decimal}
; #@! TF.CreationDate,2022-06-26T21:14:42+09:00
; #@! TF.GenerationSoftware,Kicad,Pcbnew,(6.0.5)
; #@! TF.FileFunction,NonPlated,1,2,NPTH
FMAT,2
INCH
; #@! TA.AperFunction,NonPlated,NPTH,ComponentDrill
T1C0.0256
; #@! TA.AperFunction,NonPlated,NPTH,ComponentDrill
T2C0.0689
; #@! TA.AperFunction,NonPlated,NPTH,ComponentDrill
T3C0.1181
; #@! TA.AperFunction,NonPlated,NPTH,ComponentDrill
T4C0.1200
; #@! TA.AperFunction,NonPlated,NPTH,ComponentDrill
T5C0.1570
%
G90
G05
T1
X17.8675Y-5.6315
X18.0951Y-5.6315
T2
X5.4875Y-6.0236
X5.5802Y-8.2734
X5.5812Y-7.5246
X5.5822Y-9.0224
X5.6755Y-6.7736
X5.769Y-7.5246
X5.8875Y-6.0236
X5.9562Y-8.2744
X5.9802Y-8.2734
X5.9812Y-7.5246
X5.9822Y-9.0224
X6.0755Y-6.7736
X6.169Y-7.5246
X6.2375Y-6.0236
X6.3562Y-8.2744
X6.4252Y-8.2734
X6.5182Y-9.0244
X6.6125Y-6.7736
X6.6375Y-6.0236
X6.8005Y-7.5244
X6.8252Y-8.2734
X6.9182Y-9.0244
X6.9875Y-6.0244
X7.0125Y-6.7736
X7.1752Y-8.2734
X7.2005Y-7.5244
X7.3625Y-6.7736
X7.3875Y-6.0244
X7.4562Y-9.0244
X7.5505Y-7.5236
X7.5752Y-8.2734
X7.7375Y-6.0244
X7.7625Y-6.7736
X7.8562Y-9.0244
X7.9252Y-8.2734
X7.9505Y-7.5236
X8.1125Y-6.7736
X8.1375Y-6.0244
X8.3005Y-7.5236
X8.3252Y-8.2734
X8.4875Y-6.0244
X8.5125Y-6.7736
X8.6752Y-8.2734
X8.7005Y-7.5236
X8.7682Y-9.0244
X8.8625Y-6.7736
X8.8875Y-6.0244
X9.0494Y-7.5232
X9.0752Y-8.2734
X9.1682Y-9.0244
X9.2375Y-6.0236
X9.2625Y-6.7736
X9.4252Y-8.2734
X9.4493Y-7.5232
X9.6125Y-6.7736
X9.6375Y-6.0236
X9.7994Y-7.524
X9.8252Y-8.2734
X9.9875Y-6.0236
X10.0125Y-6.7736
X10.0812Y-9.0244
X10.1752Y-8.2744
X10.1993Y-7.524
X10.2692Y-9.0244
X10.3625Y-6.7736
X10.3875Y-6.0236
X10.4812Y-9.0244
X10.5501Y-7.524
X10.5752Y-8.2744
X10.6692Y-9.0244
X10.7375Y-6.0236
X10.7625Y-6.7736
X10.9249Y-8.2744
X10.9501Y-7.524
X11.1116Y-6.7736
X11.1375Y-6.0236
X11.3001Y-7.524
X11.3249Y-8.2744
X11.4875Y-6.0236
X11.5116Y-6.7736
X11.5812Y-9.0244
X11.6749Y-8.2744
X11.7001Y-7.524
X11.8625Y-6.7736
X11.8875Y-6.0236
X11.9812Y-9.0244
X12.0501Y-7.524
X12.0749Y-8.2744
X12.2375Y-6.0236
X12.2625Y-6.7736
X12.4245Y-8.2744
X12.4501Y-7.524
X12.6125Y-6.7736
X12.6375Y-6.0236
X12.8001Y-7.524
X12.8245Y-8.2744
X12.9875Y-6.0236
X13.0125Y-6.7736
X13.0812Y-9.0244
X13.1749Y-8.2744
X13.2001Y-7.524
X13.3625Y-6.7736
X13.3875Y-6.0236
X13.4812Y-9.0244
X13.5501Y-7.524
X13.5749Y-8.2744
X13.7375Y-6.0236
X13.7625Y-6.7736
X13.9249Y-8.2744
X13.9501Y-7.524
X14.0182Y-9.0244
X14.1125Y-6.7736
X14.1375Y-6.0236
X14.3001Y-7.524
X14.3249Y-8.2744
X14.4182Y-9.0244
X14.4866Y-6.0236
X14.5125Y-6.7736
X14.7001Y-7.524
X14.8625Y-6.7746
X14.8866Y-6.0236
X14.956Y-8.2744
X14.9562Y-9.0244
X15.2375Y-6.0236
X15.2501Y-7.324
X15.2501Y-7.724
X15.2625Y-6.7746
X15.3312Y-8.274
X15.356Y-8.2744
X15.3562Y-9.0244
X15.6125Y-6.0236
X15.6375Y-6.0236
X15.719Y-7.324
X15.719Y-7.724
X15.7312Y-8.274
X15.9875Y-6.0236
X15.9875Y-8.2744
X15.9995Y-6.5736
X15.9995Y-6.9736
X16.0125Y-6.0236
X16.0938Y-6.9496
X16.0938Y-7.3496
X16.1742Y-9.0244
X16.3875Y-6.0236
X16.3875Y-8.2744
X16.5742Y-9.0244
X16.9242Y-9.0244
X16.9249Y-8.2744
X17.3242Y-9.0244
X17.3249Y-8.2744
X17.6742Y-9.0244
X18.0742Y-9.0244
T3
X5.5375Y-5.9236
X5.6312Y-7.4246
X5.6322Y-8.9224
X5.6802Y-8.4734
X5.7255Y-6.6736
X5.7875Y-5.8236
X5.869Y-7.7246
X5.8812Y-7.3246
X5.8822Y-8.8224
X5.9302Y-8.3734
X5.9755Y-6.5736
X6.0062Y-8.1744
X6.119Y-7.6246
X6.2562Y-8.0744
X6.2875Y-5.9236
X6.5252Y-8.4734
X6.5375Y-5.8236
X6.5682Y-8.9244
X6.6625Y-6.6736
X6.7752Y-8.3734
X6.8182Y-8.8244
X6.8505Y-7.4244
X6.9125Y-6.5736
X7.0375Y-5.9244
X7.1005Y-7.3244
X7.2252Y-8.1734
X7.2875Y-5.8244
X7.4125Y-6.6736
X7.4752Y-8.0734
X7.5062Y-8.9244
X7.6005Y-7.4236
X7.6625Y-6.5736
X7.7562Y-8.8244
X7.7875Y-5.9244
X7.8505Y-7.3236
X7.9752Y-8.1734
X8.0375Y-5.8244
X8.1625Y-6.6736
X8.2252Y-8.0734
X8.3505Y-7.4236
X8.4125Y-6.5736
X8.5375Y-5.9244
X8.6005Y-7.3236
X8.7252Y-8.1734
X8.7875Y-5.8244
X8.8182Y-8.9244
X8.9125Y-6.6736
X8.9752Y-8.0734
X9.0682Y-8.8244
X9.0993Y-7.4232
X9.1625Y-6.5736
X9.2875Y-5.9236
X9.3493Y-7.3232
X9.4752Y-8.1734
X9.5375Y-5.8236
X9.6625Y-6.6736
X9.7252Y-8.0734
X9.8493Y-7.424
X9.9125Y-6.5736
X10.0375Y-5.9236
X10.0993Y-7.324
X10.1312Y-8.9244
X10.2252Y-8.1744
X10.2875Y-5.8236
X10.3692Y-9.2244
X10.3812Y-8.8244
X10.4125Y-6.6736
X10.4752Y-8.0744
X10.6001Y-7.424
X10.6192Y-9.1244
X10.6625Y-6.5736
X10.7875Y-5.9236
X10.8501Y-7.324
X10.9749Y-8.1744
X11.0375Y-5.8236
X11.1616Y-6.6736
X11.2249Y-8.0744
X11.3501Y-7.424
X11.4116Y-6.5736
X11.5375Y-5.9236
X11.6001Y-7.324
X11.6312Y-8.9244
X11.7249Y-8.1744
X11.7875Y-5.8236
X11.8812Y-8.8244
X11.9125Y-6.6736
X11.9749Y-8.0744
X12.1001Y-7.424
X12.1625Y-6.5736
X12.2875Y-5.9236
X12.3501Y-7.324
X12.4745Y-8.1744
X12.5375Y-5.8236
X12.6625Y-6.6736
X12.7245Y-8.0744
X12.8501Y-7.424
X12.9125Y-6.5736
X13.0375Y-5.9236
X13.1001Y-7.324
X13.1312Y-8.9244
X13.2249Y-8.1744
X13.2875Y-5.8236
X13.3812Y-8.8244
X13.4125Y-6.6736
X13.4749Y-8.0744
X13.6001Y-7.424
X13.6625Y-6.5736
X13.7875Y-5.9236
X13.8501Y-7.324
X13.9749Y-8.1744
X14.0375Y-5.8236
X14.0682Y-8.9244
X14.1625Y-6.6736
X14.2249Y-8.0744
X14.3182Y-8.8244
X14.3501Y-7.424
X14.4125Y-6.5736
X14.5366Y-5.9236
X14.6001Y-7.324
X14.7866Y-5.8236
X14.9125Y-6.6746
X15.0062Y-8.9244
X15.0501Y-7.424
X15.056Y-8.4744
X15.1501Y-7.674
X15.1625Y-6.5746
X15.2562Y-8.8244
X15.306Y-8.3744
X15.3375Y-6.2236
X15.3812Y-8.174
X15.519Y-7.424
X15.5875Y-6.1236
X15.619Y-7.674
X15.6312Y-8.074
X15.6625Y-5.9236
X15.8938Y-7.0496
X15.9125Y-5.8236
X15.9938Y-7.2996
X16.0875Y-6.2236
X16.0875Y-8.4744
X16.0995Y-6.6236
X16.1995Y-6.8736
X16.2242Y-8.9244
X16.3375Y-6.1236
X16.3375Y-8.3744
X16.4742Y-8.8244
X16.9742Y-8.9244
X16.9749Y-8.1744
X17.2242Y-8.8244
X17.2249Y-8.0744
X17.7242Y-8.9244
X17.9742Y-8.8244
T4
X5.6862Y-7.9994
X6.6262Y-7.9994
X8.4982Y-9.2994
X8.5007Y-9.2994
X9.4382Y-9.2994
X11.3112Y-9.2994
X12.2512Y-9.2994
X12.4377Y-9.2994
X15.0612Y-7.999
X15.249Y-7.799
X15.3425Y-5.7486
X16.0012Y-7.999
X16.189Y-7.799
X16.2825Y-5.7486
X16.369Y-6.6784
X16.369Y-7.6184
T5
X5.6862Y-8.5994
X5.6875Y-6.0236
X5.7802Y-8.2734
X5.7812Y-7.5246
X5.7822Y-9.0224
X5.8755Y-6.7736
X5.969Y-7.5246
X6.1562Y-8.2744
X6.4375Y-6.0236
X6.6252Y-8.2734
X6.6262Y-8.5994
X6.7182Y-9.0244
X6.8125Y-6.7736
X7.0005Y-7.5244
X7.1875Y-6.0244
X7.3752Y-8.2734
X7.5625Y-6.7736
X7.6562Y-9.0244
X7.7505Y-7.5236
X7.9375Y-6.0244
X8.1252Y-8.2734
X8.3125Y-6.7736
X8.4982Y-8.6994
X8.5005Y-7.5236
X8.5007Y-8.6994
X8.6875Y-6.0244
X8.8752Y-8.2734
X8.9682Y-9.0244
X9.0625Y-6.7736
X9.2493Y-7.5232
X9.4375Y-6.0236
X9.4382Y-8.6994
X9.6252Y-8.2734
X9.8125Y-6.7736
X9.9993Y-7.524
X10.1875Y-6.0236
X10.2812Y-9.0244
X10.3752Y-8.2744
X10.4692Y-9.0244
X10.5625Y-6.7736
X10.7501Y-7.524
X10.9375Y-6.0236
X11.1249Y-8.2744
X11.3112Y-8.6994
X11.3116Y-6.7736
X11.5001Y-7.524
X11.6875Y-6.0236
X11.7812Y-9.0244
X11.8749Y-8.2744
X12.0625Y-6.7736
X12.2501Y-7.524
X12.2512Y-8.6994
X12.4375Y-6.0236
X12.4377Y-8.6994
X12.6245Y-8.2744
X12.8125Y-6.7736
X13.0001Y-7.524
X13.1875Y-6.0236
X13.2812Y-9.0244
X13.3749Y-8.2744
X13.5625Y-6.7736
X13.7501Y-7.524
X13.9375Y-6.0236
X14.1249Y-8.2744
X14.2182Y-9.0244
X14.3125Y-6.7736
X14.5001Y-7.524
X14.6866Y-6.0236
X15.0612Y-8.599
X15.0625Y-6.7746
X15.156Y-8.2744
X15.1562Y-9.0244
X15.249Y-7.199
X15.2501Y-7.524
X15.3425Y-6.3486
X15.4375Y-6.0236
X15.5312Y-8.274
X15.719Y-7.524
X15.769Y-6.6784
X15.769Y-7.6184
X15.8125Y-6.0236
X15.9995Y-6.7736
X16.0012Y-8.599
X16.0938Y-7.1496
X16.1875Y-6.0236
X16.1875Y-8.2744
X16.189Y-7.199
X16.2825Y-6.3486
X16.3742Y-9.0244
X17.1242Y-9.0244
X17.1249Y-8.2744
X17.8742Y-9.0244
T0
M30
