%TF.GenerationSoftware,KiCad,Pcbnew,(6.0.5)*%
%TF.CreationDate,2022-06-26T21:14:40+09:00*%
%TF.ProjectId,dynamis,64796e61-6d69-4732-9e6b-696361645f70,rev?*%
%TF.SameCoordinates,Original*%
%TF.FileFunction,Soldermask,Top*%
%TF.FilePolarity,Negative*%
%FSLAX46Y46*%
G04 Gerber Fmt 4.6, Leading zero omitted, Abs format (unit mm)*
G04 Created by KiCad (PCBNEW (6.0.5)) date 2022-06-26 21:14:40*
%MOMM*%
%LPD*%
G01*
G04 APERTURE LIST*
%ADD10C,1.750000*%
%ADD11C,3.987800*%
%ADD12C,3.000000*%
%ADD13C,3.048000*%
%ADD14R,2.000000X2.000000*%
%ADD15C,2.000000*%
%ADD16R,2.500000X3.000000*%
%ADD17C,1.300000*%
%ADD18C,0.650000*%
%ADD19O,1.000000X1.600000*%
%ADD20O,1.000000X2.100000*%
G04 APERTURE END LIST*
%TO.C,LOGO01*%
G36*
X278688200Y-226576054D02*
G01*
X279848382Y-226576527D01*
X281008564Y-226576999D01*
X281067582Y-224901622D01*
X281126600Y-223226244D01*
X282189129Y-224901622D01*
X283251658Y-226576999D01*
X282239929Y-226576999D01*
X281661606Y-226599347D01*
X281295413Y-226656460D01*
X281228200Y-226700674D01*
X281340302Y-226911334D01*
X281638014Y-227360944D01*
X282063444Y-227963081D01*
X282193400Y-228141555D01*
X283158600Y-229458761D01*
X283260200Y-228084960D01*
X283361800Y-226711158D01*
X284323454Y-228160311D01*
X285285108Y-229609465D01*
X283252416Y-232716032D01*
X282595981Y-233708569D01*
X282008694Y-234576405D01*
X281528848Y-235264569D01*
X281194735Y-235718088D01*
X281047472Y-235881429D01*
X280887388Y-235738316D01*
X280547065Y-235304856D01*
X280064358Y-234633622D01*
X279477125Y-233777188D01*
X278852691Y-232833429D01*
X278748253Y-232673000D01*
X278789800Y-232673000D01*
X279805800Y-232673000D01*
X280385541Y-232653093D01*
X280753389Y-232602197D01*
X280821800Y-232562401D01*
X280707389Y-232360436D01*
X280402864Y-231919657D01*
X279966281Y-231323077D01*
X279805800Y-231109698D01*
X278789800Y-229767593D01*
X278789800Y-232673000D01*
X278748253Y-232673000D01*
X276856848Y-229767593D01*
X276830162Y-229726600D01*
X277825644Y-229664637D01*
X278821126Y-229602675D01*
X278816675Y-229501325D01*
X278993000Y-229501325D01*
X279175859Y-229571893D01*
X279643374Y-229616670D01*
X280009000Y-229625000D01*
X281025000Y-229625000D01*
X281025000Y-228202600D01*
X281016836Y-227501441D01*
X280995354Y-226993406D01*
X280965063Y-226781310D01*
X280962590Y-226780200D01*
X280815509Y-226931814D01*
X280508128Y-227322679D01*
X280109910Y-227856830D01*
X279690316Y-228438298D01*
X279318810Y-228971119D01*
X279064852Y-229359324D01*
X278993000Y-229501325D01*
X278816675Y-229501325D01*
X278754663Y-228089364D01*
X278688200Y-226576054D01*
G37*
%TD*%
D10*
%TO.C,SW04_00*%
X151948890Y-229169199D03*
D11*
X146868890Y-229169199D03*
D12*
X149408890Y-224089199D03*
X143058890Y-226629199D03*
D10*
X141788890Y-229169199D03*
%TD*%
%TO.C,SW06_01*%
X377508490Y-172074999D03*
X387668490Y-172074999D03*
D11*
X382588490Y-172074999D03*
D12*
X378778490Y-169534999D03*
X385128490Y-166994999D03*
%TD*%
D10*
%TO.C,SW04_05*%
X294163490Y-229219999D03*
D13*
X287305490Y-236204999D03*
D10*
X304323490Y-229219999D03*
D12*
X295433490Y-226679999D03*
X301783490Y-224139999D03*
D11*
X311181490Y-220964999D03*
D13*
X311181490Y-236204999D03*
D11*
X299243490Y-229219999D03*
X287305490Y-220964999D03*
%TD*%
%TO.C,SW09_05*%
X384968490Y-229219999D03*
D10*
X379888490Y-229219999D03*
X390048490Y-229219999D03*
D12*
X387508490Y-224139999D03*
X381158490Y-226679999D03*
%TD*%
%TO.C,SWET_AN00*%
X394183490Y-188569999D03*
D11*
X399263490Y-191109999D03*
D10*
X399263490Y-186029999D03*
D12*
X396723490Y-194919999D03*
D10*
X399263490Y-196189999D03*
%TD*%
D12*
%TO.C,SW00_00*%
X140653490Y-150459999D03*
D10*
X149543490Y-152999999D03*
D11*
X144463490Y-152999999D03*
D10*
X139383490Y-152999999D03*
D12*
X147003490Y-147919999D03*
%TD*%
D11*
%TO.C,SWBS_S00*%
X392113490Y-152999999D03*
D12*
X395923490Y-155539999D03*
D10*
X397193490Y-152999999D03*
D12*
X389573490Y-158079999D03*
D10*
X387033490Y-152999999D03*
%TD*%
D11*
%TO.C,SW08_04*%
X320663490Y-210169999D03*
D12*
X316853490Y-207629999D03*
D10*
X315583490Y-210169999D03*
X325743490Y-210169999D03*
D12*
X323203490Y-205089999D03*
%TD*%
%TO.C,SWSP_L04*%
X263378690Y-234299999D03*
X269728690Y-231759999D03*
D10*
X270998690Y-229219999D03*
X260838690Y-229219999D03*
D13*
X315918590Y-236204999D03*
X215918790Y-236204999D03*
D11*
X315918590Y-220964999D03*
X215918790Y-220964999D03*
X265918690Y-229219999D03*
%TD*%
D10*
%TO.C,SW02_06*%
X278133490Y-191109999D03*
X267973490Y-191109999D03*
D12*
X269243490Y-188569999D03*
X275593490Y-186029999D03*
D11*
X273053490Y-191109999D03*
%TD*%
D10*
%TO.C,SWCL_S00*%
X141763490Y-191124999D03*
D12*
X149383490Y-186044999D03*
D10*
X151923490Y-191124999D03*
D12*
X143033490Y-188584999D03*
D11*
X146843490Y-191124999D03*
%TD*%
D10*
%TO.C,SW06_05*%
X301308490Y-172049999D03*
D12*
X308928490Y-166969999D03*
D10*
X311468490Y-172049999D03*
D12*
X302578490Y-169509999D03*
D11*
X306388490Y-172049999D03*
%TD*%
D14*
%TO.C,RE0*%
X456545690Y-202727799D03*
D15*
X451545690Y-202727799D03*
X454045690Y-202727799D03*
D16*
X448445690Y-210227799D03*
X459645690Y-210227799D03*
%TD*%
D12*
%TO.C,SW00_04*%
X216853490Y-150479999D03*
D11*
X220663490Y-153019999D03*
D12*
X223203490Y-147939999D03*
D10*
X225743490Y-153019999D03*
X215583490Y-153019999D03*
%TD*%
D12*
%TO.C,SW05_01*%
X369228490Y-150459999D03*
D11*
X373038490Y-152999999D03*
D12*
X375578490Y-147919999D03*
D10*
X367958490Y-152999999D03*
X378118490Y-152999999D03*
%TD*%
D12*
%TO.C,SW02_01*%
X174003490Y-188579999D03*
D10*
X182893490Y-191119999D03*
D11*
X177813490Y-191119999D03*
D12*
X180353490Y-186039999D03*
D10*
X172733490Y-191119999D03*
%TD*%
D13*
%TO.C,SWBS_L00*%
X413576490Y-146014999D03*
D10*
X406718490Y-152999999D03*
D11*
X401638490Y-152999999D03*
D10*
X396558490Y-152999999D03*
D13*
X389700490Y-146014999D03*
D11*
X413576490Y-161254999D03*
D12*
X397828490Y-150459999D03*
D11*
X389700490Y-161254999D03*
D12*
X404178490Y-147919999D03*
%TD*%
D10*
%TO.C,SW00_05*%
X234633490Y-152999999D03*
D12*
X242253490Y-147919999D03*
D11*
X239713490Y-152999999D03*
D10*
X244793490Y-152999999D03*
D12*
X235903490Y-150459999D03*
%TD*%
D10*
%TO.C,SW05_04*%
X320993490Y-152999999D03*
X310833490Y-152999999D03*
D11*
X315913490Y-152999999D03*
D12*
X312103490Y-150459999D03*
X318453490Y-147919999D03*
%TD*%
D11*
%TO.C,SW00_03*%
X201613490Y-153019999D03*
D12*
X197803490Y-150479999D03*
D10*
X206693490Y-153019999D03*
D12*
X204153490Y-147939999D03*
D10*
X196533490Y-153019999D03*
%TD*%
D11*
%TO.C,SW09_03*%
X434955690Y-229219999D03*
D10*
X440035690Y-229219999D03*
X429875690Y-229219999D03*
D12*
X431145690Y-226679999D03*
X437495690Y-224139999D03*
%TD*%
D10*
%TO.C,SW09_01*%
X440053490Y-210169999D03*
D12*
X431163490Y-207629999D03*
D10*
X429893490Y-210169999D03*
D11*
X434973490Y-210169999D03*
D12*
X437513490Y-205089999D03*
%TD*%
D10*
%TO.C,SW08_06*%
X287653490Y-210169999D03*
D12*
X285113490Y-205089999D03*
D11*
X282573490Y-210169999D03*
D10*
X277493490Y-210169999D03*
D12*
X278763490Y-207629999D03*
%TD*%
D10*
%TO.C,SW04_03*%
X222713290Y-229219999D03*
D11*
X227793290Y-229219999D03*
D13*
X215855290Y-236204999D03*
D12*
X230333290Y-224139999D03*
X223983290Y-226679999D03*
D13*
X239731290Y-236204999D03*
D11*
X239731290Y-220964999D03*
X215855290Y-220964999D03*
D10*
X232873290Y-229219999D03*
%TD*%
%TO.C,SW08_03*%
X334643490Y-210169999D03*
X344803490Y-210169999D03*
D11*
X339723490Y-210169999D03*
D12*
X335913490Y-207629999D03*
X342263490Y-205089999D03*
%TD*%
D11*
%TO.C,AN_STAB_00*%
X411201490Y-182854999D03*
D13*
X387325490Y-198094999D03*
D11*
X387325490Y-182854999D03*
D13*
X411201490Y-198094999D03*
%TD*%
D11*
%TO.C,SW07_02*%
X368303490Y-191109999D03*
D10*
X363223490Y-191109999D03*
D12*
X364493490Y-188569999D03*
D10*
X373383490Y-191109999D03*
D12*
X370843490Y-186029999D03*
%TD*%
D10*
%TO.C,SW02_04*%
X229853490Y-191089999D03*
X240013490Y-191089999D03*
D12*
X237473490Y-186009999D03*
D11*
X234933490Y-191089999D03*
D12*
X231123490Y-188549999D03*
%TD*%
D11*
%TO.C,SW02_03*%
X215913490Y-191099999D03*
D12*
X218453490Y-186019999D03*
D10*
X210833490Y-191099999D03*
D12*
X212103490Y-188559999D03*
D10*
X220993490Y-191099999D03*
%TD*%
D12*
%TO.C,SW04_06*%
X339883490Y-224139999D03*
X333533490Y-226679999D03*
D10*
X342423490Y-229219999D03*
D11*
X337343490Y-229219999D03*
D10*
X332263490Y-229219999D03*
%TD*%
%TO.C,SW04_01*%
X165563290Y-229219999D03*
D11*
X170643290Y-229219999D03*
D10*
X175723290Y-229219999D03*
D12*
X173183290Y-224139999D03*
X166833290Y-226679999D03*
%TD*%
%TO.C,SW07_06*%
X294643490Y-186029999D03*
D10*
X287023490Y-191109999D03*
X297183490Y-191109999D03*
D11*
X292103490Y-191109999D03*
D12*
X288293490Y-188569999D03*
%TD*%
D10*
%TO.C,SW03_05*%
X239401090Y-210144599D03*
D12*
X247021090Y-205064599D03*
X240671090Y-207604599D03*
D10*
X249561090Y-210144599D03*
D11*
X244481090Y-210144599D03*
%TD*%
%TO.C,SW01_05*%
X249238490Y-172049999D03*
D12*
X251778490Y-166969999D03*
D10*
X254318490Y-172049999D03*
X244158490Y-172049999D03*
D12*
X245428490Y-169509999D03*
%TD*%
D10*
%TO.C,SW03_04*%
X220351090Y-210144599D03*
D11*
X225431090Y-210144599D03*
D12*
X227971090Y-205064599D03*
D10*
X230511090Y-210144599D03*
D12*
X221621090Y-207604599D03*
%TD*%
D10*
%TO.C,SW09_00*%
X416243490Y-152999999D03*
D11*
X411163490Y-152999999D03*
D12*
X408623490Y-158079999D03*
X414973490Y-155539999D03*
D10*
X406083490Y-152999999D03*
%TD*%
D12*
%TO.C,SW07_05*%
X307343490Y-188569999D03*
D11*
X311153490Y-191109999D03*
D10*
X306073490Y-191109999D03*
X316233490Y-191109999D03*
D12*
X313693490Y-186029999D03*
%TD*%
%TO.C,SWRS_S01*%
X382423490Y-215249999D03*
X388773490Y-212709999D03*
D10*
X390043490Y-210169999D03*
D11*
X384963490Y-210169999D03*
D10*
X379883490Y-210169999D03*
%TD*%
%TO.C,SW05_03*%
X340043490Y-152999999D03*
D12*
X331153490Y-150459999D03*
X337503490Y-147919999D03*
D10*
X329883490Y-152999999D03*
D11*
X334963490Y-152999999D03*
%TD*%
D12*
%TO.C,SW05_06*%
X274003490Y-150459999D03*
X280353490Y-147919999D03*
D10*
X282893490Y-152999999D03*
X272733490Y-152999999D03*
D11*
X277813490Y-152999999D03*
%TD*%
%TO.C,SW04_02*%
X194468490Y-229219999D03*
D12*
X190658490Y-226679999D03*
X197008490Y-224139999D03*
D10*
X199548490Y-229219999D03*
X189388490Y-229219999D03*
%TD*%
D12*
%TO.C,SW06_04*%
X327978490Y-166969999D03*
D10*
X330518490Y-172049999D03*
D11*
X325438490Y-172049999D03*
D10*
X320358490Y-172049999D03*
D12*
X321628490Y-169509999D03*
%TD*%
%TO.C,SW00_06*%
X254953490Y-150459999D03*
D10*
X253683490Y-152999999D03*
D11*
X258763490Y-152999999D03*
D12*
X261303490Y-147919999D03*
D10*
X263843490Y-152999999D03*
%TD*%
%TO.C,SW01_06*%
X273368490Y-172049999D03*
D12*
X264478490Y-169509999D03*
D11*
X268288490Y-172049999D03*
D12*
X270828490Y-166969999D03*
D10*
X263208490Y-172049999D03*
%TD*%
%TO.C,SW06_06*%
X292393490Y-172049999D03*
D12*
X289853490Y-166969999D03*
X283503490Y-169509999D03*
D11*
X287313490Y-172049999D03*
D10*
X282233490Y-172049999D03*
%TD*%
%TO.C,SW01_03*%
X216218490Y-172049999D03*
D12*
X213678490Y-166969999D03*
D10*
X206058490Y-172049999D03*
D11*
X211138490Y-172049999D03*
D12*
X207328490Y-169509999D03*
%TD*%
%TO.C,SW09_02*%
X456545690Y-224139999D03*
D10*
X459085690Y-229219999D03*
D11*
X454005690Y-229219999D03*
D10*
X448925690Y-229219999D03*
D12*
X450195690Y-226679999D03*
%TD*%
D10*
%TO.C,SW08_00*%
X416243490Y-210169999D03*
D12*
X408623490Y-215249999D03*
D11*
X411163490Y-210169999D03*
D10*
X406083490Y-210169999D03*
D12*
X414973490Y-212709999D03*
%TD*%
%TO.C,SW03_02*%
X183521090Y-207604599D03*
X189871090Y-205064599D03*
D11*
X187331090Y-210144599D03*
D10*
X182251090Y-210144599D03*
X192411090Y-210144599D03*
%TD*%
%TO.C,SW00_01*%
X158433490Y-152999999D03*
D12*
X166053490Y-147919999D03*
D11*
X163513490Y-152999999D03*
D12*
X159703490Y-150459999D03*
D10*
X168593490Y-152999999D03*
%TD*%
D12*
%TO.C,SW07_01*%
X384813490Y-194919999D03*
D11*
X387353490Y-191109999D03*
D10*
X387353490Y-196189999D03*
X387353490Y-186029999D03*
D12*
X382273490Y-188569999D03*
%TD*%
D11*
%TO.C,SW02_05*%
X253983490Y-191109999D03*
D12*
X250173490Y-188569999D03*
X256523490Y-186029999D03*
D10*
X248903490Y-191109999D03*
X259063490Y-191109999D03*
%TD*%
D12*
%TO.C,SW02_02*%
X199403490Y-186019999D03*
D10*
X201943490Y-191099999D03*
D11*
X196863490Y-191099999D03*
D12*
X193053490Y-188559999D03*
D10*
X191783490Y-191099999D03*
%TD*%
D11*
%TO.C,IS_STAB_00*%
X400532340Y-193507599D03*
D13*
X415772340Y-193507599D03*
D11*
X400532340Y-169631599D03*
D13*
X415772340Y-169631599D03*
%TD*%
D10*
%TO.C,SW00_02*%
X187643490Y-153019999D03*
X177483490Y-153019999D03*
D12*
X178753490Y-150479999D03*
D11*
X182563490Y-153019999D03*
D12*
X185103490Y-147939999D03*
%TD*%
%TO.C,SWET_IS00*%
X403703490Y-179059999D03*
D10*
X408783490Y-176519999D03*
D11*
X408783490Y-181599999D03*
D10*
X408783490Y-186679999D03*
D12*
X406243490Y-185409999D03*
%TD*%
D10*
%TO.C,SW09_06*%
X366223290Y-229219999D03*
D12*
X363683290Y-224139999D03*
X357333290Y-226679999D03*
D10*
X356063290Y-229219999D03*
D11*
X361143290Y-229219999D03*
%TD*%
D10*
%TO.C,SW06_02*%
X368618490Y-172049999D03*
D11*
X363538490Y-172049999D03*
D12*
X366078490Y-166969999D03*
D10*
X358458490Y-172049999D03*
D12*
X359728490Y-169509999D03*
%TD*%
%TO.C,SW01_04*%
X226378490Y-169509999D03*
D11*
X230188490Y-172049999D03*
D10*
X225108490Y-172049999D03*
X235268490Y-172049999D03*
D12*
X232728490Y-166969999D03*
%TD*%
D11*
%TO.C,SWCL_N00*%
X151613490Y-191124999D03*
D10*
X146533490Y-191124999D03*
X156693490Y-191124999D03*
D12*
X155423490Y-193664999D03*
X149073490Y-196204999D03*
%TD*%
D11*
%TO.C,SW05_05*%
X296863490Y-152999999D03*
D12*
X299403490Y-147919999D03*
X293053490Y-150459999D03*
D10*
X301943490Y-152999999D03*
X291783490Y-152999999D03*
%TD*%
D11*
%TO.C,SW07_03*%
X349253490Y-191109999D03*
D12*
X345443490Y-188569999D03*
D10*
X354333490Y-191109999D03*
D12*
X351793490Y-186029999D03*
D10*
X344173490Y-191109999D03*
%TD*%
D11*
%TO.C,SW08_02*%
X358773490Y-210169999D03*
D12*
X354963490Y-207629999D03*
X361313490Y-205089999D03*
D10*
X363853490Y-210169999D03*
X353693490Y-210169999D03*
%TD*%
%TO.C,SW01_02*%
X187008490Y-172049999D03*
D12*
X194628490Y-166969999D03*
D11*
X192088490Y-172049999D03*
D10*
X197168490Y-172049999D03*
D12*
X188278490Y-169509999D03*
%TD*%
%TO.C,SW01_01*%
X175578490Y-166969999D03*
D10*
X178118490Y-172049999D03*
X167958490Y-172049999D03*
D11*
X173038490Y-172049999D03*
D12*
X169228490Y-169509999D03*
%TD*%
D11*
%TO.C,SW06_03*%
X344488490Y-172049999D03*
D12*
X347028490Y-166969999D03*
X340678490Y-169509999D03*
D10*
X339408490Y-172049999D03*
X349568490Y-172049999D03*
%TD*%
%TO.C,SW03_06*%
X268611090Y-210169999D03*
X258451090Y-210169999D03*
D12*
X266071090Y-205089999D03*
X259721090Y-207629999D03*
D11*
X263531090Y-210169999D03*
%TD*%
D12*
%TO.C,SW09_04*%
X418445690Y-224139999D03*
D11*
X415905690Y-229219999D03*
D10*
X420985690Y-229219999D03*
D12*
X412095690Y-226679999D03*
D10*
X410825690Y-229219999D03*
%TD*%
%TO.C,SW06_00*%
X406388490Y-166969999D03*
D12*
X411468490Y-174589999D03*
X408928490Y-168239999D03*
D11*
X406388490Y-172049999D03*
D10*
X406388490Y-177129999D03*
%TD*%
D11*
%TO.C,SW01_00*%
X149238490Y-172049999D03*
D12*
X145428490Y-169509999D03*
D10*
X154318490Y-172049999D03*
X144158490Y-172049999D03*
D12*
X151778490Y-166969999D03*
%TD*%
D11*
%TO.C,SW05_02*%
X354013490Y-152999999D03*
D12*
X356553490Y-147919999D03*
D10*
X359093490Y-152999999D03*
X348933490Y-152999999D03*
D12*
X350203490Y-150459999D03*
%TD*%
D13*
%TO.C,SWRS_L01*%
X406431490Y-203174999D03*
D11*
X382555490Y-218414999D03*
D13*
X382555490Y-203174999D03*
D12*
X390683490Y-207619999D03*
D10*
X389413490Y-210159999D03*
D11*
X394493490Y-210159999D03*
D10*
X399573490Y-210159999D03*
D12*
X397033490Y-205079999D03*
D11*
X406431490Y-218414999D03*
%TD*%
D13*
%TO.C,SWLS_L01*%
X144430490Y-203184999D03*
D10*
X151288490Y-210169999D03*
D12*
X158908490Y-205089999D03*
D11*
X168306490Y-218424999D03*
X144430490Y-218424999D03*
D13*
X168306490Y-203184999D03*
D12*
X152558490Y-207629999D03*
D10*
X161448490Y-210169999D03*
D11*
X156368490Y-210169999D03*
%TD*%
D12*
%TO.C,SW03_03*%
X208921090Y-205064599D03*
D11*
X206381090Y-210144599D03*
D10*
X201301090Y-210144599D03*
X211461090Y-210144599D03*
D12*
X202571090Y-207604599D03*
%TD*%
%TO.C,SW03_00*%
X144278090Y-215224599D03*
X150628090Y-212684599D03*
D11*
X146818090Y-210144599D03*
D10*
X151898090Y-210144599D03*
X141738090Y-210144599D03*
%TD*%
D12*
%TO.C,SWLS_S01*%
X172091090Y-212684599D03*
X165741090Y-215224599D03*
D10*
X173361090Y-210144599D03*
X163201090Y-210144599D03*
D11*
X168281090Y-210144599D03*
%TD*%
D10*
%TO.C,SWSP_S04*%
X266223490Y-229219999D03*
D12*
X257333490Y-226679999D03*
D11*
X261143490Y-229219999D03*
D10*
X256063490Y-229219999D03*
D12*
X263683490Y-224139999D03*
%TD*%
D10*
%TO.C,SW07_04*%
X335283490Y-191109999D03*
D12*
X332743490Y-186029999D03*
D10*
X325123490Y-191109999D03*
D11*
X330203490Y-191109999D03*
D12*
X326393490Y-188569999D03*
%TD*%
D10*
%TO.C,SW08_05*%
X296543490Y-210169999D03*
X306703490Y-210169999D03*
D12*
X297813490Y-207629999D03*
D11*
X301623490Y-210169999D03*
D12*
X304163490Y-205089999D03*
%TD*%
D17*
%TO.C,U1*%
X439075000Y-183100000D03*
X439075000Y-181320000D03*
X439075000Y-179540000D03*
X439075000Y-177760000D03*
X439075000Y-175980000D03*
X439075000Y-174200000D03*
X439075000Y-172420000D03*
X439075000Y-170640000D03*
X449775000Y-169750000D03*
X449775000Y-171530000D03*
X449775000Y-173310000D03*
X449775000Y-175090000D03*
X449775000Y-176870000D03*
X449775000Y-178650000D03*
X449775000Y-180430000D03*
X449775000Y-182210000D03*
%TD*%
D18*
%TO.C,J0*%
X453835000Y-143040000D03*
X459615000Y-143040000D03*
D19*
X461045000Y-139390000D03*
X452405000Y-139390000D03*
D20*
X452405000Y-143570000D03*
X461045000Y-143570000D03*
%TD*%
M02*
