<?xml version="1.0" encoding="UTF-8" standalone="no"?>
<svg
   version="1.1"
   width="349.64801mm"
   height="116.31302mm"
   viewBox="0 0 3.4964801e+08 1.1631302e+08"
   id="svg6032"
   sodipodi:docname="pcb.svg"
   inkscape:version="1.2.2 (732a01da63, 2022-12-09)"
   inkscape:export-filename="..\case\3dp\bottom.svg"
   inkscape:export-xdpi="96"
   inkscape:export-ydpi="96"
   xmlns:inkscape="http://www.inkscape.org/namespaces/inkscape"
   xmlns:sodipodi="http://sodipodi.sourceforge.net/DTD/sodipodi-0.dtd"
   xmlns="http://www.w3.org/2000/svg"
   xmlns:svg="http://www.w3.org/2000/svg"
   xmlns:rdf="http://www.w3.org/1999/02/22-rdf-syntax-ns#"
   xmlns:cc="http://creativecommons.org/ns#"
   xmlns:dc="http://purl.org/dc/elements/1.1/">
  <defs
     id="defs6036">
    <inkscape:path-effect
       effect="fillet_chamfer"
       id="path-effect2784"
       is_visible="true"
       lpeversion="1"
       nodesatellites_param="F,0,0,1,0,0,0,1 @ F,0,0,1,0,0,0,1 @ F,0,0,1,0,0,0,1 @ F,0,0,1,0,0,0,1 @ F,0,0,1,0,0,0,1 @ F,0,0,1,0,0,0,1 @ F,0,0,1,0,0,0,1 @ F,0,0,1,0,0,0,1 @ F,0,0,1,0,0,0,1 @ F,0,0,1,0,0,0,1 @ F,0,0,1,0,0,0,1 @ F,0,0,1,0,0,0,1 @ F,0,0,1,0,0,0,1 @ F,0,0,1,0,0,0,1 @ F,0,0,1,0,0,0,1 @ F,0,0,1,0,0,0,1 @ F,0,0,1,0,0,0,1 @ F,0,0,1,0,0,0,1 @ F,0,0,1,0,0,0,1 @ F,0,0,1,0,0,0,1 @ F,0,0,1,0,0,0,1 @ F,0,0,1,0,0,0,1 @ F,0,0,1,0,0,0,1 @ F,0,0,1,0,0,0,1 @ F,0,0,1,0,0,0,1 @ F,0,0,1,0,0,0,1 @ F,0,0,1,0,0,0,1 @ F,0,0,1,0,0,0,1 @ F,0,0,1,0,0,0,1 @ F,0,0,1,0,0,0,1 @ F,0,0,1,0,0,0,1 @ F,0,0,1,0,0,0,1 @ F,0,0,1,0,0,0,1 @ F,0,0,1,0,0,0,1 @ F,0,0,1,0,0,0,1 @ F,0,0,1,0,0,0,1 @ F,0,0,1,0,0,0,1 @ F,0,0,1,0,0,0,1 @ F,0,0,1,0,0,0,1 @ F,0,0,1,0,0,0,1 @ F,0,0,1,0,0,0,1 @ F,0,0,1,0,0,0,1 @ F,0,0,1,0,0,0,1 @ F,0,0,1,0,0,0,1 @ F,0,0,1,0,0,0,1 @ F,0,0,1,0,0,0,1 @ F,0,0,1,0,0,0,1 @ F,0,0,1,0,0,0,1 @ F,0,0,1,0,0,0,1 @ F,0,0,1,0,0,0,1 @ F,0,0,1,0,0,0,1 @ F,0,0,1,0,0,0,1 @ F,0,0,1,0,0,0,1 @ F,0,0,1,0,0,0,1 @ F,0,0,1,0,0,0,1 @ F,0,0,1,0,0,0,1 @ F,0,0,1,0,0,0,1 @ F,0,0,1,0,0,0,1 @ F,0,0,1,0,0,0,1 @ F,0,0,1,0,0,0,1 @ F,0,0,1,0,0,0,1 @ F,0,0,1,0,0,0,1 @ F,0,0,1,0,0,0,1 @ F,0,0,1,0,0,0,1 @ F,0,0,1,0,0,0,1 @ F,0,0,1,0,0,0,1 @ F,0,0,1,0,0,0,1 @ F,0,0,1,0,0,0,1 @ F,0,0,1,0,0,0,1 @ F,0,0,1,0,0,0,1 @ F,0,0,1,0,0,0,1 @ F,0,0,1,0,0,0,1 @ F,0,0,1,0,0,0,1 @ F,0,0,1,0,0,0,1 @ F,0,0,1,0,0,0,1 @ F,0,0,1,0,0,0,1 @ F,0,0,1,0,0,0,1 @ F,0,0,1,0,0,0,1 @ F,0,0,1,0,0,0,1 @ F,0,0,1,0,0,0,1 @ F,0,0,1,0,0,0,1 @ F,0,0,1,0,0,0,1 @ F,0,0,1,0,0,0,1 @ F,0,0,1,0,0,0,1 @ F,0,0,1,0,0,0,1 @ F,0,0,1,0,0,0,1 @ F,0,0,1,0,0,0,1 @ F,0,0,1,0,0,0,1 @ F,0,0,1,0,0,0,1 @ F,0,0,1,0,0,0,1 @ F,0,0,1,0,0,0,1 @ F,0,0,1,0,0,0,1 @ F,0,0,1,0,0,0,1 @ F,0,0,1,0,0,0,1 @ F,0,0,1,0,0,0,1 @ F,0,0,1,0,0,0,1 @ F,0,0,1,0,0,0,1 @ F,0,0,1,0,0,0,1 @ F,0,0,1,0,0,0,1 @ F,0,0,1,0,0,0,1 @ F,0,0,1,0,0,0,1 @ F,0,0,1,0,0,0,1 @ F,0,0,1,0,0,0,1 @ F,0,0,1,0,0,0,1 @ F,0,0,1,0,0,0,1 @ F,0,0,1,0,0,0,1 @ F,0,0,1,0,0,0,1 @ F,0,0,1,0,0,0,1 @ F,0,0,1,0,0,0,1 @ F,0,0,1,0,0,0,1 @ F,0,0,1,0,0,0,1 @ F,0,0,1,0,0,0,1 @ F,0,0,1,0,0,0,1 @ F,0,0,1,0,0,0,1 @ F,0,0,1,0,0,0,1 @ F,0,0,1,0,0,0,1 @ F,0,0,1,0,0,0,1 @ F,0,0,1,0,0,0,1 @ F,0,0,1,0,0,0,1 @ F,0,0,1,0,0,0,1 @ F,0,0,1,0,0,0,1 @ F,0,0,1,0,0,0,1 @ F,0,0,1,0,0,0,1 @ F,0,0,1,0,0,0,1 @ F,0,0,1,0,0,0,1 @ F,0,0,1,0,0,0,1 @ F,0,0,1,0,0,0,1 @ F,0,0,1,0,0,0,1 @ F,0,0,1,0,0,0,1 @ F,0,0,1,0,0,0,1 @ F,0,0,1,0,0,0,1 @ F,0,0,1,0,0,0,1 @ F,0,0,1,0,0,0,1 @ F,0,0,1,0,0,0,1 @ F,0,0,1,0,0,0,1 @ F,0,0,1,0,0,0,1 @ F,0,0,1,0,0,0,1 @ F,0,0,1,0,0,0,1 @ F,0,0,1,0,0,0,1 @ F,0,0,1,0,0,0,1 @ F,0,0,1,0,0,0,1 @ F,0,0,1,0,0,0,1 @ F,0,0,1,0,0,0,1 @ F,0,0,1,0,0,0,1 @ F,0,0,1,0,0,0,1 @ F,0,0,1,0,0,0,1 @ F,0,0,1,0,0,0,1 @ F,0,0,1,0,0,0,1 @ F,0,0,1,0,0,0,1 @ F,0,0,1,0,0,0,1 @ F,0,0,1,0,0,0,1 @ F,0,0,1,0,0,0,1 @ F,0,0,1,0,0,0,1 @ F,0,0,1,0,0,0,1 @ F,0,0,1,0,0,0,1 @ F,0,0,1,0,0,0,1 @ F,0,0,1,0,0,0,1 @ F,0,0,1,0,0,0,1 @ F,0,0,1,0,0,0,1 @ F,0,0,1,0,0,0,1 @ F,0,0,1,0,0,0,1 @ F,0,0,1,0,0,0,1 @ F,0,0,1,0,0,0,1 @ F,0,0,1,0,0,0,1 @ F,0,0,1,0,0,0,1 @ F,0,0,1,0,0,0,1 @ F,0,0,1,0,0,0,1 @ F,0,0,1,0,0,0,1 @ F,0,0,1,0,0,0,1 @ F,0,0,1,0,0,0,1 @ F,0,0,1,0,0,0,1 @ F,0,0,1,0,0,0,1 @ F,0,0,1,0,0,0,1 @ F,0,0,1,0,0,0,1 @ F,0,0,1,0,0,0,1 @ F,0,0,1,0,0,0,1 @ F,0,0,1,0,0,0,1 @ F,0,0,1,0,0,0,1 @ F,0,0,1,0,0,0,1 @ F,0,0,1,0,0,0,1 @ F,0,0,1,0,0,0,1 @ F,0,0,1,0,0,0,1 @ F,0,0,1,0,0,0,1 @ F,0,0,1,0,0,0,1 @ F,0,0,1,0,0,0,1 @ F,0,0,1,0,0,0,1 @ F,0,0,1,0,0,0,1 @ F,0,0,1,0,0,0,1 @ F,0,0,1,0,0,0,1 @ F,0,0,1,0,0,0,1 @ F,0,0,1,0,0,0,1 @ F,0,0,1,0,0,0,1 @ F,0,0,1,0,0,0,1 @ F,0,0,1,0,0,0,1 | F,0,0,1,0,0,0,1 @ F,0,0,1,0,0,0,1 @ F,0,0,1,0,0,0,1 @ F,0,0,1,0,0,0,1 @ F,0,0,1,0,0,0,1 @ F,0,0,1,0,0,0,1 @ F,0,0,1,0,0,0,1 @ F,0,0,1,0,0,0,1 @ F,0,0,1,0,0,0,1 @ F,0,0,1,0,0,0,1 @ F,0,0,1,0,0,0,1 @ F,0,0,1,0,0,0,1 @ F,0,0,1,0,0,0,1 @ F,0,0,1,0,0,0,1 @ F,0,0,1,0,0,0,1 @ F,0,0,1,0,0,0,1 @ F,0,0,1,0,0,0,1 @ F,0,0,1,0,0,0,1 @ F,0,0,1,0,0,0,1 @ F,0,0,1,0,0,0,1 @ F,0,0,1,0,0,0,1 @ F,0,0,1,0,0,0,1 @ F,0,0,1,0,0,0,1 @ F,0,0,1,0,0,0,1 @ F,0,0,1,0,0,0,1 @ F,0,0,1,0,0,0,1 @ F,0,0,1,0,0,0,1 @ F,0,0,1,0,0,0,1 @ F,0,0,1,0,0,0,1 @ F,0,0,1,0,0,0,1 @ F,0,0,1,0,0,0,1 @ F,0,0,1,0,0,0,1 | F,0,0,1,0,0,0,1 @ F,0,0,1,0,0,0,1 @ F,0,0,1,0,0,0,1 @ F,0,0,1,0,0,0,1 @ F,0,0,1,0,0,0,1 @ F,0,0,1,0,0,0,1 @ F,0,0,1,0,0,0,1 @ F,0,0,1,0,0,0,1 @ F,0,0,1,0,0,0,1 @ F,0,0,1,0,0,0,1 @ F,0,0,1,0,0,0,1 @ F,0,0,1,0,0,0,1 @ F,0,0,1,0,0,0,1 @ F,0,0,1,0,0,0,1 @ F,0,0,1,0,0,0,1 @ F,0,0,1,0,0,0,1 @ F,0,0,1,0,0,0,1 @ F,0,0,1,0,0,0,1 @ F,0,0,1,0,0,0,1 @ F,0,0,1,0,0,0,1 @ F,0,0,1,0,0,0,1 @ F,0,0,1,0,0,0,1 @ F,0,0,1,0,0,0,1 @ F,0,0,1,0,0,0,1 @ F,0,0,1,0,0,0,1 @ F,0,0,1,0,0,0,1 @ F,0,0,1,0,0,0,1 @ F,0,0,1,0,0,0,1 @ F,0,0,1,0,0,0,1 @ F,0,0,1,0,0,0,1 @ F,0,0,1,0,0,0,1 @ F,0,0,1,0,0,0,1 | F,0,0,1,0,0,0,1 @ F,0,0,1,0,0,0,1 @ F,0,0,1,0,0,0,1 @ F,0,0,1,0,0,0,1 @ F,0,0,1,0,0,0,1 @ F,0,0,1,0,0,0,1 @ F,0,0,1,0,0,0,1 @ F,0,0,1,0,0,0,1 @ F,0,0,1,0,0,0,1 @ F,0,0,1,0,0,0,1 @ F,0,0,1,0,0,0,1 @ F,0,0,1,0,0,0,1 @ F,0,0,1,0,0,0,1 @ F,0,0,1,0,0,0,1 @ F,0,0,1,0,0,0,1 @ F,0,0,1,0,0,0,1 @ F,0,0,1,0,0,0,1 @ F,0,0,1,0,0,0,1 @ F,0,0,1,0,0,0,1 @ F,0,0,1,0,0,0,1 @ F,0,0,1,0,0,0,1 @ F,0,0,1,0,0,0,1 @ F,0,0,1,0,0,0,1 @ F,0,0,1,0,0,0,1 @ F,0,0,1,0,0,0,1 @ F,0,0,1,0,0,0,1 @ F,0,0,1,0,0,0,1 @ F,0,0,1,0,0,0,1 @ F,0,0,1,0,0,0,1 @ F,0,0,1,0,0,0,1 @ F,0,0,1,0,0,0,1 @ F,0,0,1,0,0,0,1 | F,0,0,1,0,0,0,1 @ F,0,0,1,0,0,0,1 @ F,0,0,1,0,0,0,1 @ F,0,0,1,0,0,0,1 @ F,0,0,1,0,0,0,1 @ F,0,0,1,0,0,0,1 @ F,0,0,1,0,0,0,1 @ F,0,0,1,0,0,0,1 @ F,0,0,1,0,0,0,1 @ F,0,0,1,0,0,0,1 @ F,0,0,1,0,0,0,1 @ F,0,0,1,0,0,0,1 @ F,0,0,1,0,0,0,1 @ F,0,0,1,0,0,0,1 @ F,0,0,1,0,0,0,1 @ F,0,0,1,0,0,0,1 @ F,0,0,1,0,0,0,1 @ F,0,0,1,0,0,0,1 @ F,0,0,1,0,0,0,1 @ F,0,0,1,0,0,0,1 @ F,0,0,1,0,0,0,1 @ F,0,0,1,0,0,0,1 @ F,0,0,1,0,0,0,1 @ F,0,0,1,0,0,0,1 @ F,0,0,1,0,0,0,1 @ F,0,0,1,0,0,0,1 @ F,0,0,1,0,0,0,1 @ F,0,0,1,0,0,0,1 @ F,0,0,1,0,0,0,1 @ F,0,0,1,0,0,0,1 @ F,0,0,1,0,0,0,1 @ F,0,0,1,0,0,0,1 | F,0,0,1,0,0,0,1 @ F,0,0,1,0,0,0,1 @ F,0,0,1,0,0,0,1 @ F,0,0,1,0,0,0,1 @ F,0,0,1,0,0,0,1 @ F,0,0,1,0,0,0,1 @ F,0,0,1,0,0,0,1 @ F,0,0,1,0,0,0,1 @ F,0,0,1,0,0,0,1 @ F,0,0,1,0,0,0,1 @ F,0,0,1,0,0,0,1 @ F,0,0,1,0,0,0,1 @ F,0,0,1,0,0,0,1 @ F,0,0,1,0,0,0,1 @ F,0,0,1,0,0,0,1 @ F,0,0,1,0,0,0,1 @ F,0,0,1,0,0,0,1 @ F,0,0,1,0,0,0,1 @ F,0,0,1,0,0,0,1 @ F,0,0,1,0,0,0,1 @ F,0,0,1,0,0,0,1 @ F,0,0,1,0,0,0,1 @ F,0,0,1,0,0,0,1 @ F,0,0,1,0,0,0,1 @ F,0,0,1,0,0,0,1 @ F,0,0,1,0,0,0,1 @ F,0,0,1,0,0,0,1 @ F,0,0,1,0,0,0,1 @ F,0,0,1,0,0,0,1 @ F,0,0,1,0,0,0,1 @ F,0,0,1,0,0,0,1 @ F,0,0,1,0,0,0,1 | F,0,0,1,0,0,0,1 @ F,0,0,1,0,0,0,1 @ F,0,0,1,0,0,0,1 @ F,0,0,1,0,0,0,1 @ F,0,0,1,0,0,0,1 @ F,0,0,1,0,0,0,1 @ F,0,0,1,0,0,0,1 @ F,0,0,1,0,0,0,1 @ F,0,0,1,0,0,0,1 @ F,0,0,1,0,0,0,1 @ F,0,0,1,0,0,0,1 @ F,0,0,1,0,0,0,1 @ F,0,0,1,0,0,0,1 @ F,0,0,1,0,0,0,1 @ F,0,0,1,0,0,0,1 @ F,0,0,1,0,0,0,1 @ F,0,0,1,0,0,0,1 @ F,0,0,1,0,0,0,1 @ F,0,0,1,0,0,0,1 @ F,0,0,1,0,0,0,1 @ F,0,0,1,0,0,0,1 @ F,0,0,1,0,0,0,1 @ F,0,0,1,0,0,0,1 @ F,0,0,1,0,0,0,1 @ F,0,0,1,0,0,0,1 @ F,0,0,1,0,0,0,1 @ F,0,0,1,0,0,0,1 @ F,0,0,1,0,0,0,1 @ F,0,0,1,0,0,0,1 @ F,0,0,1,0,0,0,1 @ F,0,0,1,0,0,0,1 @ F,0,0,1,0,0,0,1 | F,0,0,1,0,0,0,1 @ F,0,0,1,0,0,0,1 @ F,0,0,1,0,0,0,1 @ F,0,0,1,0,0,0,1 @ F,0,0,1,0,0,0,1 @ F,0,0,1,0,0,0,1 @ F,0,0,1,0,0,0,1 @ F,0,0,1,0,0,0,1 @ F,0,0,1,0,0,0,1 @ F,0,0,1,0,0,0,1 @ F,0,0,1,0,0,0,1 @ F,0,0,1,0,0,0,1 @ F,0,0,1,0,0,0,1 @ F,0,0,1,0,0,0,1 @ F,0,0,1,0,0,0,1 @ F,0,0,1,0,0,0,1 @ F,0,0,1,0,0,0,1 @ F,0,0,1,0,0,0,1 @ F,0,0,1,0,0,0,1 @ F,0,0,1,0,0,0,1 @ F,0,0,1,0,0,0,1 @ F,0,0,1,0,0,0,1 @ F,0,0,1,0,0,0,1 @ F,0,0,1,0,0,0,1 @ F,0,0,1,0,0,0,1 @ F,0,0,1,0,0,0,1 @ F,0,0,1,0,0,0,1 @ F,0,0,1,0,0,0,1 @ F,0,0,1,0,0,0,1 @ F,0,0,1,0,0,0,1 @ F,0,0,1,0,0,0,1 @ F,0,0,1,0,0,0,1 | F,0,0,1,0,0,0,1 @ F,0,0,1,0,0,0,1 @ F,0,0,1,0,0,0,1 @ F,0,0,1,0,0,0,1 @ F,0,0,1,0,0,0,1 @ F,0,0,1,0,0,0,1 @ F,0,0,1,0,0,0,1 @ F,0,0,1,0,0,0,1 @ F,0,0,1,0,0,0,1 @ F,0,0,1,0,0,0,1 @ F,0,0,1,0,0,0,1 @ F,0,0,1,0,0,0,1 @ F,0,0,1,0,0,0,1 @ F,0,0,1,0,0,0,1 @ F,0,0,1,0,0,0,1 @ F,0,0,1,0,0,0,1 @ F,0,0,1,0,0,0,1 @ F,0,0,1,0,0,0,1 @ F,0,0,1,0,0,0,1 @ F,0,0,1,0,0,0,1 @ F,0,0,1,0,0,0,1 @ F,0,0,1,0,0,0,1 @ F,0,0,1,0,0,0,1 @ F,0,0,1,0,0,0,1 @ F,0,0,1,0,0,0,1 @ F,0,0,1,0,0,0,1 @ F,0,0,1,0,0,0,1 @ F,0,0,1,0,0,0,1 @ F,0,0,1,0,0,0,1 @ F,0,0,1,0,0,0,1 @ F,0,0,1,0,0,0,1 @ F,0,0,1,0,0,0,1 | F,0,0,1,0,0,0,1 @ F,0,0,1,0,0,0,1 @ F,0,0,1,0,0,0,1 @ F,0,0,1,0,0,0,1 @ F,0,0,1,0,0,0,1 @ F,0,0,1,0,0,0,1 @ F,0,0,1,0,0,0,1 @ F,0,0,1,0,0,0,1 @ F,0,0,1,0,0,0,1 @ F,0,0,1,0,0,0,1 @ F,0,0,1,0,0,0,1 @ F,0,0,1,0,0,0,1 @ F,0,0,1,0,0,0,1 @ F,0,0,1,0,0,0,1 @ F,0,0,1,0,0,0,1 @ F,0,0,1,0,0,0,1 @ F,0,0,1,0,0,0,1 @ F,0,0,1,0,0,0,1 @ F,0,0,1,0,0,0,1 @ F,0,0,1,0,0,0,1 @ F,0,0,1,0,0,0,1 @ F,0,0,1,0,0,0,1 @ F,0,0,1,0,0,0,1 @ F,0,0,1,0,0,0,1 @ F,0,0,1,0,0,0,1 @ F,0,0,1,0,0,0,1 @ F,0,0,1,0,0,0,1 @ F,0,0,1,0,0,0,1 @ F,0,0,1,0,0,0,1 @ F,0,0,1,0,0,0,1 @ F,0,0,1,0,0,0,1 @ F,0,0,1,0,0,0,1 | F,0,0,1,0,0,0,1 @ F,0,0,1,0,0,0,1 @ F,0,0,1,0,0,0,1 @ F,0,0,1,0,0,0,1 @ F,0,0,1,0,0,0,1 @ F,0,0,1,0,0,0,1 @ F,0,0,1,0,0,0,1 @ F,0,0,1,0,0,0,1 @ F,0,0,1,0,0,0,1 @ F,0,0,1,0,0,0,1 @ F,0,0,1,0,0,0,1 @ F,0,0,1,0,0,0,1 @ F,0,0,1,0,0,0,1 @ F,0,0,1,0,0,0,1 @ F,0,0,1,0,0,0,1 @ F,0,0,1,0,0,0,1 @ F,0,0,1,0,0,0,1 @ F,0,0,1,0,0,0,1 @ F,0,0,1,0,0,0,1 @ F,0,0,1,0,0,0,1 @ F,0,0,1,0,0,0,1 @ F,0,0,1,0,0,0,1 @ F,0,0,1,0,0,0,1 @ F,0,0,1,0,0,0,1 @ F,0,0,1,0,0,0,1 @ F,0,0,1,0,0,0,1 @ F,0,0,1,0,0,0,1 @ F,0,0,1,0,0,0,1 @ F,0,0,1,0,0,0,1 @ F,0,0,1,0,0,0,1 @ F,0,0,1,0,0,0,1 @ F,0,0,1,0,0,0,1 | F,0,0,1,0,0,0,1 @ F,0,0,1,0,0,0,1 @ F,0,0,1,0,0,0,1 @ F,0,0,1,0,0,0,1 @ F,0,0,1,0,0,0,1 @ F,0,0,1,0,0,0,1 @ F,0,0,1,0,0,0,1 @ F,0,0,1,0,0,0,1 @ F,0,0,1,0,0,0,1 @ F,0,0,1,0,0,0,1 @ F,0,0,1,0,0,0,1 @ F,0,0,1,0,0,0,1 @ F,0,0,1,0,0,0,1 @ F,0,0,1,0,0,0,1 @ F,0,0,1,0,0,0,1 @ F,0,0,1,0,0,0,1 @ F,0,0,1,0,0,0,1 @ F,0,0,1,0,0,0,1 @ F,0,0,1,0,0,0,1 @ F,0,0,1,0,0,0,1 @ F,0,0,1,0,0,0,1 @ F,0,0,1,0,0,0,1 @ F,0,0,1,0,0,0,1 @ F,0,0,1,0,0,0,1 @ F,0,0,1,0,0,0,1 @ F,0,0,1,0,0,0,1 @ F,0,0,1,0,0,0,1 @ F,0,0,1,0,0,0,1 @ F,0,0,1,0,0,0,1 @ F,0,0,1,0,0,0,1 @ F,0,0,1,0,0,0,1 @ F,0,0,1,0,0,0,1 | F,0,0,1,0,0,0,1 @ F,0,0,1,0,0,0,1 @ F,0,0,1,0,0,0,1 @ F,0,0,1,0,0,0,1 @ F,0,0,1,0,0,0,1 @ F,0,0,1,0,0,0,1 @ F,0,0,1,0,0,0,1 @ F,0,0,1,0,0,0,1 @ F,0,0,1,0,0,0,1 @ F,0,0,1,0,0,0,1 @ F,0,0,1,0,0,0,1 @ F,0,0,1,0,0,0,1 @ F,0,0,1,0,0,0,1 @ F,0,0,1,0,0,0,1 @ F,0,0,1,0,0,0,1 @ F,0,0,1,0,0,0,1 @ F,0,0,1,0,0,0,1 @ F,0,0,1,0,0,0,1 @ F,0,0,1,0,0,0,1 @ F,0,0,1,0,0,0,1 @ F,0,0,1,0,0,0,1 @ F,0,0,1,0,0,0,1 @ F,0,0,1,0,0,0,1 @ F,0,0,1,0,0,0,1 @ F,0,0,1,0,0,0,1 @ F,0,0,1,0,0,0,1 @ F,0,0,1,0,0,0,1 @ F,0,0,1,0,0,0,1 @ F,0,0,1,0,0,0,1 @ F,0,0,1,0,0,0,1 @ F,0,0,1,0,0,0,1 @ F,0,0,1,0,0,0,1 | F,0,0,1,0,0,0,1 @ F,0,0,1,0,0,0,1 @ F,0,0,1,0,0,0,1 @ F,0,0,1,0,0,0,1 @ F,0,0,1,0,0,0,1 @ F,0,0,1,0,0,0,1 @ F,0,0,1,0,0,0,1 @ F,0,0,1,0,0,0,1 @ F,0,0,1,0,0,0,1 @ F,0,0,1,0,0,0,1 @ F,0,0,1,0,0,0,1 @ F,0,0,1,0,0,0,1 @ F,0,0,1,0,0,0,1 @ F,0,0,1,0,0,0,1 @ F,0,0,1,0,0,0,1 @ F,0,0,1,0,0,0,1 @ F,0,0,1,0,0,0,1 @ F,0,0,1,0,0,0,1 @ F,0,0,1,0,0,0,1 @ F,0,0,1,0,0,0,1 @ F,0,0,1,0,0,0,1 @ F,0,0,1,0,0,0,1 @ F,0,0,1,0,0,0,1 @ F,0,0,1,0,0,0,1 @ F,0,0,1,0,0,0,1 @ F,0,0,1,0,0,0,1 @ F,0,0,1,0,0,0,1 @ F,0,0,1,0,0,0,1 @ F,0,0,1,0,0,0,1 @ F,0,0,1,0,0,0,1 @ F,0,0,1,0,0,0,1 @ F,0,0,1,0,0,0,1 | F,0,0,1,0,0,0,1 @ F,0,0,1,0,0,0,1 @ F,0,0,1,0,0,0,1 @ F,0,0,1,0,0,0,1 @ F,0,0,1,0,0,0,1 @ F,0,0,1,0,0,0,1 @ F,0,0,1,0,0,0,1 @ F,0,0,1,0,0,0,1 @ F,0,0,1,0,0,0,1 @ F,0,0,1,0,0,0,1 @ F,0,0,1,0,0,0,1 @ F,0,0,1,0,0,0,1 @ F,0,0,1,0,0,0,1 @ F,0,0,1,0,0,0,1 @ F,0,0,1,0,0,0,1 @ F,0,0,1,0,0,0,1 @ F,0,0,1,0,0,0,1 @ F,0,0,1,0,0,0,1 @ F,0,0,1,0,0,0,1 @ F,0,0,1,0,0,0,1 @ F,0,0,1,0,0,0,1 @ F,0,0,1,0,0,0,1 @ F,0,0,1,0,0,0,1 @ F,0,0,1,0,0,0,1 @ F,0,0,1,0,0,0,1 @ F,0,0,1,0,0,0,1 @ F,0,0,1,0,0,0,1 @ F,0,0,1,0,0,0,1 @ F,0,0,1,0,0,0,1 @ F,0,0,1,0,0,0,1 @ F,0,0,1,0,0,0,1 @ F,0,0,1,0,0,0,1"
       unit="mm"
       method="auto"
       mode="F"
       radius="1"
       chamfer_steps="1"
       flexible="false"
       use_knot_distance="true"
       apply_no_radius="true"
       apply_with_radius="true"
       only_selected="false"
       hide_knots="false" />
  </defs>
  <sodipodi:namedview
     id="namedview6034"
     pagecolor="#ffffff"
     bordercolor="#000000"
     borderopacity="0.25"
     inkscape:showpageshadow="2"
     inkscape:pageopacity="0.0"
     inkscape:pagecheckerboard="0"
     inkscape:deskcolor="#d1d1d1"
     inkscape:document-units="cm"
     showgrid="false"
     inkscape:zoom="1.0000001"
     inkscape:cx="388.99996"
     inkscape:cy="376.99996"
     inkscape:window-width="1920"
     inkscape:window-height="1009"
     inkscape:window-x="-8"
     inkscape:window-y="-8"
     inkscape:window-maximized="1"
     inkscape:current-layer="svg6032"
     showguides="false" />
  <title
     id="title2">SVG Picture created as dynamis-brd.svg date 2023/05/13 16:35:54 </title>
  <desc
     id="desc4">Picture generated by PCBNEW </desc>
  <metadata
     id="metadata6366">
    <rdf:RDF>
      <cc:Work
         rdf:about="">
        <dc:title>SVG Picture created as dynamis-brd.svg date 2023/05/13 16:35:54 </dc:title>
      </cc:Work>
    </rdf:RDF>
  </metadata>
  <g
     inkscape:groupmode="layer"
     id="layer2"
     inkscape:label="pcb"
     style="display:inline"
     transform="translate(-250218980,-296630000)">
    <path
       id="path2856-8-46-9"
       style="display:inline;fill:none;stroke:#ff0000;stroke-width:99974.6;stroke-opacity:1"
       d="m 596467610,360176610 c -18530,-93160 -46170,-184270 -82510,-272020 -72870,-175920 -179680,-335770 -314330,-470420 -67160,-67160 -140750,-127560 -219730,-180330 -78970,-52760 -162930,-97650 -250680,-133990 -87750,-36350 -178860,-63990 -272020,-82520 -93150,-18530 -187900,-27860 -282880,-27860 l -349120,-10 c 0,0 -552920,-27200 -824400,-81200 -271480,-54000 -537000,-134540 -792720,-240470 -255730,-105920 -500430,-236720 -730580,-390500 -230150,-153780 -444630,-329800 -640360,-525520 -195720,-195730 -371740,-410210 -525520,-640360 -153780,-230150 -284580,-474850 -390500,-730580 -105930,-255720 -186470,-521240 -240470,-792720 -54000,-271480 -81200,-547600 -81320,-820540 -120,-272940 27080,-549060 81080,-820540 54000,-271480 134540,-537000 240470,-792720 105920,-255730 236720,-500430 390500,-730580 153780,-230150 329800,-444630 525520,-640360 195730,-195720 410210,-371740 640360,-525520 230150,-153780 474850,-284580 730580,-390500 255720,-105930 521240,-186470 792720,-240470 271480,-54000 824400,-81200 824400,-81200 l 349120,-10 c 94980,0 189730,-9330 282880,-27860 93160,-18530 184270,-46170 272020,-82520 87750,-36340 171710,-81230 250680,-133990 78980,-52770 152570,-113170 219730,-180330 134650,-134650 241460,-294500 314330,-470420 36340,-87750 63980,-178860 82510,-272020 18530,-93150 27860,-187900 27860,-282880 l 2210,-44656490 c 0,-292240 -28710,-583780 -85730,-870400 -57010,-286630 -142050,-566960 -253880,-836950 -111840,-270000 -249930,-528350 -412290,-771340 -162360,-242990 -348200,-469440 -554850,-676090 -206650,-206650 -433100,-392490 -676080,-554850 -242990,-162360 -501350,-300450 -771350,-412290 -269990,-111830 -550320,-196870 -836950,-253880 -286620,-57020 -578160,-85730 -870400,-85730 l -6708830,-240 c -94980,0 -189730,9330 -282880,27860 -93160,18530 -184270,46170 -272020,82510 -175920,72870 -335770,179680 -470420,314330 -67160,67160 -127560,140750 -180330,219730 -52760,78970 -97650,162930 -133990,250680 -36350,87750 -63990,178860 -82520,272020 -18530,93150 -27860,187900 -27860,282880 l -10,349120 c 0,0 -27200,552920 -81200,824400 -54000,271480 -134540,537000 -240470,792720 -105920,255730 -236720,500430 -390500,730580 -153780,230150 -329800,444630 -525520,640360 -195730,195720 -410210,371740 -640360,525520 -230150,153780 -474850,284580 -730580,390500 -255720,105930 -521240,186470 -792720,240470 -271480,54000 -547600,81200 -820540,81320 -272940,120 -549060,-27080 -820540,-81080 -271480,-54000 -537000,-134540 -792720,-240470 -255730,-105920 -500430,-236720 -730580,-390500 -230150,-153780 -444630,-329800 -640360,-525520 -195720,-195730 -371740,-410210 -525520,-640360 -153780,-230150 -284580,-474850 -390500,-730580 -105930,-255720 -186470,-521240 -240470,-792720 -54000,-271480 -81200,-824400 -81200,-824400 l -10,-349120 c 0,-94980 -9330,-189730 -27860,-282880 -18530,-93160 -46170,-184270 -82520,-272020 -36340,-87750 -81230,-171710 -133990,-250680 -52770,-78980 -113170,-152570 -180330,-219730 -134650,-134650 -294500,-241460 -470420,-314330 -87750,-36340 -178860,-63980 -272020,-82510 -93150,-18530 -187900,-27860 -282880,-27860 l -92660090,-350 c -94980,0 -189730,9330 -282880,27860 -93160,18530 -184270,46170 -272020,82510 -175920,72870 -335770,179680 -470420,314330 -67160,67160 -127560,140750 -180330,219730 -52760,78970 -97650,162930 -133990,250680 -36350,87750 -63990,178860 -82520,272020 -18530,93150 -27860,187900 -27860,282880 l -10,349120 c 0,0 -27200,552920 -81200,824400 -54000,271480 -134540,537000 -240470,792720 -105920,255730 -236720,500430 -390500,730580 -153780,230150 -329800,444630 -525520,640360 -195730,195720 -410210,371740 -640360,525520 -230150,153780 -474850,284580 -730580,390500 -255720,105930 -521240,186470 -792720,240470 -271480,54000 -547600,81200 -820540,81320 -272940,120 -549060,-27080 -820540,-81080 -271480,-54000 -537000,-134540 -792720,-240470 -255730,-105920 -500430,-236720 -730580,-390500 -230150,-153780 -444630,-329800 -640360,-525520 -195720,-195730 -371740,-410210 -525520,-640360 -153780,-230150 -284580,-474850 -390500,-730580 -105930,-255720 -186470,-521240 -240470,-792720 -54000,-271480 -81200,-824400 -81200,-824400 l -10,-349120 c 0,-94980 -9330,-189730 -27860,-282880 -18530,-93160 -46170,-184270 -82520,-272020 -36340,-87750 -81230,-171710 -133990,-250680 -52770,-78980 -113170,-152570 -180330,-219730 -134650,-134650 -294500,-241460 -470420,-314330 -87750,-36340 -178860,-63980 -272020,-82510 -93150,-18530 -187900,-27860 -282880,-27860 l -90288520,-250 c -94980,0 -189730,9330 -282880,27860 -93160,18530 -184270,46170 -272020,82510 -175920,72870 -335770,179680 -470420,314330 -67160,67160 -127560,140750 -180330,219730 -52760,78970 -97650,162930 -133990,250680 -36350,87750 -63990,178860 -82520,272020 -18530,93150 -27860,187900 -27860,282880 l -10,349120 c 0,0 -27200,552920 -81200,824400 -54000,271480 -134540,537000 -240470,792720 -105920,255730 -236720,500430 -390500,730580 -153780,230150 -329800,444630 -525520,640360 -195730,195720 -410210,371740 -640360,525520 -230150,153780 -474850,284580 -730580,390500 -255720,105930 -521240,186470 -792720,240470 -271480,54000 -547600,81200 -820540,81320 -272940,120 -549060,-27080 -820540,-81080 -271480,-54000 -537000,-134540 -792720,-240470 -255730,-105920 -500430,-236720 -730580,-390500 -230150,-153780 -444630,-329800 -640360,-525520 -195720,-195730 -371740,-410210 -525520,-640360 -153780,-230150 -284580,-474850 -390500,-730580 -105930,-255720 -186470,-521240 -240470,-792720 -54000,-271480 -81200,-824400 -81200,-824400 l -10,-349120 c 0,-94980 -9330,-189730 -27860,-282880 -18530,-93160 -46170,-184270 -82520,-272020 -36340,-87750 -81230,-171710 -133990,-250680 -52770,-78980 -113170,-152570 -180330,-219730 -134650,-134650 -294500,-241460 -470420,-314330 -87750,-36340 -178860,-63980 -272020,-82510 -93150,-18530 -187900,-27860 -282880,-27860 l -92656160,-240 c -94980,0 -189730,9330 -282880,27860 -93160,18530 -184270,46170 -272020,82510 -175920,72870 -335770,179680 -470420,314330 -67160,67160 -127560,140750 -180330,219730 -52760,78970 -97650,162930 -133990,250680 -36350,87750 -63990,178860 -82520,272020 -18530,93150 -27860,187900 -27860,282880 l -10,349120 c 0,0 -27200,552920 -81200,824400 -54000,271480 -134540,537000 -240470,792720 -105920,255730 -236720,500430 -390500,730580 -153780,230150 -329800,444630 -525520,640360 -195730,195720 -410210,371740 -640360,525520 -230150,153780 -474850,284580 -730580,390500 -255720,105930 -521240,186470 -792720,240470 -271480,54000 -547600,81200 -820540,81320 -272940,120 -549060,-27080 -820540,-81080 -271480,-54000 -537000,-134540 -792720,-240470 -255730,-105920 -500430,-236720 -730580,-390500 -230150,-153780 -444630,-329800 -640360,-525520 -195720,-195730 -371740,-410210 -525520,-640360 -153780,-230150 -284580,-474850 -390500,-730580 -105930,-255720 -186470,-521240 -240470,-792720 -54000,-271480 -81200,-824400 -81200,-824400 l -10,-349120 c 0,-94980 -9330,-189730 -27860,-282880 -18530,-93160 -46170,-184270 -82520,-272020 -36340,-87750 -81230,-171710 -133990,-250680 -52770,-78980 -113170,-152570 -180330,-219730 -134650,-134650 -294500,-241460 -470420,-314330 -87750,-36340 -178860,-63980 -272020,-82510 -93150,-18530 -187900,-27860 -282880,-27860 l -6299030,120 c -292240,0 -583770,28710 -870400,85730 -286620,57010 -566950,142050 -836950,253880 -269990,111840 -528350,249930 -771340,412290 -242990,162360 -469440,348210 -676080,554850 -206650,206650 -392490,433100 -554850,676090 -162360,242990 -300450,501340 -412290,771340 -111830,269990 -196870,550320 -253880,836950 -57020,286630 -85730,578160 -85730,870400 l -1650,44656490 c 0,94980 9330,189730 27860,282880 18530,93160 46170,184270 82510,272020 72870,175920 179680,335770 314330,470420 67160,67160 140750,127560 219730,180330 78970,52760 162930,97650 250680,133990 87750,36350 178860,63990 272020,82520 93150,18530 187900,27860 282880,27860 l 349120,10 c 0,0 552920,27200 824400,81200 271480,54000 537000,134540 792720,240470 255730,105920 500430,236720 730580,390500 230150,153780 444630,329800 640360,525520 195720,195730 371740,410210 525520,640360 153780,230150 284580,474850 390500,730580 105930,255720 186470,521240 240470,792720 54000,271480 81200,547600 81320,820540 120,272940 -27080,549060 -81080,820540 -54000,271480 -134540,537000 -240470,792720 -105920,255730 -236720,500430 -390500,730580 -153780,230150 -329800,444630 -525520,640360 -195730,195720 -410210,371740 -640360,525520 -230150,153780 -474850,284580 -730580,390500 -255720,105930 -521240,186470 -792720,240470 -271480,54000 -824400,81200 -824400,81200 l -349120,10 c -94980,0 -189730,9330 -282880,27860 -93160,18530 -184270,46170 -272020,82520 -87750,36340 -171710,81230 -250680,133990 -78980,52770 -152570,113170 -219730,180330 -134650,134650 -241460,294500 -314330,470420 -36340,87750 -63980,178860 -82510,272020 -18530,93150 -27860,187900 -27860,282880 l 1470,44653200 c 0,292240 28720,583780 85730,870400 57010,286630 142050,566960 253890,836950 111830,270000 249920,528350 412280,771340 162360,242990 348210,469440 554850,676090 206650,206640 433100,392490 676090,554850 242990,162360 501340,300450 771330,412290 270000,111830 550330,196870 836960,253880 286620,57020 578160,85730 870400,85730 l 6298960,-3010 c 94980,0 189730,-9330 282880,-27860 93160,-18530 184270,-46170 272020,-82510 175920,-72870 335770,-179680 470420,-314330 67160,-67160 127560,-140750 180330,-219730 52760,-78970 97650,-162930 133990,-250680 36350,-87750 63990,-178860 82520,-272020 18530,-93150 27850,-187900 27860,-282880 l 10,-349120 c 0,0 27200,-552920 81200,-824400 54000,-271480 134540,-537000 240470,-792720 105920,-255730 236720,-500430 390500,-730580 153780,-230150 329800,-444630 525520,-640360 195730,-195720 410210,-371740 640360,-525520 230150,-153780 474850,-284580 730580,-390500 255720,-105930 521240,-186470 792720,-240470 271480,-54000 547600,-81200 820540,-81080 272940,120 549060,27320 820540,81320 271480,54000 537000,134540 792720,240470 255730,105920 500430,236720 730580,390500 230150,153780 444630,329800 640360,525520 195720,195730 371740,410210 525520,640360 153780,230150 284580,474850 390500,730580 105930,255720 186470,521240 240470,792720 54000,271480 81200,824400 81200,824400 l 10,349120 c 0,94980 9330,189730 27860,282880 18530,93160 46170,184270 82520,272020 36340,87750 81230,171710 133990,250680 52770,78980 113170,152570 180330,219730 134650,134650 294500,241460 470420,314330 87750,36340 178860,63980 272020,82510 93150,18530 187900,27860 282880,27860 l 92656160,-240 c 94980,0 189730,-9330 282880,-27860 93160,-18530 184270,-46170 272020,-82510 175920,-72870 335770,-179680 470420,-314330 67160,-67160 127560,-140750 180330,-219730 52760,-78970 97650,-162930 133990,-250680 36350,-87750 63990,-178860 82520,-272020 18530,-93150 27860,-187900 27860,-282880 l 10,-349120 c 0,0 27200,-552920 81200,-824400 54000,-271480 134540,-537000 240470,-792720 105920,-255730 236720,-500430 390500,-730580 153780,-230150 329800,-444630 525520,-640360 195730,-195720 410210,-371740 640360,-525520 230150,-153780 474850,-284580 730580,-390500 255720,-105930 521240,-186470 792720,-240470 271480,-54000 547600,-81200 820540,-81080 272940,120 549060,27320 820540,81320 271480,54000 537000,134540 792720,240470 255730,105920 500430,236720 730580,390500 230150,153780 444630,329800 640360,525520 195720,195730 371740,410210 525520,640360 153780,230150 284580,474850 390500,730580 105930,255720 186470,521240 240470,792720 54000,271480 81200,824400 81200,824400 l 10,349120 c 0,94980 9330,189730 27860,282880 18530,93160 46170,184270 82520,272020 36340,87750 81230,171710 133990,250680 52770,78980 113170,152570 180330,219730 134650,134650 294500,241460 470420,314330 87750,36340 178860,63980 272020,82510 93150,18530 187900,27860 282880,27860 l 90288520,-250 c 94980,0 189730,-9330 282880,-27860 93160,-18530 184270,-46170 272020,-82510 175920,-72870 335770,-179680 470420,-314330 67160,-67160 127560,-140750 180330,-219730 52760,-78970 97650,-162930 133990,-250680 36350,-87750 63990,-178860 82520,-272020 18530,-93150 27860,-187900 27860,-282880 l 10,-349120 c 0,0 27200,-552920 81200,-824400 54000,-271480 134540,-537000 240470,-792720 105920,-255730 236720,-500430 390500,-730580 153780,-230150 329800,-444630 525520,-640360 195730,-195720 410210,-371740 640360,-525520 230150,-153780 474850,-284580 730580,-390500 255720,-105930 521240,-186470 792720,-240470 271480,-54000 547600,-81200 820540,-81080 272940,120 549060,27320 820540,81320 271480,54000 537000,134540 792720,240470 255730,105920 500430,236720 730580,390500 230150,153780 444630,329800 640360,525520 195720,195730 371740,410210 525520,640360 153780,230150 284580,474850 390500,730580 105930,255720 186470,521240 240470,792720 54000,271480 81200,824400 81200,824400 l 10,349120 c 0,94980 9330,189730 27860,282880 18530,93160 46170,184270 82520,272020 36340,87750 81230,171710 133990,250680 52770,78980 113170,152570 180330,219730 134650,134650 294500,241460 470420,314330 87750,36340 178860,63980 272020,82510 93150,18530 187900,27860 282880,27860 l 92656160,-230 c 94980,0 189730,-9330 282880,-27860 93160,-18530 184270,-46170 272020,-82510 175920,-72870 335770,-179680 470420,-314330 67160,-67160 127560,-140750 180330,-219730 52760,-78970 97650,-162930 133990,-250680 36350,-87750 63990,-178860 82520,-272020 18530,-93150 27860,-187900 27860,-282880 l 10,-349120 c 0,0 27200,-552920 81200,-824400 54000,-271480 134540,-537000 240470,-792720 105920,-255730 236720,-500430 390500,-730580 153780,-230150 329800,-444630 525520,-640360 195730,-195720 410210,-371740 640360,-525520 230150,-153780 474850,-284580 730580,-390500 255720,-105930 521240,-186470 792720,-240470 271480,-54000 547600,-81200 820540,-81080 272940,120 549060,27320 820540,81320 271480,54000 537000,134540 792720,240470 255730,105920 500430,236720 730580,390500 230150,153780 444630,329800 640360,525520 195720,195730 371740,410210 525520,640360 153780,230150 284580,474850 390500,730580 105930,255720 186470,521240 240470,792720 54000,271480 81200,824400 81200,824400 l 10,349120 c 0,94980 9330,189730 27860,282880 18530,93160 46170,184270 82520,272020 36340,87750 81230,171710 133990,250680 52770,78980 113170,152570 180330,219730 134650,134650 294500,241460 470420,314330 87750,36340 178860,63980 272020,82510 93150,18530 187900,27860 282880,27860 l 6712860,2790 c 292240,0 583780,-28710 870400,-85730 286630,-57010 566960,-142050 836950,-253880 270000,-111840 528350,-249930 771340,-412290 242990,-162370 469440,-348210 676080,-554850 206650,-206650 392490,-433100 554850,-676090 162360,-242990 300450,-501340 412290,-771340 111830,-269990 196870,-550320 253880,-836950 57020,-286620 85730,-578160 85730,-870400 l -2060,-44653220 c 0,-94980 -9330,-189730 -27860,-282880 z m -41921450,-2928960 c 0,68760 -6760,137360 -20170,204800 -13420,67430 -33430,133390 -59740,196920 -52750,127360 -130080,243080 -227560,340560 -97480,97480 -213200,174800 -340560,227550 -63530,26320 -129480,46330 -196920,59740 -67440,13410 -136040,20170 -204800,20170 -68760,0 -137350,-6760 -204790,-20170 -67440,-13410 -133400,-33420 -196930,-59740 -127360,-52750 -243080,-130070 -340560,-227550 -97480,-97480 -174800,-213200 -227560,-340560 -52760,-127360 -79910,-263870 -79910,-401720 0,-137850 27150,-274360 79910,-401720 52750,-127360 130080,-243090 227550,-340570 97480,-97470 213210,-174800 340570,-227550 127360,-52760 263870,-79910 401720,-79910 137860,0 274360,27150 401720,79910 127360,52750 243090,130080 340570,227550 97470,97480 174800,213210 227550,340570 26320,63530 46330,129480 59740,196920 13410,67440 20170,136040 20170,204800 z m 32000540,220 c 0,68760 -6760,137360 -20170,204800 -13420,67430 -33430,133390 -59740,196920 -52750,127360 -130080,243080 -227560,340560 -97480,97480 -213200,174800 -340560,227550 -63530,26320 -129480,46330 -196920,59740 -67440,13410 -136040,20170 -204800,20170 -68760,0 -137350,-6760 -204790,-20170 -67440,-13410 -133400,-33420 -196930,-59740 -127360,-52750 -243080,-130070 -340560,-227550 -97480,-97480 -174800,-213200 -227560,-340560 -52760,-127360 -79910,-263870 -79910,-401720 0,-137850 27150,-274360 79910,-401720 52750,-127360 130080,-243090 227550,-340570 97480,-97470 213210,-174800 340570,-227550 127360,-52760 263870,-79910 401720,-79910 137860,0 274360,27150 401720,79910 127360,52750 243090,130080 340570,227550 97470,97480 174800,213210 227550,340570 26320,63530 46330,129480 59740,196920 13410,67440 20170,136040 20170,204800 z m -6870,-32003670 c 0,68760 -6760,137360 -20170,204800 -13420,67430 -33430,133390 -59740,196920 -52750,127360 -130080,243080 -227560,340560 -97480,97480 -213200,174800 -340560,227550 -63530,26320 -129480,46330 -196920,59740 -67440,13410 -136040,20170 -204800,20170 -68760,0 -137350,-6760 -204790,-20170 -67440,-13410 -133400,-33420 -196930,-59740 -127360,-52750 -243080,-130070 -340560,-227550 -97480,-97480 -174800,-213200 -227560,-340560 -52760,-127360 -79910,-263870 -79910,-401720 0,-137850 27150,-274360 79910,-401720 52750,-127360 130080,-243090 227550,-340570 97480,-97470 213210,-174800 340570,-227550 127360,-52760 263870,-79910 401720,-79910 137860,0 274360,27150 401720,79910 127360,52750 243090,130080 340570,227550 97470,97480 174800,213210 227550,340570 26320,63530 46330,129480 59740,196920 13410,67440 20170,136040 20170,204800 z m -31985240,10680 c 0,68760 -6760,137360 -20170,204800 -13420,67430 -33430,133390 -59740,196920 -52750,127360 -130080,243080 -227560,340560 -97480,97480 -213200,174800 -340560,227550 -63530,26320 -129480,46330 -196920,59740 -67440,13410 -136040,20170 -204800,20170 -68760,0 -137350,-6760 -204790,-20170 -67440,-13410 -133400,-33420 -196930,-59740 -127360,-52750 -243080,-130070 -340560,-227550 -97480,-97480 -174800,-213200 -227560,-340560 -52760,-127360 -79910,-263870 -79910,-401720 0,-137850 27150,-274360 79910,-401720 52750,-127360 130080,-243090 227550,-340570 97480,-97470 213210,-174800 340570,-227550 127360,-52760 263870,-79910 401720,-79910 137860,0 274360,27150 401720,79910 127360,52750 243090,130080 340570,227550 97470,97480 174800,213210 227550,340570 26320,63530 46330,129480 59740,196920 13410,67440 20170,136040 20170,204800 z m -185830290,80863740 c 0,-144470 -14190,-288590 -42380,-430280 -28180,-141700 -70220,-280280 -125510,-413750 -55280,-133470 -123550,-261190 -203810,-381310 -80270,-120130 -172140,-232070 -274290,-334230 -102160,-102150 -214100,-194020 -334230,-274290 -120120,-80260 -247840,-148530 -381310,-203810 -133470,-55290 -272050,-97330 -413750,-125510 -141690,-28190 -285810,-42380 -430280,-42380 -144470,0 -288590,14190 -430280,42380 -141700,28180 -280280,70220 -413750,125510 -133470,55280 -261190,123550 -381310,203810 -120130,80270 -232070,172140 -334230,274290 -102150,102160 -194020,214100 -274290,334230 -80260,120120 -148530,247840 -203810,381310 -55290,133470 -97330,272050 -125510,413750 -28190,141690 -42380,285810 -42380,430280 0,144470 14190,288590 42380,430280 28180,141700 70220,280280 125510,413750 55280,133470 123550,261190 203810,381310 80270,120130 172140,232070 274290,334230 102160,102150 214100,194020 334230,274290 120120,80260 247840,148530 381310,203810 133470,55290 272050,97330 413750,125510 141690,28190 285810,42380 430280,42380 144470,0 288590,-14190 430280,-42380 141700,-28180 280280,-70220 413750,-125510 133470,-55280 261190,-123550 381310,-203810 120130,-80270 232070,-172140 334230,-274290 102150,-102160 194020,-214100 274290,-334230 80260,-120120 148530,-247840 203810,-381310 55290,-133470 97330,-272050 125510,-413750 28190,-141690 42380,-285810 42380,-430280 z m 220632370,0 c 0,-144470 -14190,-288590 -42380,-430280 -28180,-141700 -70220,-280280 -125510,-413750 -55280,-133470 -123550,-261190 -203810,-381310 -80270,-120130 -172140,-232070 -274290,-334230 -102160,-102150 -214100,-194020 -334230,-274290 -120120,-80260 -247840,-148530 -381310,-203810 -133470,-55290 -272050,-97330 -413750,-125510 -141690,-28190 -285810,-42380 -430280,-42380 -144470,0 -288590,14190 -430280,42380 -141700,28180 -280280,70220 -413750,125510 -133470,55280 -261190,123550 -381310,203810 -120130,80270 -232070,172140 -334230,274290 -102150,102160 -194020,214100 -274290,334230 -80260,120120 -148530,247840 -203810,381310 -55290,133470 -97330,272050 -125510,413750 -28190,141690 -42380,285810 -42380,430280 0,144470 14190,288590 42380,430280 28180,141700 70220,280280 125510,413750 55280,133470 123550,261190 203810,381310 80270,120130 172140,232070 274290,334230 102160,102150 214100,194020 334230,274290 120120,80260 247840,148530 381310,203810 133470,55290 272050,97330 413750,125510 141690,28190 285810,42380 430280,42380 144470,0 288590,-14190 430280,-42380 141700,-28180 280280,-70220 413750,-125510 133470,-55280 261190,-123550 381310,-203810 120130,-80270 232070,-172140 334230,-274290 102150,-102160 194020,-214100 274290,-334230 80260,-120120 148530,-247840 203810,-381310 55290,-133470 97330,-272050 125510,-413750 28190,-141690 42380,-285810 42380,-430280 z m -104000010,0 c 0,-144470 -14190,-288590 -42380,-430280 -28180,-141700 -70220,-280280 -125510,-413750 -55280,-133470 -123550,-261190 -203810,-381310 -80270,-120130 -172140,-232070 -274290,-334230 -102160,-102150 -214100,-194020 -334230,-274290 -120120,-80260 -247840,-148530 -381310,-203810 -133470,-55290 -272050,-97330 -413750,-125510 -141690,-28190 -285810,-42380 -430280,-42380 -144470,0 -288590,14190 -430280,42380 -141700,28180 -280280,70220 -413750,125510 -133470,55280 -261190,123550 -381310,203810 -120130,80270 -232070,172140 -334230,274290 -102150,102160 -194020,214100 -274290,334230 -80260,120120 -148530,247840 -203810,381310 -55290,133470 -97330,272050 -125510,413750 -28190,141690 -42380,285810 -42380,430280 0,144470 14190,288590 42380,430280 28180,141700 70220,280280 125510,413750 55280,133470 123550,261190 203810,381310 80270,120130 172140,232070 274290,334230 102160,102150 214100,194020 334230,274290 120120,80260 247840,148530 381310,203810 133470,55290 272050,97330 413750,125510 141690,28190 285810,42380 430280,42380 144470,0 288590,-14190 430280,-42380 141700,-28180 280280,-70220 413750,-125510 133470,-55280 261190,-123550 381310,-203810 120130,-80270 232070,-172140 334230,-274290 102150,-102160 194020,-214100 274290,-334230 80260,-120120 148530,-247840 203810,-381310 55290,-133470 97330,-272050 125510,-413750 28190,-141690 42380,-285810 42380,-430280 z m -220632360,0 c 0,-144470 -14190,-288590 -42380,-430280 -28180,-141700 -70220,-280280 -125510,-413750 -55280,-133470 -123550,-261190 -203810,-381310 -80270,-120130 -172140,-232070 -274290,-334230 -102160,-102150 -214100,-194020 -334230,-274290 -120120,-80260 -247840,-148530 -381310,-203810 -133470,-55290 -272050,-97330 -413750,-125510 -141690,-28190 -285810,-42380 -430280,-42380 -144470,0 -288590,14190 -430280,42380 -141700,28180 -280280,70220 -413750,125510 -133470,55280 -261190,123550 -381310,203810 -120130,80270 -232070,172140 -334230,274290 -102150,102160 -194020,214100 -274290,334230 -80260,120120 -148530,247840 -203810,381310 -55290,133470 -97330,272050 -125510,413750 -28190,141690 -42380,285810 -42380,430280 0,144470 14190,288590 42380,430280 28180,141700 70220,280280 125510,413750 55280,133470 123550,261190 203810,381310 80270,120130 172140,232070 274290,334230 102160,102150 214100,194020 334230,274290 120120,80260 247840,148530 381310,203810 133470,55290 272050,97330 413750,125510 141690,28190 285810,42380 430280,42380 144470,0 288590,-14190 430280,-42380 141700,-28180 280280,-70220 413750,-125510 133470,-55280 261190,-123550 381310,-203810 120130,-80270 232070,-172140 334230,-274290 102150,-102160 194020,-214100 274290,-334230 80260,-120120 148530,-247840 203810,-381310 55290,-133470 97330,-272050 125510,-413750 28190,-141690 42380,-285810 42380,-430280 z m 326112260,-43830630 c 0,144470 14190,288590 42380,430280 28180,141700 70220,280280 125510,413750 55280,133470 123550,261190 203810,381310 80270,120130 172140,232070 274290,334230 102160,102150 214100,194020 334230,274290 120120,80260 247840,148530 381310,203810 133470,55290 272050,97330 413750,125510 141690,28190 285810,42380 430280,42380 144470,0 288590,-14190 430280,-42380 141700,-28180 280280,-70220 413750,-125510 133470,-55280 261190,-123550 381310,-203810 120130,-80270 232070,-172140 334230,-274290 102150,-102160 194020,-214100 274290,-334230 80260,-120120 148530,-247840 203810,-381310 55290,-133470 97330,-272050 125510,-413750 28190,-141690 42380,-285810 42380,-430280 0,-144470 -14190,-288590 -42380,-430280 -28180,-141700 -70220,-280280 -125510,-413750 -55280,-133470 -123550,-261190 -203810,-381310 -80270,-120130 -172140,-232070 -274290,-334230 -102160,-102150 -214100,-194020 -334230,-274290 -120120,-80260 -247840,-148530 -381310,-203810 -133470,-55290 -272050,-97330 -413750,-125510 -141690,-28190 -285810,-42380 -430280,-42380 -144470,0 -288590,14190 -430280,42380 -141700,28180 -280280,70220 -413750,125510 -133470,55280 -261190,123550 -381310,203810 -120130,80270 -232070,172140 -334230,274290 -102150,102160 -194020,214100 -274290,334230 -80260,120120 -148530,247840 -203810,381310 -55290,133470 -97330,272050 -125510,413750 -28190,141690 -42380,285810 -42380,430280 z M 368724300,303449610 c 0,144470 -14190,288590 -42380,430280 -28180,141700 -70220,280280 -125510,413750 -55280,133470 -123550,261190 -203810,381310 -80270,120130 -172140,232070 -274290,334230 -102160,102150 -214100,194020 -334230,274290 -120120,80260 -247840,148530 -381310,203810 -133470,55290 -272050,97330 -413750,125510 -141690,28190 -285810,42380 -430280,42380 -144470,0 -288590,-14190 -430280,-42380 -141700,-28180 -280280,-70220 -413750,-125510 -133470,-55280 -261190,-123550 -381310,-203810 -120130,-80270 -232070,-172140 -334230,-274290 -102150,-102160 -194020,-214100 -274290,-334230 -80260,-120120 -148530,-247840 -203810,-381310 -55290,-133470 -97330,-272050 -125510,-413750 -28190,-141690 -42380,-285810 -42380,-430280 0,-144470 14190,-288590 42380,-430280 28180,-141700 70220,-280280 125510,-413750 55280,-133470 123550,-261190 203810,-381310 80270,-120130 172140,-232070 274290,-334230 102160,-102150 214100,-194020 334230,-274290 120120,-80260 247840,-148530 381310,-203810 133470,-55290 272050,-97330 413750,-125510 141690,-28190 285810,-42380 430280,-42380 144470,0 288590,14190 430280,42380 141700,28180 280280,70220 413750,125510 133470,55280 261190,123550 381310,203810 120130,80270 232070,172140 334230,274290 102150,102160 194020,214100 274290,334230 80260,120120 148530,247840 203810,381310 55290,133470 97330,272050 125510,413750 28190,141690 42380,285810 42380,430280 z m 220632440,0 c 0,144470 -14190,288590 -42380,430280 -28180,141700 -70220,280280 -125510,413750 -55280,133470 -123550,261190 -203810,381310 -80270,120130 -172140,232070 -274290,334230 -102160,102150 -214100,194020 -334230,274290 -120120,80260 -247840,148530 -381310,203810 -133470,55290 -272050,97330 -413750,125510 -141690,28190 -285810,42380 -430280,42380 -144470,0 -288590,-14190 -430280,-42380 -141700,-28180 -280280,-70220 -413750,-125510 -133470,-55280 -261190,-123550 -381310,-203810 -120130,-80270 -232070,-172140 -334230,-274290 -102150,-102160 -194020,-214100 -274290,-334230 -80260,-120120 -148530,-247840 -203810,-381310 -55290,-133470 -97330,-272050 -125510,-413750 -28190,-141690 -42380,-285810 -42380,-430280 0,-144470 14190,-288590 42380,-430280 28180,-141700 70220,-280280 125510,-413750 55280,-133470 123550,-261190 203810,-381310 80270,-120130 172140,-232070 274290,-334230 102160,-102150 214100,-194020 334230,-274290 120120,-80260 247840,-148530 381310,-203810 133470,-55290 272050,-97330 413750,-125510 141690,-28190 285810,-42380 430280,-42380 144470,0 288590,14190 430280,42380 141700,28180 280280,70220 413750,125510 133470,55280 261190,123550 381310,203810 120130,80270 232070,172140 334230,274290 102150,102160 194020,214100 274290,334230 80260,120120 148530,247840 203810,381310 55290,133470 97330,272050 125510,413750 28190,141690 42380,285810 42380,430280 z m -104000080,0 c 0,144470 -14190,288590 -42380,430280 -28180,141700 -70220,280280 -125510,413750 -55280,133470 -123550,261190 -203810,381310 -80270,120130 -172140,232070 -274290,334230 -102160,102150 -214100,194020 -334230,274290 -120120,80260 -247840,148530 -381310,203810 -133470,55290 -272050,97330 -413750,125510 -141690,28190 -285810,42380 -430280,42380 -144470,0 -288590,-14190 -430280,-42380 -141700,-28180 -280280,-70220 -413750,-125510 -133470,-55280 -261190,-123550 -381310,-203810 -120130,-80270 -232070,-172140 -334230,-274290 -102150,-102160 -194020,-214100 -274290,-334230 -80260,-120120 -148530,-247840 -203810,-381310 -55290,-133470 -97330,-272050 -125510,-413750 -28190,-141690 -42380,-285810 -42380,-430280 0,-144470 14190,-288590 42380,-430280 28180,-141700 70220,-280280 125510,-413750 55280,-133470 123550,-261190 203810,-381310 80270,-120130 172140,-232070 274290,-334230 102160,-102150 214100,-194020 334230,-274290 120120,-80260 247840,-148530 381310,-203810 133470,-55290 272050,-97330 413750,-125510 141690,-28190 285810,-42380 430280,-42380 144470,0 288590,14190 430280,42380 141700,28180 280280,70220 413750,125510 133470,55280 261190,123550 381310,203810 120130,80270 232070,172140 334230,274290 102150,102160 194020,214100 274290,334230 80260,120120 148530,247840 203810,381310 55290,133470 97330,272050 125510,413750 28190,141690 42380,285810 42380,430280 z m -220630360,0 c 0,144470 -14190,288590 -42380,430280 -28180,141700 -70220,280280 -125510,413750 -55280,133470 -123550,261190 -203810,381310 -80270,120130 -172140,232070 -274290,334230 -102160,102150 -214100,194020 -334230,274290 -120120,80260 -247840,148530 -381310,203810 -133470,55290 -272050,97330 -413750,125510 -141690,28190 -285810,42380 -430280,42380 -144470,0 -288590,-14190 -430280,-42380 -141700,-28180 -280280,-70220 -413750,-125510 -133470,-55280 -261190,-123550 -381310,-203810 -120130,-80270 -232070,-172140 -334230,-274290 -102150,-102160 -194020,-214100 -274290,-334230 -80260,-120120 -148530,-247840 -203810,-381310 -55290,-133470 -97330,-272050 -125510,-413750 -28190,-141690 -42380,-285810 -42380,-430280 0,-144470 14190,-288590 42380,-430280 28180,-141700 70220,-280280 125510,-413750 55280,-133470 123550,-261190 203810,-381310 80270,-120130 172140,-232070 274290,-334230 102160,-102150 214100,-194020 334230,-274290 120120,-80260 247840,-148530 381310,-203810 133470,-55290 272050,-97330 413750,-125510 141690,-28190 285810,-42380 430280,-42380 144470,0 288590,14190 430280,42380 141700,28180 280280,70220 413750,125510 133470,55280 261190,123550 381310,203810 120130,80270 232070,172140 334230,274290 102150,102160 194020,214100 274290,334230 80260,120120 148530,247840 203810,381310 55290,133470 97330,272050 125510,413750 28190,141690 42380,285810 42380,430280 z m -5482630,58838380 c 0,144470 -14200,288590 -42380,430280 -28190,141700 -70220,280280 -125510,413750 -55290,133470 -123550,261190 -203810,381310 -80270,120130 -172140,232070 -274290,334230 -102160,102150 -214110,194020 -334230,274290 -120120,80260 -247840,148530 -381310,203810 -133470,55290 -272050,97330 -413750,125510 -141690,28190 -285810,42380 -430280,42380 -144470,0 -288590,-14190 -430280,-42380 -141700,-28180 -280280,-70220 -413750,-125510 -133470,-55280 -261190,-123550 -381310,-203810 -120130,-80270 -232070,-172140 -334230,-274290 -102150,-102160 -194020,-214100 -274290,-334230 -80260,-120120 -148530,-247840 -203810,-381310 -55290,-133470 -97330,-272050 -125510,-413750 -28190,-141690 -42380,-285810 -42380,-430280 0,-144470 14190,-288590 42380,-430280 28180,-141700 70220,-280280 125510,-413750 55280,-133470 123550,-261190 203810,-381310 80270,-120130 172140,-232070 274290,-334230 102160,-102150 214100,-194020 334230,-274290 120120,-80260 247840,-148530 381310,-203810 133470,-55290 272050,-97330 413750,-125510 141690,-28180 285810,-42380 430280,-42380 144470,0 288590,14200 430280,42380 141700,28180 280280,70220 413750,125510 133470,55280 261190,123550 381310,203810 120120,80270 232070,172140 334230,274290 102150,102160 194020,214100 274290,334230 80260,120120 148520,247840 203810,381310 55290,133470 97320,272050 125510,413750 28180,141690 42380,285810 42380,430280 z m 208478120,-17038380 c 0,144470 -14190,288590 -42380,430280 -28180,141700 -70220,280280 -125510,413750 -55280,133470 -123550,261190 -203810,381310 -80270,120130 -172140,232070 -274290,334230 -102160,102150 -214100,194020 -334230,274290 -120120,80260 -247840,148530 -381310,203810 -133470,55290 -272050,97330 -413750,125510 -141690,28190 -285810,42380 -430280,42380 -144470,0 -288590,-14190 -430280,-42380 -141700,-28180 -280280,-70220 -413750,-125510 -133470,-55280 -261190,-123550 -381310,-203810 -120130,-80270 -232070,-172140 -334230,-274290 -102150,-102160 -194020,-214100 -274290,-334230 -80260,-120120 -148530,-247840 -203810,-381310 -55290,-133470 -97330,-272050 -125510,-413750 -28190,-141690 -42380,-285810 -42380,-430280 0,-144470 14190,-288590 42380,-430280 28180,-141700 70220,-280280 125510,-413750 55280,-133470 123550,-261190 203810,-381310 80270,-120130 172140,-232070 274290,-334230 102160,-102150 214100,-194020 334230,-274290 120120,-80260 247840,-148530 381310,-203810 133470,-55290 272050,-97330 413750,-125510 141690,-28190 285810,-42380 430280,-42380 144470,0 288590,14190 430280,42380 141700,28180 280280,70220 413750,125510 133470,55280 261190,123550 381310,203810 120130,80270 232070,172140 334230,274290 102150,102160 194020,214100 274290,334230 80260,120120 148530,247840 203810,381310 55290,133470 97330,272050 125510,413750 28190,141690 42380,285810 42380,430280 z m 78622010,19051010 c 0,144470 -14190,288590 -42380,430280 -28180,141700 -70220,280280 -125510,413750 -55280,133470 -123550,261190 -203810,381310 -80260,120120 -172130,232070 -274290,334220 -102150,102160 -214100,194030 -334220,274290 -120120,80270 -247840,148530 -381310,203820 -133470,55290 -272050,97320 -413750,125510 -141690,28180 -285810,42380 -430280,42380 -144470,0 -288590,-14190 -430280,-42380 -141700,-28180 -280280,-70220 -413750,-125510 -133470,-55280 -261190,-123550 -381310,-203810 -120130,-80270 -232070,-172140 -334230,-274290 -102150,-102160 -194020,-214100 -274290,-334230 -80260,-120120 -148530,-247840 -203810,-381310 -55290,-133470 -97330,-272050 -125510,-413750 -28190,-141690 -42380,-285810 -42380,-430280 0,-144470 14190,-288590 42380,-430280 28180,-141700 70220,-280280 125510,-413750 55280,-133470 123550,-261190 203810,-381310 80270,-120130 172140,-232070 274290,-334230 102160,-102150 214100,-194020 334230,-274290 120120,-80260 247840,-148530 381310,-203810 133470,-55290 272050,-97330 413750,-125510 141690,-28190 285810,-42380 430280,-42380 144470,0 288590,14200 430280,42380 141700,28190 280280,70220 413750,125510 133470,55290 261190,123550 381310,203820 120120,80260 232070,172130 334220,274290 102160,102150 194030,214100 274290,334220 80260,120120 148530,247840 203810,381310 55290,133470 97330,272050 125510,413750 28190,141690 42380,285810 42380,430280 z m -154830760,0 c 0,144470 -14190,288590 -42380,430280 -28180,141700 -70220,280280 -125510,413750 -55280,133470 -123550,261190 -203810,381310 -80270,120130 -172140,232070 -274290,334230 -102160,102150 -214100,194020 -334230,274290 -120120,80260 -247840,148530 -381310,203810 -133470,55290 -272050,97330 -413750,125510 -141690,28190 -285810,42380 -430280,42380 -144470,0 -288590,-14190 -430280,-42380 -141700,-28180 -280280,-70220 -413750,-125510 -133470,-55280 -261190,-123550 -381310,-203810 -120130,-80270 -232070,-172140 -334230,-274290 -102150,-102160 -194020,-214100 -274290,-334230 -80260,-120120 -148530,-247840 -203810,-381310 -55290,-133470 -97330,-272050 -125510,-413750 -28190,-141690 -42380,-285810 -42380,-430280 0,-144470 14190,-288590 42380,-430280 28180,-141700 70220,-280280 125510,-413750 55280,-133470 123550,-261190 203810,-381310 80270,-120130 172140,-232070 274290,-334230 102160,-102150 214100,-194020 334230,-274290 120120,-80260 247840,-148530 381310,-203810 133470,-55290 272050,-97330 413750,-125510 141690,-28190 285810,-42380 430280,-42380 144470,0 288590,14190 430280,42380 141700,28180 280280,70220 413750,125510 133470,55280 261190,123550 381310,203810 120130,80270 232070,172140 334230,274290 102150,102160 194020,214100 274290,334230 80260,120120 148530,247840 203810,381310 55290,133470 97330,272050 125510,413750 28190,141690 42380,285810 42380,430280 z m -80969540,-19051010 c 0,144470 -14190,288590 -42380,430280 -28180,141700 -70220,280280 -125510,413750 -55280,133470 -123550,261190 -203810,381310 -80270,120130 -172140,232070 -274290,334230 -102160,102150 -214100,194020 -334230,274290 -120120,80260 -247840,148530 -381310,203810 -133470,55290 -272050,97330 -413750,125510 -141690,28190 -285810,42380 -430280,42380 -144470,0 -288590,-14190 -430280,-42380 -141700,-28180 -280280,-70220 -413750,-125510 -133470,-55280 -261190,-123550 -381310,-203810 -120130,-80270 -232070,-172140 -334230,-274290 -102150,-102160 -194020,-214100 -274290,-334230 -80260,-120120 -148530,-247840 -203810,-381310 -55290,-133470 -97330,-272050 -125510,-413750 -28190,-141690 -42380,-285810 -42380,-430280 0,-144470 14190,-288590 42380,-430280 28180,-141700 70220,-280280 125510,-413750 55280,-133470 123550,-261190 203810,-381310 80270,-120130 172140,-232070 274290,-334230 102160,-102150 214100,-194020 334230,-274290 120120,-80260 247840,-148530 381310,-203810 133470,-55290 272050,-97330 413750,-125510 141690,-28190 285810,-42380 430280,-42380 144470,0 288590,14190 430280,42380 141700,28180 280280,70220 413750,125510 133470,55280 261190,123550 381310,203810 120130,80270 232070,172140 334230,274290 102150,102160 194020,214100 274290,334230 80260,120120 148530,247840 203810,381310 55290,133470 97330,272050 125510,413750 28190,141690 42380,285810 42380,430280 z"
       sodipodi:nodetypes="ssssssscssssssssssssssscsssssssccsssssssccssssssscssssssssssssssscsssssssccssssssscssssssssssssssscsssssssccssssssscssssssssssssssscsssssssccscssssscscscscssscscscsccscssssccccsssccccscssssscscscscssscscscscsssssssccsssssssccssssssscssssssssssssssscsssssssccssssssscssssssssssssssscsssssssccssssssscssssssssssssssscsssssssccssssssscssssssssssssssscsssssssccsssssssccssssssssssssssssssssssssssssssssssssssssssssssssssssssssssssssssssssssssssssssssssssssssssssssssssssssssssssssssssssssssssssssssssssssssssssssssssssssssssssssssssssssssssssssssssssssssssssssssssssssssssssssssssssssssssssssssssssssssssssssssssssssssssssssssssssssssssssssssssssssssssssssssssssssssssssssssssssssssssssssssssssssssssssssssssssssssssssssccscsccsccscsccsccscsccsccscsccssssscssssssscssssssscssssssscssssssssssssssssssssssssssssssssssssssssssssssssssssssssssssssssssssssssssssssssssssssssssssssssssssssssssssssssssssssssssssssssssssssss" />
  </g>
</svg>
