<?xml version="1.0" encoding="UTF-8" standalone="no"?>
<!-- Created with Inkscape (http://www.inkscape.org/) -->

<svg
   width="61.183838mm"
   height="44.129082mm"
   viewBox="0 0 61.183838 44.129082"
   version="1.1"
   id="svg1882"
   inkscape:version="1.2 (dc2aedaf03, 2022-05-15)"
   sodipodi:docname="gasket.svg"
   xmlns:inkscape="http://www.inkscape.org/namespaces/inkscape"
   xmlns:sodipodi="http://sodipodi.sourceforge.net/DTD/sodipodi-0.dtd"
   xmlns="http://www.w3.org/2000/svg"
   xmlns:svg="http://www.w3.org/2000/svg">
  <sodipodi:namedview
     id="namedview1884"
     pagecolor="#ffffff"
     bordercolor="#000000"
     borderopacity="0.25"
     inkscape:showpageshadow="2"
     inkscape:pageopacity="0.0"
     inkscape:pagecheckerboard="0"
     inkscape:deskcolor="#d1d1d1"
     inkscape:document-units="mm"
     showgrid="false"
     inkscape:zoom="1.4770342"
     inkscape:cx="233.57617"
     inkscape:cy="244.07017"
     inkscape:window-width="1409"
     inkscape:window-height="1032"
     inkscape:window-x="719"
     inkscape:window-y="151"
     inkscape:window-maximized="0"
     inkscape:current-layer="layer1" />
  <defs
     id="defs1879" />
  <g
     inkscape:label="Layer 1"
     inkscape:groupmode="layer"
     id="layer1"
     transform="translate(-7.8317858,-8.4064461)">
    <path
       id="rect2433"
       style="fill:none;stroke:#000000;stroke-width:0.0995547"
       d="M 7.8815632,8.4562235 H 68.965845 V 52.485749 H 7.8815632 Z M 9.9927968,48.111048 V 33.430049 m 3.8799902,0 v 14.680999 m -3.8799902,-14.680999 0.003,-0.095 0.007,-0.095 0.011,-0.094 0.017,-0.094 0.021,-0.093 0.025,-0.092 0.03,-0.09 0.034,-0.089 0.039,-0.087 0.042,-0.085 0.047,-0.083 0.051,-0.08 0.055,-0.078 0.059,-0.075 0.062,-0.072 0.066,-0.069 0.069,-0.066 0.072,-0.062 0.075,-0.059 0.077,-0.054 0.081,-0.051 0.083,-0.047 0.085,-0.043 0.087,-0.039 0.089,-0.034 0.09,-0.03 0.092,-0.025 0.093,-0.021 0.094,-0.016 0.094,-0.012 0.095,-0.007 0.095,-0.002 0.095,0.002 0.095,0.007 0.095,0.012 0.094,0.016 0.092,0.021 0.092,0.025 0.091,0.03 0.088,0.034 0.087,0.039 0.085,0.043 0.083,0.047 0.081,0.051 0.078,0.054 0.075,0.059 0.072,0.062 0.069,0.066 0.065,0.069 0.062,0.072 0.059,0.075 0.055,0.078 0.051,0.08 0.047,0.083 0.043,0.085 0.038,0.087 0.034,0.089 0.03,0.09 0.026,0.092 0.02,0.093 0.017,0.094 0.011,0.094 0.007,0.095 0.003,0.095 m 0,14.680999 -0.003,0.096 -0.007,0.095 -0.011,0.094 -0.017,0.094 -0.02,0.093 -0.026,0.091 -0.03,0.091 -0.034,0.089 -0.038,0.087 -0.043,0.085 -0.047,0.083 -0.051,0.08 -0.055,0.078 -0.059,0.075 -0.062,0.072 -0.065,0.069 -0.069,0.066 -0.072,0.062 -0.075,0.058 -0.078,0.055 -0.081,0.051 -0.083,0.047 -0.085,0.043 -0.087,0.038 -0.088,0.035 -0.091,0.03 -0.092,0.025 -0.092,0.021 -0.094,0.016 -0.095,0.012 -0.095,0.007 -0.095,0.002 -0.095,-0.002 -0.095,-0.007 -0.094,-0.012 -0.094,-0.016 -0.093,-0.021 -0.092,-0.025 -0.09,-0.03 -0.089,-0.035 -0.087,-0.038 -0.085,-0.043 -0.083,-0.047 -0.081,-0.051 -0.077,-0.055 -0.075,-0.058 -0.072,-0.062 -0.069,-0.066 -0.066,-0.069 -0.062,-0.072 -0.059,-0.075 -0.055,-0.078 -0.051,-0.08 -0.047,-0.083 -0.042,-0.085 -0.039,-0.087 -0.034,-0.089 -0.03,-0.091 -0.025,-0.091 -0.021,-0.093 -0.017,-0.094 -0.011,-0.094 -0.007,-0.095 -0.003,-0.096 m 5.8880102,0 V 33.430049 m 3.88,0 v 14.680999 m -3.88,-14.680999 0.003,-0.095 0.007,-0.095 0.011,-0.094 0.017,-0.094 0.021,-0.093 0.025,-0.092 0.03,-0.09 0.034,-0.089 0.039,-0.087 0.042,-0.085 0.047,-0.083 0.051,-0.08 0.055,-0.078 0.059,-0.075 0.062,-0.072 0.066,-0.069 0.069,-0.066 0.072,-0.062 0.075,-0.059 0.077,-0.054 0.081,-0.051 0.083,-0.047 0.085,-0.043 0.087,-0.039 0.089,-0.034 0.09,-0.03 0.092,-0.025 0.093,-0.021 0.094,-0.016 0.094,-0.012 0.095,-0.007 0.095,-0.002 0.095,0.002 0.095,0.007 0.095,0.012 0.094,0.016 0.092,0.021 0.092,0.025 0.091,0.03 0.088,0.034 0.087,0.039 0.085,0.043 0.083,0.047 0.081,0.051 0.078,0.054 0.075,0.059 0.072,0.062 0.069,0.066 0.065,0.069 0.062,0.072 0.059,0.075 0.055,0.078 0.051,0.08 0.047,0.083 0.043,0.085 0.038,0.087 0.034,0.089 0.03,0.09 0.026,0.092 0.02,0.093 0.017,0.094 0.011,0.094 0.007,0.095 0.003,0.095 m 0,14.680999 -0.003,0.096 -0.007,0.095 -0.011,0.094 -0.017,0.094 -0.02,0.093 -0.026,0.091 -0.03,0.091 -0.034,0.089 -0.038,0.087 -0.043,0.085 -0.047,0.083 -0.051,0.08 -0.055,0.078 -0.059,0.075 -0.062,0.072 -0.065,0.069 -0.069,0.066 -0.072,0.062 -0.075,0.058 -0.078,0.055 -0.081,0.051 -0.083,0.047 -0.085,0.043 -0.087,0.038 -0.088,0.035 -0.091,0.03 -0.092,0.025 -0.092,0.021 -0.094,0.016 -0.095,0.012 -0.095,0.007 -0.095,0.002 -0.095,-0.002 -0.095,-0.007 -0.094,-0.012 -0.094,-0.016 -0.093,-0.021 -0.092,-0.025 -0.09,-0.03 -0.089,-0.035 -0.087,-0.038 -0.085,-0.043 -0.083,-0.047 -0.081,-0.051 -0.077,-0.055 -0.075,-0.058 -0.072,-0.062 -0.069,-0.066 -0.066,-0.069 -0.062,-0.072 -0.059,-0.075 -0.055,-0.078 -0.051,-0.08 -0.047,-0.083 -0.042,-0.085 -0.039,-0.087 -0.034,-0.089 -0.03,-0.091 -0.025,-0.091 -0.021,-0.093 -0.017,-0.094 -0.011,-0.094 -0.007,-0.095 -0.003,-0.096 m 5.88801,0 V 33.430049 m 3.88,0 v 14.680999 m -3.88,-14.680999 0.003,-0.095 0.007,-0.095 0.011,-0.094 0.017,-0.094 0.021,-0.093 0.025,-0.092 0.03,-0.09 0.034,-0.089 0.039,-0.087 0.042,-0.085 0.047,-0.083 0.051,-0.08 0.055,-0.078 0.059,-0.075 0.062,-0.072 0.066,-0.069 0.069,-0.066 0.072,-0.062 0.075,-0.059 0.077,-0.054 0.081,-0.051 0.083,-0.047 0.085,-0.043 0.087,-0.039 0.089,-0.034 0.09,-0.03 0.092,-0.025 0.093,-0.021 0.094,-0.016 0.094,-0.012 0.095,-0.007 0.095,-0.002 0.095,0.002 0.095,0.007 0.095,0.012 0.094,0.016 0.092,0.021 0.092,0.025 0.091,0.03 0.088,0.034 0.087,0.039 0.085,0.043 0.083,0.047 0.081,0.051 0.078,0.054 0.075,0.059 0.072,0.062 0.069,0.066 0.065,0.069 0.062,0.072 0.059,0.075 0.055,0.078 0.051,0.08 0.047,0.083 0.043,0.085 0.038,0.087 0.034,0.089 0.03,0.09 0.026,0.092 0.02,0.093 0.017,0.094 0.011,0.094 0.007,0.095 0.003,0.095 m 0,14.680999 -0.003,0.096 -0.007,0.095 -0.011,0.094 -0.017,0.094 -0.02,0.093 -0.026,0.091 -0.03,0.091 -0.034,0.089 -0.038,0.087 -0.043,0.085 -0.047,0.083 -0.051,0.08 -0.055,0.078 -0.059,0.075 -0.062,0.072 -0.065,0.069 -0.069,0.066 -0.072,0.062 -0.075,0.058 -0.078,0.055 -0.081,0.051 -0.083,0.047 -0.085,0.043 -0.087,0.038 -0.088,0.035 -0.091,0.03 -0.092,0.025 -0.092,0.021 -0.094,0.016 -0.095,0.012 -0.095,0.007 -0.095,0.002 -0.095,-0.002 -0.095,-0.007 -0.094,-0.012 -0.094,-0.016 -0.093,-0.021 -0.092,-0.025 -0.09,-0.03 -0.089,-0.035 -0.087,-0.038 -0.085,-0.043 -0.083,-0.047 -0.081,-0.051 -0.077,-0.055 -0.075,-0.058 -0.072,-0.062 -0.069,-0.066 -0.066,-0.069 -0.062,-0.072 -0.059,-0.075 -0.055,-0.078 -0.051,-0.08 -0.047,-0.083 -0.042,-0.085 -0.039,-0.087 -0.034,-0.089 -0.03,-0.091 -0.025,-0.091 -0.021,-0.093 -0.017,-0.094 -0.011,-0.094 -0.007,-0.095 -0.003,-0.096 m 5.88801,0 V 33.430049 m 3.879986,0 v 14.680999 m -3.879986,-14.680999 0.003,-0.095 0.007,-0.095 0.011,-0.094 0.017,-0.094 0.021,-0.093 0.025,-0.092 0.03,-0.09 0.034,-0.089 0.039,-0.087 0.042,-0.085 0.047,-0.083 0.051,-0.08 0.055,-0.078 0.059,-0.075 0.062,-0.072 0.066,-0.069 0.069,-0.066 0.072,-0.062 0.075,-0.059 0.077,-0.054 0.081,-0.051 0.083,-0.047 0.085,-0.043 0.087,-0.039 0.089,-0.034 0.09,-0.03 0.092,-0.025 0.093,-0.021 0.094,-0.016 0.094,-0.012 0.095,-0.007 0.095,-0.002 0.095,0.002 0.095,0.007 0.095,0.012 0.094,0.016 0.092,0.021 0.092,0.025 0.091,0.03 0.088,0.034 0.087,0.039 0.085,0.043 0.083,0.047 0.081,0.051 0.078,0.054 0.075,0.059 0.072,0.062 0.069,0.066 0.065,0.069 0.062,0.072 0.059,0.075 0.055,0.078 0.051,0.08 0.047,0.083 0.043,0.085 0.038,0.087 0.034,0.089 0.03,0.09 0.026,0.092 0.02,0.093 0.017,0.094 0.011,0.094 0.007,0.095 0.003,0.095 m 0,14.680999 -0.003,0.096 -0.007,0.095 -0.011,0.094 -0.017,0.094 -0.02,0.093 -0.026,0.091 -0.03,0.091 -0.034,0.089 -0.038,0.087 -0.043,0.085 -0.047,0.083 -0.051,0.08 -0.055,0.078 -0.059,0.075 -0.062,0.072 -0.065,0.069 -0.069,0.066 -0.072,0.062 -0.075,0.058 -0.078,0.055 -0.081,0.051 -0.083,0.047 -0.085,0.043 -0.087,0.038 -0.088,0.035 -0.091,0.03 -0.092,0.025 -0.092,0.021 -0.094,0.016 -0.095,0.012 -0.095,0.007 -0.095,0.002 -0.095,-0.002 -0.095,-0.007 -0.094,-0.012 -0.094,-0.016 -0.093,-0.021 -0.092,-0.025 -0.09,-0.03 -0.089,-0.035 -0.087,-0.038 -0.085,-0.043 -0.083,-0.047 -0.081,-0.051 -0.077,-0.055 -0.075,-0.058 -0.072,-0.062 -0.069,-0.066 -0.066,-0.069 -0.062,-0.072 -0.059,-0.075 -0.055,-0.078 -0.051,-0.08 -0.047,-0.083 -0.042,-0.085 -0.039,-0.087 -0.034,-0.089 -0.03,-0.091 -0.025,-0.091 -0.021,-0.093 -0.017,-0.094 -0.011,-0.094 -0.007,-0.095 -0.003,-0.096 m 5.887996,0 V 33.430049 m 3.88,0 v 14.680999 m -3.88,-14.680999 0.003,-0.095 0.007,-0.095 0.011,-0.094 0.017,-0.094 0.021,-0.093 0.025,-0.092 0.03,-0.09 0.034,-0.089 0.039,-0.087 0.042,-0.085 0.047,-0.083 0.051,-0.08 0.055,-0.078 0.059,-0.075 0.062,-0.072 0.066,-0.069 0.069,-0.066 0.072,-0.062 0.075,-0.059 0.077,-0.054 0.081,-0.051 0.083,-0.047 0.085,-0.043 0.087,-0.039 0.089,-0.034 0.09,-0.03 0.092,-0.025 0.093,-0.021 0.094,-0.016 0.094,-0.012 0.095,-0.007 0.095,-0.002 0.095,0.002 0.095,0.007 0.095,0.012 0.094,0.016 0.092,0.021 0.092,0.025 0.091,0.03 0.088,0.034 0.087,0.039 0.085,0.043 0.083,0.047 0.081,0.051 0.078,0.054 0.075,0.059 0.072,0.062 0.069,0.066 0.065,0.069 0.062,0.072 0.059,0.075 0.055,0.078 0.051,0.08 0.047,0.083 0.043,0.085 0.038,0.087 0.034,0.089 0.03,0.09 0.026,0.092 0.02,0.093 0.017,0.094 0.011,0.094 0.007,0.095 0.003,0.095 m 0,14.680999 -0.003,0.096 -0.007,0.095 -0.011,0.094 -0.017,0.094 -0.02,0.093 -0.026,0.091 -0.03,0.091 -0.034,0.089 -0.038,0.087 -0.043,0.085 -0.047,0.083 -0.051,0.08 -0.055,0.078 -0.059,0.075 -0.062,0.072 -0.065,0.069 -0.069,0.066 -0.072,0.062 -0.075,0.058 -0.078,0.055 -0.081,0.051 -0.083,0.047 -0.085,0.043 -0.087,0.038 -0.088,0.035 -0.091,0.03 -0.092,0.025 -0.092,0.021 -0.094,0.016 -0.095,0.012 -0.095,0.007 -0.095,0.002 -0.095,-0.002 -0.095,-0.007 -0.094,-0.012 -0.094,-0.016 -0.093,-0.021 -0.092,-0.025 -0.09,-0.03 -0.089,-0.035 -0.087,-0.038 -0.085,-0.043 -0.083,-0.047 -0.081,-0.051 -0.077,-0.055 -0.075,-0.058 -0.072,-0.062 -0.069,-0.066 -0.066,-0.069 -0.062,-0.072 -0.059,-0.075 -0.055,-0.078 -0.051,-0.08 -0.047,-0.083 -0.042,-0.085 -0.039,-0.087 -0.034,-0.089 -0.03,-0.091 -0.025,-0.091 -0.021,-0.093 -0.017,-0.094 -0.011,-0.094 -0.007,-0.095 -0.003,-0.096 m 5.88801,0 V 33.430049 m 3.879985,0 v 14.680999 m -3.879985,-14.680999 0.003,-0.095 0.007,-0.095 0.011,-0.094 0.017,-0.094 0.021,-0.093 0.025,-0.092 0.03,-0.09 0.034,-0.089 0.039,-0.087 0.042,-0.085 0.047,-0.083 0.051,-0.08 0.055,-0.078 0.059,-0.075 0.062,-0.072 0.066,-0.069 0.069,-0.066 0.072,-0.062 0.075,-0.059 0.077,-0.054 0.081,-0.051 0.083,-0.047 0.085,-0.043 0.087,-0.039 0.089,-0.034 0.09,-0.03 0.092,-0.025 0.093,-0.021 0.094,-0.016 0.094,-0.012 0.095,-0.007 0.095,-0.002 0.095,0.002 0.095,0.007 0.095,0.012 0.094,0.016 0.092,0.021 0.092,0.025 0.091,0.03 0.088,0.034 0.087,0.039 0.085,0.043 0.083,0.047 0.081,0.051 0.078,0.054 0.075,0.059 0.072,0.062 0.069,0.066 0.065,0.069 0.062,0.072 0.059,0.075 0.055,0.078 0.051,0.08 0.047,0.083 0.043,0.085 0.038,0.087 0.034,0.089 0.03,0.09 0.026,0.092 0.02,0.093 0.017,0.094 0.011,0.094 0.007,0.095 0.003,0.095 m 0,14.680999 -0.003,0.096 -0.007,0.095 -0.011,0.094 -0.017,0.094 -0.02,0.093 -0.026,0.091 -0.03,0.091 -0.034,0.089 -0.038,0.087 -0.043,0.085 -0.047,0.083 -0.051,0.08 -0.055,0.078 -0.059,0.075 -0.062,0.072 -0.065,0.069 -0.069,0.066 -0.072,0.062 -0.075,0.058 -0.078,0.055 -0.081,0.051 -0.083,0.047 -0.085,0.043 -0.087,0.038 -0.088,0.035 -0.091,0.03 -0.092,0.025 -0.092,0.021 -0.094,0.016 -0.095,0.012 -0.095,0.007 -0.095,0.002 -0.095,-0.002 -0.095,-0.007 -0.094,-0.012 -0.094,-0.016 -0.093,-0.021 -0.092,-0.025 -0.09,-0.03 -0.089,-0.035 -0.087,-0.038 -0.085,-0.043 -0.083,-0.047 -0.081,-0.051 -0.077,-0.055 -0.075,-0.058 -0.072,-0.062 -0.069,-0.066 -0.066,-0.069 -0.062,-0.072 -0.059,-0.075 -0.055,-0.078 -0.051,-0.08 -0.047,-0.083 -0.042,-0.085 -0.039,-0.087 -0.034,-0.089 -0.03,-0.091 -0.025,-0.091 -0.021,-0.093 -0.017,-0.094 -0.011,-0.094 -0.007,-0.095 -0.003,-0.096 m 5.887983,0 V 33.430049 m 3.879979,0 v 14.680999 m -3.879979,-14.680999 0.003,-0.095 0.007,-0.095 0.011,-0.094 0.017,-0.094 0.021,-0.093 0.025,-0.092 0.03,-0.09 0.034,-0.089 0.039,-0.087 0.042,-0.085 0.047,-0.083 0.051,-0.08 0.055,-0.078 0.059,-0.075 0.062,-0.072 0.066,-0.069 0.069,-0.066 0.072,-0.062 0.075,-0.059 0.077,-0.054 0.081,-0.051 0.083,-0.047 0.085,-0.043 0.087,-0.039 0.089,-0.034 0.09,-0.03 0.092,-0.025 0.093,-0.021 0.094,-0.016 0.094,-0.012 0.095,-0.007 0.095,-0.002 0.095,0.002 0.095,0.007 0.095,0.012 0.094,0.016 0.092,0.021 0.092,0.025 0.091,0.03 0.088,0.034 0.087,0.039 0.085,0.043 0.083,0.047 0.081,0.051 0.078,0.054 0.075,0.059 0.072,0.062 0.069,0.066 0.065,0.069 0.062,0.072 0.059,0.075 0.055,0.078 0.051,0.08 0.047,0.083 0.043,0.085 0.038,0.087 0.034,0.089 0.03,0.09 0.026,0.092 0.02,0.093 0.017,0.094 0.011,0.094 0.007,0.095 0.003,0.095 m 0,14.680999 -0.003,0.096 -0.007,0.095 -0.011,0.094 -0.017,0.094 -0.02,0.093 -0.026,0.091 -0.03,0.091 -0.034,0.089 -0.038,0.087 -0.043,0.085 -0.047,0.083 -0.051,0.08 -0.055,0.078 -0.059,0.075 -0.062,0.072 -0.065,0.069 -0.069,0.066 -0.072,0.062 -0.075,0.058 -0.078,0.055 -0.081,0.051 -0.083,0.047 -0.085,0.043 -0.087,0.038 -0.088,0.035 -0.091,0.03 -0.092,0.025 -0.092,0.021 -0.094,0.016 -0.095,0.012 -0.095,0.007 -0.095,0.002 -0.095,-0.002 -0.095,-0.007 -0.094,-0.012 -0.094,-0.016 -0.093,-0.021 -0.092,-0.025 -0.09,-0.03 -0.089,-0.035 -0.087,-0.038 -0.085,-0.043 -0.083,-0.047 -0.081,-0.051 -0.077,-0.055 -0.075,-0.058 -0.072,-0.062 -0.069,-0.066 -0.066,-0.069 -0.062,-0.072 -0.059,-0.075 -0.055,-0.078 -0.051,-0.08 -0.047,-0.083 -0.042,-0.085 -0.039,-0.087 -0.034,-0.089 -0.03,-0.091 -0.025,-0.091 -0.021,-0.093 -0.017,-0.094 -0.011,-0.094 -0.007,-0.095 -0.003,-0.096 m 5.887977,0 V 33.430049 m 3.879976,0 v 14.680999 m -3.879976,-14.680999 0.003,-0.095 0.007,-0.095 0.011,-0.094 0.017,-0.094 0.021,-0.093 0.025,-0.092 0.03,-0.09 0.034,-0.089 0.039,-0.087 0.042,-0.085 0.047,-0.083 0.051,-0.08 0.055,-0.078 0.059,-0.075 0.062,-0.072 0.066,-0.069 0.069,-0.066 0.072,-0.062 0.075,-0.059 0.077,-0.054 0.081,-0.051 0.083,-0.047 0.085,-0.043 0.087,-0.039 0.089,-0.034 0.09,-0.03 0.092,-0.025 0.093,-0.021 0.094,-0.016 0.094,-0.012 0.095,-0.007 0.095,-0.002 0.095,0.002 0.095,0.007 0.095,0.012 0.094,0.016 0.092,0.021 0.092,0.025 0.091,0.03 0.088,0.034 0.087,0.039 0.085,0.043 0.083,0.047 0.081,0.051 0.078,0.054 0.075,0.059 0.072,0.062 0.069,0.066 0.065,0.069 0.062,0.072 0.059,0.075 0.055,0.078 0.051,0.08 0.047,0.083 0.043,0.085 0.038,0.087 0.034,0.089 0.03,0.09 0.026,0.092 0.02,0.093 0.017,0.094 0.011,0.094 0.007,0.095 0.003,0.095 m 0,14.680999 -0.003,0.096 -0.007,0.095 -0.011,0.094 -0.017,0.094 -0.02,0.093 -0.026,0.091 -0.03,0.091 -0.034,0.089 -0.038,0.087 -0.043,0.085 -0.047,0.083 -0.051,0.08 -0.055,0.078 -0.059,0.075 -0.062,0.072 -0.065,0.069 -0.069,0.066 -0.072,0.062 -0.075,0.058 -0.078,0.055 -0.081,0.051 -0.083,0.047 -0.085,0.043 -0.087,0.038 -0.088,0.035 -0.091,0.03 -0.092,0.025 -0.092,0.021 -0.094,0.016 -0.095,0.012 -0.095,0.007 -0.095,0.002 -0.095,-0.002 -0.095,-0.007 -0.094,-0.012 -0.094,-0.016 -0.093,-0.021 -0.092,-0.025 -0.09,-0.03 -0.089,-0.035 -0.087,-0.038 -0.085,-0.043 -0.083,-0.047 -0.081,-0.051 -0.077,-0.055 -0.075,-0.058 -0.072,-0.062 -0.069,-0.066 -0.066,-0.069 -0.062,-0.072 -0.059,-0.075 -0.055,-0.078 -0.051,-0.08 -0.047,-0.083 -0.042,-0.085 -0.039,-0.087 -0.034,-0.089 -0.03,-0.091 -0.025,-0.091 -0.021,-0.093 -0.017,-0.094 -0.011,-0.094 -0.007,-0.095 -0.003,-0.096 m 5.887977,0 V 33.430049 m 3.879976,0 v 14.680999 m -3.879976,-14.680999 0.003,-0.095 0.007,-0.095 0.011,-0.094 0.017,-0.094 0.021,-0.093 0.025,-0.092 0.03,-0.09 0.034,-0.089 0.039,-0.087 0.042,-0.085 0.047,-0.083 0.051,-0.08 0.055,-0.078 0.059,-0.075 0.062,-0.072 0.066,-0.069 0.069,-0.066 0.072,-0.062 0.075,-0.059 0.077,-0.054 0.081,-0.051 0.083,-0.047 0.085,-0.043 0.087,-0.039 0.089,-0.034 0.09,-0.03 0.092,-0.025 0.093,-0.021 0.094,-0.016 0.094,-0.012 0.095,-0.007 0.095,-0.002 0.095,0.002 0.095,0.007 0.095,0.012 0.094,0.016 0.092,0.021 0.092,0.025 0.091,0.03 0.088,0.034 0.087,0.039 0.085,0.043 0.083,0.047 0.081,0.051 0.078,0.054 0.075,0.059 0.072,0.062 0.069,0.066 0.065,0.069 0.062,0.072 0.059,0.075 0.055,0.078 0.051,0.08 0.047,0.083 0.043,0.085 0.038,0.087 0.034,0.089 0.03,0.09 0.026,0.092 0.02,0.093 0.017,0.094 0.011,0.094 0.007,0.095 0.003,0.095 m 0,14.680999 -0.003,0.096 -0.007,0.095 -0.011,0.094 -0.017,0.094 -0.02,0.093 -0.026,0.091 -0.03,0.091 -0.034,0.089 -0.038,0.087 -0.043,0.085 -0.047,0.083 -0.051,0.08 -0.055,0.078 -0.059,0.075 -0.062,0.072 -0.065,0.069 -0.069,0.066 -0.072,0.062 -0.075,0.058 -0.078,0.055 -0.081,0.051 -0.083,0.047 -0.085,0.043 -0.087,0.038 -0.088,0.035 -0.091,0.03 -0.092,0.025 -0.092,0.021 -0.094,0.016 -0.095,0.012 -0.095,0.007 -0.095,0.002 -0.095,-0.002 -0.095,-0.007 -0.094,-0.012 -0.094,-0.016 -0.093,-0.021 -0.092,-0.025 -0.09,-0.03 -0.089,-0.035 -0.087,-0.038 -0.085,-0.043 -0.083,-0.047 -0.081,-0.051 -0.077,-0.055 -0.075,-0.058 -0.072,-0.062 -0.069,-0.066 -0.066,-0.069 -0.062,-0.072 -0.059,-0.075 -0.055,-0.078 -0.051,-0.08 -0.047,-0.083 -0.042,-0.085 -0.039,-0.087 -0.034,-0.089 -0.03,-0.091 -0.025,-0.091 -0.021,-0.093 -0.017,-0.094 -0.011,-0.094 -0.007,-0.095 -0.003,-0.096 m 5.887977,0 V 33.430049 m 3.879978,0 v 14.680999 m -3.879978,-14.680999 0.003,-0.095 0.007,-0.095 0.011,-0.094 0.017,-0.094 0.021,-0.093 0.025,-0.092 0.03,-0.09 0.034,-0.089 0.039,-0.087 0.042,-0.085 0.047,-0.083 0.051,-0.08 0.055,-0.078 0.059,-0.075 0.062,-0.072 0.066,-0.069 0.069,-0.066 0.072,-0.062 0.075,-0.059 0.077,-0.054 0.081,-0.051 0.083,-0.047 0.085,-0.043 0.087,-0.039 0.089,-0.034 0.09,-0.03 0.092,-0.025 0.093,-0.021 0.094,-0.016 0.094,-0.012 0.095,-0.007 0.095,-0.002 0.095,0.002 0.095,0.007 0.095,0.012 0.094,0.016 0.092,0.021 0.092,0.025 0.091,0.03 0.088,0.034 0.087,0.039 0.085,0.043 0.083,0.047 0.081,0.051 0.078,0.054 0.075,0.059 0.072,0.062 0.069,0.066 0.065,0.069 0.062,0.072 0.059,0.075 0.055,0.078 0.051,0.08 0.047,0.083 0.043,0.085 0.038,0.087 0.034,0.089 0.03,0.09 0.026,0.092 0.02,0.093 0.017,0.094 0.011,0.094 0.007,0.095 0.003,0.095 m 0,14.680999 -0.003,0.096 -0.007,0.095 -0.011,0.094 -0.017,0.094 -0.02,0.093 -0.026,0.091 -0.03,0.091 -0.034,0.089 -0.038,0.087 -0.043,0.085 -0.047,0.083 -0.051,0.08 -0.055,0.078 -0.059,0.075 -0.062,0.072 -0.065,0.069 -0.069,0.066 -0.072,0.062 -0.075,0.058 -0.078,0.055 -0.081,0.051 -0.083,0.047 -0.085,0.043 -0.087,0.038 -0.088,0.035 -0.091,0.03 -0.092,0.025 -0.092,0.021 -0.094,0.016 -0.095,0.012 -0.095,0.007 -0.095,0.002 -0.095,-0.002 -0.095,-0.007 -0.094,-0.012 -0.094,-0.016 -0.093,-0.021 -0.092,-0.025 -0.09,-0.03 -0.089,-0.035 -0.087,-0.038 -0.085,-0.043 -0.083,-0.047 -0.081,-0.051 -0.077,-0.055 -0.075,-0.058 -0.072,-0.062 -0.069,-0.066 -0.066,-0.069 -0.062,-0.072 -0.059,-0.075 -0.055,-0.078 -0.051,-0.08 -0.047,-0.083 -0.042,-0.085 -0.039,-0.087 -0.034,-0.089 -0.03,-0.091 -0.025,-0.091 -0.021,-0.093 -0.017,-0.094 -0.011,-0.094 -0.007,-0.095 -0.003,-0.096 M 9.9926468,27.510925 v -14.681 m 3.8800002,0 v 14.681 m -3.8800002,-14.681 0.003,-0.095 0.007,-0.095 0.011,-0.094 0.017,-0.094 0.021,-0.093 0.025,-0.092 0.03,-0.09 0.034,-0.089 0.039,-0.087 0.042,-0.085 0.047,-0.083 0.051,-0.08 0.055,-0.078 0.059,-0.075 0.062,-0.072 0.066,-0.069 0.069,-0.066 0.072,-0.062 0.075,-0.059 0.077,-0.054 0.081,-0.051 0.083,-0.047 0.085,-0.043 0.087,-0.039 0.089,-0.034 0.09,-0.03 0.092,-0.025 0.093,-0.021 0.094,-0.016 0.094,-0.012 0.095,-0.007 0.095,-0.002 0.095,0.002 0.095,0.007 0.095,0.012 0.094,0.016 0.092,0.021 0.092,0.025 0.091,0.03 0.088,0.034 0.087,0.039 0.085,0.043 0.083,0.047 0.081,0.051 0.078,0.054 0.075,0.059 0.072,0.062 0.069,0.066 0.065,0.069 0.062,0.072 0.059,0.075 0.055,0.078 0.051,0.08 0.047,0.083 0.043,0.085 0.038,0.087 0.034,0.089 0.03,0.09 0.026,0.092 0.02,0.093 0.017,0.094 0.011,0.094 0.007,0.095 0.003,0.095 m 0,14.681 -0.003,0.096 -0.007,0.095 -0.011,0.094 -0.017,0.094 -0.02,0.093 -0.026,0.091 -0.03,0.091 -0.034,0.089 -0.038,0.087 -0.043,0.085 -0.047,0.083 -0.051,0.08 -0.055,0.078 -0.059,0.075 -0.062,0.072 -0.065,0.069 -0.069,0.066 -0.072,0.062 -0.075,0.058 -0.078,0.055 -0.081,0.051 -0.083,0.047 -0.085,0.043 -0.087,0.038 -0.088,0.035 -0.091,0.03 -0.092,0.025 -0.092,0.021 -0.094,0.016 -0.095,0.012 -0.095,0.007 -0.095,0.002 -0.095,-0.002 -0.095,-0.007 -0.094,-0.012 -0.094,-0.016 -0.093,-0.021 -0.092,-0.025 -0.09,-0.03 -0.089,-0.035 -0.087,-0.038 -0.085,-0.043 -0.083,-0.047 -0.081,-0.051 -0.077,-0.055 -0.075,-0.058 -0.072,-0.062 -0.069,-0.066 -0.066,-0.069 -0.062,-0.072 -0.059,-0.075 -0.055,-0.078 -0.051,-0.08 -0.047,-0.083 -0.042,-0.085 -0.039,-0.087 -0.034,-0.089 -0.03,-0.091 -0.025,-0.091 -0.021,-0.093 -0.017,-0.094 -0.011,-0.094 -0.007,-0.095 -0.003,-0.096 m 5.8880102,0 v -14.681 m 3.88,0 v 14.681 m -3.88,-14.681 0.003,-0.095 0.007,-0.095 0.011,-0.094 0.017,-0.094 0.021,-0.093 0.025,-0.092 0.03,-0.09 0.034,-0.089 0.039,-0.087 0.042,-0.085 0.047,-0.083 0.051,-0.08 0.055,-0.078 0.059,-0.075 0.062,-0.072 0.066,-0.069 0.069,-0.066 0.072,-0.062 0.075,-0.059 0.077,-0.054 0.081,-0.051 0.083,-0.047 0.085,-0.043 0.087,-0.039 0.089,-0.034 0.09,-0.03 0.092,-0.025 0.093,-0.021 0.094,-0.016 0.094,-0.012 0.095,-0.007 0.095,-0.002 0.095,0.002 0.095,0.007 0.095,0.012 0.094,0.016 0.092,0.021 0.092,0.025 0.091,0.03 0.088,0.034 0.087,0.039 0.085,0.043 0.083,0.047 0.081,0.051 0.078,0.054 0.075,0.059 0.072,0.062 0.069,0.066 0.065,0.069 0.062,0.072 0.059,0.075 0.055,0.078 0.051,0.08 0.047,0.083 0.043,0.085 0.038,0.087 0.034,0.089 0.03,0.09 0.026,0.092 0.02,0.093 0.017,0.094 0.011,0.094 0.007,0.095 0.003,0.095 m 0,14.681 -0.003,0.096 -0.007,0.095 -0.011,0.094 -0.017,0.094 -0.02,0.093 -0.026,0.091 -0.03,0.091 -0.034,0.089 -0.038,0.087 -0.043,0.085 -0.047,0.083 -0.051,0.08 -0.055,0.078 -0.059,0.075 -0.062,0.072 -0.065,0.069 -0.069,0.066 -0.072,0.062 -0.075,0.058 -0.078,0.055 -0.081,0.051 -0.083,0.047 -0.085,0.043 -0.087,0.038 -0.088,0.035 -0.091,0.03 -0.092,0.025 -0.092,0.021 -0.094,0.016 -0.095,0.012 -0.095,0.007 -0.095,0.002 -0.095,-0.002 -0.095,-0.007 -0.094,-0.012 -0.094,-0.016 -0.093,-0.021 -0.092,-0.025 -0.09,-0.03 -0.089,-0.035 -0.087,-0.038 -0.085,-0.043 -0.083,-0.047 -0.081,-0.051 -0.077,-0.055 -0.075,-0.058 -0.072,-0.062 -0.069,-0.066 -0.066,-0.069 -0.062,-0.072 -0.059,-0.075 -0.055,-0.078 -0.051,-0.08 -0.047,-0.083 -0.042,-0.085 -0.039,-0.087 -0.034,-0.089 -0.03,-0.091 -0.025,-0.091 -0.021,-0.093 -0.017,-0.094 -0.011,-0.094 -0.007,-0.095 -0.003,-0.096 m 5.88801,0 v -14.681 m 3.88,0 v 14.681 m -3.88,-14.681 0.003,-0.095 0.007,-0.095 0.011,-0.094 0.017,-0.094 0.021,-0.093 0.025,-0.092 0.03,-0.09 0.034,-0.089 0.039,-0.087 0.042,-0.085 0.047,-0.083 0.051,-0.08 0.055,-0.078 0.059,-0.075 0.062,-0.072 0.066,-0.069 0.069,-0.066 0.072,-0.062 0.075,-0.059 0.077,-0.054 0.081,-0.051 0.083,-0.047 0.085,-0.043 0.087,-0.039 0.089,-0.034 0.09,-0.03 0.092,-0.025 0.093,-0.021 0.094,-0.016 0.094,-0.012 0.095,-0.007 0.095,-0.002 0.095,0.002 0.095,0.007 0.095,0.012 0.094,0.016 0.092,0.021 0.092,0.025 0.091,0.03 0.088,0.034 0.087,0.039 0.085,0.043 0.083,0.047 0.081,0.051 0.078,0.054 0.075,0.059 0.072,0.062 0.069,0.066 0.065,0.069 0.062,0.072 0.059,0.075 0.055,0.078 0.051,0.08 0.047,0.083 0.043,0.085 0.038,0.087 0.034,0.089 0.03,0.09 0.026,0.092 0.02,0.093 0.017,0.094 0.011,0.094 0.007,0.095 0.003,0.095 m 0,14.681 -0.003,0.096 -0.007,0.095 -0.011,0.094 -0.017,0.094 -0.02,0.093 -0.026,0.091 -0.03,0.091 -0.034,0.089 -0.038,0.087 -0.043,0.085 -0.047,0.083 -0.051,0.08 -0.055,0.078 -0.059,0.075 -0.062,0.072 -0.065,0.069 -0.069,0.066 -0.072,0.062 -0.075,0.058 -0.078,0.055 -0.081,0.051 -0.083,0.047 -0.085,0.043 -0.087,0.038 -0.088,0.035 -0.091,0.03 -0.092,0.025 -0.092,0.021 -0.094,0.016 -0.095,0.012 -0.095,0.007 -0.095,0.002 -0.095,-0.002 -0.095,-0.007 -0.094,-0.012 -0.094,-0.016 -0.093,-0.021 -0.092,-0.025 -0.09,-0.03 -0.089,-0.035 -0.087,-0.038 -0.085,-0.043 -0.083,-0.047 -0.081,-0.051 -0.077,-0.055 -0.075,-0.058 -0.072,-0.062 -0.069,-0.066 -0.066,-0.069 -0.062,-0.072 -0.059,-0.075 -0.055,-0.078 -0.051,-0.08 -0.047,-0.083 -0.042,-0.085 -0.039,-0.087 -0.034,-0.089 -0.03,-0.091 -0.025,-0.091 -0.021,-0.093 -0.017,-0.094 -0.011,-0.094 -0.007,-0.095 -0.003,-0.096 m 5.88801,0 v -14.681 m 3.879998,0 v 14.681 m -3.879998,-14.681 0.003,-0.095 0.007,-0.095 0.011,-0.094 0.017,-0.094 0.021,-0.093 0.025,-0.092 0.03,-0.09 0.034,-0.089 0.039,-0.087 0.042,-0.085 0.047,-0.083 0.051,-0.08 0.055,-0.078 0.059,-0.075 0.062,-0.072 0.066,-0.069 0.069,-0.066 0.072,-0.062 0.075,-0.059 0.077,-0.054 0.081,-0.051 0.083,-0.047 0.085,-0.043 0.087,-0.039 0.089,-0.034 0.09,-0.03 0.092,-0.025 0.093,-0.021 0.094,-0.016 0.094,-0.012 0.095,-0.007 0.095,-0.002 0.095,0.002 0.095,0.007 0.095,0.012 0.094,0.016 0.092,0.021 0.092,0.025 0.091,0.03 0.088,0.034 0.087,0.039 0.085,0.043 0.083,0.047 0.081,0.051 0.078,0.054 0.075,0.059 0.072,0.062 0.069,0.066 0.065,0.069 0.062,0.072 0.059,0.075 0.055,0.078 0.051,0.08 0.047,0.083 0.043,0.085 0.038,0.087 0.034,0.089 0.03,0.09 0.026,0.092 0.02,0.093 0.017,0.094 0.011,0.094 0.007,0.095 0.003,0.095 m 0,14.681 -0.003,0.096 -0.007,0.095 -0.011,0.094 -0.017,0.094 -0.02,0.093 -0.026,0.091 -0.03,0.091 -0.034,0.089 -0.038,0.087 -0.043,0.085 -0.047,0.083 -0.051,0.08 -0.055,0.078 -0.059,0.075 -0.062,0.072 -0.065,0.069 -0.069,0.066 -0.072,0.062 -0.075,0.058 -0.078,0.055 -0.081,0.051 -0.083,0.047 -0.085,0.043 -0.087,0.038 -0.088,0.035 -0.091,0.03 -0.092,0.025 -0.092,0.021 -0.094,0.016 -0.095,0.012 -0.095,0.007 -0.095,0.002 -0.095,-0.002 -0.095,-0.007 -0.094,-0.012 -0.094,-0.016 -0.093,-0.021 -0.092,-0.025 -0.09,-0.03 -0.089,-0.035 -0.087,-0.038 -0.085,-0.043 -0.083,-0.047 -0.081,-0.051 -0.077,-0.055 -0.075,-0.058 -0.072,-0.062 -0.069,-0.066 -0.066,-0.069 -0.062,-0.072 -0.059,-0.075 -0.055,-0.078 -0.051,-0.08 -0.047,-0.083 -0.042,-0.085 -0.039,-0.087 -0.034,-0.089 -0.03,-0.091 -0.025,-0.091 -0.021,-0.093 -0.017,-0.094 -0.011,-0.094 -0.007,-0.095 -0.003,-0.096 m 5.888008,0 v -14.681 m 3.88,0 v 14.681 m -3.88,-14.681 0.003,-0.095 0.007,-0.095 0.011,-0.094 0.017,-0.094 0.021,-0.093 0.025,-0.092 0.03,-0.09 0.034,-0.089 0.039,-0.087 0.042,-0.085 0.047,-0.083 0.051,-0.08 0.055,-0.078 0.059,-0.075 0.062,-0.072 0.066,-0.069 0.069,-0.066 0.072,-0.062 0.075,-0.059 0.077,-0.054 0.081,-0.051 0.083,-0.047 0.085,-0.043 0.087,-0.039 0.089,-0.034 0.09,-0.03 0.092,-0.025 0.093,-0.021 0.094,-0.016 0.094,-0.012 0.095,-0.007 0.095,-0.002 0.095,0.002 0.095,0.007 0.095,0.012 0.094,0.016 0.092,0.021 0.092,0.025 0.091,0.03 0.088,0.034 0.087,0.039 0.085,0.043 0.083,0.047 0.081,0.051 0.078,0.054 0.075,0.059 0.072,0.062 0.069,0.066 0.065,0.069 0.062,0.072 0.059,0.075 0.055,0.078 0.051,0.08 0.047,0.083 0.043,0.085 0.038,0.087 0.034,0.089 0.03,0.09 0.026,0.092 0.02,0.093 0.017,0.094 0.011,0.094 0.007,0.095 0.003,0.095 m 0,14.681 -0.003,0.096 -0.007,0.095 -0.011,0.094 -0.017,0.094 -0.02,0.093 -0.026,0.091 -0.03,0.091 -0.034,0.089 -0.038,0.087 -0.043,0.085 -0.047,0.083 -0.051,0.08 -0.055,0.078 -0.059,0.075 -0.062,0.072 -0.065,0.069 -0.069,0.066 -0.072,0.062 -0.075,0.058 -0.078,0.055 -0.081,0.051 -0.083,0.047 -0.085,0.043 -0.087,0.038 -0.088,0.035 -0.091,0.03 -0.092,0.025 -0.092,0.021 -0.094,0.016 -0.095,0.012 -0.095,0.007 -0.095,0.002 -0.095,-0.002 -0.095,-0.007 -0.094,-0.012 -0.094,-0.016 -0.093,-0.021 -0.092,-0.025 -0.09,-0.03 -0.089,-0.035 -0.087,-0.038 -0.085,-0.043 -0.083,-0.047 -0.081,-0.051 -0.077,-0.055 -0.075,-0.058 -0.072,-0.062 -0.069,-0.066 -0.066,-0.069 -0.062,-0.072 -0.059,-0.075 -0.055,-0.078 -0.051,-0.08 -0.047,-0.083 -0.042,-0.085 -0.039,-0.087 -0.034,-0.089 -0.03,-0.091 -0.025,-0.091 -0.021,-0.093 -0.017,-0.094 -0.011,-0.094 -0.007,-0.095 -0.003,-0.096 m 5.88801,0 v -14.681 m 3.88,0 v 14.681 m -3.88,-14.681 0.003,-0.095 0.007,-0.095 0.011,-0.094 0.017,-0.094 0.021,-0.093 0.025,-0.092 0.03,-0.09 0.034,-0.089 0.039,-0.087 0.042,-0.085 0.047,-0.083 0.051,-0.08 0.055,-0.078 0.059,-0.075 0.062,-0.072 0.066,-0.069 0.069,-0.066 0.072,-0.062 0.075,-0.059 0.077,-0.054 0.081,-0.051 0.083,-0.047 0.085,-0.043 0.087,-0.039 0.089,-0.034 0.09,-0.03 0.092,-0.025 0.093,-0.021 0.094,-0.016 0.094,-0.012 0.095,-0.007 0.095,-0.002 0.095,0.002 0.095,0.007 0.095,0.012 0.094,0.016 0.092,0.021 0.092,0.025 0.091,0.03 0.088,0.034 0.087,0.039 0.085,0.043 0.083,0.047 0.081,0.051 0.078,0.054 0.075,0.059 0.072,0.062 0.069,0.066 0.065,0.069 0.062,0.072 0.059,0.075 0.055,0.078 0.051,0.08 0.047,0.083 0.043,0.085 0.038,0.087 0.034,0.089 0.03,0.09 0.026,0.092 0.02,0.093 0.017,0.094 0.011,0.094 0.007,0.095 0.003,0.095 m 0,14.681 -0.003,0.096 -0.007,0.095 -0.011,0.094 -0.017,0.094 -0.02,0.093 -0.026,0.091 -0.03,0.091 -0.034,0.089 -0.038,0.087 -0.043,0.085 -0.047,0.083 -0.051,0.08 -0.055,0.078 -0.059,0.075 -0.062,0.072 -0.065,0.069 -0.069,0.066 -0.072,0.062 -0.075,0.058 -0.078,0.055 -0.081,0.051 -0.083,0.047 -0.085,0.043 -0.087,0.038 -0.088,0.035 -0.091,0.03 -0.092,0.025 -0.092,0.021 -0.094,0.016 -0.095,0.012 -0.095,0.007 -0.095,0.002 -0.095,-0.002 -0.095,-0.007 -0.094,-0.012 -0.094,-0.016 -0.093,-0.021 -0.092,-0.025 -0.09,-0.03 -0.089,-0.035 -0.087,-0.038 -0.085,-0.043 -0.083,-0.047 -0.081,-0.051 -0.077,-0.055 -0.075,-0.058 -0.072,-0.062 -0.069,-0.066 -0.066,-0.069 -0.062,-0.072 -0.059,-0.075 -0.055,-0.078 -0.051,-0.08 -0.047,-0.083 -0.042,-0.085 -0.039,-0.087 -0.034,-0.089 -0.03,-0.091 -0.025,-0.091 -0.021,-0.093 -0.017,-0.094 -0.011,-0.094 -0.007,-0.095 -0.003,-0.096 m 5.88801,0 v -14.681 m 3.88,0 v 14.681 m -3.88,-14.681 0.003,-0.095 0.007,-0.095 0.011,-0.094 0.017,-0.094 0.021,-0.093 0.025,-0.092 0.03,-0.09 0.034,-0.089 0.039,-0.087 0.042,-0.085 0.047,-0.083 0.051,-0.08 0.055,-0.078 0.059,-0.075 0.062,-0.072 0.066,-0.069 0.069,-0.066 0.072,-0.062 0.075,-0.059 0.077,-0.054 0.081,-0.051 0.083,-0.047 0.085,-0.043 0.087,-0.039 0.089,-0.034 0.09,-0.03 0.092,-0.025 0.093,-0.021 0.094,-0.016 0.094,-0.012 0.095,-0.007 0.095,-0.002 0.095,0.002 0.095,0.007 0.095,0.012 0.094,0.016 0.092,0.021 0.092,0.025 0.091,0.03 0.088,0.034 0.087,0.039 0.085,0.043 0.083,0.047 0.081,0.051 0.078,0.054 0.075,0.059 0.072,0.062 0.069,0.066 0.065,0.069 0.062,0.072 0.059,0.075 0.055,0.078 0.051,0.08 0.047,0.083 0.043,0.085 0.038,0.087 0.034,0.089 0.03,0.09 0.026,0.092 0.02,0.093 0.017,0.094 0.011,0.094 0.007,0.095 0.003,0.095 m 0,14.681 -0.003,0.096 -0.007,0.095 -0.011,0.094 -0.017,0.094 -0.02,0.093 -0.026,0.091 -0.03,0.091 -0.034,0.089 -0.038,0.087 -0.043,0.085 -0.047,0.083 -0.051,0.08 -0.055,0.078 -0.059,0.075 -0.062,0.072 -0.065,0.069 -0.069,0.066 -0.072,0.062 -0.075,0.058 -0.078,0.055 -0.081,0.051 -0.083,0.047 -0.085,0.043 -0.087,0.038 -0.088,0.035 -0.091,0.03 -0.092,0.025 -0.092,0.021 -0.094,0.016 -0.095,0.012 -0.095,0.007 -0.095,0.002 -0.095,-0.002 -0.095,-0.007 -0.094,-0.012 -0.094,-0.016 -0.093,-0.021 -0.092,-0.025 -0.09,-0.03 -0.089,-0.035 -0.087,-0.038 -0.085,-0.043 -0.083,-0.047 -0.081,-0.051 -0.077,-0.055 -0.075,-0.058 -0.072,-0.062 -0.069,-0.066 -0.066,-0.069 -0.062,-0.072 -0.059,-0.075 -0.055,-0.078 -0.051,-0.08 -0.047,-0.083 -0.042,-0.085 -0.039,-0.087 -0.034,-0.089 -0.03,-0.091 -0.025,-0.091 -0.021,-0.093 -0.017,-0.094 -0.011,-0.094 -0.007,-0.095 -0.003,-0.096 m 5.88801,0 v -14.681 m 3.88,0 v 14.681 m -3.88,-14.681 0.003,-0.095 0.007,-0.095 0.011,-0.094 0.017,-0.094 0.021,-0.093 0.025,-0.092 0.03,-0.09 0.034,-0.089 0.039,-0.087 0.042,-0.085 0.047,-0.083 0.051,-0.08 0.055,-0.078 0.059,-0.075 0.062,-0.072 0.066,-0.069 0.069,-0.066 0.072,-0.062 0.075,-0.059 0.077,-0.054 0.081,-0.051 0.083,-0.047 0.085,-0.043 0.087,-0.039 0.089,-0.034 0.09,-0.03 0.092,-0.025 0.093,-0.021 0.094,-0.016 0.094,-0.012 0.095,-0.007 0.095,-0.002 0.095,0.002 0.095,0.007 0.095,0.012 0.094,0.016 0.092,0.021 0.092,0.025 0.091,0.03 0.088,0.034 0.087,0.039 0.085,0.043 0.083,0.047 0.081,0.051 0.078,0.054 0.075,0.059 0.072,0.062 0.069,0.066 0.065,0.069 0.062,0.072 0.059,0.075 0.055,0.078 0.051,0.08 0.047,0.083 0.043,0.085 0.038,0.087 0.034,0.089 0.03,0.09 0.026,0.092 0.02,0.093 0.017,0.094 0.011,0.094 0.007,0.095 0.003,0.095 m 0,14.681 -0.003,0.096 -0.007,0.095 -0.011,0.094 -0.017,0.094 -0.02,0.093 -0.026,0.091 -0.03,0.091 -0.034,0.089 -0.038,0.087 -0.043,0.085 -0.047,0.083 -0.051,0.08 -0.055,0.078 -0.059,0.075 -0.062,0.072 -0.065,0.069 -0.069,0.066 -0.072,0.062 -0.075,0.058 -0.078,0.055 -0.081,0.051 -0.083,0.047 -0.085,0.043 -0.087,0.038 -0.088,0.035 -0.091,0.03 -0.092,0.025 -0.092,0.021 -0.094,0.016 -0.095,0.012 -0.095,0.007 -0.095,0.002 -0.095,-0.002 -0.095,-0.007 -0.094,-0.012 -0.094,-0.016 -0.093,-0.021 -0.092,-0.025 -0.09,-0.03 -0.089,-0.035 -0.087,-0.038 -0.085,-0.043 -0.083,-0.047 -0.081,-0.051 -0.077,-0.055 -0.075,-0.058 -0.072,-0.062 -0.069,-0.066 -0.066,-0.069 -0.062,-0.072 -0.059,-0.075 -0.055,-0.078 -0.051,-0.08 -0.047,-0.083 -0.042,-0.085 -0.039,-0.087 -0.034,-0.089 -0.03,-0.091 -0.025,-0.091 -0.021,-0.093 -0.017,-0.094 -0.011,-0.094 -0.007,-0.095 -0.003,-0.096 m 5.88801,0 v -14.681 m 3.88,0 v 14.681 m -3.88,-14.681 0.003,-0.095 0.007,-0.095 0.011,-0.094 0.017,-0.094 0.021,-0.093 0.025,-0.092 0.03,-0.09 0.034,-0.089 0.039,-0.087 0.042,-0.085 0.047,-0.083 0.051,-0.08 0.055,-0.078 0.059,-0.075 0.062,-0.072 0.066,-0.069 0.069,-0.066 0.072,-0.062 0.075,-0.059 0.077,-0.054 0.081,-0.051 0.083,-0.047 0.085,-0.043 0.087,-0.039 0.089,-0.034 0.09,-0.03 0.092,-0.025 0.093,-0.021 0.094,-0.016 0.094,-0.012 0.095,-0.007 0.095,-0.002 0.095,0.002 0.095,0.007 0.095,0.012 0.094,0.016 0.092,0.021 0.092,0.025 0.091,0.03 0.088,0.034 0.087,0.039 0.085,0.043 0.083,0.047 0.081,0.051 0.078,0.054 0.075,0.059 0.072,0.062 0.069,0.066 0.065,0.069 0.062,0.072 0.059,0.075 0.055,0.078 0.051,0.08 0.047,0.083 0.043,0.085 0.038,0.087 0.034,0.089 0.03,0.09 0.026,0.092 0.02,0.093 0.017,0.094 0.011,0.094 0.007,0.095 0.003,0.095 m 0,14.681 -0.003,0.096 -0.007,0.095 -0.011,0.094 -0.017,0.094 -0.02,0.093 -0.026,0.091 -0.03,0.091 -0.034,0.089 -0.038,0.087 -0.043,0.085 -0.047,0.083 -0.051,0.08 -0.055,0.078 -0.059,0.075 -0.062,0.072 -0.065,0.069 -0.069,0.066 -0.072,0.062 -0.075,0.058 -0.078,0.055 -0.081,0.051 -0.083,0.047 -0.085,0.043 -0.087,0.038 -0.088,0.035 -0.091,0.03 -0.092,0.025 -0.092,0.021 -0.094,0.016 -0.095,0.012 -0.095,0.007 -0.095,0.002 -0.095,-0.002 -0.095,-0.007 -0.094,-0.012 -0.094,-0.016 -0.093,-0.021 -0.092,-0.025 -0.09,-0.03 -0.089,-0.035 -0.087,-0.038 -0.085,-0.043 -0.083,-0.047 -0.081,-0.051 -0.077,-0.055 -0.075,-0.058 -0.072,-0.062 -0.069,-0.066 -0.066,-0.069 -0.062,-0.072 -0.059,-0.075 -0.055,-0.078 -0.051,-0.08 -0.047,-0.083 -0.042,-0.085 -0.039,-0.087 -0.034,-0.089 -0.03,-0.091 -0.025,-0.091 -0.021,-0.093 -0.017,-0.094 -0.011,-0.094 -0.007,-0.095 -0.003,-0.096 m 5.88801,0 v -14.681 m 3.88,0 v 14.681 m -3.88,-14.681 0.003,-0.095 0.007,-0.095 0.011,-0.094 0.017,-0.094 0.021,-0.093 0.025,-0.092 0.03,-0.09 0.034,-0.089 0.039,-0.087 0.042,-0.085 0.047,-0.083 0.051,-0.08 0.055,-0.078 0.059,-0.075 0.062,-0.072 0.066,-0.069 0.069,-0.066 0.072,-0.062 0.075,-0.059 0.077,-0.054 0.081,-0.051 0.083,-0.047 0.085,-0.043 0.087,-0.039 0.089,-0.034 0.09,-0.03 0.092,-0.025 0.093,-0.021 0.094,-0.016 0.094,-0.012 0.095,-0.007 0.095,-0.002 0.095,0.002 0.095,0.007 0.095,0.012 0.094,0.016 0.092,0.021 0.092,0.025 0.091,0.03 0.088,0.034 0.087,0.039 0.085,0.043 0.083,0.047 0.081,0.051 0.078,0.054 0.075,0.059 0.072,0.062 0.069,0.066 0.065,0.069 0.062,0.072 0.059,0.075 0.055,0.078 0.051,0.08 0.047,0.083 0.043,0.085 0.038,0.087 0.034,0.089 0.03,0.09 0.026,0.092 0.02,0.093 0.017,0.094 0.011,0.094 0.007,0.095 0.003,0.095 m 0,14.681 -0.003,0.096 -0.007,0.095 -0.011,0.094 -0.017,0.094 -0.02,0.093 -0.026,0.091 -0.03,0.091 -0.034,0.089 -0.038,0.087 -0.043,0.085 -0.047,0.083 -0.051,0.08 -0.055,0.078 -0.059,0.075 -0.062,0.072 -0.065,0.069 -0.069,0.066 -0.072,0.062 -0.075,0.058 -0.078,0.055 -0.081,0.051 -0.083,0.047 -0.085,0.043 -0.087,0.038 -0.088,0.035 -0.091,0.03 -0.092,0.025 -0.092,0.021 -0.094,0.016 -0.095,0.012 -0.095,0.007 -0.095,0.002 -0.095,-0.002 -0.095,-0.007 -0.094,-0.012 -0.094,-0.016 -0.093,-0.021 -0.092,-0.025 -0.09,-0.03 -0.089,-0.035 -0.087,-0.038 -0.085,-0.043 -0.083,-0.047 -0.081,-0.051 -0.077,-0.055 -0.075,-0.058 -0.072,-0.062 -0.069,-0.066 -0.066,-0.069 -0.062,-0.072 -0.059,-0.075 -0.055,-0.078 -0.051,-0.08 -0.047,-0.083 -0.042,-0.085 -0.039,-0.087 -0.034,-0.089 -0.03,-0.091 -0.025,-0.091 -0.021,-0.093 -0.017,-0.094 -0.011,-0.094 -0.007,-0.095 -0.003,-0.096" />
  </g>
</svg>
