<?xml version="1.0" encoding="UTF-8" standalone="no"?>
<svg
   version="1.1"
   width="32.869217cm"
   height="9.5370026cm"
   viewBox="0 0 3.2869217e+08 95370023"
   id="svg5726"
   sodipodi:docname="plate-foam.svg"
   inkscape:version="1.2 (dc2aedaf03, 2022-05-15)"
   inkscape:export-filename="..\case\plate-foam.svg"
   inkscape:export-xdpi="96"
   inkscape:export-ydpi="96"
   xmlns:inkscape="http://www.inkscape.org/namespaces/inkscape"
   xmlns:sodipodi="http://sodipodi.sourceforge.net/DTD/sodipodi-0.dtd"
   xmlns="http://www.w3.org/2000/svg"
   xmlns:svg="http://www.w3.org/2000/svg"
   xmlns:rdf="http://www.w3.org/1999/02/22-rdf-syntax-ns#"
   xmlns:cc="http://creativecommons.org/ns#"
   xmlns:dc="http://purl.org/dc/elements/1.1/">
  <defs
     id="defs5730">
    <inkscape:path-effect
       effect="fillet_chamfer"
       id="path-effect417"
       is_visible="true"
       lpeversion="1"
       nodesatellites_param="F,0,0,1,0,0,0,1 @ F,0,0,1,0,0,0,1 @ F,0,0,1,0,0,0,1 @ F,0,0,1,0,0,0,1 @ F,0,0,1,0,0,0,1 @ F,0,0,1,0,0,0,1 @ F,0,0,1,0,0,0,1 @ F,0,0,1,0,0,0,1 @ F,0,0,1,0,0,0,1 @ F,0,0,1,0,0,0,1 @ F,0,0,1,0,0,0,1 @ F,0,0,1,0,0,0,1 @ F,0,0,1,0,0,0,1 @ F,0,0,1,0,0,0,1 @ F,0,0,1,0,0,0,1 @ F,0,0,1,0,0,0,1 @ F,0,0,1,0,0,0,1 @ F,0,0,1,0,0,0,1 @ F,0,0,1,0,0,0,1 @ F,0,0,1,0,0,0,1 | F,0,0,1,0,0,0,1 @ F,0,0,1,0,0,0,1 @ F,0,0,1,0,0,0,1 @ F,0,0,1,0,0,0,1 | F,0,0,1,0,0,0,1 @ F,0,0,1,0,0,0,1 @ F,0,0,1,0,0,0,1 @ F,0,0,1,0,0,0,1 | F,0,0,1,0,0,0,1 @ F,0,0,1,0,0,0,1 @ F,0,0,1,0,0,0,1 @ F,0,0,1,0,0,0,1 | F,0,0,1,0,0,0,1 @ F,0,0,1,0,0,0,1 @ F,0,0,1,0,0,0,1 @ F,0,0,1,0,0,0,1 | F,0,0,1,0,0,0,1 @ F,0,0,1,0,0,0,1 @ F,0,0,1,0,0,0,1 @ F,0,0,1,0,0,0,1 | F,0,0,1,0,0,0,1 @ F,0,0,1,0,0,0,1 @ F,0,0,1,0,0,0,1 @ F,0,0,1,0,0,0,1 | F,0,0,1,0,0,0,1 @ F,0,0,1,0,0,0,1 @ F,0,0,1,0,0,0,1 @ F,0,0,1,0,0,0,1 | F,0,0,1,0,0,0,1 @ F,0,0,1,0,0,0,1 @ F,0,0,1,0,0,0,1 @ F,0,0,1,0,0,0,1 | F,0,0,1,0,0,0,1 @ F,0,0,1,0,0,0,1 @ F,0,0,1,0,0,0,1 @ F,0,0,1,0,0,0,1 | F,0,0,1,0,0,0,1 @ F,0,0,1,0,0,0,1 @ F,0,0,1,0,0,0,1 @ F,0,0,1,0,0,0,1 | F,0,0,1,0,0,0,1 @ F,0,0,1,0,0,0,1 @ F,0,0,1,0,0,0,1 @ F,0,0,1,0,0,0,1 | F,0,0,1,0,0,0,1 @ F,0,0,1,0,0,0,1 @ F,0,0,1,0,0,0,1 @ F,0,0,1,0,0,0,1 | F,0,0,1,0,0,0,1 @ F,0,0,1,0,0,0,1 @ F,0,0,1,0,0,0,1 @ F,0,0,1,0,0,0,1 | F,0,0,1,0,0,0,1 @ F,0,0,1,0,0,0,1 @ F,0,0,1,0,0,0,1 @ F,0,0,1,0,0,0,1 | F,0,0,1,0,0,0,1 @ F,0,0,1,0,0,0,1 @ F,0,0,1,0,0,0,1 @ F,0,0,1,0,0,0,1 | F,0,0,1,0,0,0,1 @ F,0,0,1,0,0,0,1 @ F,0,0,1,0,0,0,1 @ F,0,0,1,0,0,0,1 | F,0,0,1,0,0,0,1 @ F,0,0,1,0,0,0,1 @ F,0,0,1,0,0,0,1 @ F,0,0,1,0,0,0,1 | F,0,0,1,0,0,0,1 @ F,0,0,1,0,0,0,1 @ F,0,0,1,0,0,0,1 @ F,0,0,1,0,0,0,1 | F,0,0,1,0,0,0,1 @ F,0,0,1,0,0,0,1 @ F,0,0,1,0,0,0,1 @ F,0,0,1,0,0,0,1 | F,0,0,1,0,0,0,1 @ F,0,0,1,0,0,0,1 @ F,0,0,1,0,0,0,1 @ F,0,0,1,0,0,0,1 | F,0,0,1,0,0,0,1 @ F,0,0,1,0,0,0,1 @ F,0,0,1,0,0,0,1 @ F,0,0,1,0,0,0,1 | F,0,0,1,0,0,0,1 @ F,0,0,1,0,0,0,1 @ F,0,0,1,0,0,0,1 @ F,0,0,1,0,0,0,1 | F,0,0,1,0,0,0,1 @ F,0,0,1,0,0,0,1 @ F,0,0,1,0,0,0,1 @ F,0,0,1,0,0,0,1 | F,0,0,1,0,0,0,1 @ F,0,0,1,0,0,0,1 @ F,0,0,1,0,0,0,1 @ F,0,0,1,0,0,0,1 | F,0,0,1,0,0,0,1 @ F,0,0,1,0,0,0,1 @ F,0,0,1,0,0,0,1 @ F,0,0,1,0,0,0,1 | F,0,0,1,0,0,0,1 @ F,0,0,1,0,0,0,1 @ F,0,0,1,0,0,0,1 @ F,0,0,1,0,0,0,1 | F,0,0,1,0,0,0,1 @ F,0,0,1,0,0,0,1 @ F,0,0,1,0,0,0,1 @ F,0,0,1,0,0,0,1 | F,0,0,1,0,0,0,1 @ F,0,0,1,0,0,0,1 @ F,0,0,1,0,0,0,1 @ F,0,0,1,0,0,0,1 | F,0,0,1,0,0,0,1 @ F,0,0,1,0,0,0,1 @ F,0,0,1,0,0,0,1 @ F,0,0,1,0,0,0,1 | F,0,0,1,0,0,0,1 @ F,0,0,1,0,0,0,1 @ F,0,0,1,0,0,0,1 @ F,0,0,1,0,0,0,1 | F,0,0,1,0,0,0,1 @ F,0,0,1,0,0,0,1 @ F,0,0,1,0,0,0,1 @ F,0,0,1,0,0,0,1 | F,0,0,1,0,0,0,1 @ F,0,0,1,0,0,0,1 @ F,0,0,1,0,0,0,1 @ F,0,0,1,0,0,0,1 | F,0,0,1,0,0,0,1 @ F,0,0,1,0,0,0,1 @ F,0,0,1,0,0,0,1 @ F,0,0,1,0,0,0,1 | F,0,0,1,0,0,0,1 @ F,0,0,1,0,0,0,1 @ F,0,0,1,0,0,0,1 @ F,0,0,1,0,0,0,1 | F,0,0,1,0,0,0,1 @ F,0,0,1,0,0,0,1 @ F,0,0,1,0,0,0,1 @ F,0,0,1,0,0,0,1 | F,0,0,1,0,0,0,1 @ F,0,0,1,0,0,0,1 @ F,0,0,1,0,0,0,1 @ F,0,0,1,0,0,0,1 | F,0,0,1,0,0,0,1 @ F,0,0,1,0,0,0,1 @ F,0,0,1,0,0,0,1 @ F,0,0,1,0,0,0,1 | F,0,0,1,0,0,0,1 @ F,0,0,1,0,0,0,1 @ F,0,0,1,0,0,0,1 @ F,0,0,1,0,0,0,1 | F,0,0,1,0,0,0,1 @ F,0,0,1,0,0,0,1 @ F,0,0,1,0,0,0,1 @ F,0,0,1,0,0,0,1 | F,0,0,1,0,0,0,1 @ F,0,0,1,0,0,0,1 @ F,0,0,1,0,0,0,1 @ F,0,0,1,0,0,0,1 | F,0,0,1,0,0,0,1 @ F,0,0,1,0,0,0,1 @ F,0,0,1,0,0,0,1 @ F,0,0,1,0,0,0,1 | F,0,0,1,0,0,0,1 @ F,0,0,1,0,0,0,1 @ F,0,0,1,0,0,0,1 @ F,0,0,1,0,0,0,1 | F,0,0,1,0,0,0,1 @ F,0,0,1,0,0,0,1 @ F,0,0,1,0,0,0,1 @ F,0,0,1,0,0,0,1 | F,0,0,1,0,0,0,1 @ F,0,0,1,0,0,0,1 @ F,0,0,1,0,0,0,1 @ F,0,0,1,0,0,0,1 | F,0,0,1,0,0,0,1 @ F,0,0,1,0,0,0,1 @ F,0,0,1,0,0,0,1 @ F,0,0,1,0,0,0,1 | F,0,0,1,0,0,0,1 @ F,0,0,1,0,0,0,1 @ F,0,0,1,0,0,0,1 @ F,0,0,1,0,0,0,1 | F,0,0,1,0,0,0,1 @ F,0,0,1,0,0,0,1 @ F,0,0,1,0,0,0,1 @ F,0,0,1,0,0,0,1 | F,0,0,1,0,0,0,1 @ F,0,0,1,0,0,0,1 @ F,0,0,1,0,0,0,1 @ F,0,0,1,0,0,0,1 @ F,0,0,1,0,0,0,1 @ F,0,0,1,0,0,0,1 @ F,0,0,1,0,0,0,1 @ F,0,0,1,0,0,0,1 @ F,0,0,1,0,0,0,1 @ F,0,0,1,0,0,0,1 @ F,0,0,1,0,0,0,1 @ F,0,0,1,0,0,0,1 @ F,0,0,1,0,0,0,1 @ F,0,0,1,0,0,0,1 @ F,0,0,1,0,0,0,1 @ F,0,0,1,0,0,0,1 @ F,0,0,1,0,0,0,1 @ F,0,0,1,0,0,0,1 @ F,0,0,1,0,0,0,1 @ F,0,0,1,0,661458.33,0,1 @ F,0,0,1,0,661458.33,0,1 @ F,0,0,1,0,0,0,1 @ F,0,0,1,0,0,0,1 @ F,0,0,1,0,0,0,1 @ F,0,0,1,0,0,0,1 @ F,0,0,1,0,0,0,1 @ F,0,0,1,0,0,0,1 @ F,0,0,1,0,0,0,1 @ F,0,0,1,0,0,0,1 @ F,0,0,1,0,0,0,1 @ F,0,0,1,0,0,0,1 @ F,0,0,1,0,0,0,1 @ F,0,0,1,0,0,0,1 @ F,0,0,1,0,0,0,1 @ F,0,0,1,0,0,0,1 @ F,0,0,1,0,0,0,1 @ F,0,0,1,0,0,0,1 @ F,0,0,1,0,0,0,1 @ F,0,0,1,0,0,0,1 @ F,0,0,1,0,0,0,1 @ F,0,0,1,0,0,0,1 @ F,0,0,1,0,0,0,1 @ F,0,0,1,0,0,0,1 @ F,0,0,1,0,0,0,1 @ F,0,0,1,0,0,0,1 @ F,0,0,1,0,0,0,1 @ F,0,0,1,0,0,0,1 @ F,0,0,1,0,0,0,1 @ F,0,0,1,0,0,0,1 @ F,0,0,1,0,0,0,1 @ F,0,0,1,0,0,0,1 @ F,0,0,1,0,0,0,1 @ F,0,0,1,0,0,0,1 @ F,0,1,1,0,661458.33,0,1 @ F,0,0,1,0,0,0,1 @ F,0,0,1,0,0,0,1 @ F,0,0,1,0,0,0,1 @ F,0,0,1,0,0,0,1 @ F,0,0,1,0,661458.33,0,1 @ F,0,0,1,0,0,0,1 @ F,0,0,1,0,0,0,1 @ F,0,0,1,0,0,0,1 @ F,0,0,1,0,0,0,1 @ F,0,0,1,0,0,0,1 @ F,0,0,1,0,0,0,1 @ F,0,0,1,0,0,0,1 @ F,0,0,1,0,0,0,1 @ F,0,0,1,0,0,0,1 @ F,0,0,1,0,0,0,1 @ F,0,0,1,0,0,0,1 @ F,0,0,1,0,0,0,1 @ F,0,0,1,0,0,0,1 @ F,0,0,1,0,0,0,1 @ F,0,0,1,0,0,0,1 @ F,0,0,1,0,0,0,1 @ F,0,0,1,0,0,0,1 @ F,0,0,1,0,0,0,1 @ F,0,0,1,0,0,0,1 @ F,0,0,1,0,0,0,1 @ F,0,0,1,0,0,0,1 @ F,0,0,1,0,0,0,1 @ F,0,0,1,0,0,0,1 @ F,0,0,1,0,0,0,1 @ F,0,0,1,0,0,0,1 @ F,0,0,1,0,0,0,1 @ F,0,0,1,0,0,0,1"
       unit="px"
       method="auto"
       mode="F"
       radius="25000000"
       chamfer_steps="1"
       flexible="false"
       use_knot_distance="true"
       apply_no_radius="true"
       apply_with_radius="true"
       only_selected="true"
       hide_knots="false" />
  </defs>
  <sodipodi:namedview
     id="namedview5728"
     pagecolor="#ffffff"
     bordercolor="#000000"
     borderopacity="0.25"
     inkscape:showpageshadow="2"
     inkscape:pageopacity="0.0"
     inkscape:pagecheckerboard="0"
     inkscape:deskcolor="#d1d1d1"
     inkscape:document-units="cm"
     showgrid="false"
     inkscape:zoom="1"
     inkscape:cx="666.5"
     inkscape:cy="212"
     inkscape:window-width="1920"
     inkscape:window-height="1009"
     inkscape:window-x="-8"
     inkscape:window-y="-8"
     inkscape:window-maximized="1"
     inkscape:current-layer="g414" />
  <title
     id="title2">SVG Picture created as dynamis-User_Drawings.svg date 2022/06/04 22:09:15 </title>
  <desc
     id="desc4">Picture generated by PCBNEW </desc>
  <g
     inkscape:groupmode="layer"
     id="g414"
     inkscape:label="plate-foam"
     style="display:inline"
     transform="translate(-132825260,-201225060)">
    <path
       id="path16846"
       style="fill:none;stroke:#000000;stroke-width:100000;stroke-dasharray:none"
       d="m 137781250,279999940 v 14000190 h 13999660 v -14000190 h 9812840 v 14000190 h 14000180 v -14000190 h -5877320 l 27550,-5049810 h 3469040 v -14000180 h -3496590 v -2072320 h -30864870 v 2072320 h -1070490 v 14000180 h 1086760 l -16270,5049810 z m -2381250,-76199990 h 14000180 v 14000180 h -14000180 z m 19050000,0 h 14000180 v 14000180 h -14000180 z m 19050000,0 h 14000180 v 14000180 h -14000180 z m 19050000,0 h 14000180 v 14000180 h -14000180 z m 19050000,0 h 14000180 v 14000180 h -14000180 z m 19050000,0 h 14000180 v 14000180 h -14000180 z m 19050000,0 h 14000180 v 14000180 h -14000180 z m 19050000,0 h 14000180 v 14000180 h -14000180 z m 19050000,0 h 14000180 v 14000180 h -14000180 z m 19050000,0 h 14000180 v 14000180 h -14000180 z m 19050000,0 h 14000180 v 14000180 h -14000180 z m 19050000,0 h 14000180 v 14000180 h -14000180 z m 19050000,0 h 14000180 v 14000180 h -14000180 z m -223836980,19050000 h 14000180 v 14000180 h -14000180 z m 23811980,0 h 14000180 v 14000180 h -14000180 z m 19050000,0 h 14000180 v 14000180 h -14000180 z m 19050000,0 h 14000180 v 14000180 h -14000180 z m 19050000,0 h 14000180 v 14000180 h -14000180 z m 19050000,0 h 14000180 v 14000180 h -14000180 z m 19050000,0 h 14000180 v 14000180 h -14000180 z m 19050000,0 h 14000180 v 14000180 h -14000180 z m 19050000,0 h 14000180 v 14000180 h -14000180 z m 19050000,0 h 14000180 v 14000180 h -14000180 z m 19050000,0 h 14000180 v 14000180 h -14000180 z m 19050000,0 h 14000180 v 14000180 h -14000180 z m -216693750,19050000 h 18762680 v 14000180 h -18762680 z m 30956770,0 h 14000180 v 14000180 h -14000180 z m 19050000,0 h 14000180 v 14000180 h -14000180 z m 19050000,0 h 14000180 v 14000180 h -14000180 z m 19050000,0 h 14000180 v 14000180 h -14000180 z m 19050000,0 h 14000180 v 14000180 h -14000180 z m 19050000,0 h 14000180 v 14000180 h -14000180 z m 19050000,0 h 14000180 v 14000180 h -14000180 z m 19050000,0 h 14000180 v 14000180 h -14000180 z m 19050000,0 h 14000180 v 14000180 h -14000180 z m 19050000,0 h 14000180 v 14000180 h -14000180 z m 19050000,0 h 14000170 v 14000180 h -14000170 z m -180975000,19050000 h 14000180 v 14000180 h -14000180 z m 152400000,0 h 14000180 v 14000180 h -14000180 z m 19050000,0 h 14000170 v 14000180 h -14000170 z m 76200000,0 h 14000170 v 14000180 h -14000170 z m 19049990,0 h 14000180 v 14000180 h -14000180 z m -259556760,19050000 h 13999660 v 14000180 h -13999660 z m 142875000,0 h 13999660 v 14000180 h -13999660 z m 23812500,0 h 14000180 v 14000180 h -14000180 z m 73819270,0 h 14000170 v 14000180 h -14000170 z m 19049990,0 h 14000180 v 14000180 h -14000180 z m -67970010,-5049820 h -1086750 v -14000180 h 1106130 v -2524910 l 4801710,-38490 v -2486420 h -3526070 v -14000180 h 3468000 l 58070,-5049820 h -8289080 v -14000180 l 10617840,-530 -6090,-5049370 h -1086750 v -14000180 l 1092840,80 v -2516830 l -250606300,-8060 a 661268.35,661268.35 134.99361 0 0 -661290,661440 l 23950,93896070 a 661872.59,661872.59 45.00332 0 0 661630,661710 l 76753860,28470 v -21572610 l -13001680,-10 v -14000180 h 14000180 v 14000180 h 5049820 v -14000180 h 14000180 v 14000180 h 5049820 v -14000180 h 14000180 v 14000180 h 5049820 v -14000180 h 14000180 v 14000180 h 5049820 v -14000180 h 14000180 v 14000180 h 5049820 v -14000180 h 14000180 v 14000180 h 5049820 v -14000180 h 14000180 v 14000180 l -8277970,10 v 21572610 l 143470740,22340 a 661355.36,661355.36 135.00446 0 0 661460,-661360 v -42088900 h -38602810 l 2590,-39104590 h 38600220 v -12753740 a 661247.2,661247.2 44.990855 0 0 -661460,-661250 l -45793050,14620 v 2510090 h 1087260 v 14000170 h -1087260 l -6080,5049380 -3668630,530 v 1087270 l 4436740,-19660 v 30860660 h -3096000 v 3608340 l -4804790,-20320 -20,2583620 h 8226040 v 14000180 h -8231020 v 5049820 h 12994030 v 14000180 h -14000170 v -14000180 h -16957110 v 14000180 h -13999660 v -14000180 h 1086750 z"
       inkscape:path-effect="#path-effect417"
       inkscape:original-d="m 137781250,279999940 v 14000190 h 13999660 v -14000190 h 9812840 v 14000190 h 14000180 v -14000190 h -5877320 l 27550,-5049810 h 3469040 v -14000180 h -3496590 v -2072320 h -30864870 v 2072320 h -1070490 v 14000180 h 1086760 l -16270,5049810 z m -2381250,-76199990 h 14000180 v 14000180 h -14000180 z m 19050000,0 h 14000180 v 14000180 h -14000180 z m 19050000,0 h 14000180 v 14000180 h -14000180 z m 19050000,0 h 14000180 v 14000180 h -14000180 z m 19050000,0 h 14000180 v 14000180 h -14000180 z m 19050000,0 h 14000180 v 14000180 h -14000180 z m 19050000,0 h 14000180 v 14000180 h -14000180 z m 19050000,0 h 14000180 v 14000180 h -14000180 z m 19050000,0 h 14000180 v 14000180 h -14000180 z m 19050000,0 h 14000180 v 14000180 h -14000180 z m 19050000,0 h 14000180 v 14000180 h -14000180 z m 19050000,0 h 14000180 v 14000180 h -14000180 z m 19050000,0 h 14000180 v 14000180 h -14000180 z m -223836980,19050000 h 14000180 v 14000180 h -14000180 z m 23811980,0 h 14000180 v 14000180 h -14000180 z m 19050000,0 h 14000180 v 14000180 h -14000180 z m 19050000,0 h 14000180 v 14000180 h -14000180 z m 19050000,0 h 14000180 v 14000180 h -14000180 z m 19050000,0 h 14000180 v 14000180 h -14000180 z m 19050000,0 h 14000180 v 14000180 h -14000180 z m 19050000,0 h 14000180 v 14000180 h -14000180 z m 19050000,0 h 14000180 v 14000180 h -14000180 z m 19050000,0 h 14000180 v 14000180 h -14000180 z m 19050000,0 h 14000180 v 14000180 h -14000180 z m 19050000,0 h 14000180 v 14000180 h -14000180 z m -216693750,19050000 h 18762680 v 14000180 h -18762680 z m 30956770,0 h 14000180 v 14000180 h -14000180 z m 19050000,0 h 14000180 v 14000180 h -14000180 z m 19050000,0 h 14000180 v 14000180 h -14000180 z m 19050000,0 h 14000180 v 14000180 h -14000180 z m 19050000,0 h 14000180 v 14000180 h -14000180 z m 19050000,0 h 14000180 v 14000180 h -14000180 z m 19050000,0 h 14000180 v 14000180 h -14000180 z m 19050000,0 h 14000180 v 14000180 h -14000180 z m 19050000,0 h 14000180 v 14000180 h -14000180 z m 19050000,0 h 14000180 v 14000180 h -14000180 z m 19050000,0 h 14000170 v 14000180 h -14000170 z m -180975000,19050000 h 14000180 v 14000180 h -14000180 z m 152400000,0 h 14000180 v 14000180 h -14000180 z m 19050000,0 h 14000170 v 14000180 h -14000170 z m 76200000,0 h 14000170 v 14000180 h -14000170 z m 19049990,0 h 14000180 v 14000180 h -14000180 z m -259556760,19050000 h 13999660 v 14000180 h -13999660 z m 142875000,0 h 13999660 v 14000180 h -13999660 z m 23812500,0 h 14000180 v 14000180 h -14000180 z m 73819270,0 h 14000170 v 14000180 h -14000170 z m 19049990,0 h 14000180 v 14000180 h -14000180 z m -67970010,-5049820 h -1086750 v -14000180 h 1106130 v -2524910 l 4801710,-38490 v -2486420 h -3526070 v -14000180 h 3468000 l 58070,-5049820 h -8289080 v -14000180 l 10617840,-530 -6090,-5049370 h -1086750 v -14000180 l 1092840,80 v -2516830 l -251267760,-8080 24290,95218990 77415320,28720 v -21572610 l -13001680,-10 v -14000180 h 14000180 v 14000180 h 5049820 v -14000180 h 14000180 v 14000180 h 5049820 v -14000180 h 14000180 v 14000180 h 5049820 v -14000180 h 14000180 v 14000180 h 5049820 v -14000180 h 14000180 v 14000180 h 5049820 v -14000180 h 14000180 v 14000180 h 5049820 v -14000180 h 14000180 v 14000180 l -8277970,10 v 21572610 l 144132200,22440 v -42750360 h -38602810 l 2590,-39104590 h 38600220 v -13415200 l -46454510,14830 v 2510090 h 1087260 v 14000170 h -1087260 l -6080,5049380 -3668630,530 v 1087270 l 4436740,-19660 v 30860660 h -3096000 v 3608340 l -4804790,-20320 -20,2583620 h 8226040 v 14000180 h -8231020 v 5049820 h 12994030 v 14000180 h -14000170 v -14000180 h -16957110 v 14000180 h -13999660 v -14000180 h 1086750 z" />
  </g>
  <metadata
     id="metadata1614">
    <rdf:RDF>
      <cc:Work
         rdf:about="">
        <dc:title>SVG Picture created as dynamis-User_Drawings.svg date 2022/06/04 22:09:15 </dc:title>
      </cc:Work>
    </rdf:RDF>
  </metadata>
</svg>
