%TF.GenerationSoftware,KiCad,Pcbnew,(6.0.5)*%
%TF.CreationDate,2023-05-27T04:40:02+09:00*%
%TF.ProjectId,sandwitch,73616e64-7769-4746-9368-2e6b69636164,rev?*%
%TF.SameCoordinates,Original*%
%TF.FileFunction,Soldermask,Bot*%
%TF.FilePolarity,Negative*%
%FSLAX46Y46*%
G04 Gerber Fmt 4.6, Leading zero omitted, Abs format (unit mm)*
G04 Created by KiCad (PCBNEW (6.0.5)) date 2023-05-27 04:40:02*
%MOMM*%
%LPD*%
G01*
G04 APERTURE LIST*
G04 APERTURE END LIST*
%TO.C,LOGO01*%
G36*
X448347875Y-181302188D02*
G01*
X447760642Y-182158622D01*
X447277935Y-182829856D01*
X446937612Y-183263316D01*
X446777528Y-183406429D01*
X446630265Y-183243088D01*
X446296152Y-182789569D01*
X445816306Y-182101405D01*
X445229019Y-181233569D01*
X444572584Y-180241032D01*
X444472060Y-180087401D01*
X447003200Y-180087401D01*
X447071611Y-180127197D01*
X447439459Y-180178093D01*
X448019200Y-180198000D01*
X449035200Y-180198000D01*
X449035200Y-177292593D01*
X448019200Y-178634698D01*
X447858719Y-178848077D01*
X447422136Y-179444657D01*
X447117611Y-179885436D01*
X447003200Y-180087401D01*
X444472060Y-180087401D01*
X442550057Y-177150000D01*
X446800000Y-177150000D01*
X447816000Y-177150000D01*
X448181626Y-177141670D01*
X448649141Y-177096893D01*
X448832000Y-177026325D01*
X448760148Y-176884324D01*
X448506190Y-176496119D01*
X448134684Y-175963298D01*
X447715090Y-175381830D01*
X447316872Y-174847679D01*
X447009491Y-174456814D01*
X446862410Y-174305200D01*
X446859937Y-174306310D01*
X446829646Y-174518406D01*
X446808164Y-175026441D01*
X446800000Y-175727600D01*
X446800000Y-177150000D01*
X442550057Y-177150000D01*
X442539892Y-177134465D01*
X443501546Y-175685311D01*
X444463200Y-174236158D01*
X444564800Y-175609960D01*
X444666400Y-176983761D01*
X445631600Y-175666555D01*
X445761556Y-175488081D01*
X446186986Y-174885944D01*
X446484698Y-174436334D01*
X446596800Y-174225674D01*
X446529587Y-174181460D01*
X446163394Y-174124347D01*
X445585071Y-174101999D01*
X444573342Y-174101999D01*
X445635871Y-172426622D01*
X446698400Y-170751244D01*
X446757418Y-172426622D01*
X446816436Y-174101999D01*
X447976618Y-174101527D01*
X449136800Y-174101054D01*
X449070337Y-175614364D01*
X449008325Y-177026325D01*
X449003874Y-177127675D01*
X449999356Y-177189637D01*
X450994838Y-177251600D01*
X450968152Y-177292593D01*
X448972309Y-180358429D01*
X448347875Y-181302188D01*
G37*
%TD*%
M02*
