%TF.GenerationSoftware,KiCad,Pcbnew,(6.0.5)*%
%TF.CreationDate,2022-10-15T16:24:26+09:00*%
%TF.ProjectId,sandwitch,73616e64-7769-4746-9368-2e6b69636164,rev?*%
%TF.SameCoordinates,Original*%
%TF.FileFunction,Profile,NP*%
%FSLAX46Y46*%
G04 Gerber Fmt 4.6, Leading zero omitted, Abs format (unit mm)*
G04 Created by KiCad (PCBNEW (6.0.5)) date 2022-10-15 16:24:26*
%MOMM*%
%LPD*%
G01*
G04 APERTURE LIST*
%TA.AperFunction,Profile*%
%ADD10C,0.096662*%
%TD*%
G04 APERTURE END LIST*
D10*
X469701405Y-271551836D02*
X469701374Y-271551867D01*
X469701405Y-271551836D02*
X469701405Y-271551836D01*
X469698025Y-271688194D02*
X469701405Y-271551836D01*
X469687948Y-271823627D02*
X469698025Y-271688194D01*
X469671267Y-271957910D02*
X469687948Y-271823627D01*
X469648075Y-272090816D02*
X469671267Y-271957910D01*
X469618467Y-272222121D02*
X469648075Y-272090816D01*
X469582534Y-272351599D02*
X469618467Y-272222121D01*
X469540370Y-272479023D02*
X469582534Y-272351599D01*
X469492070Y-272604170D02*
X469540370Y-272479023D01*
X469437725Y-272726813D02*
X469492070Y-272604170D01*
X469377430Y-272846727D02*
X469437725Y-272726813D01*
X469311277Y-272963685D02*
X469377430Y-272846727D01*
X469239361Y-273077464D02*
X469311277Y-272963685D01*
X469161774Y-273187837D02*
X469239361Y-273077464D01*
X469078610Y-273294578D02*
X469161774Y-273187837D01*
X468989962Y-273397462D02*
X469078610Y-273294578D01*
X468895924Y-273496264D02*
X468989962Y-273397462D01*
X468895924Y-273496264D02*
X468895924Y-273496264D01*
X468797106Y-273590280D02*
X468895924Y-273496264D01*
X468694206Y-273678906D02*
X468797106Y-273590280D01*
X468587451Y-273762049D02*
X468694206Y-273678906D01*
X468477066Y-273839615D02*
X468587451Y-273762049D01*
X468363277Y-273911512D02*
X468477066Y-273839615D01*
X468246308Y-273977645D02*
X468363277Y-273911512D01*
X468126386Y-274037922D02*
X468246308Y-273977645D01*
X468003735Y-274092249D02*
X468126386Y-274037922D01*
X467878582Y-274140533D02*
X468003735Y-274092249D01*
X467751151Y-274182680D02*
X467878582Y-274140533D01*
X467621669Y-274218598D02*
X467751151Y-274182680D01*
X467490361Y-274248192D02*
X467621669Y-274218598D01*
X467357451Y-274271370D02*
X467490361Y-274248192D01*
X467223167Y-274288038D02*
X467357451Y-274271370D01*
X467087733Y-274298102D02*
X467223167Y-274288038D01*
X466951374Y-274301470D02*
X467087733Y-274298102D01*
X466951374Y-274301470D02*
X466951374Y-274301470D01*
X132567677Y-274254015D02*
X466951374Y-274301470D01*
X132567677Y-274254015D02*
X132567677Y-274254015D01*
X132426148Y-274250415D02*
X132567677Y-274254015D01*
X132286477Y-274239774D02*
X132426148Y-274250415D01*
X132148837Y-274222266D02*
X132286477Y-274239774D01*
X132013401Y-274198064D02*
X132148837Y-274222266D01*
X131880341Y-274167339D02*
X132013401Y-274198064D01*
X131749830Y-274130265D02*
X131880341Y-274167339D01*
X131622041Y-274087015D02*
X131749830Y-274130265D01*
X131497146Y-274037761D02*
X131622041Y-274087015D01*
X131375318Y-273982676D02*
X131497146Y-274037761D01*
X131256731Y-273921933D02*
X131375318Y-273982676D01*
X131141556Y-273855704D02*
X131256731Y-273921933D01*
X131029967Y-273784162D02*
X131141556Y-273855704D01*
X130922136Y-273707480D02*
X131029967Y-273784162D01*
X130818236Y-273625831D02*
X130922136Y-273707480D01*
X130718439Y-273539387D02*
X130818236Y-273625831D01*
X130622919Y-273448321D02*
X130718439Y-273539387D01*
X130531849Y-273352805D02*
X130622919Y-273448321D01*
X130445400Y-273253014D02*
X130531849Y-273352805D01*
X130363746Y-273149118D02*
X130445400Y-273253014D01*
X130287059Y-273041291D02*
X130363746Y-273149118D01*
X130215513Y-272929706D02*
X130287059Y-273041291D01*
X130149279Y-272814536D02*
X130215513Y-272929706D01*
X130088532Y-272695952D02*
X130149279Y-272814536D01*
X130033442Y-272574128D02*
X130088532Y-272695952D01*
X129984184Y-272449237D02*
X130033442Y-272574128D01*
X129940929Y-272321451D02*
X129984184Y-272449237D01*
X129903852Y-272190943D02*
X129940929Y-272321451D01*
X129873123Y-272057886D02*
X129903852Y-272190943D01*
X129848917Y-271922452D02*
X129873123Y-272057886D01*
X129831405Y-271784815D02*
X129848917Y-271922452D01*
X129820762Y-271645146D02*
X129831405Y-271784815D01*
X129817158Y-271503619D02*
X129820762Y-271645146D01*
X129817158Y-271503619D02*
X129817158Y-271503619D01*
X129798596Y-170648531D02*
X129817158Y-271503619D01*
X129798596Y-170648531D02*
X129798596Y-170648531D01*
X129801950Y-170512176D02*
X129798596Y-170648531D01*
X129812002Y-170376745D02*
X129801950Y-170512176D01*
X129828659Y-170242464D02*
X129812002Y-170376745D01*
X129851826Y-170109559D02*
X129828659Y-170242464D01*
X129881412Y-169978254D02*
X129851826Y-170109559D01*
X129917321Y-169848776D02*
X129881412Y-169978254D01*
X129959462Y-169721349D02*
X129917321Y-169848776D01*
X130007740Y-169596199D02*
X129959462Y-169721349D01*
X130062063Y-169473552D02*
X130007740Y-169596199D01*
X130122337Y-169353633D02*
X130062063Y-169473552D01*
X130188468Y-169236667D02*
X130122337Y-169353633D01*
X130260363Y-169122880D02*
X130188468Y-169236667D01*
X130337929Y-169012497D02*
X130260363Y-169122880D01*
X130421072Y-168905744D02*
X130337929Y-169012497D01*
X130509700Y-168802845D02*
X130421072Y-168905744D01*
X130603718Y-168704027D02*
X130509700Y-168802845D01*
X130603718Y-168704027D02*
X130603718Y-168704027D01*
X130702517Y-168609989D02*
X130603718Y-168704027D01*
X130805398Y-168521340D02*
X130702517Y-168609989D01*
X130912135Y-168438176D02*
X130805398Y-168521340D01*
X131022504Y-168360588D02*
X130912135Y-168438176D01*
X131136279Y-168288670D02*
X131022504Y-168360588D01*
X131253233Y-168222517D02*
X131136279Y-168288670D01*
X131373143Y-168162220D02*
X131253233Y-168222517D01*
X131495781Y-168107874D02*
X131373143Y-168162220D01*
X131620924Y-168059572D02*
X131495781Y-168107874D01*
X131748344Y-168017407D02*
X131620924Y-168059572D01*
X131877818Y-167981473D02*
X131748344Y-168017407D01*
X132009118Y-167951863D02*
X131877818Y-167981473D01*
X132142021Y-167928670D02*
X132009118Y-167951863D01*
X132276300Y-167911989D02*
X132142021Y-167928670D01*
X132411730Y-167901911D02*
X132276300Y-167911989D01*
X132548085Y-167898531D02*
X132411730Y-167901911D01*
X132548085Y-167898531D02*
X132548085Y-167898531D01*
X466951344Y-167898531D02*
X132548085Y-167898531D01*
X466951344Y-167898531D02*
X466951344Y-167898531D01*
X467092860Y-167902112D02*
X466951344Y-167898531D01*
X467232518Y-167912734D02*
X467092860Y-167902112D01*
X467370145Y-167930224D02*
X467232518Y-167912734D01*
X467505569Y-167954410D02*
X467370145Y-167930224D01*
X467638617Y-167985119D02*
X467505569Y-167954410D01*
X467769116Y-168022177D02*
X467638617Y-167985119D01*
X467896893Y-168065413D02*
X467769116Y-168022177D01*
X468021775Y-168114653D02*
X467896893Y-168065413D01*
X468143590Y-168169724D02*
X468021775Y-168114653D01*
X468262165Y-168230455D02*
X468143590Y-168169724D01*
X468377327Y-168296671D02*
X468262165Y-168230455D01*
X468488904Y-168368201D02*
X468377327Y-168296671D01*
X468596722Y-168444872D02*
X468488904Y-168368201D01*
X468700608Y-168526510D02*
X468596722Y-168444872D01*
X468800391Y-168612943D02*
X468700608Y-168526510D01*
X468895897Y-168703999D02*
X468800391Y-168612943D01*
X468986954Y-168799504D02*
X468895897Y-168703999D01*
X469073388Y-168899286D02*
X468986954Y-168799504D01*
X469155027Y-169003171D02*
X469073388Y-168899286D01*
X469231699Y-169110988D02*
X469155027Y-169003171D01*
X469303229Y-169222563D02*
X469231699Y-169110988D01*
X469369447Y-169337724D02*
X469303229Y-169222563D01*
X469430178Y-169456298D02*
X469369447Y-169337724D01*
X469485250Y-169578111D02*
X469430178Y-169456298D01*
X469534491Y-169702992D02*
X469485250Y-169578111D01*
X469577727Y-169830768D02*
X469534491Y-169702992D01*
X469614786Y-169961265D02*
X469577727Y-169830768D01*
X469645495Y-170094311D02*
X469614786Y-169961265D01*
X469669681Y-170229734D02*
X469645495Y-170094311D01*
X469687171Y-170367360D02*
X469669681Y-170229734D01*
X469697793Y-170507017D02*
X469687171Y-170367360D01*
X469701374Y-170648531D02*
X469697793Y-170507017D01*
X469701374Y-170648531D02*
X469701374Y-170648531D01*
X469701374Y-271551867D02*
X469701374Y-170648531D01*
X163307560Y-170896319D02*
X163361302Y-170895373D01*
X163307560Y-170896319D02*
X163307560Y-170896319D01*
X163254322Y-170899935D02*
X163307560Y-170896319D01*
X163254322Y-170899935D02*
X163254322Y-170899935D01*
X163202137Y-170907168D02*
X163254322Y-170899935D01*
X163202137Y-170907168D02*
X163202137Y-170907168D01*
X163150456Y-170915942D02*
X163202137Y-170907168D01*
X163150456Y-170915942D02*
X163150456Y-170915942D01*
X163098256Y-170928347D02*
X163150456Y-170915942D01*
X163098256Y-170928347D02*
X163098256Y-170928347D01*
X163047093Y-170942309D02*
X163098256Y-170928347D01*
X163047093Y-170942309D02*
X163047093Y-170942309D01*
X162997471Y-170958330D02*
X163047093Y-170942309D01*
X162997471Y-170958330D02*
X162997471Y-170958330D01*
X162948384Y-170976931D02*
X162997471Y-170958330D01*
X162948384Y-170976931D02*
X162948384Y-170976931D01*
X162900319Y-170998125D02*
X162948384Y-170976931D01*
X162900319Y-170998125D02*
X162900319Y-170998125D01*
X162853306Y-171021899D02*
X162900319Y-170998125D01*
X162853306Y-171021899D02*
X162853306Y-171021899D01*
X162807316Y-171048250D02*
X162853306Y-171021899D01*
X162807316Y-171048250D02*
X162807316Y-171048250D01*
X162763401Y-171076159D02*
X162807316Y-171048250D01*
X162763401Y-171076159D02*
X162763401Y-171076159D01*
X162719456Y-171107165D02*
X162763401Y-171076159D01*
X162719456Y-171107165D02*
X162719456Y-171107165D01*
X162678120Y-171139208D02*
X162719456Y-171107165D01*
X162678120Y-171139208D02*
X162678120Y-171139208D01*
X162637303Y-171174349D02*
X162678120Y-171139208D01*
X162637303Y-171174349D02*
X162637303Y-171174349D01*
X162598545Y-171211031D02*
X162637303Y-171174349D01*
X162598545Y-171211031D02*
X162598545Y-171211031D01*
X162562367Y-171250307D02*
X162598545Y-171211031D01*
X162562367Y-171250307D02*
X162562367Y-171250307D01*
X162527241Y-171290102D02*
X162562367Y-171250307D01*
X162527241Y-171290102D02*
X162527241Y-171290102D01*
X162494160Y-171331957D02*
X162527241Y-171290102D01*
X162494160Y-171331957D02*
X162494160Y-171331957D01*
X162464192Y-171375368D02*
X162494160Y-171331957D01*
X162464192Y-171375368D02*
X162464192Y-171375368D01*
X162436299Y-171420321D02*
X162464192Y-171375368D01*
X162436299Y-171420321D02*
X162436299Y-171420321D01*
X162410466Y-171465273D02*
X162436299Y-171420321D01*
X162410466Y-171465273D02*
X162410466Y-171465273D01*
X162386174Y-171513338D02*
X162410466Y-171465273D01*
X162386174Y-171513338D02*
X162386174Y-171513338D01*
X162365513Y-171560870D02*
X162386174Y-171513338D01*
X162365513Y-171560870D02*
X162365513Y-171560870D01*
X162346394Y-171609972D02*
X162365513Y-171560870D01*
X162346394Y-171609972D02*
X162346394Y-171609972D01*
X162329335Y-171660113D02*
X162346394Y-171609972D01*
X162329335Y-171660113D02*
X162329335Y-171660113D01*
X162315373Y-171710238D02*
X162329335Y-171660113D01*
X162315373Y-171710238D02*
X162315373Y-171710238D01*
X162304539Y-171761919D02*
X162315373Y-171710238D01*
X162304539Y-171761919D02*
X162304539Y-171761919D01*
X162294194Y-171814104D02*
X162304539Y-171761919D01*
X162294194Y-171814104D02*
X162294194Y-171814104D01*
X162288517Y-171867327D02*
X162294194Y-171814104D01*
X162288517Y-171867327D02*
X162288517Y-171867327D01*
X162284382Y-171920031D02*
X162288517Y-171867327D01*
X162284382Y-171920031D02*
X162284382Y-171920031D01*
X162283345Y-171973254D02*
X162284382Y-171920031D01*
X162283345Y-171973254D02*
X162283345Y-171973254D01*
X162284382Y-172026995D02*
X162283345Y-171973254D01*
X162284382Y-172026995D02*
X162284382Y-172026995D01*
X162288517Y-172080218D02*
X162284382Y-172026995D01*
X162288517Y-172080218D02*
X162288517Y-172080218D01*
X162294194Y-172131899D02*
X162288517Y-172080218D01*
X162294194Y-172131899D02*
X162294194Y-172131899D01*
X162304539Y-172185122D02*
X162294194Y-172131899D01*
X162304539Y-172185122D02*
X162304539Y-172185122D01*
X162315373Y-172236285D02*
X162304539Y-172185122D01*
X162315373Y-172236285D02*
X162315373Y-172236285D01*
X162329335Y-172286944D02*
X162315373Y-172236285D01*
X162329335Y-172286944D02*
X162329335Y-172286944D01*
X162346394Y-172337054D02*
X162329335Y-172286944D01*
X162346394Y-172337054D02*
X162346394Y-172337054D01*
X162365513Y-172386156D02*
X162346394Y-172337054D01*
X162365513Y-172386156D02*
X162365513Y-172386156D01*
X162386174Y-172434222D02*
X162365513Y-172386156D01*
X162386174Y-172434222D02*
X162386174Y-172434222D01*
X162410466Y-172481249D02*
X162386174Y-172434222D01*
X162410466Y-172481249D02*
X162410466Y-172481249D01*
X162436299Y-172527224D02*
X162410466Y-172481249D01*
X162436299Y-172527224D02*
X162436299Y-172527224D01*
X162464192Y-172571169D02*
X162436299Y-172527224D01*
X162464192Y-172571169D02*
X162464192Y-172571169D01*
X162494160Y-172615084D02*
X162464192Y-172571169D01*
X162494160Y-172615084D02*
X162494160Y-172615084D01*
X162527241Y-172656939D02*
X162494160Y-172615084D01*
X162527241Y-172656939D02*
X162527241Y-172656939D01*
X162562367Y-172697237D02*
X162527241Y-172656939D01*
X162562367Y-172697237D02*
X162562367Y-172697237D01*
X162598545Y-172736010D02*
X162562367Y-172697237D01*
X162598545Y-172736010D02*
X162598545Y-172736010D01*
X162637303Y-172773211D02*
X162598545Y-172736010D01*
X162637303Y-172773211D02*
X162637303Y-172773211D01*
X162678120Y-172807329D02*
X162637303Y-172773211D01*
X162678120Y-172807329D02*
X162678120Y-172807329D01*
X162719456Y-172839876D02*
X162678120Y-172807329D01*
X162719456Y-172839876D02*
X162719456Y-172839876D01*
X162763401Y-172870364D02*
X162719456Y-172839876D01*
X162763401Y-172870364D02*
X162763401Y-172870364D01*
X162807316Y-172898272D02*
X162763401Y-172870364D01*
X162807316Y-172898272D02*
X162807316Y-172898272D01*
X162853306Y-172924105D02*
X162807316Y-172898272D01*
X162853306Y-172924105D02*
X162853306Y-172924105D01*
X162900319Y-172947878D02*
X162853306Y-172924105D01*
X162900319Y-172947878D02*
X162900319Y-172947878D01*
X162948384Y-172969073D02*
X162900319Y-172947878D01*
X162948384Y-172969073D02*
X162948384Y-172969073D01*
X162997471Y-172988192D02*
X162948384Y-172969073D01*
X162997471Y-172988192D02*
X162997471Y-172988192D01*
X163047093Y-173005236D02*
X162997471Y-172988192D01*
X163047093Y-173005236D02*
X163047093Y-173005236D01*
X163098240Y-173019198D02*
X163047093Y-173005236D01*
X163098240Y-173019198D02*
X163098240Y-173019198D01*
X163150441Y-173031084D02*
X163098240Y-173019198D01*
X163150441Y-173031084D02*
X163150441Y-173031084D01*
X163202122Y-173039873D02*
X163150441Y-173031084D01*
X163202122Y-173039873D02*
X163202122Y-173039873D01*
X163254307Y-173046068D02*
X163202122Y-173039873D01*
X163254307Y-173046068D02*
X163254307Y-173046068D01*
X163307545Y-173050219D02*
X163254307Y-173046068D01*
X163307545Y-173050219D02*
X163307545Y-173050219D01*
X163361287Y-173051241D02*
X163307545Y-173050219D01*
X163361287Y-173051241D02*
X163361287Y-173051241D01*
X163416066Y-173050219D02*
X163361287Y-173051241D01*
X163416066Y-173050219D02*
X163416066Y-173050219D01*
X163471363Y-173046068D02*
X163416066Y-173050219D01*
X163471363Y-173046068D02*
X163471363Y-173046068D01*
X163525105Y-173039370D02*
X163471363Y-173046068D01*
X163525105Y-173039370D02*
X163525105Y-173039370D01*
X163578328Y-173030062D02*
X163525105Y-173039370D01*
X163578328Y-173030062D02*
X163578328Y-173030062D01*
X163630528Y-173017153D02*
X163578328Y-173030062D01*
X163630528Y-173017153D02*
X163630528Y-173017153D01*
X163681172Y-173003176D02*
X163630528Y-173017153D01*
X163681172Y-173003176D02*
X163681172Y-173003176D01*
X163732335Y-172986117D02*
X163681172Y-173003176D01*
X163732335Y-172986117D02*
X163732335Y-172986117D01*
X163781422Y-172966997D02*
X163732335Y-172986117D01*
X163781422Y-172966997D02*
X163781422Y-172966997D01*
X163828450Y-172945299D02*
X163781422Y-172966997D01*
X163828450Y-172945299D02*
X163828450Y-172945299D01*
X163875477Y-172921023D02*
X163828450Y-172945299D01*
X163875477Y-172921023D02*
X163875477Y-172921023D01*
X163920430Y-172895174D02*
X163875477Y-172921023D01*
X163920430Y-172895174D02*
X163920430Y-172895174D01*
X163964375Y-172867281D02*
X163920430Y-172895174D01*
X163964375Y-172867281D02*
X163964375Y-172867281D01*
X164006230Y-172837313D02*
X163964375Y-172867281D01*
X164006230Y-172837313D02*
X164006230Y-172837313D01*
X164047566Y-172805270D02*
X164006230Y-172837313D01*
X164047566Y-172805270D02*
X164047566Y-172805270D01*
X164086323Y-172771181D02*
X164047566Y-172805270D01*
X164086323Y-172771181D02*
X164086323Y-172771181D01*
X164123539Y-172736040D02*
X164086323Y-172771181D01*
X164123539Y-172736040D02*
X164123539Y-172736040D01*
X164159199Y-172698321D02*
X164123539Y-172736040D01*
X164159199Y-172698321D02*
X164159199Y-172698321D01*
X164193303Y-172659045D02*
X164159199Y-172698321D01*
X164193303Y-172659045D02*
X164193303Y-172659045D01*
X164225331Y-172618212D02*
X164193303Y-172659045D01*
X164225331Y-172618212D02*
X164225331Y-172618212D01*
X164255299Y-172576357D02*
X164225331Y-172618212D01*
X164255299Y-172576357D02*
X164255299Y-172576357D01*
X164283207Y-172531908D02*
X164255299Y-172576357D01*
X164283207Y-172531908D02*
X164283207Y-172531908D01*
X164309559Y-172486971D02*
X164283207Y-172531908D01*
X164309559Y-172486971D02*
X164309559Y-172486971D01*
X164333332Y-172440966D02*
X164309559Y-172486971D01*
X164333332Y-172440966D02*
X164333332Y-172440966D01*
X164354512Y-172392901D02*
X164333332Y-172440966D01*
X164354512Y-172392901D02*
X164354512Y-172392901D01*
X164374165Y-172344332D02*
X164354512Y-172392901D01*
X164374165Y-172344332D02*
X164374165Y-172344332D01*
X164391224Y-172294207D02*
X164374165Y-172344332D01*
X164391224Y-172294207D02*
X164391224Y-172294207D01*
X164405171Y-172243029D02*
X164391224Y-172294207D01*
X164405171Y-172243029D02*
X164405171Y-172243029D01*
X164417576Y-172191378D02*
X164405171Y-172243029D01*
X164417576Y-172191378D02*
X164417576Y-172191378D01*
X164427403Y-172137118D02*
X164417576Y-172191378D01*
X164427403Y-172137118D02*
X164427403Y-172137118D01*
X164434101Y-172083376D02*
X164427403Y-172137118D01*
X164434101Y-172083376D02*
X164434101Y-172083376D01*
X164438237Y-172029116D02*
X164434101Y-172083376D01*
X164438237Y-172029116D02*
X164438237Y-172029116D01*
X164439274Y-171973299D02*
X164438237Y-172029116D01*
X164439274Y-171973299D02*
X164439274Y-171973299D01*
X164438237Y-171920077D02*
X164439274Y-171973299D01*
X164438237Y-171920077D02*
X164438237Y-171920077D01*
X164434101Y-171867373D02*
X164438237Y-171920077D01*
X164434101Y-171867373D02*
X164434101Y-171867373D01*
X164427403Y-171814150D02*
X164434101Y-171867373D01*
X164427403Y-171814150D02*
X164427403Y-171814150D01*
X164418095Y-171761965D02*
X164427403Y-171814150D01*
X164418095Y-171761965D02*
X164418095Y-171761965D01*
X164407231Y-171710284D02*
X164418095Y-171761965D01*
X164407231Y-171710284D02*
X164407231Y-171710284D01*
X164392262Y-171660158D02*
X164407231Y-171710284D01*
X164392262Y-171660158D02*
X164392262Y-171660158D01*
X164376240Y-171610033D02*
X164392262Y-171660158D01*
X164376240Y-171610033D02*
X164376240Y-171610033D01*
X164357121Y-171560915D02*
X164376240Y-171610033D01*
X164357121Y-171560915D02*
X164357121Y-171560915D01*
X164336445Y-171513384D02*
X164357121Y-171560915D01*
X164336445Y-171513384D02*
X164336445Y-171513384D01*
X164312169Y-171465319D02*
X164336445Y-171513384D01*
X164312169Y-171465319D02*
X164312169Y-171465319D01*
X164286320Y-171420367D02*
X164312169Y-171465319D01*
X164286320Y-171420367D02*
X164286320Y-171420367D01*
X164258427Y-171375414D02*
X164286320Y-171420367D01*
X164258427Y-171375414D02*
X164258427Y-171375414D01*
X164228444Y-171332003D02*
X164258427Y-171375414D01*
X164228444Y-171332003D02*
X164228444Y-171332003D01*
X164195362Y-171290148D02*
X164228444Y-171332003D01*
X164195362Y-171290148D02*
X164195362Y-171290148D01*
X164160221Y-171250368D02*
X164195362Y-171290148D01*
X164160221Y-171250368D02*
X164160221Y-171250368D01*
X164123539Y-171211077D02*
X164160221Y-171250368D01*
X164123539Y-171211077D02*
X164123539Y-171211077D01*
X164085301Y-171174395D02*
X164123539Y-171211077D01*
X164085301Y-171174395D02*
X164085301Y-171174395D01*
X164044468Y-171139254D02*
X164085301Y-171174395D01*
X164044468Y-171139254D02*
X164044468Y-171139254D01*
X164002095Y-171107226D02*
X164044468Y-171139254D01*
X164002095Y-171107226D02*
X164002095Y-171107226D01*
X163959202Y-171076235D02*
X164002095Y-171107226D01*
X163959202Y-171076235D02*
X163959202Y-171076235D01*
X163914250Y-171048327D02*
X163959202Y-171076235D01*
X163914250Y-171048327D02*
X163914250Y-171048327D01*
X163869282Y-171021975D02*
X163914250Y-171048327D01*
X163869282Y-171021975D02*
X163869282Y-171021975D01*
X163822255Y-170998202D02*
X163869282Y-171021975D01*
X163822255Y-170998202D02*
X163822255Y-170998202D01*
X163773152Y-170977022D02*
X163822255Y-170998202D01*
X163773152Y-170977022D02*
X163773152Y-170977022D01*
X163724064Y-170958407D02*
X163773152Y-170977022D01*
X163724064Y-170958407D02*
X163724064Y-170958407D01*
X163674458Y-170942400D02*
X163724064Y-170958407D01*
X163674458Y-170942400D02*
X163674458Y-170942400D01*
X163624333Y-170928438D02*
X163674458Y-170942400D01*
X163624333Y-170928438D02*
X163624333Y-170928438D01*
X163572132Y-170916048D02*
X163624333Y-170928438D01*
X163572132Y-170916048D02*
X163572132Y-170916048D01*
X163520466Y-170907259D02*
X163572132Y-170916048D01*
X163520466Y-170907259D02*
X163520466Y-170907259D01*
X163467244Y-170900011D02*
X163520466Y-170907259D01*
X163467244Y-170900011D02*
X163467244Y-170900011D01*
X163414540Y-170896395D02*
X163467244Y-170900011D01*
X163414540Y-170896395D02*
X163414540Y-170896395D01*
X163361302Y-170895373D02*
X163414540Y-170896395D01*
X249770558Y-170896364D02*
X249825261Y-170895373D01*
X249770558Y-170896364D02*
X249770558Y-170896364D01*
X249715260Y-170901018D02*
X249770558Y-170896364D01*
X249715260Y-170901018D02*
X249715260Y-170901018D01*
X249661518Y-170907229D02*
X249715260Y-170901018D01*
X249661518Y-170907229D02*
X249661518Y-170907229D01*
X249608281Y-170917055D02*
X249661518Y-170907229D01*
X249608281Y-170917055D02*
X249608281Y-170917055D01*
X249556614Y-170928942D02*
X249608281Y-170917055D01*
X249556614Y-170928942D02*
X249556614Y-170928942D01*
X249505452Y-170943407D02*
X249556614Y-170928942D01*
X249505452Y-170943407D02*
X249505452Y-170943407D01*
X249454289Y-170959948D02*
X249505452Y-170943407D01*
X249454289Y-170959948D02*
X249454289Y-170959948D01*
X249406224Y-170980089D02*
X249454289Y-170959948D01*
X249406224Y-170980089D02*
X249406224Y-170980089D01*
X249358158Y-171001269D02*
X249406224Y-170980089D01*
X249358158Y-171001269D02*
X249358158Y-171001269D01*
X249311131Y-171025057D02*
X249358158Y-171001269D01*
X249311131Y-171025057D02*
X249311131Y-171025057D01*
X249266194Y-171051409D02*
X249311131Y-171025057D01*
X249266194Y-171051409D02*
X249266194Y-171051409D01*
X249222248Y-171079302D02*
X249266194Y-171051409D01*
X249222248Y-171079302D02*
X249222248Y-171079302D01*
X249180394Y-171109270D02*
X249222248Y-171079302D01*
X249180394Y-171109270D02*
X249180394Y-171109270D01*
X249139576Y-171141314D02*
X249180394Y-171109270D01*
X249139576Y-171141314D02*
X249139576Y-171141314D01*
X249100300Y-171174883D02*
X249139576Y-171141314D01*
X249100300Y-171174883D02*
X249100300Y-171174883D01*
X249063603Y-171211062D02*
X249100300Y-171174883D01*
X249063603Y-171211062D02*
X249063603Y-171211062D01*
X249027440Y-171248278D02*
X249063603Y-171211062D01*
X249027440Y-171248278D02*
X249027440Y-171248278D01*
X248993321Y-171287051D02*
X249027440Y-171248278D01*
X248993321Y-171287051D02*
X248993321Y-171287051D01*
X248961293Y-171328402D02*
X248993321Y-171287051D01*
X248961293Y-171328402D02*
X248961293Y-171328402D01*
X248931324Y-171370257D02*
X248961293Y-171328402D01*
X248931324Y-171370257D02*
X248931324Y-171370257D01*
X248903416Y-171414172D02*
X248931324Y-171370257D01*
X248903416Y-171414172D02*
X248903416Y-171414172D01*
X248877583Y-171459124D02*
X248903416Y-171414172D01*
X248877583Y-171459124D02*
X248877583Y-171459124D01*
X248853291Y-171506151D02*
X248877583Y-171459124D01*
X248853291Y-171506151D02*
X248853291Y-171506151D01*
X248832615Y-171554217D02*
X248853291Y-171506151D01*
X248832615Y-171554217D02*
X248832615Y-171554217D01*
X248812474Y-171603304D02*
X248832615Y-171554217D01*
X248812474Y-171603304D02*
X248812474Y-171603304D01*
X248795414Y-171652926D02*
X248812474Y-171603304D01*
X248795414Y-171652926D02*
X248795414Y-171652926D01*
X248781468Y-171704073D02*
X248795414Y-171652926D01*
X248781468Y-171704073D02*
X248781468Y-171704073D01*
X248769581Y-171756274D02*
X248781468Y-171704073D01*
X248769581Y-171756274D02*
X248769581Y-171756274D01*
X248759236Y-171808977D02*
X248769581Y-171756274D01*
X248759236Y-171808977D02*
X248759236Y-171808977D01*
X248753544Y-171863222D02*
X248759236Y-171808977D01*
X248753544Y-171863222D02*
X248753544Y-171863222D01*
X248748387Y-171918017D02*
X248753544Y-171863222D01*
X248748387Y-171918017D02*
X248748387Y-171918017D01*
X248747349Y-171973299D02*
X248748387Y-171918017D01*
X248747349Y-171973299D02*
X248747349Y-171973299D01*
X248748387Y-172029116D02*
X248747349Y-171973299D01*
X248748387Y-172029116D02*
X248748387Y-172029116D01*
X248753544Y-172083376D02*
X248748387Y-172029116D01*
X248753544Y-172083376D02*
X248753544Y-172083376D01*
X248759236Y-172137118D02*
X248753544Y-172083376D01*
X248759236Y-172137118D02*
X248759236Y-172137118D01*
X248769581Y-172191378D02*
X248759236Y-172137118D01*
X248769581Y-172191378D02*
X248769581Y-172191378D01*
X248781468Y-172243029D02*
X248769581Y-172191378D01*
X248781468Y-172243029D02*
X248781468Y-172243029D01*
X248795414Y-172294207D02*
X248781468Y-172243029D01*
X248795414Y-172294207D02*
X248795414Y-172294207D01*
X248812474Y-172344332D02*
X248795414Y-172294207D01*
X248812474Y-172344332D02*
X248812474Y-172344332D01*
X248832615Y-172392901D02*
X248812474Y-172344332D01*
X248832615Y-172392901D02*
X248832615Y-172392901D01*
X248853291Y-172440966D02*
X248832615Y-172392901D01*
X248853291Y-172440966D02*
X248853291Y-172440966D01*
X248877583Y-172486971D02*
X248853291Y-172440966D01*
X248877583Y-172486971D02*
X248877583Y-172486971D01*
X248903416Y-172531908D02*
X248877583Y-172486971D01*
X248903416Y-172531908D02*
X248903416Y-172531908D01*
X248931324Y-172576357D02*
X248903416Y-172531908D01*
X248931324Y-172576357D02*
X248931324Y-172576357D01*
X248961293Y-172618212D02*
X248931324Y-172576357D01*
X248961293Y-172618212D02*
X248961293Y-172618212D01*
X248993321Y-172659045D02*
X248961293Y-172618212D01*
X248993321Y-172659045D02*
X248993321Y-172659045D01*
X249027440Y-172698321D02*
X248993321Y-172659045D01*
X249027440Y-172698321D02*
X249027440Y-172698321D01*
X249063603Y-172736040D02*
X249027440Y-172698321D01*
X249063603Y-172736040D02*
X249063603Y-172736040D01*
X249100300Y-172771181D02*
X249063603Y-172736040D01*
X249100300Y-172771181D02*
X249100300Y-172771181D01*
X249139576Y-172805270D02*
X249100300Y-172771181D01*
X249139576Y-172805270D02*
X249139576Y-172805270D01*
X249180394Y-172837313D02*
X249139576Y-172805270D01*
X249180394Y-172837313D02*
X249180394Y-172837313D01*
X249222248Y-172867281D02*
X249180394Y-172837313D01*
X249222248Y-172867281D02*
X249222248Y-172867281D01*
X249266194Y-172895174D02*
X249222248Y-172867281D01*
X249266194Y-172895174D02*
X249266194Y-172895174D01*
X249311131Y-172921023D02*
X249266194Y-172895174D01*
X249311131Y-172921023D02*
X249311131Y-172921023D01*
X249358158Y-172945299D02*
X249311131Y-172921023D01*
X249358158Y-172945299D02*
X249358158Y-172945299D01*
X249406224Y-172966997D02*
X249358158Y-172945299D01*
X249406224Y-172966997D02*
X249406224Y-172966997D01*
X249454289Y-172986117D02*
X249406224Y-172966997D01*
X249454289Y-172986117D02*
X249454289Y-172986117D01*
X249505452Y-173003176D02*
X249454289Y-172986117D01*
X249505452Y-173003176D02*
X249505452Y-173003176D01*
X249556599Y-173018175D02*
X249505452Y-173003176D01*
X249556599Y-173018175D02*
X249556599Y-173018175D01*
X249608265Y-173030062D02*
X249556599Y-173018175D01*
X249608265Y-173030062D02*
X249608265Y-173030062D01*
X249661503Y-173039370D02*
X249608265Y-173030062D01*
X249661503Y-173039370D02*
X249661503Y-173039370D01*
X249715245Y-173046068D02*
X249661503Y-173039370D01*
X249715245Y-173046068D02*
X249715245Y-173046068D01*
X249770543Y-173050219D02*
X249715245Y-173046068D01*
X249770543Y-173050219D02*
X249770543Y-173050219D01*
X249825306Y-173051241D02*
X249770543Y-173050219D01*
X249825306Y-173051241D02*
X249825306Y-173051241D01*
X249879567Y-173050219D02*
X249825306Y-173051241D01*
X249879567Y-173050219D02*
X249879567Y-173050219D01*
X249932270Y-173046068D02*
X249879567Y-173050219D01*
X249932270Y-173046068D02*
X249932270Y-173046068D01*
X249984455Y-173039889D02*
X249932270Y-173046068D01*
X249984455Y-173039889D02*
X249984455Y-173039889D01*
X250037159Y-173031100D02*
X249984455Y-173039889D01*
X250037159Y-173031100D02*
X250037159Y-173031100D01*
X250088337Y-173019213D02*
X250037159Y-173031100D01*
X250088337Y-173019213D02*
X250088337Y-173019213D01*
X250139485Y-173005251D02*
X250088337Y-173019213D01*
X250139485Y-173005251D02*
X250139485Y-173005251D01*
X250189091Y-172988207D02*
X250139485Y-173005251D01*
X250189091Y-172988207D02*
X250189091Y-172988207D01*
X250238179Y-172969088D02*
X250189091Y-172988207D01*
X250238179Y-172969088D02*
X250238179Y-172969088D01*
X250286244Y-172947893D02*
X250238179Y-172969088D01*
X250286244Y-172947893D02*
X250286244Y-172947893D01*
X250333271Y-172924120D02*
X250286244Y-172947893D01*
X250333271Y-172924120D02*
X250333271Y-172924120D01*
X250379277Y-172898287D02*
X250333271Y-172924120D01*
X250379277Y-172898287D02*
X250379277Y-172898287D01*
X250423191Y-172870379D02*
X250379277Y-172898287D01*
X250423191Y-172870379D02*
X250423191Y-172870379D01*
X250467137Y-172839892D02*
X250423191Y-172870379D01*
X250467137Y-172839892D02*
X250467137Y-172839892D01*
X250509495Y-172807345D02*
X250467137Y-172839892D01*
X250509495Y-172807345D02*
X250509495Y-172807345D01*
X250549290Y-172773226D02*
X250509495Y-172807345D01*
X250549290Y-172773226D02*
X250549290Y-172773226D01*
X250588551Y-172736025D02*
X250549290Y-172773226D01*
X250588551Y-172736025D02*
X250588551Y-172736025D01*
X250625264Y-172697268D02*
X250588551Y-172736025D01*
X250625264Y-172697268D02*
X250625264Y-172697268D01*
X250659352Y-172656969D02*
X250625264Y-172697268D01*
X250659352Y-172656969D02*
X250659352Y-172656969D01*
X250692433Y-172615114D02*
X250659352Y-172656969D01*
X250692433Y-172615114D02*
X250692433Y-172615114D01*
X250722416Y-172571200D02*
X250692433Y-172615114D01*
X250722416Y-172571200D02*
X250722416Y-172571200D01*
X250750309Y-172527254D02*
X250722416Y-172571200D01*
X250750309Y-172527254D02*
X250750309Y-172527254D01*
X250776158Y-172481280D02*
X250750309Y-172527254D01*
X250776158Y-172481280D02*
X250776158Y-172481280D01*
X250800450Y-172434252D02*
X250776158Y-172481280D01*
X250800450Y-172434252D02*
X250800450Y-172434252D01*
X250821110Y-172386187D02*
X250800450Y-172434252D01*
X250821110Y-172386187D02*
X250821110Y-172386187D01*
X250840229Y-172337084D02*
X250821110Y-172386187D01*
X250840229Y-172337084D02*
X250840229Y-172337084D01*
X250857289Y-172286974D02*
X250840229Y-172337084D01*
X250857289Y-172286974D02*
X250857289Y-172286974D01*
X250871235Y-172236315D02*
X250857289Y-172286974D01*
X250871235Y-172236315D02*
X250871235Y-172236315D01*
X250883107Y-172185168D02*
X250871235Y-172236315D01*
X250883107Y-172185168D02*
X250883107Y-172185168D01*
X250892414Y-172131945D02*
X250883107Y-172185168D01*
X250892414Y-172131945D02*
X250892414Y-172131945D01*
X250898106Y-172080263D02*
X250892414Y-172131945D01*
X250898106Y-172080263D02*
X250898106Y-172080263D01*
X250902241Y-172027056D02*
X250898106Y-172080263D01*
X250902241Y-172027056D02*
X250902241Y-172027056D01*
X250903263Y-171973299D02*
X250902241Y-172027056D01*
X250903263Y-171973299D02*
X250903263Y-171973299D01*
X250902241Y-171920077D02*
X250903263Y-171973299D01*
X250902241Y-171920077D02*
X250902241Y-171920077D01*
X250898106Y-171867373D02*
X250902241Y-171920077D01*
X250898106Y-171867373D02*
X250898106Y-171867373D01*
X250892414Y-171814150D02*
X250898106Y-171867373D01*
X250892414Y-171814150D02*
X250892414Y-171814150D01*
X250883107Y-171761965D02*
X250892414Y-171814150D01*
X250883107Y-171761965D02*
X250883107Y-171761965D01*
X250871235Y-171710284D02*
X250883107Y-171761965D01*
X250871235Y-171710284D02*
X250871235Y-171710284D01*
X250857273Y-171660158D02*
X250871235Y-171710284D01*
X250857273Y-171660158D02*
X250857273Y-171660158D01*
X250840214Y-171610033D02*
X250857273Y-171660158D01*
X250840214Y-171610033D02*
X250840214Y-171610033D01*
X250821095Y-171560915D02*
X250840214Y-171610033D01*
X250821095Y-171560915D02*
X250821095Y-171560915D01*
X250800419Y-171513384D02*
X250821095Y-171560915D01*
X250800419Y-171513384D02*
X250800419Y-171513384D01*
X250776143Y-171466357D02*
X250800419Y-171513384D01*
X250776143Y-171466357D02*
X250776143Y-171466357D01*
X250750294Y-171420367D02*
X250776143Y-171466357D01*
X250750294Y-171420367D02*
X250750294Y-171420367D01*
X250722401Y-171375414D02*
X250750294Y-171420367D01*
X250722401Y-171375414D02*
X250722401Y-171375414D01*
X250692418Y-171332003D02*
X250722401Y-171375414D01*
X250692418Y-171332003D02*
X250692418Y-171332003D01*
X250659336Y-171290148D02*
X250692418Y-171332003D01*
X250659336Y-171290148D02*
X250659336Y-171290148D01*
X250625248Y-171250368D02*
X250659336Y-171290148D01*
X250625248Y-171250368D02*
X250625248Y-171250368D01*
X250588536Y-171211077D02*
X250625248Y-171250368D01*
X250588536Y-171211077D02*
X250588536Y-171211077D01*
X250549275Y-171174395D02*
X250588536Y-171211077D01*
X250549275Y-171174395D02*
X250549275Y-171174395D01*
X250509480Y-171139254D02*
X250549275Y-171174395D01*
X250509480Y-171139254D02*
X250509480Y-171139254D01*
X250467122Y-171107226D02*
X250509480Y-171139254D01*
X250467122Y-171107226D02*
X250467122Y-171107226D01*
X250423176Y-171076235D02*
X250467122Y-171107226D01*
X250423176Y-171076235D02*
X250423176Y-171076235D01*
X250379261Y-171048327D02*
X250423176Y-171076235D01*
X250379261Y-171048327D02*
X250379261Y-171048327D01*
X250333256Y-171021975D02*
X250379261Y-171048327D01*
X250333256Y-171021975D02*
X250333256Y-171021975D01*
X250286229Y-170998202D02*
X250333256Y-171021975D01*
X250286229Y-170998202D02*
X250286229Y-170998202D01*
X250238163Y-170977022D02*
X250286229Y-170998202D01*
X250238163Y-170977022D02*
X250238163Y-170977022D01*
X250189076Y-170958407D02*
X250238163Y-170977022D01*
X250189076Y-170958407D02*
X250189076Y-170958407D01*
X250139470Y-170942400D02*
X250189076Y-170958407D01*
X250139470Y-170942400D02*
X250139470Y-170942400D01*
X250088292Y-170928438D02*
X250139470Y-170942400D01*
X250088292Y-170928438D02*
X250088292Y-170928438D01*
X250037129Y-170916048D02*
X250088292Y-170928438D01*
X250037129Y-170916048D02*
X250037129Y-170916048D01*
X249984425Y-170907259D02*
X250037129Y-170916048D01*
X249984425Y-170907259D02*
X249984425Y-170907259D01*
X249932225Y-170900011D02*
X249984425Y-170907259D01*
X249932225Y-170900011D02*
X249932225Y-170900011D01*
X249879521Y-170896395D02*
X249932225Y-170900011D01*
X249879521Y-170896395D02*
X249879521Y-170896395D01*
X249825261Y-170895373D02*
X249879521Y-170896395D01*
X349630513Y-170896319D02*
X349684254Y-170895373D01*
X349630513Y-170896319D02*
X349630513Y-170896319D01*
X349577320Y-170899935D02*
X349630513Y-170896319D01*
X349577320Y-170899935D02*
X349577320Y-170899935D01*
X349524098Y-170907168D02*
X349577320Y-170899935D01*
X349524098Y-170907168D02*
X349524098Y-170907168D01*
X349472401Y-170915942D02*
X349524098Y-170907168D01*
X349472401Y-170915942D02*
X349472401Y-170915942D01*
X349421254Y-170928347D02*
X349472401Y-170915942D01*
X349421254Y-170928347D02*
X349421254Y-170928347D01*
X349370076Y-170942309D02*
X349421254Y-170928347D01*
X349370076Y-170942309D02*
X349370076Y-170942309D01*
X349320485Y-170958330D02*
X349370076Y-170942309D01*
X349320485Y-170958330D02*
X349320485Y-170958330D01*
X349271382Y-170976931D02*
X349320485Y-170958330D01*
X349271382Y-170976931D02*
X349271382Y-170976931D01*
X349223317Y-170998125D02*
X349271382Y-170976931D01*
X349223317Y-170998125D02*
X349223317Y-170998125D01*
X349176289Y-171021899D02*
X349223317Y-170998125D01*
X349176289Y-171021899D02*
X349176289Y-171021899D01*
X349130299Y-171048250D02*
X349176289Y-171021899D01*
X349130299Y-171048250D02*
X349130299Y-171048250D01*
X349085347Y-171076159D02*
X349130299Y-171048250D01*
X349085347Y-171076159D02*
X349085347Y-171076159D01*
X349042469Y-171107165D02*
X349085347Y-171076159D01*
X349042469Y-171107165D02*
X349042469Y-171107165D01*
X349000080Y-171139208D02*
X349042469Y-171107165D01*
X349000080Y-171139208D02*
X349000080Y-171139208D01*
X348960316Y-171174349D02*
X349000080Y-171139208D01*
X348960316Y-171174349D02*
X348960316Y-171174349D01*
X348921559Y-171211031D02*
X348960316Y-171174349D01*
X348921559Y-171211031D02*
X348921559Y-171211031D01*
X348884358Y-171250307D02*
X348921559Y-171211031D01*
X348884358Y-171250307D02*
X348884358Y-171250307D01*
X348850239Y-171290102D02*
X348884358Y-171250307D01*
X348850239Y-171290102D02*
X348850239Y-171290102D01*
X348817158Y-171331957D02*
X348850239Y-171290102D01*
X348817158Y-171331957D02*
X348817158Y-171331957D01*
X348787159Y-171375368D02*
X348817158Y-171331957D01*
X348787159Y-171375368D02*
X348787159Y-171375368D01*
X348758229Y-171420321D02*
X348787159Y-171375368D01*
X348758229Y-171420321D02*
X348758229Y-171420321D01*
X348732411Y-171466311D02*
X348758229Y-171420321D01*
X348732411Y-171466311D02*
X348732411Y-171466311D01*
X348709156Y-171513338D02*
X348732411Y-171466311D01*
X348709156Y-171513338D02*
X348709156Y-171513338D01*
X348688466Y-171560870D02*
X348709156Y-171513338D01*
X348688466Y-171560870D02*
X348688466Y-171560870D01*
X348669331Y-171609972D02*
X348688466Y-171560870D01*
X348669331Y-171609972D02*
X348669331Y-171609972D01*
X348652272Y-171660113D02*
X348669331Y-171609972D01*
X348652272Y-171660113D02*
X348652272Y-171660113D01*
X348638325Y-171710238D02*
X348652272Y-171660113D01*
X348638325Y-171710238D02*
X348638325Y-171710238D01*
X348626454Y-171761919D02*
X348638325Y-171710238D01*
X348626454Y-171761919D02*
X348626454Y-171761919D01*
X348617146Y-171814104D02*
X348626454Y-171761919D01*
X348617146Y-171814104D02*
X348617146Y-171814104D01*
X348611470Y-171867327D02*
X348617146Y-171814104D01*
X348611470Y-171867327D02*
X348611470Y-171867327D01*
X348607319Y-171920031D02*
X348611470Y-171867327D01*
X348607319Y-171920031D02*
X348607319Y-171920031D01*
X348605244Y-171973254D02*
X348607319Y-171920031D01*
X348605244Y-171973254D02*
X348605244Y-171973254D01*
X348607319Y-172026995D02*
X348605244Y-171973254D01*
X348607319Y-172026995D02*
X348607319Y-172026995D01*
X348611470Y-172080218D02*
X348607319Y-172026995D01*
X348611470Y-172080218D02*
X348611470Y-172080218D01*
X348617146Y-172131899D02*
X348611470Y-172080218D01*
X348617146Y-172131899D02*
X348617146Y-172131899D01*
X348626454Y-172185122D02*
X348617146Y-172131899D01*
X348626454Y-172185122D02*
X348626454Y-172185122D01*
X348638325Y-172236285D02*
X348626454Y-172185122D01*
X348638325Y-172236285D02*
X348638325Y-172236285D01*
X348652272Y-172286944D02*
X348638325Y-172236285D01*
X348652272Y-172286944D02*
X348652272Y-172286944D01*
X348669331Y-172337054D02*
X348652272Y-172286944D01*
X348669331Y-172337054D02*
X348669331Y-172337054D01*
X348688435Y-172386156D02*
X348669331Y-172337054D01*
X348688435Y-172386156D02*
X348688435Y-172386156D01*
X348709126Y-172434222D02*
X348688435Y-172386156D01*
X348709126Y-172434222D02*
X348709126Y-172434222D01*
X348732380Y-172481249D02*
X348709126Y-172434222D01*
X348732380Y-172481249D02*
X348732380Y-172481249D01*
X348758229Y-172527224D02*
X348732380Y-172481249D01*
X348758229Y-172527224D02*
X348758229Y-172527224D01*
X348787159Y-172571169D02*
X348758229Y-172527224D01*
X348787159Y-172571169D02*
X348787159Y-172571169D01*
X348817158Y-172615084D02*
X348787159Y-172571169D01*
X348817158Y-172615084D02*
X348817158Y-172615084D01*
X348850239Y-172656939D02*
X348817158Y-172615084D01*
X348850239Y-172656939D02*
X348850239Y-172656939D01*
X348884358Y-172697237D02*
X348850239Y-172656939D01*
X348884358Y-172697237D02*
X348884358Y-172697237D01*
X348921559Y-172736010D02*
X348884358Y-172697237D01*
X348921559Y-172736010D02*
X348921559Y-172736010D01*
X348960316Y-172773211D02*
X348921559Y-172736010D01*
X348960316Y-172773211D02*
X348960316Y-172773211D01*
X349000080Y-172807329D02*
X348960316Y-172773211D01*
X349000080Y-172807329D02*
X349000080Y-172807329D01*
X349042469Y-172839876D02*
X349000080Y-172807329D01*
X349042469Y-172839876D02*
X349042469Y-172839876D01*
X349085347Y-172870364D02*
X349042469Y-172839876D01*
X349085347Y-172870364D02*
X349085347Y-172870364D01*
X349130299Y-172898272D02*
X349085347Y-172870364D01*
X349130299Y-172898272D02*
X349130299Y-172898272D01*
X349176289Y-172924105D02*
X349130299Y-172898272D01*
X349176289Y-172924105D02*
X349176289Y-172924105D01*
X349223317Y-172947878D02*
X349176289Y-172924105D01*
X349223317Y-172947878D02*
X349223317Y-172947878D01*
X349271382Y-172969073D02*
X349223317Y-172947878D01*
X349271382Y-172969073D02*
X349271382Y-172969073D01*
X349320485Y-172988192D02*
X349271382Y-172969073D01*
X349320485Y-172988192D02*
X349320485Y-172988192D01*
X349370076Y-173005236D02*
X349320485Y-172988192D01*
X349370076Y-173005236D02*
X349370076Y-173005236D01*
X349421254Y-173019198D02*
X349370076Y-173005236D01*
X349421254Y-173019198D02*
X349421254Y-173019198D01*
X349472401Y-173031084D02*
X349421254Y-173019198D01*
X349472401Y-173031084D02*
X349472401Y-173031084D01*
X349524098Y-173039873D02*
X349472401Y-173031084D01*
X349524098Y-173039873D02*
X349524098Y-173039873D01*
X349577320Y-173046053D02*
X349524098Y-173039873D01*
X349577320Y-173046053D02*
X349577320Y-173046053D01*
X349630513Y-173050204D02*
X349577320Y-173046053D01*
X349630513Y-173050204D02*
X349630513Y-173050204D01*
X349684254Y-173051226D02*
X349630513Y-173050204D01*
X349684254Y-173051226D02*
X349684254Y-173051226D01*
X349739033Y-173050204D02*
X349684254Y-173051226D01*
X349739033Y-173050204D02*
X349739033Y-173050204D01*
X349794331Y-173046053D02*
X349739033Y-173050204D01*
X349794331Y-173046053D02*
X349794331Y-173046053D01*
X349848103Y-173039355D02*
X349794331Y-173046053D01*
X349848103Y-173039355D02*
X349848103Y-173039355D01*
X349901326Y-173030047D02*
X349848103Y-173039355D01*
X349901326Y-173030047D02*
X349901326Y-173030047D01*
X349953511Y-173018175D02*
X349901326Y-173030047D01*
X349953511Y-173018175D02*
X349953511Y-173018175D01*
X350004139Y-173003176D02*
X349953511Y-173018175D01*
X350004139Y-173003176D02*
X350004139Y-173003176D01*
X350054280Y-172986117D02*
X350004139Y-173003176D01*
X350054280Y-172986117D02*
X350054280Y-172986117D01*
X350103352Y-172966997D02*
X350054280Y-172986117D01*
X350103352Y-172966997D02*
X350103352Y-172966997D01*
X350151417Y-172945299D02*
X350103352Y-172966997D01*
X350151417Y-172945299D02*
X350151417Y-172945299D01*
X350198445Y-172921023D02*
X350151417Y-172945299D01*
X350198445Y-172921023D02*
X350198445Y-172921023D01*
X350243397Y-172895174D02*
X350198445Y-172921023D01*
X350243397Y-172895174D02*
X350243397Y-172895174D01*
X350287312Y-172867281D02*
X350243397Y-172895174D01*
X350287312Y-172867281D02*
X350287312Y-172867281D01*
X350329182Y-172837313D02*
X350287312Y-172867281D01*
X350329182Y-172837313D02*
X350329182Y-172837313D01*
X350370533Y-172805270D02*
X350329182Y-172837313D01*
X350370533Y-172805270D02*
X350370533Y-172805270D01*
X350409291Y-172771181D02*
X350370533Y-172805270D01*
X350409291Y-172771181D02*
X350409291Y-172771181D01*
X350446492Y-172736040D02*
X350409291Y-172771181D01*
X350446492Y-172736040D02*
X350446492Y-172736040D01*
X350482136Y-172698321D02*
X350446492Y-172736040D01*
X350482136Y-172698321D02*
X350482136Y-172698321D01*
X350516255Y-172659045D02*
X350482136Y-172698321D01*
X350516255Y-172659045D02*
X350516255Y-172659045D01*
X350548298Y-172618212D02*
X350516255Y-172659045D01*
X350548298Y-172618212D02*
X350548298Y-172618212D01*
X350578267Y-172576357D02*
X350548298Y-172618212D01*
X350578267Y-172576357D02*
X350578267Y-172576357D01*
X350606160Y-172531908D02*
X350578267Y-172576357D01*
X350606160Y-172531908D02*
X350606160Y-172531908D01*
X350632557Y-172486971D02*
X350606160Y-172531908D01*
X350632557Y-172486971D02*
X350632557Y-172486971D01*
X350656330Y-172440966D02*
X350632557Y-172486971D01*
X350656330Y-172440966D02*
X350656330Y-172440966D01*
X350677510Y-172392901D02*
X350656330Y-172440966D01*
X350677510Y-172392901D02*
X350677510Y-172392901D01*
X350696125Y-172344332D02*
X350677510Y-172392901D01*
X350696125Y-172344332D02*
X350696125Y-172344332D01*
X350713185Y-172294207D02*
X350696125Y-172344332D01*
X350713185Y-172294207D02*
X350713185Y-172294207D01*
X350728169Y-172243044D02*
X350713185Y-172294207D01*
X350728169Y-172243044D02*
X350728169Y-172243044D01*
X350740590Y-172191393D02*
X350728169Y-172243044D01*
X350740590Y-172191393D02*
X350740590Y-172191393D01*
X350749348Y-172137133D02*
X350740590Y-172191393D01*
X350749348Y-172137133D02*
X350749348Y-172137133D01*
X350756062Y-172083391D02*
X350749348Y-172137133D01*
X350756062Y-172083391D02*
X350756062Y-172083391D01*
X350760182Y-172029131D02*
X350756062Y-172083391D01*
X350760182Y-172029131D02*
X350760182Y-172029131D01*
X350762226Y-171973330D02*
X350760182Y-172029131D01*
X350762226Y-171973330D02*
X350762226Y-171973330D01*
X350760182Y-171918032D02*
X350762226Y-171973330D01*
X350760182Y-171918032D02*
X350760182Y-171918032D01*
X350756062Y-171863238D02*
X350760182Y-171918032D01*
X350756062Y-171863238D02*
X350756062Y-171863238D01*
X350749348Y-171808993D02*
X350756062Y-171863238D01*
X350749348Y-171808993D02*
X350749348Y-171808993D01*
X350740590Y-171756289D02*
X350749348Y-171808993D01*
X350740590Y-171756289D02*
X350740590Y-171756289D01*
X350728169Y-171704088D02*
X350740590Y-171756289D01*
X350728169Y-171704088D02*
X350728169Y-171704088D01*
X350713185Y-171652941D02*
X350728169Y-171704088D01*
X350713185Y-171652941D02*
X350713185Y-171652941D01*
X350696125Y-171603319D02*
X350713185Y-171652941D01*
X350696125Y-171603319D02*
X350696125Y-171603319D01*
X350677510Y-171554232D02*
X350696125Y-171603319D01*
X350677510Y-171554232D02*
X350677510Y-171554232D01*
X350656330Y-171506167D02*
X350677510Y-171554232D01*
X350656330Y-171506167D02*
X350656330Y-171506167D01*
X350632557Y-171459139D02*
X350656330Y-171506167D01*
X350632557Y-171459139D02*
X350632557Y-171459139D01*
X350606160Y-171414187D02*
X350632557Y-171459139D01*
X350606160Y-171414187D02*
X350606160Y-171414187D01*
X350578267Y-171370272D02*
X350606160Y-171414187D01*
X350578267Y-171370272D02*
X350578267Y-171370272D01*
X350548298Y-171328417D02*
X350578267Y-171370272D01*
X350548298Y-171328417D02*
X350548298Y-171328417D01*
X350516255Y-171287066D02*
X350548298Y-171328417D01*
X350516255Y-171287066D02*
X350516255Y-171287066D01*
X350482136Y-171248308D02*
X350516255Y-171287066D01*
X350482136Y-171248308D02*
X350482136Y-171248308D01*
X350446492Y-171211092D02*
X350482136Y-171248308D01*
X350446492Y-171211092D02*
X350446492Y-171211092D01*
X350409291Y-171174929D02*
X350446492Y-171211092D01*
X350409291Y-171174929D02*
X350409291Y-171174929D01*
X350370533Y-171141344D02*
X350409291Y-171174929D01*
X350370533Y-171141344D02*
X350370533Y-171141344D01*
X350329182Y-171109286D02*
X350370533Y-171141344D01*
X350329182Y-171109286D02*
X350329182Y-171109286D01*
X350287312Y-171079317D02*
X350329182Y-171109286D01*
X350287312Y-171079317D02*
X350287312Y-171079317D01*
X350243397Y-171051424D02*
X350287312Y-171079317D01*
X350243397Y-171051424D02*
X350243397Y-171051424D01*
X350198445Y-171025072D02*
X350243397Y-171051424D01*
X350198445Y-171025072D02*
X350198445Y-171025072D01*
X350151417Y-171001284D02*
X350198445Y-171025072D01*
X350151417Y-171001284D02*
X350151417Y-171001284D01*
X350103352Y-170980105D02*
X350151417Y-171001284D01*
X350103352Y-170980105D02*
X350103352Y-170980105D01*
X350054280Y-170959963D02*
X350103352Y-170980105D01*
X350054280Y-170959963D02*
X350054280Y-170959963D01*
X350004139Y-170943423D02*
X350054280Y-170959963D01*
X350004139Y-170943423D02*
X350004139Y-170943423D01*
X349953511Y-170928957D02*
X350004139Y-170943423D01*
X349953511Y-170928957D02*
X349953511Y-170928957D01*
X349901326Y-170917086D02*
X349953511Y-170928957D01*
X349901326Y-170917086D02*
X349901326Y-170917086D01*
X349848103Y-170907259D02*
X349901326Y-170917086D01*
X349848103Y-170907259D02*
X349848103Y-170907259D01*
X349794331Y-170901049D02*
X349848103Y-170907259D01*
X349794331Y-170901049D02*
X349794331Y-170901049D01*
X349739033Y-170896395D02*
X349794331Y-170901049D01*
X349739033Y-170896395D02*
X349739033Y-170896395D01*
X349684254Y-170895373D02*
X349739033Y-170896395D01*
X436125538Y-170896380D02*
X436178212Y-170895373D01*
X436125538Y-170896380D02*
X436125538Y-170896380D01*
X436072316Y-170899996D02*
X436125538Y-170896380D01*
X436072316Y-170899996D02*
X436072316Y-170899996D01*
X436019093Y-170907229D02*
X436072316Y-170899996D01*
X436019093Y-170907229D02*
X436019093Y-170907229D01*
X435967427Y-170916018D02*
X436019093Y-170907229D01*
X435967427Y-170916018D02*
X435967427Y-170916018D01*
X435915211Y-170928408D02*
X435967427Y-170916018D01*
X435915211Y-170928408D02*
X435915211Y-170928408D01*
X435865101Y-170942385D02*
X435915211Y-170928408D01*
X435865101Y-170942385D02*
X435865101Y-170942385D01*
X435815510Y-170958391D02*
X435865101Y-170942385D01*
X435815510Y-170958391D02*
X435815510Y-170958391D01*
X435766407Y-170977007D02*
X435815510Y-170958391D01*
X435766407Y-170977007D02*
X435766407Y-170977007D01*
X435718342Y-170998186D02*
X435766407Y-170977007D01*
X435718342Y-170998186D02*
X435718342Y-170998186D01*
X435671315Y-171021960D02*
X435718342Y-170998186D01*
X435671315Y-171021960D02*
X435671315Y-171021960D01*
X435625325Y-171048312D02*
X435671315Y-171021960D01*
X435625325Y-171048312D02*
X435625325Y-171048312D01*
X435580372Y-171076220D02*
X435625325Y-171048312D01*
X435580372Y-171076220D02*
X435580372Y-171076220D01*
X435537495Y-171107226D02*
X435580372Y-171076220D01*
X435537495Y-171107226D02*
X435537495Y-171107226D01*
X435495137Y-171139269D02*
X435537495Y-171107226D01*
X435495137Y-171139269D02*
X435495137Y-171139269D01*
X435455311Y-171174410D02*
X435495137Y-171139269D01*
X435455311Y-171174410D02*
X435455311Y-171174410D01*
X435416554Y-171211092D02*
X435455311Y-171174410D01*
X435416554Y-171211092D02*
X435416554Y-171211092D01*
X435379353Y-171250384D02*
X435416554Y-171211092D01*
X435379353Y-171250384D02*
X435379353Y-171250384D01*
X435344227Y-171290163D02*
X435379353Y-171250384D01*
X435344227Y-171290163D02*
X435344227Y-171290163D01*
X435312184Y-171332033D02*
X435344227Y-171290163D01*
X435312184Y-171332033D02*
X435312184Y-171332033D01*
X435281178Y-171375429D02*
X435312184Y-171332033D01*
X435281178Y-171375429D02*
X435281178Y-171375429D01*
X435253254Y-171420382D02*
X435281178Y-171375429D01*
X435253254Y-171420382D02*
X435253254Y-171420382D01*
X435227436Y-171465334D02*
X435253254Y-171420382D01*
X435227436Y-171465334D02*
X435227436Y-171465334D01*
X435203144Y-171513399D02*
X435227436Y-171465334D01*
X435203144Y-171513399D02*
X435203144Y-171513399D01*
X435182484Y-171560946D02*
X435203144Y-171513399D01*
X435182484Y-171560946D02*
X435182484Y-171560946D01*
X435163380Y-171610049D02*
X435182484Y-171560946D01*
X435163380Y-171610049D02*
X435163380Y-171610049D01*
X435147358Y-171660158D02*
X435163380Y-171610049D01*
X435147358Y-171660158D02*
X435147358Y-171660158D01*
X435133412Y-171710284D02*
X435147358Y-171660158D01*
X435133412Y-171710284D02*
X435133412Y-171710284D01*
X435121479Y-171761965D02*
X435133412Y-171710284D01*
X435121479Y-171761965D02*
X435121479Y-171761965D01*
X435112172Y-171814150D02*
X435121479Y-171761965D01*
X435112172Y-171814150D02*
X435112172Y-171814150D01*
X435105458Y-171867373D02*
X435112172Y-171814150D01*
X435105458Y-171867373D02*
X435105458Y-171867373D01*
X435101338Y-171920077D02*
X435105458Y-171867373D01*
X435101338Y-171920077D02*
X435101338Y-171920077D01*
X435100300Y-171973299D02*
X435101338Y-171920077D01*
X435100300Y-171973299D02*
X435100300Y-171973299D01*
X435101338Y-172029116D02*
X435100300Y-171973299D01*
X435101338Y-172029116D02*
X435101338Y-172029116D01*
X435106526Y-172083376D02*
X435101338Y-172029116D01*
X435106526Y-172083376D02*
X435106526Y-172083376D01*
X435112202Y-172137118D02*
X435106526Y-172083376D01*
X435112202Y-172137118D02*
X435112202Y-172137118D01*
X435122548Y-172191378D02*
X435112202Y-172137118D01*
X435122548Y-172191378D02*
X435122548Y-172191378D01*
X435134419Y-172243029D02*
X435122548Y-172191378D01*
X435134419Y-172243029D02*
X435134419Y-172243029D01*
X435149403Y-172294207D02*
X435134419Y-172243029D01*
X435149403Y-172294207D02*
X435149403Y-172294207D01*
X435165425Y-172344332D02*
X435149403Y-172294207D01*
X435165425Y-172344332D02*
X435165425Y-172344332D01*
X435185597Y-172392901D02*
X435165425Y-172344332D01*
X435185597Y-172392901D02*
X435185597Y-172392901D01*
X435206257Y-172440966D02*
X435185597Y-172392901D01*
X435206257Y-172440966D02*
X435206257Y-172440966D01*
X435230549Y-172486971D02*
X435206257Y-172440966D01*
X435230549Y-172486971D02*
X435230549Y-172486971D01*
X435256367Y-172531908D02*
X435230549Y-172486971D01*
X435256367Y-172531908D02*
X435256367Y-172531908D01*
X435284291Y-172576357D02*
X435256367Y-172531908D01*
X435284291Y-172576357D02*
X435284291Y-172576357D01*
X435314259Y-172618212D02*
X435284291Y-172576357D01*
X435314259Y-172618212D02*
X435314259Y-172618212D01*
X435346302Y-172659045D02*
X435314259Y-172618212D01*
X435346302Y-172659045D02*
X435346302Y-172659045D01*
X435380391Y-172698321D02*
X435346302Y-172659045D01*
X435380391Y-172698321D02*
X435380391Y-172698321D01*
X435416584Y-172736040D02*
X435380391Y-172698321D01*
X435416584Y-172736040D02*
X435416584Y-172736040D01*
X435453297Y-172771181D02*
X435416584Y-172736040D01*
X435453297Y-172771181D02*
X435453297Y-172771181D01*
X435492573Y-172805270D02*
X435453297Y-172771181D01*
X435492573Y-172805270D02*
X435492573Y-172805270D01*
X435533406Y-172837328D02*
X435492573Y-172805270D01*
X435533406Y-172837328D02*
X435533406Y-172837328D01*
X435575245Y-172867297D02*
X435533406Y-172837328D01*
X435575245Y-172867297D02*
X435575245Y-172867297D01*
X435619191Y-172895190D02*
X435575245Y-172867297D01*
X435619191Y-172895190D02*
X435619191Y-172895190D01*
X435664662Y-172921038D02*
X435619191Y-172895190D01*
X435664662Y-172921038D02*
X435664662Y-172921038D01*
X435711171Y-172945330D02*
X435664662Y-172921038D01*
X435711171Y-172945330D02*
X435711171Y-172945330D01*
X435759236Y-172967013D02*
X435711171Y-172945330D01*
X435759236Y-172967013D02*
X435759236Y-172967013D01*
X435808308Y-172986132D02*
X435759236Y-172967013D01*
X435808308Y-172986132D02*
X435808308Y-172986132D01*
X435858448Y-173003191D02*
X435808308Y-172986132D01*
X435858448Y-173003191D02*
X435858448Y-173003191D01*
X435909626Y-173017153D02*
X435858448Y-173003191D01*
X435909626Y-173017153D02*
X435909626Y-173017153D01*
X435961293Y-173030062D02*
X435909626Y-173017153D01*
X435961293Y-173030062D02*
X435961293Y-173030062D01*
X436014515Y-173039370D02*
X435961293Y-173030062D01*
X436014515Y-173039370D02*
X436014515Y-173039370D01*
X436068287Y-173046068D02*
X436014515Y-173039370D01*
X436068287Y-173046068D02*
X436068287Y-173046068D01*
X436123585Y-173050219D02*
X436068287Y-173046068D01*
X436123585Y-173050219D02*
X436123585Y-173050219D01*
X436178364Y-173051241D02*
X436123585Y-173050219D01*
X436178364Y-173051241D02*
X436178364Y-173051241D01*
X436234669Y-173050219D02*
X436178364Y-173051241D01*
X436234669Y-173050219D02*
X436234669Y-173050219D01*
X436288411Y-173046068D02*
X436234669Y-173050219D01*
X436288411Y-173046068D02*
X436288411Y-173046068D01*
X436342671Y-173039370D02*
X436288411Y-173046068D01*
X436342671Y-173039370D02*
X436342671Y-173039370D01*
X436396412Y-173030062D02*
X436342671Y-173039370D01*
X436396412Y-173030062D02*
X436396412Y-173030062D01*
X436448597Y-173017153D02*
X436396412Y-173030062D01*
X436448597Y-173017153D02*
X436448597Y-173017153D01*
X436499226Y-173003176D02*
X436448597Y-173017153D01*
X436499226Y-173003176D02*
X436499226Y-173003176D01*
X436549336Y-172986117D02*
X436499226Y-173003176D01*
X436549336Y-172986117D02*
X436549336Y-172986117D01*
X436598408Y-172966997D02*
X436549336Y-172986117D01*
X436598408Y-172966997D02*
X436598408Y-172966997D01*
X436646473Y-172945299D02*
X436598408Y-172966997D01*
X436646473Y-172945299D02*
X436646473Y-172945299D01*
X436692463Y-172921023D02*
X436646473Y-172945299D01*
X436692463Y-172921023D02*
X436692463Y-172921023D01*
X436737416Y-172895174D02*
X436692463Y-172921023D01*
X436737416Y-172895174D02*
X436737416Y-172895174D01*
X436781361Y-172867281D02*
X436737416Y-172895174D01*
X436781361Y-172867281D02*
X436781361Y-172867281D01*
X436823231Y-172837313D02*
X436781361Y-172867281D01*
X436823231Y-172837313D02*
X436823231Y-172837313D01*
X436864552Y-172805270D02*
X436823231Y-172837313D01*
X436864552Y-172805270D02*
X436864552Y-172805270D01*
X436903309Y-172771181D02*
X436864552Y-172805270D01*
X436903309Y-172771181D02*
X436903309Y-172771181D01*
X436941548Y-172736040D02*
X436903309Y-172771181D01*
X436941548Y-172736040D02*
X436941548Y-172736040D01*
X436976185Y-172698321D02*
X436941548Y-172736040D01*
X436976185Y-172698321D02*
X436976185Y-172698321D01*
X437010304Y-172659045D02*
X436976185Y-172698321D01*
X437010304Y-172659045D02*
X437010304Y-172659045D01*
X437042317Y-172618212D02*
X437010304Y-172659045D01*
X437042317Y-172618212D02*
X437042317Y-172618212D01*
X437072316Y-172576357D02*
X437042317Y-172618212D01*
X437072316Y-172576357D02*
X437072316Y-172576357D01*
X437100209Y-172531908D02*
X437072316Y-172576357D01*
X437100209Y-172531908D02*
X437100209Y-172531908D01*
X437126545Y-172486971D02*
X437100209Y-172531908D01*
X437126545Y-172486971D02*
X437126545Y-172486971D01*
X437150319Y-172440966D02*
X437126545Y-172486971D01*
X437150319Y-172440966D02*
X437150319Y-172440966D01*
X437172535Y-172392901D02*
X437150319Y-172440966D01*
X437172535Y-172392901D02*
X437172535Y-172392901D01*
X437191151Y-172344332D02*
X437172535Y-172392901D01*
X437191151Y-172344332D02*
X437191151Y-172344332D01*
X437208210Y-172294207D02*
X437191151Y-172344332D01*
X437208210Y-172294207D02*
X437208210Y-172294207D01*
X437223195Y-172243029D02*
X437208210Y-172294207D01*
X437223195Y-172243029D02*
X437223195Y-172243029D01*
X437235585Y-172191378D02*
X437223195Y-172243029D01*
X437235585Y-172191378D02*
X437235585Y-172191378D01*
X437244343Y-172137118D02*
X437235585Y-172191378D01*
X437244343Y-172137118D02*
X437244343Y-172137118D01*
X437251576Y-172083376D02*
X437244343Y-172137118D01*
X437251576Y-172083376D02*
X437251576Y-172083376D01*
X437255177Y-172029116D02*
X437251576Y-172083376D01*
X437255177Y-172029116D02*
X437255177Y-172029116D01*
X437256215Y-171973299D02*
X437255177Y-172029116D01*
X437256215Y-171973299D02*
X437256215Y-171973299D01*
X437255177Y-171920077D02*
X437256215Y-171973299D01*
X437255177Y-171920077D02*
X437255177Y-171920077D01*
X437251576Y-171867373D02*
X437255177Y-171920077D01*
X437251576Y-171867373D02*
X437251576Y-171867373D01*
X437245350Y-171814150D02*
X437251576Y-171867373D01*
X437245350Y-171814150D02*
X437245350Y-171814150D01*
X437236561Y-171761965D02*
X437245350Y-171814150D01*
X437236561Y-171761965D02*
X437236561Y-171761965D01*
X437224171Y-171710284D02*
X437236561Y-171761965D01*
X437224171Y-171710284D02*
X437224171Y-171710284D01*
X437210225Y-171660158D02*
X437224171Y-171710284D01*
X437210225Y-171660158D02*
X437210225Y-171660158D01*
X437193165Y-171610033D02*
X437210225Y-171660158D01*
X437193165Y-171610033D02*
X437193165Y-171610033D01*
X437174580Y-171560915D02*
X437193165Y-171610033D01*
X437174580Y-171560915D02*
X437174580Y-171560915D01*
X437153401Y-171513384D02*
X437174580Y-171560915D01*
X437153401Y-171513384D02*
X437153401Y-171513384D01*
X437129109Y-171465319D02*
X437153401Y-171513384D01*
X437129109Y-171465319D02*
X437129109Y-171465319D01*
X437104298Y-171420367D02*
X437129109Y-171465319D01*
X437104298Y-171420367D02*
X437104298Y-171420367D01*
X437075367Y-171375414D02*
X437104298Y-171420367D01*
X437075367Y-171375414D02*
X437075367Y-171375414D01*
X437045399Y-171332003D02*
X437075367Y-171375414D01*
X437045399Y-171332003D02*
X437045399Y-171332003D01*
X437012349Y-171290148D02*
X437045399Y-171332003D01*
X437012349Y-171290148D02*
X437012349Y-171290148D01*
X436978230Y-171250368D02*
X437012349Y-171290148D01*
X436978230Y-171250368D02*
X436978230Y-171250368D01*
X436941517Y-171211077D02*
X436978230Y-171250368D01*
X436941517Y-171211077D02*
X436941517Y-171211077D01*
X436902241Y-171174395D02*
X436941517Y-171211077D01*
X436902241Y-171174395D02*
X436902241Y-171174395D01*
X436862446Y-171139254D02*
X436902241Y-171174395D01*
X436862446Y-171139254D02*
X436862446Y-171139254D01*
X436820607Y-171107226D02*
X436862446Y-171139254D01*
X436820607Y-171107226D02*
X436820607Y-171107226D01*
X436776143Y-171076235D02*
X436820607Y-171107226D01*
X436776143Y-171076235D02*
X436776143Y-171076235D01*
X436732228Y-171048327D02*
X436776143Y-171076235D01*
X436732228Y-171048327D02*
X436732228Y-171048327D01*
X436686238Y-171021975D02*
X436732228Y-171048327D01*
X436686238Y-171021975D02*
X436686238Y-171021975D01*
X436639180Y-170998202D02*
X436686238Y-171021975D01*
X436639180Y-170998202D02*
X436639180Y-170998202D01*
X436591114Y-170977022D02*
X436639180Y-170998202D01*
X436591114Y-170977022D02*
X436591114Y-170977022D01*
X436542561Y-170958407D02*
X436591114Y-170977022D01*
X436542561Y-170958407D02*
X436542561Y-170958407D01*
X436492390Y-170942400D02*
X436542561Y-170958407D01*
X436492390Y-170942400D02*
X436492390Y-170942400D01*
X436441243Y-170928438D02*
X436492390Y-170942400D01*
X436441243Y-170928438D02*
X436441243Y-170928438D01*
X436390065Y-170916048D02*
X436441243Y-170928438D01*
X436390065Y-170916048D02*
X436390065Y-170916048D01*
X436337361Y-170907259D02*
X436390065Y-170916048D01*
X436337361Y-170907259D02*
X436337361Y-170907259D01*
X436285176Y-170900011D02*
X436337361Y-170907259D01*
X436285176Y-170900011D02*
X436285176Y-170900011D01*
X436232472Y-170896395D02*
X436285176Y-170900011D01*
X436232472Y-170896395D02*
X436232472Y-170896395D01*
X436178212Y-170895373D02*
X436232472Y-170896395D01*
X183025196Y-210492937D02*
X183078419Y-210492449D01*
X183025196Y-210492937D02*
X183025196Y-210492937D01*
X182972493Y-210497088D02*
X183025196Y-210492937D01*
X182972493Y-210497088D02*
X182972493Y-210497088D01*
X182919270Y-210504320D02*
X182972493Y-210497088D01*
X182919270Y-210504320D02*
X182919270Y-210504320D01*
X182867070Y-210513094D02*
X182919270Y-210504320D01*
X182867070Y-210513094D02*
X182867070Y-210513094D01*
X182816441Y-210523943D02*
X182867070Y-210513094D01*
X182816441Y-210523943D02*
X182816441Y-210523943D01*
X182765278Y-210538409D02*
X182816441Y-210523943D01*
X182765278Y-210538409D02*
X182765278Y-210538409D01*
X182715153Y-210554949D02*
X182765278Y-210538409D01*
X182715153Y-210554949D02*
X182715153Y-210554949D01*
X182666066Y-210574068D02*
X182715153Y-210554949D01*
X182666066Y-210574068D02*
X182666066Y-210574068D01*
X182618519Y-210595263D02*
X182666066Y-210574068D01*
X182618519Y-210595263D02*
X182618519Y-210595263D01*
X182571492Y-210619036D02*
X182618519Y-210595263D01*
X182571492Y-210619036D02*
X182571492Y-210619036D01*
X182525502Y-210645403D02*
X182571492Y-210619036D01*
X182525502Y-210645403D02*
X182525502Y-210645403D01*
X182480549Y-210673312D02*
X182525502Y-210645403D01*
X182480549Y-210673312D02*
X182480549Y-210673312D01*
X182437138Y-210703295D02*
X182480549Y-210673312D01*
X182437138Y-210703295D02*
X182437138Y-210703295D01*
X182395283Y-210736361D02*
X182437138Y-210703295D01*
X182395283Y-210736361D02*
X182395283Y-210736361D01*
X182355488Y-210770983D02*
X182395283Y-210736361D01*
X182355488Y-210770983D02*
X182355488Y-210770983D01*
X182316227Y-210808199D02*
X182355488Y-210770983D01*
X182316227Y-210808199D02*
X182316227Y-210808199D01*
X182279545Y-210846438D02*
X182316227Y-210808199D01*
X182279545Y-210846438D02*
X182279545Y-210846438D01*
X182244404Y-210887255D02*
X182279545Y-210846438D01*
X182244404Y-210887255D02*
X182244404Y-210887255D01*
X182212376Y-210928088D02*
X182244404Y-210887255D01*
X182212376Y-210928088D02*
X182212376Y-210928088D01*
X182181355Y-210972018D02*
X182212376Y-210928088D01*
X182181355Y-210972018D02*
X182181355Y-210972018D01*
X182153462Y-211016451D02*
X182181355Y-210972018D01*
X182153462Y-211016451D02*
X182153462Y-211016451D01*
X182127095Y-211062441D02*
X182153462Y-211016451D01*
X182127095Y-211062441D02*
X182127095Y-211062441D01*
X182103321Y-211108950D02*
X182127095Y-211062441D01*
X182103321Y-211108950D02*
X182103321Y-211108950D01*
X182082127Y-211157015D02*
X182103321Y-211108950D01*
X182082127Y-211157015D02*
X182082127Y-211157015D01*
X182063527Y-211206103D02*
X182082127Y-211157015D01*
X182063527Y-211206103D02*
X182063527Y-211206103D01*
X182047505Y-211256213D02*
X182063527Y-211206103D01*
X182047505Y-211256213D02*
X182047505Y-211256213D01*
X182033558Y-211307391D02*
X182047505Y-211256213D01*
X182033558Y-211307391D02*
X182033558Y-211307391D01*
X182021138Y-211359072D02*
X182033558Y-211307391D01*
X182021138Y-211359072D02*
X182021138Y-211359072D01*
X182012349Y-211411257D02*
X182021138Y-211359072D01*
X182012349Y-211411257D02*
X182012349Y-211411257D01*
X182005116Y-211463473D02*
X182012349Y-211411257D01*
X182005116Y-211463473D02*
X182005116Y-211463473D01*
X182001500Y-211516177D02*
X182005116Y-211463473D01*
X182001500Y-211516177D02*
X182001500Y-211516177D01*
X182000462Y-211570422D02*
X182001500Y-211516177D01*
X182000462Y-211570422D02*
X182000462Y-211570422D01*
X182002537Y-211625201D02*
X182000462Y-211570422D01*
X182002537Y-211625201D02*
X182002537Y-211625201D01*
X182006153Y-211679980D02*
X182002537Y-211625201D01*
X182006153Y-211679980D02*
X182006153Y-211679980D01*
X182013371Y-211734240D02*
X182006153Y-211679980D01*
X182013371Y-211734240D02*
X182013371Y-211734240D01*
X182022160Y-211787463D02*
X182013371Y-211734240D01*
X182022160Y-211787463D02*
X182022160Y-211787463D01*
X182034047Y-211839129D02*
X182022160Y-211787463D01*
X182034047Y-211839129D02*
X182034047Y-211839129D01*
X182049549Y-211891329D02*
X182034047Y-211839129D01*
X182049549Y-211891329D02*
X182049549Y-211891329D01*
X182066075Y-211941439D02*
X182049549Y-211891329D01*
X182066075Y-211941439D02*
X182066075Y-211941439D01*
X182085209Y-211990008D02*
X182066075Y-211941439D01*
X182085209Y-211990008D02*
X182085209Y-211990008D01*
X182106388Y-212037035D02*
X182085209Y-211990008D01*
X182106388Y-212037035D02*
X182106388Y-212037035D01*
X182130162Y-212084063D02*
X182106388Y-212037035D01*
X182130162Y-212084063D02*
X182130162Y-212084063D01*
X182156514Y-212129015D02*
X182130162Y-212084063D01*
X182156514Y-212129015D02*
X182156514Y-212129015D01*
X182184422Y-212172945D02*
X182156514Y-212129015D01*
X182184422Y-212172945D02*
X182184422Y-212172945D01*
X182214390Y-212215319D02*
X182184422Y-212172945D01*
X182214390Y-212215319D02*
X182214390Y-212215319D01*
X182246418Y-212256136D02*
X182214390Y-212215319D01*
X182246418Y-212256136D02*
X182246418Y-212256136D01*
X182280537Y-212295412D02*
X182246418Y-212256136D01*
X182280537Y-212295412D02*
X182280537Y-212295412D01*
X182316197Y-212332110D02*
X182280537Y-212295412D01*
X182316197Y-212332110D02*
X182316197Y-212332110D01*
X182353398Y-212368288D02*
X182316197Y-212332110D01*
X182353398Y-212368288D02*
X182353398Y-212368288D01*
X182392140Y-212402392D02*
X182353398Y-212368288D01*
X182392140Y-212402392D02*
X182392140Y-212402392D01*
X182433491Y-212434420D02*
X182392140Y-212402392D01*
X182433491Y-212434420D02*
X182433491Y-212434420D01*
X182475346Y-212464388D02*
X182433491Y-212434420D01*
X182475346Y-212464388D02*
X182475346Y-212464388D01*
X182519276Y-212492297D02*
X182475346Y-212464388D01*
X182519276Y-212492297D02*
X182519276Y-212492297D01*
X182564228Y-212518145D02*
X182519276Y-212492297D01*
X182564228Y-212518145D02*
X182564228Y-212518145D01*
X182611256Y-212542422D02*
X182564228Y-212518145D01*
X182611256Y-212542422D02*
X182611256Y-212542422D01*
X182659321Y-212563097D02*
X182611256Y-212542422D01*
X182659321Y-212563097D02*
X182659321Y-212563097D01*
X182708409Y-212583254D02*
X182659321Y-212563097D01*
X182708409Y-212583254D02*
X182708409Y-212583254D01*
X182758534Y-212600313D02*
X182708409Y-212583254D01*
X182758534Y-212600313D02*
X182758534Y-212600313D01*
X182809163Y-212614260D02*
X182758534Y-212600313D01*
X182809163Y-212614260D02*
X182809163Y-212614260D01*
X182861363Y-212626162D02*
X182809163Y-212614260D01*
X182861363Y-212626162D02*
X182861363Y-212626162D01*
X182914067Y-212635973D02*
X182861363Y-212626162D01*
X182914067Y-212635973D02*
X182914067Y-212635973D01*
X182968327Y-212643206D02*
X182914067Y-212635973D01*
X182968327Y-212643206D02*
X182968327Y-212643206D01*
X183023106Y-212647341D02*
X182968327Y-212643206D01*
X183023106Y-212647341D02*
X183023106Y-212647341D01*
X183078404Y-212648379D02*
X183023106Y-212647341D01*
X183078404Y-212648379D02*
X183078404Y-212648379D01*
X183134221Y-212647341D02*
X183078404Y-212648379D01*
X183134221Y-212647341D02*
X183134221Y-212647341D01*
X183189518Y-212643206D02*
X183134221Y-212647341D01*
X183189518Y-212643206D02*
X183189518Y-212643206D01*
X183243260Y-212635973D02*
X183189518Y-212643206D01*
X183243260Y-212635973D02*
X183243260Y-212635973D01*
X183296498Y-212626162D02*
X183243260Y-212635973D01*
X183296498Y-212626162D02*
X183296498Y-212626162D01*
X183348179Y-212614260D02*
X183296498Y-212626162D01*
X183348179Y-212614260D02*
X183348179Y-212614260D01*
X183399342Y-212600313D02*
X183348179Y-212614260D01*
X183399342Y-212600313D02*
X183399342Y-212600313D01*
X183449452Y-212583254D02*
X183399342Y-212600313D01*
X183449452Y-212583254D02*
X183449452Y-212583254D01*
X183498539Y-212563097D02*
X183449452Y-212583254D01*
X183498539Y-212563097D02*
X183498539Y-212563097D01*
X183546101Y-212542422D02*
X183498539Y-212563097D01*
X183546101Y-212542422D02*
X183546101Y-212542422D01*
X183592076Y-212518145D02*
X183546101Y-212542422D01*
X183592076Y-212518145D02*
X183592076Y-212518145D01*
X183637043Y-212492297D02*
X183592076Y-212518145D01*
X183637043Y-212492297D02*
X183637043Y-212492297D01*
X183681492Y-212464388D02*
X183637043Y-212492297D01*
X183681492Y-212464388D02*
X183681492Y-212464388D01*
X183723347Y-212434420D02*
X183681492Y-212464388D01*
X183723347Y-212434420D02*
X183723347Y-212434420D01*
X183764164Y-212402392D02*
X183723347Y-212434420D01*
X183764164Y-212402392D02*
X183764164Y-212402392D01*
X183803440Y-212368288D02*
X183764164Y-212402392D01*
X183803440Y-212368288D02*
X183803440Y-212368288D01*
X183841160Y-212332110D02*
X183803440Y-212368288D01*
X183841160Y-212332110D02*
X183841160Y-212332110D01*
X183876286Y-212295412D02*
X183841160Y-212332110D01*
X183876286Y-212295412D02*
X183876286Y-212295412D01*
X183910405Y-212256136D02*
X183876286Y-212295412D01*
X183910405Y-212256136D02*
X183910405Y-212256136D01*
X183942433Y-212215319D02*
X183910405Y-212256136D01*
X183942433Y-212215319D02*
X183942433Y-212215319D01*
X183972416Y-212172945D02*
X183942433Y-212215319D01*
X183972416Y-212172945D02*
X183972416Y-212172945D01*
X184000325Y-212129015D02*
X183972416Y-212172945D01*
X184000325Y-212129015D02*
X184000325Y-212129015D01*
X184026158Y-212084063D02*
X184000325Y-212129015D01*
X184026158Y-212084063D02*
X184026158Y-212084063D01*
X184050450Y-212037035D02*
X184026158Y-212084063D01*
X184050450Y-212037035D02*
X184050450Y-212037035D01*
X184072148Y-211990008D02*
X184050450Y-212037035D01*
X184072148Y-211990008D02*
X184072148Y-211990008D01*
X184091267Y-211941439D02*
X184072148Y-211990008D01*
X184091267Y-211941439D02*
X184091267Y-211941439D01*
X184108326Y-211891329D02*
X184091267Y-211941439D01*
X184108326Y-211891329D02*
X184108326Y-211891329D01*
X184123295Y-211839114D02*
X184108326Y-211891329D01*
X184123295Y-211839114D02*
X184123295Y-211839114D01*
X184135182Y-211787447D02*
X184123295Y-211839114D01*
X184135182Y-211787447D02*
X184135182Y-211787447D01*
X184144474Y-211734225D02*
X184135182Y-211787447D01*
X184144474Y-211734225D02*
X184144474Y-211734225D01*
X184151204Y-211679964D02*
X184144474Y-211734225D01*
X184151204Y-211679964D02*
X184151204Y-211679964D01*
X184155323Y-211625185D02*
X184151204Y-211679964D01*
X184155323Y-211625185D02*
X184155323Y-211625185D01*
X184157399Y-211570406D02*
X184155323Y-211625185D01*
X184157399Y-211570406D02*
X184157399Y-211570406D01*
X184155323Y-211516161D02*
X184157399Y-211570406D01*
X184155323Y-211516161D02*
X184155323Y-211516161D01*
X184151204Y-211463457D02*
X184155323Y-211516161D01*
X184151204Y-211463457D02*
X184151204Y-211463457D01*
X184145512Y-211411257D02*
X184151204Y-211463457D01*
X184145512Y-211411257D02*
X184145512Y-211411257D01*
X184136204Y-211359072D02*
X184145512Y-211411257D01*
X184136204Y-211359072D02*
X184136204Y-211359072D01*
X184124333Y-211307391D02*
X184136204Y-211359072D01*
X184124333Y-211307391D02*
X184124333Y-211307391D01*
X184110386Y-211256213D02*
X184124333Y-211307391D01*
X184110386Y-211256213D02*
X184110386Y-211256213D01*
X184093327Y-211206103D02*
X184110386Y-211256213D01*
X184093327Y-211206103D02*
X184093327Y-211206103D01*
X184074208Y-211157015D02*
X184093327Y-211206103D01*
X184074208Y-211157015D02*
X184074208Y-211157015D01*
X184053028Y-211108950D02*
X184074208Y-211157015D01*
X184053028Y-211108950D02*
X184053028Y-211108950D01*
X184030293Y-211062441D02*
X184053028Y-211108950D01*
X184030293Y-211062441D02*
X184030293Y-211062441D01*
X184004460Y-211016451D02*
X184030293Y-211062441D01*
X184004460Y-211016451D02*
X184004460Y-211016451D01*
X183975529Y-210972018D02*
X184004460Y-211016451D01*
X183975529Y-210972018D02*
X183975529Y-210972018D01*
X183945561Y-210928088D02*
X183975529Y-210972018D01*
X183945561Y-210928088D02*
X183945561Y-210928088D01*
X183912480Y-210887255D02*
X183945561Y-210928088D01*
X183912480Y-210887255D02*
X183912480Y-210887255D01*
X183878392Y-210846438D02*
X183912480Y-210887255D01*
X183878392Y-210846438D02*
X183878392Y-210846438D01*
X183841175Y-210808199D02*
X183878392Y-210846438D01*
X183841175Y-210808199D02*
X183841175Y-210808199D01*
X183802403Y-210770983D02*
X183841175Y-210808199D01*
X183802403Y-210770983D02*
X183802403Y-210770983D01*
X183762104Y-210736361D02*
X183802403Y-210770983D01*
X183762104Y-210736361D02*
X183762104Y-210736361D01*
X183720250Y-210703295D02*
X183762104Y-210736361D01*
X183720250Y-210703295D02*
X183720250Y-210703295D01*
X183677342Y-210673312D02*
X183720250Y-210703295D01*
X183677342Y-210673312D02*
X183677342Y-210673312D01*
X183632405Y-210645403D02*
X183677342Y-210673312D01*
X183632405Y-210645403D02*
X183632405Y-210645403D01*
X183586399Y-210619051D02*
X183632405Y-210645403D01*
X183586399Y-210619051D02*
X183586399Y-210619051D01*
X183539372Y-210595278D02*
X183586399Y-210619051D01*
X183539372Y-210595278D02*
X183539372Y-210595278D01*
X183491307Y-210574084D02*
X183539372Y-210595278D01*
X183491307Y-210574084D02*
X183491307Y-210574084D01*
X183442219Y-210554964D02*
X183491307Y-210574084D01*
X183442219Y-210554964D02*
X183442219Y-210554964D01*
X183392094Y-210538424D02*
X183442219Y-210554964D01*
X183392094Y-210538424D02*
X183392094Y-210538424D01*
X183341465Y-210523958D02*
X183392094Y-210538424D01*
X183341465Y-210523958D02*
X183341465Y-210523958D01*
X183290287Y-210513109D02*
X183341465Y-210523958D01*
X183290287Y-210513109D02*
X183290287Y-210513109D01*
X183238087Y-210504336D02*
X183290287Y-210513109D01*
X183238087Y-210504336D02*
X183238087Y-210504336D01*
X183185383Y-210497103D02*
X183238087Y-210504336D01*
X183185383Y-210497103D02*
X183185383Y-210497103D01*
X183132161Y-210492953D02*
X183185383Y-210497103D01*
X183132161Y-210492953D02*
X183132161Y-210492953D01*
X183078419Y-210492449D02*
X183132161Y-210492953D01*
X340190144Y-210501208D02*
X340244526Y-210500185D01*
X340190144Y-210501208D02*
X340190144Y-210501208D01*
X340136921Y-210505358D02*
X340190144Y-210501208D01*
X340136921Y-210505358D02*
X340136921Y-210505358D01*
X340085255Y-210512057D02*
X340136921Y-210505358D01*
X340085255Y-210512057D02*
X340085255Y-210512057D01*
X340032032Y-210521364D02*
X340085255Y-210512057D01*
X340032032Y-210521364D02*
X340032032Y-210521364D01*
X339981373Y-210533251D02*
X340032032Y-210521364D01*
X339981373Y-210533251D02*
X339981373Y-210533251D01*
X339930195Y-210547213D02*
X339981373Y-210533251D01*
X339930195Y-210547213D02*
X339930195Y-210547213D01*
X339880055Y-210563219D02*
X339930195Y-210547213D01*
X339880055Y-210563219D02*
X339880055Y-210563219D01*
X339830983Y-210582354D02*
X339880055Y-210563219D01*
X339830983Y-210582354D02*
X339830983Y-210582354D01*
X339782917Y-210603014D02*
X339830983Y-210582354D01*
X339782917Y-210603014D02*
X339782917Y-210603014D01*
X339735859Y-210627306D02*
X339782917Y-210603014D01*
X339735859Y-210627306D02*
X339735859Y-210627306D01*
X339689900Y-210653139D02*
X339735859Y-210627306D01*
X339689900Y-210653139D02*
X339689900Y-210653139D01*
X339645955Y-210681048D02*
X339689900Y-210653139D01*
X339645955Y-210681048D02*
X339645955Y-210681048D01*
X339602009Y-210712054D02*
X339645955Y-210681048D01*
X339602009Y-210712054D02*
X339602009Y-210712054D01*
X339560170Y-210744097D02*
X339602009Y-210712054D01*
X339560170Y-210744097D02*
X339560170Y-210744097D01*
X339520375Y-210779223D02*
X339560170Y-210744097D01*
X339520375Y-210779223D02*
X339520375Y-210779223D01*
X339481129Y-210816439D02*
X339520375Y-210779223D01*
X339481129Y-210816439D02*
X339481129Y-210816439D01*
X339444966Y-210855196D02*
X339481129Y-210816439D01*
X339444966Y-210855196D02*
X339444966Y-210855196D01*
X339410328Y-210894991D02*
X339444966Y-210855196D01*
X339410328Y-210894991D02*
X339410328Y-210894991D01*
X339377278Y-210937350D02*
X339410328Y-210894991D01*
X339377278Y-210937350D02*
X339377278Y-210937350D01*
X339347309Y-210980257D02*
X339377278Y-210937350D01*
X339347309Y-210980257D02*
X339347309Y-210980257D01*
X339319386Y-211025210D02*
X339347309Y-210980257D01*
X339319386Y-211025210D02*
X339319386Y-211025210D01*
X339293049Y-211071200D02*
X339319386Y-211025210D01*
X339293049Y-211071200D02*
X339293049Y-211071200D01*
X339269276Y-211118212D02*
X339293049Y-211071200D01*
X339269276Y-211118212D02*
X339269276Y-211118212D01*
X339248097Y-211166277D02*
X339269276Y-211118212D01*
X339248097Y-211166277D02*
X339248097Y-211166277D01*
X339228962Y-211215365D02*
X339248097Y-211166277D01*
X339228962Y-211215365D02*
X339228962Y-211215365D01*
X339211903Y-211264986D02*
X339228962Y-211215365D01*
X339211903Y-211264986D02*
X339211903Y-211264986D01*
X339197956Y-211316149D02*
X339211903Y-211264986D01*
X339197956Y-211316149D02*
X339197956Y-211316149D01*
X339186085Y-211367327D02*
X339197956Y-211316149D01*
X339186085Y-211367327D02*
X339186085Y-211367327D01*
X339177266Y-211419009D02*
X339186085Y-211367327D01*
X339177266Y-211419009D02*
X339177266Y-211419009D01*
X339171070Y-211472216D02*
X339177266Y-211419009D01*
X339171070Y-211472216D02*
X339171070Y-211472216D01*
X339166951Y-211524920D02*
X339171070Y-211472216D01*
X339166951Y-211524920D02*
X339166951Y-211524920D01*
X339165913Y-211578158D02*
X339166951Y-211524920D01*
X339165913Y-211578158D02*
X339165913Y-211578158D01*
X339166951Y-211632418D02*
X339165913Y-211578158D01*
X339166951Y-211632418D02*
X339166951Y-211632418D01*
X339171070Y-211685122D02*
X339166951Y-211632418D01*
X339171070Y-211685122D02*
X339171070Y-211685122D01*
X339177266Y-211738344D02*
X339171070Y-211685122D01*
X339177266Y-211738344D02*
X339177266Y-211738344D01*
X339186085Y-211790011D02*
X339177266Y-211738344D01*
X339186085Y-211790011D02*
X339186085Y-211790011D01*
X339197956Y-211841173D02*
X339186085Y-211790011D01*
X339197956Y-211841173D02*
X339197956Y-211841173D01*
X339211903Y-211892336D02*
X339197956Y-211841173D01*
X339211903Y-211892336D02*
X339211903Y-211892336D01*
X339228962Y-211941943D02*
X339211903Y-211892336D01*
X339228962Y-211941943D02*
X339228962Y-211941943D01*
X339248066Y-211991030D02*
X339228962Y-211941943D01*
X339248066Y-211991030D02*
X339248066Y-211991030D01*
X339269246Y-212039095D02*
X339248066Y-211991030D01*
X339269246Y-212039095D02*
X339269246Y-212039095D01*
X339293019Y-212086123D02*
X339269246Y-212039095D01*
X339293019Y-212086123D02*
X339293019Y-212086123D01*
X339319355Y-212132113D02*
X339293019Y-212086123D01*
X339319355Y-212132113D02*
X339319355Y-212132113D01*
X339347279Y-212177065D02*
X339319355Y-212132113D01*
X339347279Y-212177065D02*
X339347279Y-212177065D01*
X339377247Y-212219958D02*
X339347279Y-212177065D01*
X339377247Y-212219958D02*
X339377247Y-212219958D01*
X339410298Y-212262331D02*
X339377247Y-212219958D01*
X339410298Y-212262331D02*
X339410298Y-212262331D01*
X339444935Y-212302126D02*
X339410298Y-212262331D01*
X339444935Y-212302126D02*
X339444935Y-212302126D01*
X339481099Y-212341387D02*
X339444935Y-212302126D01*
X339481099Y-212341387D02*
X339481099Y-212341387D01*
X339520344Y-212378069D02*
X339481099Y-212341387D01*
X339520344Y-212378069D02*
X339520344Y-212378069D01*
X339560139Y-212412188D02*
X339520344Y-212378069D01*
X339560139Y-212412188D02*
X339560139Y-212412188D01*
X339601979Y-212445254D02*
X339560139Y-212412188D01*
X339601979Y-212445254D02*
X339601979Y-212445254D01*
X339645924Y-212475222D02*
X339601979Y-212445254D01*
X339645924Y-212475222D02*
X339645924Y-212475222D01*
X339689869Y-212504168D02*
X339645924Y-212475222D01*
X339689869Y-212504168D02*
X339689869Y-212504168D01*
X339735829Y-212530016D02*
X339689869Y-212504168D01*
X339735829Y-212530016D02*
X339735829Y-212530016D01*
X339782887Y-212553255D02*
X339735829Y-212530016D01*
X339782887Y-212553255D02*
X339782887Y-212553255D01*
X339830952Y-212573931D02*
X339782887Y-212553255D01*
X339830952Y-212573931D02*
X339830952Y-212573931D01*
X339880024Y-212593050D02*
X339830952Y-212573931D01*
X339880024Y-212593050D02*
X339880024Y-212593050D01*
X339930165Y-212610110D02*
X339880024Y-212593050D01*
X339930165Y-212610110D02*
X339930165Y-212610110D01*
X339981343Y-212624056D02*
X339930165Y-212610110D01*
X339981343Y-212624056D02*
X339981343Y-212624056D01*
X340031971Y-212635943D02*
X339981343Y-212624056D01*
X340031971Y-212635943D02*
X340031971Y-212635943D01*
X340085194Y-212645235D02*
X340031971Y-212635943D01*
X340085194Y-212645235D02*
X340085194Y-212645235D01*
X340136860Y-212650927D02*
X340085194Y-212645235D01*
X340136860Y-212650927D02*
X340136860Y-212650927D01*
X340190083Y-212655062D02*
X340136860Y-212650927D01*
X340190083Y-212655062D02*
X340190083Y-212655062D01*
X340244343Y-212657137D02*
X340190083Y-212655062D01*
X340244343Y-212657137D02*
X340244343Y-212657137D01*
X340299122Y-212655062D02*
X340244343Y-212657137D01*
X340299122Y-212655062D02*
X340299122Y-212655062D01*
X340353932Y-212650927D02*
X340299122Y-212655062D01*
X340353932Y-212650927D02*
X340353932Y-212650927D01*
X340408192Y-212644198D02*
X340353932Y-212650927D01*
X340408192Y-212644198D02*
X340408192Y-212644198D01*
X340460896Y-212634905D02*
X340408192Y-212644198D01*
X340460896Y-212634905D02*
X340460896Y-212634905D01*
X340513081Y-212623019D02*
X340460896Y-212634905D01*
X340513081Y-212623019D02*
X340513081Y-212623019D01*
X340564259Y-212608019D02*
X340513081Y-212623019D01*
X340564259Y-212608019D02*
X340564259Y-212608019D01*
X340614918Y-212590975D02*
X340564259Y-212608019D01*
X340614918Y-212590975D02*
X340614918Y-212590975D01*
X340663990Y-212572359D02*
X340614918Y-212590975D01*
X340663990Y-212572359D02*
X340663990Y-212572359D01*
X340711049Y-212550143D02*
X340663990Y-212572359D01*
X340711049Y-212550143D02*
X340711049Y-212550143D01*
X340758046Y-212526369D02*
X340711049Y-212550143D01*
X340758046Y-212526369D02*
X340758046Y-212526369D01*
X340802998Y-212500017D02*
X340758046Y-212526369D01*
X340802998Y-212500017D02*
X340802998Y-212500017D01*
X340846943Y-212472109D02*
X340802998Y-212500017D01*
X340846943Y-212472109D02*
X340846943Y-212472109D01*
X340889302Y-212442141D02*
X340846943Y-212472109D01*
X340889302Y-212442141D02*
X340889302Y-212442141D01*
X340930134Y-212410113D02*
X340889302Y-212442141D01*
X340930134Y-212410113D02*
X340930134Y-212410113D01*
X340968892Y-212375994D02*
X340930134Y-212410113D01*
X340968892Y-212375994D02*
X340968892Y-212375994D01*
X341006123Y-212341372D02*
X340968892Y-212375994D01*
X341006123Y-212341372D02*
X341006123Y-212341372D01*
X341042286Y-212303133D02*
X341006123Y-212341372D01*
X341042286Y-212303133D02*
X341042286Y-212303133D01*
X341076374Y-212264361D02*
X341042286Y-212303133D01*
X341076374Y-212264361D02*
X341076374Y-212264361D01*
X341107899Y-212223025D02*
X341076374Y-212264361D01*
X341107899Y-212223025D02*
X341107899Y-212223025D01*
X341138386Y-212181170D02*
X341107899Y-212223025D01*
X341138386Y-212181170D02*
X341138386Y-212181170D01*
X341166310Y-212137240D02*
X341138386Y-212181170D01*
X341166310Y-212137240D02*
X341166310Y-212137240D01*
X341192128Y-212092287D02*
X341166310Y-212137240D01*
X341192128Y-212092287D02*
X341192128Y-212092287D01*
X341215901Y-212046297D02*
X341192128Y-212092287D01*
X341215901Y-212046297D02*
X341215901Y-212046297D01*
X341237080Y-211998232D02*
X341215901Y-212046297D01*
X341237080Y-211998232D02*
X341237080Y-211998232D01*
X341257252Y-211949145D02*
X341237080Y-211998232D01*
X341257252Y-211949145D02*
X341257252Y-211949145D01*
X341274311Y-211899020D02*
X341257252Y-211949145D01*
X341274311Y-211899020D02*
X341274311Y-211899020D01*
X341288258Y-211848376D02*
X341274311Y-211899020D01*
X341288258Y-211848376D02*
X341288258Y-211848376D01*
X341300160Y-211796191D02*
X341288258Y-211848376D01*
X341300160Y-211796191D02*
X341300160Y-211796191D01*
X341309986Y-211742968D02*
X341300160Y-211796191D01*
X341309986Y-211742968D02*
X341309986Y-211742968D01*
X341316182Y-211689226D02*
X341309986Y-211742968D01*
X341316182Y-211689226D02*
X341316182Y-211689226D01*
X341321370Y-211633929D02*
X341316182Y-211689226D01*
X341321370Y-211633929D02*
X341321370Y-211633929D01*
X341322407Y-211578127D02*
X341321370Y-211633929D01*
X341322407Y-211578127D02*
X341322407Y-211578127D01*
X341321370Y-211524889D02*
X341322407Y-211578127D01*
X341321370Y-211524889D02*
X341321370Y-211524889D01*
X341317250Y-211472185D02*
X341321370Y-211524889D01*
X341317250Y-211472185D02*
X341317250Y-211472185D01*
X341310017Y-211418978D02*
X341317250Y-211472185D01*
X341310017Y-211418978D02*
X341310017Y-211418978D01*
X341301228Y-211367297D02*
X341310017Y-211418978D01*
X341301228Y-211367297D02*
X341301228Y-211367297D01*
X341290364Y-211316119D02*
X341301228Y-211367297D01*
X341290364Y-211316119D02*
X341290364Y-211316119D01*
X341275380Y-211264956D02*
X341290364Y-211316119D01*
X341275380Y-211264956D02*
X341275380Y-211264956D01*
X341259388Y-211215334D02*
X341275380Y-211264956D01*
X341259388Y-211215334D02*
X341259388Y-211215334D01*
X341240254Y-211166247D02*
X341259388Y-211215334D01*
X341240254Y-211166247D02*
X341240254Y-211166247D01*
X341219075Y-211118182D02*
X341240254Y-211166247D01*
X341219075Y-211118182D02*
X341219075Y-211118182D01*
X341195301Y-211071169D02*
X341219075Y-211118182D01*
X341195301Y-211071169D02*
X341195301Y-211071169D01*
X341169484Y-211025179D02*
X341195301Y-211071169D01*
X341169484Y-211025179D02*
X341169484Y-211025179D01*
X341141041Y-210980212D02*
X341169484Y-211025179D01*
X341141041Y-210980212D02*
X341141041Y-210980212D01*
X341110035Y-210937319D02*
X341141041Y-210980212D01*
X341110035Y-210937319D02*
X341110035Y-210937319D01*
X341078022Y-210894961D02*
X341110035Y-210937319D01*
X341078022Y-210894961D02*
X341078022Y-210894961D01*
X341043385Y-210855166D02*
X341078022Y-210894961D01*
X341043385Y-210855166D02*
X341043385Y-210855166D01*
X341006184Y-210816408D02*
X341043385Y-210855166D01*
X341006184Y-210816408D02*
X341006184Y-210816408D01*
X340967427Y-210779192D02*
X341006184Y-210816408D01*
X340967427Y-210779192D02*
X340967427Y-210779192D01*
X340927143Y-210744051D02*
X340967427Y-210779192D01*
X340927143Y-210744051D02*
X340927143Y-210744051D01*
X340885273Y-210712023D02*
X340927143Y-210744051D01*
X340885273Y-210712023D02*
X340885273Y-210712023D01*
X340842396Y-210681032D02*
X340885273Y-210712023D01*
X340842396Y-210681032D02*
X340842396Y-210681032D01*
X340797444Y-210653124D02*
X340842396Y-210681032D01*
X340797444Y-210653124D02*
X340797444Y-210653124D01*
X340752491Y-210627291D02*
X340797444Y-210653124D01*
X340752491Y-210627291D02*
X340752491Y-210627291D01*
X340705433Y-210602999D02*
X340752491Y-210627291D01*
X340705433Y-210602999D02*
X340705433Y-210602999D01*
X340656361Y-210582323D02*
X340705433Y-210602999D01*
X340656361Y-210582323D02*
X340656361Y-210582323D01*
X340607258Y-210563204D02*
X340656361Y-210582323D01*
X340607258Y-210563204D02*
X340607258Y-210563204D01*
X340557118Y-210547198D02*
X340607258Y-210563204D01*
X340557118Y-210547198D02*
X340557118Y-210547198D01*
X340507008Y-210533236D02*
X340557118Y-210547198D01*
X340507008Y-210533236D02*
X340507008Y-210533236D01*
X340455342Y-210521364D02*
X340507008Y-210533236D01*
X340455342Y-210521364D02*
X340455342Y-210521364D01*
X340403126Y-210512057D02*
X340455342Y-210521364D01*
X340403126Y-210512057D02*
X340403126Y-210512057D01*
X340350422Y-210505358D02*
X340403126Y-210512057D01*
X340350422Y-210505358D02*
X340350422Y-210505358D01*
X340297230Y-210501208D02*
X340350422Y-210505358D01*
X340297230Y-210501208D02*
X340297230Y-210501208D01*
X340244526Y-210500185D02*
X340297230Y-210501208D01*
X263973164Y-229551195D02*
X264027455Y-229549151D01*
X263973164Y-229551195D02*
X263973164Y-229551195D01*
X263920460Y-229555346D02*
X263973164Y-229551195D01*
X263920460Y-229555346D02*
X263920460Y-229555346D01*
X263868245Y-229561022D02*
X263920460Y-229555346D01*
X263868245Y-229561022D02*
X263868245Y-229561022D01*
X263815022Y-229570330D02*
X263868245Y-229561022D01*
X263815022Y-229570330D02*
X263815022Y-229570330D01*
X263764363Y-229582232D02*
X263815022Y-229570330D01*
X263764363Y-229582232D02*
X263764363Y-229582232D01*
X263713215Y-229596178D02*
X263764363Y-229582232D01*
X263713215Y-229596178D02*
X263713215Y-229596178D01*
X263663105Y-229612200D02*
X263713215Y-229596178D01*
X263663105Y-229612200D02*
X263663105Y-229612200D01*
X263614003Y-229631304D02*
X263663105Y-229612200D01*
X263614003Y-229631304D02*
X263614003Y-229631304D01*
X263566456Y-229653002D02*
X263614003Y-229631304D01*
X263566456Y-229653002D02*
X263566456Y-229653002D01*
X263519429Y-229676256D02*
X263566456Y-229653002D01*
X263519429Y-229676256D02*
X263519429Y-229676256D01*
X263473439Y-229702105D02*
X263519429Y-229676256D01*
X263473439Y-229702105D02*
X263473439Y-229702105D01*
X263429005Y-229729998D02*
X263473439Y-229702105D01*
X263429005Y-229729998D02*
X263429005Y-229729998D01*
X263385090Y-229761004D02*
X263429005Y-229729998D01*
X263385090Y-229761004D02*
X263385090Y-229761004D01*
X263343220Y-229793078D02*
X263385090Y-229761004D01*
X263343220Y-229793078D02*
X263343220Y-229793078D01*
X263303425Y-229828203D02*
X263343220Y-229793078D01*
X263303425Y-229828203D02*
X263303425Y-229828203D01*
X263264180Y-229865404D02*
X263303425Y-229828203D01*
X263264180Y-229865404D02*
X263264180Y-229865404D01*
X263227986Y-229904162D02*
X263264180Y-229865404D01*
X263227986Y-229904162D02*
X263227986Y-229904162D01*
X263193379Y-229943957D02*
X263227986Y-229904162D01*
X263193379Y-229943957D02*
X263193379Y-229943957D01*
X263160298Y-229986346D02*
X263193379Y-229943957D01*
X263160298Y-229986346D02*
X263160298Y-229986346D01*
X263130299Y-230029223D02*
X263160298Y-229986346D01*
X263130299Y-230029223D02*
X263130299Y-230029223D01*
X263102406Y-230074175D02*
X263130299Y-230029223D01*
X263102406Y-230074175D02*
X263102406Y-230074175D01*
X263076039Y-230120165D02*
X263102406Y-230074175D01*
X263076039Y-230120165D02*
X263076039Y-230120165D01*
X263052266Y-230167193D02*
X263076039Y-230120165D01*
X263052266Y-230167193D02*
X263052266Y-230167193D01*
X263031086Y-230215258D02*
X263052266Y-230167193D01*
X263031086Y-230215258D02*
X263031086Y-230215258D01*
X263011952Y-230264361D02*
X263031086Y-230215258D01*
X263011952Y-230264361D02*
X263011952Y-230264361D01*
X262995411Y-230313982D02*
X263011952Y-230264361D01*
X262995411Y-230313982D02*
X262995411Y-230313982D01*
X262981465Y-230365160D02*
X262995411Y-230313982D01*
X262981465Y-230365160D02*
X262981465Y-230365160D01*
X262969044Y-230416308D02*
X262981465Y-230365160D01*
X262969044Y-230416308D02*
X262969044Y-230416308D01*
X262960255Y-230467974D02*
X262969044Y-230416308D01*
X262960255Y-230467974D02*
X262960255Y-230467974D01*
X262954060Y-230521197D02*
X262960255Y-230467974D01*
X262954060Y-230521197D02*
X262954060Y-230521197D01*
X262950459Y-230574450D02*
X262954060Y-230521197D01*
X262950459Y-230574450D02*
X262950459Y-230574450D01*
X262949421Y-230628191D02*
X262950459Y-230574450D01*
X262949421Y-230628191D02*
X262949421Y-230628191D01*
X262950459Y-230682970D02*
X262949421Y-230628191D01*
X262950459Y-230682970D02*
X262950459Y-230682970D01*
X262954060Y-230738268D02*
X262950459Y-230682970D01*
X262954060Y-230738268D02*
X262954060Y-230738268D01*
X262961293Y-230792010D02*
X262954060Y-230738268D01*
X262961293Y-230792010D02*
X262961293Y-230792010D01*
X262970082Y-230845232D02*
X262961293Y-230792010D01*
X262970082Y-230845232D02*
X262970082Y-230845232D01*
X262983021Y-230897448D02*
X262970082Y-230845232D01*
X262983021Y-230897448D02*
X262983021Y-230897448D01*
X262996968Y-230948077D02*
X262983021Y-230897448D01*
X262996968Y-230948077D02*
X262996968Y-230948077D01*
X263014027Y-230998217D02*
X262996968Y-230948077D01*
X263014027Y-230998217D02*
X263014027Y-230998217D01*
X263033131Y-231047320D02*
X263014027Y-230998217D01*
X263033131Y-231047320D02*
X263033131Y-231047320D01*
X263055378Y-231095385D02*
X263033131Y-231047320D01*
X263055378Y-231095385D02*
X263055378Y-231095385D01*
X263079152Y-231141375D02*
X263055378Y-231095385D01*
X263079152Y-231141375D02*
X263079152Y-231141375D01*
X263104969Y-231187365D02*
X263079152Y-231141375D01*
X263104969Y-231187365D02*
X263104969Y-231187365D01*
X263133412Y-231230242D02*
X263104969Y-231187365D01*
X263133412Y-231230242D02*
X263133412Y-231230242D01*
X263163380Y-231273150D02*
X263133412Y-231230242D01*
X263163380Y-231273150D02*
X263163380Y-231273150D01*
X263195393Y-231313463D02*
X263163380Y-231273150D01*
X263195393Y-231313463D02*
X263195393Y-231313463D01*
X263228993Y-231353228D02*
X263195393Y-231313463D01*
X263228993Y-231353228D02*
X263228993Y-231353228D01*
X263264119Y-231390459D02*
X263228993Y-231353228D01*
X263264119Y-231390459D02*
X263264119Y-231390459D01*
X263302357Y-231426104D02*
X263264119Y-231390459D01*
X263302357Y-231426104D02*
X263302357Y-231426104D01*
X263341114Y-231460223D02*
X263302357Y-231426104D01*
X263341114Y-231460223D02*
X263341114Y-231460223D01*
X263381947Y-231492235D02*
X263341114Y-231460223D01*
X263381947Y-231492235D02*
X263381947Y-231492235D01*
X263424305Y-231522204D02*
X263381947Y-231492235D01*
X263424305Y-231522204D02*
X263424305Y-231522204D01*
X263468251Y-231550127D02*
X263424305Y-231522204D01*
X263468251Y-231550127D02*
X263468251Y-231550127D01*
X263513203Y-231576464D02*
X263468251Y-231550127D01*
X263513203Y-231576464D02*
X263513203Y-231576464D01*
X263559193Y-231599200D02*
X263513203Y-231576464D01*
X263559193Y-231599200D02*
X263559193Y-231599200D01*
X263607258Y-231621447D02*
X263559193Y-231599200D01*
X263607258Y-231621447D02*
X263607258Y-231621447D01*
X263656330Y-231640032D02*
X263607258Y-231621447D01*
X263656330Y-231640032D02*
X263656330Y-231640032D01*
X263705952Y-231657091D02*
X263656330Y-231640032D01*
X263705952Y-231657091D02*
X263705952Y-231657091D01*
X263757130Y-231672045D02*
X263705952Y-231657091D01*
X263757130Y-231672045D02*
X263757130Y-231672045D01*
X263810353Y-231684466D02*
X263757130Y-231672045D01*
X263810353Y-231684466D02*
X263810353Y-231684466D01*
X263863057Y-231693255D02*
X263810353Y-231684466D01*
X263863057Y-231693255D02*
X263863057Y-231693255D01*
X263917317Y-231700487D02*
X263863057Y-231693255D01*
X263917317Y-231700487D02*
X263917317Y-231700487D01*
X263971058Y-231704088D02*
X263917317Y-231700487D01*
X263971058Y-231704088D02*
X263971058Y-231704088D01*
X264027394Y-231706164D02*
X263971058Y-231704088D01*
X264027394Y-231706164D02*
X264027394Y-231706164D01*
X264082173Y-231704088D02*
X264027394Y-231706164D01*
X264082173Y-231704088D02*
X264082173Y-231704088D01*
X264136952Y-231700487D02*
X264082173Y-231704088D01*
X264136952Y-231700487D02*
X264136952Y-231700487D01*
X264191212Y-231693255D02*
X264136952Y-231700487D01*
X264191212Y-231693255D02*
X264191212Y-231693255D01*
X264244435Y-231684466D02*
X264191212Y-231693255D01*
X264244435Y-231684466D02*
X264244435Y-231684466D01*
X264296132Y-231672045D02*
X264244435Y-231684466D01*
X264296132Y-231672045D02*
X264296132Y-231672045D01*
X264347279Y-231657091D02*
X264296132Y-231672045D01*
X264347279Y-231657091D02*
X264347279Y-231657091D01*
X264398426Y-231640032D02*
X264347279Y-231657091D01*
X264398426Y-231640032D02*
X264398426Y-231640032D01*
X264447010Y-231621447D02*
X264398426Y-231640032D01*
X264447010Y-231621447D02*
X264447010Y-231621447D01*
X264494038Y-231599200D02*
X264447010Y-231621447D01*
X264494038Y-231599200D02*
X264494038Y-231599200D01*
X264541066Y-231576464D02*
X264494038Y-231599200D01*
X264541066Y-231576464D02*
X264541066Y-231576464D01*
X264586018Y-231550127D02*
X264541066Y-231576464D01*
X264586018Y-231550127D02*
X264586018Y-231550127D01*
X264630482Y-231522204D02*
X264586018Y-231550127D01*
X264630482Y-231522204D02*
X264630482Y-231522204D01*
X264672322Y-231492235D02*
X264630482Y-231522204D01*
X264672322Y-231492235D02*
X264672322Y-231492235D01*
X264713154Y-231460192D02*
X264672322Y-231492235D01*
X264713154Y-231460192D02*
X264713154Y-231460192D01*
X264752430Y-231426104D02*
X264713154Y-231460192D01*
X264752430Y-231426104D02*
X264752430Y-231426104D01*
X264789112Y-231390429D02*
X264752430Y-231426104D01*
X264789112Y-231390429D02*
X264789112Y-231390429D01*
X264825276Y-231353228D02*
X264789112Y-231390429D01*
X264825276Y-231353228D02*
X264825276Y-231353228D01*
X264859394Y-231313433D02*
X264825276Y-231353228D01*
X264859394Y-231313433D02*
X264859394Y-231313433D01*
X264891438Y-231273119D02*
X264859394Y-231313433D01*
X264891438Y-231273119D02*
X264891438Y-231273119D01*
X264921406Y-231230242D02*
X264891438Y-231273119D01*
X264921406Y-231230242D02*
X264921406Y-231230242D01*
X264949299Y-231187334D02*
X264921406Y-231230242D01*
X264949299Y-231187334D02*
X264949299Y-231187334D01*
X264975117Y-231141344D02*
X264949299Y-231187334D01*
X264975117Y-231141344D02*
X264975117Y-231141344D01*
X264999409Y-231095354D02*
X264975117Y-231141344D01*
X264999409Y-231095354D02*
X264999409Y-231095354D01*
X265020100Y-231047289D02*
X264999409Y-231095354D01*
X265020100Y-231047289D02*
X265020100Y-231047289D01*
X265040242Y-230998217D02*
X265020100Y-231047289D01*
X265040242Y-230998217D02*
X265040242Y-230998217D01*
X265057301Y-230948077D02*
X265040242Y-230998217D01*
X265057301Y-230948077D02*
X265057301Y-230948077D01*
X265071247Y-230897448D02*
X265057301Y-230948077D01*
X265071247Y-230897448D02*
X265071247Y-230897448D01*
X265083149Y-230845232D02*
X265071247Y-230897448D01*
X265083149Y-230845232D02*
X265083149Y-230845232D01*
X265092976Y-230792010D02*
X265083149Y-230845232D01*
X265092976Y-230792010D02*
X265092976Y-230792010D01*
X265099171Y-230738268D02*
X265092976Y-230792010D01*
X265099171Y-230738268D02*
X265099171Y-230738268D01*
X265104359Y-230682970D02*
X265099171Y-230738268D01*
X265104359Y-230682970D02*
X265104359Y-230682970D01*
X265105397Y-230628191D02*
X265104359Y-230682970D01*
X265105397Y-230628191D02*
X265105397Y-230628191D01*
X265104359Y-230574450D02*
X265105397Y-230628191D01*
X265104359Y-230574450D02*
X265104359Y-230574450D01*
X265100209Y-230521197D02*
X265104359Y-230574450D01*
X265100209Y-230521197D02*
X265100209Y-230521197D01*
X265092976Y-230467974D02*
X265100209Y-230521197D01*
X265092976Y-230467974D02*
X265092976Y-230467974D01*
X265084187Y-230416308D02*
X265092976Y-230467974D01*
X265084187Y-230416308D02*
X265084187Y-230416308D01*
X265073353Y-230365160D02*
X265084187Y-230416308D01*
X265073353Y-230365160D02*
X265073353Y-230365160D01*
X265058369Y-230313982D02*
X265073353Y-230365160D01*
X265058369Y-230313982D02*
X265058369Y-230313982D01*
X265042347Y-230264361D02*
X265058369Y-230313982D01*
X265042347Y-230264361D02*
X265042347Y-230264361D01*
X265023213Y-230215258D02*
X265042347Y-230264361D01*
X265023213Y-230215258D02*
X265023213Y-230215258D01*
X265002034Y-230167193D02*
X265023213Y-230215258D01*
X265002034Y-230167193D02*
X265002034Y-230167193D01*
X264978260Y-230120165D02*
X265002034Y-230167193D01*
X264978260Y-230120165D02*
X264978260Y-230120165D01*
X264952443Y-230074175D02*
X264978260Y-230120165D01*
X264952443Y-230074175D02*
X264952443Y-230074175D01*
X264924000Y-230029223D02*
X264952443Y-230074175D01*
X264924000Y-230029223D02*
X264924000Y-230029223D01*
X264892994Y-229986346D02*
X264924000Y-230029223D01*
X264892994Y-229986346D02*
X264892994Y-229986346D01*
X264861470Y-229943957D02*
X264892994Y-229986346D01*
X264861470Y-229943957D02*
X264861470Y-229943957D01*
X264826344Y-229904162D02*
X264861470Y-229943957D01*
X264826344Y-229904162D02*
X264826344Y-229904162D01*
X264789143Y-229865374D02*
X264826344Y-229904162D01*
X264789143Y-229865374D02*
X264789143Y-229865374D01*
X264750386Y-229828173D02*
X264789143Y-229865374D01*
X264750386Y-229828173D02*
X264750386Y-229828173D01*
X264710072Y-229793047D02*
X264750386Y-229828173D01*
X264710072Y-229793047D02*
X264710072Y-229793047D01*
X264668202Y-229761004D02*
X264710072Y-229793047D01*
X264668202Y-229761004D02*
X264668202Y-229761004D01*
X264625325Y-229729998D02*
X264668202Y-229761004D01*
X264625325Y-229729998D02*
X264625325Y-229729998D01*
X264580372Y-229702105D02*
X264625325Y-229729998D01*
X264580372Y-229702105D02*
X264580372Y-229702105D01*
X264535420Y-229676256D02*
X264580372Y-229702105D01*
X264535420Y-229676256D02*
X264535420Y-229676256D01*
X264488392Y-229653002D02*
X264535420Y-229676256D01*
X264488392Y-229653002D02*
X264488392Y-229653002D01*
X264439289Y-229631304D02*
X264488392Y-229653002D01*
X264439289Y-229631304D02*
X264439289Y-229631304D01*
X264390217Y-229612200D02*
X264439289Y-229631304D01*
X264390217Y-229612200D02*
X264390217Y-229612200D01*
X264340077Y-229596178D02*
X264390217Y-229612200D01*
X264340077Y-229596178D02*
X264340077Y-229596178D01*
X264290486Y-229582232D02*
X264340077Y-229596178D01*
X264290486Y-229582232D02*
X264290486Y-229582232D01*
X264238270Y-229570330D02*
X264290486Y-229582232D01*
X264238270Y-229570330D02*
X264238270Y-229570330D01*
X264186085Y-229561022D02*
X264238270Y-229570330D01*
X264186085Y-229561022D02*
X264186085Y-229561022D01*
X264133381Y-229555346D02*
X264186085Y-229561022D01*
X264133381Y-229555346D02*
X264133381Y-229555346D01*
X264080159Y-229551195D02*
X264133381Y-229555346D01*
X264080159Y-229551195D02*
X264080159Y-229551195D01*
X264027455Y-229549151D02*
X264080159Y-229551195D01*
X421147023Y-229562029D02*
X421202320Y-229561022D01*
X421147023Y-229562029D02*
X421147023Y-229562029D01*
X421092244Y-229566180D02*
X421147023Y-229562029D01*
X421092244Y-229566180D02*
X421092244Y-229566180D01*
X421037983Y-229573412D02*
X421092244Y-229566180D01*
X421037983Y-229573412D02*
X421037983Y-229573412D01*
X420985279Y-229583239D02*
X421037983Y-229573412D01*
X420985279Y-229583239D02*
X420985279Y-229583239D01*
X420933064Y-229595141D02*
X420985279Y-229583239D01*
X420933064Y-229595141D02*
X420933064Y-229595141D01*
X420882435Y-229609087D02*
X420933064Y-229595141D01*
X420882435Y-229609087D02*
X420882435Y-229609087D01*
X420832264Y-229626147D02*
X420882435Y-229609087D01*
X420832264Y-229626147D02*
X420832264Y-229626147D01*
X420783192Y-229646288D02*
X420832264Y-229626147D01*
X420783192Y-229646288D02*
X420783192Y-229646288D01*
X420735127Y-229666979D02*
X420783192Y-229646288D01*
X420735127Y-229666979D02*
X420735127Y-229666979D01*
X420689137Y-229691271D02*
X420735127Y-229666979D01*
X420689137Y-229691271D02*
X420689137Y-229691271D01*
X420643147Y-229717089D02*
X420689137Y-229691271D01*
X420643147Y-229717089D02*
X420643147Y-229717089D01*
X420600270Y-229745013D02*
X420643147Y-229717089D01*
X420600270Y-229745013D02*
X420600270Y-229745013D01*
X420557393Y-229774981D02*
X420600270Y-229745013D01*
X420557393Y-229774981D02*
X420557393Y-229774981D01*
X420517079Y-229806994D02*
X420557393Y-229774981D01*
X420517079Y-229806994D02*
X420517079Y-229806994D01*
X420477314Y-229841112D02*
X420517079Y-229806994D01*
X420477314Y-229841112D02*
X420477314Y-229841112D01*
X420440083Y-229877276D02*
X420477314Y-229841112D01*
X420440083Y-229877276D02*
X420440083Y-229877276D01*
X420404438Y-229913988D02*
X420440083Y-229877276D01*
X420404438Y-229913988D02*
X420404438Y-229913988D01*
X420370320Y-229953234D02*
X420404438Y-229913988D01*
X420370320Y-229953234D02*
X420370320Y-229953234D01*
X420338307Y-229994067D02*
X420370320Y-229953234D01*
X420338307Y-229994067D02*
X420338307Y-229994067D01*
X420308308Y-230035937D02*
X420338307Y-229994067D01*
X420308308Y-230035937D02*
X420308308Y-230035937D01*
X420280415Y-230080370D02*
X420308308Y-230035937D01*
X420280415Y-230080370D02*
X420280415Y-230080370D01*
X420254078Y-230125323D02*
X420280415Y-230080370D01*
X420254078Y-230125323D02*
X420254078Y-230125323D01*
X420231312Y-230172350D02*
X420254078Y-230125323D01*
X420231312Y-230172350D02*
X420231312Y-230172350D01*
X420209095Y-230219378D02*
X420231312Y-230172350D01*
X420209095Y-230219378D02*
X420209095Y-230219378D01*
X420189991Y-230267931D02*
X420209095Y-230219378D01*
X420189991Y-230267931D02*
X420189991Y-230267931D01*
X420173451Y-230318072D02*
X420189991Y-230267931D01*
X420173451Y-230318072D02*
X420173451Y-230318072D01*
X420158497Y-230370257D02*
X420173451Y-230318072D01*
X420158497Y-230370257D02*
X420158497Y-230370257D01*
X420146077Y-230421953D02*
X420158497Y-230370257D01*
X420146077Y-230421953D02*
X420146077Y-230421953D01*
X420137288Y-230475176D02*
X420146077Y-230421953D01*
X420137288Y-230475176D02*
X420137288Y-230475176D01*
X420130085Y-230528918D02*
X420137288Y-230475176D01*
X420130085Y-230528918D02*
X420130085Y-230528918D01*
X420126454Y-230584215D02*
X420130085Y-230528918D01*
X420126454Y-230584215D02*
X420126454Y-230584215D01*
X420124409Y-230638995D02*
X420126454Y-230584215D01*
X420124409Y-230638995D02*
X420124409Y-230638995D01*
X420126454Y-230695330D02*
X420124409Y-230638995D01*
X420126454Y-230695330D02*
X420126454Y-230695330D01*
X420130085Y-230749071D02*
X420126454Y-230695330D01*
X420130085Y-230749071D02*
X420130085Y-230749071D01*
X420137288Y-230803332D02*
X420130085Y-230749071D01*
X420137288Y-230803332D02*
X420137288Y-230803332D01*
X420146077Y-230856036D02*
X420137288Y-230803332D01*
X420146077Y-230856036D02*
X420146077Y-230856036D01*
X420158467Y-230909289D02*
X420146077Y-230856036D01*
X420158467Y-230909289D02*
X420158467Y-230909289D01*
X420173420Y-230960436D02*
X420158467Y-230909289D01*
X420173420Y-230960436D02*
X420173420Y-230960436D01*
X420189961Y-231010058D02*
X420173420Y-230960436D01*
X420189961Y-231010058D02*
X420189961Y-231010058D01*
X420209065Y-231059161D02*
X420189961Y-231010058D01*
X420209065Y-231059161D02*
X420209065Y-231059161D01*
X420231282Y-231106158D02*
X420209065Y-231059161D01*
X420231282Y-231106158D02*
X420231282Y-231106158D01*
X420254048Y-231153185D02*
X420231282Y-231106158D01*
X420254048Y-231153185D02*
X420254048Y-231153185D01*
X420280384Y-231198168D02*
X420254048Y-231153185D01*
X420280384Y-231198168D02*
X420280384Y-231198168D01*
X420308278Y-231242083D02*
X420280384Y-231198168D01*
X420308278Y-231242083D02*
X420308278Y-231242083D01*
X420338276Y-231283922D02*
X420308278Y-231242083D01*
X420338276Y-231283922D02*
X420338276Y-231283922D01*
X420370289Y-231325274D02*
X420338276Y-231283922D01*
X420370289Y-231325274D02*
X420370289Y-231325274D01*
X420404408Y-231364031D02*
X420370289Y-231325274D01*
X420404408Y-231364031D02*
X420404408Y-231364031D01*
X420440052Y-231401232D02*
X420404408Y-231364031D01*
X420440052Y-231401232D02*
X420440052Y-231401232D01*
X420477284Y-231437426D02*
X420440052Y-231401232D01*
X420477284Y-231437426D02*
X420477284Y-231437426D01*
X420517048Y-231470995D02*
X420477284Y-231437426D01*
X420517048Y-231470995D02*
X420517048Y-231470995D01*
X420557362Y-231503039D02*
X420517048Y-231470995D01*
X420557362Y-231503039D02*
X420557362Y-231503039D01*
X420600239Y-231533007D02*
X420557362Y-231503039D01*
X420600239Y-231533007D02*
X420600239Y-231533007D01*
X420643116Y-231561419D02*
X420600239Y-231533007D01*
X420643116Y-231561419D02*
X420643116Y-231561419D01*
X420689106Y-231587267D02*
X420643116Y-231561419D01*
X420689106Y-231587267D02*
X420689106Y-231587267D01*
X420735096Y-231611040D02*
X420689106Y-231587267D01*
X420735096Y-231611040D02*
X420735096Y-231611040D01*
X420783162Y-231633257D02*
X420735096Y-231611040D01*
X420783162Y-231633257D02*
X420783162Y-231633257D01*
X420832234Y-231652392D02*
X420783162Y-231633257D01*
X420832234Y-231652392D02*
X420832234Y-231652392D01*
X420882405Y-231669421D02*
X420832234Y-231652392D01*
X420882405Y-231669421D02*
X420882405Y-231669421D01*
X420933033Y-231683398D02*
X420882405Y-231669421D01*
X420933033Y-231683398D02*
X420933033Y-231683398D01*
X420985249Y-231695269D02*
X420933033Y-231683398D01*
X420985249Y-231695269D02*
X420985249Y-231695269D01*
X421037953Y-231705096D02*
X420985249Y-231695269D01*
X421037953Y-231705096D02*
X421037953Y-231705096D01*
X421092213Y-231712328D02*
X421037953Y-231705096D01*
X421092213Y-231712328D02*
X421092213Y-231712328D01*
X421146992Y-231715960D02*
X421092213Y-231712328D01*
X421146992Y-231715960D02*
X421146992Y-231715960D01*
X421202290Y-231716967D02*
X421146992Y-231715960D01*
X421202290Y-231716967D02*
X421202290Y-231716967D01*
X421258107Y-231715960D02*
X421202290Y-231716967D01*
X421258107Y-231715960D02*
X421258107Y-231715960D01*
X421313404Y-231712328D02*
X421258107Y-231715960D01*
X421313404Y-231712328D02*
X421313404Y-231712328D01*
X421367146Y-231705096D02*
X421313404Y-231712328D01*
X421367146Y-231705096D02*
X421367146Y-231705096D01*
X421420369Y-231695269D02*
X421367146Y-231705096D01*
X421420369Y-231695269D02*
X421420369Y-231695269D01*
X421472065Y-231683398D02*
X421420369Y-231695269D01*
X421472065Y-231683398D02*
X421472065Y-231683398D01*
X421523213Y-231669421D02*
X421472065Y-231683398D01*
X421523213Y-231669421D02*
X421523213Y-231669421D01*
X421573323Y-231652392D02*
X421523213Y-231669421D01*
X421573323Y-231652392D02*
X421573323Y-231652392D01*
X421622425Y-231633257D02*
X421573323Y-231652392D01*
X421622425Y-231633257D02*
X421622425Y-231633257D01*
X421669972Y-231611040D02*
X421622425Y-231633257D01*
X421669972Y-231611040D02*
X421669972Y-231611040D01*
X421715962Y-231587267D02*
X421669972Y-231611040D01*
X421715962Y-231587267D02*
X421715962Y-231587267D01*
X421761952Y-231561419D02*
X421715962Y-231587267D01*
X421761952Y-231561419D02*
X421761952Y-231561419D01*
X421805378Y-231533007D02*
X421761952Y-231561419D01*
X421805378Y-231533007D02*
X421805378Y-231533007D01*
X421848256Y-231503039D02*
X421805378Y-231533007D01*
X421848256Y-231503039D02*
X421848256Y-231503039D01*
X421888020Y-231470995D02*
X421848256Y-231503039D01*
X421888020Y-231470995D02*
X421888020Y-231470995D01*
X421927296Y-231437426D02*
X421888020Y-231470995D01*
X421927296Y-231437426D02*
X421927296Y-231437426D01*
X421965016Y-231401232D02*
X421927296Y-231437426D01*
X421965016Y-231401232D02*
X421965016Y-231401232D01*
X422001210Y-231364031D02*
X421965016Y-231401232D01*
X422001210Y-231364031D02*
X422001210Y-231364031D01*
X422034260Y-231325274D02*
X422001210Y-231364031D01*
X422034260Y-231325274D02*
X422034260Y-231325274D01*
X422066304Y-231283922D02*
X422034260Y-231325274D01*
X422066304Y-231283922D02*
X422066304Y-231283922D01*
X422097309Y-231242083D02*
X422066304Y-231283922D01*
X422097309Y-231242083D02*
X422097309Y-231242083D01*
X422125203Y-231198168D02*
X422097309Y-231242083D01*
X422125203Y-231198168D02*
X422125203Y-231198168D01*
X422151020Y-231153185D02*
X422125203Y-231198168D01*
X422151020Y-231153185D02*
X422151020Y-231153185D01*
X422174305Y-231106158D02*
X422151020Y-231153185D01*
X422174305Y-231106158D02*
X422174305Y-231106158D01*
X422196003Y-231059161D02*
X422174305Y-231106158D01*
X422196003Y-231059161D02*
X422196003Y-231059161D01*
X422215138Y-231010058D02*
X422196003Y-231059161D01*
X422215138Y-231010058D02*
X422215138Y-231010058D01*
X422232197Y-230960436D02*
X422215138Y-231010058D01*
X422232197Y-230960436D02*
X422232197Y-230960436D01*
X422247151Y-230909289D02*
X422232197Y-230960436D01*
X422247151Y-230909289D02*
X422247151Y-230909289D01*
X422259022Y-230856066D02*
X422247151Y-230909289D01*
X422259022Y-230856066D02*
X422259022Y-230856066D01*
X422268330Y-230803362D02*
X422259022Y-230856066D01*
X422268330Y-230803362D02*
X422268330Y-230803362D01*
X422275074Y-230749102D02*
X422268330Y-230803362D01*
X422275074Y-230749102D02*
X422275074Y-230749102D01*
X422279194Y-230695360D02*
X422275074Y-230749102D01*
X422279194Y-230695360D02*
X422279194Y-230695360D01*
X422281269Y-230639025D02*
X422279194Y-230695360D01*
X422281269Y-230639025D02*
X422281269Y-230639025D01*
X422279194Y-230584246D02*
X422281269Y-230639025D01*
X422279194Y-230584246D02*
X422279194Y-230584246D01*
X422275074Y-230528948D02*
X422279194Y-230584246D01*
X422275074Y-230528948D02*
X422275074Y-230528948D01*
X422268330Y-230475207D02*
X422275074Y-230528948D01*
X422268330Y-230475207D02*
X422268330Y-230475207D01*
X422259022Y-230421953D02*
X422268330Y-230475207D01*
X422259022Y-230421953D02*
X422259022Y-230421953D01*
X422247151Y-230370287D02*
X422259022Y-230421953D01*
X422247151Y-230370287D02*
X422247151Y-230370287D01*
X422232197Y-230318102D02*
X422247151Y-230370287D01*
X422232197Y-230318102D02*
X422232197Y-230318102D01*
X422215138Y-230267962D02*
X422232197Y-230318102D01*
X422215138Y-230267962D02*
X422215138Y-230267962D01*
X422196034Y-230219378D02*
X422215138Y-230267962D01*
X422196034Y-230219378D02*
X422196034Y-230219378D01*
X422174336Y-230172350D02*
X422196034Y-230219378D01*
X422174336Y-230172350D02*
X422174336Y-230172350D01*
X422151051Y-230125353D02*
X422174336Y-230172350D01*
X422151051Y-230125353D02*
X422151051Y-230125353D01*
X422125233Y-230080370D02*
X422151051Y-230125353D01*
X422125233Y-230080370D02*
X422125233Y-230080370D01*
X422097340Y-230035937D02*
X422125233Y-230080370D01*
X422097340Y-230035937D02*
X422097340Y-230035937D01*
X422066334Y-229994067D02*
X422097340Y-230035937D01*
X422066334Y-229994067D02*
X422066334Y-229994067D01*
X422034291Y-229953234D02*
X422066334Y-229994067D01*
X422034291Y-229953234D02*
X422034291Y-229953234D01*
X422001240Y-229913988D02*
X422034291Y-229953234D01*
X422001240Y-229913988D02*
X422001240Y-229913988D01*
X421965046Y-229877276D02*
X422001240Y-229913988D01*
X421965046Y-229877276D02*
X421965046Y-229877276D01*
X421927327Y-229841112D02*
X421965046Y-229877276D01*
X421927327Y-229841112D02*
X421927327Y-229841112D01*
X421888050Y-229806994D02*
X421927327Y-229841112D01*
X421888050Y-229806994D02*
X421888050Y-229806994D01*
X421848286Y-229774981D02*
X421888050Y-229806994D01*
X421848286Y-229774981D02*
X421848286Y-229774981D01*
X421805409Y-229745013D02*
X421848286Y-229774981D01*
X421805409Y-229745013D02*
X421805409Y-229745013D01*
X421761982Y-229717089D02*
X421805409Y-229745013D01*
X421761982Y-229717089D02*
X421761982Y-229717089D01*
X421715992Y-229691271D02*
X421761982Y-229717089D01*
X421715992Y-229691271D02*
X421715992Y-229691271D01*
X421670002Y-229666979D02*
X421715992Y-229691271D01*
X421670002Y-229666979D02*
X421670002Y-229666979D01*
X421622456Y-229646319D02*
X421670002Y-229666979D01*
X421622456Y-229646319D02*
X421622456Y-229646319D01*
X421573353Y-229626147D02*
X421622456Y-229646319D01*
X421573353Y-229626147D02*
X421573353Y-229626147D01*
X421523243Y-229609087D02*
X421573353Y-229626147D01*
X421523243Y-229609087D02*
X421523243Y-229609087D01*
X421472096Y-229595141D02*
X421523243Y-229609087D01*
X421472096Y-229595141D02*
X421472096Y-229595141D01*
X421420399Y-229583269D02*
X421472096Y-229595141D01*
X421420399Y-229583269D02*
X421420399Y-229583269D01*
X421367176Y-229573443D02*
X421420399Y-229583269D01*
X421367176Y-229573443D02*
X421367176Y-229573443D01*
X421313435Y-229566210D02*
X421367176Y-229573443D01*
X421313435Y-229566210D02*
X421313435Y-229566210D01*
X421258137Y-229562060D02*
X421313435Y-229566210D01*
X421258137Y-229562060D02*
X421258137Y-229562060D01*
X421202320Y-229561022D02*
X421258137Y-229562060D01*
X133879338Y-229784258D02*
X133935124Y-229782213D01*
X133879338Y-229784258D02*
X133879338Y-229784258D01*
X133824055Y-229788409D02*
X133879338Y-229784258D01*
X133824055Y-229788409D02*
X133824055Y-229788409D01*
X133770298Y-229795092D02*
X133824055Y-229788409D01*
X133770298Y-229795092D02*
X133770298Y-229795092D01*
X133717076Y-229804400D02*
X133770298Y-229795092D01*
X133717076Y-229804400D02*
X133717076Y-229804400D01*
X133665394Y-229816302D02*
X133717076Y-229804400D01*
X133665394Y-229816302D02*
X133665394Y-229816302D01*
X133614231Y-229831286D02*
X133665394Y-229816302D01*
X133614231Y-229831286D02*
X133614231Y-229831286D01*
X133564106Y-229848345D02*
X133614231Y-229831286D01*
X133564106Y-229848345D02*
X133564106Y-229848345D01*
X133515019Y-229866930D02*
X133564106Y-229848345D01*
X133515019Y-229866930D02*
X133515019Y-229866930D01*
X133467472Y-229889147D02*
X133515019Y-229866930D01*
X133467472Y-229889147D02*
X133467472Y-229889147D01*
X133421482Y-229912401D02*
X133467472Y-229889147D01*
X133421482Y-229912401D02*
X133421482Y-229912401D01*
X133375492Y-229938250D02*
X133421482Y-229912401D01*
X133375492Y-229938250D02*
X133375492Y-229938250D01*
X133332081Y-229966143D02*
X133375492Y-229938250D01*
X133332081Y-229966143D02*
X133332081Y-229966143D01*
X133289204Y-229996142D02*
X133332081Y-229966143D01*
X133289204Y-229996142D02*
X133289204Y-229996142D01*
X133249409Y-230029223D02*
X133289204Y-229996142D01*
X133249409Y-230029223D02*
X133249409Y-230029223D01*
X133210133Y-230062273D02*
X133249409Y-230029223D01*
X133210133Y-230062273D02*
X133210133Y-230062273D01*
X133172413Y-230097948D02*
X133210133Y-230062273D01*
X133172413Y-230097948D02*
X133172413Y-230097948D01*
X133136219Y-230136187D02*
X133172413Y-230097948D01*
X133136219Y-230136187D02*
X133136219Y-230136187D01*
X133103154Y-230174944D02*
X133136219Y-230136187D01*
X133103154Y-230174944D02*
X133103154Y-230174944D01*
X133071110Y-230215258D02*
X133103154Y-230174944D01*
X133071110Y-230215258D02*
X133071110Y-230215258D01*
X133040104Y-230258166D02*
X133071110Y-230215258D01*
X133040104Y-230258166D02*
X133040104Y-230258166D01*
X133012196Y-230301043D02*
X133040104Y-230258166D01*
X133012196Y-230301043D02*
X133012196Y-230301043D01*
X132986363Y-230347033D02*
X133012196Y-230301043D01*
X132986363Y-230347033D02*
X132986363Y-230347033D01*
X132963108Y-230393023D02*
X132986363Y-230347033D01*
X132963108Y-230393023D02*
X132963108Y-230393023D01*
X132941395Y-230441088D02*
X132963108Y-230393023D01*
X132941395Y-230441088D02*
X132941395Y-230441088D01*
X132922276Y-230490160D02*
X132941395Y-230441088D01*
X132922276Y-230490160D02*
X132922276Y-230490160D01*
X132905232Y-230540301D02*
X132922276Y-230490160D01*
X132905232Y-230540301D02*
X132905232Y-230540301D01*
X132890232Y-230590929D02*
X132905232Y-230540301D01*
X132890232Y-230590929D02*
X132890232Y-230590929D01*
X132878361Y-230643145D02*
X132890232Y-230590929D01*
X132878361Y-230643145D02*
X132878361Y-230643145D01*
X132869069Y-230696368D02*
X132878361Y-230643145D01*
X132869069Y-230696368D02*
X132869069Y-230696368D01*
X132862339Y-230750109D02*
X132869069Y-230696368D01*
X132862339Y-230750109D02*
X132862339Y-230750109D01*
X132858204Y-230805407D02*
X132862339Y-230750109D01*
X132858204Y-230805407D02*
X132858204Y-230805407D01*
X132856129Y-230861224D02*
X132858204Y-230805407D01*
X132856129Y-230861224D02*
X132856129Y-230861224D01*
X132858204Y-230916003D02*
X132856129Y-230861224D01*
X132858204Y-230916003D02*
X132858204Y-230916003D01*
X132862339Y-230971300D02*
X132858204Y-230916003D01*
X132862339Y-230971300D02*
X132862339Y-230971300D01*
X132869069Y-231025042D02*
X132862339Y-230971300D01*
X132869069Y-231025042D02*
X132869069Y-231025042D01*
X132878361Y-231078265D02*
X132869069Y-231025042D01*
X132878361Y-231078265D02*
X132878361Y-231078265D01*
X132890248Y-231129961D02*
X132878361Y-231078265D01*
X132890248Y-231129961D02*
X132890248Y-231129961D01*
X132905247Y-231181109D02*
X132890248Y-231129961D01*
X132905247Y-231181109D02*
X132905247Y-231181109D01*
X132922291Y-231231249D02*
X132905247Y-231181109D01*
X132922291Y-231231249D02*
X132922291Y-231231249D01*
X132941410Y-231280352D02*
X132922291Y-231231249D01*
X132941410Y-231280352D02*
X132941410Y-231280352D01*
X132963124Y-231328387D02*
X132941410Y-231280352D01*
X132963124Y-231328387D02*
X132963124Y-231328387D01*
X132986363Y-231374407D02*
X132963124Y-231328387D01*
X132986363Y-231374407D02*
X132986363Y-231374407D01*
X133012211Y-231420367D02*
X132986363Y-231374407D01*
X133012211Y-231420367D02*
X133012211Y-231420367D01*
X133040120Y-231463274D02*
X133012211Y-231420367D01*
X133040120Y-231463274D02*
X133040120Y-231463274D01*
X133071125Y-231506182D02*
X133040120Y-231463274D01*
X133071125Y-231506182D02*
X133071125Y-231506182D01*
X133103154Y-231545977D02*
X133071125Y-231506182D01*
X133103154Y-231545977D02*
X133103154Y-231545977D01*
X133136235Y-231585253D02*
X133103154Y-231545977D01*
X133136235Y-231585253D02*
X133136235Y-231585253D01*
X133172413Y-231623492D02*
X133136235Y-231585253D01*
X133172413Y-231623492D02*
X133172413Y-231623492D01*
X133210133Y-231659136D02*
X133172413Y-231623492D01*
X133210133Y-231659136D02*
X133210133Y-231659136D01*
X133249409Y-231693255D02*
X133210133Y-231659136D01*
X133249409Y-231693255D02*
X133249409Y-231693255D01*
X133289204Y-231725268D02*
X133249409Y-231693255D01*
X133289204Y-231725268D02*
X133289204Y-231725268D01*
X133332081Y-231755236D02*
X133289204Y-231725268D01*
X133332081Y-231755236D02*
X133332081Y-231755236D01*
X133375492Y-231783160D02*
X133332081Y-231755236D01*
X133375492Y-231783160D02*
X133375492Y-231783160D01*
X133421482Y-231808977D02*
X133375492Y-231783160D01*
X133421482Y-231808977D02*
X133421482Y-231808977D01*
X133467472Y-231832232D02*
X133421482Y-231808977D01*
X133467472Y-231832232D02*
X133467472Y-231832232D01*
X133515019Y-231854449D02*
X133467472Y-231832232D01*
X133515019Y-231854449D02*
X133515019Y-231854449D01*
X133564106Y-231873064D02*
X133515019Y-231854449D01*
X133564106Y-231873064D02*
X133564106Y-231873064D01*
X133614247Y-231890093D02*
X133564106Y-231873064D01*
X133614247Y-231890093D02*
X133614247Y-231890093D01*
X133665394Y-231905077D02*
X133614247Y-231890093D01*
X133665394Y-231905077D02*
X133665394Y-231905077D01*
X133717076Y-231916979D02*
X133665394Y-231905077D01*
X133717076Y-231916979D02*
X133717076Y-231916979D01*
X133770298Y-231926256D02*
X133717076Y-231916979D01*
X133770298Y-231926256D02*
X133770298Y-231926256D01*
X133824055Y-231933001D02*
X133770298Y-231926256D01*
X133824055Y-231933001D02*
X133824055Y-231933001D01*
X133879338Y-231937121D02*
X133824055Y-231933001D01*
X133879338Y-231937121D02*
X133879338Y-231937121D01*
X133935139Y-231939165D02*
X133879338Y-231937121D01*
X133935139Y-231939165D02*
X133935139Y-231939165D01*
X133990437Y-231937121D02*
X133935139Y-231939165D01*
X133990437Y-231937121D02*
X133990437Y-231937121D01*
X134045201Y-231933001D02*
X133990437Y-231937121D01*
X134045201Y-231933001D02*
X134045201Y-231933001D01*
X134099461Y-231926256D02*
X134045201Y-231933001D01*
X134099461Y-231926256D02*
X134099461Y-231926256D01*
X134152180Y-231916979D02*
X134099461Y-231926256D01*
X134152180Y-231916979D02*
X134152180Y-231916979D01*
X134204380Y-231905077D02*
X134152180Y-231916979D01*
X134204380Y-231905077D02*
X134204380Y-231905077D01*
X134255009Y-231890093D02*
X134204380Y-231905077D01*
X134255009Y-231890093D02*
X134255009Y-231890093D01*
X134305149Y-231873064D02*
X134255009Y-231890093D01*
X134305149Y-231873064D02*
X134305149Y-231873064D01*
X134354237Y-231854449D02*
X134305149Y-231873064D01*
X134354237Y-231854449D02*
X134354237Y-231854449D01*
X134402302Y-231832232D02*
X134354237Y-231854449D01*
X134402302Y-231832232D02*
X134402302Y-231832232D01*
X134449315Y-231808977D02*
X134402302Y-231832232D01*
X134449315Y-231808977D02*
X134449315Y-231808977D01*
X134494282Y-231783160D02*
X134449315Y-231808977D01*
X134494282Y-231783160D02*
X134494282Y-231783160D01*
X134537175Y-231755236D02*
X134494282Y-231783160D01*
X134537175Y-231755236D02*
X134537175Y-231755236D01*
X134580052Y-231725268D02*
X134537175Y-231755236D01*
X134580052Y-231725268D02*
X134580052Y-231725268D01*
X134620366Y-231693224D02*
X134580052Y-231725268D01*
X134620366Y-231693224D02*
X134620366Y-231693224D01*
X134660160Y-231659106D02*
X134620366Y-231693224D01*
X134660160Y-231659106D02*
X134660160Y-231659106D01*
X134697361Y-231623461D02*
X134660160Y-231659106D01*
X134697361Y-231623461D02*
X134697361Y-231623461D01*
X134733036Y-231585223D02*
X134697361Y-231623461D01*
X134733036Y-231585223D02*
X134733036Y-231585223D01*
X134767125Y-231545946D02*
X134733036Y-231585223D01*
X134767125Y-231545946D02*
X134767125Y-231545946D01*
X134799168Y-231506151D02*
X134767125Y-231545946D01*
X134799168Y-231506151D02*
X134799168Y-231506151D01*
X134829136Y-231463244D02*
X134799168Y-231506151D01*
X134829136Y-231463244D02*
X134829136Y-231463244D01*
X134857045Y-231420367D02*
X134829136Y-231463244D01*
X134857045Y-231420367D02*
X134857045Y-231420367D01*
X134883397Y-231374377D02*
X134857045Y-231420367D01*
X134883397Y-231374377D02*
X134883397Y-231374377D01*
X134906132Y-231328387D02*
X134883397Y-231374377D01*
X134906132Y-231328387D02*
X134906132Y-231328387D01*
X134928364Y-231280321D02*
X134906132Y-231328387D01*
X134928364Y-231280321D02*
X134928364Y-231280321D01*
X134947483Y-231231219D02*
X134928364Y-231280321D01*
X134947483Y-231231219D02*
X134947483Y-231231219D01*
X134964024Y-231181109D02*
X134947483Y-231231219D01*
X134964024Y-231181109D02*
X134964024Y-231181109D01*
X134979527Y-231129961D02*
X134964024Y-231181109D01*
X134979527Y-231129961D02*
X134979527Y-231129961D01*
X134991414Y-231078295D02*
X134979527Y-231129961D01*
X134991414Y-231078295D02*
X134991414Y-231078295D01*
X135000187Y-231025042D02*
X134991414Y-231078295D01*
X135000187Y-231025042D02*
X135000187Y-231025042D01*
X135007435Y-230971300D02*
X135000187Y-231025042D01*
X135007435Y-230971300D02*
X135007435Y-230971300D01*
X135011052Y-230916003D02*
X135007435Y-230971300D01*
X135011052Y-230916003D02*
X135011052Y-230916003D01*
X135013111Y-230861224D02*
X135011052Y-230916003D01*
X135013111Y-230861224D02*
X135013111Y-230861224D01*
X135011052Y-230805407D02*
X135013111Y-230861224D01*
X135011052Y-230805407D02*
X135011052Y-230805407D01*
X135007420Y-230750109D02*
X135011052Y-230805407D01*
X135007420Y-230750109D02*
X135007420Y-230750109D01*
X135000187Y-230696368D02*
X135007420Y-230750109D01*
X135000187Y-230696368D02*
X135000187Y-230696368D01*
X134991398Y-230643145D02*
X135000187Y-230696368D01*
X134991398Y-230643145D02*
X134991398Y-230643145D01*
X134979512Y-230590960D02*
X134991398Y-230643145D01*
X134979512Y-230590960D02*
X134979512Y-230590960D01*
X134964009Y-230540301D02*
X134979512Y-230590960D01*
X134964009Y-230540301D02*
X134964009Y-230540301D01*
X134947468Y-230490191D02*
X134964009Y-230540301D01*
X134947468Y-230490191D02*
X134947468Y-230490191D01*
X134928349Y-230441088D02*
X134947468Y-230490191D01*
X134928349Y-230441088D02*
X134928349Y-230441088D01*
X134906117Y-230393023D02*
X134928349Y-230441088D01*
X134906117Y-230393023D02*
X134906117Y-230393023D01*
X134883381Y-230347063D02*
X134906117Y-230393023D01*
X134883381Y-230347063D02*
X134883381Y-230347063D01*
X134857029Y-230301073D02*
X134883381Y-230347063D01*
X134857029Y-230301073D02*
X134857029Y-230301073D01*
X134829121Y-230258166D02*
X134857029Y-230301073D01*
X134829121Y-230258166D02*
X134829121Y-230258166D01*
X134799153Y-230215288D02*
X134829121Y-230258166D01*
X134799153Y-230215288D02*
X134799153Y-230215288D01*
X134767109Y-230174975D02*
X134799153Y-230215288D01*
X134767109Y-230174975D02*
X134767109Y-230174975D01*
X134733021Y-230136217D02*
X134767109Y-230174975D01*
X134733021Y-230136217D02*
X134733021Y-230136217D01*
X134697346Y-230097979D02*
X134733021Y-230136217D01*
X134697346Y-230097979D02*
X134697346Y-230097979D01*
X134660145Y-230062304D02*
X134697346Y-230097979D01*
X134660145Y-230062304D02*
X134660145Y-230062304D01*
X134620350Y-230029253D02*
X134660145Y-230062304D01*
X134620350Y-230029253D02*
X134620350Y-230029253D01*
X134580037Y-229996172D02*
X134620350Y-230029253D01*
X134580037Y-229996172D02*
X134580037Y-229996172D01*
X134537144Y-229966173D02*
X134580037Y-229996172D01*
X134537144Y-229966173D02*
X134537144Y-229966173D01*
X134494267Y-229938280D02*
X134537144Y-229966173D01*
X134494267Y-229938280D02*
X134494267Y-229938280D01*
X134449299Y-229912432D02*
X134494267Y-229938280D01*
X134449299Y-229912432D02*
X134449299Y-229912432D01*
X134402287Y-229889208D02*
X134449299Y-229912432D01*
X134402287Y-229889208D02*
X134402287Y-229889208D01*
X134354222Y-229866961D02*
X134402287Y-229889208D01*
X134354222Y-229866961D02*
X134354222Y-229866961D01*
X134305134Y-229848376D02*
X134354222Y-229866961D01*
X134305134Y-229848376D02*
X134305134Y-229848376D01*
X134254994Y-229831316D02*
X134305134Y-229848376D01*
X134254994Y-229831316D02*
X134254994Y-229831316D01*
X134204365Y-229816302D02*
X134254994Y-229831316D01*
X134204365Y-229816302D02*
X134204365Y-229816302D01*
X134152165Y-229804430D02*
X134204365Y-229816302D01*
X134152165Y-229804430D02*
X134152165Y-229804430D01*
X134099446Y-229795122D02*
X134152165Y-229804430D01*
X134099446Y-229795122D02*
X134099446Y-229795122D01*
X134045185Y-229788439D02*
X134099446Y-229795122D01*
X134045185Y-229788439D02*
X134045185Y-229788439D01*
X133990422Y-229784289D02*
X134045185Y-229788439D01*
X133990422Y-229784289D02*
X133990422Y-229784289D01*
X133935124Y-229782213D02*
X133990422Y-229784289D01*
X465538960Y-229784289D02*
X465593403Y-229783251D01*
X465538960Y-229784289D02*
X465538960Y-229784289D01*
X465486256Y-229788439D02*
X465538960Y-229784289D01*
X465486256Y-229788439D02*
X465486256Y-229788439D01*
X465433033Y-229794115D02*
X465486256Y-229788439D01*
X465433033Y-229794115D02*
X465433033Y-229794115D01*
X465380848Y-229803393D02*
X465433033Y-229794115D01*
X465380848Y-229803393D02*
X465380848Y-229803393D01*
X465330189Y-229815295D02*
X465380848Y-229803393D01*
X465330189Y-229815295D02*
X465330189Y-229815295D01*
X465279011Y-229829241D02*
X465330189Y-229815295D01*
X465279011Y-229829241D02*
X465279011Y-229829241D01*
X465228901Y-229846300D02*
X465279011Y-229829241D01*
X465228901Y-229846300D02*
X465228901Y-229846300D01*
X465179829Y-229865404D02*
X465228901Y-229846300D01*
X465179829Y-229865404D02*
X465179829Y-229865404D01*
X465132283Y-229886095D02*
X465179829Y-229865404D01*
X465132283Y-229886095D02*
X465132283Y-229886095D01*
X465085255Y-229910387D02*
X465132283Y-229886095D01*
X465085255Y-229910387D02*
X465085255Y-229910387D01*
X465039235Y-229936205D02*
X465085255Y-229910387D01*
X465039235Y-229936205D02*
X465039235Y-229936205D01*
X464994282Y-229964129D02*
X465039235Y-229936205D01*
X464994282Y-229964129D02*
X464994282Y-229964129D01*
X464950856Y-229994097D02*
X464994282Y-229964129D01*
X464950856Y-229994097D02*
X464950856Y-229994097D01*
X464909016Y-230027148D02*
X464950856Y-229994097D01*
X464909016Y-230027148D02*
X464909016Y-230027148D01*
X464869221Y-230062304D02*
X464909016Y-230027148D01*
X464869221Y-230062304D02*
X464869221Y-230062304D01*
X464829976Y-230097948D02*
X464869221Y-230062304D01*
X464829976Y-230097948D02*
X464829976Y-230097948D01*
X464793263Y-230137224D02*
X464829976Y-230097948D01*
X464793263Y-230137224D02*
X464793263Y-230137224D01*
X464759144Y-230177019D02*
X464793263Y-230137224D01*
X464759144Y-230177019D02*
X464759144Y-230177019D01*
X464726094Y-230219408D02*
X464759144Y-230177019D01*
X464726094Y-230219408D02*
X464726094Y-230219408D01*
X464696125Y-230263323D02*
X464726094Y-230219408D01*
X464696125Y-230263323D02*
X464696125Y-230263323D01*
X464667195Y-230307268D02*
X464696125Y-230263323D01*
X464667195Y-230307268D02*
X464667195Y-230307268D01*
X464640858Y-230353228D02*
X464667195Y-230307268D01*
X464640858Y-230353228D02*
X464640858Y-230353228D01*
X464618092Y-230400255D02*
X464640858Y-230353228D01*
X464618092Y-230400255D02*
X464618092Y-230400255D01*
X464596913Y-230448321D02*
X464618092Y-230400255D01*
X464596913Y-230448321D02*
X464596913Y-230448321D01*
X464578328Y-230497423D02*
X464596913Y-230448321D01*
X464578328Y-230497423D02*
X464578328Y-230497423D01*
X464561268Y-230547045D02*
X464578328Y-230497423D01*
X464561268Y-230547045D02*
X464561268Y-230547045D01*
X464547322Y-230598193D02*
X464561268Y-230547045D01*
X464547322Y-230598193D02*
X464547322Y-230598193D01*
X464534901Y-230649340D02*
X464547322Y-230598193D01*
X464534901Y-230649340D02*
X464534901Y-230649340D01*
X464526143Y-230702044D02*
X464534901Y-230649340D01*
X464526143Y-230702044D02*
X464526143Y-230702044D01*
X464519917Y-230754259D02*
X464526143Y-230702044D01*
X464519917Y-230754259D02*
X464519917Y-230754259D01*
X464516316Y-230806963D02*
X464519917Y-230754259D01*
X464516316Y-230806963D02*
X464516316Y-230806963D01*
X464514210Y-230861224D02*
X464516316Y-230806963D01*
X464514210Y-230861224D02*
X464514210Y-230861224D01*
X464516316Y-230916003D02*
X464514210Y-230861224D01*
X464516316Y-230916003D02*
X464516316Y-230916003D01*
X464519917Y-230971300D02*
X464516316Y-230916003D01*
X464519917Y-230971300D02*
X464519917Y-230971300D01*
X464527150Y-231025042D02*
X464519917Y-230971300D01*
X464527150Y-231025042D02*
X464527150Y-231025042D01*
X464535939Y-231078265D02*
X464527150Y-231025042D01*
X464535939Y-231078265D02*
X464535939Y-231078265D01*
X464547841Y-231129961D02*
X464535939Y-231078265D01*
X464547841Y-231129961D02*
X464547841Y-231129961D01*
X464562794Y-231181109D02*
X464547841Y-231129961D01*
X464562794Y-231181109D02*
X464562794Y-231181109D01*
X464579853Y-231232256D02*
X464562794Y-231181109D01*
X464579853Y-231232256D02*
X464579853Y-231232256D01*
X464598957Y-231281359D02*
X464579853Y-231232256D01*
X464598957Y-231281359D02*
X464598957Y-231281359D01*
X464621174Y-231328387D02*
X464598957Y-231281359D01*
X464621174Y-231328387D02*
X464621174Y-231328387D01*
X464644947Y-231375414D02*
X464621174Y-231328387D01*
X464644947Y-231375414D02*
X464644947Y-231375414D01*
X464670765Y-231420367D02*
X464644947Y-231375414D01*
X464670765Y-231420367D02*
X464670765Y-231420367D01*
X464699177Y-231464281D02*
X464670765Y-231420367D01*
X464699177Y-231464281D02*
X464699177Y-231464281D01*
X464729176Y-231506151D02*
X464699177Y-231464281D01*
X464729176Y-231506151D02*
X464729176Y-231506151D01*
X464761189Y-231546984D02*
X464729176Y-231506151D01*
X464761189Y-231546984D02*
X464761189Y-231546984D01*
X464794789Y-231586230D02*
X464761189Y-231546984D01*
X464794789Y-231586230D02*
X464794789Y-231586230D01*
X464829945Y-231623461D02*
X464794789Y-231586230D01*
X464829945Y-231623461D02*
X464829945Y-231623461D01*
X464868184Y-231659106D02*
X464829945Y-231623461D01*
X464868184Y-231659106D02*
X464868184Y-231659106D01*
X464906941Y-231693224D02*
X464868184Y-231659106D01*
X464906941Y-231693224D02*
X464906941Y-231693224D01*
X464948262Y-231725237D02*
X464906941Y-231693224D01*
X464948262Y-231725237D02*
X464948262Y-231725237D01*
X464990132Y-231755205D02*
X464948262Y-231725237D01*
X464990132Y-231755205D02*
X464990132Y-231755205D01*
X465034077Y-231783129D02*
X464990132Y-231755205D01*
X465034077Y-231783129D02*
X465034077Y-231783129D01*
X465079029Y-231808947D02*
X465034077Y-231783129D01*
X465079029Y-231808947D02*
X465079029Y-231808947D01*
X465125019Y-231833239D02*
X465079029Y-231808947D01*
X465125019Y-231833239D02*
X465125019Y-231833239D01*
X465173085Y-231854418D02*
X465125019Y-231833239D01*
X465173085Y-231854418D02*
X465173085Y-231854418D01*
X465222157Y-231874071D02*
X465173085Y-231854418D01*
X465222157Y-231874071D02*
X465222157Y-231874071D01*
X465271748Y-231891131D02*
X465222157Y-231874071D01*
X465271748Y-231891131D02*
X465271748Y-231891131D01*
X465322926Y-231905077D02*
X465271748Y-231891131D01*
X465322926Y-231905077D02*
X465322926Y-231905077D01*
X465375111Y-231916979D02*
X465322926Y-231905077D01*
X465375111Y-231916979D02*
X465375111Y-231916979D01*
X465427815Y-231927294D02*
X465375111Y-231916979D01*
X465427815Y-231927294D02*
X465427815Y-231927294D01*
X465482106Y-231933001D02*
X465427815Y-231927294D01*
X465482106Y-231933001D02*
X465482106Y-231933001D01*
X465536885Y-231938158D02*
X465482106Y-231933001D01*
X465536885Y-231938158D02*
X465536885Y-231938158D01*
X465593190Y-231939196D02*
X465536885Y-231938158D01*
X465593190Y-231939196D02*
X465593190Y-231939196D01*
X465647999Y-231938158D02*
X465593190Y-231939196D01*
X465647999Y-231938158D02*
X465647999Y-231938158D01*
X465703267Y-231933001D02*
X465647999Y-231938158D01*
X465703267Y-231933001D02*
X465703267Y-231933001D01*
X465757008Y-231927294D02*
X465703267Y-231933001D01*
X465757008Y-231927294D02*
X465757008Y-231927294D01*
X465810231Y-231916979D02*
X465757008Y-231927294D01*
X465810231Y-231916979D02*
X465810231Y-231916979D01*
X465861897Y-231905077D02*
X465810231Y-231916979D01*
X465861897Y-231905077D02*
X465861897Y-231905077D01*
X465913075Y-231891131D02*
X465861897Y-231905077D01*
X465913075Y-231891131D02*
X465913075Y-231891131D01*
X465963215Y-231874071D02*
X465913075Y-231891131D01*
X465963215Y-231874071D02*
X465963215Y-231874071D01*
X466011799Y-231854418D02*
X465963215Y-231874071D01*
X466011799Y-231854418D02*
X466011799Y-231854418D01*
X466059864Y-231833239D02*
X466011799Y-231854418D01*
X466059864Y-231833239D02*
X466059864Y-231833239D01*
X466106892Y-231808947D02*
X466059864Y-231833239D01*
X466106892Y-231808947D02*
X466106892Y-231808947D01*
X466151844Y-231783129D02*
X466106892Y-231808947D01*
X466151844Y-231783129D02*
X466151844Y-231783129D01*
X466195271Y-231755205D02*
X466151844Y-231783129D01*
X466195271Y-231755205D02*
X466195271Y-231755205D01*
X466238148Y-231725237D02*
X466195271Y-231755205D01*
X466238148Y-231725237D02*
X466238148Y-231725237D01*
X466277943Y-231693194D02*
X466238148Y-231725237D01*
X466277943Y-231693194D02*
X466277943Y-231693194D01*
X466318257Y-231659075D02*
X466277943Y-231693194D01*
X466318257Y-231659075D02*
X466318257Y-231659075D01*
X466354969Y-231623431D02*
X466318257Y-231659075D01*
X466354969Y-231623431D02*
X466354969Y-231623431D01*
X466391133Y-231586230D02*
X466354969Y-231623431D01*
X466391133Y-231586230D02*
X466391133Y-231586230D01*
X466425221Y-231546953D02*
X466391133Y-231586230D01*
X466425221Y-231546953D02*
X466425221Y-231546953D01*
X466457264Y-231506121D02*
X466425221Y-231546953D01*
X466457264Y-231506121D02*
X466457264Y-231506121D01*
X466487263Y-231464281D02*
X466457264Y-231506121D01*
X466487263Y-231464281D02*
X466487263Y-231464281D01*
X466515156Y-231420336D02*
X466487263Y-231464281D01*
X466515156Y-231420336D02*
X466515156Y-231420336D01*
X466540974Y-231375384D02*
X466515156Y-231420336D01*
X466540974Y-231375384D02*
X466540974Y-231375384D01*
X466565266Y-231328356D02*
X466540974Y-231375384D01*
X466565266Y-231328356D02*
X466565266Y-231328356D01*
X466585926Y-231281328D02*
X466565266Y-231328356D01*
X466585926Y-231281328D02*
X466585926Y-231281328D01*
X466605061Y-231232256D02*
X466585926Y-231281328D01*
X466605061Y-231232256D02*
X466605061Y-231232256D01*
X466622120Y-231181078D02*
X466605061Y-231232256D01*
X466622120Y-231181078D02*
X466622120Y-231181078D01*
X466637104Y-231129931D02*
X466622120Y-231181078D01*
X466637104Y-231129931D02*
X466637104Y-231129931D01*
X466649006Y-231078265D02*
X466637104Y-231129931D01*
X466649006Y-231078265D02*
X466649006Y-231078265D01*
X466658314Y-231025011D02*
X466649006Y-231078265D01*
X466658314Y-231025011D02*
X466658314Y-231025011D01*
X466665028Y-230971270D02*
X466658314Y-231025011D01*
X466665028Y-230971270D02*
X466665028Y-230971270D01*
X466669178Y-230915972D02*
X466665028Y-230971270D01*
X466669178Y-230915972D02*
X466669178Y-230915972D01*
X466671254Y-230861193D02*
X466669178Y-230915972D01*
X466671254Y-230861193D02*
X466671254Y-230861193D01*
X466670216Y-230806933D02*
X466671254Y-230861193D01*
X466670216Y-230806933D02*
X466670216Y-230806933D01*
X466666096Y-230754229D02*
X466670216Y-230806933D01*
X466666096Y-230754229D02*
X466666096Y-230754229D01*
X466658863Y-230702044D02*
X466666096Y-230754229D01*
X466658863Y-230702044D02*
X466658863Y-230702044D01*
X466650105Y-230649340D02*
X466658863Y-230702044D01*
X466650105Y-230649340D02*
X466650105Y-230649340D01*
X466638203Y-230598162D02*
X466650105Y-230649340D01*
X466638203Y-230598162D02*
X466638203Y-230598162D01*
X466624226Y-230547015D02*
X466638203Y-230598162D01*
X466624226Y-230547015D02*
X466624226Y-230547015D01*
X466608204Y-230497393D02*
X466624226Y-230547015D01*
X466608204Y-230497393D02*
X466608204Y-230497393D01*
X466589100Y-230448290D02*
X466608204Y-230497393D01*
X466589100Y-230448290D02*
X466589100Y-230448290D01*
X466566883Y-230400255D02*
X466589100Y-230448290D01*
X466566883Y-230400255D02*
X466566883Y-230400255D01*
X466544148Y-230353228D02*
X466566883Y-230400255D01*
X466544148Y-230353228D02*
X466544148Y-230353228D01*
X466518299Y-230307238D02*
X466544148Y-230353228D01*
X466518299Y-230307238D02*
X466518299Y-230307238D01*
X466489888Y-230263293D02*
X466518299Y-230307238D01*
X466489888Y-230263293D02*
X466489888Y-230263293D01*
X466458851Y-230219378D02*
X466489888Y-230263293D01*
X466458851Y-230219378D02*
X466458851Y-230219378D01*
X466427357Y-230176989D02*
X466458851Y-230219378D01*
X466427357Y-230176989D02*
X466427357Y-230176989D01*
X466392201Y-230137224D02*
X466427357Y-230176989D01*
X466392201Y-230137224D02*
X466392201Y-230137224D01*
X466355030Y-230097948D02*
X466392201Y-230137224D01*
X466355030Y-230097948D02*
X466355030Y-230097948D01*
X466316273Y-230062273D02*
X466355030Y-230097948D01*
X466316273Y-230062273D02*
X466316273Y-230062273D01*
X466275959Y-230027148D02*
X466316273Y-230062273D01*
X466275959Y-230027148D02*
X466275959Y-230027148D01*
X466234089Y-229994067D02*
X466275959Y-230027148D01*
X466234089Y-229994067D02*
X466234089Y-229994067D01*
X466191212Y-229964098D02*
X466234089Y-229994067D01*
X466191212Y-229964098D02*
X466191212Y-229964098D01*
X466146260Y-229936205D02*
X466191212Y-229964098D01*
X466146260Y-229936205D02*
X466146260Y-229936205D01*
X466100270Y-229910357D02*
X466146260Y-229936205D01*
X466100270Y-229910357D02*
X466100270Y-229910357D01*
X466053273Y-229886065D02*
X466100270Y-229910357D01*
X466053273Y-229886065D02*
X466053273Y-229886065D01*
X466005207Y-229865404D02*
X466053273Y-229886065D01*
X466005207Y-229865404D02*
X466005207Y-229865404D01*
X465956105Y-229846270D02*
X466005207Y-229865404D01*
X465956105Y-229846270D02*
X465956105Y-229846270D01*
X465905995Y-229829241D02*
X465956105Y-229846270D01*
X465905995Y-229829241D02*
X465905995Y-229829241D01*
X465855366Y-229815264D02*
X465905995Y-229829241D01*
X465855366Y-229815264D02*
X465855366Y-229815264D01*
X465804219Y-229803393D02*
X465855366Y-229815264D01*
X465804219Y-229803393D02*
X465804219Y-229803393D01*
X465752003Y-229794085D02*
X465804219Y-229803393D01*
X465752003Y-229794085D02*
X465752003Y-229794085D01*
X465699299Y-229788409D02*
X465752003Y-229794085D01*
X465699299Y-229788409D02*
X465699299Y-229788409D01*
X465646107Y-229784258D02*
X465699299Y-229788409D01*
X465646107Y-229784258D02*
X465646107Y-229784258D01*
X465593403Y-229783251D02*
X465646107Y-229784258D01*
X163307499Y-269164263D02*
X163361241Y-269163256D01*
X163307499Y-269164263D02*
X163307499Y-269164263D01*
X163254261Y-269168383D02*
X163307499Y-269164263D01*
X163254261Y-269168383D02*
X163254261Y-269168383D01*
X163202061Y-269175097D02*
X163254261Y-269168383D01*
X163202061Y-269175097D02*
X163202061Y-269175097D01*
X163150395Y-269183855D02*
X163202061Y-269175097D01*
X163150395Y-269183855D02*
X163150395Y-269183855D01*
X163098195Y-269195238D02*
X163150395Y-269183855D01*
X163098195Y-269195238D02*
X163098195Y-269195238D01*
X163047032Y-269209185D02*
X163098195Y-269195238D01*
X163047032Y-269209185D02*
X163047032Y-269209185D01*
X162997410Y-269226244D02*
X163047032Y-269209185D01*
X162997410Y-269226244D02*
X162997410Y-269226244D01*
X162948323Y-269245348D02*
X162997410Y-269226244D01*
X162948323Y-269245348D02*
X162948323Y-269245348D01*
X162900257Y-269266009D02*
X162948323Y-269245348D01*
X162900257Y-269266009D02*
X162900257Y-269266009D01*
X162853230Y-269290301D02*
X162900257Y-269266009D01*
X162853230Y-269290301D02*
X162853230Y-269290301D01*
X162807255Y-269316149D02*
X162853230Y-269290301D01*
X162807255Y-269316149D02*
X162807255Y-269316149D01*
X162763325Y-269344073D02*
X162807255Y-269316149D01*
X162763325Y-269344073D02*
X162763325Y-269344073D01*
X162719395Y-269374041D02*
X162763325Y-269344073D01*
X162719395Y-269374041D02*
X162719395Y-269374041D01*
X162678059Y-269407122D02*
X162719395Y-269374041D01*
X162678059Y-269407122D02*
X162678059Y-269407122D01*
X162637242Y-269442278D02*
X162678059Y-269407122D01*
X162637242Y-269442278D02*
X162637242Y-269442278D01*
X162598484Y-269478960D02*
X162637242Y-269442278D01*
X162598484Y-269478960D02*
X162598484Y-269478960D01*
X162562306Y-269517199D02*
X162598484Y-269478960D01*
X162562306Y-269517199D02*
X162562306Y-269517199D01*
X162527165Y-269558031D02*
X162562306Y-269517199D01*
X162527165Y-269558031D02*
X162527165Y-269558031D01*
X162494099Y-269599901D02*
X162527165Y-269558031D01*
X162494099Y-269599901D02*
X162494099Y-269599901D01*
X162464131Y-269643328D02*
X162494099Y-269599901D01*
X162464131Y-269643328D02*
X162464131Y-269643328D01*
X162436222Y-269687273D02*
X162464131Y-269643328D01*
X162436222Y-269687273D02*
X162436222Y-269687273D01*
X162410405Y-269733233D02*
X162436222Y-269687273D01*
X162410405Y-269733233D02*
X162410405Y-269733233D01*
X162386113Y-269780291D02*
X162410405Y-269733233D01*
X162386113Y-269780291D02*
X162386113Y-269780291D01*
X162365437Y-269828356D02*
X162386113Y-269780291D01*
X162365437Y-269828356D02*
X162365437Y-269828356D01*
X162346318Y-269877947D02*
X162365437Y-269828356D01*
X162346318Y-269877947D02*
X162346318Y-269877947D01*
X162329274Y-269927019D02*
X162346318Y-269877947D01*
X162329274Y-269927019D02*
X162329274Y-269927019D01*
X162315312Y-269978197D02*
X162329274Y-269927019D01*
X162315312Y-269978197D02*
X162315312Y-269978197D01*
X162304463Y-270030382D02*
X162315312Y-269978197D01*
X162304463Y-270030382D02*
X162304463Y-270030382D01*
X162294133Y-270082079D02*
X162304463Y-270030382D01*
X162294133Y-270082079D02*
X162294133Y-270082079D01*
X162288456Y-270135302D02*
X162294133Y-270082079D01*
X162288456Y-270135302D02*
X162288456Y-270135302D01*
X162284321Y-270188006D02*
X162288456Y-270135302D01*
X162284321Y-270188006D02*
X162284321Y-270188006D01*
X162283284Y-270241198D02*
X162284321Y-270188006D01*
X162283284Y-270241198D02*
X162283284Y-270241198D01*
X162284321Y-270294970D02*
X162283284Y-270241198D01*
X162284321Y-270294970D02*
X162284321Y-270294970D01*
X162288456Y-270348193D02*
X162284321Y-270294970D01*
X162288456Y-270348193D02*
X162288456Y-270348193D01*
X162294133Y-270400378D02*
X162288456Y-270348193D01*
X162294133Y-270400378D02*
X162294133Y-270400378D01*
X162304463Y-270452044D02*
X162294133Y-270400378D01*
X162304463Y-270452044D02*
X162304463Y-270452044D01*
X162315312Y-270504259D02*
X162304463Y-270452044D01*
X162315312Y-270504259D02*
X162315312Y-270504259D01*
X162329274Y-270555407D02*
X162315312Y-270504259D01*
X162329274Y-270555407D02*
X162329274Y-270555407D01*
X162346318Y-270605028D02*
X162329274Y-270555407D01*
X162346318Y-270605028D02*
X162346318Y-270605028D01*
X162365437Y-270654101D02*
X162346318Y-270605028D01*
X162365437Y-270654101D02*
X162365437Y-270654101D01*
X162386113Y-270702166D02*
X162365437Y-270654101D01*
X162386113Y-270702166D02*
X162386113Y-270702166D01*
X162410405Y-270749193D02*
X162386113Y-270702166D01*
X162410405Y-270749193D02*
X162410405Y-270749193D01*
X162436222Y-270795183D02*
X162410405Y-270749193D01*
X162436222Y-270795183D02*
X162436222Y-270795183D01*
X162464131Y-270839129D02*
X162436222Y-270795183D01*
X162464131Y-270839129D02*
X162464131Y-270839129D01*
X162494099Y-270883074D02*
X162464131Y-270839129D01*
X162494099Y-270883074D02*
X162494099Y-270883074D01*
X162527165Y-270924425D02*
X162494099Y-270883074D01*
X162527165Y-270924425D02*
X162527165Y-270924425D01*
X162562306Y-270965227D02*
X162527165Y-270924425D01*
X162562306Y-270965227D02*
X162562306Y-270965227D01*
X162598484Y-271002978D02*
X162562306Y-270965227D01*
X162598484Y-271002978D02*
X162598484Y-271002978D01*
X162637242Y-271040179D02*
X162598484Y-271002978D01*
X162637242Y-271040179D02*
X162637242Y-271040179D01*
X162678059Y-271075335D02*
X162637242Y-271040179D01*
X162678059Y-271075335D02*
X162678059Y-271075335D01*
X162719395Y-271108385D02*
X162678059Y-271075335D01*
X162719395Y-271108385D02*
X162719395Y-271108385D01*
X162763325Y-271138354D02*
X162719395Y-271108385D01*
X162763325Y-271138354D02*
X162763325Y-271138354D01*
X162807255Y-271166277D02*
X162763325Y-271138354D01*
X162807255Y-271166277D02*
X162807255Y-271166277D01*
X162853230Y-271192095D02*
X162807255Y-271166277D01*
X162853230Y-271192095D02*
X162853230Y-271192095D01*
X162900257Y-271216387D02*
X162853230Y-271192095D01*
X162900257Y-271216387D02*
X162900257Y-271216387D01*
X162948323Y-271237047D02*
X162900257Y-271216387D01*
X162948323Y-271237047D02*
X162948323Y-271237047D01*
X162997410Y-271256182D02*
X162948323Y-271237047D01*
X162997410Y-271256182D02*
X162997410Y-271256182D01*
X163047032Y-271273241D02*
X162997410Y-271256182D01*
X163047032Y-271273241D02*
X163047032Y-271273241D01*
X163098179Y-271287188D02*
X163047032Y-271273241D01*
X163098179Y-271287188D02*
X163098179Y-271287188D01*
X163150380Y-271298052D02*
X163098179Y-271287188D01*
X163150380Y-271298052D02*
X163150380Y-271298052D01*
X163202046Y-271307360D02*
X163150380Y-271298052D01*
X163202046Y-271307360D02*
X163202046Y-271307360D01*
X163254246Y-271314074D02*
X163202046Y-271307360D01*
X163254246Y-271314074D02*
X163254246Y-271314074D01*
X163307469Y-271318194D02*
X163254246Y-271314074D01*
X163307469Y-271318194D02*
X163307469Y-271318194D01*
X163361226Y-271319231D02*
X163307469Y-271318194D01*
X163361226Y-271319231D02*
X163361226Y-271319231D01*
X163416005Y-271318194D02*
X163361226Y-271319231D01*
X163416005Y-271318194D02*
X163416005Y-271318194D01*
X163471302Y-271314074D02*
X163416005Y-271318194D01*
X163471302Y-271314074D02*
X163471302Y-271314074D01*
X163525044Y-271307360D02*
X163471302Y-271314074D01*
X163525044Y-271307360D02*
X163525044Y-271307360D01*
X163578267Y-271297015D02*
X163525044Y-271307360D01*
X163578267Y-271297015D02*
X163578267Y-271297015D01*
X163630467Y-271285143D02*
X163578267Y-271297015D01*
X163630467Y-271285143D02*
X163630467Y-271285143D01*
X163681111Y-271271197D02*
X163630467Y-271285143D01*
X163681111Y-271271197D02*
X163681111Y-271271197D01*
X163732273Y-271254137D02*
X163681111Y-271271197D01*
X163732273Y-271254137D02*
X163732273Y-271254137D01*
X163781361Y-271235033D02*
X163732273Y-271254137D01*
X163781361Y-271235033D02*
X163781361Y-271235033D01*
X163828389Y-271213335D02*
X163781361Y-271235033D01*
X163828389Y-271213335D02*
X163828389Y-271213335D01*
X163875416Y-271189043D02*
X163828389Y-271213335D01*
X163875416Y-271189043D02*
X163875416Y-271189043D01*
X163920369Y-271163195D02*
X163875416Y-271189043D01*
X163920369Y-271163195D02*
X163920369Y-271163195D01*
X163964314Y-271135302D02*
X163920369Y-271163195D01*
X163964314Y-271135302D02*
X163964314Y-271135302D01*
X164006169Y-271105303D02*
X163964314Y-271135302D01*
X164006169Y-271105303D02*
X164006169Y-271105303D01*
X164047505Y-271073260D02*
X164006169Y-271105303D01*
X164047505Y-271073260D02*
X164047505Y-271073260D01*
X164086262Y-271039172D02*
X164047505Y-271073260D01*
X164086262Y-271039172D02*
X164086262Y-271039172D01*
X164123478Y-271002978D02*
X164086262Y-271039172D01*
X164123478Y-271002978D02*
X164123478Y-271002978D01*
X164159138Y-270966265D02*
X164123478Y-271002978D01*
X164159138Y-270966265D02*
X164159138Y-270966265D01*
X164193242Y-270926989D02*
X164159138Y-270966265D01*
X164193242Y-270926989D02*
X164193242Y-270926989D01*
X164225270Y-270886156D02*
X164193242Y-270926989D01*
X164225270Y-270886156D02*
X164225270Y-270886156D01*
X164255238Y-270844317D02*
X164225270Y-270886156D01*
X164255238Y-270844317D02*
X164255238Y-270844317D01*
X164283146Y-270800371D02*
X164255238Y-270844317D01*
X164283146Y-270800371D02*
X164283146Y-270800371D01*
X164309498Y-270755419D02*
X164283146Y-270800371D01*
X164309498Y-270755419D02*
X164309498Y-270755419D01*
X164333271Y-270709429D02*
X164309498Y-270755419D01*
X164333271Y-270709429D02*
X164333271Y-270709429D01*
X164354451Y-270661364D02*
X164333271Y-270709429D01*
X164354451Y-270661364D02*
X164354451Y-270661364D01*
X164374104Y-270612292D02*
X164354451Y-270661364D01*
X164374104Y-270612292D02*
X164374104Y-270612292D01*
X164391163Y-270562151D02*
X164374104Y-270612292D01*
X164391163Y-270562151D02*
X164391163Y-270562151D01*
X164405110Y-270510973D02*
X164391163Y-270562151D01*
X164405110Y-270510973D02*
X164405110Y-270510973D01*
X164417515Y-270458269D02*
X164405110Y-270510973D01*
X164417515Y-270458269D02*
X164417515Y-270458269D01*
X164427327Y-270405047D02*
X164417515Y-270458269D01*
X164427327Y-270405047D02*
X164427327Y-270405047D01*
X164434040Y-270351305D02*
X164427327Y-270405047D01*
X164434040Y-270351305D02*
X164434040Y-270351305D01*
X164438176Y-270297015D02*
X164434040Y-270351305D01*
X164438176Y-270297015D02*
X164438176Y-270297015D01*
X164439198Y-270241198D02*
X164438176Y-270297015D01*
X164439198Y-270241198D02*
X164439198Y-270241198D01*
X164438176Y-270185900D02*
X164439198Y-270241198D01*
X164438176Y-270185900D02*
X164438176Y-270185900D01*
X164434040Y-270131121D02*
X164438176Y-270185900D01*
X164434040Y-270131121D02*
X164434040Y-270131121D01*
X164427327Y-270077410D02*
X164434040Y-270131121D01*
X164427327Y-270077410D02*
X164427327Y-270077410D01*
X164417515Y-270024187D02*
X164427327Y-270077410D01*
X164417515Y-270024187D02*
X164417515Y-270024187D01*
X164405110Y-269972002D02*
X164417515Y-270024187D01*
X164405110Y-269972002D02*
X164405110Y-269972002D01*
X164391163Y-269920306D02*
X164405110Y-269972002D01*
X164391163Y-269920306D02*
X164391163Y-269920306D01*
X164374104Y-269870196D02*
X164391163Y-269920306D01*
X164374104Y-269870196D02*
X164374104Y-269870196D01*
X164354451Y-269821123D02*
X164374104Y-269870196D01*
X164354451Y-269821123D02*
X164354451Y-269821123D01*
X164333271Y-269774096D02*
X164354451Y-269821123D01*
X164333271Y-269774096D02*
X164333271Y-269774096D01*
X164309498Y-269727068D02*
X164333271Y-269774096D01*
X164309498Y-269727068D02*
X164309498Y-269727068D01*
X164283146Y-269682116D02*
X164309498Y-269727068D01*
X164283146Y-269682116D02*
X164283146Y-269682116D01*
X164255238Y-269638171D02*
X164283146Y-269682116D01*
X164255238Y-269638171D02*
X164255238Y-269638171D01*
X164225270Y-269596300D02*
X164255238Y-269638171D01*
X164225270Y-269596300D02*
X164225270Y-269596300D01*
X164193242Y-269554980D02*
X164225270Y-269596300D01*
X164193242Y-269554980D02*
X164193242Y-269554980D01*
X164159138Y-269516222D02*
X164193242Y-269554980D01*
X164159138Y-269516222D02*
X164159138Y-269516222D01*
X164123478Y-269478991D02*
X164159138Y-269516222D01*
X164123478Y-269478991D02*
X164123478Y-269478991D01*
X164086262Y-269443346D02*
X164123478Y-269478991D01*
X164086262Y-269443346D02*
X164086262Y-269443346D01*
X164047505Y-269409228D02*
X164086262Y-269443346D01*
X164047505Y-269409228D02*
X164047505Y-269409228D01*
X164006169Y-269377215D02*
X164047505Y-269409228D01*
X164006169Y-269377215D02*
X164006169Y-269377215D01*
X163964314Y-269347216D02*
X164006169Y-269377215D01*
X163964314Y-269347216D02*
X163964314Y-269347216D01*
X163920369Y-269319323D02*
X163964314Y-269347216D01*
X163920369Y-269319323D02*
X163920369Y-269319323D01*
X163875416Y-269292956D02*
X163920369Y-269319323D01*
X163875416Y-269292956D02*
X163875416Y-269292956D01*
X163828389Y-269269182D02*
X163875416Y-269292956D01*
X163828389Y-269269182D02*
X163828389Y-269269182D01*
X163781361Y-269248003D02*
X163828389Y-269269182D01*
X163781361Y-269248003D02*
X163781361Y-269248003D01*
X163732273Y-269228380D02*
X163781361Y-269248003D01*
X163732273Y-269228380D02*
X163732273Y-269228380D01*
X163681126Y-269211321D02*
X163732273Y-269228380D01*
X163681126Y-269211321D02*
X163681126Y-269211321D01*
X163630482Y-269197375D02*
X163681126Y-269211321D01*
X163630482Y-269197375D02*
X163630482Y-269197375D01*
X163578282Y-269184954D02*
X163630482Y-269197375D01*
X163578282Y-269184954D02*
X163578282Y-269184954D01*
X163525059Y-269175127D02*
X163578282Y-269184954D01*
X163525059Y-269175127D02*
X163525059Y-269175127D01*
X163471318Y-269168413D02*
X163525059Y-269175127D01*
X163471318Y-269168413D02*
X163471318Y-269168413D01*
X163416020Y-269164294D02*
X163471318Y-269168413D01*
X163416020Y-269164294D02*
X163416020Y-269164294D01*
X163361241Y-269163256D02*
X163416020Y-269164294D01*
X249770420Y-269164355D02*
X249825200Y-269163256D01*
X249770420Y-269164355D02*
X249770420Y-269164355D01*
X249715138Y-269168474D02*
X249770420Y-269164355D01*
X249715138Y-269168474D02*
X249715138Y-269168474D01*
X249661381Y-269175188D02*
X249715138Y-269168474D01*
X249661381Y-269175188D02*
X249661381Y-269175188D01*
X249608158Y-269185015D02*
X249661381Y-269175188D01*
X249608158Y-269185015D02*
X249608158Y-269185015D01*
X249556492Y-269197405D02*
X249608158Y-269185015D01*
X249556492Y-269197405D02*
X249556492Y-269197405D01*
X249505345Y-269211352D02*
X249556492Y-269197405D01*
X249505345Y-269211352D02*
X249505345Y-269211352D01*
X249455204Y-269228411D02*
X249505345Y-269211352D01*
X249455204Y-269228411D02*
X249455204Y-269228411D01*
X249406117Y-269248034D02*
X249455204Y-269228411D01*
X249406117Y-269248034D02*
X249406117Y-269248034D01*
X249358052Y-269269213D02*
X249406117Y-269248034D01*
X249358052Y-269269213D02*
X249358052Y-269269213D01*
X249311039Y-269292986D02*
X249358052Y-269269213D01*
X249311039Y-269292986D02*
X249311039Y-269292986D01*
X249266087Y-269319353D02*
X249311039Y-269292986D01*
X249266087Y-269319353D02*
X249266087Y-269319353D01*
X249222157Y-269347246D02*
X249266087Y-269319353D01*
X249222157Y-269347246D02*
X249222157Y-269347246D01*
X249180302Y-269377245D02*
X249222157Y-269347246D01*
X249180302Y-269377245D02*
X249180302Y-269377245D01*
X249139485Y-269409289D02*
X249180302Y-269377245D01*
X249139485Y-269409289D02*
X249139485Y-269409289D01*
X249100209Y-269443377D02*
X249139485Y-269409289D01*
X249100209Y-269443377D02*
X249100209Y-269443377D01*
X249063511Y-269479021D02*
X249100209Y-269443377D01*
X249063511Y-269479021D02*
X249063511Y-269479021D01*
X249027333Y-269516253D02*
X249063511Y-269479021D01*
X249027333Y-269516253D02*
X249027333Y-269516253D01*
X248993229Y-269555010D02*
X249027333Y-269516253D01*
X248993229Y-269555010D02*
X248993229Y-269555010D01*
X248961201Y-269596361D02*
X248993229Y-269555010D01*
X248961201Y-269596361D02*
X248961201Y-269596361D01*
X248931233Y-269638201D02*
X248961201Y-269596361D01*
X248931233Y-269638201D02*
X248931233Y-269638201D01*
X248903325Y-269682116D02*
X248931233Y-269638201D01*
X248903325Y-269682116D02*
X248903325Y-269682116D01*
X248877476Y-269727068D02*
X248903325Y-269682116D01*
X248877476Y-269727068D02*
X248877476Y-269727068D01*
X248853199Y-269774096D02*
X248877476Y-269727068D01*
X248853199Y-269774096D02*
X248853199Y-269774096D01*
X248832524Y-269821123D02*
X248853199Y-269774096D01*
X248832524Y-269821123D02*
X248832524Y-269821123D01*
X248812382Y-269870196D02*
X248832524Y-269821123D01*
X248812382Y-269870196D02*
X248812382Y-269870196D01*
X248795323Y-269920306D02*
X248812382Y-269870196D01*
X248795323Y-269920306D02*
X248795323Y-269920306D01*
X248781376Y-269972002D02*
X248795323Y-269920306D01*
X248781376Y-269972002D02*
X248781376Y-269972002D01*
X248769490Y-270024187D02*
X248781376Y-269972002D01*
X248769490Y-270024187D02*
X248769490Y-270024187D01*
X248759144Y-270077410D02*
X248769490Y-270024187D01*
X248759144Y-270077410D02*
X248759144Y-270077410D01*
X248753453Y-270131121D02*
X248759144Y-270077410D01*
X248753453Y-270131121D02*
X248753453Y-270131121D01*
X248748295Y-270185900D02*
X248753453Y-270131121D01*
X248748295Y-270185900D02*
X248748295Y-270185900D01*
X248747258Y-270241198D02*
X248748295Y-270185900D01*
X248747258Y-270241198D02*
X248747258Y-270241198D01*
X248748295Y-270297015D02*
X248747258Y-270241198D01*
X248748295Y-270297015D02*
X248748295Y-270297015D01*
X248753453Y-270351305D02*
X248748295Y-270297015D01*
X248753453Y-270351305D02*
X248753453Y-270351305D01*
X248759144Y-270405047D02*
X248753453Y-270351305D01*
X248759144Y-270405047D02*
X248759144Y-270405047D01*
X248769490Y-270458269D02*
X248759144Y-270405047D01*
X248769490Y-270458269D02*
X248769490Y-270458269D01*
X248781376Y-270510973D02*
X248769490Y-270458269D01*
X248781376Y-270510973D02*
X248781376Y-270510973D01*
X248795323Y-270562151D02*
X248781376Y-270510973D01*
X248795323Y-270562151D02*
X248795323Y-270562151D01*
X248812382Y-270612292D02*
X248795323Y-270562151D01*
X248812382Y-270612292D02*
X248812382Y-270612292D01*
X248832524Y-270661364D02*
X248812382Y-270612292D01*
X248832524Y-270661364D02*
X248832524Y-270661364D01*
X248853199Y-270709429D02*
X248832524Y-270661364D01*
X248853199Y-270709429D02*
X248853199Y-270709429D01*
X248877476Y-270755419D02*
X248853199Y-270709429D01*
X248877476Y-270755419D02*
X248877476Y-270755419D01*
X248903325Y-270800371D02*
X248877476Y-270755419D01*
X248903325Y-270800371D02*
X248903325Y-270800371D01*
X248931233Y-270844317D02*
X248903325Y-270800371D01*
X248931233Y-270844317D02*
X248931233Y-270844317D01*
X248961201Y-270886156D02*
X248931233Y-270844317D01*
X248961201Y-270886156D02*
X248961201Y-270886156D01*
X248993245Y-270926989D02*
X248961201Y-270886156D01*
X248993245Y-270926989D02*
X248993245Y-270926989D01*
X249027348Y-270966265D02*
X248993245Y-270926989D01*
X249027348Y-270966265D02*
X249027348Y-270966265D01*
X249063527Y-271002978D02*
X249027348Y-270966265D01*
X249063527Y-271002978D02*
X249063527Y-271002978D01*
X249100224Y-271039172D02*
X249063527Y-271002978D01*
X249100224Y-271039172D02*
X249100224Y-271039172D01*
X249139500Y-271073260D02*
X249100224Y-271039172D01*
X249139500Y-271073260D02*
X249139500Y-271073260D01*
X249180317Y-271105303D02*
X249139500Y-271073260D01*
X249180317Y-271105303D02*
X249180317Y-271105303D01*
X249222172Y-271135302D02*
X249180317Y-271105303D01*
X249222172Y-271135302D02*
X249222172Y-271135302D01*
X249266102Y-271163195D02*
X249222172Y-271135302D01*
X249266102Y-271163195D02*
X249266102Y-271163195D01*
X249311055Y-271189013D02*
X249266102Y-271163195D01*
X249311055Y-271189013D02*
X249311055Y-271189013D01*
X249358067Y-271213305D02*
X249311055Y-271189013D01*
X249358067Y-271213305D02*
X249358067Y-271213305D01*
X249406132Y-271235003D02*
X249358067Y-271213305D01*
X249406132Y-271235003D02*
X249406132Y-271235003D01*
X249455220Y-271254137D02*
X249406132Y-271235003D01*
X249455220Y-271254137D02*
X249455220Y-271254137D01*
X249505360Y-271271197D02*
X249455220Y-271254137D01*
X249505360Y-271271197D02*
X249505360Y-271271197D01*
X249556523Y-271285143D02*
X249505360Y-271271197D01*
X249556523Y-271285143D02*
X249556523Y-271285143D01*
X249608189Y-271297015D02*
X249556523Y-271285143D01*
X249608189Y-271297015D02*
X249608189Y-271297015D01*
X249661412Y-271307360D02*
X249608189Y-271297015D01*
X249661412Y-271307360D02*
X249661412Y-271307360D01*
X249715168Y-271314074D02*
X249661412Y-271307360D01*
X249715168Y-271314074D02*
X249715168Y-271314074D01*
X249770451Y-271318194D02*
X249715168Y-271314074D01*
X249770451Y-271318194D02*
X249770451Y-271318194D01*
X249825230Y-271319231D02*
X249770451Y-271318194D01*
X249825230Y-271319231D02*
X249825230Y-271319231D01*
X249881031Y-271318194D02*
X249825230Y-271319231D01*
X249881031Y-271318194D02*
X249881031Y-271318194D01*
X249935292Y-271314074D02*
X249881031Y-271318194D01*
X249935292Y-271314074D02*
X249935292Y-271314074D01*
X249989033Y-271307360D02*
X249935292Y-271314074D01*
X249989033Y-271307360D02*
X249989033Y-271307360D01*
X250043293Y-271297015D02*
X249989033Y-271307360D01*
X250043293Y-271297015D02*
X250043293Y-271297015D01*
X250095478Y-271285143D02*
X250043293Y-271297015D01*
X250095478Y-271285143D02*
X250095478Y-271285143D01*
X250146122Y-271271197D02*
X250095478Y-271285143D01*
X250146122Y-271271197D02*
X250146122Y-271271197D01*
X250196247Y-271254137D02*
X250146122Y-271271197D01*
X250196247Y-271254137D02*
X250196247Y-271254137D01*
X250245335Y-271235033D02*
X250196247Y-271254137D01*
X250245335Y-271235033D02*
X250245335Y-271235033D01*
X250293400Y-271213335D02*
X250245335Y-271235033D01*
X250293400Y-271213335D02*
X250293400Y-271213335D01*
X250339390Y-271189043D02*
X250293400Y-271213335D01*
X250339390Y-271189043D02*
X250339390Y-271189043D01*
X250384343Y-271163195D02*
X250339390Y-271189043D01*
X250384343Y-271163195D02*
X250384343Y-271163195D01*
X250428288Y-271135302D02*
X250384343Y-271163195D01*
X250428288Y-271135302D02*
X250428288Y-271135302D01*
X250470143Y-271105303D02*
X250428288Y-271135302D01*
X250470143Y-271105303D02*
X250470143Y-271105303D01*
X250511479Y-271073260D02*
X250470143Y-271105303D01*
X250511479Y-271073260D02*
X250511479Y-271073260D01*
X250550236Y-271039172D02*
X250511479Y-271073260D01*
X250550236Y-271039172D02*
X250550236Y-271039172D01*
X250588475Y-271002978D02*
X250550236Y-271039172D01*
X250588475Y-271002978D02*
X250588475Y-271002978D01*
X250623097Y-270966265D02*
X250588475Y-271002978D01*
X250623097Y-270966265D02*
X250623097Y-270966265D01*
X250657200Y-270926989D02*
X250623097Y-270966265D01*
X250657200Y-270926989D02*
X250657200Y-270926989D01*
X250689228Y-270886156D02*
X250657200Y-270926989D01*
X250689228Y-270886156D02*
X250689228Y-270886156D01*
X250719212Y-270844317D02*
X250689228Y-270886156D01*
X250719212Y-270844317D02*
X250719212Y-270844317D01*
X250747120Y-270800371D02*
X250719212Y-270844317D01*
X250747120Y-270800371D02*
X250747120Y-270800371D01*
X250773472Y-270755419D02*
X250747120Y-270800371D01*
X250773472Y-270755419D02*
X250773472Y-270755419D01*
X250797245Y-270709429D02*
X250773472Y-270755419D01*
X250797245Y-270709429D02*
X250797245Y-270709429D01*
X250819462Y-270661364D02*
X250797245Y-270709429D01*
X250819462Y-270661364D02*
X250819462Y-270661364D01*
X250838063Y-270612292D02*
X250819462Y-270661364D01*
X250838063Y-270612292D02*
X250838063Y-270612292D01*
X250855107Y-270562151D02*
X250838063Y-270612292D01*
X250855107Y-270562151D02*
X250855107Y-270562151D01*
X250870091Y-270510973D02*
X250855107Y-270562151D01*
X250870091Y-270510973D02*
X250870091Y-270510973D01*
X250882496Y-270458269D02*
X250870091Y-270510973D01*
X250882496Y-270458269D02*
X250882496Y-270458269D01*
X250891270Y-270405047D02*
X250882496Y-270458269D01*
X250891270Y-270405047D02*
X250891270Y-270405047D01*
X250897999Y-270351305D02*
X250891270Y-270405047D01*
X250897999Y-270351305D02*
X250897999Y-270351305D01*
X250902119Y-270297015D02*
X250897999Y-270351305D01*
X250902119Y-270297015D02*
X250902119Y-270297015D01*
X250903141Y-270241198D02*
X250902119Y-270297015D01*
X250903141Y-270241198D02*
X250903141Y-270241198D01*
X250902119Y-270185900D02*
X250903141Y-270241198D01*
X250902119Y-270185900D02*
X250902119Y-270185900D01*
X250897999Y-270131121D02*
X250902119Y-270185900D01*
X250897999Y-270131121D02*
X250897999Y-270131121D01*
X250891270Y-270077410D02*
X250897999Y-270131121D01*
X250891270Y-270077410D02*
X250891270Y-270077410D01*
X250882496Y-270024187D02*
X250891270Y-270077410D01*
X250882496Y-270024187D02*
X250882496Y-270024187D01*
X250870091Y-269972002D02*
X250882496Y-270024187D01*
X250870091Y-269972002D02*
X250870091Y-269972002D01*
X250855107Y-269920306D02*
X250870091Y-269972002D01*
X250855107Y-269920306D02*
X250855107Y-269920306D01*
X250838063Y-269870196D02*
X250855107Y-269920306D01*
X250838063Y-269870196D02*
X250838063Y-269870196D01*
X250819447Y-269821123D02*
X250838063Y-269870196D01*
X250819447Y-269821123D02*
X250819447Y-269821123D01*
X250797230Y-269774096D02*
X250819447Y-269821123D01*
X250797230Y-269774096D02*
X250797230Y-269774096D01*
X250773457Y-269727068D02*
X250797230Y-269774096D01*
X250773457Y-269727068D02*
X250773457Y-269727068D01*
X250747090Y-269682116D02*
X250773457Y-269727068D01*
X250747090Y-269682116D02*
X250747090Y-269682116D01*
X250719181Y-269638171D02*
X250747090Y-269682116D01*
X250719181Y-269638171D02*
X250719181Y-269638171D01*
X250689198Y-269596300D02*
X250719181Y-269638171D01*
X250689198Y-269596300D02*
X250689198Y-269596300D01*
X250657170Y-269554980D02*
X250689198Y-269596300D01*
X250657170Y-269554980D02*
X250657170Y-269554980D01*
X250623066Y-269516222D02*
X250657170Y-269554980D01*
X250623066Y-269516222D02*
X250623066Y-269516222D01*
X250588444Y-269478991D02*
X250623066Y-269516222D01*
X250588444Y-269478991D02*
X250588444Y-269478991D01*
X250550206Y-269443346D02*
X250588444Y-269478991D01*
X250550206Y-269443346D02*
X250550206Y-269443346D01*
X250511448Y-269409228D02*
X250550206Y-269443346D01*
X250511448Y-269409228D02*
X250511448Y-269409228D01*
X250470112Y-269377215D02*
X250511448Y-269409228D01*
X250470112Y-269377215D02*
X250470112Y-269377215D01*
X250428257Y-269347216D02*
X250470112Y-269377215D01*
X250428257Y-269347216D02*
X250428257Y-269347216D01*
X250384312Y-269319323D02*
X250428257Y-269347216D01*
X250384312Y-269319323D02*
X250384312Y-269319323D01*
X250339360Y-269292956D02*
X250384312Y-269319323D01*
X250339360Y-269292956D02*
X250339360Y-269292956D01*
X250293370Y-269269182D02*
X250339360Y-269292956D01*
X250293370Y-269269182D02*
X250293370Y-269269182D01*
X250245304Y-269248003D02*
X250293370Y-269269182D01*
X250245304Y-269248003D02*
X250245304Y-269248003D01*
X250196217Y-269228380D02*
X250245304Y-269248003D01*
X250196217Y-269228380D02*
X250196217Y-269228380D01*
X250146092Y-269211321D02*
X250196217Y-269228380D01*
X250146092Y-269211321D02*
X250146092Y-269211321D01*
X250095448Y-269197375D02*
X250146092Y-269211321D01*
X250095448Y-269197375D02*
X250095448Y-269197375D01*
X250043263Y-269184954D02*
X250095448Y-269197375D01*
X250043263Y-269184954D02*
X250043263Y-269184954D01*
X249989003Y-269175127D02*
X250043263Y-269184954D01*
X249989003Y-269175127D02*
X249989003Y-269175127D01*
X249935261Y-269168413D02*
X249989003Y-269175127D01*
X249935261Y-269168413D02*
X249935261Y-269168413D01*
X249881001Y-269164294D02*
X249935261Y-269168413D01*
X249881001Y-269164294D02*
X249881001Y-269164294D01*
X249825200Y-269163256D02*
X249881001Y-269164294D01*
X349626271Y-269164355D02*
X349681111Y-269163256D01*
X349626271Y-269164355D02*
X349626271Y-269164355D01*
X349570973Y-269168474D02*
X349626271Y-269164355D01*
X349570973Y-269168474D02*
X349570973Y-269168474D01*
X349517262Y-269175188D02*
X349570973Y-269168474D01*
X349517262Y-269175188D02*
X349517262Y-269175188D01*
X349464039Y-269185015D02*
X349517262Y-269175188D01*
X349464039Y-269185015D02*
X349464039Y-269185015D01*
X349412342Y-269197405D02*
X349464039Y-269185015D01*
X349412342Y-269197405D02*
X349412342Y-269197405D01*
X349361195Y-269211352D02*
X349412342Y-269197405D01*
X349361195Y-269211352D02*
X349361195Y-269211352D01*
X349311024Y-269228411D02*
X349361195Y-269211352D01*
X349311024Y-269228411D02*
X349311024Y-269228411D01*
X349261952Y-269248034D02*
X349311024Y-269228411D01*
X349261952Y-269248034D02*
X349261952Y-269248034D01*
X349214405Y-269269213D02*
X349261952Y-269248034D01*
X349214405Y-269269213D02*
X349214405Y-269269213D01*
X349167378Y-269292986D02*
X349214405Y-269269213D01*
X349167378Y-269292986D02*
X349167378Y-269292986D01*
X349122425Y-269319353D02*
X349167378Y-269292986D01*
X349122425Y-269319353D02*
X349122425Y-269319353D01*
X349077992Y-269347246D02*
X349122425Y-269319353D01*
X349077992Y-269347246D02*
X349077992Y-269347246D01*
X349036122Y-269377245D02*
X349077992Y-269347246D01*
X349036122Y-269377245D02*
X349036122Y-269377245D01*
X348995289Y-269409289D02*
X349036122Y-269377245D01*
X348995289Y-269409289D02*
X348995289Y-269409289D01*
X348956044Y-269443377D02*
X348995289Y-269409289D01*
X348956044Y-269443377D02*
X348956044Y-269443377D01*
X348919331Y-269479021D02*
X348956044Y-269443377D01*
X348919331Y-269479021D02*
X348919331Y-269479021D01*
X348883168Y-269516253D02*
X348919331Y-269479021D01*
X348883168Y-269516253D02*
X348883168Y-269516253D01*
X348849049Y-269555010D02*
X348883168Y-269516253D01*
X348849049Y-269555010D02*
X348849049Y-269555010D01*
X348817036Y-269596361D02*
X348849049Y-269555010D01*
X348817036Y-269596361D02*
X348817036Y-269596361D01*
X348787037Y-269638201D02*
X348817036Y-269596361D01*
X348787037Y-269638201D02*
X348787037Y-269638201D01*
X348759144Y-269682116D02*
X348787037Y-269638201D01*
X348759144Y-269682116D02*
X348759144Y-269682116D01*
X348733296Y-269727068D02*
X348759144Y-269682116D01*
X348733296Y-269727068D02*
X348733296Y-269727068D01*
X348709034Y-269774096D02*
X348733296Y-269727068D01*
X348709034Y-269774096D02*
X348709034Y-269774096D01*
X348688343Y-269821123D02*
X348709034Y-269774096D01*
X348688343Y-269821123D02*
X348688343Y-269821123D01*
X348669209Y-269870196D02*
X348688343Y-269821123D01*
X348669209Y-269870196D02*
X348669209Y-269870196D01*
X348652150Y-269920306D02*
X348669209Y-269870196D01*
X348652150Y-269920306D02*
X348652150Y-269920306D01*
X348637196Y-269972002D02*
X348652150Y-269920306D01*
X348637196Y-269972002D02*
X348637196Y-269972002D01*
X348625264Y-270024187D02*
X348637196Y-269972002D01*
X348625264Y-270024187D02*
X348625264Y-270024187D01*
X348615956Y-270077410D02*
X348625264Y-270024187D01*
X348615956Y-270077410D02*
X348615956Y-270077410D01*
X348609242Y-270131121D02*
X348615956Y-270077410D01*
X348609242Y-270131121D02*
X348609242Y-270131121D01*
X348605122Y-270185900D02*
X348609242Y-270131121D01*
X348605122Y-270185900D02*
X348605122Y-270185900D01*
X348603047Y-270241198D02*
X348605122Y-270185900D01*
X348603047Y-270241198D02*
X348603047Y-270241198D01*
X348605122Y-270297015D02*
X348603047Y-270241198D01*
X348605122Y-270297015D02*
X348605122Y-270297015D01*
X348609242Y-270351305D02*
X348605122Y-270297015D01*
X348609242Y-270351305D02*
X348609242Y-270351305D01*
X348615956Y-270405047D02*
X348609242Y-270351305D01*
X348615956Y-270405047D02*
X348615956Y-270405047D01*
X348625264Y-270458269D02*
X348615956Y-270405047D01*
X348625264Y-270458269D02*
X348625264Y-270458269D01*
X348637196Y-270510973D02*
X348625264Y-270458269D01*
X348637196Y-270510973D02*
X348637196Y-270510973D01*
X348652150Y-270562151D02*
X348637196Y-270510973D01*
X348652150Y-270562151D02*
X348652150Y-270562151D01*
X348669209Y-270612292D02*
X348652150Y-270562151D01*
X348669209Y-270612292D02*
X348669209Y-270612292D01*
X348688313Y-270661364D02*
X348669209Y-270612292D01*
X348688313Y-270661364D02*
X348688313Y-270661364D01*
X348709004Y-270709429D02*
X348688313Y-270661364D01*
X348709004Y-270709429D02*
X348709004Y-270709429D01*
X348733265Y-270755419D02*
X348709004Y-270709429D01*
X348733265Y-270755419D02*
X348733265Y-270755419D01*
X348759114Y-270800371D02*
X348733265Y-270755419D01*
X348759114Y-270800371D02*
X348759114Y-270800371D01*
X348787007Y-270844317D02*
X348759114Y-270800371D01*
X348787007Y-270844317D02*
X348787007Y-270844317D01*
X348817006Y-270886156D02*
X348787007Y-270844317D01*
X348817006Y-270886156D02*
X348817006Y-270886156D01*
X348849018Y-270926989D02*
X348817006Y-270886156D01*
X348849018Y-270926989D02*
X348849018Y-270926989D01*
X348883137Y-270966265D02*
X348849018Y-270926989D01*
X348883137Y-270966265D02*
X348883137Y-270966265D01*
X348919300Y-271002978D02*
X348883137Y-270966265D01*
X348919300Y-271002978D02*
X348919300Y-271002978D01*
X348956013Y-271039172D02*
X348919300Y-271002978D01*
X348956013Y-271039172D02*
X348956013Y-271039172D01*
X348995289Y-271073260D02*
X348956013Y-271039172D01*
X348995289Y-271073260D02*
X348995289Y-271073260D01*
X349036122Y-271105303D02*
X348995289Y-271073260D01*
X349036122Y-271105303D02*
X349036122Y-271105303D01*
X349077992Y-271135302D02*
X349036122Y-271105303D01*
X349077992Y-271135302D02*
X349077992Y-271135302D01*
X349122425Y-271163195D02*
X349077992Y-271135302D01*
X349122425Y-271163195D02*
X349122425Y-271163195D01*
X349167378Y-271189013D02*
X349122425Y-271163195D01*
X349167378Y-271189013D02*
X349167378Y-271189013D01*
X349214405Y-271213305D02*
X349167378Y-271189013D01*
X349214405Y-271213305D02*
X349214405Y-271213305D01*
X349261952Y-271235003D02*
X349214405Y-271213305D01*
X349261952Y-271235003D02*
X349261952Y-271235003D01*
X349311024Y-271254137D02*
X349261952Y-271235003D01*
X349311024Y-271254137D02*
X349311024Y-271254137D01*
X349361195Y-271271197D02*
X349311024Y-271254137D01*
X349361195Y-271271197D02*
X349361195Y-271271197D01*
X349412342Y-271285143D02*
X349361195Y-271271197D01*
X349412342Y-271285143D02*
X349412342Y-271285143D01*
X349464039Y-271297015D02*
X349412342Y-271285143D01*
X349464039Y-271297015D02*
X349464039Y-271297015D01*
X349517262Y-271307360D02*
X349464039Y-271297015D01*
X349517262Y-271307360D02*
X349517262Y-271307360D01*
X349570973Y-271314074D02*
X349517262Y-271307360D01*
X349570973Y-271314074D02*
X349570973Y-271314074D01*
X349626271Y-271318194D02*
X349570973Y-271314074D01*
X349626271Y-271318194D02*
X349626271Y-271318194D01*
X349681050Y-271319231D02*
X349626271Y-271318194D01*
X349681050Y-271319231D02*
X349681050Y-271319231D01*
X349737385Y-271318194D02*
X349681050Y-271319231D01*
X349737385Y-271318194D02*
X349737385Y-271318194D01*
X349792164Y-271314074D02*
X349737385Y-271318194D01*
X349792164Y-271314074D02*
X349792164Y-271314074D01*
X349846424Y-271307360D02*
X349792164Y-271314074D01*
X349846424Y-271307360D02*
X349846424Y-271307360D01*
X349899128Y-271297015D02*
X349846424Y-271307360D01*
X349899128Y-271297015D02*
X349899128Y-271297015D01*
X349951313Y-271285143D02*
X349899128Y-271297015D01*
X349951313Y-271285143D02*
X349951313Y-271285143D01*
X350001973Y-271271197D02*
X349951313Y-271285143D01*
X350001973Y-271271197D02*
X350001973Y-271271197D01*
X350052113Y-271254137D02*
X350001973Y-271271197D01*
X350052113Y-271254137D02*
X350052113Y-271254137D01*
X350101216Y-271235033D02*
X350052113Y-271254137D01*
X350101216Y-271235033D02*
X350101216Y-271235033D01*
X350149281Y-271213335D02*
X350101216Y-271235033D01*
X350149281Y-271213335D02*
X350149281Y-271213335D01*
X350195271Y-271189043D02*
X350149281Y-271213335D01*
X350195271Y-271189043D02*
X350195271Y-271189043D01*
X350240223Y-271163195D02*
X350195271Y-271189043D01*
X350240223Y-271163195D02*
X350240223Y-271163195D01*
X350284169Y-271135302D02*
X350240223Y-271163195D01*
X350284169Y-271135302D02*
X350284169Y-271135302D01*
X350326008Y-271105303D02*
X350284169Y-271135302D01*
X350326008Y-271105303D02*
X350326008Y-271105303D01*
X350367360Y-271073260D02*
X350326008Y-271105303D01*
X350367360Y-271073260D02*
X350367360Y-271073260D01*
X350406117Y-271039172D02*
X350367360Y-271073260D01*
X350406117Y-271039172D02*
X350406117Y-271039172D01*
X350444355Y-271002978D02*
X350406117Y-271039172D01*
X350444355Y-271002978D02*
X350444355Y-271002978D01*
X350478962Y-270966265D02*
X350444355Y-271002978D01*
X350478962Y-270966265D02*
X350478962Y-270966265D01*
X350513081Y-270926989D02*
X350478962Y-270966265D01*
X350513081Y-270926989D02*
X350513081Y-270926989D01*
X350545124Y-270886156D02*
X350513081Y-270926989D01*
X350545124Y-270886156D02*
X350545124Y-270886156D01*
X350575093Y-270844317D02*
X350545124Y-270886156D01*
X350575093Y-270844317D02*
X350575093Y-270844317D01*
X350603016Y-270800371D02*
X350575093Y-270844317D01*
X350603016Y-270800371D02*
X350603016Y-270800371D01*
X350629383Y-270755419D02*
X350603016Y-270800371D01*
X350629383Y-270755419D02*
X350629383Y-270755419D01*
X350653157Y-270709429D02*
X350629383Y-270755419D01*
X350653157Y-270709429D02*
X350653157Y-270709429D01*
X350675373Y-270661364D02*
X350653157Y-270709429D01*
X350675373Y-270661364D02*
X350675373Y-270661364D01*
X350694477Y-270612292D02*
X350675373Y-270661364D01*
X350694477Y-270612292D02*
X350694477Y-270612292D01*
X350711018Y-270562151D02*
X350694477Y-270612292D01*
X350711018Y-270562151D02*
X350711018Y-270562151D01*
X350725972Y-270510973D02*
X350711018Y-270562151D01*
X350725972Y-270510973D02*
X350725972Y-270510973D01*
X350738392Y-270458269D02*
X350725972Y-270510973D01*
X350738392Y-270458269D02*
X350738392Y-270458269D01*
X350747212Y-270405047D02*
X350738392Y-270458269D01*
X350747212Y-270405047D02*
X350747212Y-270405047D01*
X350754445Y-270351305D02*
X350747212Y-270405047D01*
X350754445Y-270351305D02*
X350754445Y-270351305D01*
X350758046Y-270297015D02*
X350754445Y-270351305D01*
X350758046Y-270297015D02*
X350758046Y-270297015D01*
X350760121Y-270241198D02*
X350758046Y-270297015D01*
X350760121Y-270241198D02*
X350760121Y-270241198D01*
X350758046Y-270185900D02*
X350760121Y-270241198D01*
X350758046Y-270185900D02*
X350758046Y-270185900D01*
X350754445Y-270131121D02*
X350758046Y-270185900D01*
X350754445Y-270131121D02*
X350754445Y-270131121D01*
X350747212Y-270077410D02*
X350754445Y-270131121D01*
X350747212Y-270077410D02*
X350747212Y-270077410D01*
X350738392Y-270024187D02*
X350747212Y-270077410D01*
X350738392Y-270024187D02*
X350738392Y-270024187D01*
X350726002Y-269972002D02*
X350738392Y-270024187D01*
X350726002Y-269972002D02*
X350726002Y-269972002D01*
X350711049Y-269920306D02*
X350726002Y-269972002D01*
X350711049Y-269920306D02*
X350711049Y-269920306D01*
X350694508Y-269870196D02*
X350711049Y-269920306D01*
X350694508Y-269870196D02*
X350694508Y-269870196D01*
X350675404Y-269821123D02*
X350694508Y-269870196D01*
X350675404Y-269821123D02*
X350675404Y-269821123D01*
X350653187Y-269774096D02*
X350675404Y-269821123D01*
X350653187Y-269774096D02*
X350653187Y-269774096D01*
X350629414Y-269727068D02*
X350653187Y-269774096D01*
X350629414Y-269727068D02*
X350629414Y-269727068D01*
X350603047Y-269682116D02*
X350629414Y-269727068D01*
X350603047Y-269682116D02*
X350603047Y-269682116D01*
X350575123Y-269638171D02*
X350603047Y-269682116D01*
X350575123Y-269638171D02*
X350575123Y-269638171D01*
X350545155Y-269596300D02*
X350575123Y-269638171D01*
X350545155Y-269596300D02*
X350545155Y-269596300D01*
X350513111Y-269554980D02*
X350545155Y-269596300D01*
X350513111Y-269554980D02*
X350513111Y-269554980D01*
X350478993Y-269516222D02*
X350513111Y-269554980D01*
X350478993Y-269516222D02*
X350478993Y-269516222D01*
X350444386Y-269478991D02*
X350478993Y-269516222D01*
X350444386Y-269478991D02*
X350444386Y-269478991D01*
X350406147Y-269443346D02*
X350444386Y-269478991D01*
X350406147Y-269443346D02*
X350406147Y-269443346D01*
X350367390Y-269409228D02*
X350406147Y-269443346D01*
X350367390Y-269409228D02*
X350367390Y-269409228D01*
X350326039Y-269377215D02*
X350367390Y-269409228D01*
X350326039Y-269377215D02*
X350326039Y-269377215D01*
X350284199Y-269347216D02*
X350326039Y-269377215D01*
X350284199Y-269347216D02*
X350284199Y-269347216D01*
X350240254Y-269319323D02*
X350284199Y-269347216D01*
X350240254Y-269319323D02*
X350240254Y-269319323D01*
X350195301Y-269292956D02*
X350240254Y-269319323D01*
X350195301Y-269292956D02*
X350195301Y-269292956D01*
X350149311Y-269269182D02*
X350195301Y-269292956D01*
X350149311Y-269269182D02*
X350149311Y-269269182D01*
X350101246Y-269248003D02*
X350149311Y-269269182D01*
X350101246Y-269248003D02*
X350101246Y-269248003D01*
X350052143Y-269228380D02*
X350101246Y-269248003D01*
X350052143Y-269228380D02*
X350052143Y-269228380D01*
X350002003Y-269211321D02*
X350052143Y-269228380D01*
X350002003Y-269211321D02*
X350002003Y-269211321D01*
X349951405Y-269197375D02*
X350002003Y-269211321D01*
X349951405Y-269197375D02*
X349951405Y-269197375D01*
X349899189Y-269184954D02*
X349951405Y-269197375D01*
X349899189Y-269184954D02*
X349899189Y-269184954D01*
X349846486Y-269175127D02*
X349899189Y-269184954D01*
X349846486Y-269175127D02*
X349846486Y-269175127D01*
X349792225Y-269168413D02*
X349846486Y-269175127D01*
X349792225Y-269168413D02*
X349792225Y-269168413D01*
X349737446Y-269164294D02*
X349792225Y-269168413D01*
X349737446Y-269164294D02*
X349737446Y-269164294D01*
X349681111Y-269163256D02*
X349737446Y-269164294D01*
X436121296Y-269164263D02*
X436174031Y-269163256D01*
X436121296Y-269164263D02*
X436121296Y-269164263D01*
X436068074Y-269168383D02*
X436121296Y-269164263D01*
X436068074Y-269168383D02*
X436068074Y-269168383D01*
X436015370Y-269175097D02*
X436068074Y-269168383D01*
X436015370Y-269175097D02*
X436015370Y-269175097D01*
X435963185Y-269183855D02*
X436015370Y-269175097D01*
X435963185Y-269183855D02*
X435963185Y-269183855D01*
X435912007Y-269195238D02*
X435963185Y-269183855D01*
X435912007Y-269195238D02*
X435912007Y-269195238D01*
X435861409Y-269209185D02*
X435912007Y-269195238D01*
X435861409Y-269209185D02*
X435861409Y-269209185D01*
X435811299Y-269226244D02*
X435861409Y-269209185D01*
X435811299Y-269226244D02*
X435811299Y-269226244D01*
X435762196Y-269245348D02*
X435811299Y-269226244D01*
X435762196Y-269245348D02*
X435762196Y-269245348D01*
X435714131Y-269266009D02*
X435762196Y-269245348D01*
X435714131Y-269266009D02*
X435714131Y-269266009D01*
X435667134Y-269290301D02*
X435714131Y-269266009D01*
X435667134Y-269290301D02*
X435667134Y-269290301D01*
X435621144Y-269316149D02*
X435667134Y-269290301D01*
X435621144Y-269316149D02*
X435621144Y-269316149D01*
X435576191Y-269344073D02*
X435621144Y-269316149D01*
X435576191Y-269344073D02*
X435576191Y-269344073D01*
X435533314Y-269374041D02*
X435576191Y-269344073D01*
X435533314Y-269374041D02*
X435533314Y-269374041D01*
X435491444Y-269407122D02*
X435533314Y-269374041D01*
X435491444Y-269407122D02*
X435491444Y-269407122D01*
X435451130Y-269442278D02*
X435491444Y-269407122D01*
X435451130Y-269442278D02*
X435451130Y-269442278D01*
X435412373Y-269478960D02*
X435451130Y-269442278D01*
X435412373Y-269478960D02*
X435412373Y-269478960D01*
X435375203Y-269517199D02*
X435412373Y-269478960D01*
X435375203Y-269517199D02*
X435375203Y-269517199D01*
X435340565Y-269558031D02*
X435375203Y-269517199D01*
X435340565Y-269558031D02*
X435340565Y-269558031D01*
X435308522Y-269599901D02*
X435340565Y-269558031D01*
X435308522Y-269599901D02*
X435308522Y-269599901D01*
X435277516Y-269643328D02*
X435308522Y-269599901D01*
X435277516Y-269643328D02*
X435277516Y-269643328D01*
X435249104Y-269687273D02*
X435277516Y-269643328D01*
X435249104Y-269687273D02*
X435249104Y-269687273D01*
X435223286Y-269733233D02*
X435249104Y-269687273D01*
X435223286Y-269733233D02*
X435223286Y-269733233D01*
X435200520Y-269780291D02*
X435223286Y-269733233D01*
X435200520Y-269780291D02*
X435200520Y-269780291D01*
X435178334Y-269828356D02*
X435200520Y-269780291D01*
X435178334Y-269828356D02*
X435178334Y-269828356D01*
X435159199Y-269877947D02*
X435178334Y-269828356D01*
X435159199Y-269877947D02*
X435159199Y-269877947D01*
X435143147Y-269927019D02*
X435159199Y-269877947D01*
X435143147Y-269927019D02*
X435143147Y-269927019D01*
X435129200Y-269978197D02*
X435143147Y-269927019D01*
X435129200Y-269978197D02*
X435129200Y-269978197D01*
X435117299Y-270030382D02*
X435129200Y-269978197D01*
X435117299Y-270030382D02*
X435117299Y-270030382D01*
X435108540Y-270082079D02*
X435117299Y-270030382D01*
X435108540Y-270082079D02*
X435108540Y-270082079D01*
X435101307Y-270135302D02*
X435108540Y-270082079D01*
X435101307Y-270135302D02*
X435101307Y-270135302D01*
X435097187Y-270188006D02*
X435101307Y-270135302D01*
X435097187Y-270188006D02*
X435097187Y-270188006D01*
X435096150Y-270241198D02*
X435097187Y-270188006D01*
X435096150Y-270241198D02*
X435096150Y-270241198D01*
X435097187Y-270294970D02*
X435096150Y-270241198D01*
X435097187Y-270294970D02*
X435097187Y-270294970D01*
X435101307Y-270348193D02*
X435097187Y-270294970D01*
X435101307Y-270348193D02*
X435101307Y-270348193D01*
X435108540Y-270400378D02*
X435101307Y-270348193D01*
X435108540Y-270400378D02*
X435108540Y-270400378D01*
X435117299Y-270452044D02*
X435108540Y-270400378D01*
X435117299Y-270452044D02*
X435117299Y-270452044D01*
X435129200Y-270504259D02*
X435117299Y-270452044D01*
X435129200Y-270504259D02*
X435129200Y-270504259D01*
X435143147Y-270555407D02*
X435129200Y-270504259D01*
X435143147Y-270555407D02*
X435143147Y-270555407D01*
X435159199Y-270605028D02*
X435143147Y-270555407D01*
X435159199Y-270605028D02*
X435159199Y-270605028D01*
X435178303Y-270654101D02*
X435159199Y-270605028D01*
X435178303Y-270654101D02*
X435178303Y-270654101D01*
X435200489Y-270702166D02*
X435178303Y-270654101D01*
X435200489Y-270702166D02*
X435200489Y-270702166D01*
X435223256Y-270749193D02*
X435200489Y-270702166D01*
X435223256Y-270749193D02*
X435223256Y-270749193D01*
X435249104Y-270795183D02*
X435223256Y-270749193D01*
X435249104Y-270795183D02*
X435249104Y-270795183D01*
X435277516Y-270839129D02*
X435249104Y-270795183D01*
X435277516Y-270839129D02*
X435277516Y-270839129D01*
X435308522Y-270883074D02*
X435277516Y-270839129D01*
X435308522Y-270883074D02*
X435308522Y-270883074D01*
X435340565Y-270924425D02*
X435308522Y-270883074D01*
X435340565Y-270924425D02*
X435340565Y-270924425D01*
X435375203Y-270965227D02*
X435340565Y-270924425D01*
X435375203Y-270965227D02*
X435375203Y-270965227D01*
X435412373Y-271002978D02*
X435375203Y-270965227D01*
X435412373Y-271002978D02*
X435412373Y-271002978D01*
X435451130Y-271040179D02*
X435412373Y-271002978D01*
X435451130Y-271040179D02*
X435451130Y-271040179D01*
X435491444Y-271075335D02*
X435451130Y-271040179D01*
X435491444Y-271075335D02*
X435491444Y-271075335D01*
X435533314Y-271108385D02*
X435491444Y-271075335D01*
X435533314Y-271108385D02*
X435533314Y-271108385D01*
X435576191Y-271138354D02*
X435533314Y-271108385D01*
X435576191Y-271138354D02*
X435576191Y-271138354D01*
X435621144Y-271166277D02*
X435576191Y-271138354D01*
X435621144Y-271166277D02*
X435621144Y-271166277D01*
X435667134Y-271192095D02*
X435621144Y-271166277D01*
X435667134Y-271192095D02*
X435667134Y-271192095D01*
X435714131Y-271216387D02*
X435667134Y-271192095D01*
X435714131Y-271216387D02*
X435714131Y-271216387D01*
X435762196Y-271237047D02*
X435714131Y-271216387D01*
X435762196Y-271237047D02*
X435762196Y-271237047D01*
X435811299Y-271256182D02*
X435762196Y-271237047D01*
X435811299Y-271256182D02*
X435811299Y-271256182D01*
X435861409Y-271273241D02*
X435811299Y-271256182D01*
X435861409Y-271273241D02*
X435861409Y-271273241D01*
X435912068Y-271287188D02*
X435861409Y-271273241D01*
X435912068Y-271287188D02*
X435912068Y-271287188D01*
X435963215Y-271298052D02*
X435912068Y-271287188D01*
X435963215Y-271298052D02*
X435963215Y-271298052D01*
X436015400Y-271307360D02*
X435963215Y-271298052D01*
X436015400Y-271307360D02*
X436015400Y-271307360D01*
X436068104Y-271314074D02*
X436015400Y-271307360D01*
X436068104Y-271314074D02*
X436068104Y-271314074D01*
X436121327Y-271318194D02*
X436068104Y-271314074D01*
X436121327Y-271318194D02*
X436121327Y-271318194D01*
X436174031Y-271319231D02*
X436121327Y-271318194D01*
X436174031Y-271319231D02*
X436174031Y-271319231D01*
X436230366Y-271318194D02*
X436174031Y-271319231D01*
X436230366Y-271318194D02*
X436230366Y-271318194D01*
X436285145Y-271314074D02*
X436230366Y-271318194D01*
X436285145Y-271314074D02*
X436285145Y-271314074D01*
X436339405Y-271307360D02*
X436285145Y-271314074D01*
X436339405Y-271307360D02*
X436339405Y-271307360D01*
X436392109Y-271297015D02*
X436339405Y-271307360D01*
X436392109Y-271297015D02*
X436392109Y-271297015D01*
X436444294Y-271285143D02*
X436392109Y-271297015D01*
X436444294Y-271285143D02*
X436444294Y-271285143D01*
X436495472Y-271271197D02*
X436444294Y-271285143D01*
X436495472Y-271271197D02*
X436495472Y-271271197D01*
X436545063Y-271254137D02*
X436495472Y-271271197D01*
X436545063Y-271254137D02*
X436545063Y-271254137D01*
X436594166Y-271235033D02*
X436545063Y-271254137D01*
X436594166Y-271235033D02*
X436594166Y-271235033D01*
X436642231Y-271213335D02*
X436594166Y-271235033D01*
X436642231Y-271213335D02*
X436642231Y-271213335D01*
X436688221Y-271189043D02*
X436642231Y-271213335D01*
X436688221Y-271189043D02*
X436688221Y-271189043D01*
X436733174Y-271163195D02*
X436688221Y-271189043D01*
X436733174Y-271163195D02*
X436733174Y-271163195D01*
X436777119Y-271135302D02*
X436733174Y-271163195D01*
X436777119Y-271135302D02*
X436777119Y-271135302D01*
X436819477Y-271105303D02*
X436777119Y-271135302D01*
X436819477Y-271105303D02*
X436819477Y-271105303D01*
X436860310Y-271073260D02*
X436819477Y-271105303D01*
X436860310Y-271073260D02*
X436860310Y-271073260D01*
X436899067Y-271039172D02*
X436860310Y-271073260D01*
X436899067Y-271039172D02*
X436899067Y-271039172D01*
X436937306Y-271002978D02*
X436899067Y-271039172D01*
X436937306Y-271002978D02*
X436937306Y-271002978D01*
X436972432Y-270966265D02*
X436937306Y-271002978D01*
X436972432Y-270966265D02*
X436972432Y-270966265D01*
X437006031Y-270926989D02*
X436972432Y-270966265D01*
X437006031Y-270926989D02*
X437006031Y-270926989D01*
X437038075Y-270886156D02*
X437006031Y-270926989D01*
X437038075Y-270886156D02*
X437038075Y-270886156D01*
X437068043Y-270844317D02*
X437038075Y-270886156D01*
X437068043Y-270844317D02*
X437068043Y-270844317D01*
X437097493Y-270800371D02*
X437068043Y-270844317D01*
X437097493Y-270800371D02*
X437097493Y-270800371D01*
X437122303Y-270755419D02*
X437097493Y-270800371D01*
X437122303Y-270755419D02*
X437122303Y-270755419D01*
X437146077Y-270709429D02*
X437122303Y-270755419D01*
X437146077Y-270709429D02*
X437146077Y-270709429D01*
X437168263Y-270661364D02*
X437146077Y-270709429D01*
X437168263Y-270661364D02*
X437168263Y-270661364D01*
X437187397Y-270612292D02*
X437168263Y-270661364D01*
X437187397Y-270612292D02*
X437187397Y-270612292D01*
X437204457Y-270562151D02*
X437187397Y-270612292D01*
X437204457Y-270562151D02*
X437204457Y-270562151D01*
X437219441Y-270510973D02*
X437204457Y-270562151D01*
X437219441Y-270510973D02*
X437219441Y-270510973D01*
X437231312Y-270458269D02*
X437219441Y-270510973D01*
X437231312Y-270458269D02*
X437231312Y-270458269D01*
X437240101Y-270405047D02*
X437231312Y-270458269D01*
X437240101Y-270405047D02*
X437240101Y-270405047D01*
X437247334Y-270351305D02*
X437240101Y-270405047D01*
X437247334Y-270351305D02*
X437247334Y-270351305D01*
X437251484Y-270297015D02*
X437247334Y-270351305D01*
X437251484Y-270297015D02*
X437251484Y-270297015D01*
X437253010Y-270241198D02*
X437251484Y-270297015D01*
X437253010Y-270241198D02*
X437253010Y-270241198D01*
X437251484Y-270185900D02*
X437253010Y-270241198D01*
X437251484Y-270185900D02*
X437251484Y-270185900D01*
X437247334Y-270131121D02*
X437251484Y-270185900D01*
X437247334Y-270131121D02*
X437247334Y-270131121D01*
X437240101Y-270077410D02*
X437247334Y-270131121D01*
X437240101Y-270077410D02*
X437240101Y-270077410D01*
X437231312Y-270024187D02*
X437240101Y-270077410D01*
X437231312Y-270024187D02*
X437231312Y-270024187D01*
X437219441Y-269972002D02*
X437231312Y-270024187D01*
X437219441Y-269972002D02*
X437219441Y-269972002D01*
X437204457Y-269920306D02*
X437219441Y-269972002D01*
X437204457Y-269920306D02*
X437204457Y-269920306D01*
X437187397Y-269870196D02*
X437204457Y-269920306D01*
X437187397Y-269870196D02*
X437187397Y-269870196D01*
X437168263Y-269821123D02*
X437187397Y-269870196D01*
X437168263Y-269821123D02*
X437168263Y-269821123D01*
X437146077Y-269774096D02*
X437168263Y-269821123D01*
X437146077Y-269774096D02*
X437146077Y-269774096D01*
X437122303Y-269727068D02*
X437146077Y-269774096D01*
X437122303Y-269727068D02*
X437122303Y-269727068D01*
X437097493Y-269682116D02*
X437122303Y-269727068D01*
X437097493Y-269682116D02*
X437097493Y-269682116D01*
X437068043Y-269638171D02*
X437097493Y-269682116D01*
X437068043Y-269638171D02*
X437068043Y-269638171D01*
X437038075Y-269596300D02*
X437068043Y-269638171D01*
X437038075Y-269596300D02*
X437038075Y-269596300D01*
X437006031Y-269554980D02*
X437038075Y-269596300D01*
X437006031Y-269554980D02*
X437006031Y-269554980D01*
X436972432Y-269516222D02*
X437006031Y-269554980D01*
X436972432Y-269516222D02*
X436972432Y-269516222D01*
X436937306Y-269478991D02*
X436972432Y-269516222D01*
X436937306Y-269478991D02*
X436937306Y-269478991D01*
X436899067Y-269443346D02*
X436937306Y-269478991D01*
X436899067Y-269443346D02*
X436899067Y-269443346D01*
X436860310Y-269409228D02*
X436899067Y-269443346D01*
X436860310Y-269409228D02*
X436860310Y-269409228D01*
X436819477Y-269377215D02*
X436860310Y-269409228D01*
X436819477Y-269377215D02*
X436819477Y-269377215D01*
X436777119Y-269347216D02*
X436819477Y-269377215D01*
X436777119Y-269347216D02*
X436777119Y-269347216D01*
X436733174Y-269319323D02*
X436777119Y-269347216D01*
X436733174Y-269319323D02*
X436733174Y-269319323D01*
X436688221Y-269292956D02*
X436733174Y-269319323D01*
X436688221Y-269292956D02*
X436688221Y-269292956D01*
X436642231Y-269269182D02*
X436688221Y-269292956D01*
X436642231Y-269269182D02*
X436642231Y-269269182D01*
X436594166Y-269248003D02*
X436642231Y-269269182D01*
X436594166Y-269248003D02*
X436594166Y-269248003D01*
X436545063Y-269228380D02*
X436594166Y-269248003D01*
X436545063Y-269228380D02*
X436545063Y-269228380D01*
X436495472Y-269211321D02*
X436545063Y-269228380D01*
X436495472Y-269211321D02*
X436495472Y-269211321D01*
X436444294Y-269197375D02*
X436495472Y-269211321D01*
X436444294Y-269197375D02*
X436444294Y-269197375D01*
X436392109Y-269184954D02*
X436444294Y-269197375D01*
X436392109Y-269184954D02*
X436392109Y-269184954D01*
X436339405Y-269175127D02*
X436392109Y-269184954D01*
X436339405Y-269175127D02*
X436339405Y-269175127D01*
X436285145Y-269168413D02*
X436339405Y-269175127D01*
X436285145Y-269168413D02*
X436285145Y-269168413D01*
X436230366Y-269164294D02*
X436285145Y-269168413D01*
X436230366Y-269164294D02*
X436230366Y-269164294D01*
X436174031Y-269163256D02*
X436230366Y-269164294D01*
M02*
