%TF.GenerationSoftware,KiCad,Pcbnew,(6.0.5)*%
%TF.CreationDate,2022-06-29T23:50:53+09:00*%
%TF.ProjectId,sandwitch,73616e64-7769-4746-9368-2e6b69636164,rev?*%
%TF.SameCoordinates,Original*%
%TF.FileFunction,Profile,NP*%
%FSLAX46Y46*%
G04 Gerber Fmt 4.6, Leading zero omitted, Abs format (unit mm)*
G04 Created by KiCad (PCBNEW (6.0.5)) date 2022-06-29 23:50:53*
%MOMM*%
%LPD*%
G01*
G04 APERTURE LIST*
%TA.AperFunction,Profile*%
%ADD10C,0.096662*%
%TD*%
G04 APERTURE END LIST*
D10*
X469717852Y-267712403D02*
X469717852Y-267712403D01*
X469717852Y-267712403D02*
X469717852Y-267712403D01*
X469709723Y-268040380D02*
X469717852Y-267712403D01*
X469685485Y-268366132D02*
X469709723Y-268040380D01*
X469645362Y-268689116D02*
X469685485Y-268366132D01*
X469589579Y-269008790D02*
X469645362Y-268689116D01*
X469518361Y-269324611D02*
X469589579Y-269008790D01*
X469431932Y-269636038D02*
X469518361Y-269324611D01*
X469330516Y-269942528D02*
X469431932Y-269636038D01*
X469214339Y-270243538D02*
X469330516Y-269942528D01*
X469083625Y-270538527D02*
X469214339Y-270243538D01*
X468938598Y-270826952D02*
X469083625Y-270538527D01*
X468779483Y-271108270D02*
X468938598Y-270826952D01*
X468606504Y-271381939D02*
X468779483Y-271108270D01*
X468419886Y-271647418D02*
X468606504Y-271381939D01*
X468219854Y-271904163D02*
X468419886Y-271647418D01*
X468006632Y-272151632D02*
X468219854Y-271904163D01*
X467780444Y-272389283D02*
X468006632Y-272151632D01*
X467780444Y-272389283D02*
X467780444Y-272389283D01*
X467542755Y-272615435D02*
X467780444Y-272389283D01*
X467295251Y-272828621D02*
X467542755Y-272615435D01*
X467038474Y-273028616D02*
X467295251Y-272828621D01*
X466772968Y-273215195D02*
X467038474Y-273028616D01*
X466499273Y-273388134D02*
X466772968Y-273215195D01*
X466217932Y-273547208D02*
X466499273Y-273388134D01*
X465929488Y-273692193D02*
X466217932Y-273547208D01*
X465634482Y-273822865D02*
X465929488Y-273692193D01*
X465333457Y-273938999D02*
X465634482Y-273822865D01*
X465026955Y-274040370D02*
X465333457Y-273938999D01*
X464715518Y-274126755D02*
X465026955Y-274040370D01*
X464399689Y-274197928D02*
X464715518Y-274126755D01*
X464080009Y-274253666D02*
X464399689Y-274197928D01*
X463757021Y-274293743D02*
X464080009Y-274253666D01*
X463431267Y-274317936D02*
X463757021Y-274293743D01*
X463103289Y-274326020D02*
X463431267Y-274317936D01*
X463103289Y-274326020D02*
X463103289Y-274326020D01*
X136448718Y-274279664D02*
X463103289Y-274326020D01*
X136448718Y-274279664D02*
X136448718Y-274279664D01*
X136108301Y-274271009D02*
X136448718Y-274279664D01*
X135772353Y-274245421D02*
X136108301Y-274271009D01*
X135441290Y-274203313D02*
X135772353Y-274245421D01*
X135115527Y-274145103D02*
X135441290Y-274203313D01*
X134795479Y-274071204D02*
X135115527Y-274145103D01*
X134481563Y-273982033D02*
X134795479Y-274071204D01*
X134174193Y-273878005D02*
X134481563Y-273982033D01*
X133873786Y-273759536D02*
X134174193Y-273878005D01*
X133580756Y-273627041D02*
X133873786Y-273759536D01*
X133295519Y-273480936D02*
X133580756Y-273627041D01*
X133018491Y-273321635D02*
X133295519Y-273480936D01*
X132750087Y-273149556D02*
X133018491Y-273321635D01*
X132490722Y-272965112D02*
X132750087Y-273149556D01*
X132240813Y-272768720D02*
X132490722Y-272965112D01*
X132000774Y-272560794D02*
X132240813Y-272768720D01*
X131771021Y-272341752D02*
X132000774Y-272560794D01*
X131551969Y-272112007D02*
X131771021Y-272341752D01*
X131344035Y-271871976D02*
X131551969Y-272112007D01*
X131147633Y-271622073D02*
X131344035Y-271871976D01*
X130963179Y-271362715D02*
X131147633Y-271622073D01*
X130791089Y-271094317D02*
X130963179Y-271362715D01*
X130631778Y-270817295D02*
X130791089Y-271094317D01*
X130485661Y-270532063D02*
X130631778Y-270817295D01*
X130353154Y-270239038D02*
X130485661Y-270532063D01*
X130234673Y-269938635D02*
X130353154Y-270239038D01*
X130130633Y-269631269D02*
X130234673Y-269938635D01*
X130041449Y-269317355D02*
X130130633Y-269631269D01*
X129967537Y-268997311D02*
X130041449Y-269317355D01*
X129909313Y-268671549D02*
X129967537Y-268997311D01*
X129867191Y-268340488D02*
X129909313Y-268671549D01*
X129841588Y-268004541D02*
X129867191Y-268340488D01*
X129832919Y-267664124D02*
X129841588Y-268004541D01*
X129832919Y-267664124D02*
X129832919Y-267664124D01*
X129815783Y-174538208D02*
X129832919Y-267664124D01*
X129815783Y-174538208D02*
X129815783Y-174538208D01*
X129823853Y-174210233D02*
X129815783Y-174538208D01*
X129848033Y-173884481D02*
X129823853Y-174210233D01*
X129888099Y-173561495D02*
X129848033Y-173884481D01*
X129943825Y-173241816D02*
X129888099Y-173561495D01*
X130014988Y-172925987D02*
X129943825Y-173241816D01*
X130101363Y-172614551D02*
X130014988Y-172925987D01*
X130202725Y-172308050D02*
X130101363Y-172614551D01*
X130318850Y-172007025D02*
X130202725Y-172308050D01*
X130449514Y-171712020D02*
X130318850Y-172007025D01*
X130594491Y-171423577D02*
X130449514Y-171712020D01*
X130753557Y-171142238D02*
X130594491Y-171423577D01*
X130926488Y-170868545D02*
X130753557Y-171142238D01*
X131113059Y-170603041D02*
X130926488Y-170868545D01*
X131313046Y-170346268D02*
X131113059Y-170603041D01*
X131526224Y-170098769D02*
X131313046Y-170346268D01*
X131752368Y-169861084D02*
X131526224Y-170098769D01*
X131752368Y-169861084D02*
X131752368Y-169861084D01*
X131990010Y-169634894D02*
X131752368Y-169861084D01*
X132237470Y-169421668D02*
X131990010Y-169634894D01*
X132494206Y-169221633D02*
X132237470Y-169421668D01*
X132759675Y-169035011D02*
X132494206Y-169221633D01*
X133033336Y-168862029D02*
X132759675Y-169035011D01*
X133314645Y-168702910D02*
X133033336Y-168862029D01*
X133603061Y-168557879D02*
X133314645Y-168702910D01*
X133898042Y-168427161D02*
X133603061Y-168557879D01*
X134199044Y-168310980D02*
X133898042Y-168427161D01*
X134505527Y-168209562D02*
X134199044Y-168310980D01*
X134816948Y-168123130D02*
X134505527Y-168209562D01*
X135132764Y-168051909D02*
X134816948Y-168123130D01*
X135452434Y-167996124D02*
X135132764Y-168051909D01*
X135775415Y-167955999D02*
X135452434Y-167996124D01*
X136101165Y-167931760D02*
X135775415Y-167955999D01*
X136429141Y-167923630D02*
X136101165Y-167931760D01*
X136429141Y-167923630D02*
X136429141Y-167923630D01*
X463103259Y-167923630D02*
X136429141Y-167923630D01*
X463103259Y-167923630D02*
X463103259Y-167923630D01*
X463431258Y-167931759D02*
X463103259Y-167923630D01*
X463757031Y-167955997D02*
X463431258Y-167931759D01*
X464080035Y-167996119D02*
X463757031Y-167955997D01*
X464399728Y-168051901D02*
X464080035Y-167996119D01*
X464715568Y-168123117D02*
X464399728Y-168051901D01*
X465027014Y-168209545D02*
X464715568Y-168123117D01*
X465333522Y-168310958D02*
X465027014Y-168209545D01*
X465634551Y-168427132D02*
X465333522Y-168310958D01*
X465929558Y-168557843D02*
X465634551Y-168427132D01*
X466218002Y-168702867D02*
X465929558Y-168557843D01*
X466499341Y-168861979D02*
X466218002Y-168702867D01*
X466773032Y-169034953D02*
X466499341Y-168861979D01*
X467038532Y-169221566D02*
X466773032Y-169034953D01*
X467295301Y-169421594D02*
X467038532Y-169221566D01*
X467542796Y-169634811D02*
X467295301Y-169421594D01*
X467780475Y-169860993D02*
X467542796Y-169634811D01*
X467780475Y-169860993D02*
X467780475Y-169860993D01*
X468006657Y-170098671D02*
X467780475Y-169860993D01*
X468219874Y-170346166D02*
X468006657Y-170098671D01*
X468419902Y-170602935D02*
X468219874Y-170346166D01*
X468606517Y-170868436D02*
X468419902Y-170602935D01*
X468779492Y-171142127D02*
X468606517Y-170868436D01*
X468938605Y-171423465D02*
X468779492Y-171142127D01*
X469083630Y-171711909D02*
X468938605Y-171423465D01*
X469214343Y-172006917D02*
X469083630Y-171711909D01*
X469330519Y-172307945D02*
X469214343Y-172006917D01*
X469431933Y-172614454D02*
X469330519Y-172307945D01*
X469518362Y-172925899D02*
X469431933Y-172614454D01*
X469589579Y-173241739D02*
X469518362Y-172925899D01*
X469645362Y-173561433D02*
X469589579Y-173241739D01*
X469685485Y-173884437D02*
X469645362Y-173561433D01*
X469709723Y-174210209D02*
X469685485Y-173884437D01*
X469717852Y-174538208D02*
X469709723Y-174210209D01*
X469717852Y-174538208D02*
X469717852Y-174538208D01*
X469717852Y-267712403D02*
X469717852Y-174538208D01*
X163324038Y-170921418D02*
X163377780Y-170920472D01*
X163324038Y-170921418D02*
X163324038Y-170921418D01*
X163270800Y-170925034D02*
X163324038Y-170921418D01*
X163270800Y-170925034D02*
X163270800Y-170925034D01*
X163218615Y-170932267D02*
X163270800Y-170925034D01*
X163218615Y-170932267D02*
X163218615Y-170932267D01*
X163166934Y-170941041D02*
X163218615Y-170932267D01*
X163166934Y-170941041D02*
X163166934Y-170941041D01*
X163114734Y-170953446D02*
X163166934Y-170941041D01*
X163114734Y-170953446D02*
X163114734Y-170953446D01*
X163063571Y-170967408D02*
X163114734Y-170953446D01*
X163063571Y-170967408D02*
X163063571Y-170967408D01*
X163013949Y-170983429D02*
X163063571Y-170967408D01*
X163013949Y-170983429D02*
X163013949Y-170983429D01*
X162964862Y-171002030D02*
X163013949Y-170983429D01*
X162964862Y-171002030D02*
X162964862Y-171002030D01*
X162916797Y-171023224D02*
X162964862Y-171002030D01*
X162916797Y-171023224D02*
X162916797Y-171023224D01*
X162869784Y-171046998D02*
X162916797Y-171023224D01*
X162869784Y-171046998D02*
X162869784Y-171046998D01*
X162823794Y-171073349D02*
X162869784Y-171046998D01*
X162823794Y-171073349D02*
X162823794Y-171073349D01*
X162779879Y-171101258D02*
X162823794Y-171073349D01*
X162779879Y-171101258D02*
X162779879Y-171101258D01*
X162735934Y-171132264D02*
X162779879Y-171101258D01*
X162735934Y-171132264D02*
X162735934Y-171132264D01*
X162694598Y-171164307D02*
X162735934Y-171132264D01*
X162694598Y-171164307D02*
X162694598Y-171164307D01*
X162653781Y-171199448D02*
X162694598Y-171164307D01*
X162653781Y-171199448D02*
X162653781Y-171199448D01*
X162615023Y-171236130D02*
X162653781Y-171199448D01*
X162615023Y-171236130D02*
X162615023Y-171236130D01*
X162578845Y-171275406D02*
X162615023Y-171236130D01*
X162578845Y-171275406D02*
X162578845Y-171275406D01*
X162543719Y-171315201D02*
X162578845Y-171275406D01*
X162543719Y-171315201D02*
X162543719Y-171315201D01*
X162510638Y-171357056D02*
X162543719Y-171315201D01*
X162510638Y-171357056D02*
X162510638Y-171357056D01*
X162480670Y-171400467D02*
X162510638Y-171357056D01*
X162480670Y-171400467D02*
X162480670Y-171400467D01*
X162452777Y-171445420D02*
X162480670Y-171400467D01*
X162452777Y-171445420D02*
X162452777Y-171445420D01*
X162426944Y-171490372D02*
X162452777Y-171445420D01*
X162426944Y-171490372D02*
X162426944Y-171490372D01*
X162402652Y-171538437D02*
X162426944Y-171490372D01*
X162402652Y-171538437D02*
X162402652Y-171538437D01*
X162381991Y-171585969D02*
X162402652Y-171538437D01*
X162381991Y-171585969D02*
X162381991Y-171585969D01*
X162362872Y-171635071D02*
X162381991Y-171585969D01*
X162362872Y-171635071D02*
X162362872Y-171635071D01*
X162345813Y-171685212D02*
X162362872Y-171635071D01*
X162345813Y-171685212D02*
X162345813Y-171685212D01*
X162331851Y-171735337D02*
X162345813Y-171685212D01*
X162331851Y-171735337D02*
X162331851Y-171735337D01*
X162321017Y-171787018D02*
X162331851Y-171735337D01*
X162321017Y-171787018D02*
X162321017Y-171787018D01*
X162310672Y-171839203D02*
X162321017Y-171787018D01*
X162310672Y-171839203D02*
X162310672Y-171839203D01*
X162304995Y-171892426D02*
X162310672Y-171839203D01*
X162304995Y-171892426D02*
X162304995Y-171892426D01*
X162300860Y-171945130D02*
X162304995Y-171892426D01*
X162300860Y-171945130D02*
X162300860Y-171945130D01*
X162299823Y-171998353D02*
X162300860Y-171945130D01*
X162299823Y-171998353D02*
X162299823Y-171998353D01*
X162300860Y-172052094D02*
X162299823Y-171998353D01*
X162300860Y-172052094D02*
X162300860Y-172052094D01*
X162304995Y-172105317D02*
X162300860Y-172052094D01*
X162304995Y-172105317D02*
X162304995Y-172105317D01*
X162310672Y-172156998D02*
X162304995Y-172105317D01*
X162310672Y-172156998D02*
X162310672Y-172156998D01*
X162321017Y-172210221D02*
X162310672Y-172156998D01*
X162321017Y-172210221D02*
X162321017Y-172210221D01*
X162331851Y-172261384D02*
X162321017Y-172210221D01*
X162331851Y-172261384D02*
X162331851Y-172261384D01*
X162345813Y-172312043D02*
X162331851Y-172261384D01*
X162345813Y-172312043D02*
X162345813Y-172312043D01*
X162362872Y-172362153D02*
X162345813Y-172312043D01*
X162362872Y-172362153D02*
X162362872Y-172362153D01*
X162381991Y-172411255D02*
X162362872Y-172362153D01*
X162381991Y-172411255D02*
X162381991Y-172411255D01*
X162402652Y-172459321D02*
X162381991Y-172411255D01*
X162402652Y-172459321D02*
X162402652Y-172459321D01*
X162426944Y-172506348D02*
X162402652Y-172459321D01*
X162426944Y-172506348D02*
X162426944Y-172506348D01*
X162452777Y-172552323D02*
X162426944Y-172506348D01*
X162452777Y-172552323D02*
X162452777Y-172552323D01*
X162480670Y-172596268D02*
X162452777Y-172552323D01*
X162480670Y-172596268D02*
X162480670Y-172596268D01*
X162510638Y-172640183D02*
X162480670Y-172596268D01*
X162510638Y-172640183D02*
X162510638Y-172640183D01*
X162543719Y-172682038D02*
X162510638Y-172640183D01*
X162543719Y-172682038D02*
X162543719Y-172682038D01*
X162578845Y-172722336D02*
X162543719Y-172682038D01*
X162578845Y-172722336D02*
X162578845Y-172722336D01*
X162615023Y-172761109D02*
X162578845Y-172722336D01*
X162615023Y-172761109D02*
X162615023Y-172761109D01*
X162653781Y-172798310D02*
X162615023Y-172761109D01*
X162653781Y-172798310D02*
X162653781Y-172798310D01*
X162694598Y-172832428D02*
X162653781Y-172798310D01*
X162694598Y-172832428D02*
X162694598Y-172832428D01*
X162735934Y-172864975D02*
X162694598Y-172832428D01*
X162735934Y-172864975D02*
X162735934Y-172864975D01*
X162779879Y-172895463D02*
X162735934Y-172864975D01*
X162779879Y-172895463D02*
X162779879Y-172895463D01*
X162823794Y-172923371D02*
X162779879Y-172895463D01*
X162823794Y-172923371D02*
X162823794Y-172923371D01*
X162869784Y-172949204D02*
X162823794Y-172923371D01*
X162869784Y-172949204D02*
X162869784Y-172949204D01*
X162916797Y-172972977D02*
X162869784Y-172949204D01*
X162916797Y-172972977D02*
X162916797Y-172972977D01*
X162964862Y-172994172D02*
X162916797Y-172972977D01*
X162964862Y-172994172D02*
X162964862Y-172994172D01*
X163013949Y-173013291D02*
X162964862Y-172994172D01*
X163013949Y-173013291D02*
X163013949Y-173013291D01*
X163063571Y-173030335D02*
X163013949Y-173013291D01*
X163063571Y-173030335D02*
X163063571Y-173030335D01*
X163114718Y-173044297D02*
X163063571Y-173030335D01*
X163114718Y-173044297D02*
X163114718Y-173044297D01*
X163166919Y-173056183D02*
X163114718Y-173044297D01*
X163166919Y-173056183D02*
X163166919Y-173056183D01*
X163218600Y-173064972D02*
X163166919Y-173056183D01*
X163218600Y-173064972D02*
X163218600Y-173064972D01*
X163270785Y-173071167D02*
X163218600Y-173064972D01*
X163270785Y-173071167D02*
X163270785Y-173071167D01*
X163324023Y-173075318D02*
X163270785Y-173071167D01*
X163324023Y-173075318D02*
X163324023Y-173075318D01*
X163377765Y-173076340D02*
X163324023Y-173075318D01*
X163377765Y-173076340D02*
X163377765Y-173076340D01*
X163432544Y-173075318D02*
X163377765Y-173076340D01*
X163432544Y-173075318D02*
X163432544Y-173075318D01*
X163487841Y-173071167D02*
X163432544Y-173075318D01*
X163487841Y-173071167D02*
X163487841Y-173071167D01*
X163541583Y-173064469D02*
X163487841Y-173071167D01*
X163541583Y-173064469D02*
X163541583Y-173064469D01*
X163594806Y-173055161D02*
X163541583Y-173064469D01*
X163594806Y-173055161D02*
X163594806Y-173055161D01*
X163647006Y-173042252D02*
X163594806Y-173055161D01*
X163647006Y-173042252D02*
X163647006Y-173042252D01*
X163697650Y-173028275D02*
X163647006Y-173042252D01*
X163697650Y-173028275D02*
X163697650Y-173028275D01*
X163748813Y-173011216D02*
X163697650Y-173028275D01*
X163748813Y-173011216D02*
X163748813Y-173011216D01*
X163797900Y-172992096D02*
X163748813Y-173011216D01*
X163797900Y-172992096D02*
X163797900Y-172992096D01*
X163844928Y-172970398D02*
X163797900Y-172992096D01*
X163844928Y-172970398D02*
X163844928Y-172970398D01*
X163891955Y-172946122D02*
X163844928Y-172970398D01*
X163891955Y-172946122D02*
X163891955Y-172946122D01*
X163936908Y-172920273D02*
X163891955Y-172946122D01*
X163936908Y-172920273D02*
X163936908Y-172920273D01*
X163980853Y-172892380D02*
X163936908Y-172920273D01*
X163980853Y-172892380D02*
X163980853Y-172892380D01*
X164022708Y-172862412D02*
X163980853Y-172892380D01*
X164022708Y-172862412D02*
X164022708Y-172862412D01*
X164064044Y-172830369D02*
X164022708Y-172862412D01*
X164064044Y-172830369D02*
X164064044Y-172830369D01*
X164102801Y-172796280D02*
X164064044Y-172830369D01*
X164102801Y-172796280D02*
X164102801Y-172796280D01*
X164140017Y-172761139D02*
X164102801Y-172796280D01*
X164140017Y-172761139D02*
X164140017Y-172761139D01*
X164175677Y-172723420D02*
X164140017Y-172761139D01*
X164175677Y-172723420D02*
X164175677Y-172723420D01*
X164209781Y-172684144D02*
X164175677Y-172723420D01*
X164209781Y-172684144D02*
X164209781Y-172684144D01*
X164241809Y-172643311D02*
X164209781Y-172684144D01*
X164241809Y-172643311D02*
X164241809Y-172643311D01*
X164271777Y-172601456D02*
X164241809Y-172643311D01*
X164271777Y-172601456D02*
X164271777Y-172601456D01*
X164299685Y-172557007D02*
X164271777Y-172601456D01*
X164299685Y-172557007D02*
X164299685Y-172557007D01*
X164326037Y-172512070D02*
X164299685Y-172557007D01*
X164326037Y-172512070D02*
X164326037Y-172512070D01*
X164349810Y-172466065D02*
X164326037Y-172512070D01*
X164349810Y-172466065D02*
X164349810Y-172466065D01*
X164370990Y-172418000D02*
X164349810Y-172466065D01*
X164370990Y-172418000D02*
X164370990Y-172418000D01*
X164390643Y-172369431D02*
X164370990Y-172418000D01*
X164390643Y-172369431D02*
X164390643Y-172369431D01*
X164407702Y-172319306D02*
X164390643Y-172369431D01*
X164407702Y-172319306D02*
X164407702Y-172319306D01*
X164421649Y-172268128D02*
X164407702Y-172319306D01*
X164421649Y-172268128D02*
X164421649Y-172268128D01*
X164434054Y-172216477D02*
X164421649Y-172268128D01*
X164434054Y-172216477D02*
X164434054Y-172216477D01*
X164443881Y-172162217D02*
X164434054Y-172216477D01*
X164443881Y-172162217D02*
X164443881Y-172162217D01*
X164450579Y-172108475D02*
X164443881Y-172162217D01*
X164450579Y-172108475D02*
X164450579Y-172108475D01*
X164454715Y-172054215D02*
X164450579Y-172108475D01*
X164454715Y-172054215D02*
X164454715Y-172054215D01*
X164455752Y-171998398D02*
X164454715Y-172054215D01*
X164455752Y-171998398D02*
X164455752Y-171998398D01*
X164454715Y-171945176D02*
X164455752Y-171998398D01*
X164454715Y-171945176D02*
X164454715Y-171945176D01*
X164450579Y-171892472D02*
X164454715Y-171945176D01*
X164450579Y-171892472D02*
X164450579Y-171892472D01*
X164443881Y-171839249D02*
X164450579Y-171892472D01*
X164443881Y-171839249D02*
X164443881Y-171839249D01*
X164434573Y-171787064D02*
X164443881Y-171839249D01*
X164434573Y-171787064D02*
X164434573Y-171787064D01*
X164423709Y-171735383D02*
X164434573Y-171787064D01*
X164423709Y-171735383D02*
X164423709Y-171735383D01*
X164408740Y-171685257D02*
X164423709Y-171735383D01*
X164408740Y-171685257D02*
X164408740Y-171685257D01*
X164392718Y-171635132D02*
X164408740Y-171685257D01*
X164392718Y-171635132D02*
X164392718Y-171635132D01*
X164373599Y-171586014D02*
X164392718Y-171635132D01*
X164373599Y-171586014D02*
X164373599Y-171586014D01*
X164352923Y-171538483D02*
X164373599Y-171586014D01*
X164352923Y-171538483D02*
X164352923Y-171538483D01*
X164328647Y-171490418D02*
X164352923Y-171538483D01*
X164328647Y-171490418D02*
X164328647Y-171490418D01*
X164302798Y-171445466D02*
X164328647Y-171490418D01*
X164302798Y-171445466D02*
X164302798Y-171445466D01*
X164274905Y-171400513D02*
X164302798Y-171445466D01*
X164274905Y-171400513D02*
X164274905Y-171400513D01*
X164244922Y-171357102D02*
X164274905Y-171400513D01*
X164244922Y-171357102D02*
X164244922Y-171357102D01*
X164211840Y-171315247D02*
X164244922Y-171357102D01*
X164211840Y-171315247D02*
X164211840Y-171315247D01*
X164176699Y-171275467D02*
X164211840Y-171315247D01*
X164176699Y-171275467D02*
X164176699Y-171275467D01*
X164140017Y-171236176D02*
X164176699Y-171275467D01*
X164140017Y-171236176D02*
X164140017Y-171236176D01*
X164101779Y-171199494D02*
X164140017Y-171236176D01*
X164101779Y-171199494D02*
X164101779Y-171199494D01*
X164060946Y-171164353D02*
X164101779Y-171199494D01*
X164060946Y-171164353D02*
X164060946Y-171164353D01*
X164018573Y-171132325D02*
X164060946Y-171164353D01*
X164018573Y-171132325D02*
X164018573Y-171132325D01*
X163975680Y-171101334D02*
X164018573Y-171132325D01*
X163975680Y-171101334D02*
X163975680Y-171101334D01*
X163930728Y-171073426D02*
X163975680Y-171101334D01*
X163930728Y-171073426D02*
X163930728Y-171073426D01*
X163885760Y-171047074D02*
X163930728Y-171073426D01*
X163885760Y-171047074D02*
X163885760Y-171047074D01*
X163838733Y-171023301D02*
X163885760Y-171047074D01*
X163838733Y-171023301D02*
X163838733Y-171023301D01*
X163789630Y-171002121D02*
X163838733Y-171023301D01*
X163789630Y-171002121D02*
X163789630Y-171002121D01*
X163740542Y-170983506D02*
X163789630Y-171002121D01*
X163740542Y-170983506D02*
X163740542Y-170983506D01*
X163690936Y-170967499D02*
X163740542Y-170983506D01*
X163690936Y-170967499D02*
X163690936Y-170967499D01*
X163640811Y-170953537D02*
X163690936Y-170967499D01*
X163640811Y-170953537D02*
X163640811Y-170953537D01*
X163588610Y-170941147D02*
X163640811Y-170953537D01*
X163588610Y-170941147D02*
X163588610Y-170941147D01*
X163536944Y-170932358D02*
X163588610Y-170941147D01*
X163536944Y-170932358D02*
X163536944Y-170932358D01*
X163483722Y-170925110D02*
X163536944Y-170932358D01*
X163483722Y-170925110D02*
X163483722Y-170925110D01*
X163431018Y-170921494D02*
X163483722Y-170925110D01*
X163431018Y-170921494D02*
X163431018Y-170921494D01*
X163377780Y-170920472D02*
X163431018Y-170921494D01*
X249787036Y-170921463D02*
X249841739Y-170920472D01*
X249787036Y-170921463D02*
X249787036Y-170921463D01*
X249731738Y-170926117D02*
X249787036Y-170921463D01*
X249731738Y-170926117D02*
X249731738Y-170926117D01*
X249677996Y-170932328D02*
X249731738Y-170926117D01*
X249677996Y-170932328D02*
X249677996Y-170932328D01*
X249624759Y-170942154D02*
X249677996Y-170932328D01*
X249624759Y-170942154D02*
X249624759Y-170942154D01*
X249573092Y-170954041D02*
X249624759Y-170942154D01*
X249573092Y-170954041D02*
X249573092Y-170954041D01*
X249521930Y-170968506D02*
X249573092Y-170954041D01*
X249521930Y-170968506D02*
X249521930Y-170968506D01*
X249470767Y-170985047D02*
X249521930Y-170968506D01*
X249470767Y-170985047D02*
X249470767Y-170985047D01*
X249422702Y-171005188D02*
X249470767Y-170985047D01*
X249422702Y-171005188D02*
X249422702Y-171005188D01*
X249374636Y-171026368D02*
X249422702Y-171005188D01*
X249374636Y-171026368D02*
X249374636Y-171026368D01*
X249327609Y-171050156D02*
X249374636Y-171026368D01*
X249327609Y-171050156D02*
X249327609Y-171050156D01*
X249282672Y-171076508D02*
X249327609Y-171050156D01*
X249282672Y-171076508D02*
X249282672Y-171076508D01*
X249238726Y-171104401D02*
X249282672Y-171076508D01*
X249238726Y-171104401D02*
X249238726Y-171104401D01*
X249196872Y-171134369D02*
X249238726Y-171104401D01*
X249196872Y-171134369D02*
X249196872Y-171134369D01*
X249156054Y-171166413D02*
X249196872Y-171134369D01*
X249156054Y-171166413D02*
X249156054Y-171166413D01*
X249116778Y-171199982D02*
X249156054Y-171166413D01*
X249116778Y-171199982D02*
X249116778Y-171199982D01*
X249080081Y-171236161D02*
X249116778Y-171199982D01*
X249080081Y-171236161D02*
X249080081Y-171236161D01*
X249043918Y-171273377D02*
X249080081Y-171236161D01*
X249043918Y-171273377D02*
X249043918Y-171273377D01*
X249009799Y-171312150D02*
X249043918Y-171273377D01*
X249009799Y-171312150D02*
X249009799Y-171312150D01*
X248977771Y-171353501D02*
X249009799Y-171312150D01*
X248977771Y-171353501D02*
X248977771Y-171353501D01*
X248947802Y-171395356D02*
X248977771Y-171353501D01*
X248947802Y-171395356D02*
X248947802Y-171395356D01*
X248919894Y-171439271D02*
X248947802Y-171395356D01*
X248919894Y-171439271D02*
X248919894Y-171439271D01*
X248894061Y-171484223D02*
X248919894Y-171439271D01*
X248894061Y-171484223D02*
X248894061Y-171484223D01*
X248869769Y-171531250D02*
X248894061Y-171484223D01*
X248869769Y-171531250D02*
X248869769Y-171531250D01*
X248849093Y-171579316D02*
X248869769Y-171531250D01*
X248849093Y-171579316D02*
X248849093Y-171579316D01*
X248828952Y-171628403D02*
X248849093Y-171579316D01*
X248828952Y-171628403D02*
X248828952Y-171628403D01*
X248811892Y-171678025D02*
X248828952Y-171628403D01*
X248811892Y-171678025D02*
X248811892Y-171678025D01*
X248797946Y-171729172D02*
X248811892Y-171678025D01*
X248797946Y-171729172D02*
X248797946Y-171729172D01*
X248786059Y-171781373D02*
X248797946Y-171729172D01*
X248786059Y-171781373D02*
X248786059Y-171781373D01*
X248775714Y-171834076D02*
X248786059Y-171781373D01*
X248775714Y-171834076D02*
X248775714Y-171834076D01*
X248770022Y-171888321D02*
X248775714Y-171834076D01*
X248770022Y-171888321D02*
X248770022Y-171888321D01*
X248764865Y-171943116D02*
X248770022Y-171888321D01*
X248764865Y-171943116D02*
X248764865Y-171943116D01*
X248763827Y-171998398D02*
X248764865Y-171943116D01*
X248763827Y-171998398D02*
X248763827Y-171998398D01*
X248764865Y-172054215D02*
X248763827Y-171998398D01*
X248764865Y-172054215D02*
X248764865Y-172054215D01*
X248770022Y-172108475D02*
X248764865Y-172054215D01*
X248770022Y-172108475D02*
X248770022Y-172108475D01*
X248775714Y-172162217D02*
X248770022Y-172108475D01*
X248775714Y-172162217D02*
X248775714Y-172162217D01*
X248786059Y-172216477D02*
X248775714Y-172162217D01*
X248786059Y-172216477D02*
X248786059Y-172216477D01*
X248797946Y-172268128D02*
X248786059Y-172216477D01*
X248797946Y-172268128D02*
X248797946Y-172268128D01*
X248811892Y-172319306D02*
X248797946Y-172268128D01*
X248811892Y-172319306D02*
X248811892Y-172319306D01*
X248828952Y-172369431D02*
X248811892Y-172319306D01*
X248828952Y-172369431D02*
X248828952Y-172369431D01*
X248849093Y-172418000D02*
X248828952Y-172369431D01*
X248849093Y-172418000D02*
X248849093Y-172418000D01*
X248869769Y-172466065D02*
X248849093Y-172418000D01*
X248869769Y-172466065D02*
X248869769Y-172466065D01*
X248894061Y-172512070D02*
X248869769Y-172466065D01*
X248894061Y-172512070D02*
X248894061Y-172512070D01*
X248919894Y-172557007D02*
X248894061Y-172512070D01*
X248919894Y-172557007D02*
X248919894Y-172557007D01*
X248947802Y-172601456D02*
X248919894Y-172557007D01*
X248947802Y-172601456D02*
X248947802Y-172601456D01*
X248977771Y-172643311D02*
X248947802Y-172601456D01*
X248977771Y-172643311D02*
X248977771Y-172643311D01*
X249009799Y-172684144D02*
X248977771Y-172643311D01*
X249009799Y-172684144D02*
X249009799Y-172684144D01*
X249043918Y-172723420D02*
X249009799Y-172684144D01*
X249043918Y-172723420D02*
X249043918Y-172723420D01*
X249080081Y-172761139D02*
X249043918Y-172723420D01*
X249080081Y-172761139D02*
X249080081Y-172761139D01*
X249116778Y-172796280D02*
X249080081Y-172761139D01*
X249116778Y-172796280D02*
X249116778Y-172796280D01*
X249156054Y-172830369D02*
X249116778Y-172796280D01*
X249156054Y-172830369D02*
X249156054Y-172830369D01*
X249196872Y-172862412D02*
X249156054Y-172830369D01*
X249196872Y-172862412D02*
X249196872Y-172862412D01*
X249238726Y-172892380D02*
X249196872Y-172862412D01*
X249238726Y-172892380D02*
X249238726Y-172892380D01*
X249282672Y-172920273D02*
X249238726Y-172892380D01*
X249282672Y-172920273D02*
X249282672Y-172920273D01*
X249327609Y-172946122D02*
X249282672Y-172920273D01*
X249327609Y-172946122D02*
X249327609Y-172946122D01*
X249374636Y-172970398D02*
X249327609Y-172946122D01*
X249374636Y-172970398D02*
X249374636Y-172970398D01*
X249422702Y-172992096D02*
X249374636Y-172970398D01*
X249422702Y-172992096D02*
X249422702Y-172992096D01*
X249470767Y-173011216D02*
X249422702Y-172992096D01*
X249470767Y-173011216D02*
X249470767Y-173011216D01*
X249521930Y-173028275D02*
X249470767Y-173011216D01*
X249521930Y-173028275D02*
X249521930Y-173028275D01*
X249573077Y-173043274D02*
X249521930Y-173028275D01*
X249573077Y-173043274D02*
X249573077Y-173043274D01*
X249624743Y-173055161D02*
X249573077Y-173043274D01*
X249624743Y-173055161D02*
X249624743Y-173055161D01*
X249677981Y-173064469D02*
X249624743Y-173055161D01*
X249677981Y-173064469D02*
X249677981Y-173064469D01*
X249731723Y-173071167D02*
X249677981Y-173064469D01*
X249731723Y-173071167D02*
X249731723Y-173071167D01*
X249787021Y-173075318D02*
X249731723Y-173071167D01*
X249787021Y-173075318D02*
X249787021Y-173075318D01*
X249841784Y-173076340D02*
X249787021Y-173075318D01*
X249841784Y-173076340D02*
X249841784Y-173076340D01*
X249896045Y-173075318D02*
X249841784Y-173076340D01*
X249896045Y-173075318D02*
X249896045Y-173075318D01*
X249948748Y-173071167D02*
X249896045Y-173075318D01*
X249948748Y-173071167D02*
X249948748Y-173071167D01*
X250000933Y-173064988D02*
X249948748Y-173071167D01*
X250000933Y-173064988D02*
X250000933Y-173064988D01*
X250053637Y-173056199D02*
X250000933Y-173064988D01*
X250053637Y-173056199D02*
X250053637Y-173056199D01*
X250104815Y-173044312D02*
X250053637Y-173056199D01*
X250104815Y-173044312D02*
X250104815Y-173044312D01*
X250155963Y-173030350D02*
X250104815Y-173044312D01*
X250155963Y-173030350D02*
X250155963Y-173030350D01*
X250205569Y-173013306D02*
X250155963Y-173030350D01*
X250205569Y-173013306D02*
X250205569Y-173013306D01*
X250254657Y-172994187D02*
X250205569Y-173013306D01*
X250254657Y-172994187D02*
X250254657Y-172994187D01*
X250302722Y-172972992D02*
X250254657Y-172994187D01*
X250302722Y-172972992D02*
X250302722Y-172972992D01*
X250349749Y-172949219D02*
X250302722Y-172972992D01*
X250349749Y-172949219D02*
X250349749Y-172949219D01*
X250395755Y-172923386D02*
X250349749Y-172949219D01*
X250395755Y-172923386D02*
X250395755Y-172923386D01*
X250439669Y-172895478D02*
X250395755Y-172923386D01*
X250439669Y-172895478D02*
X250439669Y-172895478D01*
X250483615Y-172864991D02*
X250439669Y-172895478D01*
X250483615Y-172864991D02*
X250483615Y-172864991D01*
X250525973Y-172832444D02*
X250483615Y-172864991D01*
X250525973Y-172832444D02*
X250525973Y-172832444D01*
X250565768Y-172798325D02*
X250525973Y-172832444D01*
X250565768Y-172798325D02*
X250565768Y-172798325D01*
X250605029Y-172761124D02*
X250565768Y-172798325D01*
X250605029Y-172761124D02*
X250605029Y-172761124D01*
X250641742Y-172722367D02*
X250605029Y-172761124D01*
X250641742Y-172722367D02*
X250641742Y-172722367D01*
X250675830Y-172682068D02*
X250641742Y-172722367D01*
X250675830Y-172682068D02*
X250675830Y-172682068D01*
X250708911Y-172640213D02*
X250675830Y-172682068D01*
X250708911Y-172640213D02*
X250708911Y-172640213D01*
X250738894Y-172596299D02*
X250708911Y-172640213D01*
X250738894Y-172596299D02*
X250738894Y-172596299D01*
X250766787Y-172552353D02*
X250738894Y-172596299D01*
X250766787Y-172552353D02*
X250766787Y-172552353D01*
X250792636Y-172506379D02*
X250766787Y-172552353D01*
X250792636Y-172506379D02*
X250792636Y-172506379D01*
X250816928Y-172459351D02*
X250792636Y-172506379D01*
X250816928Y-172459351D02*
X250816928Y-172459351D01*
X250837588Y-172411286D02*
X250816928Y-172459351D01*
X250837588Y-172411286D02*
X250837588Y-172411286D01*
X250856707Y-172362183D02*
X250837588Y-172411286D01*
X250856707Y-172362183D02*
X250856707Y-172362183D01*
X250873767Y-172312073D02*
X250856707Y-172362183D01*
X250873767Y-172312073D02*
X250873767Y-172312073D01*
X250887713Y-172261414D02*
X250873767Y-172312073D01*
X250887713Y-172261414D02*
X250887713Y-172261414D01*
X250899585Y-172210267D02*
X250887713Y-172261414D01*
X250899585Y-172210267D02*
X250899585Y-172210267D01*
X250908892Y-172157044D02*
X250899585Y-172210267D01*
X250908892Y-172157044D02*
X250908892Y-172157044D01*
X250914584Y-172105362D02*
X250908892Y-172157044D01*
X250914584Y-172105362D02*
X250914584Y-172105362D01*
X250918719Y-172052155D02*
X250914584Y-172105362D01*
X250918719Y-172052155D02*
X250918719Y-172052155D01*
X250919741Y-171998398D02*
X250918719Y-172052155D01*
X250919741Y-171998398D02*
X250919741Y-171998398D01*
X250918719Y-171945176D02*
X250919741Y-171998398D01*
X250918719Y-171945176D02*
X250918719Y-171945176D01*
X250914584Y-171892472D02*
X250918719Y-171945176D01*
X250914584Y-171892472D02*
X250914584Y-171892472D01*
X250908892Y-171839249D02*
X250914584Y-171892472D01*
X250908892Y-171839249D02*
X250908892Y-171839249D01*
X250899585Y-171787064D02*
X250908892Y-171839249D01*
X250899585Y-171787064D02*
X250899585Y-171787064D01*
X250887713Y-171735383D02*
X250899585Y-171787064D01*
X250887713Y-171735383D02*
X250887713Y-171735383D01*
X250873751Y-171685257D02*
X250887713Y-171735383D01*
X250873751Y-171685257D02*
X250873751Y-171685257D01*
X250856692Y-171635132D02*
X250873751Y-171685257D01*
X250856692Y-171635132D02*
X250856692Y-171635132D01*
X250837573Y-171586014D02*
X250856692Y-171635132D01*
X250837573Y-171586014D02*
X250837573Y-171586014D01*
X250816897Y-171538483D02*
X250837573Y-171586014D01*
X250816897Y-171538483D02*
X250816897Y-171538483D01*
X250792621Y-171491456D02*
X250816897Y-171538483D01*
X250792621Y-171491456D02*
X250792621Y-171491456D01*
X250766772Y-171445466D02*
X250792621Y-171491456D01*
X250766772Y-171445466D02*
X250766772Y-171445466D01*
X250738879Y-171400513D02*
X250766772Y-171445466D01*
X250738879Y-171400513D02*
X250738879Y-171400513D01*
X250708896Y-171357102D02*
X250738879Y-171400513D01*
X250708896Y-171357102D02*
X250708896Y-171357102D01*
X250675814Y-171315247D02*
X250708896Y-171357102D01*
X250675814Y-171315247D02*
X250675814Y-171315247D01*
X250641726Y-171275467D02*
X250675814Y-171315247D01*
X250641726Y-171275467D02*
X250641726Y-171275467D01*
X250605014Y-171236176D02*
X250641726Y-171275467D01*
X250605014Y-171236176D02*
X250605014Y-171236176D01*
X250565753Y-171199494D02*
X250605014Y-171236176D01*
X250565753Y-171199494D02*
X250565753Y-171199494D01*
X250525958Y-171164353D02*
X250565753Y-171199494D01*
X250525958Y-171164353D02*
X250525958Y-171164353D01*
X250483600Y-171132325D02*
X250525958Y-171164353D01*
X250483600Y-171132325D02*
X250483600Y-171132325D01*
X250439654Y-171101334D02*
X250483600Y-171132325D01*
X250439654Y-171101334D02*
X250439654Y-171101334D01*
X250395739Y-171073426D02*
X250439654Y-171101334D01*
X250395739Y-171073426D02*
X250395739Y-171073426D01*
X250349734Y-171047074D02*
X250395739Y-171073426D01*
X250349734Y-171047074D02*
X250349734Y-171047074D01*
X250302707Y-171023301D02*
X250349734Y-171047074D01*
X250302707Y-171023301D02*
X250302707Y-171023301D01*
X250254641Y-171002121D02*
X250302707Y-171023301D01*
X250254641Y-171002121D02*
X250254641Y-171002121D01*
X250205554Y-170983506D02*
X250254641Y-171002121D01*
X250205554Y-170983506D02*
X250205554Y-170983506D01*
X250155948Y-170967499D02*
X250205554Y-170983506D01*
X250155948Y-170967499D02*
X250155948Y-170967499D01*
X250104770Y-170953537D02*
X250155948Y-170967499D01*
X250104770Y-170953537D02*
X250104770Y-170953537D01*
X250053607Y-170941147D02*
X250104770Y-170953537D01*
X250053607Y-170941147D02*
X250053607Y-170941147D01*
X250000903Y-170932358D02*
X250053607Y-170941147D01*
X250000903Y-170932358D02*
X250000903Y-170932358D01*
X249948703Y-170925110D02*
X250000903Y-170932358D01*
X249948703Y-170925110D02*
X249948703Y-170925110D01*
X249895999Y-170921494D02*
X249948703Y-170925110D01*
X249895999Y-170921494D02*
X249895999Y-170921494D01*
X249841739Y-170920472D02*
X249895999Y-170921494D01*
X349646991Y-170921418D02*
X349700732Y-170920472D01*
X349646991Y-170921418D02*
X349646991Y-170921418D01*
X349593798Y-170925034D02*
X349646991Y-170921418D01*
X349593798Y-170925034D02*
X349593798Y-170925034D01*
X349540576Y-170932267D02*
X349593798Y-170925034D01*
X349540576Y-170932267D02*
X349540576Y-170932267D01*
X349488879Y-170941041D02*
X349540576Y-170932267D01*
X349488879Y-170941041D02*
X349488879Y-170941041D01*
X349437732Y-170953446D02*
X349488879Y-170941041D01*
X349437732Y-170953446D02*
X349437732Y-170953446D01*
X349386554Y-170967408D02*
X349437732Y-170953446D01*
X349386554Y-170967408D02*
X349386554Y-170967408D01*
X349336963Y-170983429D02*
X349386554Y-170967408D01*
X349336963Y-170983429D02*
X349336963Y-170983429D01*
X349287860Y-171002030D02*
X349336963Y-170983429D01*
X349287860Y-171002030D02*
X349287860Y-171002030D01*
X349239795Y-171023224D02*
X349287860Y-171002030D01*
X349239795Y-171023224D02*
X349239795Y-171023224D01*
X349192767Y-171046998D02*
X349239795Y-171023224D01*
X349192767Y-171046998D02*
X349192767Y-171046998D01*
X349146777Y-171073349D02*
X349192767Y-171046998D01*
X349146777Y-171073349D02*
X349146777Y-171073349D01*
X349101825Y-171101258D02*
X349146777Y-171073349D01*
X349101825Y-171101258D02*
X349101825Y-171101258D01*
X349058947Y-171132264D02*
X349101825Y-171101258D01*
X349058947Y-171132264D02*
X349058947Y-171132264D01*
X349016558Y-171164307D02*
X349058947Y-171132264D01*
X349016558Y-171164307D02*
X349016558Y-171164307D01*
X348976794Y-171199448D02*
X349016558Y-171164307D01*
X348976794Y-171199448D02*
X348976794Y-171199448D01*
X348938037Y-171236130D02*
X348976794Y-171199448D01*
X348938037Y-171236130D02*
X348938037Y-171236130D01*
X348900836Y-171275406D02*
X348938037Y-171236130D01*
X348900836Y-171275406D02*
X348900836Y-171275406D01*
X348866717Y-171315201D02*
X348900836Y-171275406D01*
X348866717Y-171315201D02*
X348866717Y-171315201D01*
X348833636Y-171357056D02*
X348866717Y-171315201D01*
X348833636Y-171357056D02*
X348833636Y-171357056D01*
X348803637Y-171400467D02*
X348833636Y-171357056D01*
X348803637Y-171400467D02*
X348803637Y-171400467D01*
X348774707Y-171445420D02*
X348803637Y-171400467D01*
X348774707Y-171445420D02*
X348774707Y-171445420D01*
X348748889Y-171491410D02*
X348774707Y-171445420D01*
X348748889Y-171491410D02*
X348748889Y-171491410D01*
X348725634Y-171538437D02*
X348748889Y-171491410D01*
X348725634Y-171538437D02*
X348725634Y-171538437D01*
X348704944Y-171585969D02*
X348725634Y-171538437D01*
X348704944Y-171585969D02*
X348704944Y-171585969D01*
X348685809Y-171635071D02*
X348704944Y-171585969D01*
X348685809Y-171635071D02*
X348685809Y-171635071D01*
X348668750Y-171685212D02*
X348685809Y-171635071D01*
X348668750Y-171685212D02*
X348668750Y-171685212D01*
X348654803Y-171735337D02*
X348668750Y-171685212D01*
X348654803Y-171735337D02*
X348654803Y-171735337D01*
X348642932Y-171787018D02*
X348654803Y-171735337D01*
X348642932Y-171787018D02*
X348642932Y-171787018D01*
X348633624Y-171839203D02*
X348642932Y-171787018D01*
X348633624Y-171839203D02*
X348633624Y-171839203D01*
X348627948Y-171892426D02*
X348633624Y-171839203D01*
X348627948Y-171892426D02*
X348627948Y-171892426D01*
X348623797Y-171945130D02*
X348627948Y-171892426D01*
X348623797Y-171945130D02*
X348623797Y-171945130D01*
X348621722Y-171998353D02*
X348623797Y-171945130D01*
X348621722Y-171998353D02*
X348621722Y-171998353D01*
X348623797Y-172052094D02*
X348621722Y-171998353D01*
X348623797Y-172052094D02*
X348623797Y-172052094D01*
X348627948Y-172105317D02*
X348623797Y-172052094D01*
X348627948Y-172105317D02*
X348627948Y-172105317D01*
X348633624Y-172156998D02*
X348627948Y-172105317D01*
X348633624Y-172156998D02*
X348633624Y-172156998D01*
X348642932Y-172210221D02*
X348633624Y-172156998D01*
X348642932Y-172210221D02*
X348642932Y-172210221D01*
X348654803Y-172261384D02*
X348642932Y-172210221D01*
X348654803Y-172261384D02*
X348654803Y-172261384D01*
X348668750Y-172312043D02*
X348654803Y-172261384D01*
X348668750Y-172312043D02*
X348668750Y-172312043D01*
X348685809Y-172362153D02*
X348668750Y-172312043D01*
X348685809Y-172362153D02*
X348685809Y-172362153D01*
X348704913Y-172411255D02*
X348685809Y-172362153D01*
X348704913Y-172411255D02*
X348704913Y-172411255D01*
X348725604Y-172459321D02*
X348704913Y-172411255D01*
X348725604Y-172459321D02*
X348725604Y-172459321D01*
X348748858Y-172506348D02*
X348725604Y-172459321D01*
X348748858Y-172506348D02*
X348748858Y-172506348D01*
X348774707Y-172552323D02*
X348748858Y-172506348D01*
X348774707Y-172552323D02*
X348774707Y-172552323D01*
X348803637Y-172596268D02*
X348774707Y-172552323D01*
X348803637Y-172596268D02*
X348803637Y-172596268D01*
X348833636Y-172640183D02*
X348803637Y-172596268D01*
X348833636Y-172640183D02*
X348833636Y-172640183D01*
X348866717Y-172682038D02*
X348833636Y-172640183D01*
X348866717Y-172682038D02*
X348866717Y-172682038D01*
X348900836Y-172722336D02*
X348866717Y-172682038D01*
X348900836Y-172722336D02*
X348900836Y-172722336D01*
X348938037Y-172761109D02*
X348900836Y-172722336D01*
X348938037Y-172761109D02*
X348938037Y-172761109D01*
X348976794Y-172798310D02*
X348938037Y-172761109D01*
X348976794Y-172798310D02*
X348976794Y-172798310D01*
X349016558Y-172832428D02*
X348976794Y-172798310D01*
X349016558Y-172832428D02*
X349016558Y-172832428D01*
X349058947Y-172864975D02*
X349016558Y-172832428D01*
X349058947Y-172864975D02*
X349058947Y-172864975D01*
X349101825Y-172895463D02*
X349058947Y-172864975D01*
X349101825Y-172895463D02*
X349101825Y-172895463D01*
X349146777Y-172923371D02*
X349101825Y-172895463D01*
X349146777Y-172923371D02*
X349146777Y-172923371D01*
X349192767Y-172949204D02*
X349146777Y-172923371D01*
X349192767Y-172949204D02*
X349192767Y-172949204D01*
X349239795Y-172972977D02*
X349192767Y-172949204D01*
X349239795Y-172972977D02*
X349239795Y-172972977D01*
X349287860Y-172994172D02*
X349239795Y-172972977D01*
X349287860Y-172994172D02*
X349287860Y-172994172D01*
X349336963Y-173013291D02*
X349287860Y-172994172D01*
X349336963Y-173013291D02*
X349336963Y-173013291D01*
X349386554Y-173030335D02*
X349336963Y-173013291D01*
X349386554Y-173030335D02*
X349386554Y-173030335D01*
X349437732Y-173044297D02*
X349386554Y-173030335D01*
X349437732Y-173044297D02*
X349437732Y-173044297D01*
X349488879Y-173056183D02*
X349437732Y-173044297D01*
X349488879Y-173056183D02*
X349488879Y-173056183D01*
X349540576Y-173064972D02*
X349488879Y-173056183D01*
X349540576Y-173064972D02*
X349540576Y-173064972D01*
X349593798Y-173071152D02*
X349540576Y-173064972D01*
X349593798Y-173071152D02*
X349593798Y-173071152D01*
X349646991Y-173075303D02*
X349593798Y-173071152D01*
X349646991Y-173075303D02*
X349646991Y-173075303D01*
X349700732Y-173076325D02*
X349646991Y-173075303D01*
X349700732Y-173076325D02*
X349700732Y-173076325D01*
X349755511Y-173075303D02*
X349700732Y-173076325D01*
X349755511Y-173075303D02*
X349755511Y-173075303D01*
X349810809Y-173071152D02*
X349755511Y-173075303D01*
X349810809Y-173071152D02*
X349810809Y-173071152D01*
X349864581Y-173064454D02*
X349810809Y-173071152D01*
X349864581Y-173064454D02*
X349864581Y-173064454D01*
X349917804Y-173055146D02*
X349864581Y-173064454D01*
X349917804Y-173055146D02*
X349917804Y-173055146D01*
X349969989Y-173043274D02*
X349917804Y-173055146D01*
X349969989Y-173043274D02*
X349969989Y-173043274D01*
X350020617Y-173028275D02*
X349969989Y-173043274D01*
X350020617Y-173028275D02*
X350020617Y-173028275D01*
X350070758Y-173011216D02*
X350020617Y-173028275D01*
X350070758Y-173011216D02*
X350070758Y-173011216D01*
X350119830Y-172992096D02*
X350070758Y-173011216D01*
X350119830Y-172992096D02*
X350119830Y-172992096D01*
X350167895Y-172970398D02*
X350119830Y-172992096D01*
X350167895Y-172970398D02*
X350167895Y-172970398D01*
X350214923Y-172946122D02*
X350167895Y-172970398D01*
X350214923Y-172946122D02*
X350214923Y-172946122D01*
X350259875Y-172920273D02*
X350214923Y-172946122D01*
X350259875Y-172920273D02*
X350259875Y-172920273D01*
X350303790Y-172892380D02*
X350259875Y-172920273D01*
X350303790Y-172892380D02*
X350303790Y-172892380D01*
X350345660Y-172862412D02*
X350303790Y-172892380D01*
X350345660Y-172862412D02*
X350345660Y-172862412D01*
X350387011Y-172830369D02*
X350345660Y-172862412D01*
X350387011Y-172830369D02*
X350387011Y-172830369D01*
X350425769Y-172796280D02*
X350387011Y-172830369D01*
X350425769Y-172796280D02*
X350425769Y-172796280D01*
X350462970Y-172761139D02*
X350425769Y-172796280D01*
X350462970Y-172761139D02*
X350462970Y-172761139D01*
X350498614Y-172723420D02*
X350462970Y-172761139D01*
X350498614Y-172723420D02*
X350498614Y-172723420D01*
X350532733Y-172684144D02*
X350498614Y-172723420D01*
X350532733Y-172684144D02*
X350532733Y-172684144D01*
X350564776Y-172643311D02*
X350532733Y-172684144D01*
X350564776Y-172643311D02*
X350564776Y-172643311D01*
X350594745Y-172601456D02*
X350564776Y-172643311D01*
X350594745Y-172601456D02*
X350594745Y-172601456D01*
X350622638Y-172557007D02*
X350594745Y-172601456D01*
X350622638Y-172557007D02*
X350622638Y-172557007D01*
X350649035Y-172512070D02*
X350622638Y-172557007D01*
X350649035Y-172512070D02*
X350649035Y-172512070D01*
X350672808Y-172466065D02*
X350649035Y-172512070D01*
X350672808Y-172466065D02*
X350672808Y-172466065D01*
X350693988Y-172418000D02*
X350672808Y-172466065D01*
X350693988Y-172418000D02*
X350693988Y-172418000D01*
X350712603Y-172369431D02*
X350693988Y-172418000D01*
X350712603Y-172369431D02*
X350712603Y-172369431D01*
X350729663Y-172319306D02*
X350712603Y-172369431D01*
X350729663Y-172319306D02*
X350729663Y-172319306D01*
X350744647Y-172268143D02*
X350729663Y-172319306D01*
X350744647Y-172268143D02*
X350744647Y-172268143D01*
X350757068Y-172216492D02*
X350744647Y-172268143D01*
X350757068Y-172216492D02*
X350757068Y-172216492D01*
X350765826Y-172162232D02*
X350757068Y-172216492D01*
X350765826Y-172162232D02*
X350765826Y-172162232D01*
X350772540Y-172108490D02*
X350765826Y-172162232D01*
X350772540Y-172108490D02*
X350772540Y-172108490D01*
X350776660Y-172054230D02*
X350772540Y-172108490D01*
X350776660Y-172054230D02*
X350776660Y-172054230D01*
X350778704Y-171998429D02*
X350776660Y-172054230D01*
X350778704Y-171998429D02*
X350778704Y-171998429D01*
X350776660Y-171943131D02*
X350778704Y-171998429D01*
X350776660Y-171943131D02*
X350776660Y-171943131D01*
X350772540Y-171888337D02*
X350776660Y-171943131D01*
X350772540Y-171888337D02*
X350772540Y-171888337D01*
X350765826Y-171834092D02*
X350772540Y-171888337D01*
X350765826Y-171834092D02*
X350765826Y-171834092D01*
X350757068Y-171781388D02*
X350765826Y-171834092D01*
X350757068Y-171781388D02*
X350757068Y-171781388D01*
X350744647Y-171729187D02*
X350757068Y-171781388D01*
X350744647Y-171729187D02*
X350744647Y-171729187D01*
X350729663Y-171678040D02*
X350744647Y-171729187D01*
X350729663Y-171678040D02*
X350729663Y-171678040D01*
X350712603Y-171628418D02*
X350729663Y-171678040D01*
X350712603Y-171628418D02*
X350712603Y-171628418D01*
X350693988Y-171579331D02*
X350712603Y-171628418D01*
X350693988Y-171579331D02*
X350693988Y-171579331D01*
X350672808Y-171531266D02*
X350693988Y-171579331D01*
X350672808Y-171531266D02*
X350672808Y-171531266D01*
X350649035Y-171484238D02*
X350672808Y-171531266D01*
X350649035Y-171484238D02*
X350649035Y-171484238D01*
X350622638Y-171439286D02*
X350649035Y-171484238D01*
X350622638Y-171439286D02*
X350622638Y-171439286D01*
X350594745Y-171395371D02*
X350622638Y-171439286D01*
X350594745Y-171395371D02*
X350594745Y-171395371D01*
X350564776Y-171353516D02*
X350594745Y-171395371D01*
X350564776Y-171353516D02*
X350564776Y-171353516D01*
X350532733Y-171312165D02*
X350564776Y-171353516D01*
X350532733Y-171312165D02*
X350532733Y-171312165D01*
X350498614Y-171273407D02*
X350532733Y-171312165D01*
X350498614Y-171273407D02*
X350498614Y-171273407D01*
X350462970Y-171236191D02*
X350498614Y-171273407D01*
X350462970Y-171236191D02*
X350462970Y-171236191D01*
X350425769Y-171200028D02*
X350462970Y-171236191D01*
X350425769Y-171200028D02*
X350425769Y-171200028D01*
X350387011Y-171166443D02*
X350425769Y-171200028D01*
X350387011Y-171166443D02*
X350387011Y-171166443D01*
X350345660Y-171134385D02*
X350387011Y-171166443D01*
X350345660Y-171134385D02*
X350345660Y-171134385D01*
X350303790Y-171104416D02*
X350345660Y-171134385D01*
X350303790Y-171104416D02*
X350303790Y-171104416D01*
X350259875Y-171076523D02*
X350303790Y-171104416D01*
X350259875Y-171076523D02*
X350259875Y-171076523D01*
X350214923Y-171050171D02*
X350259875Y-171076523D01*
X350214923Y-171050171D02*
X350214923Y-171050171D01*
X350167895Y-171026383D02*
X350214923Y-171050171D01*
X350167895Y-171026383D02*
X350167895Y-171026383D01*
X350119830Y-171005204D02*
X350167895Y-171026383D01*
X350119830Y-171005204D02*
X350119830Y-171005204D01*
X350070758Y-170985062D02*
X350119830Y-171005204D01*
X350070758Y-170985062D02*
X350070758Y-170985062D01*
X350020617Y-170968522D02*
X350070758Y-170985062D01*
X350020617Y-170968522D02*
X350020617Y-170968522D01*
X349969989Y-170954056D02*
X350020617Y-170968522D01*
X349969989Y-170954056D02*
X349969989Y-170954056D01*
X349917804Y-170942185D02*
X349969989Y-170954056D01*
X349917804Y-170942185D02*
X349917804Y-170942185D01*
X349864581Y-170932358D02*
X349917804Y-170942185D01*
X349864581Y-170932358D02*
X349864581Y-170932358D01*
X349810809Y-170926148D02*
X349864581Y-170932358D01*
X349810809Y-170926148D02*
X349810809Y-170926148D01*
X349755511Y-170921494D02*
X349810809Y-170926148D01*
X349755511Y-170921494D02*
X349755511Y-170921494D01*
X349700732Y-170920472D02*
X349755511Y-170921494D01*
X436142016Y-170921479D02*
X436194690Y-170920472D01*
X436142016Y-170921479D02*
X436142016Y-170921479D01*
X436088794Y-170925095D02*
X436142016Y-170921479D01*
X436088794Y-170925095D02*
X436088794Y-170925095D01*
X436035571Y-170932328D02*
X436088794Y-170925095D01*
X436035571Y-170932328D02*
X436035571Y-170932328D01*
X435983905Y-170941117D02*
X436035571Y-170932328D01*
X435983905Y-170941117D02*
X435983905Y-170941117D01*
X435931689Y-170953507D02*
X435983905Y-170941117D01*
X435931689Y-170953507D02*
X435931689Y-170953507D01*
X435881579Y-170967484D02*
X435931689Y-170953507D01*
X435881579Y-170967484D02*
X435881579Y-170967484D01*
X435831988Y-170983490D02*
X435881579Y-170967484D01*
X435831988Y-170983490D02*
X435831988Y-170983490D01*
X435782885Y-171002106D02*
X435831988Y-170983490D01*
X435782885Y-171002106D02*
X435782885Y-171002106D01*
X435734820Y-171023285D02*
X435782885Y-171002106D01*
X435734820Y-171023285D02*
X435734820Y-171023285D01*
X435687793Y-171047059D02*
X435734820Y-171023285D01*
X435687793Y-171047059D02*
X435687793Y-171047059D01*
X435641803Y-171073411D02*
X435687793Y-171047059D01*
X435641803Y-171073411D02*
X435641803Y-171073411D01*
X435596850Y-171101319D02*
X435641803Y-171073411D01*
X435596850Y-171101319D02*
X435596850Y-171101319D01*
X435553973Y-171132325D02*
X435596850Y-171101319D01*
X435553973Y-171132325D02*
X435553973Y-171132325D01*
X435511615Y-171164368D02*
X435553973Y-171132325D01*
X435511615Y-171164368D02*
X435511615Y-171164368D01*
X435471789Y-171199509D02*
X435511615Y-171164368D01*
X435471789Y-171199509D02*
X435471789Y-171199509D01*
X435433032Y-171236191D02*
X435471789Y-171199509D01*
X435433032Y-171236191D02*
X435433032Y-171236191D01*
X435395831Y-171275483D02*
X435433032Y-171236191D01*
X435395831Y-171275483D02*
X435395831Y-171275483D01*
X435360705Y-171315262D02*
X435395831Y-171275483D01*
X435360705Y-171315262D02*
X435360705Y-171315262D01*
X435328662Y-171357132D02*
X435360705Y-171315262D01*
X435328662Y-171357132D02*
X435328662Y-171357132D01*
X435297656Y-171400528D02*
X435328662Y-171357132D01*
X435297656Y-171400528D02*
X435297656Y-171400528D01*
X435269732Y-171445481D02*
X435297656Y-171400528D01*
X435269732Y-171445481D02*
X435269732Y-171445481D01*
X435243914Y-171490433D02*
X435269732Y-171445481D01*
X435243914Y-171490433D02*
X435243914Y-171490433D01*
X435219622Y-171538498D02*
X435243914Y-171490433D01*
X435219622Y-171538498D02*
X435219622Y-171538498D01*
X435198962Y-171586045D02*
X435219622Y-171538498D01*
X435198962Y-171586045D02*
X435198962Y-171586045D01*
X435179858Y-171635148D02*
X435198962Y-171586045D01*
X435179858Y-171635148D02*
X435179858Y-171635148D01*
X435163836Y-171685257D02*
X435179858Y-171635148D01*
X435163836Y-171685257D02*
X435163836Y-171685257D01*
X435149890Y-171735383D02*
X435163836Y-171685257D01*
X435149890Y-171735383D02*
X435149890Y-171735383D01*
X435137957Y-171787064D02*
X435149890Y-171735383D01*
X435137957Y-171787064D02*
X435137957Y-171787064D01*
X435128650Y-171839249D02*
X435137957Y-171787064D01*
X435128650Y-171839249D02*
X435128650Y-171839249D01*
X435121936Y-171892472D02*
X435128650Y-171839249D01*
X435121936Y-171892472D02*
X435121936Y-171892472D01*
X435117816Y-171945176D02*
X435121936Y-171892472D01*
X435117816Y-171945176D02*
X435117816Y-171945176D01*
X435116778Y-171998398D02*
X435117816Y-171945176D01*
X435116778Y-171998398D02*
X435116778Y-171998398D01*
X435117816Y-172054215D02*
X435116778Y-171998398D01*
X435117816Y-172054215D02*
X435117816Y-172054215D01*
X435123004Y-172108475D02*
X435117816Y-172054215D01*
X435123004Y-172108475D02*
X435123004Y-172108475D01*
X435128680Y-172162217D02*
X435123004Y-172108475D01*
X435128680Y-172162217D02*
X435128680Y-172162217D01*
X435139026Y-172216477D02*
X435128680Y-172162217D01*
X435139026Y-172216477D02*
X435139026Y-172216477D01*
X435150897Y-172268128D02*
X435139026Y-172216477D01*
X435150897Y-172268128D02*
X435150897Y-172268128D01*
X435165881Y-172319306D02*
X435150897Y-172268128D01*
X435165881Y-172319306D02*
X435165881Y-172319306D01*
X435181903Y-172369431D02*
X435165881Y-172319306D01*
X435181903Y-172369431D02*
X435181903Y-172369431D01*
X435202075Y-172418000D02*
X435181903Y-172369431D01*
X435202075Y-172418000D02*
X435202075Y-172418000D01*
X435222735Y-172466065D02*
X435202075Y-172418000D01*
X435222735Y-172466065D02*
X435222735Y-172466065D01*
X435247027Y-172512070D02*
X435222735Y-172466065D01*
X435247027Y-172512070D02*
X435247027Y-172512070D01*
X435272845Y-172557007D02*
X435247027Y-172512070D01*
X435272845Y-172557007D02*
X435272845Y-172557007D01*
X435300769Y-172601456D02*
X435272845Y-172557007D01*
X435300769Y-172601456D02*
X435300769Y-172601456D01*
X435330737Y-172643311D02*
X435300769Y-172601456D01*
X435330737Y-172643311D02*
X435330737Y-172643311D01*
X435362780Y-172684144D02*
X435330737Y-172643311D01*
X435362780Y-172684144D02*
X435362780Y-172684144D01*
X435396869Y-172723420D02*
X435362780Y-172684144D01*
X435396869Y-172723420D02*
X435396869Y-172723420D01*
X435433062Y-172761139D02*
X435396869Y-172723420D01*
X435433062Y-172761139D02*
X435433062Y-172761139D01*
X435469775Y-172796280D02*
X435433062Y-172761139D01*
X435469775Y-172796280D02*
X435469775Y-172796280D01*
X435509051Y-172830369D02*
X435469775Y-172796280D01*
X435509051Y-172830369D02*
X435509051Y-172830369D01*
X435549884Y-172862427D02*
X435509051Y-172830369D01*
X435549884Y-172862427D02*
X435549884Y-172862427D01*
X435591723Y-172892396D02*
X435549884Y-172862427D01*
X435591723Y-172892396D02*
X435591723Y-172892396D01*
X435635669Y-172920289D02*
X435591723Y-172892396D01*
X435635669Y-172920289D02*
X435635669Y-172920289D01*
X435681140Y-172946137D02*
X435635669Y-172920289D01*
X435681140Y-172946137D02*
X435681140Y-172946137D01*
X435727649Y-172970429D02*
X435681140Y-172946137D01*
X435727649Y-172970429D02*
X435727649Y-172970429D01*
X435775714Y-172992112D02*
X435727649Y-172970429D01*
X435775714Y-172992112D02*
X435775714Y-172992112D01*
X435824786Y-173011231D02*
X435775714Y-172992112D01*
X435824786Y-173011231D02*
X435824786Y-173011231D01*
X435874926Y-173028290D02*
X435824786Y-173011231D01*
X435874926Y-173028290D02*
X435874926Y-173028290D01*
X435926104Y-173042252D02*
X435874926Y-173028290D01*
X435926104Y-173042252D02*
X435926104Y-173042252D01*
X435977771Y-173055161D02*
X435926104Y-173042252D01*
X435977771Y-173055161D02*
X435977771Y-173055161D01*
X436030993Y-173064469D02*
X435977771Y-173055161D01*
X436030993Y-173064469D02*
X436030993Y-173064469D01*
X436084765Y-173071167D02*
X436030993Y-173064469D01*
X436084765Y-173071167D02*
X436084765Y-173071167D01*
X436140063Y-173075318D02*
X436084765Y-173071167D01*
X436140063Y-173075318D02*
X436140063Y-173075318D01*
X436194842Y-173076340D02*
X436140063Y-173075318D01*
X436194842Y-173076340D02*
X436194842Y-173076340D01*
X436251147Y-173075318D02*
X436194842Y-173076340D01*
X436251147Y-173075318D02*
X436251147Y-173075318D01*
X436304889Y-173071167D02*
X436251147Y-173075318D01*
X436304889Y-173071167D02*
X436304889Y-173071167D01*
X436359149Y-173064469D02*
X436304889Y-173071167D01*
X436359149Y-173064469D02*
X436359149Y-173064469D01*
X436412890Y-173055161D02*
X436359149Y-173064469D01*
X436412890Y-173055161D02*
X436412890Y-173055161D01*
X436465075Y-173042252D02*
X436412890Y-173055161D01*
X436465075Y-173042252D02*
X436465075Y-173042252D01*
X436515704Y-173028275D02*
X436465075Y-173042252D01*
X436515704Y-173028275D02*
X436515704Y-173028275D01*
X436565814Y-173011216D02*
X436515704Y-173028275D01*
X436565814Y-173011216D02*
X436565814Y-173011216D01*
X436614886Y-172992096D02*
X436565814Y-173011216D01*
X436614886Y-172992096D02*
X436614886Y-172992096D01*
X436662951Y-172970398D02*
X436614886Y-172992096D01*
X436662951Y-172970398D02*
X436662951Y-172970398D01*
X436708941Y-172946122D02*
X436662951Y-172970398D01*
X436708941Y-172946122D02*
X436708941Y-172946122D01*
X436753894Y-172920273D02*
X436708941Y-172946122D01*
X436753894Y-172920273D02*
X436753894Y-172920273D01*
X436797839Y-172892380D02*
X436753894Y-172920273D01*
X436797839Y-172892380D02*
X436797839Y-172892380D01*
X436839709Y-172862412D02*
X436797839Y-172892380D01*
X436839709Y-172862412D02*
X436839709Y-172862412D01*
X436881030Y-172830369D02*
X436839709Y-172862412D01*
X436881030Y-172830369D02*
X436881030Y-172830369D01*
X436919787Y-172796280D02*
X436881030Y-172830369D01*
X436919787Y-172796280D02*
X436919787Y-172796280D01*
X436958026Y-172761139D02*
X436919787Y-172796280D01*
X436958026Y-172761139D02*
X436958026Y-172761139D01*
X436992663Y-172723420D02*
X436958026Y-172761139D01*
X436992663Y-172723420D02*
X436992663Y-172723420D01*
X437026782Y-172684144D02*
X436992663Y-172723420D01*
X437026782Y-172684144D02*
X437026782Y-172684144D01*
X437058795Y-172643311D02*
X437026782Y-172684144D01*
X437058795Y-172643311D02*
X437058795Y-172643311D01*
X437088794Y-172601456D02*
X437058795Y-172643311D01*
X437088794Y-172601456D02*
X437088794Y-172601456D01*
X437116687Y-172557007D02*
X437088794Y-172601456D01*
X437116687Y-172557007D02*
X437116687Y-172557007D01*
X437143023Y-172512070D02*
X437116687Y-172557007D01*
X437143023Y-172512070D02*
X437143023Y-172512070D01*
X437166797Y-172466065D02*
X437143023Y-172512070D01*
X437166797Y-172466065D02*
X437166797Y-172466065D01*
X437189013Y-172418000D02*
X437166797Y-172466065D01*
X437189013Y-172418000D02*
X437189013Y-172418000D01*
X437207629Y-172369431D02*
X437189013Y-172418000D01*
X437207629Y-172369431D02*
X437207629Y-172369431D01*
X437224688Y-172319306D02*
X437207629Y-172369431D01*
X437224688Y-172319306D02*
X437224688Y-172319306D01*
X437239673Y-172268128D02*
X437224688Y-172319306D01*
X437239673Y-172268128D02*
X437239673Y-172268128D01*
X437252063Y-172216477D02*
X437239673Y-172268128D01*
X437252063Y-172216477D02*
X437252063Y-172216477D01*
X437260821Y-172162217D02*
X437252063Y-172216477D01*
X437260821Y-172162217D02*
X437260821Y-172162217D01*
X437268054Y-172108475D02*
X437260821Y-172162217D01*
X437268054Y-172108475D02*
X437268054Y-172108475D01*
X437271655Y-172054215D02*
X437268054Y-172108475D01*
X437271655Y-172054215D02*
X437271655Y-172054215D01*
X437272693Y-171998398D02*
X437271655Y-172054215D01*
X437272693Y-171998398D02*
X437272693Y-171998398D01*
X437271655Y-171945176D02*
X437272693Y-171998398D01*
X437271655Y-171945176D02*
X437271655Y-171945176D01*
X437268054Y-171892472D02*
X437271655Y-171945176D01*
X437268054Y-171892472D02*
X437268054Y-171892472D01*
X437261828Y-171839249D02*
X437268054Y-171892472D01*
X437261828Y-171839249D02*
X437261828Y-171839249D01*
X437253039Y-171787064D02*
X437261828Y-171839249D01*
X437253039Y-171787064D02*
X437253039Y-171787064D01*
X437240649Y-171735383D02*
X437253039Y-171787064D01*
X437240649Y-171735383D02*
X437240649Y-171735383D01*
X437226703Y-171685257D02*
X437240649Y-171735383D01*
X437226703Y-171685257D02*
X437226703Y-171685257D01*
X437209643Y-171635132D02*
X437226703Y-171685257D01*
X437209643Y-171635132D02*
X437209643Y-171635132D01*
X437191058Y-171586014D02*
X437209643Y-171635132D01*
X437191058Y-171586014D02*
X437191058Y-171586014D01*
X437169879Y-171538483D02*
X437191058Y-171586014D01*
X437169879Y-171538483D02*
X437169879Y-171538483D01*
X437145587Y-171490418D02*
X437169879Y-171538483D01*
X437145587Y-171490418D02*
X437145587Y-171490418D01*
X437120776Y-171445466D02*
X437145587Y-171490418D01*
X437120776Y-171445466D02*
X437120776Y-171445466D01*
X437091845Y-171400513D02*
X437120776Y-171445466D01*
X437091845Y-171400513D02*
X437091845Y-171400513D01*
X437061877Y-171357102D02*
X437091845Y-171400513D01*
X437061877Y-171357102D02*
X437061877Y-171357102D01*
X437028827Y-171315247D02*
X437061877Y-171357102D01*
X437028827Y-171315247D02*
X437028827Y-171315247D01*
X436994708Y-171275467D02*
X437028827Y-171315247D01*
X436994708Y-171275467D02*
X436994708Y-171275467D01*
X436957995Y-171236176D02*
X436994708Y-171275467D01*
X436957995Y-171236176D02*
X436957995Y-171236176D01*
X436918719Y-171199494D02*
X436957995Y-171236176D01*
X436918719Y-171199494D02*
X436918719Y-171199494D01*
X436878924Y-171164353D02*
X436918719Y-171199494D01*
X436878924Y-171164353D02*
X436878924Y-171164353D01*
X436837085Y-171132325D02*
X436878924Y-171164353D01*
X436837085Y-171132325D02*
X436837085Y-171132325D01*
X436792621Y-171101334D02*
X436837085Y-171132325D01*
X436792621Y-171101334D02*
X436792621Y-171101334D01*
X436748706Y-171073426D02*
X436792621Y-171101334D01*
X436748706Y-171073426D02*
X436748706Y-171073426D01*
X436702716Y-171047074D02*
X436748706Y-171073426D01*
X436702716Y-171047074D02*
X436702716Y-171047074D01*
X436655658Y-171023301D02*
X436702716Y-171047074D01*
X436655658Y-171023301D02*
X436655658Y-171023301D01*
X436607592Y-171002121D02*
X436655658Y-171023301D01*
X436607592Y-171002121D02*
X436607592Y-171002121D01*
X436559039Y-170983506D02*
X436607592Y-171002121D01*
X436559039Y-170983506D02*
X436559039Y-170983506D01*
X436508868Y-170967499D02*
X436559039Y-170983506D01*
X436508868Y-170967499D02*
X436508868Y-170967499D01*
X436457721Y-170953537D02*
X436508868Y-170967499D01*
X436457721Y-170953537D02*
X436457721Y-170953537D01*
X436406543Y-170941147D02*
X436457721Y-170953537D01*
X436406543Y-170941147D02*
X436406543Y-170941147D01*
X436353839Y-170932358D02*
X436406543Y-170941147D01*
X436353839Y-170932358D02*
X436353839Y-170932358D01*
X436301654Y-170925110D02*
X436353839Y-170932358D01*
X436301654Y-170925110D02*
X436301654Y-170925110D01*
X436248950Y-170921494D02*
X436301654Y-170925110D01*
X436248950Y-170921494D02*
X436248950Y-170921494D01*
X436194690Y-170920472D02*
X436248950Y-170921494D01*
X183041674Y-210518036D02*
X183094897Y-210517548D01*
X183041674Y-210518036D02*
X183041674Y-210518036D01*
X182988971Y-210522187D02*
X183041674Y-210518036D01*
X182988971Y-210522187D02*
X182988971Y-210522187D01*
X182935748Y-210529419D02*
X182988971Y-210522187D01*
X182935748Y-210529419D02*
X182935748Y-210529419D01*
X182883548Y-210538193D02*
X182935748Y-210529419D01*
X182883548Y-210538193D02*
X182883548Y-210538193D01*
X182832919Y-210549042D02*
X182883548Y-210538193D01*
X182832919Y-210549042D02*
X182832919Y-210549042D01*
X182781756Y-210563508D02*
X182832919Y-210549042D01*
X182781756Y-210563508D02*
X182781756Y-210563508D01*
X182731631Y-210580048D02*
X182781756Y-210563508D01*
X182731631Y-210580048D02*
X182731631Y-210580048D01*
X182682544Y-210599167D02*
X182731631Y-210580048D01*
X182682544Y-210599167D02*
X182682544Y-210599167D01*
X182634997Y-210620362D02*
X182682544Y-210599167D01*
X182634997Y-210620362D02*
X182634997Y-210620362D01*
X182587970Y-210644135D02*
X182634997Y-210620362D01*
X182587970Y-210644135D02*
X182587970Y-210644135D01*
X182541980Y-210670502D02*
X182587970Y-210644135D01*
X182541980Y-210670502D02*
X182541980Y-210670502D01*
X182497027Y-210698411D02*
X182541980Y-210670502D01*
X182497027Y-210698411D02*
X182497027Y-210698411D01*
X182453616Y-210728394D02*
X182497027Y-210698411D01*
X182453616Y-210728394D02*
X182453616Y-210728394D01*
X182411761Y-210761460D02*
X182453616Y-210728394D01*
X182411761Y-210761460D02*
X182411761Y-210761460D01*
X182371966Y-210796082D02*
X182411761Y-210761460D01*
X182371966Y-210796082D02*
X182371966Y-210796082D01*
X182332705Y-210833298D02*
X182371966Y-210796082D01*
X182332705Y-210833298D02*
X182332705Y-210833298D01*
X182296023Y-210871537D02*
X182332705Y-210833298D01*
X182296023Y-210871537D02*
X182296023Y-210871537D01*
X182260882Y-210912354D02*
X182296023Y-210871537D01*
X182260882Y-210912354D02*
X182260882Y-210912354D01*
X182228854Y-210953187D02*
X182260882Y-210912354D01*
X182228854Y-210953187D02*
X182228854Y-210953187D01*
X182197833Y-210997117D02*
X182228854Y-210953187D01*
X182197833Y-210997117D02*
X182197833Y-210997117D01*
X182169940Y-211041550D02*
X182197833Y-210997117D01*
X182169940Y-211041550D02*
X182169940Y-211041550D01*
X182143573Y-211087540D02*
X182169940Y-211041550D01*
X182143573Y-211087540D02*
X182143573Y-211087540D01*
X182119799Y-211134049D02*
X182143573Y-211087540D01*
X182119799Y-211134049D02*
X182119799Y-211134049D01*
X182098605Y-211182114D02*
X182119799Y-211134049D01*
X182098605Y-211182114D02*
X182098605Y-211182114D01*
X182080005Y-211231202D02*
X182098605Y-211182114D01*
X182080005Y-211231202D02*
X182080005Y-211231202D01*
X182063983Y-211281312D02*
X182080005Y-211231202D01*
X182063983Y-211281312D02*
X182063983Y-211281312D01*
X182050036Y-211332490D02*
X182063983Y-211281312D01*
X182050036Y-211332490D02*
X182050036Y-211332490D01*
X182037616Y-211384171D02*
X182050036Y-211332490D01*
X182037616Y-211384171D02*
X182037616Y-211384171D01*
X182028827Y-211436356D02*
X182037616Y-211384171D01*
X182028827Y-211436356D02*
X182028827Y-211436356D01*
X182021594Y-211488572D02*
X182028827Y-211436356D01*
X182021594Y-211488572D02*
X182021594Y-211488572D01*
X182017978Y-211541276D02*
X182021594Y-211488572D01*
X182017978Y-211541276D02*
X182017978Y-211541276D01*
X182016940Y-211595521D02*
X182017978Y-211541276D01*
X182016940Y-211595521D02*
X182016940Y-211595521D01*
X182019015Y-211650300D02*
X182016940Y-211595521D01*
X182019015Y-211650300D02*
X182019015Y-211650300D01*
X182022631Y-211705079D02*
X182019015Y-211650300D01*
X182022631Y-211705079D02*
X182022631Y-211705079D01*
X182029849Y-211759339D02*
X182022631Y-211705079D01*
X182029849Y-211759339D02*
X182029849Y-211759339D01*
X182038638Y-211812562D02*
X182029849Y-211759339D01*
X182038638Y-211812562D02*
X182038638Y-211812562D01*
X182050525Y-211864228D02*
X182038638Y-211812562D01*
X182050525Y-211864228D02*
X182050525Y-211864228D01*
X182066027Y-211916428D02*
X182050525Y-211864228D01*
X182066027Y-211916428D02*
X182066027Y-211916428D01*
X182082553Y-211966538D02*
X182066027Y-211916428D01*
X182082553Y-211966538D02*
X182082553Y-211966538D01*
X182101687Y-212015107D02*
X182082553Y-211966538D01*
X182101687Y-212015107D02*
X182101687Y-212015107D01*
X182122866Y-212062134D02*
X182101687Y-212015107D01*
X182122866Y-212062134D02*
X182122866Y-212062134D01*
X182146640Y-212109162D02*
X182122866Y-212062134D01*
X182146640Y-212109162D02*
X182146640Y-212109162D01*
X182172992Y-212154114D02*
X182146640Y-212109162D01*
X182172992Y-212154114D02*
X182172992Y-212154114D01*
X182200900Y-212198044D02*
X182172992Y-212154114D01*
X182200900Y-212198044D02*
X182200900Y-212198044D01*
X182230868Y-212240418D02*
X182200900Y-212198044D01*
X182230868Y-212240418D02*
X182230868Y-212240418D01*
X182262896Y-212281235D02*
X182230868Y-212240418D01*
X182262896Y-212281235D02*
X182262896Y-212281235D01*
X182297015Y-212320511D02*
X182262896Y-212281235D01*
X182297015Y-212320511D02*
X182297015Y-212320511D01*
X182332675Y-212357209D02*
X182297015Y-212320511D01*
X182332675Y-212357209D02*
X182332675Y-212357209D01*
X182369876Y-212393387D02*
X182332675Y-212357209D01*
X182369876Y-212393387D02*
X182369876Y-212393387D01*
X182408618Y-212427491D02*
X182369876Y-212393387D01*
X182408618Y-212427491D02*
X182408618Y-212427491D01*
X182449969Y-212459519D02*
X182408618Y-212427491D01*
X182449969Y-212459519D02*
X182449969Y-212459519D01*
X182491824Y-212489487D02*
X182449969Y-212459519D01*
X182491824Y-212489487D02*
X182491824Y-212489487D01*
X182535754Y-212517396D02*
X182491824Y-212489487D01*
X182535754Y-212517396D02*
X182535754Y-212517396D01*
X182580706Y-212543244D02*
X182535754Y-212517396D01*
X182580706Y-212543244D02*
X182580706Y-212543244D01*
X182627734Y-212567521D02*
X182580706Y-212543244D01*
X182627734Y-212567521D02*
X182627734Y-212567521D01*
X182675799Y-212588196D02*
X182627734Y-212567521D01*
X182675799Y-212588196D02*
X182675799Y-212588196D01*
X182724887Y-212608353D02*
X182675799Y-212588196D01*
X182724887Y-212608353D02*
X182724887Y-212608353D01*
X182775012Y-212625412D02*
X182724887Y-212608353D01*
X182775012Y-212625412D02*
X182775012Y-212625412D01*
X182825641Y-212639359D02*
X182775012Y-212625412D01*
X182825641Y-212639359D02*
X182825641Y-212639359D01*
X182877841Y-212651261D02*
X182825641Y-212639359D01*
X182877841Y-212651261D02*
X182877841Y-212651261D01*
X182930545Y-212661072D02*
X182877841Y-212651261D01*
X182930545Y-212661072D02*
X182930545Y-212661072D01*
X182984805Y-212668305D02*
X182930545Y-212661072D01*
X182984805Y-212668305D02*
X182984805Y-212668305D01*
X183039584Y-212672440D02*
X182984805Y-212668305D01*
X183039584Y-212672440D02*
X183039584Y-212672440D01*
X183094882Y-212673478D02*
X183039584Y-212672440D01*
X183094882Y-212673478D02*
X183094882Y-212673478D01*
X183150699Y-212672440D02*
X183094882Y-212673478D01*
X183150699Y-212672440D02*
X183150699Y-212672440D01*
X183205996Y-212668305D02*
X183150699Y-212672440D01*
X183205996Y-212668305D02*
X183205996Y-212668305D01*
X183259738Y-212661072D02*
X183205996Y-212668305D01*
X183259738Y-212661072D02*
X183259738Y-212661072D01*
X183312976Y-212651261D02*
X183259738Y-212661072D01*
X183312976Y-212651261D02*
X183312976Y-212651261D01*
X183364657Y-212639359D02*
X183312976Y-212651261D01*
X183364657Y-212639359D02*
X183364657Y-212639359D01*
X183415820Y-212625412D02*
X183364657Y-212639359D01*
X183415820Y-212625412D02*
X183415820Y-212625412D01*
X183465930Y-212608353D02*
X183415820Y-212625412D01*
X183465930Y-212608353D02*
X183465930Y-212608353D01*
X183515017Y-212588196D02*
X183465930Y-212608353D01*
X183515017Y-212588196D02*
X183515017Y-212588196D01*
X183562579Y-212567521D02*
X183515017Y-212588196D01*
X183562579Y-212567521D02*
X183562579Y-212567521D01*
X183608554Y-212543244D02*
X183562579Y-212567521D01*
X183608554Y-212543244D02*
X183608554Y-212543244D01*
X183653521Y-212517396D02*
X183608554Y-212543244D01*
X183653521Y-212517396D02*
X183653521Y-212517396D01*
X183697970Y-212489487D02*
X183653521Y-212517396D01*
X183697970Y-212489487D02*
X183697970Y-212489487D01*
X183739825Y-212459519D02*
X183697970Y-212489487D01*
X183739825Y-212459519D02*
X183739825Y-212459519D01*
X183780642Y-212427491D02*
X183739825Y-212459519D01*
X183780642Y-212427491D02*
X183780642Y-212427491D01*
X183819918Y-212393387D02*
X183780642Y-212427491D01*
X183819918Y-212393387D02*
X183819918Y-212393387D01*
X183857638Y-212357209D02*
X183819918Y-212393387D01*
X183857638Y-212357209D02*
X183857638Y-212357209D01*
X183892764Y-212320511D02*
X183857638Y-212357209D01*
X183892764Y-212320511D02*
X183892764Y-212320511D01*
X183926883Y-212281235D02*
X183892764Y-212320511D01*
X183926883Y-212281235D02*
X183926883Y-212281235D01*
X183958911Y-212240418D02*
X183926883Y-212281235D01*
X183958911Y-212240418D02*
X183958911Y-212240418D01*
X183988894Y-212198044D02*
X183958911Y-212240418D01*
X183988894Y-212198044D02*
X183988894Y-212198044D01*
X184016803Y-212154114D02*
X183988894Y-212198044D01*
X184016803Y-212154114D02*
X184016803Y-212154114D01*
X184042636Y-212109162D02*
X184016803Y-212154114D01*
X184042636Y-212109162D02*
X184042636Y-212109162D01*
X184066928Y-212062134D02*
X184042636Y-212109162D01*
X184066928Y-212062134D02*
X184066928Y-212062134D01*
X184088626Y-212015107D02*
X184066928Y-212062134D01*
X184088626Y-212015107D02*
X184088626Y-212015107D01*
X184107745Y-211966538D02*
X184088626Y-212015107D01*
X184107745Y-211966538D02*
X184107745Y-211966538D01*
X184124804Y-211916428D02*
X184107745Y-211966538D01*
X184124804Y-211916428D02*
X184124804Y-211916428D01*
X184139773Y-211864213D02*
X184124804Y-211916428D01*
X184139773Y-211864213D02*
X184139773Y-211864213D01*
X184151660Y-211812546D02*
X184139773Y-211864213D01*
X184151660Y-211812546D02*
X184151660Y-211812546D01*
X184160952Y-211759324D02*
X184151660Y-211812546D01*
X184160952Y-211759324D02*
X184160952Y-211759324D01*
X184167682Y-211705063D02*
X184160952Y-211759324D01*
X184167682Y-211705063D02*
X184167682Y-211705063D01*
X184171801Y-211650284D02*
X184167682Y-211705063D01*
X184171801Y-211650284D02*
X184171801Y-211650284D01*
X184173877Y-211595505D02*
X184171801Y-211650284D01*
X184173877Y-211595505D02*
X184173877Y-211595505D01*
X184171801Y-211541260D02*
X184173877Y-211595505D01*
X184171801Y-211541260D02*
X184171801Y-211541260D01*
X184167682Y-211488556D02*
X184171801Y-211541260D01*
X184167682Y-211488556D02*
X184167682Y-211488556D01*
X184161990Y-211436356D02*
X184167682Y-211488556D01*
X184161990Y-211436356D02*
X184161990Y-211436356D01*
X184152682Y-211384171D02*
X184161990Y-211436356D01*
X184152682Y-211384171D02*
X184152682Y-211384171D01*
X184140811Y-211332490D02*
X184152682Y-211384171D01*
X184140811Y-211332490D02*
X184140811Y-211332490D01*
X184126864Y-211281312D02*
X184140811Y-211332490D01*
X184126864Y-211281312D02*
X184126864Y-211281312D01*
X184109805Y-211231202D02*
X184126864Y-211281312D01*
X184109805Y-211231202D02*
X184109805Y-211231202D01*
X184090686Y-211182114D02*
X184109805Y-211231202D01*
X184090686Y-211182114D02*
X184090686Y-211182114D01*
X184069506Y-211134049D02*
X184090686Y-211182114D01*
X184069506Y-211134049D02*
X184069506Y-211134049D01*
X184046771Y-211087540D02*
X184069506Y-211134049D01*
X184046771Y-211087540D02*
X184046771Y-211087540D01*
X184020938Y-211041550D02*
X184046771Y-211087540D01*
X184020938Y-211041550D02*
X184020938Y-211041550D01*
X183992007Y-210997117D02*
X184020938Y-211041550D01*
X183992007Y-210997117D02*
X183992007Y-210997117D01*
X183962039Y-210953187D02*
X183992007Y-210997117D01*
X183962039Y-210953187D02*
X183962039Y-210953187D01*
X183928958Y-210912354D02*
X183962039Y-210953187D01*
X183928958Y-210912354D02*
X183928958Y-210912354D01*
X183894870Y-210871537D02*
X183928958Y-210912354D01*
X183894870Y-210871537D02*
X183894870Y-210871537D01*
X183857653Y-210833298D02*
X183894870Y-210871537D01*
X183857653Y-210833298D02*
X183857653Y-210833298D01*
X183818881Y-210796082D02*
X183857653Y-210833298D01*
X183818881Y-210796082D02*
X183818881Y-210796082D01*
X183778582Y-210761460D02*
X183818881Y-210796082D01*
X183778582Y-210761460D02*
X183778582Y-210761460D01*
X183736728Y-210728394D02*
X183778582Y-210761460D01*
X183736728Y-210728394D02*
X183736728Y-210728394D01*
X183693820Y-210698411D02*
X183736728Y-210728394D01*
X183693820Y-210698411D02*
X183693820Y-210698411D01*
X183648883Y-210670502D02*
X183693820Y-210698411D01*
X183648883Y-210670502D02*
X183648883Y-210670502D01*
X183602877Y-210644150D02*
X183648883Y-210670502D01*
X183602877Y-210644150D02*
X183602877Y-210644150D01*
X183555850Y-210620377D02*
X183602877Y-210644150D01*
X183555850Y-210620377D02*
X183555850Y-210620377D01*
X183507785Y-210599183D02*
X183555850Y-210620377D01*
X183507785Y-210599183D02*
X183507785Y-210599183D01*
X183458697Y-210580063D02*
X183507785Y-210599183D01*
X183458697Y-210580063D02*
X183458697Y-210580063D01*
X183408572Y-210563523D02*
X183458697Y-210580063D01*
X183408572Y-210563523D02*
X183408572Y-210563523D01*
X183357943Y-210549057D02*
X183408572Y-210563523D01*
X183357943Y-210549057D02*
X183357943Y-210549057D01*
X183306765Y-210538208D02*
X183357943Y-210549057D01*
X183306765Y-210538208D02*
X183306765Y-210538208D01*
X183254565Y-210529435D02*
X183306765Y-210538208D01*
X183254565Y-210529435D02*
X183254565Y-210529435D01*
X183201861Y-210522202D02*
X183254565Y-210529435D01*
X183201861Y-210522202D02*
X183201861Y-210522202D01*
X183148639Y-210518052D02*
X183201861Y-210522202D01*
X183148639Y-210518052D02*
X183148639Y-210518052D01*
X183094897Y-210517548D02*
X183148639Y-210518052D01*
X340206622Y-210526307D02*
X340261004Y-210525284D01*
X340206622Y-210526307D02*
X340206622Y-210526307D01*
X340153399Y-210530457D02*
X340206622Y-210526307D01*
X340153399Y-210530457D02*
X340153399Y-210530457D01*
X340101733Y-210537156D02*
X340153399Y-210530457D01*
X340101733Y-210537156D02*
X340101733Y-210537156D01*
X340048510Y-210546463D02*
X340101733Y-210537156D01*
X340048510Y-210546463D02*
X340048510Y-210546463D01*
X339997851Y-210558350D02*
X340048510Y-210546463D01*
X339997851Y-210558350D02*
X339997851Y-210558350D01*
X339946673Y-210572312D02*
X339997851Y-210558350D01*
X339946673Y-210572312D02*
X339946673Y-210572312D01*
X339896533Y-210588318D02*
X339946673Y-210572312D01*
X339896533Y-210588318D02*
X339896533Y-210588318D01*
X339847461Y-210607453D02*
X339896533Y-210588318D01*
X339847461Y-210607453D02*
X339847461Y-210607453D01*
X339799395Y-210628113D02*
X339847461Y-210607453D01*
X339799395Y-210628113D02*
X339799395Y-210628113D01*
X339752337Y-210652405D02*
X339799395Y-210628113D01*
X339752337Y-210652405D02*
X339752337Y-210652405D01*
X339706378Y-210678238D02*
X339752337Y-210652405D01*
X339706378Y-210678238D02*
X339706378Y-210678238D01*
X339662433Y-210706147D02*
X339706378Y-210678238D01*
X339662433Y-210706147D02*
X339662433Y-210706147D01*
X339618487Y-210737153D02*
X339662433Y-210706147D01*
X339618487Y-210737153D02*
X339618487Y-210737153D01*
X339576648Y-210769196D02*
X339618487Y-210737153D01*
X339576648Y-210769196D02*
X339576648Y-210769196D01*
X339536853Y-210804322D02*
X339576648Y-210769196D01*
X339536853Y-210804322D02*
X339536853Y-210804322D01*
X339497607Y-210841538D02*
X339536853Y-210804322D01*
X339497607Y-210841538D02*
X339497607Y-210841538D01*
X339461444Y-210880295D02*
X339497607Y-210841538D01*
X339461444Y-210880295D02*
X339461444Y-210880295D01*
X339426806Y-210920090D02*
X339461444Y-210880295D01*
X339426806Y-210920090D02*
X339426806Y-210920090D01*
X339393756Y-210962449D02*
X339426806Y-210920090D01*
X339393756Y-210962449D02*
X339393756Y-210962449D01*
X339363787Y-211005356D02*
X339393756Y-210962449D01*
X339363787Y-211005356D02*
X339363787Y-211005356D01*
X339335864Y-211050309D02*
X339363787Y-211005356D01*
X339335864Y-211050309D02*
X339335864Y-211050309D01*
X339309527Y-211096299D02*
X339335864Y-211050309D01*
X339309527Y-211096299D02*
X339309527Y-211096299D01*
X339285754Y-211143311D02*
X339309527Y-211096299D01*
X339285754Y-211143311D02*
X339285754Y-211143311D01*
X339264575Y-211191376D02*
X339285754Y-211143311D01*
X339264575Y-211191376D02*
X339264575Y-211191376D01*
X339245440Y-211240464D02*
X339264575Y-211191376D01*
X339245440Y-211240464D02*
X339245440Y-211240464D01*
X339228381Y-211290085D02*
X339245440Y-211240464D01*
X339228381Y-211290085D02*
X339228381Y-211290085D01*
X339214434Y-211341248D02*
X339228381Y-211290085D01*
X339214434Y-211341248D02*
X339214434Y-211341248D01*
X339202563Y-211392426D02*
X339214434Y-211341248D01*
X339202563Y-211392426D02*
X339202563Y-211392426D01*
X339193744Y-211444108D02*
X339202563Y-211392426D01*
X339193744Y-211444108D02*
X339193744Y-211444108D01*
X339187548Y-211497315D02*
X339193744Y-211444108D01*
X339187548Y-211497315D02*
X339187548Y-211497315D01*
X339183429Y-211550019D02*
X339187548Y-211497315D01*
X339183429Y-211550019D02*
X339183429Y-211550019D01*
X339182391Y-211603257D02*
X339183429Y-211550019D01*
X339182391Y-211603257D02*
X339182391Y-211603257D01*
X339183429Y-211657517D02*
X339182391Y-211603257D01*
X339183429Y-211657517D02*
X339183429Y-211657517D01*
X339187548Y-211710221D02*
X339183429Y-211657517D01*
X339187548Y-211710221D02*
X339187548Y-211710221D01*
X339193744Y-211763443D02*
X339187548Y-211710221D01*
X339193744Y-211763443D02*
X339193744Y-211763443D01*
X339202563Y-211815110D02*
X339193744Y-211763443D01*
X339202563Y-211815110D02*
X339202563Y-211815110D01*
X339214434Y-211866272D02*
X339202563Y-211815110D01*
X339214434Y-211866272D02*
X339214434Y-211866272D01*
X339228381Y-211917435D02*
X339214434Y-211866272D01*
X339228381Y-211917435D02*
X339228381Y-211917435D01*
X339245440Y-211967042D02*
X339228381Y-211917435D01*
X339245440Y-211967042D02*
X339245440Y-211967042D01*
X339264544Y-212016129D02*
X339245440Y-211967042D01*
X339264544Y-212016129D02*
X339264544Y-212016129D01*
X339285724Y-212064194D02*
X339264544Y-212016129D01*
X339285724Y-212064194D02*
X339285724Y-212064194D01*
X339309497Y-212111222D02*
X339285724Y-212064194D01*
X339309497Y-212111222D02*
X339309497Y-212111222D01*
X339335833Y-212157212D02*
X339309497Y-212111222D01*
X339335833Y-212157212D02*
X339335833Y-212157212D01*
X339363757Y-212202164D02*
X339335833Y-212157212D01*
X339363757Y-212202164D02*
X339363757Y-212202164D01*
X339393725Y-212245057D02*
X339363757Y-212202164D01*
X339393725Y-212245057D02*
X339393725Y-212245057D01*
X339426776Y-212287430D02*
X339393725Y-212245057D01*
X339426776Y-212287430D02*
X339426776Y-212287430D01*
X339461413Y-212327225D02*
X339426776Y-212287430D01*
X339461413Y-212327225D02*
X339461413Y-212327225D01*
X339497577Y-212366486D02*
X339461413Y-212327225D01*
X339497577Y-212366486D02*
X339497577Y-212366486D01*
X339536822Y-212403168D02*
X339497577Y-212366486D01*
X339536822Y-212403168D02*
X339536822Y-212403168D01*
X339576617Y-212437287D02*
X339536822Y-212403168D01*
X339576617Y-212437287D02*
X339576617Y-212437287D01*
X339618457Y-212470353D02*
X339576617Y-212437287D01*
X339618457Y-212470353D02*
X339618457Y-212470353D01*
X339662402Y-212500321D02*
X339618457Y-212470353D01*
X339662402Y-212500321D02*
X339662402Y-212500321D01*
X339706347Y-212529267D02*
X339662402Y-212500321D01*
X339706347Y-212529267D02*
X339706347Y-212529267D01*
X339752307Y-212555115D02*
X339706347Y-212529267D01*
X339752307Y-212555115D02*
X339752307Y-212555115D01*
X339799365Y-212578354D02*
X339752307Y-212555115D01*
X339799365Y-212578354D02*
X339799365Y-212578354D01*
X339847430Y-212599030D02*
X339799365Y-212578354D01*
X339847430Y-212599030D02*
X339847430Y-212599030D01*
X339896502Y-212618149D02*
X339847430Y-212599030D01*
X339896502Y-212618149D02*
X339896502Y-212618149D01*
X339946643Y-212635209D02*
X339896502Y-212618149D01*
X339946643Y-212635209D02*
X339946643Y-212635209D01*
X339997821Y-212649155D02*
X339946643Y-212635209D01*
X339997821Y-212649155D02*
X339997821Y-212649155D01*
X340048449Y-212661042D02*
X339997821Y-212649155D01*
X340048449Y-212661042D02*
X340048449Y-212661042D01*
X340101672Y-212670334D02*
X340048449Y-212661042D01*
X340101672Y-212670334D02*
X340101672Y-212670334D01*
X340153338Y-212676026D02*
X340101672Y-212670334D01*
X340153338Y-212676026D02*
X340153338Y-212676026D01*
X340206561Y-212680161D02*
X340153338Y-212676026D01*
X340206561Y-212680161D02*
X340206561Y-212680161D01*
X340260821Y-212682236D02*
X340206561Y-212680161D01*
X340260821Y-212682236D02*
X340260821Y-212682236D01*
X340315600Y-212680161D02*
X340260821Y-212682236D01*
X340315600Y-212680161D02*
X340315600Y-212680161D01*
X340370410Y-212676026D02*
X340315600Y-212680161D01*
X340370410Y-212676026D02*
X340370410Y-212676026D01*
X340424670Y-212669297D02*
X340370410Y-212676026D01*
X340424670Y-212669297D02*
X340424670Y-212669297D01*
X340477374Y-212660004D02*
X340424670Y-212669297D01*
X340477374Y-212660004D02*
X340477374Y-212660004D01*
X340529559Y-212648118D02*
X340477374Y-212660004D01*
X340529559Y-212648118D02*
X340529559Y-212648118D01*
X340580737Y-212633118D02*
X340529559Y-212648118D01*
X340580737Y-212633118D02*
X340580737Y-212633118D01*
X340631396Y-212616074D02*
X340580737Y-212633118D01*
X340631396Y-212616074D02*
X340631396Y-212616074D01*
X340680468Y-212597458D02*
X340631396Y-212616074D01*
X340680468Y-212597458D02*
X340680468Y-212597458D01*
X340727527Y-212575242D02*
X340680468Y-212597458D01*
X340727527Y-212575242D02*
X340727527Y-212575242D01*
X340774524Y-212551468D02*
X340727527Y-212575242D01*
X340774524Y-212551468D02*
X340774524Y-212551468D01*
X340819476Y-212525116D02*
X340774524Y-212551468D01*
X340819476Y-212525116D02*
X340819476Y-212525116D01*
X340863421Y-212497208D02*
X340819476Y-212525116D01*
X340863421Y-212497208D02*
X340863421Y-212497208D01*
X340905780Y-212467240D02*
X340863421Y-212497208D01*
X340905780Y-212467240D02*
X340905780Y-212467240D01*
X340946612Y-212435212D02*
X340905780Y-212467240D01*
X340946612Y-212435212D02*
X340946612Y-212435212D01*
X340985370Y-212401093D02*
X340946612Y-212435212D01*
X340985370Y-212401093D02*
X340985370Y-212401093D01*
X341022601Y-212366471D02*
X340985370Y-212401093D01*
X341022601Y-212366471D02*
X341022601Y-212366471D01*
X341058764Y-212328232D02*
X341022601Y-212366471D01*
X341058764Y-212328232D02*
X341058764Y-212328232D01*
X341092852Y-212289460D02*
X341058764Y-212328232D01*
X341092852Y-212289460D02*
X341092852Y-212289460D01*
X341124377Y-212248124D02*
X341092852Y-212289460D01*
X341124377Y-212248124D02*
X341124377Y-212248124D01*
X341154864Y-212206269D02*
X341124377Y-212248124D01*
X341154864Y-212206269D02*
X341154864Y-212206269D01*
X341182788Y-212162339D02*
X341154864Y-212206269D01*
X341182788Y-212162339D02*
X341182788Y-212162339D01*
X341208606Y-212117386D02*
X341182788Y-212162339D01*
X341208606Y-212117386D02*
X341208606Y-212117386D01*
X341232379Y-212071396D02*
X341208606Y-212117386D01*
X341232379Y-212071396D02*
X341232379Y-212071396D01*
X341253558Y-212023331D02*
X341232379Y-212071396D01*
X341253558Y-212023331D02*
X341253558Y-212023331D01*
X341273730Y-211974244D02*
X341253558Y-212023331D01*
X341273730Y-211974244D02*
X341273730Y-211974244D01*
X341290789Y-211924119D02*
X341273730Y-211974244D01*
X341290789Y-211924119D02*
X341290789Y-211924119D01*
X341304736Y-211873475D02*
X341290789Y-211924119D01*
X341304736Y-211873475D02*
X341304736Y-211873475D01*
X341316638Y-211821290D02*
X341304736Y-211873475D01*
X341316638Y-211821290D02*
X341316638Y-211821290D01*
X341326464Y-211768067D02*
X341316638Y-211821290D01*
X341326464Y-211768067D02*
X341326464Y-211768067D01*
X341332660Y-211714325D02*
X341326464Y-211768067D01*
X341332660Y-211714325D02*
X341332660Y-211714325D01*
X341337848Y-211659028D02*
X341332660Y-211714325D01*
X341337848Y-211659028D02*
X341337848Y-211659028D01*
X341338885Y-211603226D02*
X341337848Y-211659028D01*
X341338885Y-211603226D02*
X341338885Y-211603226D01*
X341337848Y-211549988D02*
X341338885Y-211603226D01*
X341337848Y-211549988D02*
X341337848Y-211549988D01*
X341333728Y-211497284D02*
X341337848Y-211549988D01*
X341333728Y-211497284D02*
X341333728Y-211497284D01*
X341326495Y-211444077D02*
X341333728Y-211497284D01*
X341326495Y-211444077D02*
X341326495Y-211444077D01*
X341317706Y-211392396D02*
X341326495Y-211444077D01*
X341317706Y-211392396D02*
X341317706Y-211392396D01*
X341306842Y-211341218D02*
X341317706Y-211392396D01*
X341306842Y-211341218D02*
X341306842Y-211341218D01*
X341291858Y-211290055D02*
X341306842Y-211341218D01*
X341291858Y-211290055D02*
X341291858Y-211290055D01*
X341275866Y-211240433D02*
X341291858Y-211290055D01*
X341275866Y-211240433D02*
X341275866Y-211240433D01*
X341256732Y-211191346D02*
X341275866Y-211240433D01*
X341256732Y-211191346D02*
X341256732Y-211191346D01*
X341235553Y-211143281D02*
X341256732Y-211191346D01*
X341235553Y-211143281D02*
X341235553Y-211143281D01*
X341211779Y-211096268D02*
X341235553Y-211143281D01*
X341211779Y-211096268D02*
X341211779Y-211096268D01*
X341185962Y-211050278D02*
X341211779Y-211096268D01*
X341185962Y-211050278D02*
X341185962Y-211050278D01*
X341157519Y-211005311D02*
X341185962Y-211050278D01*
X341157519Y-211005311D02*
X341157519Y-211005311D01*
X341126513Y-210962418D02*
X341157519Y-211005311D01*
X341126513Y-210962418D02*
X341126513Y-210962418D01*
X341094500Y-210920060D02*
X341126513Y-210962418D01*
X341094500Y-210920060D02*
X341094500Y-210920060D01*
X341059863Y-210880265D02*
X341094500Y-210920060D01*
X341059863Y-210880265D02*
X341059863Y-210880265D01*
X341022662Y-210841507D02*
X341059863Y-210880265D01*
X341022662Y-210841507D02*
X341022662Y-210841507D01*
X340983905Y-210804291D02*
X341022662Y-210841507D01*
X340983905Y-210804291D02*
X340983905Y-210804291D01*
X340943621Y-210769150D02*
X340983905Y-210804291D01*
X340943621Y-210769150D02*
X340943621Y-210769150D01*
X340901751Y-210737122D02*
X340943621Y-210769150D01*
X340901751Y-210737122D02*
X340901751Y-210737122D01*
X340858874Y-210706131D02*
X340901751Y-210737122D01*
X340858874Y-210706131D02*
X340858874Y-210706131D01*
X340813922Y-210678223D02*
X340858874Y-210706131D01*
X340813922Y-210678223D02*
X340813922Y-210678223D01*
X340768969Y-210652390D02*
X340813922Y-210678223D01*
X340768969Y-210652390D02*
X340768969Y-210652390D01*
X340721911Y-210628098D02*
X340768969Y-210652390D01*
X340721911Y-210628098D02*
X340721911Y-210628098D01*
X340672839Y-210607422D02*
X340721911Y-210628098D01*
X340672839Y-210607422D02*
X340672839Y-210607422D01*
X340623736Y-210588303D02*
X340672839Y-210607422D01*
X340623736Y-210588303D02*
X340623736Y-210588303D01*
X340573596Y-210572297D02*
X340623736Y-210588303D01*
X340573596Y-210572297D02*
X340573596Y-210572297D01*
X340523486Y-210558335D02*
X340573596Y-210572297D01*
X340523486Y-210558335D02*
X340523486Y-210558335D01*
X340471820Y-210546463D02*
X340523486Y-210558335D01*
X340471820Y-210546463D02*
X340471820Y-210546463D01*
X340419604Y-210537156D02*
X340471820Y-210546463D01*
X340419604Y-210537156D02*
X340419604Y-210537156D01*
X340366900Y-210530457D02*
X340419604Y-210537156D01*
X340366900Y-210530457D02*
X340366900Y-210530457D01*
X340313708Y-210526307D02*
X340366900Y-210530457D01*
X340313708Y-210526307D02*
X340313708Y-210526307D01*
X340261004Y-210525284D02*
X340313708Y-210526307D01*
X263989642Y-229576294D02*
X264043933Y-229574250D01*
X263989642Y-229576294D02*
X263989642Y-229576294D01*
X263936938Y-229580445D02*
X263989642Y-229576294D01*
X263936938Y-229580445D02*
X263936938Y-229580445D01*
X263884723Y-229586121D02*
X263936938Y-229580445D01*
X263884723Y-229586121D02*
X263884723Y-229586121D01*
X263831500Y-229595429D02*
X263884723Y-229586121D01*
X263831500Y-229595429D02*
X263831500Y-229595429D01*
X263780841Y-229607331D02*
X263831500Y-229595429D01*
X263780841Y-229607331D02*
X263780841Y-229607331D01*
X263729693Y-229621277D02*
X263780841Y-229607331D01*
X263729693Y-229621277D02*
X263729693Y-229621277D01*
X263679583Y-229637299D02*
X263729693Y-229621277D01*
X263679583Y-229637299D02*
X263679583Y-229637299D01*
X263630481Y-229656403D02*
X263679583Y-229637299D01*
X263630481Y-229656403D02*
X263630481Y-229656403D01*
X263582934Y-229678101D02*
X263630481Y-229656403D01*
X263582934Y-229678101D02*
X263582934Y-229678101D01*
X263535907Y-229701355D02*
X263582934Y-229678101D01*
X263535907Y-229701355D02*
X263535907Y-229701355D01*
X263489917Y-229727204D02*
X263535907Y-229701355D01*
X263489917Y-229727204D02*
X263489917Y-229727204D01*
X263445483Y-229755097D02*
X263489917Y-229727204D01*
X263445483Y-229755097D02*
X263445483Y-229755097D01*
X263401568Y-229786103D02*
X263445483Y-229755097D01*
X263401568Y-229786103D02*
X263401568Y-229786103D01*
X263359698Y-229818177D02*
X263401568Y-229786103D01*
X263359698Y-229818177D02*
X263359698Y-229818177D01*
X263319903Y-229853302D02*
X263359698Y-229818177D01*
X263319903Y-229853302D02*
X263319903Y-229853302D01*
X263280658Y-229890503D02*
X263319903Y-229853302D01*
X263280658Y-229890503D02*
X263280658Y-229890503D01*
X263244464Y-229929261D02*
X263280658Y-229890503D01*
X263244464Y-229929261D02*
X263244464Y-229929261D01*
X263209857Y-229969056D02*
X263244464Y-229929261D01*
X263209857Y-229969056D02*
X263209857Y-229969056D01*
X263176776Y-230011445D02*
X263209857Y-229969056D01*
X263176776Y-230011445D02*
X263176776Y-230011445D01*
X263146777Y-230054322D02*
X263176776Y-230011445D01*
X263146777Y-230054322D02*
X263146777Y-230054322D01*
X263118884Y-230099274D02*
X263146777Y-230054322D01*
X263118884Y-230099274D02*
X263118884Y-230099274D01*
X263092517Y-230145264D02*
X263118884Y-230099274D01*
X263092517Y-230145264D02*
X263092517Y-230145264D01*
X263068744Y-230192292D02*
X263092517Y-230145264D01*
X263068744Y-230192292D02*
X263068744Y-230192292D01*
X263047564Y-230240357D02*
X263068744Y-230192292D01*
X263047564Y-230240357D02*
X263047564Y-230240357D01*
X263028430Y-230289460D02*
X263047564Y-230240357D01*
X263028430Y-230289460D02*
X263028430Y-230289460D01*
X263011889Y-230339081D02*
X263028430Y-230289460D01*
X263011889Y-230339081D02*
X263011889Y-230339081D01*
X262997943Y-230390259D02*
X263011889Y-230339081D01*
X262997943Y-230390259D02*
X262997943Y-230390259D01*
X262985522Y-230441407D02*
X262997943Y-230390259D01*
X262985522Y-230441407D02*
X262985522Y-230441407D01*
X262976733Y-230493073D02*
X262985522Y-230441407D01*
X262976733Y-230493073D02*
X262976733Y-230493073D01*
X262970538Y-230546296D02*
X262976733Y-230493073D01*
X262970538Y-230546296D02*
X262970538Y-230546296D01*
X262966937Y-230599549D02*
X262970538Y-230546296D01*
X262966937Y-230599549D02*
X262966937Y-230599549D01*
X262965899Y-230653290D02*
X262966937Y-230599549D01*
X262965899Y-230653290D02*
X262965899Y-230653290D01*
X262966937Y-230708069D02*
X262965899Y-230653290D01*
X262966937Y-230708069D02*
X262966937Y-230708069D01*
X262970538Y-230763367D02*
X262966937Y-230708069D01*
X262970538Y-230763367D02*
X262970538Y-230763367D01*
X262977771Y-230817109D02*
X262970538Y-230763367D01*
X262977771Y-230817109D02*
X262977771Y-230817109D01*
X262986560Y-230870331D02*
X262977771Y-230817109D01*
X262986560Y-230870331D02*
X262986560Y-230870331D01*
X262999499Y-230922547D02*
X262986560Y-230870331D01*
X262999499Y-230922547D02*
X262999499Y-230922547D01*
X263013446Y-230973176D02*
X262999499Y-230922547D01*
X263013446Y-230973176D02*
X263013446Y-230973176D01*
X263030505Y-231023316D02*
X263013446Y-230973176D01*
X263030505Y-231023316D02*
X263030505Y-231023316D01*
X263049609Y-231072419D02*
X263030505Y-231023316D01*
X263049609Y-231072419D02*
X263049609Y-231072419D01*
X263071856Y-231120484D02*
X263049609Y-231072419D01*
X263071856Y-231120484D02*
X263071856Y-231120484D01*
X263095630Y-231166474D02*
X263071856Y-231120484D01*
X263095630Y-231166474D02*
X263095630Y-231166474D01*
X263121447Y-231212464D02*
X263095630Y-231166474D01*
X263121447Y-231212464D02*
X263121447Y-231212464D01*
X263149890Y-231255341D02*
X263121447Y-231212464D01*
X263149890Y-231255341D02*
X263149890Y-231255341D01*
X263179858Y-231298249D02*
X263149890Y-231255341D01*
X263179858Y-231298249D02*
X263179858Y-231298249D01*
X263211871Y-231338562D02*
X263179858Y-231298249D01*
X263211871Y-231338562D02*
X263211871Y-231338562D01*
X263245471Y-231378327D02*
X263211871Y-231338562D01*
X263245471Y-231378327D02*
X263245471Y-231378327D01*
X263280597Y-231415558D02*
X263245471Y-231378327D01*
X263280597Y-231415558D02*
X263280597Y-231415558D01*
X263318835Y-231451203D02*
X263280597Y-231415558D01*
X263318835Y-231451203D02*
X263318835Y-231451203D01*
X263357592Y-231485322D02*
X263318835Y-231451203D01*
X263357592Y-231485322D02*
X263357592Y-231485322D01*
X263398425Y-231517334D02*
X263357592Y-231485322D01*
X263398425Y-231517334D02*
X263398425Y-231517334D01*
X263440783Y-231547303D02*
X263398425Y-231517334D01*
X263440783Y-231547303D02*
X263440783Y-231547303D01*
X263484729Y-231575226D02*
X263440783Y-231547303D01*
X263484729Y-231575226D02*
X263484729Y-231575226D01*
X263529681Y-231601563D02*
X263484729Y-231575226D01*
X263529681Y-231601563D02*
X263529681Y-231601563D01*
X263575671Y-231624299D02*
X263529681Y-231601563D01*
X263575671Y-231624299D02*
X263575671Y-231624299D01*
X263623736Y-231646546D02*
X263575671Y-231624299D01*
X263623736Y-231646546D02*
X263623736Y-231646546D01*
X263672808Y-231665131D02*
X263623736Y-231646546D01*
X263672808Y-231665131D02*
X263672808Y-231665131D01*
X263722430Y-231682190D02*
X263672808Y-231665131D01*
X263722430Y-231682190D02*
X263722430Y-231682190D01*
X263773608Y-231697144D02*
X263722430Y-231682190D01*
X263773608Y-231697144D02*
X263773608Y-231697144D01*
X263826831Y-231709565D02*
X263773608Y-231697144D01*
X263826831Y-231709565D02*
X263826831Y-231709565D01*
X263879535Y-231718354D02*
X263826831Y-231709565D01*
X263879535Y-231718354D02*
X263879535Y-231718354D01*
X263933795Y-231725586D02*
X263879535Y-231718354D01*
X263933795Y-231725586D02*
X263933795Y-231725586D01*
X263987536Y-231729187D02*
X263933795Y-231725586D01*
X263987536Y-231729187D02*
X263987536Y-231729187D01*
X264043872Y-231731263D02*
X263987536Y-231729187D01*
X264043872Y-231731263D02*
X264043872Y-231731263D01*
X264098651Y-231729187D02*
X264043872Y-231731263D01*
X264098651Y-231729187D02*
X264098651Y-231729187D01*
X264153430Y-231725586D02*
X264098651Y-231729187D01*
X264153430Y-231725586D02*
X264153430Y-231725586D01*
X264207690Y-231718354D02*
X264153430Y-231725586D01*
X264207690Y-231718354D02*
X264207690Y-231718354D01*
X264260913Y-231709565D02*
X264207690Y-231718354D01*
X264260913Y-231709565D02*
X264260913Y-231709565D01*
X264312610Y-231697144D02*
X264260913Y-231709565D01*
X264312610Y-231697144D02*
X264312610Y-231697144D01*
X264363757Y-231682190D02*
X264312610Y-231697144D01*
X264363757Y-231682190D02*
X264363757Y-231682190D01*
X264414904Y-231665131D02*
X264363757Y-231682190D01*
X264414904Y-231665131D02*
X264414904Y-231665131D01*
X264463488Y-231646546D02*
X264414904Y-231665131D01*
X264463488Y-231646546D02*
X264463488Y-231646546D01*
X264510516Y-231624299D02*
X264463488Y-231646546D01*
X264510516Y-231624299D02*
X264510516Y-231624299D01*
X264557544Y-231601563D02*
X264510516Y-231624299D01*
X264557544Y-231601563D02*
X264557544Y-231601563D01*
X264602496Y-231575226D02*
X264557544Y-231601563D01*
X264602496Y-231575226D02*
X264602496Y-231575226D01*
X264646960Y-231547303D02*
X264602496Y-231575226D01*
X264646960Y-231547303D02*
X264646960Y-231547303D01*
X264688800Y-231517334D02*
X264646960Y-231547303D01*
X264688800Y-231517334D02*
X264688800Y-231517334D01*
X264729632Y-231485291D02*
X264688800Y-231517334D01*
X264729632Y-231485291D02*
X264729632Y-231485291D01*
X264768908Y-231451203D02*
X264729632Y-231485291D01*
X264768908Y-231451203D02*
X264768908Y-231451203D01*
X264805590Y-231415528D02*
X264768908Y-231451203D01*
X264805590Y-231415528D02*
X264805590Y-231415528D01*
X264841754Y-231378327D02*
X264805590Y-231415528D01*
X264841754Y-231378327D02*
X264841754Y-231378327D01*
X264875872Y-231338532D02*
X264841754Y-231378327D01*
X264875872Y-231338532D02*
X264875872Y-231338532D01*
X264907916Y-231298218D02*
X264875872Y-231338532D01*
X264907916Y-231298218D02*
X264907916Y-231298218D01*
X264937884Y-231255341D02*
X264907916Y-231298218D01*
X264937884Y-231255341D02*
X264937884Y-231255341D01*
X264965777Y-231212433D02*
X264937884Y-231255341D01*
X264965777Y-231212433D02*
X264965777Y-231212433D01*
X264991595Y-231166443D02*
X264965777Y-231212433D01*
X264991595Y-231166443D02*
X264991595Y-231166443D01*
X265015887Y-231120453D02*
X264991595Y-231166443D01*
X265015887Y-231120453D02*
X265015887Y-231120453D01*
X265036578Y-231072388D02*
X265015887Y-231120453D01*
X265036578Y-231072388D02*
X265036578Y-231072388D01*
X265056720Y-231023316D02*
X265036578Y-231072388D01*
X265056720Y-231023316D02*
X265056720Y-231023316D01*
X265073779Y-230973176D02*
X265056720Y-231023316D01*
X265073779Y-230973176D02*
X265073779Y-230973176D01*
X265087725Y-230922547D02*
X265073779Y-230973176D01*
X265087725Y-230922547D02*
X265087725Y-230922547D01*
X265099627Y-230870331D02*
X265087725Y-230922547D01*
X265099627Y-230870331D02*
X265099627Y-230870331D01*
X265109454Y-230817109D02*
X265099627Y-230870331D01*
X265109454Y-230817109D02*
X265109454Y-230817109D01*
X265115649Y-230763367D02*
X265109454Y-230817109D01*
X265115649Y-230763367D02*
X265115649Y-230763367D01*
X265120837Y-230708069D02*
X265115649Y-230763367D01*
X265120837Y-230708069D02*
X265120837Y-230708069D01*
X265121875Y-230653290D02*
X265120837Y-230708069D01*
X265121875Y-230653290D02*
X265121875Y-230653290D01*
X265120837Y-230599549D02*
X265121875Y-230653290D01*
X265120837Y-230599549D02*
X265120837Y-230599549D01*
X265116687Y-230546296D02*
X265120837Y-230599549D01*
X265116687Y-230546296D02*
X265116687Y-230546296D01*
X265109454Y-230493073D02*
X265116687Y-230546296D01*
X265109454Y-230493073D02*
X265109454Y-230493073D01*
X265100665Y-230441407D02*
X265109454Y-230493073D01*
X265100665Y-230441407D02*
X265100665Y-230441407D01*
X265089831Y-230390259D02*
X265100665Y-230441407D01*
X265089831Y-230390259D02*
X265089831Y-230390259D01*
X265074847Y-230339081D02*
X265089831Y-230390259D01*
X265074847Y-230339081D02*
X265074847Y-230339081D01*
X265058825Y-230289460D02*
X265074847Y-230339081D01*
X265058825Y-230289460D02*
X265058825Y-230289460D01*
X265039691Y-230240357D02*
X265058825Y-230289460D01*
X265039691Y-230240357D02*
X265039691Y-230240357D01*
X265018512Y-230192292D02*
X265039691Y-230240357D01*
X265018512Y-230192292D02*
X265018512Y-230192292D01*
X264994738Y-230145264D02*
X265018512Y-230192292D01*
X264994738Y-230145264D02*
X264994738Y-230145264D01*
X264968921Y-230099274D02*
X264994738Y-230145264D01*
X264968921Y-230099274D02*
X264968921Y-230099274D01*
X264940478Y-230054322D02*
X264968921Y-230099274D01*
X264940478Y-230054322D02*
X264940478Y-230054322D01*
X264909472Y-230011445D02*
X264940478Y-230054322D01*
X264909472Y-230011445D02*
X264909472Y-230011445D01*
X264877948Y-229969056D02*
X264909472Y-230011445D01*
X264877948Y-229969056D02*
X264877948Y-229969056D01*
X264842822Y-229929261D02*
X264877948Y-229969056D01*
X264842822Y-229929261D02*
X264842822Y-229929261D01*
X264805621Y-229890473D02*
X264842822Y-229929261D01*
X264805621Y-229890473D02*
X264805621Y-229890473D01*
X264766864Y-229853272D02*
X264805621Y-229890473D01*
X264766864Y-229853272D02*
X264766864Y-229853272D01*
X264726550Y-229818146D02*
X264766864Y-229853272D01*
X264726550Y-229818146D02*
X264726550Y-229818146D01*
X264684680Y-229786103D02*
X264726550Y-229818146D01*
X264684680Y-229786103D02*
X264684680Y-229786103D01*
X264641803Y-229755097D02*
X264684680Y-229786103D01*
X264641803Y-229755097D02*
X264641803Y-229755097D01*
X264596850Y-229727204D02*
X264641803Y-229755097D01*
X264596850Y-229727204D02*
X264596850Y-229727204D01*
X264551898Y-229701355D02*
X264596850Y-229727204D01*
X264551898Y-229701355D02*
X264551898Y-229701355D01*
X264504870Y-229678101D02*
X264551898Y-229701355D01*
X264504870Y-229678101D02*
X264504870Y-229678101D01*
X264455767Y-229656403D02*
X264504870Y-229678101D01*
X264455767Y-229656403D02*
X264455767Y-229656403D01*
X264406695Y-229637299D02*
X264455767Y-229656403D01*
X264406695Y-229637299D02*
X264406695Y-229637299D01*
X264356555Y-229621277D02*
X264406695Y-229637299D01*
X264356555Y-229621277D02*
X264356555Y-229621277D01*
X264306964Y-229607331D02*
X264356555Y-229621277D01*
X264306964Y-229607331D02*
X264306964Y-229607331D01*
X264254748Y-229595429D02*
X264306964Y-229607331D01*
X264254748Y-229595429D02*
X264254748Y-229595429D01*
X264202563Y-229586121D02*
X264254748Y-229595429D01*
X264202563Y-229586121D02*
X264202563Y-229586121D01*
X264149859Y-229580445D02*
X264202563Y-229586121D01*
X264149859Y-229580445D02*
X264149859Y-229580445D01*
X264096637Y-229576294D02*
X264149859Y-229580445D01*
X264096637Y-229576294D02*
X264096637Y-229576294D01*
X264043933Y-229574250D02*
X264096637Y-229576294D01*
X421163501Y-229587128D02*
X421218798Y-229586121D01*
X421163501Y-229587128D02*
X421163501Y-229587128D01*
X421108722Y-229591279D02*
X421163501Y-229587128D01*
X421108722Y-229591279D02*
X421108722Y-229591279D01*
X421054461Y-229598511D02*
X421108722Y-229591279D01*
X421054461Y-229598511D02*
X421054461Y-229598511D01*
X421001757Y-229608338D02*
X421054461Y-229598511D01*
X421001757Y-229608338D02*
X421001757Y-229608338D01*
X420949542Y-229620240D02*
X421001757Y-229608338D01*
X420949542Y-229620240D02*
X420949542Y-229620240D01*
X420898913Y-229634186D02*
X420949542Y-229620240D01*
X420898913Y-229634186D02*
X420898913Y-229634186D01*
X420848742Y-229651246D02*
X420898913Y-229634186D01*
X420848742Y-229651246D02*
X420848742Y-229651246D01*
X420799670Y-229671387D02*
X420848742Y-229651246D01*
X420799670Y-229671387D02*
X420799670Y-229671387D01*
X420751605Y-229692078D02*
X420799670Y-229671387D01*
X420751605Y-229692078D02*
X420751605Y-229692078D01*
X420705615Y-229716370D02*
X420751605Y-229692078D01*
X420705615Y-229716370D02*
X420705615Y-229716370D01*
X420659625Y-229742188D02*
X420705615Y-229716370D01*
X420659625Y-229742188D02*
X420659625Y-229742188D01*
X420616748Y-229770112D02*
X420659625Y-229742188D01*
X420616748Y-229770112D02*
X420616748Y-229770112D01*
X420573871Y-229800080D02*
X420616748Y-229770112D01*
X420573871Y-229800080D02*
X420573871Y-229800080D01*
X420533557Y-229832093D02*
X420573871Y-229800080D01*
X420533557Y-229832093D02*
X420533557Y-229832093D01*
X420493792Y-229866211D02*
X420533557Y-229832093D01*
X420493792Y-229866211D02*
X420493792Y-229866211D01*
X420456561Y-229902375D02*
X420493792Y-229866211D01*
X420456561Y-229902375D02*
X420456561Y-229902375D01*
X420420916Y-229939087D02*
X420456561Y-229902375D01*
X420420916Y-229939087D02*
X420420916Y-229939087D01*
X420386798Y-229978333D02*
X420420916Y-229939087D01*
X420386798Y-229978333D02*
X420386798Y-229978333D01*
X420354785Y-230019166D02*
X420386798Y-229978333D01*
X420354785Y-230019166D02*
X420354785Y-230019166D01*
X420324786Y-230061036D02*
X420354785Y-230019166D01*
X420324786Y-230061036D02*
X420324786Y-230061036D01*
X420296893Y-230105469D02*
X420324786Y-230061036D01*
X420296893Y-230105469D02*
X420296893Y-230105469D01*
X420270556Y-230150422D02*
X420296893Y-230105469D01*
X420270556Y-230150422D02*
X420270556Y-230150422D01*
X420247790Y-230197449D02*
X420270556Y-230150422D01*
X420247790Y-230197449D02*
X420247790Y-230197449D01*
X420225573Y-230244477D02*
X420247790Y-230197449D01*
X420225573Y-230244477D02*
X420225573Y-230244477D01*
X420206469Y-230293030D02*
X420225573Y-230244477D01*
X420206469Y-230293030D02*
X420206469Y-230293030D01*
X420189929Y-230343171D02*
X420206469Y-230293030D01*
X420189929Y-230343171D02*
X420189929Y-230343171D01*
X420174975Y-230395356D02*
X420189929Y-230343171D01*
X420174975Y-230395356D02*
X420174975Y-230395356D01*
X420162555Y-230447052D02*
X420174975Y-230395356D01*
X420162555Y-230447052D02*
X420162555Y-230447052D01*
X420153766Y-230500275D02*
X420162555Y-230447052D01*
X420153766Y-230500275D02*
X420153766Y-230500275D01*
X420146563Y-230554017D02*
X420153766Y-230500275D01*
X420146563Y-230554017D02*
X420146563Y-230554017D01*
X420142932Y-230609314D02*
X420146563Y-230554017D01*
X420142932Y-230609314D02*
X420142932Y-230609314D01*
X420140887Y-230664094D02*
X420142932Y-230609314D01*
X420140887Y-230664094D02*
X420140887Y-230664094D01*
X420142932Y-230720429D02*
X420140887Y-230664094D01*
X420142932Y-230720429D02*
X420142932Y-230720429D01*
X420146563Y-230774170D02*
X420142932Y-230720429D01*
X420146563Y-230774170D02*
X420146563Y-230774170D01*
X420153766Y-230828431D02*
X420146563Y-230774170D01*
X420153766Y-230828431D02*
X420153766Y-230828431D01*
X420162555Y-230881135D02*
X420153766Y-230828431D01*
X420162555Y-230881135D02*
X420162555Y-230881135D01*
X420174945Y-230934388D02*
X420162555Y-230881135D01*
X420174945Y-230934388D02*
X420174945Y-230934388D01*
X420189898Y-230985535D02*
X420174945Y-230934388D01*
X420189898Y-230985535D02*
X420189898Y-230985535D01*
X420206439Y-231035157D02*
X420189898Y-230985535D01*
X420206439Y-231035157D02*
X420206439Y-231035157D01*
X420225543Y-231084260D02*
X420206439Y-231035157D01*
X420225543Y-231084260D02*
X420225543Y-231084260D01*
X420247760Y-231131257D02*
X420225543Y-231084260D01*
X420247760Y-231131257D02*
X420247760Y-231131257D01*
X420270526Y-231178284D02*
X420247760Y-231131257D01*
X420270526Y-231178284D02*
X420270526Y-231178284D01*
X420296862Y-231223267D02*
X420270526Y-231178284D01*
X420296862Y-231223267D02*
X420296862Y-231223267D01*
X420324756Y-231267182D02*
X420296862Y-231223267D01*
X420324756Y-231267182D02*
X420324756Y-231267182D01*
X420354754Y-231309021D02*
X420324756Y-231267182D01*
X420354754Y-231309021D02*
X420354754Y-231309021D01*
X420386767Y-231350373D02*
X420354754Y-231309021D01*
X420386767Y-231350373D02*
X420386767Y-231350373D01*
X420420886Y-231389130D02*
X420386767Y-231350373D01*
X420420886Y-231389130D02*
X420420886Y-231389130D01*
X420456530Y-231426331D02*
X420420886Y-231389130D01*
X420456530Y-231426331D02*
X420456530Y-231426331D01*
X420493762Y-231462525D02*
X420456530Y-231426331D01*
X420493762Y-231462525D02*
X420493762Y-231462525D01*
X420533526Y-231496094D02*
X420493762Y-231462525D01*
X420533526Y-231496094D02*
X420533526Y-231496094D01*
X420573840Y-231528138D02*
X420533526Y-231496094D01*
X420573840Y-231528138D02*
X420573840Y-231528138D01*
X420616717Y-231558106D02*
X420573840Y-231528138D01*
X420616717Y-231558106D02*
X420616717Y-231558106D01*
X420659594Y-231586518D02*
X420616717Y-231558106D01*
X420659594Y-231586518D02*
X420659594Y-231586518D01*
X420705584Y-231612366D02*
X420659594Y-231586518D01*
X420705584Y-231612366D02*
X420705584Y-231612366D01*
X420751574Y-231636139D02*
X420705584Y-231612366D01*
X420751574Y-231636139D02*
X420751574Y-231636139D01*
X420799640Y-231658356D02*
X420751574Y-231636139D01*
X420799640Y-231658356D02*
X420799640Y-231658356D01*
X420848712Y-231677491D02*
X420799640Y-231658356D01*
X420848712Y-231677491D02*
X420848712Y-231677491D01*
X420898883Y-231694520D02*
X420848712Y-231677491D01*
X420898883Y-231694520D02*
X420898883Y-231694520D01*
X420949511Y-231708497D02*
X420898883Y-231694520D01*
X420949511Y-231708497D02*
X420949511Y-231708497D01*
X421001727Y-231720368D02*
X420949511Y-231708497D01*
X421001727Y-231720368D02*
X421001727Y-231720368D01*
X421054431Y-231730195D02*
X421001727Y-231720368D01*
X421054431Y-231730195D02*
X421054431Y-231730195D01*
X421108691Y-231737427D02*
X421054431Y-231730195D01*
X421108691Y-231737427D02*
X421108691Y-231737427D01*
X421163470Y-231741059D02*
X421108691Y-231737427D01*
X421163470Y-231741059D02*
X421163470Y-231741059D01*
X421218768Y-231742066D02*
X421163470Y-231741059D01*
X421218768Y-231742066D02*
X421218768Y-231742066D01*
X421274585Y-231741059D02*
X421218768Y-231742066D01*
X421274585Y-231741059D02*
X421274585Y-231741059D01*
X421329882Y-231737427D02*
X421274585Y-231741059D01*
X421329882Y-231737427D02*
X421329882Y-231737427D01*
X421383624Y-231730195D02*
X421329882Y-231737427D01*
X421383624Y-231730195D02*
X421383624Y-231730195D01*
X421436847Y-231720368D02*
X421383624Y-231730195D01*
X421436847Y-231720368D02*
X421436847Y-231720368D01*
X421488543Y-231708497D02*
X421436847Y-231720368D01*
X421488543Y-231708497D02*
X421488543Y-231708497D01*
X421539691Y-231694520D02*
X421488543Y-231708497D01*
X421539691Y-231694520D02*
X421539691Y-231694520D01*
X421589801Y-231677491D02*
X421539691Y-231694520D01*
X421589801Y-231677491D02*
X421589801Y-231677491D01*
X421638903Y-231658356D02*
X421589801Y-231677491D01*
X421638903Y-231658356D02*
X421638903Y-231658356D01*
X421686450Y-231636139D02*
X421638903Y-231658356D01*
X421686450Y-231636139D02*
X421686450Y-231636139D01*
X421732440Y-231612366D02*
X421686450Y-231636139D01*
X421732440Y-231612366D02*
X421732440Y-231612366D01*
X421778430Y-231586518D02*
X421732440Y-231612366D01*
X421778430Y-231586518D02*
X421778430Y-231586518D01*
X421821856Y-231558106D02*
X421778430Y-231586518D01*
X421821856Y-231558106D02*
X421821856Y-231558106D01*
X421864734Y-231528138D02*
X421821856Y-231558106D01*
X421864734Y-231528138D02*
X421864734Y-231528138D01*
X421904498Y-231496094D02*
X421864734Y-231528138D01*
X421904498Y-231496094D02*
X421904498Y-231496094D01*
X421943774Y-231462525D02*
X421904498Y-231496094D01*
X421943774Y-231462525D02*
X421943774Y-231462525D01*
X421981494Y-231426331D02*
X421943774Y-231462525D01*
X421981494Y-231426331D02*
X421981494Y-231426331D01*
X422017688Y-231389130D02*
X421981494Y-231426331D01*
X422017688Y-231389130D02*
X422017688Y-231389130D01*
X422050738Y-231350373D02*
X422017688Y-231389130D01*
X422050738Y-231350373D02*
X422050738Y-231350373D01*
X422082782Y-231309021D02*
X422050738Y-231350373D01*
X422082782Y-231309021D02*
X422082782Y-231309021D01*
X422113787Y-231267182D02*
X422082782Y-231309021D01*
X422113787Y-231267182D02*
X422113787Y-231267182D01*
X422141681Y-231223267D02*
X422113787Y-231267182D01*
X422141681Y-231223267D02*
X422141681Y-231223267D01*
X422167498Y-231178284D02*
X422141681Y-231223267D01*
X422167498Y-231178284D02*
X422167498Y-231178284D01*
X422190783Y-231131257D02*
X422167498Y-231178284D01*
X422190783Y-231131257D02*
X422190783Y-231131257D01*
X422212481Y-231084260D02*
X422190783Y-231131257D01*
X422212481Y-231084260D02*
X422212481Y-231084260D01*
X422231616Y-231035157D02*
X422212481Y-231084260D01*
X422231616Y-231035157D02*
X422231616Y-231035157D01*
X422248675Y-230985535D02*
X422231616Y-231035157D01*
X422248675Y-230985535D02*
X422248675Y-230985535D01*
X422263629Y-230934388D02*
X422248675Y-230985535D01*
X422263629Y-230934388D02*
X422263629Y-230934388D01*
X422275500Y-230881165D02*
X422263629Y-230934388D01*
X422275500Y-230881165D02*
X422275500Y-230881165D01*
X422284808Y-230828461D02*
X422275500Y-230881165D01*
X422284808Y-230828461D02*
X422284808Y-230828461D01*
X422291552Y-230774201D02*
X422284808Y-230828461D01*
X422291552Y-230774201D02*
X422291552Y-230774201D01*
X422295672Y-230720459D02*
X422291552Y-230774201D01*
X422295672Y-230720459D02*
X422295672Y-230720459D01*
X422297747Y-230664124D02*
X422295672Y-230720459D01*
X422297747Y-230664124D02*
X422297747Y-230664124D01*
X422295672Y-230609345D02*
X422297747Y-230664124D01*
X422295672Y-230609345D02*
X422295672Y-230609345D01*
X422291552Y-230554047D02*
X422295672Y-230609345D01*
X422291552Y-230554047D02*
X422291552Y-230554047D01*
X422284808Y-230500306D02*
X422291552Y-230554047D01*
X422284808Y-230500306D02*
X422284808Y-230500306D01*
X422275500Y-230447052D02*
X422284808Y-230500306D01*
X422275500Y-230447052D02*
X422275500Y-230447052D01*
X422263629Y-230395386D02*
X422275500Y-230447052D01*
X422263629Y-230395386D02*
X422263629Y-230395386D01*
X422248675Y-230343201D02*
X422263629Y-230395386D01*
X422248675Y-230343201D02*
X422248675Y-230343201D01*
X422231616Y-230293061D02*
X422248675Y-230343201D01*
X422231616Y-230293061D02*
X422231616Y-230293061D01*
X422212512Y-230244477D02*
X422231616Y-230293061D01*
X422212512Y-230244477D02*
X422212512Y-230244477D01*
X422190814Y-230197449D02*
X422212512Y-230244477D01*
X422190814Y-230197449D02*
X422190814Y-230197449D01*
X422167529Y-230150452D02*
X422190814Y-230197449D01*
X422167529Y-230150452D02*
X422167529Y-230150452D01*
X422141711Y-230105469D02*
X422167529Y-230150452D01*
X422141711Y-230105469D02*
X422141711Y-230105469D01*
X422113818Y-230061036D02*
X422141711Y-230105469D01*
X422113818Y-230061036D02*
X422113818Y-230061036D01*
X422082812Y-230019166D02*
X422113818Y-230061036D01*
X422082812Y-230019166D02*
X422082812Y-230019166D01*
X422050769Y-229978333D02*
X422082812Y-230019166D01*
X422050769Y-229978333D02*
X422050769Y-229978333D01*
X422017718Y-229939087D02*
X422050769Y-229978333D01*
X422017718Y-229939087D02*
X422017718Y-229939087D01*
X421981524Y-229902375D02*
X422017718Y-229939087D01*
X421981524Y-229902375D02*
X421981524Y-229902375D01*
X421943805Y-229866211D02*
X421981524Y-229902375D01*
X421943805Y-229866211D02*
X421943805Y-229866211D01*
X421904528Y-229832093D02*
X421943805Y-229866211D01*
X421904528Y-229832093D02*
X421904528Y-229832093D01*
X421864764Y-229800080D02*
X421904528Y-229832093D01*
X421864764Y-229800080D02*
X421864764Y-229800080D01*
X421821887Y-229770112D02*
X421864764Y-229800080D01*
X421821887Y-229770112D02*
X421821887Y-229770112D01*
X421778460Y-229742188D02*
X421821887Y-229770112D01*
X421778460Y-229742188D02*
X421778460Y-229742188D01*
X421732470Y-229716370D02*
X421778460Y-229742188D01*
X421732470Y-229716370D02*
X421732470Y-229716370D01*
X421686480Y-229692078D02*
X421732470Y-229716370D01*
X421686480Y-229692078D02*
X421686480Y-229692078D01*
X421638934Y-229671418D02*
X421686480Y-229692078D01*
X421638934Y-229671418D02*
X421638934Y-229671418D01*
X421589831Y-229651246D02*
X421638934Y-229671418D01*
X421589831Y-229651246D02*
X421589831Y-229651246D01*
X421539721Y-229634186D02*
X421589831Y-229651246D01*
X421539721Y-229634186D02*
X421539721Y-229634186D01*
X421488574Y-229620240D02*
X421539721Y-229634186D01*
X421488574Y-229620240D02*
X421488574Y-229620240D01*
X421436877Y-229608368D02*
X421488574Y-229620240D01*
X421436877Y-229608368D02*
X421436877Y-229608368D01*
X421383654Y-229598542D02*
X421436877Y-229608368D01*
X421383654Y-229598542D02*
X421383654Y-229598542D01*
X421329913Y-229591309D02*
X421383654Y-229598542D01*
X421329913Y-229591309D02*
X421329913Y-229591309D01*
X421274615Y-229587159D02*
X421329913Y-229591309D01*
X421274615Y-229587159D02*
X421274615Y-229587159D01*
X421218798Y-229586121D02*
X421274615Y-229587159D01*
X133895816Y-229809357D02*
X133951602Y-229807312D01*
X133895816Y-229809357D02*
X133895816Y-229809357D01*
X133840533Y-229813508D02*
X133895816Y-229809357D01*
X133840533Y-229813508D02*
X133840533Y-229813508D01*
X133786776Y-229820191D02*
X133840533Y-229813508D01*
X133786776Y-229820191D02*
X133786776Y-229820191D01*
X133733554Y-229829499D02*
X133786776Y-229820191D01*
X133733554Y-229829499D02*
X133733554Y-229829499D01*
X133681872Y-229841401D02*
X133733554Y-229829499D01*
X133681872Y-229841401D02*
X133681872Y-229841401D01*
X133630709Y-229856385D02*
X133681872Y-229841401D01*
X133630709Y-229856385D02*
X133630709Y-229856385D01*
X133580584Y-229873444D02*
X133630709Y-229856385D01*
X133580584Y-229873444D02*
X133580584Y-229873444D01*
X133531497Y-229892029D02*
X133580584Y-229873444D01*
X133531497Y-229892029D02*
X133531497Y-229892029D01*
X133483950Y-229914246D02*
X133531497Y-229892029D01*
X133483950Y-229914246D02*
X133483950Y-229914246D01*
X133437960Y-229937500D02*
X133483950Y-229914246D01*
X133437960Y-229937500D02*
X133437960Y-229937500D01*
X133391970Y-229963349D02*
X133437960Y-229937500D01*
X133391970Y-229963349D02*
X133391970Y-229963349D01*
X133348559Y-229991242D02*
X133391970Y-229963349D01*
X133348559Y-229991242D02*
X133348559Y-229991242D01*
X133305682Y-230021241D02*
X133348559Y-229991242D01*
X133305682Y-230021241D02*
X133305682Y-230021241D01*
X133265887Y-230054322D02*
X133305682Y-230021241D01*
X133265887Y-230054322D02*
X133265887Y-230054322D01*
X133226611Y-230087372D02*
X133265887Y-230054322D01*
X133226611Y-230087372D02*
X133226611Y-230087372D01*
X133188891Y-230123047D02*
X133226611Y-230087372D01*
X133188891Y-230123047D02*
X133188891Y-230123047D01*
X133152697Y-230161286D02*
X133188891Y-230123047D01*
X133152697Y-230161286D02*
X133152697Y-230161286D01*
X133119632Y-230200043D02*
X133152697Y-230161286D01*
X133119632Y-230200043D02*
X133119632Y-230200043D01*
X133087588Y-230240357D02*
X133119632Y-230200043D01*
X133087588Y-230240357D02*
X133087588Y-230240357D01*
X133056582Y-230283265D02*
X133087588Y-230240357D01*
X133056582Y-230283265D02*
X133056582Y-230283265D01*
X133028674Y-230326142D02*
X133056582Y-230283265D01*
X133028674Y-230326142D02*
X133028674Y-230326142D01*
X133002841Y-230372132D02*
X133028674Y-230326142D01*
X133002841Y-230372132D02*
X133002841Y-230372132D01*
X132979586Y-230418122D02*
X133002841Y-230372132D01*
X132979586Y-230418122D02*
X132979586Y-230418122D01*
X132957873Y-230466187D02*
X132979586Y-230418122D01*
X132957873Y-230466187D02*
X132957873Y-230466187D01*
X132938754Y-230515259D02*
X132957873Y-230466187D01*
X132938754Y-230515259D02*
X132938754Y-230515259D01*
X132921710Y-230565400D02*
X132938754Y-230515259D01*
X132921710Y-230565400D02*
X132921710Y-230565400D01*
X132906710Y-230616028D02*
X132921710Y-230565400D01*
X132906710Y-230616028D02*
X132906710Y-230616028D01*
X132894839Y-230668244D02*
X132906710Y-230616028D01*
X132894839Y-230668244D02*
X132894839Y-230668244D01*
X132885547Y-230721467D02*
X132894839Y-230668244D01*
X132885547Y-230721467D02*
X132885547Y-230721467D01*
X132878817Y-230775208D02*
X132885547Y-230721467D01*
X132878817Y-230775208D02*
X132878817Y-230775208D01*
X132874682Y-230830506D02*
X132878817Y-230775208D01*
X132874682Y-230830506D02*
X132874682Y-230830506D01*
X132872607Y-230886323D02*
X132874682Y-230830506D01*
X132872607Y-230886323D02*
X132872607Y-230886323D01*
X132874682Y-230941102D02*
X132872607Y-230886323D01*
X132874682Y-230941102D02*
X132874682Y-230941102D01*
X132878817Y-230996399D02*
X132874682Y-230941102D01*
X132878817Y-230996399D02*
X132878817Y-230996399D01*
X132885547Y-231050141D02*
X132878817Y-230996399D01*
X132885547Y-231050141D02*
X132885547Y-231050141D01*
X132894839Y-231103364D02*
X132885547Y-231050141D01*
X132894839Y-231103364D02*
X132894839Y-231103364D01*
X132906726Y-231155060D02*
X132894839Y-231103364D01*
X132906726Y-231155060D02*
X132906726Y-231155060D01*
X132921725Y-231206208D02*
X132906726Y-231155060D01*
X132921725Y-231206208D02*
X132921725Y-231206208D01*
X132938769Y-231256348D02*
X132921725Y-231206208D01*
X132938769Y-231256348D02*
X132938769Y-231256348D01*
X132957888Y-231305451D02*
X132938769Y-231256348D01*
X132957888Y-231305451D02*
X132957888Y-231305451D01*
X132979602Y-231353486D02*
X132957888Y-231305451D01*
X132979602Y-231353486D02*
X132979602Y-231353486D01*
X133002841Y-231399506D02*
X132979602Y-231353486D01*
X133002841Y-231399506D02*
X133002841Y-231399506D01*
X133028689Y-231445466D02*
X133002841Y-231399506D01*
X133028689Y-231445466D02*
X133028689Y-231445466D01*
X133056598Y-231488373D02*
X133028689Y-231445466D01*
X133056598Y-231488373D02*
X133056598Y-231488373D01*
X133087603Y-231531281D02*
X133056598Y-231488373D01*
X133087603Y-231531281D02*
X133087603Y-231531281D01*
X133119632Y-231571076D02*
X133087603Y-231531281D01*
X133119632Y-231571076D02*
X133119632Y-231571076D01*
X133152713Y-231610352D02*
X133119632Y-231571076D01*
X133152713Y-231610352D02*
X133152713Y-231610352D01*
X133188891Y-231648591D02*
X133152713Y-231610352D01*
X133188891Y-231648591D02*
X133188891Y-231648591D01*
X133226611Y-231684235D02*
X133188891Y-231648591D01*
X133226611Y-231684235D02*
X133226611Y-231684235D01*
X133265887Y-231718354D02*
X133226611Y-231684235D01*
X133265887Y-231718354D02*
X133265887Y-231718354D01*
X133305682Y-231750367D02*
X133265887Y-231718354D01*
X133305682Y-231750367D02*
X133305682Y-231750367D01*
X133348559Y-231780335D02*
X133305682Y-231750367D01*
X133348559Y-231780335D02*
X133348559Y-231780335D01*
X133391970Y-231808259D02*
X133348559Y-231780335D01*
X133391970Y-231808259D02*
X133391970Y-231808259D01*
X133437960Y-231834076D02*
X133391970Y-231808259D01*
X133437960Y-231834076D02*
X133437960Y-231834076D01*
X133483950Y-231857331D02*
X133437960Y-231834076D01*
X133483950Y-231857331D02*
X133483950Y-231857331D01*
X133531497Y-231879548D02*
X133483950Y-231857331D01*
X133531497Y-231879548D02*
X133531497Y-231879548D01*
X133580584Y-231898163D02*
X133531497Y-231879548D01*
X133580584Y-231898163D02*
X133580584Y-231898163D01*
X133630725Y-231915192D02*
X133580584Y-231898163D01*
X133630725Y-231915192D02*
X133630725Y-231915192D01*
X133681872Y-231930176D02*
X133630725Y-231915192D01*
X133681872Y-231930176D02*
X133681872Y-231930176D01*
X133733554Y-231942078D02*
X133681872Y-231930176D01*
X133733554Y-231942078D02*
X133733554Y-231942078D01*
X133786776Y-231951355D02*
X133733554Y-231942078D01*
X133786776Y-231951355D02*
X133786776Y-231951355D01*
X133840533Y-231958100D02*
X133786776Y-231951355D01*
X133840533Y-231958100D02*
X133840533Y-231958100D01*
X133895816Y-231962220D02*
X133840533Y-231958100D01*
X133895816Y-231962220D02*
X133895816Y-231962220D01*
X133951617Y-231964264D02*
X133895816Y-231962220D01*
X133951617Y-231964264D02*
X133951617Y-231964264D01*
X134006915Y-231962220D02*
X133951617Y-231964264D01*
X134006915Y-231962220D02*
X134006915Y-231962220D01*
X134061679Y-231958100D02*
X134006915Y-231962220D01*
X134061679Y-231958100D02*
X134061679Y-231958100D01*
X134115939Y-231951355D02*
X134061679Y-231958100D01*
X134115939Y-231951355D02*
X134115939Y-231951355D01*
X134168658Y-231942078D02*
X134115939Y-231951355D01*
X134168658Y-231942078D02*
X134168658Y-231942078D01*
X134220858Y-231930176D02*
X134168658Y-231942078D01*
X134220858Y-231930176D02*
X134220858Y-231930176D01*
X134271487Y-231915192D02*
X134220858Y-231930176D01*
X134271487Y-231915192D02*
X134271487Y-231915192D01*
X134321627Y-231898163D02*
X134271487Y-231915192D01*
X134321627Y-231898163D02*
X134321627Y-231898163D01*
X134370715Y-231879548D02*
X134321627Y-231898163D01*
X134370715Y-231879548D02*
X134370715Y-231879548D01*
X134418780Y-231857331D02*
X134370715Y-231879548D01*
X134418780Y-231857331D02*
X134418780Y-231857331D01*
X134465793Y-231834076D02*
X134418780Y-231857331D01*
X134465793Y-231834076D02*
X134465793Y-231834076D01*
X134510760Y-231808259D02*
X134465793Y-231834076D01*
X134510760Y-231808259D02*
X134510760Y-231808259D01*
X134553653Y-231780335D02*
X134510760Y-231808259D01*
X134553653Y-231780335D02*
X134553653Y-231780335D01*
X134596530Y-231750367D02*
X134553653Y-231780335D01*
X134596530Y-231750367D02*
X134596530Y-231750367D01*
X134636844Y-231718323D02*
X134596530Y-231750367D01*
X134636844Y-231718323D02*
X134636844Y-231718323D01*
X134676638Y-231684205D02*
X134636844Y-231718323D01*
X134676638Y-231684205D02*
X134676638Y-231684205D01*
X134713839Y-231648560D02*
X134676638Y-231684205D01*
X134713839Y-231648560D02*
X134713839Y-231648560D01*
X134749514Y-231610322D02*
X134713839Y-231648560D01*
X134749514Y-231610322D02*
X134749514Y-231610322D01*
X134783603Y-231571045D02*
X134749514Y-231610322D01*
X134783603Y-231571045D02*
X134783603Y-231571045D01*
X134815646Y-231531250D02*
X134783603Y-231571045D01*
X134815646Y-231531250D02*
X134815646Y-231531250D01*
X134845614Y-231488343D02*
X134815646Y-231531250D01*
X134845614Y-231488343D02*
X134845614Y-231488343D01*
X134873523Y-231445466D02*
X134845614Y-231488343D01*
X134873523Y-231445466D02*
X134873523Y-231445466D01*
X134899875Y-231399476D02*
X134873523Y-231445466D01*
X134899875Y-231399476D02*
X134899875Y-231399476D01*
X134922610Y-231353486D02*
X134899875Y-231399476D01*
X134922610Y-231353486D02*
X134922610Y-231353486D01*
X134944842Y-231305420D02*
X134922610Y-231353486D01*
X134944842Y-231305420D02*
X134944842Y-231305420D01*
X134963961Y-231256318D02*
X134944842Y-231305420D01*
X134963961Y-231256318D02*
X134963961Y-231256318D01*
X134980502Y-231206208D02*
X134963961Y-231256318D01*
X134980502Y-231206208D02*
X134980502Y-231206208D01*
X134996005Y-231155060D02*
X134980502Y-231206208D01*
X134996005Y-231155060D02*
X134996005Y-231155060D01*
X135007892Y-231103394D02*
X134996005Y-231155060D01*
X135007892Y-231103394D02*
X135007892Y-231103394D01*
X135016665Y-231050141D02*
X135007892Y-231103394D01*
X135016665Y-231050141D02*
X135016665Y-231050141D01*
X135023913Y-230996399D02*
X135016665Y-231050141D01*
X135023913Y-230996399D02*
X135023913Y-230996399D01*
X135027530Y-230941102D02*
X135023913Y-230996399D01*
X135027530Y-230941102D02*
X135027530Y-230941102D01*
X135029589Y-230886323D02*
X135027530Y-230941102D01*
X135029589Y-230886323D02*
X135029589Y-230886323D01*
X135027530Y-230830506D02*
X135029589Y-230886323D01*
X135027530Y-230830506D02*
X135027530Y-230830506D01*
X135023898Y-230775208D02*
X135027530Y-230830506D01*
X135023898Y-230775208D02*
X135023898Y-230775208D01*
X135016665Y-230721467D02*
X135023898Y-230775208D01*
X135016665Y-230721467D02*
X135016665Y-230721467D01*
X135007876Y-230668244D02*
X135016665Y-230721467D01*
X135007876Y-230668244D02*
X135007876Y-230668244D01*
X134995990Y-230616059D02*
X135007876Y-230668244D01*
X134995990Y-230616059D02*
X134995990Y-230616059D01*
X134980487Y-230565400D02*
X134995990Y-230616059D01*
X134980487Y-230565400D02*
X134980487Y-230565400D01*
X134963946Y-230515290D02*
X134980487Y-230565400D01*
X134963946Y-230515290D02*
X134963946Y-230515290D01*
X134944827Y-230466187D02*
X134963946Y-230515290D01*
X134944827Y-230466187D02*
X134944827Y-230466187D01*
X134922595Y-230418122D02*
X134944827Y-230466187D01*
X134922595Y-230418122D02*
X134922595Y-230418122D01*
X134899859Y-230372162D02*
X134922595Y-230418122D01*
X134899859Y-230372162D02*
X134899859Y-230372162D01*
X134873507Y-230326172D02*
X134899859Y-230372162D01*
X134873507Y-230326172D02*
X134873507Y-230326172D01*
X134845599Y-230283265D02*
X134873507Y-230326172D01*
X134845599Y-230283265D02*
X134845599Y-230283265D01*
X134815631Y-230240387D02*
X134845599Y-230283265D01*
X134815631Y-230240387D02*
X134815631Y-230240387D01*
X134783587Y-230200074D02*
X134815631Y-230240387D01*
X134783587Y-230200074D02*
X134783587Y-230200074D01*
X134749499Y-230161316D02*
X134783587Y-230200074D01*
X134749499Y-230161316D02*
X134749499Y-230161316D01*
X134713824Y-230123078D02*
X134749499Y-230161316D01*
X134713824Y-230123078D02*
X134713824Y-230123078D01*
X134676623Y-230087403D02*
X134713824Y-230123078D01*
X134676623Y-230087403D02*
X134676623Y-230087403D01*
X134636828Y-230054352D02*
X134676623Y-230087403D01*
X134636828Y-230054352D02*
X134636828Y-230054352D01*
X134596515Y-230021271D02*
X134636828Y-230054352D01*
X134596515Y-230021271D02*
X134596515Y-230021271D01*
X134553622Y-229991272D02*
X134596515Y-230021271D01*
X134553622Y-229991272D02*
X134553622Y-229991272D01*
X134510745Y-229963379D02*
X134553622Y-229991272D01*
X134510745Y-229963379D02*
X134510745Y-229963379D01*
X134465777Y-229937531D02*
X134510745Y-229963379D01*
X134465777Y-229937531D02*
X134465777Y-229937531D01*
X134418765Y-229914307D02*
X134465777Y-229937531D01*
X134418765Y-229914307D02*
X134418765Y-229914307D01*
X134370700Y-229892060D02*
X134418765Y-229914307D01*
X134370700Y-229892060D02*
X134370700Y-229892060D01*
X134321612Y-229873475D02*
X134370700Y-229892060D01*
X134321612Y-229873475D02*
X134321612Y-229873475D01*
X134271472Y-229856415D02*
X134321612Y-229873475D01*
X134271472Y-229856415D02*
X134271472Y-229856415D01*
X134220843Y-229841401D02*
X134271472Y-229856415D01*
X134220843Y-229841401D02*
X134220843Y-229841401D01*
X134168643Y-229829529D02*
X134220843Y-229841401D01*
X134168643Y-229829529D02*
X134168643Y-229829529D01*
X134115924Y-229820221D02*
X134168643Y-229829529D01*
X134115924Y-229820221D02*
X134115924Y-229820221D01*
X134061663Y-229813538D02*
X134115924Y-229820221D01*
X134061663Y-229813538D02*
X134061663Y-229813538D01*
X134006900Y-229809388D02*
X134061663Y-229813538D01*
X134006900Y-229809388D02*
X134006900Y-229809388D01*
X133951602Y-229807312D02*
X134006900Y-229809388D01*
X465555438Y-229809388D02*
X465609881Y-229808350D01*
X465555438Y-229809388D02*
X465555438Y-229809388D01*
X465502734Y-229813538D02*
X465555438Y-229809388D01*
X465502734Y-229813538D02*
X465502734Y-229813538D01*
X465449511Y-229819214D02*
X465502734Y-229813538D01*
X465449511Y-229819214D02*
X465449511Y-229819214D01*
X465397326Y-229828492D02*
X465449511Y-229819214D01*
X465397326Y-229828492D02*
X465397326Y-229828492D01*
X465346667Y-229840394D02*
X465397326Y-229828492D01*
X465346667Y-229840394D02*
X465346667Y-229840394D01*
X465295489Y-229854340D02*
X465346667Y-229840394D01*
X465295489Y-229854340D02*
X465295489Y-229854340D01*
X465245379Y-229871399D02*
X465295489Y-229854340D01*
X465245379Y-229871399D02*
X465245379Y-229871399D01*
X465196307Y-229890503D02*
X465245379Y-229871399D01*
X465196307Y-229890503D02*
X465196307Y-229890503D01*
X465148761Y-229911194D02*
X465196307Y-229890503D01*
X465148761Y-229911194D02*
X465148761Y-229911194D01*
X465101733Y-229935486D02*
X465148761Y-229911194D01*
X465101733Y-229935486D02*
X465101733Y-229935486D01*
X465055713Y-229961304D02*
X465101733Y-229935486D01*
X465055713Y-229961304D02*
X465055713Y-229961304D01*
X465010760Y-229989228D02*
X465055713Y-229961304D01*
X465010760Y-229989228D02*
X465010760Y-229989228D01*
X464967334Y-230019196D02*
X465010760Y-229989228D01*
X464967334Y-230019196D02*
X464967334Y-230019196D01*
X464925494Y-230052247D02*
X464967334Y-230019196D01*
X464925494Y-230052247D02*
X464925494Y-230052247D01*
X464885699Y-230087403D02*
X464925494Y-230052247D01*
X464885699Y-230087403D02*
X464885699Y-230087403D01*
X464846454Y-230123047D02*
X464885699Y-230087403D01*
X464846454Y-230123047D02*
X464846454Y-230123047D01*
X464809741Y-230162323D02*
X464846454Y-230123047D01*
X464809741Y-230162323D02*
X464809741Y-230162323D01*
X464775622Y-230202118D02*
X464809741Y-230162323D01*
X464775622Y-230202118D02*
X464775622Y-230202118D01*
X464742572Y-230244507D02*
X464775622Y-230202118D01*
X464742572Y-230244507D02*
X464742572Y-230244507D01*
X464712603Y-230288422D02*
X464742572Y-230244507D01*
X464712603Y-230288422D02*
X464712603Y-230288422D01*
X464683673Y-230332367D02*
X464712603Y-230288422D01*
X464683673Y-230332367D02*
X464683673Y-230332367D01*
X464657336Y-230378327D02*
X464683673Y-230332367D01*
X464657336Y-230378327D02*
X464657336Y-230378327D01*
X464634570Y-230425354D02*
X464657336Y-230378327D01*
X464634570Y-230425354D02*
X464634570Y-230425354D01*
X464613391Y-230473420D02*
X464634570Y-230425354D01*
X464613391Y-230473420D02*
X464613391Y-230473420D01*
X464594806Y-230522522D02*
X464613391Y-230473420D01*
X464594806Y-230522522D02*
X464594806Y-230522522D01*
X464577746Y-230572144D02*
X464594806Y-230522522D01*
X464577746Y-230572144D02*
X464577746Y-230572144D01*
X464563800Y-230623292D02*
X464577746Y-230572144D01*
X464563800Y-230623292D02*
X464563800Y-230623292D01*
X464551379Y-230674439D02*
X464563800Y-230623292D01*
X464551379Y-230674439D02*
X464551379Y-230674439D01*
X464542621Y-230727143D02*
X464551379Y-230674439D01*
X464542621Y-230727143D02*
X464542621Y-230727143D01*
X464536395Y-230779358D02*
X464542621Y-230727143D01*
X464536395Y-230779358D02*
X464536395Y-230779358D01*
X464532794Y-230832062D02*
X464536395Y-230779358D01*
X464532794Y-230832062D02*
X464532794Y-230832062D01*
X464530688Y-230886323D02*
X464532794Y-230832062D01*
X464530688Y-230886323D02*
X464530688Y-230886323D01*
X464532794Y-230941102D02*
X464530688Y-230886323D01*
X464532794Y-230941102D02*
X464532794Y-230941102D01*
X464536395Y-230996399D02*
X464532794Y-230941102D01*
X464536395Y-230996399D02*
X464536395Y-230996399D01*
X464543628Y-231050141D02*
X464536395Y-230996399D01*
X464543628Y-231050141D02*
X464543628Y-231050141D01*
X464552417Y-231103364D02*
X464543628Y-231050141D01*
X464552417Y-231103364D02*
X464552417Y-231103364D01*
X464564319Y-231155060D02*
X464552417Y-231103364D01*
X464564319Y-231155060D02*
X464564319Y-231155060D01*
X464579272Y-231206208D02*
X464564319Y-231155060D01*
X464579272Y-231206208D02*
X464579272Y-231206208D01*
X464596331Y-231257355D02*
X464579272Y-231206208D01*
X464596331Y-231257355D02*
X464596331Y-231257355D01*
X464615435Y-231306458D02*
X464596331Y-231257355D01*
X464615435Y-231306458D02*
X464615435Y-231306458D01*
X464637652Y-231353486D02*
X464615435Y-231306458D01*
X464637652Y-231353486D02*
X464637652Y-231353486D01*
X464661425Y-231400513D02*
X464637652Y-231353486D01*
X464661425Y-231400513D02*
X464661425Y-231400513D01*
X464687243Y-231445466D02*
X464661425Y-231400513D01*
X464687243Y-231445466D02*
X464687243Y-231445466D01*
X464715655Y-231489380D02*
X464687243Y-231445466D01*
X464715655Y-231489380D02*
X464715655Y-231489380D01*
X464745654Y-231531250D02*
X464715655Y-231489380D01*
X464745654Y-231531250D02*
X464745654Y-231531250D01*
X464777667Y-231572083D02*
X464745654Y-231531250D01*
X464777667Y-231572083D02*
X464777667Y-231572083D01*
X464811267Y-231611329D02*
X464777667Y-231572083D01*
X464811267Y-231611329D02*
X464811267Y-231611329D01*
X464846423Y-231648560D02*
X464811267Y-231611329D01*
X464846423Y-231648560D02*
X464846423Y-231648560D01*
X464884662Y-231684205D02*
X464846423Y-231648560D01*
X464884662Y-231684205D02*
X464884662Y-231684205D01*
X464923419Y-231718323D02*
X464884662Y-231684205D01*
X464923419Y-231718323D02*
X464923419Y-231718323D01*
X464964740Y-231750336D02*
X464923419Y-231718323D01*
X464964740Y-231750336D02*
X464964740Y-231750336D01*
X465006610Y-231780304D02*
X464964740Y-231750336D01*
X465006610Y-231780304D02*
X465006610Y-231780304D01*
X465050555Y-231808228D02*
X465006610Y-231780304D01*
X465050555Y-231808228D02*
X465050555Y-231808228D01*
X465095507Y-231834046D02*
X465050555Y-231808228D01*
X465095507Y-231834046D02*
X465095507Y-231834046D01*
X465141497Y-231858338D02*
X465095507Y-231834046D01*
X465141497Y-231858338D02*
X465141497Y-231858338D01*
X465189563Y-231879517D02*
X465141497Y-231858338D01*
X465189563Y-231879517D02*
X465189563Y-231879517D01*
X465238635Y-231899170D02*
X465189563Y-231879517D01*
X465238635Y-231899170D02*
X465238635Y-231899170D01*
X465288226Y-231916230D02*
X465238635Y-231899170D01*
X465288226Y-231916230D02*
X465288226Y-231916230D01*
X465339404Y-231930176D02*
X465288226Y-231916230D01*
X465339404Y-231930176D02*
X465339404Y-231930176D01*
X465391589Y-231942078D02*
X465339404Y-231930176D01*
X465391589Y-231942078D02*
X465391589Y-231942078D01*
X465444293Y-231952393D02*
X465391589Y-231942078D01*
X465444293Y-231952393D02*
X465444293Y-231952393D01*
X465498584Y-231958100D02*
X465444293Y-231952393D01*
X465498584Y-231958100D02*
X465498584Y-231958100D01*
X465553363Y-231963257D02*
X465498584Y-231958100D01*
X465553363Y-231963257D02*
X465553363Y-231963257D01*
X465609668Y-231964295D02*
X465553363Y-231963257D01*
X465609668Y-231964295D02*
X465609668Y-231964295D01*
X465664477Y-231963257D02*
X465609668Y-231964295D01*
X465664477Y-231963257D02*
X465664477Y-231963257D01*
X465719745Y-231958100D02*
X465664477Y-231963257D01*
X465719745Y-231958100D02*
X465719745Y-231958100D01*
X465773486Y-231952393D02*
X465719745Y-231958100D01*
X465773486Y-231952393D02*
X465773486Y-231952393D01*
X465826709Y-231942078D02*
X465773486Y-231952393D01*
X465826709Y-231942078D02*
X465826709Y-231942078D01*
X465878375Y-231930176D02*
X465826709Y-231942078D01*
X465878375Y-231930176D02*
X465878375Y-231930176D01*
X465929553Y-231916230D02*
X465878375Y-231930176D01*
X465929553Y-231916230D02*
X465929553Y-231916230D01*
X465979693Y-231899170D02*
X465929553Y-231916230D01*
X465979693Y-231899170D02*
X465979693Y-231899170D01*
X466028277Y-231879517D02*
X465979693Y-231899170D01*
X466028277Y-231879517D02*
X466028277Y-231879517D01*
X466076342Y-231858338D02*
X466028277Y-231879517D01*
X466076342Y-231858338D02*
X466076342Y-231858338D01*
X466123370Y-231834046D02*
X466076342Y-231858338D01*
X466123370Y-231834046D02*
X466123370Y-231834046D01*
X466168322Y-231808228D02*
X466123370Y-231834046D01*
X466168322Y-231808228D02*
X466168322Y-231808228D01*
X466211749Y-231780304D02*
X466168322Y-231808228D01*
X466211749Y-231780304D02*
X466211749Y-231780304D01*
X466254626Y-231750336D02*
X466211749Y-231780304D01*
X466254626Y-231750336D02*
X466254626Y-231750336D01*
X466294421Y-231718293D02*
X466254626Y-231750336D01*
X466294421Y-231718293D02*
X466294421Y-231718293D01*
X466334735Y-231684174D02*
X466294421Y-231718293D01*
X466334735Y-231684174D02*
X466334735Y-231684174D01*
X466371447Y-231648530D02*
X466334735Y-231684174D01*
X466371447Y-231648530D02*
X466371447Y-231648530D01*
X466407611Y-231611329D02*
X466371447Y-231648530D01*
X466407611Y-231611329D02*
X466407611Y-231611329D01*
X466441699Y-231572052D02*
X466407611Y-231611329D01*
X466441699Y-231572052D02*
X466441699Y-231572052D01*
X466473742Y-231531220D02*
X466441699Y-231572052D01*
X466473742Y-231531220D02*
X466473742Y-231531220D01*
X466503741Y-231489380D02*
X466473742Y-231531220D01*
X466503741Y-231489380D02*
X466503741Y-231489380D01*
X466531634Y-231445435D02*
X466503741Y-231489380D01*
X466531634Y-231445435D02*
X466531634Y-231445435D01*
X466557452Y-231400483D02*
X466531634Y-231445435D01*
X466557452Y-231400483D02*
X466557452Y-231400483D01*
X466581744Y-231353455D02*
X466557452Y-231400483D01*
X466581744Y-231353455D02*
X466581744Y-231353455D01*
X466602404Y-231306427D02*
X466581744Y-231353455D01*
X466602404Y-231306427D02*
X466602404Y-231306427D01*
X466621539Y-231257355D02*
X466602404Y-231306427D01*
X466621539Y-231257355D02*
X466621539Y-231257355D01*
X466638598Y-231206177D02*
X466621539Y-231257355D01*
X466638598Y-231206177D02*
X466638598Y-231206177D01*
X466653582Y-231155030D02*
X466638598Y-231206177D01*
X466653582Y-231155030D02*
X466653582Y-231155030D01*
X466665484Y-231103364D02*
X466653582Y-231155030D01*
X466665484Y-231103364D02*
X466665484Y-231103364D01*
X466674792Y-231050110D02*
X466665484Y-231103364D01*
X466674792Y-231050110D02*
X466674792Y-231050110D01*
X466681506Y-230996369D02*
X466674792Y-231050110D01*
X466681506Y-230996369D02*
X466681506Y-230996369D01*
X466685656Y-230941071D02*
X466681506Y-230996369D01*
X466685656Y-230941071D02*
X466685656Y-230941071D01*
X466687732Y-230886292D02*
X466685656Y-230941071D01*
X466687732Y-230886292D02*
X466687732Y-230886292D01*
X466686694Y-230832032D02*
X466687732Y-230886292D01*
X466686694Y-230832032D02*
X466686694Y-230832032D01*
X466682574Y-230779328D02*
X466686694Y-230832032D01*
X466682574Y-230779328D02*
X466682574Y-230779328D01*
X466675341Y-230727143D02*
X466682574Y-230779328D01*
X466675341Y-230727143D02*
X466675341Y-230727143D01*
X466666583Y-230674439D02*
X466675341Y-230727143D01*
X466666583Y-230674439D02*
X466666583Y-230674439D01*
X466654681Y-230623261D02*
X466666583Y-230674439D01*
X466654681Y-230623261D02*
X466654681Y-230623261D01*
X466640704Y-230572114D02*
X466654681Y-230623261D01*
X466640704Y-230572114D02*
X466640704Y-230572114D01*
X466624682Y-230522492D02*
X466640704Y-230572114D01*
X466624682Y-230522492D02*
X466624682Y-230522492D01*
X466605578Y-230473389D02*
X466624682Y-230522492D01*
X466605578Y-230473389D02*
X466605578Y-230473389D01*
X466583361Y-230425354D02*
X466605578Y-230473389D01*
X466583361Y-230425354D02*
X466583361Y-230425354D01*
X466560626Y-230378327D02*
X466583361Y-230425354D01*
X466560626Y-230378327D02*
X466560626Y-230378327D01*
X466534777Y-230332337D02*
X466560626Y-230378327D01*
X466534777Y-230332337D02*
X466534777Y-230332337D01*
X466506366Y-230288392D02*
X466534777Y-230332337D01*
X466506366Y-230288392D02*
X466506366Y-230288392D01*
X466475329Y-230244477D02*
X466506366Y-230288392D01*
X466475329Y-230244477D02*
X466475329Y-230244477D01*
X466443835Y-230202088D02*
X466475329Y-230244477D01*
X466443835Y-230202088D02*
X466443835Y-230202088D01*
X466408679Y-230162323D02*
X466443835Y-230202088D01*
X466408679Y-230162323D02*
X466408679Y-230162323D01*
X466371508Y-230123047D02*
X466408679Y-230162323D01*
X466371508Y-230123047D02*
X466371508Y-230123047D01*
X466332751Y-230087372D02*
X466371508Y-230123047D01*
X466332751Y-230087372D02*
X466332751Y-230087372D01*
X466292437Y-230052247D02*
X466332751Y-230087372D01*
X466292437Y-230052247D02*
X466292437Y-230052247D01*
X466250567Y-230019166D02*
X466292437Y-230052247D01*
X466250567Y-230019166D02*
X466250567Y-230019166D01*
X466207690Y-229989197D02*
X466250567Y-230019166D01*
X466207690Y-229989197D02*
X466207690Y-229989197D01*
X466162738Y-229961304D02*
X466207690Y-229989197D01*
X466162738Y-229961304D02*
X466162738Y-229961304D01*
X466116748Y-229935456D02*
X466162738Y-229961304D01*
X466116748Y-229935456D02*
X466116748Y-229935456D01*
X466069751Y-229911164D02*
X466116748Y-229935456D01*
X466069751Y-229911164D02*
X466069751Y-229911164D01*
X466021685Y-229890503D02*
X466069751Y-229911164D01*
X466021685Y-229890503D02*
X466021685Y-229890503D01*
X465972583Y-229871369D02*
X466021685Y-229890503D01*
X465972583Y-229871369D02*
X465972583Y-229871369D01*
X465922473Y-229854340D02*
X465972583Y-229871369D01*
X465922473Y-229854340D02*
X465922473Y-229854340D01*
X465871844Y-229840363D02*
X465922473Y-229854340D01*
X465871844Y-229840363D02*
X465871844Y-229840363D01*
X465820697Y-229828492D02*
X465871844Y-229840363D01*
X465820697Y-229828492D02*
X465820697Y-229828492D01*
X465768481Y-229819184D02*
X465820697Y-229828492D01*
X465768481Y-229819184D02*
X465768481Y-229819184D01*
X465715777Y-229813508D02*
X465768481Y-229819184D01*
X465715777Y-229813508D02*
X465715777Y-229813508D01*
X465662585Y-229809357D02*
X465715777Y-229813508D01*
X465662585Y-229809357D02*
X465662585Y-229809357D01*
X465609881Y-229808350D02*
X465662585Y-229809357D01*
X163323977Y-269189362D02*
X163377719Y-269188355D01*
X163323977Y-269189362D02*
X163323977Y-269189362D01*
X163270739Y-269193482D02*
X163323977Y-269189362D01*
X163270739Y-269193482D02*
X163270739Y-269193482D01*
X163218539Y-269200196D02*
X163270739Y-269193482D01*
X163218539Y-269200196D02*
X163218539Y-269200196D01*
X163166873Y-269208954D02*
X163218539Y-269200196D01*
X163166873Y-269208954D02*
X163166873Y-269208954D01*
X163114673Y-269220337D02*
X163166873Y-269208954D01*
X163114673Y-269220337D02*
X163114673Y-269220337D01*
X163063510Y-269234284D02*
X163114673Y-269220337D01*
X163063510Y-269234284D02*
X163063510Y-269234284D01*
X163013888Y-269251343D02*
X163063510Y-269234284D01*
X163013888Y-269251343D02*
X163013888Y-269251343D01*
X162964801Y-269270447D02*
X163013888Y-269251343D01*
X162964801Y-269270447D02*
X162964801Y-269270447D01*
X162916735Y-269291108D02*
X162964801Y-269270447D01*
X162916735Y-269291108D02*
X162916735Y-269291108D01*
X162869708Y-269315400D02*
X162916735Y-269291108D01*
X162869708Y-269315400D02*
X162869708Y-269315400D01*
X162823733Y-269341248D02*
X162869708Y-269315400D01*
X162823733Y-269341248D02*
X162823733Y-269341248D01*
X162779803Y-269369172D02*
X162823733Y-269341248D01*
X162779803Y-269369172D02*
X162779803Y-269369172D01*
X162735873Y-269399140D02*
X162779803Y-269369172D01*
X162735873Y-269399140D02*
X162735873Y-269399140D01*
X162694537Y-269432221D02*
X162735873Y-269399140D01*
X162694537Y-269432221D02*
X162694537Y-269432221D01*
X162653720Y-269467377D02*
X162694537Y-269432221D01*
X162653720Y-269467377D02*
X162653720Y-269467377D01*
X162614962Y-269504059D02*
X162653720Y-269467377D01*
X162614962Y-269504059D02*
X162614962Y-269504059D01*
X162578784Y-269542298D02*
X162614962Y-269504059D01*
X162578784Y-269542298D02*
X162578784Y-269542298D01*
X162543643Y-269583130D02*
X162578784Y-269542298D01*
X162543643Y-269583130D02*
X162543643Y-269583130D01*
X162510577Y-269625000D02*
X162543643Y-269583130D01*
X162510577Y-269625000D02*
X162510577Y-269625000D01*
X162480609Y-269668427D02*
X162510577Y-269625000D01*
X162480609Y-269668427D02*
X162480609Y-269668427D01*
X162452700Y-269712372D02*
X162480609Y-269668427D01*
X162452700Y-269712372D02*
X162452700Y-269712372D01*
X162426883Y-269758332D02*
X162452700Y-269712372D01*
X162426883Y-269758332D02*
X162426883Y-269758332D01*
X162402591Y-269805390D02*
X162426883Y-269758332D01*
X162402591Y-269805390D02*
X162402591Y-269805390D01*
X162381915Y-269853455D02*
X162402591Y-269805390D01*
X162381915Y-269853455D02*
X162381915Y-269853455D01*
X162362796Y-269903046D02*
X162381915Y-269853455D01*
X162362796Y-269903046D02*
X162362796Y-269903046D01*
X162345752Y-269952118D02*
X162362796Y-269903046D01*
X162345752Y-269952118D02*
X162345752Y-269952118D01*
X162331790Y-270003296D02*
X162345752Y-269952118D01*
X162331790Y-270003296D02*
X162331790Y-270003296D01*
X162320941Y-270055481D02*
X162331790Y-270003296D01*
X162320941Y-270055481D02*
X162320941Y-270055481D01*
X162310611Y-270107178D02*
X162320941Y-270055481D01*
X162310611Y-270107178D02*
X162310611Y-270107178D01*
X162304934Y-270160401D02*
X162310611Y-270107178D01*
X162304934Y-270160401D02*
X162304934Y-270160401D01*
X162300799Y-270213105D02*
X162304934Y-270160401D01*
X162300799Y-270213105D02*
X162300799Y-270213105D01*
X162299762Y-270266297D02*
X162300799Y-270213105D01*
X162299762Y-270266297D02*
X162299762Y-270266297D01*
X162300799Y-270320069D02*
X162299762Y-270266297D01*
X162300799Y-270320069D02*
X162300799Y-270320069D01*
X162304934Y-270373292D02*
X162300799Y-270320069D01*
X162304934Y-270373292D02*
X162304934Y-270373292D01*
X162310611Y-270425477D02*
X162304934Y-270373292D01*
X162310611Y-270425477D02*
X162310611Y-270425477D01*
X162320941Y-270477143D02*
X162310611Y-270425477D01*
X162320941Y-270477143D02*
X162320941Y-270477143D01*
X162331790Y-270529358D02*
X162320941Y-270477143D01*
X162331790Y-270529358D02*
X162331790Y-270529358D01*
X162345752Y-270580506D02*
X162331790Y-270529358D01*
X162345752Y-270580506D02*
X162345752Y-270580506D01*
X162362796Y-270630127D02*
X162345752Y-270580506D01*
X162362796Y-270630127D02*
X162362796Y-270630127D01*
X162381915Y-270679200D02*
X162362796Y-270630127D01*
X162381915Y-270679200D02*
X162381915Y-270679200D01*
X162402591Y-270727265D02*
X162381915Y-270679200D01*
X162402591Y-270727265D02*
X162402591Y-270727265D01*
X162426883Y-270774292D02*
X162402591Y-270727265D01*
X162426883Y-270774292D02*
X162426883Y-270774292D01*
X162452700Y-270820282D02*
X162426883Y-270774292D01*
X162452700Y-270820282D02*
X162452700Y-270820282D01*
X162480609Y-270864228D02*
X162452700Y-270820282D01*
X162480609Y-270864228D02*
X162480609Y-270864228D01*
X162510577Y-270908173D02*
X162480609Y-270864228D01*
X162510577Y-270908173D02*
X162510577Y-270908173D01*
X162543643Y-270949524D02*
X162510577Y-270908173D01*
X162543643Y-270949524D02*
X162543643Y-270949524D01*
X162578784Y-270990326D02*
X162543643Y-270949524D01*
X162578784Y-270990326D02*
X162578784Y-270990326D01*
X162614962Y-271028077D02*
X162578784Y-270990326D01*
X162614962Y-271028077D02*
X162614962Y-271028077D01*
X162653720Y-271065278D02*
X162614962Y-271028077D01*
X162653720Y-271065278D02*
X162653720Y-271065278D01*
X162694537Y-271100434D02*
X162653720Y-271065278D01*
X162694537Y-271100434D02*
X162694537Y-271100434D01*
X162735873Y-271133484D02*
X162694537Y-271100434D01*
X162735873Y-271133484D02*
X162735873Y-271133484D01*
X162779803Y-271163453D02*
X162735873Y-271133484D01*
X162779803Y-271163453D02*
X162779803Y-271163453D01*
X162823733Y-271191376D02*
X162779803Y-271163453D01*
X162823733Y-271191376D02*
X162823733Y-271191376D01*
X162869708Y-271217194D02*
X162823733Y-271191376D01*
X162869708Y-271217194D02*
X162869708Y-271217194D01*
X162916735Y-271241486D02*
X162869708Y-271217194D01*
X162916735Y-271241486D02*
X162916735Y-271241486D01*
X162964801Y-271262146D02*
X162916735Y-271241486D01*
X162964801Y-271262146D02*
X162964801Y-271262146D01*
X163013888Y-271281281D02*
X162964801Y-271262146D01*
X163013888Y-271281281D02*
X163013888Y-271281281D01*
X163063510Y-271298340D02*
X163013888Y-271281281D01*
X163063510Y-271298340D02*
X163063510Y-271298340D01*
X163114657Y-271312287D02*
X163063510Y-271298340D01*
X163114657Y-271312287D02*
X163114657Y-271312287D01*
X163166858Y-271323151D02*
X163114657Y-271312287D01*
X163166858Y-271323151D02*
X163166858Y-271323151D01*
X163218524Y-271332459D02*
X163166858Y-271323151D01*
X163218524Y-271332459D02*
X163218524Y-271332459D01*
X163270724Y-271339173D02*
X163218524Y-271332459D01*
X163270724Y-271339173D02*
X163270724Y-271339173D01*
X163323947Y-271343293D02*
X163270724Y-271339173D01*
X163323947Y-271343293D02*
X163323947Y-271343293D01*
X163377704Y-271344330D02*
X163323947Y-271343293D01*
X163377704Y-271344330D02*
X163377704Y-271344330D01*
X163432483Y-271343293D02*
X163377704Y-271344330D01*
X163432483Y-271343293D02*
X163432483Y-271343293D01*
X163487780Y-271339173D02*
X163432483Y-271343293D01*
X163487780Y-271339173D02*
X163487780Y-271339173D01*
X163541522Y-271332459D02*
X163487780Y-271339173D01*
X163541522Y-271332459D02*
X163541522Y-271332459D01*
X163594745Y-271322114D02*
X163541522Y-271332459D01*
X163594745Y-271322114D02*
X163594745Y-271322114D01*
X163646945Y-271310242D02*
X163594745Y-271322114D01*
X163646945Y-271310242D02*
X163646945Y-271310242D01*
X163697589Y-271296296D02*
X163646945Y-271310242D01*
X163697589Y-271296296D02*
X163697589Y-271296296D01*
X163748751Y-271279236D02*
X163697589Y-271296296D01*
X163748751Y-271279236D02*
X163748751Y-271279236D01*
X163797839Y-271260132D02*
X163748751Y-271279236D01*
X163797839Y-271260132D02*
X163797839Y-271260132D01*
X163844867Y-271238434D02*
X163797839Y-271260132D01*
X163844867Y-271238434D02*
X163844867Y-271238434D01*
X163891894Y-271214142D02*
X163844867Y-271238434D01*
X163891894Y-271214142D02*
X163891894Y-271214142D01*
X163936847Y-271188294D02*
X163891894Y-271214142D01*
X163936847Y-271188294D02*
X163936847Y-271188294D01*
X163980792Y-271160401D02*
X163936847Y-271188294D01*
X163980792Y-271160401D02*
X163980792Y-271160401D01*
X164022647Y-271130402D02*
X163980792Y-271160401D01*
X164022647Y-271130402D02*
X164022647Y-271130402D01*
X164063983Y-271098359D02*
X164022647Y-271130402D01*
X164063983Y-271098359D02*
X164063983Y-271098359D01*
X164102740Y-271064271D02*
X164063983Y-271098359D01*
X164102740Y-271064271D02*
X164102740Y-271064271D01*
X164139956Y-271028077D02*
X164102740Y-271064271D01*
X164139956Y-271028077D02*
X164139956Y-271028077D01*
X164175616Y-270991364D02*
X164139956Y-271028077D01*
X164175616Y-270991364D02*
X164175616Y-270991364D01*
X164209720Y-270952088D02*
X164175616Y-270991364D01*
X164209720Y-270952088D02*
X164209720Y-270952088D01*
X164241748Y-270911255D02*
X164209720Y-270952088D01*
X164241748Y-270911255D02*
X164241748Y-270911255D01*
X164271716Y-270869416D02*
X164241748Y-270911255D01*
X164271716Y-270869416D02*
X164271716Y-270869416D01*
X164299624Y-270825470D02*
X164271716Y-270869416D01*
X164299624Y-270825470D02*
X164299624Y-270825470D01*
X164325976Y-270780518D02*
X164299624Y-270825470D01*
X164325976Y-270780518D02*
X164325976Y-270780518D01*
X164349749Y-270734528D02*
X164325976Y-270780518D01*
X164349749Y-270734528D02*
X164349749Y-270734528D01*
X164370929Y-270686463D02*
X164349749Y-270734528D01*
X164370929Y-270686463D02*
X164370929Y-270686463D01*
X164390582Y-270637391D02*
X164370929Y-270686463D01*
X164390582Y-270637391D02*
X164390582Y-270637391D01*
X164407641Y-270587250D02*
X164390582Y-270637391D01*
X164407641Y-270587250D02*
X164407641Y-270587250D01*
X164421588Y-270536072D02*
X164407641Y-270587250D01*
X164421588Y-270536072D02*
X164421588Y-270536072D01*
X164433993Y-270483368D02*
X164421588Y-270536072D01*
X164433993Y-270483368D02*
X164433993Y-270483368D01*
X164443805Y-270430146D02*
X164433993Y-270483368D01*
X164443805Y-270430146D02*
X164443805Y-270430146D01*
X164450518Y-270376404D02*
X164443805Y-270430146D01*
X164450518Y-270376404D02*
X164450518Y-270376404D01*
X164454654Y-270322114D02*
X164450518Y-270376404D01*
X164454654Y-270322114D02*
X164454654Y-270322114D01*
X164455676Y-270266297D02*
X164454654Y-270322114D01*
X164455676Y-270266297D02*
X164455676Y-270266297D01*
X164454654Y-270210999D02*
X164455676Y-270266297D01*
X164454654Y-270210999D02*
X164454654Y-270210999D01*
X164450518Y-270156220D02*
X164454654Y-270210999D01*
X164450518Y-270156220D02*
X164450518Y-270156220D01*
X164443805Y-270102509D02*
X164450518Y-270156220D01*
X164443805Y-270102509D02*
X164443805Y-270102509D01*
X164433993Y-270049286D02*
X164443805Y-270102509D01*
X164433993Y-270049286D02*
X164433993Y-270049286D01*
X164421588Y-269997101D02*
X164433993Y-270049286D01*
X164421588Y-269997101D02*
X164421588Y-269997101D01*
X164407641Y-269945405D02*
X164421588Y-269997101D01*
X164407641Y-269945405D02*
X164407641Y-269945405D01*
X164390582Y-269895295D02*
X164407641Y-269945405D01*
X164390582Y-269895295D02*
X164390582Y-269895295D01*
X164370929Y-269846222D02*
X164390582Y-269895295D01*
X164370929Y-269846222D02*
X164370929Y-269846222D01*
X164349749Y-269799195D02*
X164370929Y-269846222D01*
X164349749Y-269799195D02*
X164349749Y-269799195D01*
X164325976Y-269752167D02*
X164349749Y-269799195D01*
X164325976Y-269752167D02*
X164325976Y-269752167D01*
X164299624Y-269707215D02*
X164325976Y-269752167D01*
X164299624Y-269707215D02*
X164299624Y-269707215D01*
X164271716Y-269663270D02*
X164299624Y-269707215D01*
X164271716Y-269663270D02*
X164271716Y-269663270D01*
X164241748Y-269621399D02*
X164271716Y-269663270D01*
X164241748Y-269621399D02*
X164241748Y-269621399D01*
X164209720Y-269580079D02*
X164241748Y-269621399D01*
X164209720Y-269580079D02*
X164209720Y-269580079D01*
X164175616Y-269541321D02*
X164209720Y-269580079D01*
X164175616Y-269541321D02*
X164175616Y-269541321D01*
X164139956Y-269504090D02*
X164175616Y-269541321D01*
X164139956Y-269504090D02*
X164139956Y-269504090D01*
X164102740Y-269468445D02*
X164139956Y-269504090D01*
X164102740Y-269468445D02*
X164102740Y-269468445D01*
X164063983Y-269434327D02*
X164102740Y-269468445D01*
X164063983Y-269434327D02*
X164063983Y-269434327D01*
X164022647Y-269402314D02*
X164063983Y-269434327D01*
X164022647Y-269402314D02*
X164022647Y-269402314D01*
X163980792Y-269372315D02*
X164022647Y-269402314D01*
X163980792Y-269372315D02*
X163980792Y-269372315D01*
X163936847Y-269344422D02*
X163980792Y-269372315D01*
X163936847Y-269344422D02*
X163936847Y-269344422D01*
X163891894Y-269318055D02*
X163936847Y-269344422D01*
X163891894Y-269318055D02*
X163891894Y-269318055D01*
X163844867Y-269294281D02*
X163891894Y-269318055D01*
X163844867Y-269294281D02*
X163844867Y-269294281D01*
X163797839Y-269273102D02*
X163844867Y-269294281D01*
X163797839Y-269273102D02*
X163797839Y-269273102D01*
X163748751Y-269253479D02*
X163797839Y-269273102D01*
X163748751Y-269253479D02*
X163748751Y-269253479D01*
X163697604Y-269236420D02*
X163748751Y-269253479D01*
X163697604Y-269236420D02*
X163697604Y-269236420D01*
X163646960Y-269222474D02*
X163697604Y-269236420D01*
X163646960Y-269222474D02*
X163646960Y-269222474D01*
X163594760Y-269210053D02*
X163646960Y-269222474D01*
X163594760Y-269210053D02*
X163594760Y-269210053D01*
X163541537Y-269200226D02*
X163594760Y-269210053D01*
X163541537Y-269200226D02*
X163541537Y-269200226D01*
X163487796Y-269193512D02*
X163541537Y-269200226D01*
X163487796Y-269193512D02*
X163487796Y-269193512D01*
X163432498Y-269189393D02*
X163487796Y-269193512D01*
X163432498Y-269189393D02*
X163432498Y-269189393D01*
X163377719Y-269188355D02*
X163432498Y-269189393D01*
X249786898Y-269189454D02*
X249841678Y-269188355D01*
X249786898Y-269189454D02*
X249786898Y-269189454D01*
X249731616Y-269193573D02*
X249786898Y-269189454D01*
X249731616Y-269193573D02*
X249731616Y-269193573D01*
X249677859Y-269200287D02*
X249731616Y-269193573D01*
X249677859Y-269200287D02*
X249677859Y-269200287D01*
X249624636Y-269210114D02*
X249677859Y-269200287D01*
X249624636Y-269210114D02*
X249624636Y-269210114D01*
X249572970Y-269222504D02*
X249624636Y-269210114D01*
X249572970Y-269222504D02*
X249572970Y-269222504D01*
X249521823Y-269236451D02*
X249572970Y-269222504D01*
X249521823Y-269236451D02*
X249521823Y-269236451D01*
X249471682Y-269253510D02*
X249521823Y-269236451D01*
X249471682Y-269253510D02*
X249471682Y-269253510D01*
X249422595Y-269273133D02*
X249471682Y-269253510D01*
X249422595Y-269273133D02*
X249422595Y-269273133D01*
X249374530Y-269294312D02*
X249422595Y-269273133D01*
X249374530Y-269294312D02*
X249374530Y-269294312D01*
X249327517Y-269318085D02*
X249374530Y-269294312D01*
X249327517Y-269318085D02*
X249327517Y-269318085D01*
X249282565Y-269344452D02*
X249327517Y-269318085D01*
X249282565Y-269344452D02*
X249282565Y-269344452D01*
X249238635Y-269372345D02*
X249282565Y-269344452D01*
X249238635Y-269372345D02*
X249238635Y-269372345D01*
X249196780Y-269402344D02*
X249238635Y-269372345D01*
X249196780Y-269402344D02*
X249196780Y-269402344D01*
X249155963Y-269434388D02*
X249196780Y-269402344D01*
X249155963Y-269434388D02*
X249155963Y-269434388D01*
X249116687Y-269468476D02*
X249155963Y-269434388D01*
X249116687Y-269468476D02*
X249116687Y-269468476D01*
X249079989Y-269504120D02*
X249116687Y-269468476D01*
X249079989Y-269504120D02*
X249079989Y-269504120D01*
X249043811Y-269541352D02*
X249079989Y-269504120D01*
X249043811Y-269541352D02*
X249043811Y-269541352D01*
X249009707Y-269580109D02*
X249043811Y-269541352D01*
X249009707Y-269580109D02*
X249009707Y-269580109D01*
X248977679Y-269621460D02*
X249009707Y-269580109D01*
X248977679Y-269621460D02*
X248977679Y-269621460D01*
X248947711Y-269663300D02*
X248977679Y-269621460D01*
X248947711Y-269663300D02*
X248947711Y-269663300D01*
X248919803Y-269707215D02*
X248947711Y-269663300D01*
X248919803Y-269707215D02*
X248919803Y-269707215D01*
X248893954Y-269752167D02*
X248919803Y-269707215D01*
X248893954Y-269752167D02*
X248893954Y-269752167D01*
X248869677Y-269799195D02*
X248893954Y-269752167D01*
X248869677Y-269799195D02*
X248869677Y-269799195D01*
X248849002Y-269846222D02*
X248869677Y-269799195D01*
X248849002Y-269846222D02*
X248849002Y-269846222D01*
X248828860Y-269895295D02*
X248849002Y-269846222D01*
X248828860Y-269895295D02*
X248828860Y-269895295D01*
X248811801Y-269945405D02*
X248828860Y-269895295D01*
X248811801Y-269945405D02*
X248811801Y-269945405D01*
X248797854Y-269997101D02*
X248811801Y-269945405D01*
X248797854Y-269997101D02*
X248797854Y-269997101D01*
X248785968Y-270049286D02*
X248797854Y-269997101D01*
X248785968Y-270049286D02*
X248785968Y-270049286D01*
X248775622Y-270102509D02*
X248785968Y-270049286D01*
X248775622Y-270102509D02*
X248775622Y-270102509D01*
X248769931Y-270156220D02*
X248775622Y-270102509D01*
X248769931Y-270156220D02*
X248769931Y-270156220D01*
X248764773Y-270210999D02*
X248769931Y-270156220D01*
X248764773Y-270210999D02*
X248764773Y-270210999D01*
X248763736Y-270266297D02*
X248764773Y-270210999D01*
X248763736Y-270266297D02*
X248763736Y-270266297D01*
X248764773Y-270322114D02*
X248763736Y-270266297D01*
X248764773Y-270322114D02*
X248764773Y-270322114D01*
X248769931Y-270376404D02*
X248764773Y-270322114D01*
X248769931Y-270376404D02*
X248769931Y-270376404D01*
X248775622Y-270430146D02*
X248769931Y-270376404D01*
X248775622Y-270430146D02*
X248775622Y-270430146D01*
X248785968Y-270483368D02*
X248775622Y-270430146D01*
X248785968Y-270483368D02*
X248785968Y-270483368D01*
X248797854Y-270536072D02*
X248785968Y-270483368D01*
X248797854Y-270536072D02*
X248797854Y-270536072D01*
X248811801Y-270587250D02*
X248797854Y-270536072D01*
X248811801Y-270587250D02*
X248811801Y-270587250D01*
X248828860Y-270637391D02*
X248811801Y-270587250D01*
X248828860Y-270637391D02*
X248828860Y-270637391D01*
X248849002Y-270686463D02*
X248828860Y-270637391D01*
X248849002Y-270686463D02*
X248849002Y-270686463D01*
X248869677Y-270734528D02*
X248849002Y-270686463D01*
X248869677Y-270734528D02*
X248869677Y-270734528D01*
X248893954Y-270780518D02*
X248869677Y-270734528D01*
X248893954Y-270780518D02*
X248893954Y-270780518D01*
X248919803Y-270825470D02*
X248893954Y-270780518D01*
X248919803Y-270825470D02*
X248919803Y-270825470D01*
X248947711Y-270869416D02*
X248919803Y-270825470D01*
X248947711Y-270869416D02*
X248947711Y-270869416D01*
X248977679Y-270911255D02*
X248947711Y-270869416D01*
X248977679Y-270911255D02*
X248977679Y-270911255D01*
X249009723Y-270952088D02*
X248977679Y-270911255D01*
X249009723Y-270952088D02*
X249009723Y-270952088D01*
X249043826Y-270991364D02*
X249009723Y-270952088D01*
X249043826Y-270991364D02*
X249043826Y-270991364D01*
X249080005Y-271028077D02*
X249043826Y-270991364D01*
X249080005Y-271028077D02*
X249080005Y-271028077D01*
X249116702Y-271064271D02*
X249080005Y-271028077D01*
X249116702Y-271064271D02*
X249116702Y-271064271D01*
X249155978Y-271098359D02*
X249116702Y-271064271D01*
X249155978Y-271098359D02*
X249155978Y-271098359D01*
X249196795Y-271130402D02*
X249155978Y-271098359D01*
X249196795Y-271130402D02*
X249196795Y-271130402D01*
X249238650Y-271160401D02*
X249196795Y-271130402D01*
X249238650Y-271160401D02*
X249238650Y-271160401D01*
X249282580Y-271188294D02*
X249238650Y-271160401D01*
X249282580Y-271188294D02*
X249282580Y-271188294D01*
X249327533Y-271214112D02*
X249282580Y-271188294D01*
X249327533Y-271214112D02*
X249327533Y-271214112D01*
X249374545Y-271238404D02*
X249327533Y-271214112D01*
X249374545Y-271238404D02*
X249374545Y-271238404D01*
X249422610Y-271260102D02*
X249374545Y-271238404D01*
X249422610Y-271260102D02*
X249422610Y-271260102D01*
X249471698Y-271279236D02*
X249422610Y-271260102D01*
X249471698Y-271279236D02*
X249471698Y-271279236D01*
X249521838Y-271296296D02*
X249471698Y-271279236D01*
X249521838Y-271296296D02*
X249521838Y-271296296D01*
X249573001Y-271310242D02*
X249521838Y-271296296D01*
X249573001Y-271310242D02*
X249573001Y-271310242D01*
X249624667Y-271322114D02*
X249573001Y-271310242D01*
X249624667Y-271322114D02*
X249624667Y-271322114D01*
X249677890Y-271332459D02*
X249624667Y-271322114D01*
X249677890Y-271332459D02*
X249677890Y-271332459D01*
X249731646Y-271339173D02*
X249677890Y-271332459D01*
X249731646Y-271339173D02*
X249731646Y-271339173D01*
X249786929Y-271343293D02*
X249731646Y-271339173D01*
X249786929Y-271343293D02*
X249786929Y-271343293D01*
X249841708Y-271344330D02*
X249786929Y-271343293D01*
X249841708Y-271344330D02*
X249841708Y-271344330D01*
X249897509Y-271343293D02*
X249841708Y-271344330D01*
X249897509Y-271343293D02*
X249897509Y-271343293D01*
X249951770Y-271339173D02*
X249897509Y-271343293D01*
X249951770Y-271339173D02*
X249951770Y-271339173D01*
X250005511Y-271332459D02*
X249951770Y-271339173D01*
X250005511Y-271332459D02*
X250005511Y-271332459D01*
X250059771Y-271322114D02*
X250005511Y-271332459D01*
X250059771Y-271322114D02*
X250059771Y-271322114D01*
X250111956Y-271310242D02*
X250059771Y-271322114D01*
X250111956Y-271310242D02*
X250111956Y-271310242D01*
X250162600Y-271296296D02*
X250111956Y-271310242D01*
X250162600Y-271296296D02*
X250162600Y-271296296D01*
X250212725Y-271279236D02*
X250162600Y-271296296D01*
X250212725Y-271279236D02*
X250212725Y-271279236D01*
X250261813Y-271260132D02*
X250212725Y-271279236D01*
X250261813Y-271260132D02*
X250261813Y-271260132D01*
X250309878Y-271238434D02*
X250261813Y-271260132D01*
X250309878Y-271238434D02*
X250309878Y-271238434D01*
X250355868Y-271214142D02*
X250309878Y-271238434D01*
X250355868Y-271214142D02*
X250355868Y-271214142D01*
X250400821Y-271188294D02*
X250355868Y-271214142D01*
X250400821Y-271188294D02*
X250400821Y-271188294D01*
X250444766Y-271160401D02*
X250400821Y-271188294D01*
X250444766Y-271160401D02*
X250444766Y-271160401D01*
X250486621Y-271130402D02*
X250444766Y-271160401D01*
X250486621Y-271130402D02*
X250486621Y-271130402D01*
X250527957Y-271098359D02*
X250486621Y-271130402D01*
X250527957Y-271098359D02*
X250527957Y-271098359D01*
X250566714Y-271064271D02*
X250527957Y-271098359D01*
X250566714Y-271064271D02*
X250566714Y-271064271D01*
X250604953Y-271028077D02*
X250566714Y-271064271D01*
X250604953Y-271028077D02*
X250604953Y-271028077D01*
X250639575Y-270991364D02*
X250604953Y-271028077D01*
X250639575Y-270991364D02*
X250639575Y-270991364D01*
X250673678Y-270952088D02*
X250639575Y-270991364D01*
X250673678Y-270952088D02*
X250673678Y-270952088D01*
X250705706Y-270911255D02*
X250673678Y-270952088D01*
X250705706Y-270911255D02*
X250705706Y-270911255D01*
X250735690Y-270869416D02*
X250705706Y-270911255D01*
X250735690Y-270869416D02*
X250735690Y-270869416D01*
X250763598Y-270825470D02*
X250735690Y-270869416D01*
X250763598Y-270825470D02*
X250763598Y-270825470D01*
X250789950Y-270780518D02*
X250763598Y-270825470D01*
X250789950Y-270780518D02*
X250789950Y-270780518D01*
X250813723Y-270734528D02*
X250789950Y-270780518D01*
X250813723Y-270734528D02*
X250813723Y-270734528D01*
X250835940Y-270686463D02*
X250813723Y-270734528D01*
X250835940Y-270686463D02*
X250835940Y-270686463D01*
X250854541Y-270637391D02*
X250835940Y-270686463D01*
X250854541Y-270637391D02*
X250854541Y-270637391D01*
X250871585Y-270587250D02*
X250854541Y-270637391D01*
X250871585Y-270587250D02*
X250871585Y-270587250D01*
X250886569Y-270536072D02*
X250871585Y-270587250D01*
X250886569Y-270536072D02*
X250886569Y-270536072D01*
X250898974Y-270483368D02*
X250886569Y-270536072D01*
X250898974Y-270483368D02*
X250898974Y-270483368D01*
X250907748Y-270430146D02*
X250898974Y-270483368D01*
X250907748Y-270430146D02*
X250907748Y-270430146D01*
X250914477Y-270376404D02*
X250907748Y-270430146D01*
X250914477Y-270376404D02*
X250914477Y-270376404D01*
X250918597Y-270322114D02*
X250914477Y-270376404D01*
X250918597Y-270322114D02*
X250918597Y-270322114D01*
X250919619Y-270266297D02*
X250918597Y-270322114D01*
X250919619Y-270266297D02*
X250919619Y-270266297D01*
X250918597Y-270210999D02*
X250919619Y-270266297D01*
X250918597Y-270210999D02*
X250918597Y-270210999D01*
X250914477Y-270156220D02*
X250918597Y-270210999D01*
X250914477Y-270156220D02*
X250914477Y-270156220D01*
X250907748Y-270102509D02*
X250914477Y-270156220D01*
X250907748Y-270102509D02*
X250907748Y-270102509D01*
X250898974Y-270049286D02*
X250907748Y-270102509D01*
X250898974Y-270049286D02*
X250898974Y-270049286D01*
X250886569Y-269997101D02*
X250898974Y-270049286D01*
X250886569Y-269997101D02*
X250886569Y-269997101D01*
X250871585Y-269945405D02*
X250886569Y-269997101D01*
X250871585Y-269945405D02*
X250871585Y-269945405D01*
X250854541Y-269895295D02*
X250871585Y-269945405D01*
X250854541Y-269895295D02*
X250854541Y-269895295D01*
X250835925Y-269846222D02*
X250854541Y-269895295D01*
X250835925Y-269846222D02*
X250835925Y-269846222D01*
X250813708Y-269799195D02*
X250835925Y-269846222D01*
X250813708Y-269799195D02*
X250813708Y-269799195D01*
X250789935Y-269752167D02*
X250813708Y-269799195D01*
X250789935Y-269752167D02*
X250789935Y-269752167D01*
X250763568Y-269707215D02*
X250789935Y-269752167D01*
X250763568Y-269707215D02*
X250763568Y-269707215D01*
X250735659Y-269663270D02*
X250763568Y-269707215D01*
X250735659Y-269663270D02*
X250735659Y-269663270D01*
X250705676Y-269621399D02*
X250735659Y-269663270D01*
X250705676Y-269621399D02*
X250705676Y-269621399D01*
X250673648Y-269580079D02*
X250705676Y-269621399D01*
X250673648Y-269580079D02*
X250673648Y-269580079D01*
X250639544Y-269541321D02*
X250673648Y-269580079D01*
X250639544Y-269541321D02*
X250639544Y-269541321D01*
X250604922Y-269504090D02*
X250639544Y-269541321D01*
X250604922Y-269504090D02*
X250604922Y-269504090D01*
X250566684Y-269468445D02*
X250604922Y-269504090D01*
X250566684Y-269468445D02*
X250566684Y-269468445D01*
X250527926Y-269434327D02*
X250566684Y-269468445D01*
X250527926Y-269434327D02*
X250527926Y-269434327D01*
X250486590Y-269402314D02*
X250527926Y-269434327D01*
X250486590Y-269402314D02*
X250486590Y-269402314D01*
X250444735Y-269372315D02*
X250486590Y-269402314D01*
X250444735Y-269372315D02*
X250444735Y-269372315D01*
X250400790Y-269344422D02*
X250444735Y-269372315D01*
X250400790Y-269344422D02*
X250400790Y-269344422D01*
X250355838Y-269318055D02*
X250400790Y-269344422D01*
X250355838Y-269318055D02*
X250355838Y-269318055D01*
X250309848Y-269294281D02*
X250355838Y-269318055D01*
X250309848Y-269294281D02*
X250309848Y-269294281D01*
X250261782Y-269273102D02*
X250309848Y-269294281D01*
X250261782Y-269273102D02*
X250261782Y-269273102D01*
X250212695Y-269253479D02*
X250261782Y-269273102D01*
X250212695Y-269253479D02*
X250212695Y-269253479D01*
X250162570Y-269236420D02*
X250212695Y-269253479D01*
X250162570Y-269236420D02*
X250162570Y-269236420D01*
X250111926Y-269222474D02*
X250162570Y-269236420D01*
X250111926Y-269222474D02*
X250111926Y-269222474D01*
X250059741Y-269210053D02*
X250111926Y-269222474D01*
X250059741Y-269210053D02*
X250059741Y-269210053D01*
X250005481Y-269200226D02*
X250059741Y-269210053D01*
X250005481Y-269200226D02*
X250005481Y-269200226D01*
X249951739Y-269193512D02*
X250005481Y-269200226D01*
X249951739Y-269193512D02*
X249951739Y-269193512D01*
X249897479Y-269189393D02*
X249951739Y-269193512D01*
X249897479Y-269189393D02*
X249897479Y-269189393D01*
X249841678Y-269188355D02*
X249897479Y-269189393D01*
X349642749Y-269189454D02*
X349697589Y-269188355D01*
X349642749Y-269189454D02*
X349642749Y-269189454D01*
X349587451Y-269193573D02*
X349642749Y-269189454D01*
X349587451Y-269193573D02*
X349587451Y-269193573D01*
X349533740Y-269200287D02*
X349587451Y-269193573D01*
X349533740Y-269200287D02*
X349533740Y-269200287D01*
X349480517Y-269210114D02*
X349533740Y-269200287D01*
X349480517Y-269210114D02*
X349480517Y-269210114D01*
X349428820Y-269222504D02*
X349480517Y-269210114D01*
X349428820Y-269222504D02*
X349428820Y-269222504D01*
X349377673Y-269236451D02*
X349428820Y-269222504D01*
X349377673Y-269236451D02*
X349377673Y-269236451D01*
X349327502Y-269253510D02*
X349377673Y-269236451D01*
X349327502Y-269253510D02*
X349327502Y-269253510D01*
X349278430Y-269273133D02*
X349327502Y-269253510D01*
X349278430Y-269273133D02*
X349278430Y-269273133D01*
X349230883Y-269294312D02*
X349278430Y-269273133D01*
X349230883Y-269294312D02*
X349230883Y-269294312D01*
X349183856Y-269318085D02*
X349230883Y-269294312D01*
X349183856Y-269318085D02*
X349183856Y-269318085D01*
X349138903Y-269344452D02*
X349183856Y-269318085D01*
X349138903Y-269344452D02*
X349138903Y-269344452D01*
X349094470Y-269372345D02*
X349138903Y-269344452D01*
X349094470Y-269372345D02*
X349094470Y-269372345D01*
X349052600Y-269402344D02*
X349094470Y-269372345D01*
X349052600Y-269402344D02*
X349052600Y-269402344D01*
X349011767Y-269434388D02*
X349052600Y-269402344D01*
X349011767Y-269434388D02*
X349011767Y-269434388D01*
X348972522Y-269468476D02*
X349011767Y-269434388D01*
X348972522Y-269468476D02*
X348972522Y-269468476D01*
X348935809Y-269504120D02*
X348972522Y-269468476D01*
X348935809Y-269504120D02*
X348935809Y-269504120D01*
X348899646Y-269541352D02*
X348935809Y-269504120D01*
X348899646Y-269541352D02*
X348899646Y-269541352D01*
X348865527Y-269580109D02*
X348899646Y-269541352D01*
X348865527Y-269580109D02*
X348865527Y-269580109D01*
X348833514Y-269621460D02*
X348865527Y-269580109D01*
X348833514Y-269621460D02*
X348833514Y-269621460D01*
X348803515Y-269663300D02*
X348833514Y-269621460D01*
X348803515Y-269663300D02*
X348803515Y-269663300D01*
X348775622Y-269707215D02*
X348803515Y-269663300D01*
X348775622Y-269707215D02*
X348775622Y-269707215D01*
X348749774Y-269752167D02*
X348775622Y-269707215D01*
X348749774Y-269752167D02*
X348749774Y-269752167D01*
X348725512Y-269799195D02*
X348749774Y-269752167D01*
X348725512Y-269799195D02*
X348725512Y-269799195D01*
X348704821Y-269846222D02*
X348725512Y-269799195D01*
X348704821Y-269846222D02*
X348704821Y-269846222D01*
X348685687Y-269895295D02*
X348704821Y-269846222D01*
X348685687Y-269895295D02*
X348685687Y-269895295D01*
X348668628Y-269945405D02*
X348685687Y-269895295D01*
X348668628Y-269945405D02*
X348668628Y-269945405D01*
X348653674Y-269997101D02*
X348668628Y-269945405D01*
X348653674Y-269997101D02*
X348653674Y-269997101D01*
X348641742Y-270049286D02*
X348653674Y-269997101D01*
X348641742Y-270049286D02*
X348641742Y-270049286D01*
X348632434Y-270102509D02*
X348641742Y-270049286D01*
X348632434Y-270102509D02*
X348632434Y-270102509D01*
X348625720Y-270156220D02*
X348632434Y-270102509D01*
X348625720Y-270156220D02*
X348625720Y-270156220D01*
X348621600Y-270210999D02*
X348625720Y-270156220D01*
X348621600Y-270210999D02*
X348621600Y-270210999D01*
X348619525Y-270266297D02*
X348621600Y-270210999D01*
X348619525Y-270266297D02*
X348619525Y-270266297D01*
X348621600Y-270322114D02*
X348619525Y-270266297D01*
X348621600Y-270322114D02*
X348621600Y-270322114D01*
X348625720Y-270376404D02*
X348621600Y-270322114D01*
X348625720Y-270376404D02*
X348625720Y-270376404D01*
X348632434Y-270430146D02*
X348625720Y-270376404D01*
X348632434Y-270430146D02*
X348632434Y-270430146D01*
X348641742Y-270483368D02*
X348632434Y-270430146D01*
X348641742Y-270483368D02*
X348641742Y-270483368D01*
X348653674Y-270536072D02*
X348641742Y-270483368D01*
X348653674Y-270536072D02*
X348653674Y-270536072D01*
X348668628Y-270587250D02*
X348653674Y-270536072D01*
X348668628Y-270587250D02*
X348668628Y-270587250D01*
X348685687Y-270637391D02*
X348668628Y-270587250D01*
X348685687Y-270637391D02*
X348685687Y-270637391D01*
X348704791Y-270686463D02*
X348685687Y-270637391D01*
X348704791Y-270686463D02*
X348704791Y-270686463D01*
X348725482Y-270734528D02*
X348704791Y-270686463D01*
X348725482Y-270734528D02*
X348725482Y-270734528D01*
X348749743Y-270780518D02*
X348725482Y-270734528D01*
X348749743Y-270780518D02*
X348749743Y-270780518D01*
X348775592Y-270825470D02*
X348749743Y-270780518D01*
X348775592Y-270825470D02*
X348775592Y-270825470D01*
X348803485Y-270869416D02*
X348775592Y-270825470D01*
X348803485Y-270869416D02*
X348803485Y-270869416D01*
X348833484Y-270911255D02*
X348803485Y-270869416D01*
X348833484Y-270911255D02*
X348833484Y-270911255D01*
X348865496Y-270952088D02*
X348833484Y-270911255D01*
X348865496Y-270952088D02*
X348865496Y-270952088D01*
X348899615Y-270991364D02*
X348865496Y-270952088D01*
X348899615Y-270991364D02*
X348899615Y-270991364D01*
X348935778Y-271028077D02*
X348899615Y-270991364D01*
X348935778Y-271028077D02*
X348935778Y-271028077D01*
X348972491Y-271064271D02*
X348935778Y-271028077D01*
X348972491Y-271064271D02*
X348972491Y-271064271D01*
X349011767Y-271098359D02*
X348972491Y-271064271D01*
X349011767Y-271098359D02*
X349011767Y-271098359D01*
X349052600Y-271130402D02*
X349011767Y-271098359D01*
X349052600Y-271130402D02*
X349052600Y-271130402D01*
X349094470Y-271160401D02*
X349052600Y-271130402D01*
X349094470Y-271160401D02*
X349094470Y-271160401D01*
X349138903Y-271188294D02*
X349094470Y-271160401D01*
X349138903Y-271188294D02*
X349138903Y-271188294D01*
X349183856Y-271214112D02*
X349138903Y-271188294D01*
X349183856Y-271214112D02*
X349183856Y-271214112D01*
X349230883Y-271238404D02*
X349183856Y-271214112D01*
X349230883Y-271238404D02*
X349230883Y-271238404D01*
X349278430Y-271260102D02*
X349230883Y-271238404D01*
X349278430Y-271260102D02*
X349278430Y-271260102D01*
X349327502Y-271279236D02*
X349278430Y-271260102D01*
X349327502Y-271279236D02*
X349327502Y-271279236D01*
X349377673Y-271296296D02*
X349327502Y-271279236D01*
X349377673Y-271296296D02*
X349377673Y-271296296D01*
X349428820Y-271310242D02*
X349377673Y-271296296D01*
X349428820Y-271310242D02*
X349428820Y-271310242D01*
X349480517Y-271322114D02*
X349428820Y-271310242D01*
X349480517Y-271322114D02*
X349480517Y-271322114D01*
X349533740Y-271332459D02*
X349480517Y-271322114D01*
X349533740Y-271332459D02*
X349533740Y-271332459D01*
X349587451Y-271339173D02*
X349533740Y-271332459D01*
X349587451Y-271339173D02*
X349587451Y-271339173D01*
X349642749Y-271343293D02*
X349587451Y-271339173D01*
X349642749Y-271343293D02*
X349642749Y-271343293D01*
X349697528Y-271344330D02*
X349642749Y-271343293D01*
X349697528Y-271344330D02*
X349697528Y-271344330D01*
X349753863Y-271343293D02*
X349697528Y-271344330D01*
X349753863Y-271343293D02*
X349753863Y-271343293D01*
X349808642Y-271339173D02*
X349753863Y-271343293D01*
X349808642Y-271339173D02*
X349808642Y-271339173D01*
X349862902Y-271332459D02*
X349808642Y-271339173D01*
X349862902Y-271332459D02*
X349862902Y-271332459D01*
X349915606Y-271322114D02*
X349862902Y-271332459D01*
X349915606Y-271322114D02*
X349915606Y-271322114D01*
X349967791Y-271310242D02*
X349915606Y-271322114D01*
X349967791Y-271310242D02*
X349967791Y-271310242D01*
X350018451Y-271296296D02*
X349967791Y-271310242D01*
X350018451Y-271296296D02*
X350018451Y-271296296D01*
X350068591Y-271279236D02*
X350018451Y-271296296D01*
X350068591Y-271279236D02*
X350068591Y-271279236D01*
X350117694Y-271260132D02*
X350068591Y-271279236D01*
X350117694Y-271260132D02*
X350117694Y-271260132D01*
X350165759Y-271238434D02*
X350117694Y-271260132D01*
X350165759Y-271238434D02*
X350165759Y-271238434D01*
X350211749Y-271214142D02*
X350165759Y-271238434D01*
X350211749Y-271214142D02*
X350211749Y-271214142D01*
X350256701Y-271188294D02*
X350211749Y-271214142D01*
X350256701Y-271188294D02*
X350256701Y-271188294D01*
X350300647Y-271160401D02*
X350256701Y-271188294D01*
X350300647Y-271160401D02*
X350300647Y-271160401D01*
X350342486Y-271130402D02*
X350300647Y-271160401D01*
X350342486Y-271130402D02*
X350342486Y-271130402D01*
X350383838Y-271098359D02*
X350342486Y-271130402D01*
X350383838Y-271098359D02*
X350383838Y-271098359D01*
X350422595Y-271064271D02*
X350383838Y-271098359D01*
X350422595Y-271064271D02*
X350422595Y-271064271D01*
X350460833Y-271028077D02*
X350422595Y-271064271D01*
X350460833Y-271028077D02*
X350460833Y-271028077D01*
X350495440Y-270991364D02*
X350460833Y-271028077D01*
X350495440Y-270991364D02*
X350495440Y-270991364D01*
X350529559Y-270952088D02*
X350495440Y-270991364D01*
X350529559Y-270952088D02*
X350529559Y-270952088D01*
X350561602Y-270911255D02*
X350529559Y-270952088D01*
X350561602Y-270911255D02*
X350561602Y-270911255D01*
X350591571Y-270869416D02*
X350561602Y-270911255D01*
X350591571Y-270869416D02*
X350591571Y-270869416D01*
X350619494Y-270825470D02*
X350591571Y-270869416D01*
X350619494Y-270825470D02*
X350619494Y-270825470D01*
X350645861Y-270780518D02*
X350619494Y-270825470D01*
X350645861Y-270780518D02*
X350645861Y-270780518D01*
X350669635Y-270734528D02*
X350645861Y-270780518D01*
X350669635Y-270734528D02*
X350669635Y-270734528D01*
X350691851Y-270686463D02*
X350669635Y-270734528D01*
X350691851Y-270686463D02*
X350691851Y-270686463D01*
X350710955Y-270637391D02*
X350691851Y-270686463D01*
X350710955Y-270637391D02*
X350710955Y-270637391D01*
X350727496Y-270587250D02*
X350710955Y-270637391D01*
X350727496Y-270587250D02*
X350727496Y-270587250D01*
X350742450Y-270536072D02*
X350727496Y-270587250D01*
X350742450Y-270536072D02*
X350742450Y-270536072D01*
X350754870Y-270483368D02*
X350742450Y-270536072D01*
X350754870Y-270483368D02*
X350754870Y-270483368D01*
X350763690Y-270430146D02*
X350754870Y-270483368D01*
X350763690Y-270430146D02*
X350763690Y-270430146D01*
X350770923Y-270376404D02*
X350763690Y-270430146D01*
X350770923Y-270376404D02*
X350770923Y-270376404D01*
X350774524Y-270322114D02*
X350770923Y-270376404D01*
X350774524Y-270322114D02*
X350774524Y-270322114D01*
X350776599Y-270266297D02*
X350774524Y-270322114D01*
X350776599Y-270266297D02*
X350776599Y-270266297D01*
X350774524Y-270210999D02*
X350776599Y-270266297D01*
X350774524Y-270210999D02*
X350774524Y-270210999D01*
X350770923Y-270156220D02*
X350774524Y-270210999D01*
X350770923Y-270156220D02*
X350770923Y-270156220D01*
X350763690Y-270102509D02*
X350770923Y-270156220D01*
X350763690Y-270102509D02*
X350763690Y-270102509D01*
X350754870Y-270049286D02*
X350763690Y-270102509D01*
X350754870Y-270049286D02*
X350754870Y-270049286D01*
X350742480Y-269997101D02*
X350754870Y-270049286D01*
X350742480Y-269997101D02*
X350742480Y-269997101D01*
X350727527Y-269945405D02*
X350742480Y-269997101D01*
X350727527Y-269945405D02*
X350727527Y-269945405D01*
X350710986Y-269895295D02*
X350727527Y-269945405D01*
X350710986Y-269895295D02*
X350710986Y-269895295D01*
X350691882Y-269846222D02*
X350710986Y-269895295D01*
X350691882Y-269846222D02*
X350691882Y-269846222D01*
X350669665Y-269799195D02*
X350691882Y-269846222D01*
X350669665Y-269799195D02*
X350669665Y-269799195D01*
X350645892Y-269752167D02*
X350669665Y-269799195D01*
X350645892Y-269752167D02*
X350645892Y-269752167D01*
X350619525Y-269707215D02*
X350645892Y-269752167D01*
X350619525Y-269707215D02*
X350619525Y-269707215D01*
X350591601Y-269663270D02*
X350619525Y-269707215D01*
X350591601Y-269663270D02*
X350591601Y-269663270D01*
X350561633Y-269621399D02*
X350591601Y-269663270D01*
X350561633Y-269621399D02*
X350561633Y-269621399D01*
X350529589Y-269580079D02*
X350561633Y-269621399D01*
X350529589Y-269580079D02*
X350529589Y-269580079D01*
X350495471Y-269541321D02*
X350529589Y-269580079D01*
X350495471Y-269541321D02*
X350495471Y-269541321D01*
X350460864Y-269504090D02*
X350495471Y-269541321D01*
X350460864Y-269504090D02*
X350460864Y-269504090D01*
X350422625Y-269468445D02*
X350460864Y-269504090D01*
X350422625Y-269468445D02*
X350422625Y-269468445D01*
X350383868Y-269434327D02*
X350422625Y-269468445D01*
X350383868Y-269434327D02*
X350383868Y-269434327D01*
X350342517Y-269402314D02*
X350383868Y-269434327D01*
X350342517Y-269402314D02*
X350342517Y-269402314D01*
X350300677Y-269372315D02*
X350342517Y-269402314D01*
X350300677Y-269372315D02*
X350300677Y-269372315D01*
X350256732Y-269344422D02*
X350300677Y-269372315D01*
X350256732Y-269344422D02*
X350256732Y-269344422D01*
X350211779Y-269318055D02*
X350256732Y-269344422D01*
X350211779Y-269318055D02*
X350211779Y-269318055D01*
X350165789Y-269294281D02*
X350211779Y-269318055D01*
X350165789Y-269294281D02*
X350165789Y-269294281D01*
X350117724Y-269273102D02*
X350165789Y-269294281D01*
X350117724Y-269273102D02*
X350117724Y-269273102D01*
X350068621Y-269253479D02*
X350117724Y-269273102D01*
X350068621Y-269253479D02*
X350068621Y-269253479D01*
X350018481Y-269236420D02*
X350068621Y-269253479D01*
X350018481Y-269236420D02*
X350018481Y-269236420D01*
X349967883Y-269222474D02*
X350018481Y-269236420D01*
X349967883Y-269222474D02*
X349967883Y-269222474D01*
X349915667Y-269210053D02*
X349967883Y-269222474D01*
X349915667Y-269210053D02*
X349915667Y-269210053D01*
X349862964Y-269200226D02*
X349915667Y-269210053D01*
X349862964Y-269200226D02*
X349862964Y-269200226D01*
X349808703Y-269193512D02*
X349862964Y-269200226D01*
X349808703Y-269193512D02*
X349808703Y-269193512D01*
X349753924Y-269189393D02*
X349808703Y-269193512D01*
X349753924Y-269189393D02*
X349753924Y-269189393D01*
X349697589Y-269188355D02*
X349753924Y-269189393D01*
X436137774Y-269189362D02*
X436190509Y-269188355D01*
X436137774Y-269189362D02*
X436137774Y-269189362D01*
X436084552Y-269193482D02*
X436137774Y-269189362D01*
X436084552Y-269193482D02*
X436084552Y-269193482D01*
X436031848Y-269200196D02*
X436084552Y-269193482D01*
X436031848Y-269200196D02*
X436031848Y-269200196D01*
X435979663Y-269208954D02*
X436031848Y-269200196D01*
X435979663Y-269208954D02*
X435979663Y-269208954D01*
X435928485Y-269220337D02*
X435979663Y-269208954D01*
X435928485Y-269220337D02*
X435928485Y-269220337D01*
X435877887Y-269234284D02*
X435928485Y-269220337D01*
X435877887Y-269234284D02*
X435877887Y-269234284D01*
X435827777Y-269251343D02*
X435877887Y-269234284D01*
X435827777Y-269251343D02*
X435827777Y-269251343D01*
X435778674Y-269270447D02*
X435827777Y-269251343D01*
X435778674Y-269270447D02*
X435778674Y-269270447D01*
X435730609Y-269291108D02*
X435778674Y-269270447D01*
X435730609Y-269291108D02*
X435730609Y-269291108D01*
X435683612Y-269315400D02*
X435730609Y-269291108D01*
X435683612Y-269315400D02*
X435683612Y-269315400D01*
X435637622Y-269341248D02*
X435683612Y-269315400D01*
X435637622Y-269341248D02*
X435637622Y-269341248D01*
X435592669Y-269369172D02*
X435637622Y-269341248D01*
X435592669Y-269369172D02*
X435592669Y-269369172D01*
X435549792Y-269399140D02*
X435592669Y-269369172D01*
X435549792Y-269399140D02*
X435549792Y-269399140D01*
X435507922Y-269432221D02*
X435549792Y-269399140D01*
X435507922Y-269432221D02*
X435507922Y-269432221D01*
X435467608Y-269467377D02*
X435507922Y-269432221D01*
X435467608Y-269467377D02*
X435467608Y-269467377D01*
X435428851Y-269504059D02*
X435467608Y-269467377D01*
X435428851Y-269504059D02*
X435428851Y-269504059D01*
X435391681Y-269542298D02*
X435428851Y-269504059D01*
X435391681Y-269542298D02*
X435391681Y-269542298D01*
X435357043Y-269583130D02*
X435391681Y-269542298D01*
X435357043Y-269583130D02*
X435357043Y-269583130D01*
X435325000Y-269625000D02*
X435357043Y-269583130D01*
X435325000Y-269625000D02*
X435325000Y-269625000D01*
X435293994Y-269668427D02*
X435325000Y-269625000D01*
X435293994Y-269668427D02*
X435293994Y-269668427D01*
X435265582Y-269712372D02*
X435293994Y-269668427D01*
X435265582Y-269712372D02*
X435265582Y-269712372D01*
X435239764Y-269758332D02*
X435265582Y-269712372D01*
X435239764Y-269758332D02*
X435239764Y-269758332D01*
X435216998Y-269805390D02*
X435239764Y-269758332D01*
X435216998Y-269805390D02*
X435216998Y-269805390D01*
X435194812Y-269853455D02*
X435216998Y-269805390D01*
X435194812Y-269853455D02*
X435194812Y-269853455D01*
X435175677Y-269903046D02*
X435194812Y-269853455D01*
X435175677Y-269903046D02*
X435175677Y-269903046D01*
X435159625Y-269952118D02*
X435175677Y-269903046D01*
X435159625Y-269952118D02*
X435159625Y-269952118D01*
X435145678Y-270003296D02*
X435159625Y-269952118D01*
X435145678Y-270003296D02*
X435145678Y-270003296D01*
X435133777Y-270055481D02*
X435145678Y-270003296D01*
X435133777Y-270055481D02*
X435133777Y-270055481D01*
X435125018Y-270107178D02*
X435133777Y-270055481D01*
X435125018Y-270107178D02*
X435125018Y-270107178D01*
X435117785Y-270160401D02*
X435125018Y-270107178D01*
X435117785Y-270160401D02*
X435117785Y-270160401D01*
X435113665Y-270213105D02*
X435117785Y-270160401D01*
X435113665Y-270213105D02*
X435113665Y-270213105D01*
X435112628Y-270266297D02*
X435113665Y-270213105D01*
X435112628Y-270266297D02*
X435112628Y-270266297D01*
X435113665Y-270320069D02*
X435112628Y-270266297D01*
X435113665Y-270320069D02*
X435113665Y-270320069D01*
X435117785Y-270373292D02*
X435113665Y-270320069D01*
X435117785Y-270373292D02*
X435117785Y-270373292D01*
X435125018Y-270425477D02*
X435117785Y-270373292D01*
X435125018Y-270425477D02*
X435125018Y-270425477D01*
X435133777Y-270477143D02*
X435125018Y-270425477D01*
X435133777Y-270477143D02*
X435133777Y-270477143D01*
X435145678Y-270529358D02*
X435133777Y-270477143D01*
X435145678Y-270529358D02*
X435145678Y-270529358D01*
X435159625Y-270580506D02*
X435145678Y-270529358D01*
X435159625Y-270580506D02*
X435159625Y-270580506D01*
X435175677Y-270630127D02*
X435159625Y-270580506D01*
X435175677Y-270630127D02*
X435175677Y-270630127D01*
X435194781Y-270679200D02*
X435175677Y-270630127D01*
X435194781Y-270679200D02*
X435194781Y-270679200D01*
X435216967Y-270727265D02*
X435194781Y-270679200D01*
X435216967Y-270727265D02*
X435216967Y-270727265D01*
X435239734Y-270774292D02*
X435216967Y-270727265D01*
X435239734Y-270774292D02*
X435239734Y-270774292D01*
X435265582Y-270820282D02*
X435239734Y-270774292D01*
X435265582Y-270820282D02*
X435265582Y-270820282D01*
X435293994Y-270864228D02*
X435265582Y-270820282D01*
X435293994Y-270864228D02*
X435293994Y-270864228D01*
X435325000Y-270908173D02*
X435293994Y-270864228D01*
X435325000Y-270908173D02*
X435325000Y-270908173D01*
X435357043Y-270949524D02*
X435325000Y-270908173D01*
X435357043Y-270949524D02*
X435357043Y-270949524D01*
X435391681Y-270990326D02*
X435357043Y-270949524D01*
X435391681Y-270990326D02*
X435391681Y-270990326D01*
X435428851Y-271028077D02*
X435391681Y-270990326D01*
X435428851Y-271028077D02*
X435428851Y-271028077D01*
X435467608Y-271065278D02*
X435428851Y-271028077D01*
X435467608Y-271065278D02*
X435467608Y-271065278D01*
X435507922Y-271100434D02*
X435467608Y-271065278D01*
X435507922Y-271100434D02*
X435507922Y-271100434D01*
X435549792Y-271133484D02*
X435507922Y-271100434D01*
X435549792Y-271133484D02*
X435549792Y-271133484D01*
X435592669Y-271163453D02*
X435549792Y-271133484D01*
X435592669Y-271163453D02*
X435592669Y-271163453D01*
X435637622Y-271191376D02*
X435592669Y-271163453D01*
X435637622Y-271191376D02*
X435637622Y-271191376D01*
X435683612Y-271217194D02*
X435637622Y-271191376D01*
X435683612Y-271217194D02*
X435683612Y-271217194D01*
X435730609Y-271241486D02*
X435683612Y-271217194D01*
X435730609Y-271241486D02*
X435730609Y-271241486D01*
X435778674Y-271262146D02*
X435730609Y-271241486D01*
X435778674Y-271262146D02*
X435778674Y-271262146D01*
X435827777Y-271281281D02*
X435778674Y-271262146D01*
X435827777Y-271281281D02*
X435827777Y-271281281D01*
X435877887Y-271298340D02*
X435827777Y-271281281D01*
X435877887Y-271298340D02*
X435877887Y-271298340D01*
X435928546Y-271312287D02*
X435877887Y-271298340D01*
X435928546Y-271312287D02*
X435928546Y-271312287D01*
X435979693Y-271323151D02*
X435928546Y-271312287D01*
X435979693Y-271323151D02*
X435979693Y-271323151D01*
X436031878Y-271332459D02*
X435979693Y-271323151D01*
X436031878Y-271332459D02*
X436031878Y-271332459D01*
X436084582Y-271339173D02*
X436031878Y-271332459D01*
X436084582Y-271339173D02*
X436084582Y-271339173D01*
X436137805Y-271343293D02*
X436084582Y-271339173D01*
X436137805Y-271343293D02*
X436137805Y-271343293D01*
X436190509Y-271344330D02*
X436137805Y-271343293D01*
X436190509Y-271344330D02*
X436190509Y-271344330D01*
X436246844Y-271343293D02*
X436190509Y-271344330D01*
X436246844Y-271343293D02*
X436246844Y-271343293D01*
X436301623Y-271339173D02*
X436246844Y-271343293D01*
X436301623Y-271339173D02*
X436301623Y-271339173D01*
X436355883Y-271332459D02*
X436301623Y-271339173D01*
X436355883Y-271332459D02*
X436355883Y-271332459D01*
X436408587Y-271322114D02*
X436355883Y-271332459D01*
X436408587Y-271322114D02*
X436408587Y-271322114D01*
X436460772Y-271310242D02*
X436408587Y-271322114D01*
X436460772Y-271310242D02*
X436460772Y-271310242D01*
X436511950Y-271296296D02*
X436460772Y-271310242D01*
X436511950Y-271296296D02*
X436511950Y-271296296D01*
X436561541Y-271279236D02*
X436511950Y-271296296D01*
X436561541Y-271279236D02*
X436561541Y-271279236D01*
X436610644Y-271260132D02*
X436561541Y-271279236D01*
X436610644Y-271260132D02*
X436610644Y-271260132D01*
X436658709Y-271238434D02*
X436610644Y-271260132D01*
X436658709Y-271238434D02*
X436658709Y-271238434D01*
X436704699Y-271214142D02*
X436658709Y-271238434D01*
X436704699Y-271214142D02*
X436704699Y-271214142D01*
X436749652Y-271188294D02*
X436704699Y-271214142D01*
X436749652Y-271188294D02*
X436749652Y-271188294D01*
X436793597Y-271160401D02*
X436749652Y-271188294D01*
X436793597Y-271160401D02*
X436793597Y-271160401D01*
X436835955Y-271130402D02*
X436793597Y-271160401D01*
X436835955Y-271130402D02*
X436835955Y-271130402D01*
X436876788Y-271098359D02*
X436835955Y-271130402D01*
X436876788Y-271098359D02*
X436876788Y-271098359D01*
X436915545Y-271064271D02*
X436876788Y-271098359D01*
X436915545Y-271064271D02*
X436915545Y-271064271D01*
X436953784Y-271028077D02*
X436915545Y-271064271D01*
X436953784Y-271028077D02*
X436953784Y-271028077D01*
X436988910Y-270991364D02*
X436953784Y-271028077D01*
X436988910Y-270991364D02*
X436988910Y-270991364D01*
X437022509Y-270952088D02*
X436988910Y-270991364D01*
X437022509Y-270952088D02*
X437022509Y-270952088D01*
X437054553Y-270911255D02*
X437022509Y-270952088D01*
X437054553Y-270911255D02*
X437054553Y-270911255D01*
X437084521Y-270869416D02*
X437054553Y-270911255D01*
X437084521Y-270869416D02*
X437084521Y-270869416D01*
X437113971Y-270825470D02*
X437084521Y-270869416D01*
X437113971Y-270825470D02*
X437113971Y-270825470D01*
X437138781Y-270780518D02*
X437113971Y-270825470D01*
X437138781Y-270780518D02*
X437138781Y-270780518D01*
X437162555Y-270734528D02*
X437138781Y-270780518D01*
X437162555Y-270734528D02*
X437162555Y-270734528D01*
X437184741Y-270686463D02*
X437162555Y-270734528D01*
X437184741Y-270686463D02*
X437184741Y-270686463D01*
X437203875Y-270637391D02*
X437184741Y-270686463D01*
X437203875Y-270637391D02*
X437203875Y-270637391D01*
X437220935Y-270587250D02*
X437203875Y-270637391D01*
X437220935Y-270587250D02*
X437220935Y-270587250D01*
X437235919Y-270536072D02*
X437220935Y-270587250D01*
X437235919Y-270536072D02*
X437235919Y-270536072D01*
X437247790Y-270483368D02*
X437235919Y-270536072D01*
X437247790Y-270483368D02*
X437247790Y-270483368D01*
X437256579Y-270430146D02*
X437247790Y-270483368D01*
X437256579Y-270430146D02*
X437256579Y-270430146D01*
X437263812Y-270376404D02*
X437256579Y-270430146D01*
X437263812Y-270376404D02*
X437263812Y-270376404D01*
X437267962Y-270322114D02*
X437263812Y-270376404D01*
X437267962Y-270322114D02*
X437267962Y-270322114D01*
X437269488Y-270266297D02*
X437267962Y-270322114D01*
X437269488Y-270266297D02*
X437269488Y-270266297D01*
X437267962Y-270210999D02*
X437269488Y-270266297D01*
X437267962Y-270210999D02*
X437267962Y-270210999D01*
X437263812Y-270156220D02*
X437267962Y-270210999D01*
X437263812Y-270156220D02*
X437263812Y-270156220D01*
X437256579Y-270102509D02*
X437263812Y-270156220D01*
X437256579Y-270102509D02*
X437256579Y-270102509D01*
X437247790Y-270049286D02*
X437256579Y-270102509D01*
X437247790Y-270049286D02*
X437247790Y-270049286D01*
X437235919Y-269997101D02*
X437247790Y-270049286D01*
X437235919Y-269997101D02*
X437235919Y-269997101D01*
X437220935Y-269945405D02*
X437235919Y-269997101D01*
X437220935Y-269945405D02*
X437220935Y-269945405D01*
X437203875Y-269895295D02*
X437220935Y-269945405D01*
X437203875Y-269895295D02*
X437203875Y-269895295D01*
X437184741Y-269846222D02*
X437203875Y-269895295D01*
X437184741Y-269846222D02*
X437184741Y-269846222D01*
X437162555Y-269799195D02*
X437184741Y-269846222D01*
X437162555Y-269799195D02*
X437162555Y-269799195D01*
X437138781Y-269752167D02*
X437162555Y-269799195D01*
X437138781Y-269752167D02*
X437138781Y-269752167D01*
X437113971Y-269707215D02*
X437138781Y-269752167D01*
X437113971Y-269707215D02*
X437113971Y-269707215D01*
X437084521Y-269663270D02*
X437113971Y-269707215D01*
X437084521Y-269663270D02*
X437084521Y-269663270D01*
X437054553Y-269621399D02*
X437084521Y-269663270D01*
X437054553Y-269621399D02*
X437054553Y-269621399D01*
X437022509Y-269580079D02*
X437054553Y-269621399D01*
X437022509Y-269580079D02*
X437022509Y-269580079D01*
X436988910Y-269541321D02*
X437022509Y-269580079D01*
X436988910Y-269541321D02*
X436988910Y-269541321D01*
X436953784Y-269504090D02*
X436988910Y-269541321D01*
X436953784Y-269504090D02*
X436953784Y-269504090D01*
X436915545Y-269468445D02*
X436953784Y-269504090D01*
X436915545Y-269468445D02*
X436915545Y-269468445D01*
X436876788Y-269434327D02*
X436915545Y-269468445D01*
X436876788Y-269434327D02*
X436876788Y-269434327D01*
X436835955Y-269402314D02*
X436876788Y-269434327D01*
X436835955Y-269402314D02*
X436835955Y-269402314D01*
X436793597Y-269372315D02*
X436835955Y-269402314D01*
X436793597Y-269372315D02*
X436793597Y-269372315D01*
X436749652Y-269344422D02*
X436793597Y-269372315D01*
X436749652Y-269344422D02*
X436749652Y-269344422D01*
X436704699Y-269318055D02*
X436749652Y-269344422D01*
X436704699Y-269318055D02*
X436704699Y-269318055D01*
X436658709Y-269294281D02*
X436704699Y-269318055D01*
X436658709Y-269294281D02*
X436658709Y-269294281D01*
X436610644Y-269273102D02*
X436658709Y-269294281D01*
X436610644Y-269273102D02*
X436610644Y-269273102D01*
X436561541Y-269253479D02*
X436610644Y-269273102D01*
X436561541Y-269253479D02*
X436561541Y-269253479D01*
X436511950Y-269236420D02*
X436561541Y-269253479D01*
X436511950Y-269236420D02*
X436511950Y-269236420D01*
X436460772Y-269222474D02*
X436511950Y-269236420D01*
X436460772Y-269222474D02*
X436460772Y-269222474D01*
X436408587Y-269210053D02*
X436460772Y-269222474D01*
X436408587Y-269210053D02*
X436408587Y-269210053D01*
X436355883Y-269200226D02*
X436408587Y-269210053D01*
X436355883Y-269200226D02*
X436355883Y-269200226D01*
X436301623Y-269193512D02*
X436355883Y-269200226D01*
X436301623Y-269193512D02*
X436301623Y-269193512D01*
X436246844Y-269189393D02*
X436301623Y-269193512D01*
X436246844Y-269189393D02*
X436246844Y-269189393D01*
X436190509Y-269188355D02*
X436246844Y-269189393D01*
M02*
