<?xml version="1.0" encoding="UTF-8" standalone="no"?>
<svg
   version="1.1"
   width="36.147518cm"
   height="12.817877cm"
   viewBox="0 0 3.6147518e+08 1.2817876e+08"
   id="svg5726"
   sodipodi:docname="bottom.svg"
   inkscape:version="1.2 (dc2aedaf03, 2022-05-15)"
   inkscape:export-filename="..\case\acrylic\bottom.svg"
   inkscape:export-xdpi="96"
   inkscape:export-ydpi="96"
   xmlns:inkscape="http://www.inkscape.org/namespaces/inkscape"
   xmlns:sodipodi="http://sodipodi.sourceforge.net/DTD/sodipodi-0.dtd"
   xmlns="http://www.w3.org/2000/svg"
   xmlns:svg="http://www.w3.org/2000/svg"
   xmlns:rdf="http://www.w3.org/1999/02/22-rdf-syntax-ns#"
   xmlns:cc="http://creativecommons.org/ns#"
   xmlns:dc="http://purl.org/dc/elements/1.1/">
  <defs
     id="defs5730">
    <inkscape:path-effect
       effect="fillet_chamfer"
       id="path-effect5741"
       is_visible="true"
       lpeversion="1"
       nodesatellites_param="F,0,0,1,0,0,0,1 @ F,0,0,1,0,26458.333,0,1 @ F,0,0,1,0,26458.333,0,1 @ F,0,0,1,0,26458.333,0,1 @ F,0,0,1,0,26458.333,0,1 @ F,0,0,1,0,26458.333,0,1 @ F,0,0,1,0,26458.333,0,1 @ F,0,0,1,0,26458.333,0,1 @ F,0,0,1,0,0,0,1 @ F,0,0,1,0,26458.333,0,1 @ F,0,0,1,0,26458.333,0,1 @ F,0,0,1,0,26458.333,0,1 @ F,0,0,1,0,26458.333,0,1 @ F,0,0,1,0,26458.333,0,1 @ F,0,0,1,0,26458.333,0,1 @ F,0,0,1,0,26458.333,0,1 @ F,0,0,1,0,0,0,1 @ F,0,0,1,0,26458.333,0,1 @ F,0,0,1,0,26458.333,0,1 @ F,0,0,1,0,26458.333,0,1 @ F,0,0,1,0,26458.333,0,1 @ F,0,0,1,0,26458.333,0,1 @ F,0,0,1,0,26458.333,0,1 @ F,0,0,1,0,26458.333,0,1 @ F,0,0,1,0,0,0,1 @ F,0,0,1,0,26458.333,0,1 @ F,0,0,1,0,26458.333,0,1 @ F,0,0,1,0,26458.333,0,1 @ F,0,0,1,0,26458.333,0,1 @ F,0,0,1,0,26458.333,0,1 @ F,0,0,1,0,26458.333,0,1 @ F,0,0,1,0,26458.333,0,1 | F,0,0,1,0,0,0,1 @ F,0,0,1,0,26458.333,0,1 @ F,0,0,1,0,26458.333,0,1 @ F,0,0,1,0,26458.333,0,1 @ F,0,0,1,0,26458.333,0,1 @ F,0,0,1,0,26458.333,0,1 @ F,0,0,1,0,26458.333,0,1 @ F,0,0,1,0,26458.333,0,1 @ F,0,0,1,0,0,0,1 @ F,0,0,1,0,26458.333,0,1 @ F,0,0,1,0,26458.333,0,1 @ F,0,0,1,0,26458.333,0,1 @ F,0,0,1,0,26458.333,0,1 @ F,0,0,1,0,26458.333,0,1 @ F,0,0,1,0,26458.333,0,1 @ F,0,0,1,0,26458.333,0,1 @ F,0,0,1,0,0,0,1 @ F,0,0,1,0,26458.333,0,1 @ F,0,0,1,0,26458.333,0,1 @ F,0,0,1,0,26458.333,0,1 @ F,0,0,1,0,26458.333,0,1 @ F,0,0,1,0,26458.333,0,1 @ F,0,0,1,0,26458.333,0,1 @ F,0,0,1,0,26458.333,0,1 @ F,0,0,1,0,0,0,1 @ F,0,0,1,0,26458.333,0,1 @ F,0,0,1,0,26458.333,0,1 @ F,0,0,1,0,26458.333,0,1 @ F,0,0,1,0,26458.333,0,1 @ F,0,0,1,0,26458.333,0,1 @ F,0,0,1,0,26458.333,0,1 @ F,0,0,1,0,26458.333,0,1 | F,0,0,1,0,0,0,1 @ F,0,0,1,0,26458.333,0,1 @ F,0,0,1,0,26458.333,0,1 @ F,0,0,1,0,26458.333,0,1 @ F,0,0,1,0,26458.333,0,1 @ F,0,0,1,0,26458.333,0,1 @ F,0,0,1,0,26458.333,0,1 @ F,0,0,1,0,26458.333,0,1 @ F,0,0,1,0,0,0,1 @ F,0,0,1,0,26458.333,0,1 @ F,0,0,1,0,26458.333,0,1 @ F,0,0,1,0,26458.333,0,1 @ F,0,0,1,0,26458.333,0,1 @ F,0,0,1,0,26458.333,0,1 @ F,0,0,1,0,26458.333,0,1 @ F,0,0,1,0,26458.333,0,1 @ F,0,0,1,0,0,0,1 @ F,0,0,1,0,26458.333,0,1 @ F,0,0,1,0,26458.333,0,1 @ F,0,0,1,0,26458.333,0,1 @ F,0,0,1,0,26458.333,0,1 @ F,0,0,1,0,26458.333,0,1 @ F,0,0,1,0,26458.333,0,1 @ F,0,0,1,0,26458.333,0,1 @ F,0,0,1,0,0,0,1 @ F,0,0,1,0,26458.333,0,1 @ F,0,0,1,0,26458.333,0,1 @ F,0,0,1,0,26458.333,0,1 @ F,0,0,1,0,26458.333,0,1 @ F,0,0,1,0,26458.333,0,1 @ F,0,0,1,0,26458.333,0,1 @ F,0,0,1,0,26458.333,0,1 | F,0,0,1,0,0,0,1 @ F,0,0,1,0,26458.333,0,1 @ F,0,0,1,0,26458.333,0,1 @ F,0,0,1,0,26458.333,0,1 @ F,0,0,1,0,26458.333,0,1 @ F,0,0,1,0,26458.333,0,1 @ F,0,0,1,0,26458.333,0,1 @ F,0,0,1,0,26458.333,0,1 @ F,0,0,1,0,0,0,1 @ F,0,0,1,0,26458.333,0,1 @ F,0,0,1,0,26458.333,0,1 @ F,0,0,1,0,26458.333,0,1 @ F,0,0,1,0,26458.333,0,1 @ F,0,0,1,0,26458.333,0,1 @ F,0,0,1,0,26458.333,0,1 @ F,0,0,1,0,26458.333,0,1 @ F,0,0,1,0,0,0,1 @ F,0,0,1,0,26458.333,0,1 @ F,0,0,1,0,26458.333,0,1 @ F,0,0,1,0,26458.333,0,1 @ F,0,0,1,0,26458.333,0,1 @ F,0,0,1,0,26458.333,0,1 @ F,0,0,1,0,26458.333,0,1 @ F,0,0,1,0,26458.333,0,1 @ F,0,0,1,0,0,0,1 @ F,0,0,1,0,26458.333,0,1 @ F,0,0,1,0,26458.333,0,1 @ F,0,0,1,0,26458.333,0,1 @ F,0,0,1,0,26458.333,0,1 @ F,0,0,1,0,26458.333,0,1 @ F,0,0,1,0,26458.333,0,1 @ F,0,0,1,0,26458.333,0,1 | F,0,0,1,0,0,0,1 @ F,0,0,1,0,0,0,1 @ F,0,0,1,0,0,0,1 @ F,0,0,1,0,0,0,1 @ F,0,0,1,0,0,0,1 @ F,0,0,1,0,0,0,1 @ F,0,0,1,0,0,0,1 @ F,0,0,1,0,0,0,1 @ F,0,0,1,0,0,0,1 @ F,0,0,1,0,0,0,1 @ F,0,0,1,0,0,0,1 @ F,0,0,1,0,0,0,1 @ F,0,0,1,0,0,0,1 @ F,0,0,1,0,0,0,1 @ F,0,0,1,0,0,0,1 @ F,0,0,1,0,0,0,1 @ F,0,0,1,0,0,0,1 @ F,0,0,1,0,0,0,1 @ F,0,0,1,0,0,0,1 @ F,0,0,1,0,0,0,1 | F,0,0,1,0,0,0,1 @ F,0,0,1,0,0,0,1 @ F,0,0,1,0,0,0,1 @ F,0,0,1,0,0,0,1 @ F,0,0,1,0,0,0,1 @ F,0,0,1,0,0,0,1 @ F,0,0,1,0,0,0,1 @ F,0,0,1,0,0,0,1 @ F,0,0,1,0,0,0,1 @ F,0,0,1,0,0,0,1 @ F,0,0,1,0,0,0,1 @ F,0,0,1,0,0,0,1 @ F,0,0,1,0,0,0,1 @ F,0,0,1,0,0,0,1 @ F,0,0,1,0,0,0,1 @ F,0,0,1,0,0,0,1 @ F,0,0,1,0,0,0,1 @ F,0,0,1,0,0,0,1 @ F,0,0,1,0,0,0,1 @ F,0,0,1,0,0,0,1 | F,0,0,1,0,0,0,1 @ F,0,0,1,0,0,0,1 @ F,0,0,1,0,0,0,1 @ F,0,0,1,0,0,0,1 @ F,0,0,1,0,0,0,1 @ F,0,0,1,0,0,0,1 @ F,0,0,1,0,0,0,1 @ F,0,0,1,0,0,0,1 @ F,0,0,1,0,0,0,1 @ F,0,0,1,0,0,0,1 @ F,0,0,1,0,0,0,1 @ F,0,0,1,0,0,0,1 @ F,0,0,1,0,0,0,1 @ F,0,0,1,0,0,0,1 @ F,0,0,1,0,0,0,1 @ F,0,0,1,0,0,0,1 @ F,0,0,1,0,0,0,1 @ F,0,0,1,0,0,0,1 @ F,0,0,1,0,0,0,1 @ F,0,0,1,0,0,0,1 | F,0,0,1,0,0,0,1 @ F,0,0,1,0,0,0,1 @ F,0,0,1,0,0,0,1 @ F,0,0,1,0,0,0,1 @ F,0,0,1,0,0,0,1 @ F,0,0,1,0,0,0,1 @ F,0,0,1,0,0,0,1 @ F,0,0,1,0,0,0,1 @ F,0,0,1,0,0,0,1 @ F,0,0,1,0,0,0,1 @ F,0,0,1,0,0,0,1 @ F,0,0,1,0,0,0,1 @ F,0,0,1,0,0,0,1 @ F,0,0,1,0,0,0,1 @ F,0,0,1,0,0,0,1 @ F,0,0,1,0,0,0,1 @ F,0,0,1,0,0,0,1 @ F,0,0,1,0,0,0,1 @ F,0,0,1,0,0,0,1 @ F,0,0,1,0,0,0,1 | F,0,0,1,0,0,0,1 @ F,0,0,1,0,0,0,1 @ F,0,0,1,0,0,0,1 @ F,0,0,1,0,0,0,1 @ F,0,0,1,0,0,0,1 @ F,0,0,1,0,0,0,1 @ F,0,0,1,0,0,0,1 @ F,0,0,1,0,0,0,1 @ F,0,0,1,0,0,0,1 @ F,0,0,1,0,0,0,1 @ F,0,0,1,0,0,0,1 @ F,0,0,1,0,0,0,1 @ F,0,0,1,0,0,0,1 @ F,0,0,1,0,0,0,1 @ F,0,0,1,0,0,0,1 @ F,0,0,1,0,0,0,1 @ F,0,0,1,0,0,0,1 @ F,0,0,1,0,0,0,1 @ F,0,0,1,0,0,0,1 @ F,0,0,1,0,0,0,1 | F,0,0,1,0,0,0,1 @ F,0,0,1,0,0,0,1 @ F,0,0,1,0,0,0,1 @ F,0,0,1,0,0,0,1 @ F,0,0,1,0,0,0,1 @ F,0,0,1,0,0,0,1 @ F,0,0,1,0,0,0,1 @ F,0,0,1,0,0,0,1 @ F,0,0,1,0,0,0,1 @ F,0,0,1,0,0,0,1 @ F,0,0,1,0,0,0,1 @ F,0,0,1,0,0,0,1 @ F,0,0,1,0,0,0,1 @ F,0,0,1,0,0,0,1 @ F,0,0,1,0,0,0,1 @ F,0,0,1,0,0,0,1 @ F,0,0,1,0,0,0,1 @ F,0,0,1,0,0,0,1 @ F,0,0,1,0,0,0,1 @ F,0,0,1,0,0,0,1 | F,0,0,1,0,661458.33,0,1 @ F,0,1,1,0,6614583.3,0,1 @ F,0,1,1,0,6614583.3,0,1 @ F,0,0,1,0,6614583.3,0,1 @ F,0,0,1,0,6614583.3,0,1 @ F,0,0,1,0,661458.33,0,1 @ F,0,0,1,0,661458.33,0,1 @ F,0,0,1,0,661458.33,0,1"
       unit="px"
       method="auto"
       mode="F"
       radius="1000000"
       chamfer_steps="1"
       flexible="false"
       use_knot_distance="true"
       apply_no_radius="true"
       apply_with_radius="true"
       only_selected="true"
       hide_knots="false" />
  </defs>
  <sodipodi:namedview
     id="namedview5728"
     pagecolor="#ffffff"
     bordercolor="#000000"
     borderopacity="0.25"
     inkscape:showpageshadow="2"
     inkscape:pageopacity="0.0"
     inkscape:pagecheckerboard="0"
     inkscape:deskcolor="#d1d1d1"
     inkscape:document-units="cm"
     showgrid="false"
     inkscape:zoom="0.70710675"
     inkscape:cx="712.05656"
     inkscape:cy="465.27628"
     inkscape:window-width="1920"
     inkscape:window-height="1009"
     inkscape:window-x="1912"
     inkscape:window-y="-8"
     inkscape:window-maximized="1"
     inkscape:current-layer="g4582" />
  <title
     id="title2">SVG Picture created as dynamis-User_Drawings.svg date 2022/06/04 22:09:15 </title>
  <desc
     id="desc4">Picture generated by PCBNEW </desc>
  <g
     inkscape:groupmode="layer"
     id="g4582"
     inkscape:label="a-bottom"
     style="display:inline"
     transform="translate(-116434960,-184808950)">
    <path
       id="circle931-5"
       style="display:inline;fill:none;stroke:#ff8000;stroke-width:94523;stroke-opacity:1"
       transform="scale(-1,1)"
       d="m -437301470,190059580 c 0,132190 -12170,264080 -36360,394000 -2670,14370 -7290,37600 -10320,51900 -25550,120660 -61420,238890 -107220,353410 -5420,13570 -14490,35460 -20250,48890 -48590,113350 -106830,222330 -174090,325710 -7970,12250 -21130,31950 -29400,44000 -69770,101690 -148160,197210 -234290,285490 -10200,10460 -26960,27210 -37410,37410 -88280,86140 -183800,164520 -285490,234300 -12050,8260 -31750,21430 -44000,29390 -103390,67260 -212360,125500 -325710,174100 -13430,5750 -35320,14820 -48890,20250 -114520,45800 -232750,81660 -353410,107210 -14300,3030 -37540,7650 -51900,10320 -129920,24190 -261810,36360 -394000,36360 -132190,0 -264080,-12170 -394000,-36360 -14370,-2670 -37600,-7290 -51900,-10320 -120660,-25550 -238900,-61410 -353410,-107210 -13570,-5430 -35460,-14500 -48890,-20250 -113350,-48600 -222330,-106840 -325710,-174100 -12250,-7960 -31950,-21130 -44000,-29390 -101690,-69780 -197210,-148160 -285490,-234300 -10460,-10200 -27210,-26950 -37410,-37410 -86140,-88280 -164520,-183800 -234300,-285490 -8260,-12050 -21430,-31750 -29390,-44000 -67260,-103380 -125500,-212360 -174100,-325710 -5750,-13430 -14820,-35320 -20250,-48890 -45800,-114510 -81660,-232750 -107210,-353410 -3030,-14300 -7650,-37530 -10320,-51900 -24190,-129920 -36360,-261810 -36360,-394000 0,-132190 12180,-264080 36370,-394000 2670,-14360 7290,-37600 10320,-51900 25550,-120650 61410,-238890 107200,-353400 5430,-13570 14500,-35460 20250,-48890 48600,-113360 106840,-222330 174100,-325710 7960,-12250 21130,-31950 29390,-44000 69790,-101700 148170,-197210 234310,-285490 10200,-10450 26950,-27210 37410,-37410 88270,-86140 183790,-164520 285480,-234290 12050,-8270 31750,-21430 44000,-29400 103380,-67260 212360,-125500 325710,-174090 13430,-5760 35320,-14830 48890,-20260 114510,-45790 232750,-81660 353410,-107210 14300,-3030 37530,-7650 51900,-10320 129920,-24190 261810,-36360 394000,-36360 132190,0 264080,12170 394000,36360 14360,2670 37600,7290 51900,10320 120660,25550 238890,61420 353410,107210 13570,5430 35460,14500 48890,20260 113350,48590 222320,106830 325710,174090 12250,7970 31950,21130 44000,29400 101690,69770 197200,148160 285480,234290 10450,10200 27210,26960 37410,37410 86140,88280 164520,183790 234300,285490 8260,12050 21430,31750 29390,44000 67270,103380 125510,212350 174100,325710 5760,13430 14830,35320 20250,48890 45800,114510 81660,232750 107210,353400 3030,14300 7650,37540 10320,51900 24190,129920 36370,261810 36370,394000 z m 83494590,20 c 0,132190 -12170,264080 -36360,394000 -2670,14370 -7290,37600 -10320,51900 -25550,120660 -61420,238890 -107220,353410 -5420,13570 -14490,35460 -20250,48890 -48590,113350 -106830,222330 -174090,325710 -7970,12250 -21130,31950 -29400,44000 -69770,101690 -148160,197210 -234290,285490 -10200,10460 -26960,27210 -37410,37410 -88280,86140 -183800,164520 -285490,234300 -12050,8260 -31750,21430 -44000,29390 -103390,67260 -212360,125500 -325710,174100 -13430,5750 -35320,14820 -48890,20250 -114520,45800 -232750,81660 -353410,107210 -14300,3030 -37540,7650 -51900,10320 -129920,24190 -261810,36360 -394000,36360 -132190,0 -264080,-12170 -394000,-36360 -14370,-2670 -37600,-7290 -51900,-10320 -120660,-25550 -238900,-61410 -353410,-107210 -13570,-5430 -35460,-14500 -48890,-20250 -113350,-48600 -222330,-106840 -325710,-174100 -12250,-7960 -31950,-21130 -44000,-29390 -101690,-69780 -197210,-148160 -285490,-234300 -10460,-10200 -27210,-26950 -37410,-37410 -86140,-88280 -164520,-183800 -234300,-285490 -8260,-12050 -21430,-31750 -29390,-44000 -67260,-103380 -125500,-212360 -174100,-325710 -5750,-13430 -14820,-35320 -20250,-48890 -45800,-114510 -81660,-232750 -107210,-353410 -3030,-14300 -7650,-37530 -10320,-51900 -24190,-129920 -36360,-261810 -36360,-394000 0,-132190 12170,-264080 36360,-394000 2670,-14360 7290,-37600 10320,-51900 25550,-120660 61410,-238890 107210,-353410 5430,-13570 14500,-35460 20250,-48890 48600,-113350 106840,-222320 174100,-325710 7960,-12250 21130,-31950 29390,-44000 69780,-101690 148160,-197210 234300,-285490 10200,-10450 26950,-27210 37410,-37410 88280,-86130 183800,-164520 285490,-234290 12050,-8270 31750,-21430 44000,-29400 103380,-67260 212360,-125500 325710,-174090 13430,-5760 35320,-14830 48890,-20250 114520,-45800 232750,-81670 353410,-107220 14300,-3030 37530,-7650 51900,-10320 129920,-24190 261810,-36360 394000,-36360 132190,0 264080,12170 394000,36360 14360,2670 37600,7290 51900,10320 120660,25550 238890,61420 353410,107220 13570,5420 35460,14490 48890,20250 113350,48590 222320,106830 325710,174090 12250,7970 31950,21130 44000,29400 101690,69770 197210,148160 285490,234290 10450,10200 27210,26960 37410,37410 86130,88280 164520,183800 234290,285490 8270,12050 21430,31750 29400,44000 67260,103390 125500,212360 174090,325710 5760,13430 14830,35320 20250,48890 45800,114520 81670,232750 107220,353410 3030,14300 7650,37540 10320,51900 24190,129920 36360,261810 36360,394000 z m 113258890,0 c 0,132190 12170,264080 36360,394000 2670,14370 7290,37600 10320,51900 25550,120660 61410,238900 107210,353410 5430,13570 14500,35460 20250,48890 48600,113350 106840,222330 174100,325710 7960,12250 21130,31950 29390,44000 69780,101690 148160,197210 234300,285490 10200,10460 26950,27210 37410,37410 88280,86140 183800,164520 285490,234300 12050,8260 31750,21430 44000,29390 103380,67260 212360,125500 325710,174100 13430,5750 35320,14820 48890,20250 114510,45800 232750,81660 353410,107210 14300,3030 37530,7650 51900,10320 129920,24190 261810,36360 394000,36360 132190,0 264080,-12170 394000,-36360 14360,-2670 37600,-7290 51900,-10320 120660,-25550 238890,-61410 353410,-107210 13570,-5430 35460,-14500 48890,-20250 113350,-48600 222320,-106840 325710,-174100 12250,-7960 31950,-21130 44000,-29390 101690,-69780 197210,-148160 285490,-234300 10450,-10200 27210,-26950 37410,-37410 86130,-88280 164520,-183800 234290,-285490 8270,-12050 21430,-31750 29400,-44000 67260,-103380 125500,-212360 174090,-325710 5760,-13430 14830,-35320 20250,-48890 45800,-114520 81670,-232750 107220,-353410 3030,-14300 7650,-37530 10320,-51900 24190,-129920 36360,-261810 36360,-394000 0,-132190 -12170,-264080 -36360,-394000 -2670,-14360 -7290,-37600 -10320,-51900 -25550,-120660 -61420,-238890 -107220,-353410 -5420,-13570 -14490,-35460 -20250,-48890 -48590,-113350 -106830,-222320 -174090,-325710 -7970,-12250 -21130,-31950 -29400,-44000 -69770,-101690 -148160,-197210 -234290,-285490 -10200,-10450 -26960,-27210 -37410,-37410 -88280,-86130 -183800,-164520 -285490,-234290 -12050,-8270 -31750,-21430 -44000,-29400 -103390,-67260 -212360,-125500 -325710,-174090 -13430,-5760 -35320,-14830 -48890,-20250 -114520,-45800 -232750,-81670 -353410,-107220 -14300,-3030 -37540,-7650 -51900,-10320 -129920,-24190 -261810,-36360 -394000,-36360 -132190,0 -264080,12170 -394000,36360 -14370,2670 -37600,7290 -51900,10320 -120660,25550 -238890,61420 -353410,107220 -13570,5420 -35460,14490 -48890,20250 -113350,48590 -222330,106830 -325710,174090 -12250,7970 -31950,21130 -44000,29400 -101690,69770 -197210,148160 -285490,234290 -10460,10200 -27210,26960 -37410,37410 -86140,88280 -164520,183800 -234300,285490 -8260,12050 -21430,31750 -29390,44000 -67260,103390 -125500,212360 -174100,325710 -5750,13430 -14820,35320 -20250,48890 -45800,114520 -81660,232750 -107210,353410 -3030,14300 -7650,37540 -10320,51900 -24190,129920 -36360,261810 -36360,394000 z m 86464390,-20 c 0,132190 12170,264080 36360,394000 2670,14370 7290,37600 10320,51900 25550,120660 61410,238900 107210,353410 5430,13570 14500,35460 20250,48890 48600,113350 106840,222330 174100,325710 7960,12250 21130,31950 29390,44000 69780,101690 148160,197210 234300,285490 10200,10460 26950,27210 37410,37410 88280,86140 183800,164520 285490,234300 12050,8260 31750,21430 44000,29390 103380,67260 212360,125500 325710,174100 13430,5750 35320,14820 48890,20250 114510,45800 232750,81660 353410,107210 14300,3030 37530,7650 51900,10320 129920,24190 261810,36360 394000,36360 132190,0 264080,-12180 394000,-36370 14360,-2670 37600,-7290 51900,-10320 120650,-25550 238890,-61410 353400,-107200 13570,-5430 35460,-14500 48890,-20250 113360,-48600 222330,-106840 325710,-174100 12250,-7960 31950,-21130 44000,-29390 101700,-69790 197210,-148170 285490,-234310 10450,-10200 27210,-26950 37410,-37410 86140,-88270 164520,-183790 234290,-285480 8270,-12050 21430,-31750 29400,-44000 67260,-103380 125500,-212360 174090,-325710 5760,-13430 14830,-35320 20260,-48890 45790,-114510 81660,-232750 107210,-353410 3030,-14300 7650,-37530 10320,-51900 24190,-129920 36360,-261810 36360,-394000 0,-132190 -12180,-264080 -36370,-394000 -2670,-14360 -7290,-37600 -10320,-51900 -25550,-120650 -61410,-238890 -107210,-353400 -5420,-13570 -14490,-35460 -20250,-48890 -48590,-113360 -106830,-222330 -174090,-325710 -7960,-12250 -21130,-31950 -29400,-44000 -69770,-101690 -148160,-197210 -234290,-285490 -10200,-10450 -26960,-27210 -37410,-37410 -88280,-86130 -183800,-164520 -285490,-234290 -12050,-8270 -31750,-21440 -44000,-29400 -103380,-67260 -212350,-125500 -325710,-174090 -13430,-5760 -35320,-14830 -48890,-20250 -114510,-45800 -232750,-81660 -353400,-107210 -14300,-3030 -37540,-7650 -51900,-10320 -129920,-24190 -261810,-36370 -394000,-36370 -132190,0 -264080,12170 -394000,36360 -14370,2670 -37600,7290 -51900,10320 -120660,25550 -238900,61420 -353410,107210 -13570,5430 -35460,14500 -48890,20260 -113350,48590 -222330,106830 -325710,174090 -12250,7970 -31950,21130 -44000,29400 -101690,69770 -197210,148150 -285480,234290 -10460,10200 -27210,26960 -37410,37410 -86140,88280 -164520,183790 -234310,285490 -8260,12050 -21430,31750 -29390,44000 -67260,103380 -125500,212350 -174100,325710 -5750,13430 -14820,35320 -20250,48890 -45790,114510 -81650,232750 -107200,353400 -3030,14300 -7650,37540 -10320,51900 -24190,129920 -36370,261810 -36370,394000 z m -284290400,117715140 c 0,-70500 -6930,-140840 -20680,-209990 -13760,-69150 -34270,-136780 -61250,-201920 -54100,-130590 -133380,-249250 -233330,-349200 -99950,-99950 -218610,-179230 -349200,-233330 -65140,-26980 -132770,-47490 -201920,-61250 -69150,-13750 -139490,-20680 -209990,-20680 -70510,0 -140840,6930 -209990,20680 -69150,13760 -136780,34270 -201920,61250 -130590,54100 -249250,133380 -349200,233330 -99950,99950 -179230,218610 -233330,349200 -54090,130590 -81930,270560 -81930,411910 0,141350 27840,281320 81930,411910 54100,130590 133380,249250 233330,349200 99950,99950 218610,179230 349200,233330 130590,54090 270560,81930 411910,81930 141350,0 281320,-27840 411910,-81930 130590,-54100 249250,-133380 349200,-233330 99950,-99950 179230,-218610 233330,-349200 26980,-65140 47490,-132770 61250,-201920 13750,-69150 20680,-139480 20680,-209990 z m 285366770,0 c 0,-70500 6930,-140840 20680,-209990 13760,-69150 34270,-136780 61250,-201920 54100,-130590 133380,-249250 233330,-349200 99950,-99950 218610,-179230 349200,-233330 65140,-26980 132770,-47490 201920,-61250 69150,-13750 139480,-20680 209990,-20680 70500,0 140840,6930 209990,20680 69150,13760 136780,34280 201920,61260 130590,54090 249240,133380 349190,233330 99950,99950 179230,218600 233330,349190 54090,130590 81930,270560 81930,411910 0,141350 -27840,281320 -81930,411910 -54100,130590 -133380,249250 -233330,349200 -99950,99950 -218600,179230 -349190,233320 -130590,54100 -270560,81940 -411910,81940 -141350,0 -281320,-27840 -411910,-81930 -130590,-54100 -249250,-133380 -349200,-233330 -99950,-99950 -179230,-218610 -233330,-349200 -26980,-65140 -47490,-132770 -61250,-201920 -13750,-69150 -20680,-139480 -20680,-209990 z m -319732510,-59953840 c 70500,0 140840,6930 209990,20680 69150,13760 136780,34280 201920,61260 130590,54090 249240,133380 349190,233330 99950,99950 179230,218600 233330,349190 54090,130590 81930,270560 81930,411910 0,141350 -27840,281320 -81930,411910 -54100,130590 -133380,249250 -233330,349200 -99950,99950 -218600,179230 -349190,233320 -130590,54100 -270560,81940 -411910,81940 -141350,0 -281320,-27840 -411910,-81930 -130590,-54100 -249250,-133380 -349200,-233330 -99950,-99950 -179230,-218610 -233330,-349200 -26980,-65140 -47490,-132770 -61250,-201920 -13750,-69150 -20680,-139480 -20680,-209990 0,-70500 6930,-140840 20680,-209990 13760,-69150 34270,-136780 61250,-201920 54100,-130590 133380,-249250 233330,-349200 99950,-99950 218610,-179230 349200,-233330 65140,-26980 132770,-47490 201920,-61250 69150,-13750 139480,-20680 209990,-20680 z m 351105690,-20 c -70510,0 -140840,6930 -209990,20680 -69150,13760 -136780,34270 -201920,61250 -130590,54100 -249250,133380 -349200,233330 -99950,99950 -179230,218610 -233330,349200 -26980,65140 -47490,132770 -61250,201920 -13750,69150 -20680,139490 -20680,209990 0,70510 6930,140840 20680,209990 13760,69150 34270,136780 61250,201920 54100,130590 133380,249250 233330,349200 99950,99950 218610,179230 349200,233330 130590,54090 270560,81930 411910,81930 141350,0 281320,-27840 411910,-81930 130590,-54100 249250,-133380 349200,-233330 99950,-99950 179230,-218610 233330,-349200 54090,-130590 81930,-270560 81930,-411910 0,-141350 -27840,-281320 -81930,-411910 -54100,-130590 -133380,-249250 -233330,-349200 -99950,-99950 -218610,-179230 -349200,-233330 -65140,-26980 -132770,-47490 -201920,-61250 -69150,-13750 -139490,-20680 -209990,-20680 z m -233246930,59953860 c 0,-141350 -27840,-281320 -81930,-411910 -54100,-130590 -133380,-249240 -233330,-349190 -99950,-99950 -218600,-179240 -349190,-233330 -65140,-26980 -132770,-47500 -201920,-61260 -69150,-13750 -139490,-20680 -209990,-20680 -70510,0 -140840,6930 -209990,20680 -69150,13760 -136780,34270 -201920,61250 -130590,54100 -249250,133380 -349200,233330 -99950,99950 -179230,218610 -233330,349200 -26980,65140 -47490,132770 -61250,201920 -13750,69150 -20680,139490 -20680,209990 0,70510 6930,140840 20680,209990 13760,69150 34270,136780 61250,201920 54100,130590 133380,249250 233330,349200 99950,99950 218610,179230 349200,233330 130590,54090 270560,81930 411910,81930 141350,0 281320,-27840 411910,-81940 130590,-54090 249240,-133370 349190,-233320 99950,-99950 179230,-218610 233330,-349200 54090,-130590 81930,-270560 81930,-411910 z m 115409360,0 c 0,-70500 6930,-140840 20680,-209990 13760,-69150 34270,-136780 61250,-201920 54100,-130590 133380,-249250 233330,-349200 99950,-99950 218610,-179230 349200,-233330 65140,-26980 132770,-47490 201920,-61250 69150,-13750 139480,-20680 209990,-20680 70500,0 140840,6930 209990,20680 69150,13760 136780,34270 201920,61250 130590,54100 249250,133380 349200,233330 99950,99950 179230,218610 233330,349200 54090,130590 81930,270560 81930,411910 0,141350 -27840,281320 -81930,411910 -54100,130590 -133380,249250 -233330,349200 -99950,99950 -218610,179230 -349200,233330 -130590,54090 -270560,81930 -411910,81930 -141350,0 -281320,-27840 -411910,-81930 -130590,-54100 -249250,-133380 -349200,-233330 -99950,-99950 -179230,-218610 -233330,-349200 -26980,-65140 -47490,-132770 -61250,-201920 -13750,-69150 -20680,-139480 -20680,-209990 z m -224702640,-122917470 -7074030,11650 a 6625484.4,6625484.4 134.95283 0 0 -6614570,6625470 l 0,114831500 a 6614583.3,6614583.3 45 0 0 6614580,6614580 h 348151480 a 6614583.3,6614583.3 135 0 0 6614580,-6614580 V 191494370 a 6615057.8,6615057.8 45.002055 0 0 -6614580,-6615050 l -322144880,-23110 a 661410.88,661410.88 135.00205 0 0 -661460,661410 v 9071530 a 661458.33,661458.33 135 0 1 -661460,661460 h -16286740 a 661458.33,661458.33 45 0 1 -661460,-661460 v -9071530 a 660370.01,660370.01 44.952826 0 0 -661460,-660370 z"
       inkscape:path-effect="#path-effect5741"
       inkscape:original-d="m -437301470,190059580 c 0,141010 -13850,281680 -41360,419980 -27510,138300 -68550,273560 -122510,403840 -53960,130270 -120590,254930 -198930,372180 -78340,117240 -168010,226510 -267720,326220 -99710,99710 -208980,189380 -326220,267720 -117250,78340 -241910,144970 -372180,198930 -130280,53970 -265540,95000 -403840,122510 -138300,27510 -278970,41360 -419980,41360 -141010,0 -281680,-13850 -419980,-41360 -138300,-27510 -273560,-68540 -403840,-122510 -130270,-53960 -254930,-120590 -372180,-198930 -117240,-78340 -226510,-168010 -326220,-267720 -99710,-99710 -189380,-208980 -267720,-326220 -78340,-117250 -144970,-241910 -198930,-372180 -53970,-130280 -95000,-265540 -122510,-403840 -27510,-138300 -41360,-278970 -41360,-419980 0,-141010 13860,-281680 41370,-419980 27510,-138300 68540,-273560 122500,-403830 53960,-130280 120590,-254940 198930,-372180 78350,-117250 168020,-226510 267730,-326220 99700,-99710 208970,-189380 326210,-267720 117250,-78340 241910,-144970 372180,-198930 130280,-53970 265540,-95000 403840,-122510 138300,-27510 278970,-41360 419980,-41360 141010,0 281680,13850 419980,41360 138300,27510 273560,68540 403840,122510 130270,53960 254930,120590 372180,198930 117240,78340 226500,168010 326210,267720 99710,99710 189380,208970 267720,326220 78350,117240 144980,241900 198940,372180 53960,130270 94990,265530 122500,403830 27510,138300 41370,278970 41370,419980 z m 83494590,20 c 0,141010 -13850,281680 -41360,419980 -27510,138300 -68550,273560 -122510,403840 -53960,130270 -120590,254930 -198930,372180 -78340,117240 -168010,226510 -267720,326220 -99710,99710 -208980,189380 -326220,267720 -117250,78340 -241910,144970 -372180,198930 -130280,53970 -265540,95000 -403840,122510 -138300,27510 -278970,41360 -419980,41360 -141010,0 -281680,-13850 -419980,-41360 -138300,-27510 -273560,-68540 -403840,-122510 -130270,-53960 -254930,-120590 -372180,-198930 -117240,-78340 -226510,-168010 -326220,-267720 -99710,-99710 -189380,-208980 -267720,-326220 -78340,-117250 -144970,-241910 -198930,-372180 -53970,-130280 -95000,-265540 -122510,-403840 -27510,-138300 -41360,-278970 -41360,-419980 0,-141010 13850,-281680 41360,-419980 27510,-138300 68540,-273560 122510,-403840 53960,-130270 120590,-254930 198930,-372180 78340,-117240 168010,-226510 267720,-326220 99710,-99710 208980,-189380 326220,-267720 117250,-78340 241910,-144970 372180,-198930 130280,-53960 265540,-95000 403840,-122510 138300,-27510 278970,-41360 419980,-41360 141010,0 281680,13850 419980,41360 138300,27510 273560,68550 403840,122510 130270,53960 254930,120590 372180,198930 117240,78340 226510,168010 326220,267720 99710,99710 189380,208980 267720,326220 78340,117250 144970,241910 198930,372180 53960,130280 95000,265540 122510,403840 27510,138300 41360,278970 41360,419980 z m 113258890,0 c 0,141010 13850,281680 41360,419980 27510,138300 68540,273560 122510,403840 53960,130270 120590,254930 198930,372180 78340,117240 168010,226510 267720,326220 99710,99710 208980,189380 326220,267720 117250,78340 241910,144970 372180,198930 130280,53970 265540,95000 403840,122510 138300,27510 278970,41360 419980,41360 141010,0 281680,-13850 419980,-41360 138300,-27510 273560,-68540 403840,-122510 130270,-53960 254930,-120590 372180,-198930 117240,-78340 226510,-168010 326220,-267720 99710,-99710 189380,-208980 267720,-326220 78340,-117250 144970,-241910 198930,-372180 53960,-130280 95000,-265540 122510,-403840 27510,-138300 41360,-278970 41360,-419980 0,-141010 -13850,-281680 -41360,-419980 -27510,-138300 -68550,-273560 -122510,-403840 -53960,-130270 -120590,-254930 -198930,-372180 -78340,-117240 -168010,-226510 -267720,-326220 -99710,-99710 -208980,-189380 -326220,-267720 -117250,-78340 -241910,-144970 -372180,-198930 -130280,-53960 -265540,-95000 -403840,-122510 -138300,-27510 -278970,-41360 -419980,-41360 -141010,0 -281680,13850 -419980,41360 -138300,27510 -273560,68550 -403840,122510 -130270,53960 -254930,120590 -372180,198930 -117240,78340 -226510,168010 -326220,267720 -99710,99710 -189380,208980 -267720,326220 -78340,117250 -144970,241910 -198930,372180 -53970,130280 -95000,265540 -122510,403840 -27510,138300 -41360,278970 -41360,419980 z m 86464390,-20 c 0,141010 13850,281680 41360,419980 27510,138300 68540,273560 122510,403840 53960,130270 120590,254930 198930,372180 78340,117240 168010,226510 267720,326220 99710,99710 208980,189380 326220,267720 117250,78340 241910,144970 372180,198930 130280,53970 265540,95000 403840,122510 138300,27510 278970,41360 419980,41360 141010,0 281680,-13860 419980,-41370 138300,-27510 273560,-68540 403830,-122500 130280,-53960 254940,-120590 372180,-198930 117250,-78350 226510,-168020 326220,-267730 99710,-99700 189380,-208970 267720,-326210 78340,-117250 144970,-241910 198930,-372180 53970,-130280 95000,-265540 122510,-403840 27510,-138300 41360,-278970 41360,-419980 0,-141010 -13860,-281680 -41370,-419980 -27510,-138300 -68540,-273560 -122500,-403830 -53960,-130280 -120590,-254940 -198930,-372180 -78340,-117240 -168010,-226510 -267720,-326220 -99710,-99710 -208980,-189380 -326220,-267720 -117240,-78340 -241900,-144970 -372180,-198930 -130270,-53960 -265530,-94990 -403830,-122500 -138300,-27510 -278970,-41370 -419980,-41370 -141010,0 -281680,13850 -419980,41360 -138300,27510 -273560,68540 -403840,122510 -130270,53960 -254930,120590 -372180,198930 -117240,78340 -226510,168010 -326210,267720 -99710,99710 -189380,208970 -267730,326220 -78340,117240 -144970,241900 -198930,372180 -53960,130270 -94990,265530 -122500,403830 -27510,138300 -41370,278970 -41370,419980 z m -284290400,117715140 c 0,-70500 -6930,-140840 -20680,-209990 -13760,-69150 -34270,-136780 -61250,-201920 -54100,-130590 -133380,-249250 -233330,-349200 -99950,-99950 -218610,-179230 -349200,-233330 -65140,-26980 -132770,-47490 -201920,-61250 -69150,-13750 -139490,-20680 -209990,-20680 -70510,0 -140840,6930 -209990,20680 -69150,13760 -136780,34270 -201920,61250 -130590,54100 -249250,133380 -349200,233330 -99950,99950 -179230,218610 -233330,349200 -54090,130590 -81930,270560 -81930,411910 0,141350 27840,281320 81930,411910 54100,130590 133380,249250 233330,349200 99950,99950 218610,179230 349200,233330 130590,54090 270560,81930 411910,81930 141350,0 281320,-27840 411910,-81930 130590,-54100 249250,-133380 349200,-233330 99950,-99950 179230,-218610 233330,-349200 26980,-65140 47490,-132770 61250,-201920 13750,-69150 20680,-139480 20680,-209990 z m 285366770,0 c 0,-70500 6930,-140840 20680,-209990 13760,-69150 34270,-136780 61250,-201920 54100,-130590 133380,-249250 233330,-349200 99950,-99950 218610,-179230 349200,-233330 65140,-26980 132770,-47490 201920,-61250 69150,-13750 139480,-20680 209990,-20680 70500,0 140840,6930 209990,20680 69150,13760 136780,34280 201920,61260 130590,54090 249240,133380 349190,233330 99950,99950 179230,218600 233330,349190 54090,130590 81930,270560 81930,411910 0,141350 -27840,281320 -81930,411910 -54100,130590 -133380,249250 -233330,349200 -99950,99950 -218600,179230 -349190,233320 -130590,54100 -270560,81940 -411910,81940 -141350,0 -281320,-27840 -411910,-81930 -130590,-54100 -249250,-133380 -349200,-233330 -99950,-99950 -179230,-218610 -233330,-349200 -26980,-65140 -47490,-132770 -61250,-201920 -13750,-69150 -20680,-139480 -20680,-209990 z m -319732510,-59953840 c 70500,0 140840,6930 209990,20680 69150,13760 136780,34280 201920,61260 130590,54090 249240,133380 349190,233330 99950,99950 179230,218600 233330,349190 54090,130590 81930,270560 81930,411910 0,141350 -27840,281320 -81930,411910 -54100,130590 -133380,249250 -233330,349200 -99950,99950 -218600,179230 -349190,233320 -130590,54100 -270560,81940 -411910,81940 -141350,0 -281320,-27840 -411910,-81930 -130590,-54100 -249250,-133380 -349200,-233330 -99950,-99950 -179230,-218610 -233330,-349200 -26980,-65140 -47490,-132770 -61250,-201920 -13750,-69150 -20680,-139480 -20680,-209990 0,-70500 6930,-140840 20680,-209990 13760,-69150 34270,-136780 61250,-201920 54100,-130590 133380,-249250 233330,-349200 99950,-99950 218610,-179230 349200,-233330 65140,-26980 132770,-47490 201920,-61250 69150,-13750 139480,-20680 209990,-20680 z m 351105690,-20 c -70510,0 -140840,6930 -209990,20680 -69150,13760 -136780,34270 -201920,61250 -130590,54100 -249250,133380 -349200,233330 -99950,99950 -179230,218610 -233330,349200 -26980,65140 -47490,132770 -61250,201920 -13750,69150 -20680,139490 -20680,209990 0,70510 6930,140840 20680,209990 13760,69150 34270,136780 61250,201920 54100,130590 133380,249250 233330,349200 99950,99950 218610,179230 349200,233330 130590,54090 270560,81930 411910,81930 141350,0 281320,-27840 411910,-81930 130590,-54100 249250,-133380 349200,-233330 99950,-99950 179230,-218610 233330,-349200 54090,-130590 81930,-270560 81930,-411910 0,-141350 -27840,-281320 -81930,-411910 -54100,-130590 -133380,-249250 -233330,-349200 -99950,-99950 -218610,-179230 -349200,-233330 -65140,-26980 -132770,-47490 -201920,-61250 -69150,-13750 -139490,-20680 -209990,-20680 z m -233246930,59953860 c 0,-141350 -27840,-281320 -81930,-411910 -54100,-130590 -133380,-249240 -233330,-349190 -99950,-99950 -218600,-179240 -349190,-233330 -65140,-26980 -132770,-47500 -201920,-61260 -69150,-13750 -139490,-20680 -209990,-20680 -70510,0 -140840,6930 -209990,20680 -69150,13760 -136780,34270 -201920,61250 -130590,54100 -249250,133380 -349200,233330 -99950,99950 -179230,218610 -233330,349200 -26980,65140 -47490,132770 -61250,201920 -13750,69150 -20680,139490 -20680,209990 0,70510 6930,140840 20680,209990 13760,69150 34270,136780 61250,201920 54100,130590 133380,249250 233330,349200 99950,99950 218610,179230 349200,233330 130590,54090 270560,81930 411910,81930 141350,0 281320,-27840 411910,-81940 130590,-54090 249240,-133370 349190,-233320 99950,-99950 179230,-218610 233330,-349200 54090,-130590 81930,-270560 81930,-411910 z m 115409360,0 c 0,-70500 6930,-140840 20680,-209990 13760,-69150 34270,-136780 61250,-201920 54100,-130590 133380,-249250 233330,-349200 99950,-99950 218610,-179230 349200,-233330 65140,-26980 132770,-47490 201920,-61250 69150,-13750 139480,-20680 209990,-20680 70500,0 140840,6930 209990,20680 69150,13760 136780,34270 201920,61250 130590,54100 249250,133380 349200,233330 99950,99950 179230,218610 233330,349200 54090,130590 81930,270560 81930,411910 0,141350 -27840,281320 -81930,411910 -54100,130590 -133380,249250 -233330,349200 -99950,99950 -218610,179230 -349200,233330 -130590,54090 -270560,81930 -411910,81930 -141350,0 -281320,-27840 -411910,-81930 -130590,-54100 -249250,-133380 -349200,-233330 -99950,-99950 -179230,-218610 -233330,-349200 -26980,-65140 -47490,-132770 -61250,-201920 -13750,-69150 -20680,-139480 -20680,-209990 z m -224041180,-122918560 -14350060,23630 v 128060660 h 361380640 V 184879790 l -329420920,-23630 v 10394450 h -17609660 z"
       sodipodi:nodetypes="sssssssssssssssssssssssssssssssssssssssssssssssssssssssssssssssssssssssssssssssssssssssssssssssssssssssssssssssssssssssssssssssssssssssssssssssssssssssssssssssssssssssssssssssssssssssssssssssssssssssssssssssssssssssssssssssssssssssssssssssssssssssssssssssssscccccc" />
  </g>
  <metadata
     id="metadata5612">
    <rdf:RDF>
      <cc:Work
         rdf:about="">
        <dc:title>SVG Picture created as dynamis-User_Drawings.svg date 2022/06/04 22:09:15 </dc:title>
      </cc:Work>
    </rdf:RDF>
  </metadata>
</svg>
