<?xml version="1.0" encoding="UTF-8" standalone="no"?>
<svg
   version="1.1"
   width="36.147518cm"
   height="12.815518cm"
   viewBox="0 0 3.6147518e+08 1.2815518e+08"
   id="svg5726"
   sodipodi:docname="feet-middle.svg"
   inkscape:version="1.2 (dc2aedaf03, 2022-05-15)"
   inkscape:export-filename="..\case\acrylic\feet-middle.svg"
   inkscape:export-xdpi="96"
   inkscape:export-ydpi="96"
   xmlns:inkscape="http://www.inkscape.org/namespaces/inkscape"
   xmlns:sodipodi="http://sodipodi.sourceforge.net/DTD/sodipodi-0.dtd"
   xmlns="http://www.w3.org/2000/svg"
   xmlns:svg="http://www.w3.org/2000/svg"
   xmlns:rdf="http://www.w3.org/1999/02/22-rdf-syntax-ns#"
   xmlns:cc="http://creativecommons.org/ns#"
   xmlns:dc="http://purl.org/dc/elements/1.1/">
  <defs
     id="defs5730">
    <inkscape:path-effect
       effect="fillet_chamfer"
       id="path-effect5741"
       is_visible="true"
       lpeversion="1"
       nodesatellites_param="F,0,0,1,0,0,0,1 @ F,0,0,1,0,0,0,1 @ F,0,0,1,0,0,0,1 @ F,0,0,1,0,0,0,1 @ F,0,0,1,0,0,0,1 @ F,0,0,1,0,0,0,1 @ F,0,0,1,0,0,0,1 @ F,0,0,1,0,0,0,1 @ F,0,0,1,0,0,0,1 @ F,0,0,1,0,0,0,1 @ F,0,0,1,0,0,0,1 @ F,0,0,1,0,0,0,1 @ F,0,0,1,0,0,0,1 @ F,0,0,1,0,0,0,1 @ F,0,0,1,0,0,0,1 @ F,0,0,1,0,0,0,1 @ F,0,0,1,0,0,0,1 @ F,0,0,1,0,0,0,1 @ F,0,0,1,0,0,0,1 @ F,0,0,1,0,0,0,1 @ F,0,0,1,0,0,0,1 @ F,0,0,1,0,0,0,1 @ F,0,0,1,0,0,0,1 @ F,0,0,1,0,0,0,1 @ F,0,0,1,0,0,0,1 @ F,0,0,1,0,0,0,1 @ F,0,0,1,0,0,0,1 @ F,0,0,1,0,0,0,1 @ F,0,0,1,0,0,0,1 @ F,0,0,1,0,0,0,1 @ F,0,0,1,0,0,0,1 @ F,0,0,1,0,0,0,1 | F,0,0,1,0,0,0,1 @ F,0,0,1,0,0,0,1 @ F,0,0,1,0,0,0,1 @ F,0,0,1,0,0,0,1 @ F,0,0,1,0,0,0,1 @ F,0,0,1,0,0,0,1 @ F,0,0,1,0,0,0,1 @ F,0,0,1,0,0,0,1 @ F,0,0,1,0,0,0,1 @ F,0,0,1,0,0,0,1 @ F,0,0,1,0,0,0,1 @ F,0,0,1,0,0,0,1 @ F,0,0,1,0,0,0,1 @ F,0,0,1,0,0,0,1 @ F,0,0,1,0,0,0,1 @ F,0,0,1,0,0,0,1 @ F,0,0,1,0,0,0,1 @ F,0,0,1,0,0,0,1 @ F,0,0,1,0,0,0,1 @ F,0,0,1,0,0,0,1 @ F,0,0,1,0,0,0,1 @ F,0,0,1,0,0,0,1 @ F,0,0,1,0,0,0,1 @ F,0,0,1,0,0,0,1 @ F,0,0,1,0,0,0,1 @ F,0,0,1,0,0,0,1 @ F,0,0,1,0,0,0,1 @ F,0,0,1,0,0,0,1 @ F,0,0,1,0,0,0,1 @ F,0,0,1,0,0,0,1 @ F,0,0,1,0,0,0,1 @ F,0,0,1,0,0,0,1 | F,0,0,1,0,0,0,1 @ F,0,0,1,0,0,0,1 @ F,0,0,1,0,0,0,1 @ F,0,0,1,0,0,0,1 @ F,0,0,1,0,0,0,1 @ F,0,0,1,0,0,0,1 @ F,0,0,1,0,0,0,1 @ F,0,0,1,0,0,0,1 @ F,0,0,1,0,0,0,1 @ F,0,0,1,0,0,0,1 @ F,0,0,1,0,0,0,1 @ F,0,0,1,0,0,0,1 @ F,0,0,1,0,0,0,1 @ F,0,0,1,0,0,0,1 @ F,0,0,1,0,0,0,1 @ F,0,0,1,0,0,0,1 @ F,0,0,1,0,0,0,1 @ F,0,0,1,0,0,0,1 @ F,0,0,1,0,0,0,1 @ F,0,0,1,0,0,0,1 @ F,0,0,1,0,0,0,1 @ F,0,0,1,0,0,0,1 @ F,0,0,1,0,0,0,1 @ F,0,0,1,0,0,0,1 @ F,0,0,1,0,0,0,1 @ F,0,0,1,0,0,0,1 @ F,0,0,1,0,0,0,1 @ F,0,0,1,0,0,0,1 @ F,0,0,1,0,0,0,1 @ F,0,0,1,0,0,0,1 @ F,0,0,1,0,0,0,1 @ F,0,0,1,0,0,0,1 | F,0,0,1,0,0,0,1 @ F,0,0,1,0,0,0,1 @ F,0,0,1,0,0,0,1 @ F,0,0,1,0,0,0,1 @ F,0,0,1,0,0,0,1 @ F,0,0,1,0,0,0,1 @ F,0,0,1,0,0,0,1 @ F,0,0,1,0,0,0,1 @ F,0,0,1,0,0,0,1 @ F,0,0,1,0,0,0,1 @ F,0,0,1,0,0,0,1 @ F,0,0,1,0,0,0,1 @ F,0,0,1,0,0,0,1 @ F,0,0,1,0,0,0,1 @ F,0,0,1,0,0,0,1 @ F,0,0,1,0,0,0,1 @ F,0,0,1,0,0,0,1 @ F,0,0,1,0,0,0,1 @ F,0,0,1,0,0,0,1 @ F,0,0,1,0,0,0,1 @ F,0,0,1,0,0,0,1 @ F,0,0,1,0,0,0,1 @ F,0,0,1,0,0,0,1 @ F,0,0,1,0,0,0,1 @ F,0,0,1,0,0,0,1 @ F,0,0,1,0,0,0,1 @ F,0,0,1,0,0,0,1 @ F,0,0,1,0,0,0,1 @ F,0,0,1,0,0,0,1 @ F,0,0,1,0,0,0,1 @ F,0,0,1,0,0,0,1 @ F,0,0,1,0,0,0,1 | F,0,0,1,0,0,0,1 @ F,0,0,1,0,0,0,1 @ F,0,0,1,0,0,0,1 @ F,0,0,1,0,0,0,1 @ F,0,0,1,0,0,0,1 @ F,0,0,1,0,0,0,1 @ F,0,0,1,0,0,0,1 @ F,0,0,1,0,0,0,1 @ F,0,0,1,0,0,0,1 @ F,0,0,1,0,0,0,1 @ F,0,0,1,0,0,0,1 @ F,0,0,1,0,0,0,1 @ F,0,0,1,0,0,0,1 @ F,0,0,1,0,0,0,1 @ F,0,0,1,0,0,0,1 @ F,0,0,1,0,0,0,1 @ F,0,0,1,0,0,0,1 @ F,0,0,1,0,0,0,1 @ F,0,0,1,0,0,0,1 @ F,0,0,1,0,0,0,1 | F,0,0,1,0,0,0,1 @ F,0,0,1,0,0,0,1 @ F,0,0,1,0,0,0,1 @ F,0,0,1,0,0,0,1 @ F,0,0,1,0,0,0,1 @ F,0,0,1,0,0,0,1 @ F,0,0,1,0,0,0,1 @ F,0,0,1,0,0,0,1 @ F,0,0,1,0,0,0,1 @ F,0,0,1,0,0,0,1 @ F,0,0,1,0,0,0,1 @ F,0,0,1,0,0,0,1 @ F,0,0,1,0,0,0,1 @ F,0,0,1,0,0,0,1 @ F,0,0,1,0,0,0,1 @ F,0,0,1,0,0,0,1 @ F,0,0,1,0,0,0,1 @ F,0,0,1,0,0,0,1 @ F,0,0,1,0,0,0,1 @ F,0,0,1,0,0,0,1 | F,0,0,1,0,0,0,1 @ F,0,0,1,0,0,0,1 @ F,0,0,1,0,0,0,1 @ F,0,0,1,0,0,0,1 @ F,0,0,1,0,0,0,1 @ F,0,0,1,0,0,0,1 @ F,0,0,1,0,0,0,1 @ F,0,0,1,0,0,0,1 @ F,0,0,1,0,0,0,1 @ F,0,0,1,0,0,0,1 @ F,0,0,1,0,0,0,1 @ F,0,0,1,0,0,0,1 @ F,0,0,1,0,0,0,1 @ F,0,0,1,0,0,0,1 @ F,0,0,1,0,0,0,1 @ F,0,0,1,0,0,0,1 @ F,0,0,1,0,0,0,1 @ F,0,0,1,0,0,0,1 @ F,0,0,1,0,0,0,1 @ F,0,0,1,0,0,0,1 | F,0,0,1,0,0,0,1 @ F,0,0,1,0,0,0,1 @ F,0,0,1,0,0,0,1 @ F,0,0,1,0,0,0,1 @ F,0,0,1,0,0,0,1 @ F,0,0,1,0,0,0,1 @ F,0,0,1,0,0,0,1 @ F,0,0,1,0,0,0,1 @ F,0,0,1,0,0,0,1 @ F,0,0,1,0,0,0,1 @ F,0,0,1,0,0,0,1 @ F,0,0,1,0,0,0,1 @ F,0,0,1,0,0,0,1 @ F,0,0,1,0,0,0,1 @ F,0,0,1,0,0,0,1 @ F,0,0,1,0,0,0,1 @ F,0,0,1,0,0,0,1 @ F,0,0,1,0,0,0,1 @ F,0,0,1,0,0,0,1 @ F,0,0,1,0,0,0,1 | F,0,0,1,0,0,0,1 @ F,0,0,1,0,0,0,1 @ F,0,0,1,0,0,0,1 @ F,0,0,1,0,0,0,1 @ F,0,0,1,0,0,0,1 @ F,0,0,1,0,0,0,1 @ F,0,0,1,0,0,0,1 @ F,0,0,1,0,0,0,1 @ F,0,0,1,0,0,0,1 @ F,0,0,1,0,0,0,1 @ F,0,0,1,0,0,0,1 @ F,0,0,1,0,0,0,1 @ F,0,0,1,0,0,0,1 @ F,0,0,1,0,0,0,1 @ F,0,0,1,0,0,0,1 @ F,0,0,1,0,0,0,1 @ F,0,0,1,0,0,0,1 @ F,0,0,1,0,0,0,1 @ F,0,0,1,0,0,0,1 @ F,0,0,1,0,0,0,1 | F,0,0,1,0,0,0,1 @ F,0,0,1,0,0,0,1 @ F,0,0,1,0,0,0,1 @ F,0,0,1,0,0,0,1 @ F,0,0,1,0,0,0,1 @ F,0,0,1,0,0,0,1 @ F,0,0,1,0,0,0,1 @ F,0,0,1,0,0,0,1 @ F,0,0,1,0,0,0,1 @ F,0,0,1,0,0,0,1 @ F,0,0,1,0,0,0,1 @ F,0,0,1,0,0,0,1 @ F,0,0,1,0,0,0,1 @ F,0,0,1,0,0,0,1 @ F,0,0,1,0,0,0,1 @ F,0,0,1,0,0,0,1 @ F,0,0,1,0,0,0,1 @ F,0,0,1,0,0,0,1 @ F,0,0,1,0,0,0,1 @ F,0,0,1,0,0,0,1 | F,0,0,1,0,6614583.3,0,1 @ F,0,1,1,0,6614583.3,0,1 @ F,0,0,1,0,6614583.3,0,1 @ F,0,0,1,0,6614583.3,0,1"
       unit="px"
       method="auto"
       mode="F"
       radius="1000000"
       chamfer_steps="1"
       flexible="false"
       use_knot_distance="true"
       apply_no_radius="true"
       apply_with_radius="true"
       only_selected="true"
       hide_knots="false" />
    <inkscape:path-effect
       effect="fillet_chamfer"
       id="path-effect5735"
       nodesatellites_param="F,0,0,1,0,0,0,1 @ F,0,0,1,0,0,0,1 @ F,0,0,1,0,0,0,1 @ F,0,0,1,0,0,0,1 @ F,0,0,1,0,0,0,1 @ F,0,0,1,0,0,0,1 @ F,0,0,1,0,0,0,1 @ F,0,0,1,0,0,0,1 @ F,0,0,1,0,0,0,1 @ F,0,0,1,0,0,0,1 @ F,0,0,1,0,0,0,1 @ F,0,0,1,0,0,0,1 @ F,0,0,1,0,0,0,1 @ F,0,0,1,0,0,0,1 @ F,0,0,1,0,0,0,1 @ F,0,0,1,0,0,0,1 @ F,0,0,1,0,0,0,1 @ F,0,0,1,0,0,0,1 @ F,0,0,1,0,0,0,1 @ F,0,0,1,0,0,0,1 | F,0,0,1,0,0,0,1 @ F,0,0,1,0,0,0,1 @ F,0,0,1,0,0,0,1 @ F,0,0,1,0,0,0,1 @ F,0,0,1,0,0,0,1 @ F,0,0,1,0,0,0,1 @ F,0,0,1,0,0,0,1 @ F,0,0,1,0,0,0,1 @ F,0,0,1,0,0,0,1 @ F,0,0,1,0,0,0,1 @ F,0,0,1,0,0,0,1 @ F,0,0,1,0,0,0,1 @ F,0,0,1,0,0,0,1 @ F,0,0,1,0,0,0,1 @ F,0,0,1,0,0,0,1 @ F,0,0,1,0,0,0,1 @ F,0,0,1,0,0,0,1 @ F,0,0,1,0,0,0,1 @ F,0,0,1,0,0,0,1 @ F,0,0,1,0,0,0,1 | F,0,0,1,0,0,0,1 @ F,0,0,1,0,0,0,1 @ F,0,0,1,0,0,0,1 @ F,0,0,1,0,0,0,1 @ F,0,0,1,0,0,0,1 @ F,0,0,1,0,0,0,1 @ F,0,0,1,0,0,0,1 @ F,0,0,1,0,0,0,1 @ F,0,0,1,0,0,0,1 @ F,0,0,1,0,0,0,1 @ F,0,0,1,0,0,0,1 @ F,0,0,1,0,0,0,1 @ F,0,0,1,0,0,0,1 @ F,0,0,1,0,0,0,1 @ F,0,0,1,0,0,0,1 @ F,0,0,1,0,0,0,1 @ F,0,0,1,0,0,0,1 @ F,0,0,1,0,0,0,1 @ F,0,0,1,0,0,0,1 @ F,0,0,1,0,0,0,1 | F,0,0,1,0,0,0,1 @ F,0,0,1,0,0,0,1 @ F,0,0,1,0,0,0,1 @ F,0,0,1,0,0,0,1 @ F,0,0,1,0,0,0,1 @ F,0,0,1,0,0,0,1 @ F,0,0,1,0,0,0,1 @ F,0,0,1,0,0,0,1 @ F,0,0,1,0,0,0,1 @ F,0,0,1,0,0,0,1 @ F,0,0,1,0,0,0,1 @ F,0,0,1,0,0,0,1 @ F,0,0,1,0,0,0,1 @ F,0,0,1,0,0,0,1 @ F,0,0,1,0,0,0,1 @ F,0,0,1,0,0,0,1 @ F,0,0,1,0,0,0,1 @ F,0,0,1,0,0,0,1 @ F,0,0,1,0,0,0,1 @ F,0,0,1,0,0,0,1 | F,0,0,1,0,6614583.3,0,1 @ F,0,0,1,0,6614583.3,0,1 @ F,0,0,1,0,661458.33,0,1 @ F,0,1,1,0,661458.33,0,1"
       is_visible="true"
       lpeversion="1"
       unit="px"
       method="auto"
       mode="F"
       radius="1000000"
       chamfer_steps="1"
       flexible="false"
       use_knot_distance="true"
       apply_no_radius="true"
       apply_with_radius="true"
       only_selected="true"
       hide_knots="false" />
    <inkscape:path-effect
       effect="fillet_chamfer"
       id="path-effect5737"
       is_visible="true"
       lpeversion="1"
       nodesatellites_param="F,0,0,1,0,6614583.3,0,1 @ F,0,0,1,0,6614583.3,0,1 @ F,0,1,1,0,661458.33,0,1 @ F,0,0,1,0,661458.33,0,1 | F,0,0,1,0,0,0,1 @ F,0,0,1,0,0,0,1 @ F,0,0,1,0,0,0,1 @ F,0,0,1,0,0,0,1 @ F,0,0,1,0,0,0,1 @ F,0,0,1,0,0,0,1 @ F,0,0,1,0,0,0,1 @ F,0,0,1,0,0,0,1 @ F,0,0,1,0,0,0,1 @ F,0,0,1,0,0,0,1 @ F,0,0,1,0,0,0,1 @ F,0,0,1,0,0,0,1 @ F,0,0,1,0,0,0,1 @ F,0,0,1,0,0,0,1 @ F,0,0,1,0,0,0,1 @ F,0,0,1,0,0,0,1 @ F,0,0,1,0,0,0,1 @ F,0,0,1,0,0,0,1 @ F,0,0,1,0,0,0,1 @ F,0,0,1,0,0,0,1 @ F,0,0,1,0,0,0,1 @ F,0,0,1,0,0,0,1 @ F,0,0,1,0,0,0,1 @ F,0,0,1,0,0,0,1 @ F,0,0,1,0,0,0,1 @ F,0,0,1,0,0,0,1 @ F,0,0,1,0,0,0,1 @ F,0,0,1,0,0,0,1 @ F,0,0,1,0,0,0,1 @ F,0,0,1,0,0,0,1 @ F,0,0,1,0,0,0,1 @ F,0,0,1,0,0,0,1 | F,0,0,1,0,0,0,1 @ F,0,0,1,0,0,0,1 @ F,0,0,1,0,0,0,1 @ F,0,0,1,0,0,0,1 @ F,0,0,1,0,0,0,1 @ F,0,0,1,0,0,0,1 @ F,0,0,1,0,0,0,1 @ F,0,0,1,0,0,0,1 @ F,0,0,1,0,0,0,1 @ F,0,0,1,0,0,0,1 @ F,0,0,1,0,0,0,1 @ F,0,0,1,0,0,0,1 @ F,0,0,1,0,0,0,1 @ F,0,0,1,0,0,0,1 @ F,0,0,1,0,0,0,1 @ F,0,0,1,0,0,0,1 @ F,0,0,1,0,0,0,1 @ F,0,0,1,0,0,0,1 @ F,0,0,1,0,0,0,1 @ F,0,0,1,0,0,0,1 @ F,0,0,1,0,0,0,1 @ F,0,0,1,0,0,0,1 @ F,0,0,1,0,0,0,1 @ F,0,0,1,0,0,0,1 @ F,0,0,1,0,0,0,1 @ F,0,0,1,0,0,0,1 @ F,0,0,1,0,0,0,1 @ F,0,0,1,0,0,0,1 @ F,0,0,1,0,0,0,1 @ F,0,0,1,0,0,0,1 @ F,0,0,1,0,0,0,1 @ F,0,0,1,0,0,0,1 | F,0,0,1,0,0,0,1 @ F,0,0,1,0,0,0,1 @ F,0,0,1,0,0,0,1 @ F,0,0,1,0,0,0,1 @ F,0,0,1,0,0,0,1 @ F,0,0,1,0,0,0,1 @ F,0,0,1,0,0,0,1 @ F,0,0,1,0,0,0,1 @ F,0,0,1,0,0,0,1 @ F,0,0,1,0,0,0,1 @ F,0,0,1,0,0,0,1 @ F,0,0,1,0,0,0,1 @ F,0,0,1,0,0,0,1 @ F,0,0,1,0,0,0,1 @ F,0,0,1,0,0,0,1 @ F,0,0,1,0,0,0,1 @ F,0,0,1,0,0,0,1 @ F,0,0,1,0,0,0,1 @ F,0,0,1,0,0,0,1 @ F,0,0,1,0,0,0,1 @ F,0,0,1,0,0,0,1 @ F,0,0,1,0,0,0,1 @ F,0,0,1,0,0,0,1 @ F,0,0,1,0,0,0,1 @ F,0,0,1,0,0,0,1 @ F,0,0,1,0,0,0,1 @ F,0,0,1,0,0,0,1 @ F,0,0,1,0,0,0,1 @ F,0,0,1,0,0,0,1 @ F,0,0,1,0,0,0,1 @ F,0,0,1,0,0,0,1 @ F,0,0,1,0,0,0,1 | F,0,0,1,0,0,0,1 @ F,0,0,1,0,0,0,1 @ F,0,0,1,0,0,0,1 @ F,0,0,1,0,0,0,1 @ F,0,0,1,0,0,0,1 @ F,0,0,1,0,0,0,1 @ F,0,0,1,0,0,0,1 @ F,0,0,1,0,0,0,1 @ F,0,0,1,0,0,0,1 @ F,0,0,1,0,0,0,1 @ F,0,0,1,0,0,0,1 @ F,0,0,1,0,0,0,1 @ F,0,0,1,0,0,0,1 @ F,0,0,1,0,0,0,1 @ F,0,0,1,0,0,0,1 @ F,0,0,1,0,0,0,1 @ F,0,0,1,0,0,0,1 @ F,0,0,1,0,0,0,1 @ F,0,0,1,0,0,0,1 @ F,0,0,1,0,0,0,1 @ F,0,0,1,0,0,0,1 @ F,0,0,1,0,0,0,1 @ F,0,0,1,0,0,0,1 @ F,0,0,1,0,0,0,1 @ F,0,0,1,0,0,0,1 @ F,0,0,1,0,0,0,1 @ F,0,0,1,0,0,0,1 @ F,0,0,1,0,0,0,1 @ F,0,0,1,0,0,0,1 @ F,0,0,1,0,0,0,1 @ F,0,0,1,0,0,0,1 @ F,0,0,1,0,0,0,1"
       unit="px"
       method="auto"
       mode="F"
       radius="1000000"
       chamfer_steps="1"
       flexible="false"
       use_knot_distance="true"
       apply_no_radius="true"
       apply_with_radius="true"
       only_selected="true"
       hide_knots="false" />
    <inkscape:path-effect
       effect="fillet_chamfer"
       id="path-effect1172"
       is_visible="true"
       lpeversion="1"
       nodesatellites_param="F,0,0,1,0,6614583.4,0,1 @ F,0,0,1,0,6614583.3,0,1 @ F,0,1,1,0,1322916.7,0,1 @ F,0,0,1,0,1322916.7,0,1 | F,0,0,1,0,0,0,1 @ F,0,0,1,0,0,0,1 @ F,0,0,1,0,0,0,1 @ F,0,0,1,0,0,0,1 @ F,0,0,1,0,0,0,1 @ F,0,0,1,0,0,0,1 @ F,0,0,1,0,0,0,1 @ F,0,0,1,0,0,0,1 @ F,0,0,1,0,0,0,1 @ F,0,0,1,0,0,0,1 @ F,0,0,1,0,0,0,1 @ F,0,0,1,0,0,0,1 @ F,0,0,1,0,0,0,1 @ F,0,0,1,0,0,0,1 @ F,0,0,1,0,0,0,1 @ F,0,0,1,0,0,0,1 @ F,0,0,1,0,0,0,1 @ F,0,0,1,0,0,0,1 @ F,0,0,1,0,0,0,1 @ F,0,0,1,0,0,0,1 @ F,0,0,1,0,0,0,1 @ F,0,0,1,0,0,0,1 @ F,0,0,1,0,0,0,1 @ F,0,0,1,0,0,0,1 @ F,0,0,1,0,0,0,1 @ F,0,0,1,0,0,0,1 @ F,0,0,1,0,0,0,1 @ F,0,0,1,0,0,0,1 @ F,0,0,1,0,0,0,1 @ F,0,0,1,0,0,0,1 @ F,0,0,1,0,0,0,1 @ F,0,0,1,0,0,0,1 | F,0,0,1,0,0,0,1 @ F,0,0,1,0,0,0,1 @ F,0,0,1,0,0,0,1 @ F,0,0,1,0,0,0,1 @ F,0,0,1,0,0,0,1 @ F,0,0,1,0,0,0,1 @ F,0,0,1,0,0,0,1 @ F,0,0,1,0,0,0,1 @ F,0,0,1,0,0,0,1 @ F,0,0,1,0,0,0,1 @ F,0,0,1,0,0,0,1 @ F,0,0,1,0,0,0,1 @ F,0,0,1,0,0,0,1 @ F,0,0,1,0,0,0,1 @ F,0,0,1,0,0,0,1 @ F,0,0,1,0,0,0,1 @ F,0,0,1,0,0,0,1 @ F,0,0,1,0,0,0,1 @ F,0,0,1,0,0,0,1 @ F,0,0,1,0,0,0,1 @ F,0,0,1,0,0,0,1 @ F,0,0,1,0,0,0,1 @ F,0,0,1,0,0,0,1 @ F,0,0,1,0,0,0,1 @ F,0,0,1,0,0,0,1 @ F,0,0,1,0,0,0,1 @ F,0,0,1,0,0,0,1 @ F,0,0,1,0,0,0,1 @ F,0,0,1,0,0,0,1 @ F,0,0,1,0,0,0,1 @ F,0,0,1,0,0,0,1 @ F,0,0,1,0,0,0,1 | F,0,0,1,0,0,0,1 @ F,0,0,1,0,0,0,1 @ F,0,0,1,0,0,0,1 @ F,0,0,1,0,0,0,1 @ F,0,0,1,0,0,0,1 @ F,0,0,1,0,0,0,1 @ F,0,0,1,0,0,0,1 @ F,0,0,1,0,0,0,1 @ F,0,0,1,0,0,0,1 @ F,0,0,1,0,0,0,1 @ F,0,0,1,0,0,0,1 @ F,0,0,1,0,0,0,1 @ F,0,0,1,0,0,0,1 @ F,0,0,1,0,0,0,1 @ F,0,0,1,0,0,0,1 @ F,0,0,1,0,0,0,1 @ F,0,0,1,0,0,0,1 @ F,0,0,1,0,0,0,1 @ F,0,0,1,0,0,0,1 @ F,0,0,1,0,0,0,1 @ F,0,0,1,0,0,0,1 @ F,0,0,1,0,0,0,1 @ F,0,0,1,0,0,0,1 @ F,0,0,1,0,0,0,1 @ F,0,0,1,0,0,0,1 @ F,0,0,1,0,0,0,1 @ F,0,0,1,0,0,0,1 @ F,0,0,1,0,0,0,1 @ F,0,0,1,0,0,0,1 @ F,0,0,1,0,0,0,1 @ F,0,0,1,0,0,0,1 @ F,0,0,1,0,0,0,1 | F,0,0,1,0,0,0,1 @ F,0,0,1,0,0,0,1 @ F,0,0,1,0,0,0,1 @ F,0,0,1,0,0,0,1 @ F,0,0,1,0,0,0,1 @ F,0,0,1,0,0,0,1 @ F,0,0,1,0,0,0,1 @ F,0,0,1,0,0,0,1 @ F,0,0,1,0,0,0,1 @ F,0,0,1,0,0,0,1 @ F,0,0,1,0,0,0,1 @ F,0,0,1,0,0,0,1 @ F,0,0,1,0,0,0,1 @ F,0,0,1,0,0,0,1 @ F,0,0,1,0,0,0,1 @ F,0,0,1,0,0,0,1 @ F,0,0,1,0,0,0,1 @ F,0,0,1,0,0,0,1 @ F,0,0,1,0,0,0,1 @ F,0,0,1,0,0,0,1 @ F,0,0,1,0,0,0,1 @ F,0,0,1,0,0,0,1 @ F,0,0,1,0,0,0,1 @ F,0,0,1,0,0,0,1 @ F,0,0,1,0,0,0,1 @ F,0,0,1,0,0,0,1 @ F,0,0,1,0,0,0,1 @ F,0,0,1,0,0,0,1 @ F,0,0,1,0,0,0,1 @ F,0,0,1,0,0,0,1 @ F,0,0,1,0,0,0,1 @ F,0,0,1,0,0,0,1"
       unit="px"
       method="auto"
       mode="F"
       radius="1000000"
       chamfer_steps="1"
       flexible="false"
       use_knot_distance="true"
       apply_no_radius="true"
       apply_with_radius="true"
       only_selected="true"
       hide_knots="false" />
  </defs>
  <sodipodi:namedview
     id="namedview5728"
     pagecolor="#ffffff"
     bordercolor="#000000"
     borderopacity="0.25"
     inkscape:showpageshadow="2"
     inkscape:pageopacity="0.0"
     inkscape:pagecheckerboard="0"
     inkscape:deskcolor="#d1d1d1"
     inkscape:document-units="cm"
     showgrid="false"
     inkscape:zoom="0.70710675"
     inkscape:cx="1567.6558"
     inkscape:cy="229.10261"
     inkscape:window-width="1920"
     inkscape:window-height="1009"
     inkscape:window-x="-8"
     inkscape:window-y="-8"
     inkscape:window-maximized="1"
     inkscape:current-layer="g4582" />
  <title
     id="title2">SVG Picture created as dynamis-User_Drawings.svg date 2022/06/04 22:09:15 </title>
  <desc
     id="desc4">Picture generated by PCBNEW </desc>
  <g
     inkscape:groupmode="layer"
     id="g4582"
     inkscape:label="a-bottom"
     style="display:inline"
     transform="translate(-116434960,-184832530)">
    <path
       id="rect4790"
       style="display:inline;fill:none;stroke:#ff8000;stroke-width:100000"
       d="m 123094070,184882530 348151480,0 a 6614583.3,6614583.3 45 0 1 6614580,6614580 v 7557570 a 1322903.4,1322903.4 135.00029 0 1 -1322920,1322910 l -358734800,-3610 a 1322930,1322930 45.000288 0 1 -1322920,-1322930 v -7553940 a 6614583.4,6614583.4 135 0 1 6614580,-6614580 z m 314204670,5179790 c 0,141010 13850,281680 41360,419980 27510,138300 68550,273560 122510,403840 53960,130270 120590,254930 198930,372180 78340,117240 168010,226510 267720,326220 99710,99710 208980,189380 326220,267720 117250,78340 241910,144970 372180,198930 130280,53970 265540,95000 403840,122510 138300,27510 278970,41360 419980,41360 141010,0 281680,-13850 419980,-41360 138300,-27510 273560,-68540 403840,-122510 130270,-53960 254930,-120590 372180,-198930 117240,-78340 226510,-168010 326220,-267720 99710,-99710 189380,-208980 267720,-326220 78340,-117250 144970,-241910 198930,-372180 53970,-130280 95000,-265540 122510,-403840 27510,-138300 41360,-278970 41360,-419980 0,-141010 -13860,-281680 -41370,-419980 -27510,-138300 -68540,-273560 -122500,-403830 -53960,-130280 -120590,-254940 -198930,-372180 -78350,-117250 -168020,-226510 -267730,-326220 -99700,-99710 -208970,-189380 -326210,-267720 -117250,-78340 -241910,-144970 -372180,-198930 -130280,-53970 -265540,-95000 -403840,-122510 -138300,-27510 -278970,-41360 -419980,-41360 -141010,0 -281680,13850 -419980,41360 -138300,27510 -273560,68540 -403840,122510 -130270,53960 -254930,120590 -372180,198930 -117240,78340 -226500,168010 -326210,267720 -99710,99710 -189380,208970 -267720,326220 -78350,117240 -144980,241900 -198940,372180 -53960,130270 -94990,265530 -122500,403830 -27510,138300 -41370,278970 -41370,419980 z m -83494590,20 c 0,141010 13850,281680 41360,419980 27510,138300 68550,273560 122510,403840 53960,130270 120590,254930 198930,372180 78340,117240 168010,226510 267720,326220 99710,99710 208980,189380 326220,267720 117250,78340 241910,144970 372180,198930 130280,53970 265540,95000 403840,122510 138300,27510 278970,41360 419980,41360 141010,0 281680,-13850 419980,-41360 138300,-27510 273560,-68540 403840,-122510 130270,-53960 254930,-120590 372180,-198930 117240,-78340 226510,-168010 326220,-267720 99710,-99710 189380,-208980 267720,-326220 78340,-117250 144970,-241910 198930,-372180 53970,-130280 95000,-265540 122510,-403840 27510,-138300 41360,-278970 41360,-419980 0,-141010 -13850,-281680 -41360,-419980 -27510,-138300 -68540,-273560 -122510,-403840 -53960,-130270 -120590,-254930 -198930,-372180 -78340,-117240 -168010,-226510 -267720,-326220 -99710,-99710 -208980,-189380 -326220,-267720 -117250,-78340 -241910,-144970 -372180,-198930 -130280,-53960 -265540,-95000 -403840,-122510 -138300,-27510 -278970,-41360 -419980,-41360 -141010,0 -281680,13850 -419980,41360 -138300,27510 -273560,68550 -403840,122510 -130270,53960 -254930,120590 -372180,198930 -117240,78340 -226510,168010 -326220,267720 -99710,99710 -189380,208980 -267720,326220 -78340,117250 -144970,241910 -198930,372180 -53960,130280 -95000,265540 -122510,403840 -27510,138300 -41360,278970 -41360,419980 z m -113258890,0 c 0,141010 -13850,281680 -41360,419980 -27510,138300 -68540,273560 -122510,403840 -53960,130270 -120590,254930 -198930,372180 -78340,117240 -168010,226510 -267720,326220 -99710,99710 -208980,189380 -326220,267720 -117250,78340 -241910,144970 -372180,198930 -130280,53970 -265540,95000 -403840,122510 -138300,27510 -278970,41360 -419980,41360 -141010,0 -281680,-13850 -419980,-41360 -138300,-27510 -273560,-68540 -403840,-122510 -130270,-53960 -254930,-120590 -372180,-198930 -117240,-78340 -226510,-168010 -326220,-267720 -99710,-99710 -189380,-208980 -267720,-326220 -78340,-117250 -144970,-241910 -198930,-372180 -53960,-130280 -95000,-265540 -122510,-403840 -27510,-138300 -41360,-278970 -41360,-419980 0,-141010 13850,-281680 41360,-419980 27510,-138300 68550,-273560 122510,-403840 53960,-130270 120590,-254930 198930,-372180 78340,-117240 168010,-226510 267720,-326220 99710,-99710 208980,-189380 326220,-267720 117250,-78340 241910,-144970 372180,-198930 130280,-53960 265540,-95000 403840,-122510 138300,-27510 278970,-41360 419980,-41360 141010,0 281680,13850 419980,41360 138300,27510 273560,68550 403840,122510 130270,53960 254930,120590 372180,198930 117240,78340 226510,168010 326220,267720 99710,99710 189380,208980 267720,326220 78340,117250 144970,241910 198930,372180 53970,130280 95000,265540 122510,403840 27510,138300 41360,278970 41360,419980 z m -86464390,-20 c 0,141010 -13850,281680 -41360,419980 -27510,138300 -68540,273560 -122510,403840 -53960,130270 -120590,254930 -198930,372180 -78340,117240 -168010,226510 -267720,326220 -99710,99710 -208980,189380 -326220,267720 -117250,78340 -241910,144970 -372180,198930 -130280,53970 -265540,95000 -403840,122510 -138300,27510 -278970,41360 -419980,41360 -141010,0 -281680,-13860 -419980,-41370 -138300,-27510 -273560,-68540 -403830,-122500 -130280,-53960 -254940,-120590 -372180,-198930 -117250,-78350 -226510,-168020 -326220,-267730 -99710,-99700 -189380,-208970 -267720,-326210 -78340,-117250 -144970,-241910 -198930,-372180 -53970,-130280 -95000,-265540 -122510,-403840 -27510,-138300 -41360,-278970 -41360,-419980 0,-141010 13860,-281680 41370,-419980 27510,-138300 68540,-273560 122500,-403830 53960,-130280 120590,-254940 198930,-372180 78340,-117240 168010,-226510 267720,-326220 99710,-99710 208980,-189380 326220,-267720 117240,-78340 241900,-144970 372180,-198930 130270,-53960 265530,-94990 403830,-122500 138300,-27510 278970,-41370 419980,-41370 141010,0 281680,13850 419980,41360 138300,27510 273560,68540 403840,122510 130270,53960 254930,120590 372180,198930 117240,78340 226510,168010 326210,267720 99710,99710 189380,208970 267730,326220 78340,117240 144970,241900 198930,372180 53960,130270 94990,265530 122500,403830 27510,138300 41370,278970 41370,419980 z"
       sodipodi:nodetypes="cccccssssssssssssssssssssssssssssssssssssssssssssssssssssssssssssssssssssssssssssssssssssssssssssssssssssssssssssssssssssssssssssssssssss"
       inkscape:path-effect="#path-effect1172"
       inkscape:original-d="m 116479490,184882530 h 361380640 v 15495070 l -361380640,-3630 z m 320819250,5179790 c 0,141010 13850,281680 41360,419980 27510,138300 68550,273560 122510,403840 53960,130270 120590,254930 198930,372180 78340,117240 168010,226510 267720,326220 99710,99710 208980,189380 326220,267720 117250,78340 241910,144970 372180,198930 130280,53970 265540,95000 403840,122510 138300,27510 278970,41360 419980,41360 141010,0 281680,-13850 419980,-41360 138300,-27510 273560,-68540 403840,-122510 130270,-53960 254930,-120590 372180,-198930 117240,-78340 226510,-168010 326220,-267720 99710,-99710 189380,-208980 267720,-326220 78340,-117250 144970,-241910 198930,-372180 53970,-130280 95000,-265540 122510,-403840 27510,-138300 41360,-278970 41360,-419980 0,-141010 -13860,-281680 -41370,-419980 -27510,-138300 -68540,-273560 -122500,-403830 -53960,-130280 -120590,-254940 -198930,-372180 -78350,-117250 -168020,-226510 -267730,-326220 -99700,-99710 -208970,-189380 -326210,-267720 -117250,-78340 -241910,-144970 -372180,-198930 -130280,-53970 -265540,-95000 -403840,-122510 -138300,-27510 -278970,-41360 -419980,-41360 -141010,0 -281680,13850 -419980,41360 -138300,27510 -273560,68540 -403840,122510 -130270,53960 -254930,120590 -372180,198930 -117240,78340 -226500,168010 -326210,267720 -99710,99710 -189380,208970 -267720,326220 -78350,117240 -144980,241900 -198940,372180 -53960,130270 -94990,265530 -122500,403830 -27510,138300 -41370,278970 -41370,419980 z m -83494590,20 c 0,141010 13850,281680 41360,419980 27510,138300 68550,273560 122510,403840 53960,130270 120590,254930 198930,372180 78340,117240 168010,226510 267720,326220 99710,99710 208980,189380 326220,267720 117250,78340 241910,144970 372180,198930 130280,53970 265540,95000 403840,122510 138300,27510 278970,41360 419980,41360 141010,0 281680,-13850 419980,-41360 138300,-27510 273560,-68540 403840,-122510 130270,-53960 254930,-120590 372180,-198930 117240,-78340 226510,-168010 326220,-267720 99710,-99710 189380,-208980 267720,-326220 78340,-117250 144970,-241910 198930,-372180 53970,-130280 95000,-265540 122510,-403840 27510,-138300 41360,-278970 41360,-419980 0,-141010 -13850,-281680 -41360,-419980 -27510,-138300 -68540,-273560 -122510,-403840 -53960,-130270 -120590,-254930 -198930,-372180 -78340,-117240 -168010,-226510 -267720,-326220 -99710,-99710 -208980,-189380 -326220,-267720 -117250,-78340 -241910,-144970 -372180,-198930 -130280,-53960 -265540,-95000 -403840,-122510 -138300,-27510 -278970,-41360 -419980,-41360 -141010,0 -281680,13850 -419980,41360 -138300,27510 -273560,68550 -403840,122510 -130270,53960 -254930,120590 -372180,198930 -117240,78340 -226510,168010 -326220,267720 -99710,99710 -189380,208980 -267720,326220 -78340,117250 -144970,241910 -198930,372180 -53960,130280 -95000,265540 -122510,403840 -27510,138300 -41360,278970 -41360,419980 z m -113258890,0 c 0,141010 -13850,281680 -41360,419980 -27510,138300 -68540,273560 -122510,403840 -53960,130270 -120590,254930 -198930,372180 -78340,117240 -168010,226510 -267720,326220 -99710,99710 -208980,189380 -326220,267720 -117250,78340 -241910,144970 -372180,198930 -130280,53970 -265540,95000 -403840,122510 -138300,27510 -278970,41360 -419980,41360 -141010,0 -281680,-13850 -419980,-41360 -138300,-27510 -273560,-68540 -403840,-122510 -130270,-53960 -254930,-120590 -372180,-198930 -117240,-78340 -226510,-168010 -326220,-267720 -99710,-99710 -189380,-208980 -267720,-326220 -78340,-117250 -144970,-241910 -198930,-372180 -53960,-130280 -95000,-265540 -122510,-403840 -27510,-138300 -41360,-278970 -41360,-419980 0,-141010 13850,-281680 41360,-419980 27510,-138300 68550,-273560 122510,-403840 53960,-130270 120590,-254930 198930,-372180 78340,-117240 168010,-226510 267720,-326220 99710,-99710 208980,-189380 326220,-267720 117250,-78340 241910,-144970 372180,-198930 130280,-53960 265540,-95000 403840,-122510 138300,-27510 278970,-41360 419980,-41360 141010,0 281680,13850 419980,41360 138300,27510 273560,68550 403840,122510 130270,53960 254930,120590 372180,198930 117240,78340 226510,168010 326220,267720 99710,99710 189380,208980 267720,326220 78340,117250 144970,241910 198930,372180 53970,130280 95000,265540 122510,403840 27510,138300 41360,278970 41360,419980 z m -86464390,-20 c 0,141010 -13850,281680 -41360,419980 -27510,138300 -68540,273560 -122510,403840 -53960,130270 -120590,254930 -198930,372180 -78340,117240 -168010,226510 -267720,326220 -99710,99710 -208980,189380 -326220,267720 -117250,78340 -241910,144970 -372180,198930 -130280,53970 -265540,95000 -403840,122510 -138300,27510 -278970,41360 -419980,41360 -141010,0 -281680,-13860 -419980,-41370 -138300,-27510 -273560,-68540 -403830,-122500 -130280,-53960 -254940,-120590 -372180,-198930 -117250,-78350 -226510,-168020 -326220,-267730 -99710,-99700 -189380,-208970 -267720,-326210 -78340,-117250 -144970,-241910 -198930,-372180 -53970,-130280 -95000,-265540 -122510,-403840 -27510,-138300 -41360,-278970 -41360,-419980 0,-141010 13860,-281680 41370,-419980 27510,-138300 68540,-273560 122500,-403830 53960,-130280 120590,-254940 198930,-372180 78340,-117240 168010,-226510 267720,-326220 99710,-99710 208980,-189380 326220,-267720 117240,-78340 241900,-144970 372180,-198930 130270,-53960 265530,-94990 403830,-122500 138300,-27510 278970,-41370 419980,-41370 141010,0 281680,13850 419980,41360 138300,27510 273560,68540 403840,122510 130270,53960 254930,120590 372180,198930 117240,78340 226510,168010 326210,267720 99710,99710 189380,208970 267730,326220 78340,117240 144970,241900 198930,372180 53960,130270 94990,265530 122500,403830 27510,138300 41370,278970 41370,419980 z" />
  </g>
  <metadata
     id="metadata5601">
    <rdf:RDF>
      <cc:Work
         rdf:about="">
        <dc:title>SVG Picture created as dynamis-User_Drawings.svg date 2022/06/04 22:09:15 </dc:title>
      </cc:Work>
    </rdf:RDF>
  </metadata>
</svg>
