<?xml version="1.0" encoding="UTF-8" standalone="no"?>
<svg
   version="1.1"
   width="36.147518cm"
   height="12.815518cm"
   viewBox="0 0 3.6147518e+08 1.2815518e+08"
   id="svg5726"
   sodipodi:docname="gasket-middle.svg"
   inkscape:version="1.2 (dc2aedaf03, 2022-05-15)"
   inkscape:export-filename="..\case\gasket-middle.svg"
   inkscape:export-xdpi="96"
   inkscape:export-ydpi="96"
   xmlns:inkscape="http://www.inkscape.org/namespaces/inkscape"
   xmlns:sodipodi="http://sodipodi.sourceforge.net/DTD/sodipodi-0.dtd"
   xmlns="http://www.w3.org/2000/svg"
   xmlns:svg="http://www.w3.org/2000/svg"
   xmlns:rdf="http://www.w3.org/1999/02/22-rdf-syntax-ns#"
   xmlns:cc="http://creativecommons.org/ns#"
   xmlns:dc="http://purl.org/dc/elements/1.1/">
  <defs
     id="defs5730">
    <inkscape:path-effect
       effect="fillet_chamfer"
       id="path-effect5733"
       is_visible="true"
       lpeversion="1"
       nodesatellites_param="F,0,0,1,0,0,0,1 @ F,0,0,1,0,0,0,1 @ F,0,0,1,0,0,0,1 @ F,0,0,1,0,0,0,1 @ F,0,0,1,0,0,0,1 @ F,0,0,1,0,0,0,1 @ F,0,0,1,0,0,0,1 @ F,0,0,1,0,0,0,1 @ F,0,0,1,0,0,0,1 @ F,0,0,1,0,0,0,1 @ F,0,0,1,0,0,0,1 @ F,0,0,1,0,0,0,1 @ F,0,0,1,0,0,0,1 @ F,0,0,1,0,0,0,1 @ F,0,0,1,0,0,0,1 @ F,0,0,1,0,0,0,1 @ F,0,0,1,0,0,0,1 @ F,0,0,1,0,0,0,1 @ F,0,0,1,0,0,0,1 @ F,0,0,1,0,0,0,1 @ F,0,0,1,0,0,0,1 @ F,0,0,1,0,0,0,1 @ F,0,0,1,0,0,0,1 @ F,0,0,1,0,0,0,1 @ F,0,0,1,0,0,0,1 @ F,0,0,1,0,0,0,1 @ F,0,0,1,0,0,0,1 @ F,0,0,1,0,0,0,1 @ F,0,0,1,0,0,0,1 @ F,0,0,1,0,0,0,1 @ F,0,0,1,0,0,0,1 @ F,0,0,1,0,0,0,1 | F,0,0,1,0,0,0,1 @ F,0,0,1,0,0,0,1 @ F,0,0,1,0,0,0,1 @ F,0,0,1,0,0,0,1 @ F,0,0,1,0,0,0,1 @ F,0,0,1,0,0,0,1 @ F,0,0,1,0,0,0,1 @ F,0,0,1,0,0,0,1 @ F,0,0,1,0,0,0,1 @ F,0,0,1,0,0,0,1 @ F,0,0,1,0,0,0,1 @ F,0,0,1,0,0,0,1 @ F,0,0,1,0,0,0,1 @ F,0,0,1,0,0,0,1 @ F,0,0,1,0,0,0,1 @ F,0,0,1,0,0,0,1 @ F,0,0,1,0,0,0,1 @ F,0,0,1,0,0,0,1 @ F,0,0,1,0,0,0,1 @ F,0,0,1,0,0,0,1 @ F,0,0,1,0,0,0,1 @ F,0,0,1,0,0,0,1 @ F,0,0,1,0,0,0,1 @ F,0,0,1,0,0,0,1 @ F,0,0,1,0,0,0,1 @ F,0,0,1,0,0,0,1 @ F,0,0,1,0,0,0,1 @ F,0,0,1,0,0,0,1 @ F,0,0,1,0,0,0,1 @ F,0,0,1,0,0,0,1 @ F,0,0,1,0,0,0,1 @ F,0,0,1,0,0,0,1 | F,0,0,1,0,0,0,1 @ F,0,0,1,0,0,0,1 @ F,0,0,1,0,0,0,1 @ F,0,0,1,0,0,0,1 @ F,0,0,1,0,0,0,1 @ F,0,0,1,0,0,0,1 @ F,0,0,1,0,0,0,1 @ F,0,0,1,0,0,0,1 @ F,0,0,1,0,0,0,1 @ F,0,0,1,0,0,0,1 @ F,0,0,1,0,0,0,1 @ F,0,0,1,0,0,0,1 @ F,0,0,1,0,0,0,1 @ F,0,0,1,0,0,0,1 @ F,0,0,1,0,0,0,1 @ F,0,0,1,0,0,0,1 @ F,0,0,1,0,0,0,1 @ F,0,0,1,0,0,0,1 @ F,0,0,1,0,0,0,1 @ F,0,0,1,0,0,0,1 @ F,0,0,1,0,0,0,1 @ F,0,0,1,0,0,0,1 @ F,0,0,1,0,0,0,1 @ F,0,0,1,0,0,0,1 @ F,0,0,1,0,0,0,1 @ F,0,0,1,0,0,0,1 @ F,0,0,1,0,0,0,1 @ F,0,0,1,0,0,0,1 @ F,0,0,1,0,0,0,1 @ F,0,0,1,0,0,0,1 @ F,0,0,1,0,0,0,1 @ F,0,0,1,0,0,0,1 | F,0,0,1,0,0,0,1 @ F,0,0,1,0,0,0,1 @ F,0,0,1,0,0,0,1 @ F,0,0,1,0,0,0,1 @ F,0,0,1,0,0,0,1 @ F,0,0,1,0,0,0,1 @ F,0,0,1,0,0,0,1 @ F,0,0,1,0,0,0,1 @ F,0,0,1,0,0,0,1 @ F,0,0,1,0,0,0,1 @ F,0,0,1,0,0,0,1 @ F,0,0,1,0,0,0,1 @ F,0,0,1,0,0,0,1 @ F,0,0,1,0,0,0,1 @ F,0,0,1,0,0,0,1 @ F,0,0,1,0,0,0,1 @ F,0,0,1,0,0,0,1 @ F,0,0,1,0,0,0,1 @ F,0,0,1,0,0,0,1 @ F,0,0,1,0,0,0,1 @ F,0,0,1,0,0,0,1 @ F,0,0,1,0,0,0,1 @ F,0,0,1,0,0,0,1 @ F,0,0,1,0,0,0,1 @ F,0,0,1,0,0,0,1 @ F,0,0,1,0,0,0,1 @ F,0,0,1,0,0,0,1 @ F,0,0,1,0,0,0,1 @ F,0,0,1,0,0,0,1 @ F,0,0,1,0,0,0,1 @ F,0,0,1,0,0,0,1 @ F,0,0,1,0,0,0,1 | F,0,0,1,0,0,0,1 @ F,0,0,1,0,0,0,1 @ F,0,0,1,0,0,0,1 @ F,0,0,1,0,0,0,1 @ F,0,0,1,0,0,0,1 @ F,0,0,1,0,0,0,1 @ F,0,0,1,0,0,0,1 @ F,0,0,1,0,0,0,1 @ F,0,0,1,0,0,0,1 @ F,0,0,1,0,0,0,1 @ F,0,0,1,0,0,0,1 @ F,0,0,1,0,0,0,1 @ F,0,0,1,0,0,0,1 @ F,0,0,1,0,0,0,1 @ F,0,0,1,0,0,0,1 @ F,0,0,1,0,0,0,1 @ F,0,0,1,0,0,0,1 @ F,0,0,1,0,0,0,1 @ F,0,0,1,0,0,0,1 @ F,0,0,1,0,0,0,1 @ F,0,0,1,0,0,0,1 @ F,0,0,1,0,0,0,1 @ F,0,0,1,0,0,0,1 @ F,0,0,1,0,0,0,1 @ F,0,0,1,0,0,0,1 @ F,0,0,1,0,0,0,1 @ F,0,0,1,0,0,0,1 @ F,0,0,1,0,0,0,1 @ F,0,0,1,0,0,0,1 @ F,0,0,1,0,0,0,1 @ F,0,0,1,0,0,0,1 @ F,0,0,1,0,0,0,1 | F,0,0,1,0,0,0,1 @ F,0,0,1,0,0,0,1 @ F,0,0,1,0,0,0,1 @ F,0,0,1,0,0,0,1 @ F,0,0,1,0,0,0,1 @ F,0,0,1,0,0,0,1 @ F,0,0,1,0,0,0,1 @ F,0,0,1,0,0,0,1 @ F,0,0,1,0,0,0,1 @ F,0,0,1,0,0,0,1 @ F,0,0,1,0,0,0,1 @ F,0,0,1,0,0,0,1 @ F,0,0,1,0,0,0,1 @ F,0,0,1,0,0,0,1 @ F,0,0,1,0,0,0,1 @ F,0,0,1,0,0,0,1 @ F,0,0,1,0,0,0,1 @ F,0,0,1,0,0,0,1 @ F,0,0,1,0,0,0,1 @ F,0,0,1,0,0,0,1 @ F,0,0,1,0,0,0,1 @ F,0,0,1,0,0,0,1 @ F,0,0,1,0,0,0,1 @ F,0,0,1,0,0,0,1 @ F,0,0,1,0,0,0,1 @ F,0,0,1,0,0,0,1 @ F,0,0,1,0,0,0,1 @ F,0,0,1,0,0,0,1 @ F,0,0,1,0,0,0,1 @ F,0,0,1,0,0,0,1 @ F,0,0,1,0,0,0,1 @ F,0,0,1,0,0,0,1 | F,0,0,1,0,0,0,1 @ F,0,0,1,0,0,0,1 @ F,0,0,1,0,0,0,1 @ F,0,0,1,0,0,0,1 @ F,0,0,1,0,0,0,1 @ F,0,0,1,0,0,0,1 @ F,0,0,1,0,0,0,1 @ F,0,0,1,0,0,0,1 @ F,0,0,1,0,0,0,1 @ F,0,0,1,0,0,0,1 @ F,0,0,1,0,0,0,1 @ F,0,0,1,0,0,0,1 @ F,0,0,1,0,0,0,1 @ F,0,0,1,0,0,0,1 @ F,0,0,1,0,0,0,1 @ F,0,0,1,0,0,0,1 @ F,0,0,1,0,0,0,1 @ F,0,0,1,0,0,0,1 @ F,0,0,1,0,0,0,1 @ F,0,0,1,0,0,0,1 @ F,0,0,1,0,0,0,1 @ F,0,0,1,0,0,0,1 @ F,0,0,1,0,0,0,1 @ F,0,0,1,0,0,0,1 @ F,0,0,1,0,0,0,1 @ F,0,0,1,0,0,0,1 @ F,0,0,1,0,0,0,1 @ F,0,0,1,0,0,0,1 @ F,0,0,1,0,0,0,1 @ F,0,0,1,0,0,0,1 @ F,0,0,1,0,0,0,1 @ F,0,0,1,0,0,0,1 | F,0,0,1,0,0,0,1 @ F,0,0,1,0,0,0,1 @ F,0,0,1,0,0,0,1 @ F,0,0,1,0,0,0,1 @ F,0,0,1,0,0,0,1 @ F,0,0,1,0,0,0,1 @ F,0,0,1,0,0,0,1 @ F,0,0,1,0,0,0,1 @ F,0,0,1,0,0,0,1 @ F,0,0,1,0,0,0,1 @ F,0,0,1,0,0,0,1 @ F,0,0,1,0,0,0,1 @ F,0,0,1,0,0,0,1 @ F,0,0,1,0,0,0,1 @ F,0,0,1,0,0,0,1 @ F,0,0,1,0,0,0,1 @ F,0,0,1,0,0,0,1 @ F,0,0,1,0,0,0,1 @ F,0,0,1,0,0,0,1 @ F,0,0,1,0,0,0,1 @ F,0,0,1,0,0,0,1 @ F,0,0,1,0,0,0,1 @ F,0,0,1,0,0,0,1 @ F,0,0,1,0,0,0,1 @ F,0,0,1,0,0,0,1 @ F,0,0,1,0,0,0,1 @ F,0,0,1,0,0,0,1 @ F,0,0,1,0,0,0,1 @ F,0,0,1,0,0,0,1 @ F,0,0,1,0,0,0,1 @ F,0,0,1,0,0,0,1 @ F,0,0,1,0,0,0,1 | F,0,0,1,0,0,0,1 @ F,0,0,1,0,0,0,1 @ F,0,0,1,0,0,0,1 @ F,0,0,1,0,0,0,1 @ F,0,0,1,0,0,0,1 @ F,0,0,1,0,0,0,1 @ F,0,0,1,0,0,0,1 @ F,0,0,1,0,0,0,1 @ F,0,0,1,0,0,0,1 @ F,0,0,1,0,0,0,1 @ F,0,0,1,0,0,0,1 @ F,0,0,1,0,0,0,1 @ F,0,0,1,0,0,0,1 @ F,0,0,1,0,0,0,1 @ F,0,0,1,0,0,0,1 @ F,0,0,1,0,0,0,1 @ F,0,0,1,0,0,0,1 @ F,0,0,1,0,0,0,1 @ F,0,0,1,0,0,0,1 @ F,0,0,1,0,0,0,1 @ F,0,0,1,0,0,0,1 @ F,0,0,1,0,0,0,1 @ F,0,0,1,0,0,0,1 @ F,0,0,1,0,0,0,1 @ F,0,0,1,0,0,0,1 @ F,0,0,1,0,0,0,1 @ F,0,0,1,0,0,0,1 @ F,0,0,1,0,0,0,1 @ F,0,0,1,0,0,0,1 @ F,0,0,1,0,0,0,1 @ F,0,0,1,0,0,0,1 @ F,0,0,1,0,0,0,1 | F,0,0,1,0,0,0,1 @ F,0,0,1,0,0,0,1 @ F,0,0,1,0,0,0,1 @ F,0,0,1,0,0,0,1 @ F,0,0,1,0,0,0,1 @ F,0,0,1,0,0,0,1 @ F,0,0,1,0,0,0,1 @ F,0,0,1,0,0,0,1 @ F,0,0,1,0,0,0,1 @ F,0,0,1,0,0,0,1 @ F,0,0,1,0,0,0,1 @ F,0,0,1,0,0,0,1 @ F,0,0,1,0,0,0,1 @ F,0,0,1,0,0,0,1 @ F,0,0,1,0,0,0,1 @ F,0,0,1,0,0,0,1 @ F,0,0,1,0,0,0,1 @ F,0,0,1,0,0,0,1 @ F,0,0,1,0,0,0,1 @ F,0,0,1,0,0,0,1 @ F,0,0,1,0,0,0,1 @ F,0,0,1,0,0,0,1 @ F,0,0,1,0,0,0,1 @ F,0,0,1,0,0,0,1 @ F,0,0,1,0,0,0,1 @ F,0,0,1,0,0,0,1 @ F,0,0,1,0,0,0,1 @ F,0,0,1,0,0,0,1 @ F,0,0,1,0,0,0,1 @ F,0,0,1,0,0,0,1 @ F,0,0,1,0,0,0,1 @ F,0,0,1,0,0,0,1 | F,0,0,1,0,6614583.3,0,1 @ F,0,0,1,0,6614583.3,0,1 @ F,0,0,1,0,6614583.3,0,1 @ F,0,0,1,0,6614583.3,0,1 | F,0,0,1,0,661458.33,0,1 @ F,0,0,1,0,661458.33,0,1 @ F,0,0,1,0,661458.33,0,1 @ F,0,0,1,0,661458.33,0,1 @ F,0,0,1,0,661458.33,0,1 @ F,0,0,1,0,661458.33,0,1 @ F,0,0,1,0,661458.33,0,1 @ F,0,0,1,0,661458.33,0,1 @ F,0,0,1,0,661458.33,0,1 @ F,0,0,1,0,661458.33,0,1 @ F,0,0,1,0,661458.33,0,1 @ F,0,0,1,0,661458.33,0,1 @ F,0,0,1,0,661458.33,0,1 @ F,0,0,1,0,661458.33,0,1 @ F,0,0,1,0,661458.33,0,1 @ F,0,0,1,0,661458.33,0,1 @ F,0,0,1,0,661458.33,0,1 @ F,0,0,1,0,661458.33,0,1 @ F,0,0,1,0,661458.33,0,1 @ F,0,0,1,0,661458.33,0,1 @ F,0,0,1,0,661458.33,0,1 @ F,0,0,1,0,661458.33,0,1 @ F,0,0,1,0,661458.33,0,1 @ F,0,0,1,0,661458.33,0,1 @ F,0,0,1,0,2910416.7,0,1 @ F,0,0,1,0,661458.33,0,1 @ F,0,0,1,0,661458.33,0,1 @ F,0,0,1,0,661458.33,0,1 @ F,0,0,1,0,661458.33,0,1 @ F,0,0,1,0,661458.33,0,1 @ F,0,0,1,0,661458.33,0,1 @ F,0,0,1,0,661458.33,0,1 @ F,0,0,1,0,661458.33,0,1 @ F,0,0,1,0,661458.33,0,1 @ F,0,0,1,0,661458.33,0,1 @ F,0,0,1,0,661458.33,0,1 @ F,0,0,1,0,661458.33,0,1 @ F,0,0,1,0,661458.33,0,1 @ F,0,0,1,0,661458.33,0,1 @ F,0,0,1,0,661458.33,0,1 @ F,0,0,1,0,661458.33,0,1 @ F,0,0,1,0,661458.33,0,1 @ F,0,0,1,0,661458.33,0,1 @ F,0,0,1,0,661458.33,0,1 @ F,0,0,1,0,661458.33,0,1 @ F,0,0,1,0,661458.33,0,1 @ F,0,0,1,0,661458.33,0,1 @ F,0,0,1,0,661458.33,0,1 @ F,0,0,1,0,661458.33,0,1 @ F,0,0,1,0,661458.33,0,1 @ F,0,0,1,0,661458.33,0,1 @ F,0,0,1,0,661458.33,0,1 @ F,0,0,1,0,661458.33,0,1 @ F,0,0,1,0,661458.33,0,1 @ F,0,0,1,0,661458.33,0,1 @ F,0,0,1,0,661458.33,0,1 @ F,0,0,1,0,661458.33,0,1 @ F,0,0,1,0,661458.33,0,1 @ F,0,0,1,0,661458.33,0,1 @ F,0,0,1,0,661458.33,0,1 @ F,0,0,1,0,661458.33,0,1 @ F,0,0,1,0,661458.33,0,1 @ F,0,0,1,0,661458.33,0,1 @ F,0,0,1,0,661458.33,0,1 @ F,0,0,1,0,661458.33,0,1 @ F,0,0,1,0,661458.33,0,1 @ F,0,0,1,0,661458.33,0,1 @ F,0,0,1,0,661458.33,0,1 @ F,0,0,1,0,661458.33,0,1 @ F,0,1,1,0,661458.33,0,1 @ F,0,0,1,0,661458.33,0,1 @ F,0,0,1,0,661458.33,0,1 @ F,0,0,1,0,661458.33,0,1 @ F,0,0,1,0,661458.33,0,1"
       unit="px"
       method="auto"
       mode="F"
       radius="1000000"
       chamfer_steps="1"
       flexible="false"
       use_knot_distance="true"
       apply_no_radius="true"
       apply_with_radius="true"
       only_selected="true"
       hide_knots="false" />
  </defs>
  <sodipodi:namedview
     id="namedview5728"
     pagecolor="#ffffff"
     bordercolor="#000000"
     borderopacity="0.25"
     inkscape:showpageshadow="2"
     inkscape:pageopacity="0.0"
     inkscape:pagecheckerboard="0"
     inkscape:deskcolor="#d1d1d1"
     inkscape:document-units="cm"
     showgrid="false"
     inkscape:zoom="0.70710675"
     inkscape:cx="587.60576"
     inkscape:cy="165.46299"
     inkscape:window-width="1920"
     inkscape:window-height="1009"
     inkscape:window-x="1912"
     inkscape:window-y="-8"
     inkscape:window-maximized="1"
     inkscape:current-layer="g3315" />
  <title
     id="title2">SVG Picture created as dynamis-User_Drawings.svg date 2022/06/04 22:09:15 </title>
  <desc
     id="desc4">Picture generated by PCBNEW </desc>
  <g
     inkscape:groupmode="layer"
     id="g3315"
     inkscape:label="a-gasket-middle"
     style="display:inline"
     transform="translate(-116434960,-184832530)">
    <path
       id="circle3920"
       style="display:inline;fill:none;stroke:#ffe100;stroke-width:94523;stroke-opacity:1"
       transform="scale(1,-1)"
       d="m 154083600,-307774720 c 0,141010 -13850,281680 -41360,419980 -27510,138300 -68540,273560 -122510,403840 -53960,130270 -120590,254930 -198930,372180 -78340,117240 -168010,226510 -267720,326220 -99710,99710 -208980,189380 -326220,267720 -117250,78340 -241910,144970 -372180,198930 -130280,53960 -265540,95000 -403840,122510 -138300,27510 -278970,41360 -419980,41360 -141010,0 -281680,-13860 -419980,-41370 -138300,-27510 -273560,-68540 -403830,-122500 -130280,-53960 -254940,-120590 -372180,-198940 -117250,-78340 -226510,-168010 -326220,-267720 -99710,-99710 -189380,-208970 -267720,-326210 -78340,-117250 -144970,-241910 -198930,-372180 -53970,-130280 -95000,-265540 -122510,-403840 -27510,-138300 -41360,-278970 -41360,-419980 0,-141010 13850,-281680 41360,-419980 27510,-138300 68540,-273560 122510,-403840 53960,-130270 120590,-254930 198930,-372180 78340,-117240 168010,-226510 267720,-326210 99710,-99710 208970,-189380 326220,-267730 117240,-78340 241900,-144970 372180,-198930 130270,-53960 265530,-94990 403830,-122500 138300,-27510 278970,-41370 419980,-41370 141010,0 281680,13850 419980,41360 138300,27510 273560,68540 403840,122510 130270,53960 254930,120590 372180,198930 117240,78340 226510,168010 326220,267720 99710,99710 189380,208980 267720,326220 78340,117250 144970,241910 198930,372180 53970,130280 95000,265540 122510,403840 27510,138300 41360,278970 41360,419980 z m 318656140,61030210 c -141010,0 -281680,-13860 -419980,-41370 -138300,-27510 -273560,-68540 -403830,-122500 -130280,-53960 -254940,-120590 -372180,-198940 -117250,-78340 -226510,-168010 -326220,-267720 -99710,-99710 -189380,-208970 -267720,-326210 -78340,-117250 -144970,-241910 -198930,-372180 -53970,-130280 -95000,-265540 -122510,-403840 -27510,-138300 -41360,-278970 -41360,-419980 0,-141010 13850,-281680 41360,-419980 27510,-138300 68540,-273560 122510,-403840 53960,-130270 120590,-254930 198930,-372180 78340,-117240 168010,-226510 267720,-326210 99710,-99710 208970,-189380 326220,-267730 117240,-78340 241900,-144970 372180,-198930 130270,-53960 265530,-94990 403830,-122500 138300,-27510 278970,-41370 419980,-41370 141010,0 281680,13850 419980,41360 138300,27510 273560,68540 403840,122510 130270,53960 254930,120590 372180,198930 117240,78340 226510,168010 326220,267720 99710,99710 189380,208980 267720,326220 78340,117250 144970,241910 198930,372180 53970,130280 95000,265540 122510,403840 27510,138300 41360,278970 41360,419980 0,141010 -13850,281680 -41360,419980 -27510,138300 -68540,273560 -122510,403840 -53960,130270 -120590,254930 -198930,372180 -78340,117240 -168010,226510 -267720,326220 -99710,99710 -208980,189380 -326220,267720 -117250,78340 -241910,144970 -372180,198930 -130280,53960 -265540,95000 -403840,122510 -138300,27510 -278970,41360 -419980,41360 z m -351105690,20 c 141010,0 281680,-13850 419980,-41360 138300,-27510 273560,-68550 403840,-122510 130270,-53960 254930,-120590 372180,-198930 117240,-78340 226510,-168010 326220,-267720 99710,-99710 189380,-208980 267720,-326220 78340,-117250 144970,-241910 198930,-372180 53970,-130280 95000,-265540 122510,-403840 27510,-138300 41360,-278970 41360,-419980 0,-141010 -13850,-281680 -41360,-419980 -27510,-138300 -68540,-273560 -122510,-403840 -53960,-130270 -120590,-254930 -198930,-372180 -78340,-117240 -168010,-226510 -267720,-326220 -99710,-99710 -208980,-189380 -326220,-267720 -117250,-78340 -241910,-144970 -372180,-198930 -130280,-53970 -265540,-95000 -403840,-122510 -138300,-27510 -278970,-41360 -419980,-41360 -141010,0 -281680,13850 -419980,41360 -138300,27510 -273560,68540 -403840,122510 -130270,53960 -254930,120590 -372180,198930 -117240,78340 -226510,168010 -326220,267720 -99710,99710 -189380,208980 -267720,326220 -78340,117250 -144970,241910 -198930,372180 -53960,130280 -95000,265540 -122510,403840 -27510,138300 -41360,278970 -41360,419980 0,141010 13850,281680 41360,419980 27510,138300 68550,273560 122510,403840 53960,130270 120590,254930 198930,372180 78340,117240 168010,226510 267720,326220 99710,99710 208980,189380 326220,267720 117250,78340 241910,144970 372180,198930 130280,53960 265540,95000 403840,122510 138300,27510 278970,41360 419980,41360 z m 232170560,-61030230 c 0,141010 13850,281680 41360,419980 27510,138300 68540,273560 122510,403840 53960,130270 120590,254930 198930,372180 78340,117240 168010,226500 267720,326210 99710,99710 208970,189380 326220,267720 117240,78350 241900,144980 372180,198940 130270,53960 265530,94990 403830,122500 138300,27510 278970,41370 419980,41370 141010,0 281680,-13850 419980,-41360 138300,-27510 273560,-68550 403840,-122510 130270,-53960 254930,-120590 372180,-198930 117240,-78340 226510,-168010 326220,-267720 99710,-99710 189380,-208980 267720,-326220 78340,-117250 144970,-241910 198930,-372180 53970,-130280 95000,-265540 122510,-403840 27510,-138300 41360,-278970 41360,-419980 0,-141010 -13850,-281680 -41360,-419980 -27510,-138300 -68540,-273560 -122510,-403840 -53960,-130270 -120590,-254930 -198930,-372180 -78340,-117240 -168010,-226510 -267720,-326220 -99710,-99710 -208980,-189380 -326220,-267720 -117250,-78340 -241910,-144970 -372180,-198930 -130280,-53970 -265540,-95000 -403840,-122510 -138300,-27510 -278970,-41360 -419980,-41360 -141010,0 -281680,13860 -419980,41370 -138300,27510 -273560,68540 -403830,122500 -130280,53960 -254940,120590 -372180,198930 -117250,78350 -226510,168020 -326220,267730 -99710,99700 -189380,208970 -267720,326210 -78340,117250 -144970,241910 -198930,372180 -53970,130280 -95000,265540 -122510,403840 -27510,138300 -41360,278970 -41360,419980 z m -113256620,0 c 0,141010 -13850,281680 -41360,419980 -27510,138300 -68540,273560 -122510,403840 -53960,130270 -120590,254930 -198930,372180 -78340,117240 -168010,226510 -267720,326220 -99710,99710 -208980,189380 -326220,267720 -117250,78340 -241910,144970 -372180,198930 -130280,53960 -265540,95000 -403840,122510 -138300,27510 -278970,41360 -419980,41360 -141010,0 -281680,-13850 -419980,-41360 -138300,-27510 -273560,-68550 -403840,-122510 -130270,-53960 -254930,-120590 -372180,-198930 -117240,-78340 -226510,-168010 -326220,-267720 -99710,-99710 -189380,-208980 -267720,-326220 -78340,-117250 -144970,-241910 -198930,-372180 -53960,-130280 -95000,-265540 -122510,-403840 -27510,-138300 -41360,-278970 -41360,-419980 0,-141010 13850,-281680 41360,-419980 27510,-138300 68550,-273560 122510,-403840 53960,-130270 120590,-254930 198930,-372180 78340,-117240 168010,-226510 267720,-326220 99710,-99710 208980,-189380 326220,-267720 117250,-78340 241910,-144970 372180,-198930 130280,-53970 265540,-95000 403840,-122510 138300,-27510 278970,-41360 419980,-41360 141010,0 281680,13850 419980,41360 138300,27510 273560,68540 403840,122510 130270,53960 254930,120590 372180,198930 117240,78340 226510,168010 326220,267720 99710,99710 189380,208980 267720,326220 78340,117250 144970,241910 198930,372180 53970,130280 95000,265540 122510,403840 27510,138300 41360,278970 41360,419980 z m 113258890,117715120 c 0,-141010 13850,-281680 41360,-419980 27510,-138300 68550,-273560 122510,-403840 53960,-130270 120590,-254930 198930,-372180 78340,-117240 168010,-226510 267720,-326220 99710,-99710 208980,-189380 326220,-267720 117250,-78340 241910,-144970 372180,-198930 130280,-53970 265540,-95000 403840,-122510 138300,-27510 278970,-41360 419980,-41360 141010,0 281680,13850 419980,41360 138300,27510 273560,68540 403840,122510 130270,53960 254930,120590 372180,198930 117240,78340 226510,168010 326220,267720 99710,99710 189380,208980 267720,326220 78340,117250 144970,241910 198930,372180 53970,130280 95000,265540 122510,403840 27510,138300 41360,278970 41360,419980 0,141010 -13850,281680 -41360,419980 -27510,138300 -68540,273560 -122510,403840 -53960,130270 -120590,254930 -198930,372180 -78340,117240 -168010,226510 -267720,326220 -99710,99710 -208980,189380 -326220,267720 -117250,78340 -241910,144970 -372180,198930 -130280,53960 -265540,95000 -403840,122510 -138300,27510 -278970,41360 -419980,41360 -141010,0 -281680,-13850 -419980,-41360 -138300,-27510 -273560,-68550 -403840,-122510 -130270,-53960 -254930,-120590 -372180,-198930 -117240,-78340 -226510,-168010 -326220,-267720 -99710,-99710 -189380,-208980 -267720,-326220 -78340,-117250 -144970,-241910 -198930,-372180 -53960,-130280 -95000,-265540 -122510,-403840 -27510,-138300 -41360,-278970 -41360,-419980 z m 83490750,-117715120 c 0,141010 13850,281680 41360,419980 27510,138300 68550,273560 122510,403840 53960,130270 120590,254930 198930,372180 78340,117240 168010,226510 267720,326220 99710,99710 208980,189380 326220,267720 117250,78340 241910,144970 372180,198930 130280,53960 265540,95000 403840,122510 138300,27510 278970,41360 419980,41360 141010,0 281680,-13850 419980,-41360 138300,-27510 273560,-68550 403840,-122510 130270,-53960 254930,-120590 372180,-198930 117240,-78340 226510,-168010 326220,-267720 99710,-99710 189380,-208980 267720,-326220 78340,-117250 144970,-241910 198930,-372180 53970,-130280 95000,-265540 122510,-403840 27510,-138300 41360,-278970 41360,-419980 0,-141010 -13850,-281680 -41360,-419980 -27510,-138300 -68540,-273560 -122510,-403840 -53960,-130270 -120590,-254930 -198930,-372180 -78340,-117240 -168010,-226510 -267720,-326220 -99710,-99710 -208980,-189380 -326220,-267720 -117250,-78340 -241910,-144970 -372180,-198930 -130280,-53970 -265540,-95000 -403840,-122510 -138300,-27510 -278970,-41360 -419980,-41360 -141010,0 -281680,13850 -419980,41360 -138300,27510 -273560,68540 -403840,122510 -130270,53960 -254930,120590 -372180,198930 -117240,78340 -226510,168010 -326220,267720 -99710,99710 -189380,208980 -267720,326220 -78340,117250 -144970,241910 -198930,372180 -53960,130280 -95000,265540 -122510,403840 -27510,138300 -41360,278970 -41360,419980 z m 3840,117715140 c 0,-141010 13850,-281680 41360,-419980 27510,-138300 68550,-273560 122510,-403840 53960,-130270 120590,-254930 198930,-372180 78340,-117240 168010,-226510 267720,-326220 99710,-99710 208980,-189380 326220,-267720 117250,-78340 241910,-144970 372180,-198930 130280,-53970 265540,-95000 403840,-122510 138300,-27510 278970,-41360 419980,-41360 141010,0 281680,13850 419980,41360 138300,27510 273560,68540 403840,122510 130270,53960 254930,120590 372180,198930 117240,78340 226510,168010 326220,267720 99710,99710 189380,208980 267720,326220 78340,117250 144970,241910 198930,372180 53970,130280 95000,265540 122510,403840 27510,138300 41360,278970 41360,419980 0,141010 -13860,281680 -41370,419980 -27510,138300 -68540,273560 -122500,403830 -53960,130280 -120590,254940 -198930,372180 -78350,117250 -168020,226510 -267730,326220 -99700,99710 -208970,189380 -326210,267720 -117250,78340 -241910,144970 -372180,198930 -130280,53970 -265540,95000 -403840,122510 -138300,27510 -278970,41360 -419980,41360 -141010,0 -281680,-13850 -419980,-41360 -138300,-27510 -273560,-68540 -403840,-122510 -130270,-53960 -254930,-120590 -372180,-198930 -117240,-78340 -226500,-168010 -326210,-267720 -99710,-99710 -189380,-208970 -267720,-326220 -78350,-117240 -144980,-241900 -198940,-372180 -53960,-130270 -94990,-265530 -122500,-403830 -27510,-138300 -41370,-278970 -41370,-419980 z m -196753480,-20 c 0,-141010 -13850,-281680 -41360,-419980 -27510,-138300 -68540,-273560 -122510,-403840 -53960,-130270 -120590,-254930 -198930,-372180 -78340,-117240 -168010,-226510 -267720,-326220 -99710,-99710 -208980,-189380 -326220,-267720 -117250,-78340 -241910,-144970 -372180,-198930 -130280,-53970 -265540,-95000 -403840,-122510 -138300,-27510 -278970,-41360 -419980,-41360 -141010,0 -281680,13850 -419980,41360 -138300,27510 -273560,68540 -403840,122510 -130270,53960 -254930,120590 -372180,198930 -117240,78340 -226510,168010 -326220,267720 -99710,99710 -189380,208980 -267720,326220 -78340,117250 -144970,241910 -198930,372180 -53960,130280 -95000,265540 -122510,403840 -27510,138300 -41360,278970 -41360,419980 0,141010 13850,281680 41360,419980 27510,138300 68550,273560 122510,403840 53960,130270 120590,254930 198930,372180 78340,117240 168010,226510 267720,326220 99710,99710 208980,189380 326220,267720 117250,78340 241910,144970 372180,198930 130280,53960 265540,95000 403840,122510 138300,27510 278970,41360 419980,41360 141010,0 281680,-13850 419980,-41360 138300,-27510 273560,-68550 403840,-122510 130270,-53960 254930,-120590 372180,-198930 117240,-78340 226510,-168010 326220,-267720 99710,-99710 189380,-208980 267720,-326220 78340,-117250 144970,-241910 198930,-372180 53970,-130280 95000,-265540 122510,-403840 27510,-138300 41360,-278970 41360,-419980 z m -86464390,20 c 0,-141010 -13850,-281680 -41360,-419980 -27510,-138300 -68540,-273560 -122510,-403840 -53960,-130270 -120590,-254930 -198930,-372180 -78340,-117240 -168010,-226510 -267720,-326220 -99710,-99710 -208980,-189380 -326220,-267720 -117250,-78340 -241910,-144970 -372180,-198930 -130280,-53970 -265540,-95000 -403840,-122510 -138300,-27510 -278970,-41360 -419980,-41360 -141010,0 -281680,13860 -419980,41370 -138300,27510 -273560,68540 -403830,122500 -130280,53960 -254940,120590 -372180,198930 -117250,78350 -226510,168020 -326220,267730 -99710,99700 -189380,208970 -267720,326210 -78340,117250 -144970,241910 -198930,372180 -53970,130280 -95000,265540 -122510,403840 -27510,138300 -41360,278970 -41360,419980 0,141010 13860,281680 41370,419980 27510,138300 68540,273560 122500,403830 53960,130280 120590,254940 198930,372180 78340,117240 168010,226510 267720,326220 99710,99710 208980,189380 326220,267720 117240,78340 241900,144970 372180,198930 130270,53960 265530,94990 403830,122500 138300,27510 278970,41370 419980,41370 141010,0 281680,-13850 419980,-41360 138300,-27510 273560,-68540 403840,-122510 130270,-53960 254930,-120590 372180,-198930 117240,-78340 226510,-168010 326210,-267720 99710,-99710 189380,-208970 267730,-326220 78340,-117240 144970,-241900 198930,-372180 53960,-130270 94990,-265530 122500,-403830 27510,-138300 41370,-278970 41370,-419980 z m -30986800,5179790 h 348151480 a 6614583.3,6614583.3 135 0 0 6614580,-6614580 l 0,-114831500 a 6614583.3,6614583.3 45 0 0 -6614580,-6614580 H 123096800 a 6614583.3,6614583.3 135 0 0 -6614580,6614580 v 114831500 a 6614583.3,6614583.3 45 0 0 6614580,6614580 z m 50871390,-11032280 v -3796670 a 661458.33,661458.33 135 0 1 661460,-661460 h 18778180 a 661458.33,661458.33 45 0 1 661460,661460 l 0,3796670 a 661458.33,661458.33 45 0 0 661460,661460 h 17910530 a 661458.33,661458.33 135 0 0 661460,-661460 l 0,-3797180 a 661458.33,661458.33 135 0 1 661460,-661460 h 18778690 a 661458.33,661458.33 45 0 1 661460,661460 l 0,3797180 a 661458.33,661458.33 45 0 0 661460,661460 h 25705410 a 661458.33,661458.33 135 0 0 661460,-661460 v -3797180 a 661458.33,661458.33 135 0 1 661460,-661460 h 18778180 a 661458.33,661458.33 45 0 1 661460,661460 v 3797180 a 661458.33,661458.33 45 0 0 661460,661460 h 31963930 a 661458.33,661458.33 135 0 0 661460,-661460 v -3797700 a 661458.33,661458.33 135 0 1 661460,-661460 h 18779730 a 661458.33,661458.33 45 0 1 661460,661460 v 3797700 a 661458.33,661458.33 45 0 0 661460,661460 h 25653210 a 661458.33,661458.33 135 0 0 661460,-661460 v -3797700 a 661458.33,661458.33 135 0 1 661460,-661460 h 18778700 a 661458.33,661458.33 45 0 1 661460,661460 v 3797700 a 661458.33,661458.33 45 0 0 661460,661460 h 17991660 a 661458.33,661458.33 135 0 0 661460,-661460 v -3797180 a 661458.33,661458.33 135 0 1 661460,-661460 h 18778700 a 661458.33,661458.33 45 0 1 661460,661460 v 3797180 a 661458.33,661458.33 45 0 0 661460,661460 l 43553920,0 a 2910416.7,2910416.7 135 0 0 2910420,-2910420 v -7064160 a 661458.33,661458.33 45 0 0 -661460,-661460 h -4246760 a 661458.33,661458.33 45 0 1 -661460,-661460 v -18774570 a 661458.33,661458.33 135 0 1 661460,-661460 h 4246760 a 661458.33,661458.33 135 0 0 661460,-661460 l 0,-44547140 a 661458.33,661458.33 45 0 0 -661460,-661460 h -3849370 a 661458.33,661458.33 45 0 1 -661460,-661460 v -18779730 a 661458.33,661458.33 135 0 1 661460,-661460 h 3849370 a 661458.33,661458.33 135 0 0 661460,-661460 v -4170290 a 661458.33,661458.33 45 0 0 -661460,-661460 h -18828820 a 661458.33,661458.33 45 0 1 -661460,-661460 v -3847820 a 661357.06,661357.06 44.995614 0 0 -661460,-661360 l -25651660,3930 a 661559.61,661559.61 134.99561 0 0 -661460,661560 v 3844730 a 661458.33,661458.33 135 0 1 -661460,661460 h -18777660 a 661458.33,661458.33 45 0 1 -661460,-661460 v -3841630 a 661369.64,661369.64 44.996159 0 0 -661460,-661370 l -17992700,2410 a 661547.03,661547.03 134.99616 0 0 -661460,661550 v 3889680 a 661458.33,661458.33 135 0 1 -661460,661460 l -18777660,0 a 661458.33,661458.33 45 0 1 -661460,-661460 v -3887100 a 661356.83,661356.83 44.995604 0 0 -661460,-661360 l -25655790,3940 a 661559.84,661559.84 134.9956 0 0 -661460,661560 v 3881410 a 661458.33,661458.33 135 0 1 -661460,661460 h -18775600 a 661458.33,661458.33 45 0 1 -661460,-661460 v -3878830 a 661355.61,661355.61 44.995551 0 0 -661460,-661360 l -31966520,4970 a 661561.07,661561.07 134.99555 0 0 -661460,661560 v 3874690 a 661458.33,661458.33 135 0 1 -661460,661460 h -18777660 a 661458.33,661458.33 45 0 1 -661460,-661460 v -3872110 a 661357.02,661357.02 44.995612 0 0 -661460,-661360 l -25705410,3940 a 661559.66,661559.66 134.99561 0 0 -661460,661560 v 3868490 a 661458.33,661458.33 135 0 1 -661460,661460 h -18778690 a 661458.33,661458.33 45 0 1 -661460,-661460 v -3865910 a 661369.6,661369.6 44.996157 0 0 -661460,-661370 l -17910010,2400 a 661547.07,661547.07 134.99616 0 0 -661460,661550 v 3863850 a 661458.33,661458.33 135 0 1 -661460,661460 h -18779220 a 661458.33,661458.33 45 0 1 -661460,-661460 v -3860750 a 661356.99,661356.99 44.995611 0 0 -661460,-661360 l -25698170,3940 a 661559.68,661559.68 134.99561 0 0 -661460,661560 v 3856610 a 661458.33,661458.33 135 0 1 -661460,661460 h -18784380 a 661583.57,661583.57 135.00542 0 0 -661580,661460 l -780,4117570 a 661333.11,661333.11 45.005424 0 0 661330,661460 h 3833360 a 661458.33,661458.33 45 0 1 661460,661460 l 0,18780760 a 661458.33,661458.33 135 0 1 -661460,661460 h -3836980 a 661577.46,661577.46 135.00516 0 0 -661580,661460 l -8020,44544050 a 661339.22,661339.22 45.005159 0 0 661340,661460 l 3828700,0 a 661458.33,661458.33 45 0 1 661460,661460 v 18779730 a 661458.33,661458.33 135 0 1 -661460,661460 h -3832320 a 661583.13,661583.13 135.0054 0 0 -661580,661460 l -790,4189920 a 661333.56,661333.56 45.005404 0 0 661330,661460 h 18782320 a 661458.33,661458.33 45 0 1 661460,661460 v 3797700 a 661458.33,661458.33 45 0 0 661460,661460 l 25718320,0 a 661458.33,661458.33 135 0 0 661460,-661460 z"
       inkscape:path-effect="#path-effect5733"
       inkscape:original-d="m 154083600,-307774720 c 0,141010 -13850,281680 -41360,419980 -27510,138300 -68540,273560 -122510,403840 -53960,130270 -120590,254930 -198930,372180 -78340,117240 -168010,226510 -267720,326220 -99710,99710 -208980,189380 -326220,267720 -117250,78340 -241910,144970 -372180,198930 -130280,53960 -265540,95000 -403840,122510 -138300,27510 -278970,41360 -419980,41360 -141010,0 -281680,-13860 -419980,-41370 -138300,-27510 -273560,-68540 -403830,-122500 -130280,-53960 -254940,-120590 -372180,-198940 -117250,-78340 -226510,-168010 -326220,-267720 -99710,-99710 -189380,-208970 -267720,-326210 -78340,-117250 -144970,-241910 -198930,-372180 -53970,-130280 -95000,-265540 -122510,-403840 -27510,-138300 -41360,-278970 -41360,-419980 0,-141010 13850,-281680 41360,-419980 27510,-138300 68540,-273560 122510,-403840 53960,-130270 120590,-254930 198930,-372180 78340,-117240 168010,-226510 267720,-326210 99710,-99710 208970,-189380 326220,-267730 117240,-78340 241900,-144970 372180,-198930 130270,-53960 265530,-94990 403830,-122500 138300,-27510 278970,-41370 419980,-41370 141010,0 281680,13850 419980,41360 138300,27510 273560,68540 403840,122510 130270,53960 254930,120590 372180,198930 117240,78340 226510,168010 326220,267720 99710,99710 189380,208980 267720,326220 78340,117250 144970,241910 198930,372180 53970,130280 95000,265540 122510,403840 27510,138300 41360,278970 41360,419980 z m 318656140,61030210 c -141010,0 -281680,-13860 -419980,-41370 -138300,-27510 -273560,-68540 -403830,-122500 -130280,-53960 -254940,-120590 -372180,-198940 -117250,-78340 -226510,-168010 -326220,-267720 -99710,-99710 -189380,-208970 -267720,-326210 -78340,-117250 -144970,-241910 -198930,-372180 -53970,-130280 -95000,-265540 -122510,-403840 -27510,-138300 -41360,-278970 -41360,-419980 0,-141010 13850,-281680 41360,-419980 27510,-138300 68540,-273560 122510,-403840 53960,-130270 120590,-254930 198930,-372180 78340,-117240 168010,-226510 267720,-326210 99710,-99710 208970,-189380 326220,-267730 117240,-78340 241900,-144970 372180,-198930 130270,-53960 265530,-94990 403830,-122500 138300,-27510 278970,-41370 419980,-41370 141010,0 281680,13850 419980,41360 138300,27510 273560,68540 403840,122510 130270,53960 254930,120590 372180,198930 117240,78340 226510,168010 326220,267720 99710,99710 189380,208980 267720,326220 78340,117250 144970,241910 198930,372180 53970,130280 95000,265540 122510,403840 27510,138300 41360,278970 41360,419980 0,141010 -13850,281680 -41360,419980 -27510,138300 -68540,273560 -122510,403840 -53960,130270 -120590,254930 -198930,372180 -78340,117240 -168010,226510 -267720,326220 -99710,99710 -208980,189380 -326220,267720 -117250,78340 -241910,144970 -372180,198930 -130280,53960 -265540,95000 -403840,122510 -138300,27510 -278970,41360 -419980,41360 z m -351105690,20 c 141010,0 281680,-13850 419980,-41360 138300,-27510 273560,-68550 403840,-122510 130270,-53960 254930,-120590 372180,-198930 117240,-78340 226510,-168010 326220,-267720 99710,-99710 189380,-208980 267720,-326220 78340,-117250 144970,-241910 198930,-372180 53970,-130280 95000,-265540 122510,-403840 27510,-138300 41360,-278970 41360,-419980 0,-141010 -13850,-281680 -41360,-419980 -27510,-138300 -68540,-273560 -122510,-403840 -53960,-130270 -120590,-254930 -198930,-372180 -78340,-117240 -168010,-226510 -267720,-326220 -99710,-99710 -208980,-189380 -326220,-267720 -117250,-78340 -241910,-144970 -372180,-198930 -130280,-53970 -265540,-95000 -403840,-122510 -138300,-27510 -278970,-41360 -419980,-41360 -141010,0 -281680,13850 -419980,41360 -138300,27510 -273560,68540 -403840,122510 -130270,53960 -254930,120590 -372180,198930 -117240,78340 -226510,168010 -326220,267720 -99710,99710 -189380,208980 -267720,326220 -78340,117250 -144970,241910 -198930,372180 -53960,130280 -95000,265540 -122510,403840 -27510,138300 -41360,278970 -41360,419980 0,141010 13850,281680 41360,419980 27510,138300 68550,273560 122510,403840 53960,130270 120590,254930 198930,372180 78340,117240 168010,226510 267720,326220 99710,99710 208980,189380 326220,267720 117250,78340 241910,144970 372180,198930 130280,53960 265540,95000 403840,122510 138300,27510 278970,41360 419980,41360 z m 232170560,-61030230 c 0,141010 13850,281680 41360,419980 27510,138300 68540,273560 122510,403840 53960,130270 120590,254930 198930,372180 78340,117240 168010,226500 267720,326210 99710,99710 208970,189380 326220,267720 117240,78350 241900,144980 372180,198940 130270,53960 265530,94990 403830,122500 138300,27510 278970,41370 419980,41370 141010,0 281680,-13850 419980,-41360 138300,-27510 273560,-68550 403840,-122510 130270,-53960 254930,-120590 372180,-198930 117240,-78340 226510,-168010 326220,-267720 99710,-99710 189380,-208980 267720,-326220 78340,-117250 144970,-241910 198930,-372180 53970,-130280 95000,-265540 122510,-403840 27510,-138300 41360,-278970 41360,-419980 0,-141010 -13850,-281680 -41360,-419980 -27510,-138300 -68540,-273560 -122510,-403840 -53960,-130270 -120590,-254930 -198930,-372180 -78340,-117240 -168010,-226510 -267720,-326220 -99710,-99710 -208980,-189380 -326220,-267720 -117250,-78340 -241910,-144970 -372180,-198930 -130280,-53970 -265540,-95000 -403840,-122510 -138300,-27510 -278970,-41360 -419980,-41360 -141010,0 -281680,13860 -419980,41370 -138300,27510 -273560,68540 -403830,122500 -130280,53960 -254940,120590 -372180,198930 -117250,78350 -226510,168020 -326220,267730 -99710,99700 -189380,208970 -267720,326210 -78340,117250 -144970,241910 -198930,372180 -53970,130280 -95000,265540 -122510,403840 -27510,138300 -41360,278970 -41360,419980 z m -113256620,0 c 0,141010 -13850,281680 -41360,419980 -27510,138300 -68540,273560 -122510,403840 -53960,130270 -120590,254930 -198930,372180 -78340,117240 -168010,226510 -267720,326220 -99710,99710 -208980,189380 -326220,267720 -117250,78340 -241910,144970 -372180,198930 -130280,53960 -265540,95000 -403840,122510 -138300,27510 -278970,41360 -419980,41360 -141010,0 -281680,-13850 -419980,-41360 -138300,-27510 -273560,-68550 -403840,-122510 -130270,-53960 -254930,-120590 -372180,-198930 -117240,-78340 -226510,-168010 -326220,-267720 -99710,-99710 -189380,-208980 -267720,-326220 -78340,-117250 -144970,-241910 -198930,-372180 -53960,-130280 -95000,-265540 -122510,-403840 -27510,-138300 -41360,-278970 -41360,-419980 0,-141010 13850,-281680 41360,-419980 27510,-138300 68550,-273560 122510,-403840 53960,-130270 120590,-254930 198930,-372180 78340,-117240 168010,-226510 267720,-326220 99710,-99710 208980,-189380 326220,-267720 117250,-78340 241910,-144970 372180,-198930 130280,-53970 265540,-95000 403840,-122510 138300,-27510 278970,-41360 419980,-41360 141010,0 281680,13850 419980,41360 138300,27510 273560,68540 403840,122510 130270,53960 254930,120590 372180,198930 117240,78340 226510,168010 326220,267720 99710,99710 189380,208980 267720,326220 78340,117250 144970,241910 198930,372180 53970,130280 95000,265540 122510,403840 27510,138300 41360,278970 41360,419980 z m 113258890,117715120 c 0,-141010 13850,-281680 41360,-419980 27510,-138300 68550,-273560 122510,-403840 53960,-130270 120590,-254930 198930,-372180 78340,-117240 168010,-226510 267720,-326220 99710,-99710 208980,-189380 326220,-267720 117250,-78340 241910,-144970 372180,-198930 130280,-53970 265540,-95000 403840,-122510 138300,-27510 278970,-41360 419980,-41360 141010,0 281680,13850 419980,41360 138300,27510 273560,68540 403840,122510 130270,53960 254930,120590 372180,198930 117240,78340 226510,168010 326220,267720 99710,99710 189380,208980 267720,326220 78340,117250 144970,241910 198930,372180 53970,130280 95000,265540 122510,403840 27510,138300 41360,278970 41360,419980 0,141010 -13850,281680 -41360,419980 -27510,138300 -68540,273560 -122510,403840 -53960,130270 -120590,254930 -198930,372180 -78340,117240 -168010,226510 -267720,326220 -99710,99710 -208980,189380 -326220,267720 -117250,78340 -241910,144970 -372180,198930 -130280,53960 -265540,95000 -403840,122510 -138300,27510 -278970,41360 -419980,41360 -141010,0 -281680,-13850 -419980,-41360 -138300,-27510 -273560,-68550 -403840,-122510 -130270,-53960 -254930,-120590 -372180,-198930 -117240,-78340 -226510,-168010 -326220,-267720 -99710,-99710 -189380,-208980 -267720,-326220 -78340,-117250 -144970,-241910 -198930,-372180 -53960,-130280 -95000,-265540 -122510,-403840 -27510,-138300 -41360,-278970 -41360,-419980 z m 83490750,-117715120 c 0,141010 13850,281680 41360,419980 27510,138300 68550,273560 122510,403840 53960,130270 120590,254930 198930,372180 78340,117240 168010,226510 267720,326220 99710,99710 208980,189380 326220,267720 117250,78340 241910,144970 372180,198930 130280,53960 265540,95000 403840,122510 138300,27510 278970,41360 419980,41360 141010,0 281680,-13850 419980,-41360 138300,-27510 273560,-68550 403840,-122510 130270,-53960 254930,-120590 372180,-198930 117240,-78340 226510,-168010 326220,-267720 99710,-99710 189380,-208980 267720,-326220 78340,-117250 144970,-241910 198930,-372180 53970,-130280 95000,-265540 122510,-403840 27510,-138300 41360,-278970 41360,-419980 0,-141010 -13850,-281680 -41360,-419980 -27510,-138300 -68540,-273560 -122510,-403840 -53960,-130270 -120590,-254930 -198930,-372180 -78340,-117240 -168010,-226510 -267720,-326220 -99710,-99710 -208980,-189380 -326220,-267720 -117250,-78340 -241910,-144970 -372180,-198930 -130280,-53970 -265540,-95000 -403840,-122510 -138300,-27510 -278970,-41360 -419980,-41360 -141010,0 -281680,13850 -419980,41360 -138300,27510 -273560,68540 -403840,122510 -130270,53960 -254930,120590 -372180,198930 -117240,78340 -226510,168010 -326220,267720 -99710,99710 -189380,208980 -267720,326220 -78340,117250 -144970,241910 -198930,372180 -53960,130280 -95000,265540 -122510,403840 -27510,138300 -41360,278970 -41360,419980 z m 3840,117715140 c 0,-141010 13850,-281680 41360,-419980 27510,-138300 68550,-273560 122510,-403840 53960,-130270 120590,-254930 198930,-372180 78340,-117240 168010,-226510 267720,-326220 99710,-99710 208980,-189380 326220,-267720 117250,-78340 241910,-144970 372180,-198930 130280,-53970 265540,-95000 403840,-122510 138300,-27510 278970,-41360 419980,-41360 141010,0 281680,13850 419980,41360 138300,27510 273560,68540 403840,122510 130270,53960 254930,120590 372180,198930 117240,78340 226510,168010 326220,267720 99710,99710 189380,208980 267720,326220 78340,117250 144970,241910 198930,372180 53970,130280 95000,265540 122510,403840 27510,138300 41360,278970 41360,419980 0,141010 -13860,281680 -41370,419980 -27510,138300 -68540,273560 -122500,403830 -53960,130280 -120590,254940 -198930,372180 -78350,117250 -168020,226510 -267730,326220 -99700,99710 -208970,189380 -326210,267720 -117250,78340 -241910,144970 -372180,198930 -130280,53970 -265540,95000 -403840,122510 -138300,27510 -278970,41360 -419980,41360 -141010,0 -281680,-13850 -419980,-41360 -138300,-27510 -273560,-68540 -403840,-122510 -130270,-53960 -254930,-120590 -372180,-198930 -117240,-78340 -226500,-168010 -326210,-267720 -99710,-99710 -189380,-208970 -267720,-326220 -78350,-117240 -144980,-241900 -198940,-372180 -53960,-130270 -94990,-265530 -122500,-403830 -27510,-138300 -41370,-278970 -41370,-419980 z m -196753480,-20 c 0,-141010 -13850,-281680 -41360,-419980 -27510,-138300 -68540,-273560 -122510,-403840 -53960,-130270 -120590,-254930 -198930,-372180 -78340,-117240 -168010,-226510 -267720,-326220 -99710,-99710 -208980,-189380 -326220,-267720 -117250,-78340 -241910,-144970 -372180,-198930 -130280,-53970 -265540,-95000 -403840,-122510 -138300,-27510 -278970,-41360 -419980,-41360 -141010,0 -281680,13850 -419980,41360 -138300,27510 -273560,68540 -403840,122510 -130270,53960 -254930,120590 -372180,198930 -117240,78340 -226510,168010 -326220,267720 -99710,99710 -189380,208980 -267720,326220 -78340,117250 -144970,241910 -198930,372180 -53960,130280 -95000,265540 -122510,403840 -27510,138300 -41360,278970 -41360,419980 0,141010 13850,281680 41360,419980 27510,138300 68550,273560 122510,403840 53960,130270 120590,254930 198930,372180 78340,117240 168010,226510 267720,326220 99710,99710 208980,189380 326220,267720 117250,78340 241910,144970 372180,198930 130280,53960 265540,95000 403840,122510 138300,27510 278970,41360 419980,41360 141010,0 281680,-13850 419980,-41360 138300,-27510 273560,-68550 403840,-122510 130270,-53960 254930,-120590 372180,-198930 117240,-78340 226510,-168010 326220,-267720 99710,-99710 189380,-208980 267720,-326220 78340,-117250 144970,-241910 198930,-372180 53970,-130280 95000,-265540 122510,-403840 27510,-138300 41360,-278970 41360,-419980 z m -86464390,20 c 0,-141010 -13850,-281680 -41360,-419980 -27510,-138300 -68540,-273560 -122510,-403840 -53960,-130270 -120590,-254930 -198930,-372180 -78340,-117240 -168010,-226510 -267720,-326220 -99710,-99710 -208980,-189380 -326220,-267720 -117250,-78340 -241910,-144970 -372180,-198930 -130280,-53970 -265540,-95000 -403840,-122510 -138300,-27510 -278970,-41360 -419980,-41360 -141010,0 -281680,13860 -419980,41370 -138300,27510 -273560,68540 -403830,122500 -130280,53960 -254940,120590 -372180,198930 -117250,78350 -226510,168020 -326220,267730 -99710,99700 -189380,208970 -267720,326210 -78340,117250 -144970,241910 -198930,372180 -53970,130280 -95000,265540 -122510,403840 -27510,138300 -41360,278970 -41360,419980 0,141010 13860,281680 41370,419980 27510,138300 68540,273560 122500,403830 53960,130280 120590,254940 198930,372180 78340,117240 168010,226510 267720,326220 99710,99710 208980,189380 326220,267720 117240,78340 241900,144970 372180,198930 130270,53960 265530,94990 403830,122500 138300,27510 278970,41370 419980,41370 141010,0 281680,-13850 419980,-41360 138300,-27510 273560,-68540 403840,-122510 130270,-53960 254930,-120590 372180,-198930 117240,-78340 226510,-168010 326210,-267720 99710,-99710 189380,-208970 267730,-326220 78340,-117240 144970,-241900 198930,-372180 53960,-130270 94990,-265530 122500,-403830 27510,-138300 41370,-278970 41370,-419980 z m -37601380,5179790 H 477862860 V -312940450 H 116482220 Z m 57485970,-10370820 v -5119590 h 20101100 v 5119590 h 19233450 v -5120100 h 20101610 v 5120100 h 27028330 v -5120100 h 20101100 v 5120100 h 33286850 v -5120620 h 20102650 v 5120620 h 26976130 v -5120620 h 20101620 v 5120620 h 19314580 v -5120100 h 20101620 v 5120100 h 47125800 v -10636040 h -5569680 v -20097490 h 5569680 v -45870060 h -5172290 v -20102650 h 5172290 v -5493210 h -20151740 v -5170740 l -26974580,4130 v 5167650 h -20100580 v -5164550 l -19315620,2590 v 5212600 h -20100580 v -5210020 l -26978710,4140 v 5204330 h -20098520 v -5201750 l -33289440,5170 v 5197610 h -20100580 v -5195030 l -27028330,4140 v 5191410 h -20101610 v -5188830 l -19232930,2580 v 5186770 h -20102140 v -5183670 l -27021090,4140 v 5179530 h -20107300 l -1030,5440490 h 5156280 v 20103680 h -5159900 l -8260,45866970 h 5151620 v 20102650 h -5155240 l -1040,5512840 h 20105240 v 5120620 z"
       sodipodi:nodetypes="sssssssssssssssssssssssssssssssssssssssssssssssssssssssssssssssssssssssssssssssssssssssssssssssssssssssssssssssssssssssssssssssssssssssssssssssssssssssssssssssssssssssssssssssssssssssssssssssssssssssssssssssssssssssssssssssssssssssssssssssssssssssssssssssssssssssssssssssssssssssssssssssssssssssssssssssssssssssssssssssssssssssssscccccccccccccccccccccccccccccccccccccccccccccccccccccccccccccccccccccccccccccccc" />
  </g>
  <metadata
     id="metadata2735">
    <rdf:RDF>
      <cc:Work
         rdf:about="">
        <dc:title>SVG Picture created as dynamis-User_Drawings.svg date 2022/06/04 22:09:15 </dc:title>
      </cc:Work>
    </rdf:RDF>
  </metadata>
</svg>
