<?xml version="1.0" encoding="UTF-8" standalone="no"?>
<svg
   version="1.1"
   width="36.142792cm"
   height="12.810792cm"
   viewBox="0 0 3.6142792e+08 1.2810792e+08"
   id="svg5726"
   sodipodi:docname="top.svg"
   inkscape:version="1.2 (dc2aedaf03, 2022-05-15)"
   inkscape:export-filename="..\case\acrylic\bottom.svg"
   inkscape:export-xdpi="96"
   inkscape:export-ydpi="96"
   xmlns:inkscape="http://www.inkscape.org/namespaces/inkscape"
   xmlns:sodipodi="http://sodipodi.sourceforge.net/DTD/sodipodi-0.dtd"
   xmlns="http://www.w3.org/2000/svg"
   xmlns:svg="http://www.w3.org/2000/svg"
   xmlns:rdf="http://www.w3.org/1999/02/22-rdf-syntax-ns#"
   xmlns:cc="http://creativecommons.org/ns#"
   xmlns:dc="http://purl.org/dc/elements/1.1/">
  <defs
     id="defs5730">
    <inkscape:path-effect
       effect="fillet_chamfer"
       id="path-effect5739"
       is_visible="true"
       lpeversion="1"
       nodesatellites_param="F,0,0,1,0,0,0,1 @ F,0,0,1,0,0,0,1 @ F,0,0,1,0,0,0,1 @ F,0,0,1,0,0,0,1 @ F,0,0,1,0,0,0,1 @ F,0,0,1,0,0,0,1 @ F,0,0,1,0,0,0,1 @ F,0,0,1,0,0,0,1 @ F,0,0,1,0,0,0,1 @ F,0,0,1,0,0,0,1 @ F,0,0,1,0,0,0,1 @ F,0,0,1,0,0,0,1 @ F,0,0,1,0,0,0,1 @ F,0,0,1,0,0,0,1 @ F,0,0,1,0,0,0,1 @ F,0,0,1,0,0,0,1 @ F,0,0,1,0,0,0,1 @ F,0,0,1,0,0,0,1 @ F,0,0,1,0,0,0,1 @ F,0,0,1,0,0,0,1 | F,0,0,1,0,0,0,1 @ F,0,0,1,0,0,0,1 @ F,0,0,1,0,0,0,1 @ F,0,0,1,0,0,0,1 @ F,0,0,1,0,0,0,1 @ F,0,0,1,0,0,0,1 @ F,0,0,1,0,0,0,1 @ F,0,0,1,0,0,0,1 @ F,0,0,1,0,0,0,1 @ F,0,0,1,0,0,0,1 @ F,0,0,1,0,0,0,1 @ F,0,0,1,0,0,0,1 @ F,0,0,1,0,0,0,1 @ F,0,0,1,0,0,0,1 @ F,0,0,1,0,0,0,1 @ F,0,0,1,0,0,0,1 @ F,0,0,1,0,0,0,1 @ F,0,0,1,0,0,0,1 @ F,0,0,1,0,0,0,1 @ F,0,0,1,0,0,0,1 | F,0,0,1,0,0,0,1 @ F,0,0,1,0,0,0,1 @ F,0,0,1,0,0,0,1 @ F,0,0,1,0,0,0,1 @ F,0,0,1,0,0,0,1 @ F,0,0,1,0,0,0,1 @ F,0,0,1,0,0,0,1 @ F,0,0,1,0,0,0,1 @ F,0,0,1,0,0,0,1 @ F,0,0,1,0,0,0,1 @ F,0,0,1,0,0,0,1 @ F,0,0,1,0,0,0,1 @ F,0,0,1,0,0,0,1 @ F,0,0,1,0,0,0,1 @ F,0,0,1,0,0,0,1 @ F,0,0,1,0,0,0,1 @ F,0,0,1,0,0,0,1 @ F,0,0,1,0,0,0,1 @ F,0,0,1,0,0,0,1 @ F,0,0,1,0,0,0,1 | F,0,0,1,0,0,0,1 @ F,0,0,1,0,0,0,1 @ F,0,0,1,0,0,0,1 @ F,0,0,1,0,0,0,1 @ F,0,0,1,0,0,0,1 @ F,0,0,1,0,0,0,1 @ F,0,0,1,0,0,0,1 @ F,0,0,1,0,0,0,1 @ F,0,0,1,0,0,0,1 @ F,0,0,1,0,0,0,1 @ F,0,0,1,0,0,0,1 @ F,0,0,1,0,0,0,1 @ F,0,0,1,0,0,0,1 @ F,0,0,1,0,0,0,1 @ F,0,0,1,0,0,0,1 @ F,0,0,1,0,0,0,1 @ F,0,0,1,0,0,0,1 @ F,0,0,1,0,0,0,1 @ F,0,0,1,0,0,0,1 @ F,0,0,1,0,0,0,1 | F,0,0,1,0,0,0,1 @ F,0,0,1,0,0,0,1 @ F,0,0,1,0,0,0,1 @ F,0,0,1,0,0,0,1 @ F,0,0,1,0,0,0,1 @ F,0,0,1,0,0,0,1 @ F,0,0,1,0,0,0,1 @ F,0,0,1,0,0,0,1 @ F,0,0,1,0,0,0,1 @ F,0,0,1,0,0,0,1 @ F,0,0,1,0,0,0,1 @ F,0,0,1,0,0,0,1 @ F,0,0,1,0,0,0,1 @ F,0,0,1,0,0,0,1 @ F,0,0,1,0,0,0,1 @ F,0,0,1,0,0,0,1 @ F,0,0,1,0,0,0,1 @ F,0,0,1,0,0,0,1 @ F,0,0,1,0,0,0,1 @ F,0,0,1,0,0,0,1 | F,0,0,1,0,0,0,1 @ F,0,0,1,0,0,0,1 @ F,0,0,1,0,0,0,1 @ F,0,0,1,0,0,0,1 @ F,0,0,1,0,0,0,1 @ F,0,0,1,0,0,0,1 @ F,0,0,1,0,0,0,1 @ F,0,0,1,0,0,0,1 @ F,0,0,1,0,0,0,1 @ F,0,0,1,0,0,0,1 @ F,0,0,1,0,0,0,1 @ F,0,0,1,0,0,0,1 @ F,0,0,1,0,0,0,1 @ F,0,0,1,0,0,0,1 @ F,0,0,1,0,0,0,1 @ F,0,0,1,0,0,0,1 @ F,0,0,1,0,0,0,1 @ F,0,0,1,0,0,0,1 @ F,0,0,1,0,0,0,1 @ F,0,0,1,0,0,0,1 | F,0,0,1,0,0,0,1 @ F,0,0,1,0,0,0,1 @ F,0,0,1,0,0,0,1 @ F,0,0,1,0,0,0,1 @ F,0,0,1,0,0,0,1 @ F,0,0,1,0,0,0,1 @ F,0,0,1,0,0,0,1 @ F,0,0,1,0,0,0,1 @ F,0,0,1,0,0,0,1 @ F,0,0,1,0,0,0,1 @ F,0,0,1,0,0,0,1 @ F,0,0,1,0,0,0,1 @ F,0,0,1,0,0,0,1 @ F,0,0,1,0,0,0,1 @ F,0,0,1,0,0,0,1 @ F,0,0,1,0,0,0,1 @ F,0,0,1,0,0,0,1 @ F,0,0,1,0,0,0,1 @ F,0,0,1,0,0,0,1 @ F,0,0,1,0,0,0,1 | F,0,0,1,0,0,0,1 @ F,0,0,1,0,0,0,1 @ F,0,0,1,0,0,0,1 @ F,0,0,1,0,0,0,1 @ F,0,0,1,0,0,0,1 @ F,0,0,1,0,0,0,1 @ F,0,0,1,0,0,0,1 @ F,0,0,1,0,0,0,1 @ F,0,0,1,0,0,0,1 @ F,0,0,1,0,0,0,1 @ F,0,0,1,0,0,0,1 @ F,0,0,1,0,0,0,1 @ F,0,0,1,0,0,0,1 @ F,0,0,1,0,0,0,1 @ F,0,0,1,0,0,0,1 @ F,0,0,1,0,0,0,1 @ F,0,0,1,0,0,0,1 @ F,0,0,1,0,0,0,1 @ F,0,0,1,0,0,0,1 @ F,0,0,1,0,0,0,1 | F,0,0,1,0,0,0,1 @ F,0,0,1,0,0,0,1 @ F,0,0,1,0,0,0,1 @ F,0,0,1,0,0,0,1 @ F,0,0,1,0,0,0,1 @ F,0,0,1,0,0,0,1 @ F,0,0,1,0,0,0,1 @ F,0,0,1,0,0,0,1 @ F,0,0,1,0,0,0,1 @ F,0,0,1,0,0,0,1 @ F,0,0,1,0,0,0,1 @ F,0,0,1,0,0,0,1 @ F,0,0,1,0,0,0,1 @ F,0,0,1,0,0,0,1 @ F,0,0,1,0,0,0,1 @ F,0,0,1,0,0,0,1 @ F,0,0,1,0,0,0,1 @ F,0,0,1,0,0,0,1 @ F,0,0,1,0,0,0,1 @ F,0,0,1,0,0,0,1 | F,0,0,1,0,0,0,1 @ F,0,0,1,0,0,0,1 @ F,0,0,1,0,0,0,1 @ F,0,0,1,0,0,0,1 @ F,0,0,1,0,0,0,1 @ F,0,0,1,0,0,0,1 @ F,0,0,1,0,0,0,1 @ F,0,0,1,0,0,0,1 @ F,0,0,1,0,0,0,1 @ F,0,0,1,0,0,0,1 @ F,0,0,1,0,0,0,1 @ F,0,0,1,0,0,0,1 @ F,0,0,1,0,0,0,1 @ F,0,0,1,0,0,0,1 @ F,0,0,1,0,0,0,1 @ F,0,0,1,0,0,0,1 @ F,0,0,1,0,0,0,1 @ F,0,0,1,0,0,0,1 @ F,0,0,1,0,0,0,1 @ F,0,0,1,0,0,0,1 | F,0,0,1,0,6614583.3,0,1 @ F,0,0,1,0,6614583.3,0,1 @ F,0,0,1,0,6614583.3,0,1 @ F,0,0,1,0,6614583.3,0,1 | F,0,0,1,0,661458.33,0,1 @ F,0,0,1,0,661458.33,0,1 @ F,0,0,1,0,661458.33,0,1 @ F,0,0,1,0,661458.33,0,1 @ F,0,0,1,0,661458.33,0,1 @ F,0,0,1,0,661458.33,0,1 @ F,0,1,1,0,661458.33,0,1 @ F,0,1,1,0,661458.33,0,1 @ F,0,1,1,0,661458.33,0,1 @ F,0,1,1,0,661458.33,0,1 @ F,0,1,1,0,661458.33,0,1 @ F,0,1,1,0,661458.33,0,1 | F,0,0,1,0,0,0,1 @ F,0,0,1,0,0,0,1 @ F,0,0,1,0,0,0,1 @ F,0,0,1,0,0,0,1"
       unit="px"
       method="auto"
       mode="F"
       radius="1000000"
       chamfer_steps="1"
       flexible="false"
       use_knot_distance="true"
       apply_no_radius="true"
       apply_with_radius="true"
       only_selected="true"
       hide_knots="false" />
  </defs>
  <sodipodi:namedview
     id="namedview5728"
     pagecolor="#ffffff"
     bordercolor="#000000"
     borderopacity="0.25"
     inkscape:showpageshadow="2"
     inkscape:pageopacity="0.0"
     inkscape:pagecheckerboard="0"
     inkscape:deskcolor="#d1d1d1"
     inkscape:document-units="cm"
     showgrid="false"
     inkscape:zoom="0.70710675"
     inkscape:cx="587.60576"
     inkscape:cy="165.46299"
     inkscape:window-width="1920"
     inkscape:window-height="1009"
     inkscape:window-x="1912"
     inkscape:window-y="-8"
     inkscape:window-maximized="1"
     inkscape:current-layer="g1144" />
  <title
     id="title2">SVG Picture created as dynamis-User_Drawings.svg date 2022/06/04 22:09:15 </title>
  <desc
     id="desc4">Picture generated by PCBNEW </desc>
  <g
     inkscape:groupmode="layer"
     id="g1144"
     inkscape:label="a-top"
     style="display:inline"
     transform="translate(-116458590,-184856160)">
    <path
       id="circle933-0"
       style="display:inline;fill:none;stroke:#ff0000;stroke-width:47261.5;stroke-opacity:1"
       transform="scale(-1)"
       d="m -438374000,-307774720 c 0,70500 -6930,140840 -20680,209990 -13760,69150 -34270,136780 -61250,201920 -54100,130590 -133380,249250 -233330,349200 -99950,99950 -218610,179230 -349200,233330 -65140,26980 -132770,47490 -201920,61250 -69150,13750 -139490,20680 -209990,20680 -70510,0 -140840,-6930 -209990,-20680 -69150,-13760 -136780,-34270 -201920,-61250 -130590,-54100 -249250,-133380 -349200,-233330 -99950,-99950 -179230,-218610 -233330,-349200 -54090,-130590 -81930,-270560 -81930,-411910 0,-141350 27840,-281320 81930,-411910 54100,-130590 133380,-249250 233330,-349200 99950,-99950 218610,-179230 349200,-233330 130590,-54090 270560,-81930 411910,-81930 141350,0 281320,27840 411910,81930 130590,54100 249250,133380 349200,233330 99950,99950 179230,218610 233330,349200 26980,65140 47490,132770 61250,201920 13750,69150 20680,139480 20680,209990 z m -3840,117715140 c 0,-70510 -6930,-140840 -20680,-209990 -13760,-69150 -34270,-136780 -61250,-201920 -54100,-130590 -133380,-249250 -233330,-349200 -99950,-99950 -218610,-179230 -349200,-233330 -130590,-54090 -270560,-81930 -411910,-81930 -141350,0 -281320,27840 -411910,81930 -130590,54100 -249250,133380 -349200,233330 -99950,99950 -179230,218610 -233330,349200 -54090,130590 -81930,270560 -81930,411910 0,141350 27840,281320 81940,411910 54090,130590 133370,249240 233320,349190 99950,99950 218610,179230 349200,233330 65140,26980 132770,47490 201920,61250 69150,13750 139490,20680 209990,20680 70500,0 140840,-6930 209990,-20680 69150,-13760 136780,-34270 201920,-61250 130590,-54100 249240,-133380 349190,-233330 99950,-99950 179240,-218600 233330,-349190 26980,-65140 47500,-132770 61260,-201920 13750,-69150 20680,-139490 20680,-209990 z m 285370610,-117715140 c 0,70500 6930,140840 20680,209990 13760,69150 34270,136780 61250,201920 54100,130590 133380,249250 233330,349200 99950,99950 218610,179230 349200,233330 65140,26980 132770,47490 201920,61250 69150,13750 139480,20680 209990,20680 70500,0 140840,-6930 209990,-20680 69150,-13760 136780,-34280 201920,-61260 130590,-54090 249240,-133380 349190,-233330 99950,-99950 179230,-218600 233330,-349190 54090,-130590 81930,-270560 81930,-411910 0,-141350 -27840,-281320 -81930,-411910 -54100,-130590 -133380,-249250 -233330,-349200 -99950,-99950 -218600,-179230 -349190,-233320 -130590,-54100 -270560,-81940 -411910,-81940 -141350,0 -281320,27840 -411910,81930 -130590,54100 -249250,133380 -349200,233330 -99950,99950 -179230,218610 -233330,349200 -26980,65140 -47490,132770 -61250,201920 -13750,69150 -20680,139480 -20680,209990 z m -319732510,59953840 c 70500,0 140840,-6930 209990,-20680 69150,-13760 136780,-34280 201920,-61260 130590,-54090 249240,-133380 349190,-233330 99950,-99950 179230,-218600 233330,-349190 54090,-130590 81930,-270560 81930,-411910 0,-141350 -27840,-281320 -81930,-411910 -54100,-130590 -133380,-249250 -233330,-349200 -99950,-99950 -218600,-179230 -349190,-233320 -130590,-54100 -270560,-81940 -411910,-81940 -141350,0 -281320,27840 -411910,81930 -130590,54100 -249250,133380 -349200,233330 -99950,99950 -179230,218610 -233330,349200 -26980,65140 -47490,132770 -61250,201920 -13750,69150 -20680,139480 -20680,209990 0,70500 6930,140840 20680,209990 13760,69150 34270,136780 61250,201920 54100,130590 133380,249250 233330,349200 99950,99950 218610,179230 349200,233330 65140,26980 132770,47490 201920,61250 69150,13750 139480,20680 209990,20680 z m 351105690,20 c -70510,0 -140840,-6930 -209990,-20680 -69150,-13760 -136780,-34270 -201920,-61250 -130590,-54100 -249250,-133380 -349200,-233330 -99950,-99950 -179230,-218610 -233330,-349200 -26980,-65140 -47490,-132770 -61250,-201920 -13750,-69150 -20680,-139490 -20680,-209990 0,-70510 6930,-140840 20680,-209990 13760,-69150 34270,-136780 61250,-201920 54100,-130590 133380,-249250 233330,-349200 99950,-99950 218610,-179230 349200,-233330 130590,-54090 270560,-81930 411910,-81930 141350,0 281320,27840 411910,81930 130590,54100 249250,133380 349200,233330 99950,99950 179230,218610 233330,349200 54090,130590 81930,270560 81930,411910 0,141350 -27840,281320 -81930,411910 -54100,130590 -133380,249250 -233330,349200 -99950,99950 -218610,179230 -349200,233330 -65140,26980 -132770,47490 -201920,61250 -69150,13750 -139490,20680 -209990,20680 z m -233246930,-59953860 c 0,141350 -27840,281320 -81930,411910 -54100,130590 -133380,249240 -233330,349190 -99950,99950 -218600,179240 -349190,233330 -65140,26980 -132770,47500 -201920,61260 -69150,13750 -139490,20680 -209990,20680 -70510,0 -140840,-6930 -209990,-20680 -69150,-13760 -136780,-34270 -201920,-61250 -130590,-54100 -249250,-133380 -349200,-233330 -99950,-99950 -179230,-218610 -233330,-349200 -26980,-65140 -47490,-132770 -61250,-201920 -13750,-69150 -20680,-139490 -20680,-209990 0,-70510 6930,-140840 20680,-209990 13760,-69150 34270,-136780 61250,-201920 54100,-130590 133380,-249250 233330,-349200 99950,-99950 218610,-179230 349200,-233330 130590,-54090 270560,-81930 411910,-81930 141350,0 281320,27840 411910,81940 130590,54090 249240,133370 349190,233320 99950,99950 179230,218610 233330,349200 54090,130590 81930,270560 81930,411910 z m 115409360,0 c 0,70500 6930,140840 20680,209990 13760,69150 34270,136780 61250,201920 54100,130590 133380,249250 233330,349200 99950,99950 218610,179230 349200,233330 65140,26980 132770,47490 201920,61250 69150,13750 139480,20680 209990,20680 70500,0 140840,-6930 209990,-20680 69150,-13760 136780,-34270 201920,-61250 130590,-54100 249250,-133380 349200,-233330 99950,-99950 179230,-218610 233330,-349200 54090,-130590 81930,-270560 81930,-411910 0,-141350 -27840,-281320 -81930,-411910 -54100,-130590 -133380,-249250 -233330,-349200 -99950,-99950 -218610,-179230 -349200,-233330 -130590,-54090 -270560,-81930 -411910,-81930 -141350,0 -281320,27840 -411910,81930 -130590,54100 -249250,133380 -349200,233330 -99950,99950 -179230,218610 -233330,349200 -26980,65140 -47490,132770 -61250,201920 -13750,69150 -20680,139480 -20680,209990 z m -115411630,117715120 c 0,-141350 -27840,-281320 -81930,-411910 -54100,-130590 -133380,-249250 -233330,-349200 -99950,-99950 -218610,-179230 -349200,-233330 -130590,-54090 -270560,-81930 -411910,-81930 -141350,0 -281320,27840 -411910,81930 -130590,54100 -249250,133380 -349200,233330 -99950,99950 -179230,218610 -233330,349200 -26980,65140 -47490,132770 -61250,201920 -13750,69150 -20680,139480 -20680,209990 0,70500 6930,140840 20680,209990 13760,69150 34270,136780 61250,201920 54100,130590 133380,249250 233330,349200 99950,99950 218610,179230 349200,233330 65140,26980 132770,47490 201920,61250 69150,13750 139480,20680 209990,20680 70500,0 140840,-6930 209990,-20680 69150,-13760 136780,-34270 201920,-61250 130590,-54100 249250,-133380 349200,-233330 99950,-99950 179230,-218610 233330,-349200 54090,-130590 81930,-270560 81930,-411910 z m 201876020,20 c 0,-70510 6930,-140840 20680,-209990 13760,-69150 34270,-136780 61250,-201920 54100,-130590 133380,-249250 233330,-349200 99950,-99950 218610,-179230 349200,-233330 130590,-54090 270560,-81930 411910,-81930 141350,0 281320,27840 411910,81940 130590,54090 249240,133370 349190,233320 99950,99950 179230,218610 233330,349200 54090,130590 81930,270560 81930,411910 0,141350 -27840,281310 -81940,411900 -54090,130590 -133370,249250 -233320,349200 -99950,99950 -218610,179230 -349200,233320 -65130,26990 -132760,47500 -201910,61260 -69150,13750 -139490,20680 -209990,20680 -70500,0 -140840,-6930 -209990,-20680 -69150,-13760 -136780,-34270 -201920,-61250 -130590,-54100 -249250,-133380 -349200,-233330 -99950,-99950 -179230,-218600 -233320,-349190 -26990,-65140 -47500,-132770 -61260,-201920 -13750,-69150 -20680,-139490 -20680,-209990 z m -86464390,-20 c 0,-70510 6930,-140840 20680,-209990 13760,-69150 34270,-136780 61250,-201920 54100,-130590 133380,-249250 233330,-349200 99950,-99950 218610,-179230 349200,-233330 130590,-54090 270560,-81930 411910,-81930 141350,0 281320,27840 411910,81930 130590,54100 249250,133380 349200,233330 99950,99950 179230,218610 233330,349200 54090,130590 81930,270560 81930,411910 0,141350 -27840,281320 -81930,411910 -54100,130590 -133380,249250 -233330,349200 -99950,99950 -218610,179230 -349200,233330 -65140,26980 -132770,47490 -201920,61250 -69150,13750 -139490,20680 -209990,20680 -70510,0 -140840,-6930 -209990,-20680 -69150,-13760 -136780,-34270 -201920,-61250 -130590,-54100 -249250,-133380 -349200,-233330 -99950,-99950 -179230,-218610 -233330,-349200 -26980,-65140 -47490,-132770 -61250,-201920 -13750,-69150 -20680,-139490 -20680,-209990 z m 116374820,5179810 h -348151480 a 6614583.3,6614583.3 45 0 1 -6614580,-6614580 l 0,-114831500 a 6614583.3,6614583.3 135 0 1 6614580,-6614580 h 348151480 a 6614583.3,6614583.3 45 0 1 6614580,6614580 v 114831500 a 6614583.3,6614583.3 135 0 1 -6614580,6614580 z m -9539550,-15495060 h -286226960 a 661458.33,661458.33 45 0 1 -661460,-661460 v -74887410 a 661458.33,661458.33 45 0 0 -661460,-661460 h -1637110 a 661458.33,661458.33 135 0 0 -661460,661460 v 17717260 a 661458.33,661458.33 135 0 1 -661460,661460 h -38559400 a 661458.33,661458.33 45 0 1 -661460,-661460 v -38576970 a 661458.33,661458.33 135 0 1 661460,-661460 h 57626970 a 661458.33,661458.33 45 0 1 661460,661460 v 17727080 a 661458.33,661458.33 45 0 0 661460,661460 h 6383070 a 661458.33,661458.33 135 0 0 661460,-661460 l 0,-17676440 a 661458.33,661458.33 135 0 1 661460,-661460 l 262389140,0 a 661623.95,661623.95 44.992828 0 1 661630,661460 l 23950,95696480 a 661292.75,661292.75 134.99283 0 1 -661290,661460 z m -290230860,-14315400 h -39099930 v -39104590 h 39102520 z"
       inkscape:path-effect="#path-effect5739"
       inkscape:original-d="m -438374000,-307774720 a 1076369.3,1076369.3 0 0 1 -1076370,1076370 1076369.3,1076369.3 0 0 1 -1076370,-1076370 1076369.3,1076369.3 0 0 1 1076370,-1076370 1076369.3,1076369.3 0 0 1 1076370,1076370 z m -3840,117715140 a 1076369.3,1076369.3 0 0 0 -1076370,-1076370 1076369.3,1076369.3 0 0 0 -1076370,1076370 1076369.3,1076369.3 0 0 0 1076370,1076360 1076369.3,1076369.3 0 0 0 1076370,-1076360 z m 285370610,-117715140 c 0,70500 6930,140840 20680,209990 13760,69150 34270,136780 61250,201920 54100,130590 133380,249250 233330,349200 99950,99950 218610,179230 349200,233330 65140,26980 132770,47490 201920,61250 69150,13750 139480,20680 209990,20680 70500,0 140840,-6930 209990,-20680 69150,-13760 136780,-34280 201920,-61260 130590,-54090 249240,-133380 349190,-233330 99950,-99950 179230,-218600 233330,-349190 54090,-130590 81930,-270560 81930,-411910 0,-141350 -27840,-281320 -81930,-411910 -54100,-130590 -133380,-249250 -233330,-349200 -99950,-99950 -218600,-179230 -349190,-233320 -130590,-54100 -270560,-81940 -411910,-81940 -141350,0 -281320,27840 -411910,81930 -130590,54100 -249250,133380 -349200,233330 -99950,99950 -179230,218610 -233330,349200 -26980,65140 -47490,132770 -61250,201920 -13750,69150 -20680,139480 -20680,209990 z m -319732510,59953840 c 70500,0 140840,-6930 209990,-20680 69150,-13760 136780,-34280 201920,-61260 130590,-54090 249240,-133380 349190,-233330 99950,-99950 179230,-218600 233330,-349190 54090,-130590 81930,-270560 81930,-411910 0,-141350 -27840,-281320 -81930,-411910 -54100,-130590 -133380,-249250 -233330,-349200 -99950,-99950 -218600,-179230 -349190,-233320 -130590,-54100 -270560,-81940 -411910,-81940 -141350,0 -281320,27840 -411910,81930 -130590,54100 -249250,133380 -349200,233330 -99950,99950 -179230,218610 -233330,349200 -26980,65140 -47490,132770 -61250,201920 -13750,69150 -20680,139480 -20680,209990 0,70500 6930,140840 20680,209990 13760,69150 34270,136780 61250,201920 54100,130590 133380,249250 233330,349200 99950,99950 218610,179230 349200,233330 65140,26980 132770,47490 201920,61250 69150,13750 139480,20680 209990,20680 z m 351105690,20 c -70510,0 -140840,-6930 -209990,-20680 -69150,-13760 -136780,-34270 -201920,-61250 -130590,-54100 -249250,-133380 -349200,-233330 -99950,-99950 -179230,-218610 -233330,-349200 -26980,-65140 -47490,-132770 -61250,-201920 -13750,-69150 -20680,-139490 -20680,-209990 0,-70510 6930,-140840 20680,-209990 13760,-69150 34270,-136780 61250,-201920 54100,-130590 133380,-249250 233330,-349200 99950,-99950 218610,-179230 349200,-233330 130590,-54090 270560,-81930 411910,-81930 141350,0 281320,27840 411910,81930 130590,54100 249250,133380 349200,233330 99950,99950 179230,218610 233330,349200 54090,130590 81930,270560 81930,411910 0,141350 -27840,281320 -81930,411910 -54100,130590 -133380,249250 -233330,349200 -99950,99950 -218610,179230 -349200,233330 -65140,26980 -132770,47490 -201920,61250 -69150,13750 -139490,20680 -209990,20680 z m -233246930,-59953860 c 0,141350 -27840,281320 -81930,411910 -54100,130590 -133380,249240 -233330,349190 -99950,99950 -218600,179240 -349190,233330 -65140,26980 -132770,47500 -201920,61260 -69150,13750 -139490,20680 -209990,20680 -70510,0 -140840,-6930 -209990,-20680 -69150,-13760 -136780,-34270 -201920,-61250 -130590,-54100 -249250,-133380 -349200,-233330 -99950,-99950 -179230,-218610 -233330,-349200 -26980,-65140 -47490,-132770 -61250,-201920 -13750,-69150 -20680,-139490 -20680,-209990 0,-70510 6930,-140840 20680,-209990 13760,-69150 34270,-136780 61250,-201920 54100,-130590 133380,-249250 233330,-349200 99950,-99950 218610,-179230 349200,-233330 130590,-54090 270560,-81930 411910,-81930 141350,0 281320,27840 411910,81940 130590,54090 249240,133370 349190,233320 99950,99950 179230,218610 233330,349200 54090,130590 81930,270560 81930,411910 z m 115409360,0 c 0,70500 6930,140840 20680,209990 13760,69150 34270,136780 61250,201920 54100,130590 133380,249250 233330,349200 99950,99950 218610,179230 349200,233330 65140,26980 132770,47490 201920,61250 69150,13750 139480,20680 209990,20680 70500,0 140840,-6930 209990,-20680 69150,-13760 136780,-34270 201920,-61250 130590,-54100 249250,-133380 349200,-233330 99950,-99950 179230,-218610 233330,-349200 54090,-130590 81930,-270560 81930,-411910 0,-141350 -27840,-281320 -81930,-411910 -54100,-130590 -133380,-249250 -233330,-349200 -99950,-99950 -218610,-179230 -349200,-233330 -130590,-54090 -270560,-81930 -411910,-81930 -141350,0 -281320,27840 -411910,81930 -130590,54100 -249250,133380 -349200,233330 -99950,99950 -179230,218610 -233330,349200 -26980,65140 -47490,132770 -61250,201920 -13750,69150 -20680,139480 -20680,209990 z m -115411630,117715120 c 0,-141350 -27840,-281320 -81930,-411910 -54100,-130590 -133380,-249250 -233330,-349200 -99950,-99950 -218610,-179230 -349200,-233330 -130590,-54090 -270560,-81930 -411910,-81930 -141350,0 -281320,27840 -411910,81930 -130590,54100 -249250,133380 -349200,233330 -99950,99950 -179230,218610 -233330,349200 -26980,65140 -47490,132770 -61250,201920 -13750,69150 -20680,139480 -20680,209990 0,70500 6930,140840 20680,209990 13760,69150 34270,136780 61250,201920 54100,130590 133380,249250 233330,349200 99950,99950 218610,179230 349200,233330 65140,26980 132770,47490 201920,61250 69150,13750 139480,20680 209990,20680 70500,0 140840,-6930 209990,-20680 69150,-13760 136780,-34270 201920,-61250 130590,-54100 249250,-133380 349200,-233330 99950,-99950 179230,-218610 233330,-349200 54090,-130590 81930,-270560 81930,-411910 z m 201876020,20 c 0,-70510 6930,-140840 20680,-209990 13760,-69150 34270,-136780 61250,-201920 54100,-130590 133380,-249250 233330,-349200 99950,-99950 218610,-179230 349200,-233330 130590,-54090 270560,-81930 411910,-81930 141350,0 281320,27840 411910,81940 130590,54090 249240,133370 349190,233320 99950,99950 179230,218610 233330,349200 54090,130590 81930,270560 81930,411910 0,141350 -27840,281310 -81940,411900 -54090,130590 -133370,249250 -233320,349200 -99950,99950 -218610,179230 -349200,233320 -65130,26990 -132760,47500 -201910,61260 -69150,13750 -139490,20680 -209990,20680 -70500,0 -140840,-6930 -209990,-20680 -69150,-13760 -136780,-34270 -201920,-61250 -130590,-54100 -249250,-133380 -349200,-233330 -99950,-99950 -179230,-218600 -233320,-349190 -26990,-65140 -47500,-132770 -61260,-201920 -13750,-69150 -20680,-139490 -20680,-209990 z m -86464390,-20 c 0,-70510 6930,-140840 20680,-209990 13760,-69150 34270,-136780 61250,-201920 54100,-130590 133380,-249250 233330,-349200 99950,-99950 218610,-179230 349200,-233330 130590,-54090 270560,-81930 411910,-81930 141350,0 281320,27840 411910,81930 130590,54100 249250,133380 349200,233330 99950,99950 179230,218610 233330,349200 54090,130590 81930,270560 81930,411910 0,141350 -27840,281320 -81930,411910 -54100,130590 -133380,249250 -233330,349200 -99950,99950 -218610,179230 -349200,233330 -65140,26980 -132770,47490 -201920,61250 -69150,13750 -139490,20680 -209990,20680 -70510,0 -140840,-6930 -209990,-20680 -69150,-13760 -136780,-34270 -201920,-61250 -130590,-54100 -249250,-133380 -349200,-233330 -99950,-99950 -179230,-218610 -233330,-349200 -26980,-65140 -47490,-132770 -61250,-201920 -13750,-69150 -20680,-139490 -20680,-209990 z m 122989400,5179810 h -361380640 v -128060660 h 361380640 z m -15492670,-15495060 h -287549880 v -76210330 h -2960030 v 19040180 h -39882320 v -39899890 h 58949890 v 19050000 h 7705990 v -18999360 h 263712060 z m -290892320,-14315400 h -39099930 v -39104590 h 39102520 z" />
  </g>
  <metadata
     id="metadata5203">
    <rdf:RDF>
      <cc:Work
         rdf:about="">
        <dc:title>SVG Picture created as dynamis-User_Drawings.svg date 2022/06/04 22:09:15 </dc:title>
      </cc:Work>
    </rdf:RDF>
  </metadata>
</svg>
