%TF.GenerationSoftware,KiCad,Pcbnew,(6.0.5)*%
%TF.CreationDate,2022-06-26T21:13:54+09:00*%
%TF.ProjectId,plate,706c6174-652e-46b6-9963-61645f706362,rev?*%
%TF.SameCoordinates,Original*%
%TF.FileFunction,Soldermask,Top*%
%TF.FilePolarity,Negative*%
%FSLAX46Y46*%
G04 Gerber Fmt 4.6, Leading zero omitted, Abs format (unit mm)*
G04 Created by KiCad (PCBNEW (6.0.5)) date 2022-06-26 21:13:54*
%MOMM*%
%LPD*%
G01*
G04 APERTURE LIST*
G04 APERTURE END LIST*
%TO.C,LOGO01*%
G36*
X445030565Y-170597218D02*
G01*
X446190747Y-170597691D01*
X447350929Y-170598163D01*
X447409947Y-168922786D01*
X447468965Y-167247408D01*
X448531494Y-168922786D01*
X449594023Y-170598163D01*
X448582294Y-170598163D01*
X448003971Y-170620511D01*
X447637778Y-170677624D01*
X447570565Y-170721838D01*
X447682667Y-170932498D01*
X447980379Y-171382108D01*
X448405809Y-171984245D01*
X448535765Y-172162719D01*
X449500965Y-173479925D01*
X449602565Y-172106124D01*
X449704165Y-170732322D01*
X450665819Y-172181475D01*
X451627473Y-173630629D01*
X449594781Y-176737196D01*
X448938346Y-177729733D01*
X448351059Y-178597569D01*
X447871213Y-179285733D01*
X447537100Y-179739252D01*
X447389837Y-179902593D01*
X447229753Y-179759480D01*
X446889430Y-179326020D01*
X446406723Y-178654786D01*
X445819490Y-177798352D01*
X445195056Y-176854593D01*
X445090618Y-176694164D01*
X445132165Y-176694164D01*
X446148165Y-176694164D01*
X446727906Y-176674257D01*
X447095754Y-176623361D01*
X447164165Y-176583565D01*
X447049754Y-176381600D01*
X446745229Y-175940821D01*
X446308646Y-175344241D01*
X446148165Y-175130862D01*
X445132165Y-173788757D01*
X445132165Y-176694164D01*
X445090618Y-176694164D01*
X443199213Y-173788757D01*
X443172527Y-173747764D01*
X444168009Y-173685801D01*
X445163491Y-173623839D01*
X445159040Y-173522489D01*
X445335365Y-173522489D01*
X445518224Y-173593057D01*
X445985739Y-173637834D01*
X446351365Y-173646164D01*
X447367365Y-173646164D01*
X447367365Y-172223764D01*
X447359201Y-171522605D01*
X447337719Y-171014570D01*
X447307428Y-170802474D01*
X447304955Y-170801364D01*
X447157874Y-170952978D01*
X446850493Y-171343843D01*
X446452275Y-171877994D01*
X446032681Y-172459462D01*
X445661175Y-172992283D01*
X445407217Y-173380488D01*
X445335365Y-173522489D01*
X445159040Y-173522489D01*
X445097028Y-172110528D01*
X445030565Y-170597218D01*
G37*
%TD*%
M02*
