%TF.GenerationSoftware,KiCad,Pcbnew,(6.0.5)*%
%TF.CreationDate,2023-05-18T03:47:52+09:00*%
%TF.ProjectId,plate,706c6174-652e-46b6-9963-61645f706362,rev?*%
%TF.SameCoordinates,Original*%
%TF.FileFunction,Soldermask,Top*%
%TF.FilePolarity,Negative*%
%FSLAX46Y46*%
G04 Gerber Fmt 4.6, Leading zero omitted, Abs format (unit mm)*
G04 Created by KiCad (PCBNEW (6.0.5)) date 2023-05-18 03:47:52*
%MOMM*%
%LPD*%
G01*
G04 APERTURE LIST*
G04 APERTURE END LIST*
%TO.C,LOGO01*%
G36*
X460405565Y-173272218D02*
G01*
X461565747Y-173272691D01*
X462725929Y-173273163D01*
X462784947Y-171597786D01*
X462843965Y-169922408D01*
X463906494Y-171597786D01*
X464969023Y-173273163D01*
X463957294Y-173273163D01*
X463378971Y-173295511D01*
X463012778Y-173352624D01*
X462945565Y-173396838D01*
X463057667Y-173607498D01*
X463355379Y-174057108D01*
X463780809Y-174659245D01*
X463910765Y-174837719D01*
X464875965Y-176154925D01*
X464977565Y-174781124D01*
X465079165Y-173407322D01*
X466040819Y-174856475D01*
X467002473Y-176305629D01*
X464969781Y-179412196D01*
X464313346Y-180404733D01*
X463726059Y-181272569D01*
X463246213Y-181960733D01*
X462912100Y-182414252D01*
X462764837Y-182577593D01*
X462604753Y-182434480D01*
X462264430Y-182001020D01*
X461781723Y-181329786D01*
X461194490Y-180473352D01*
X460570056Y-179529593D01*
X460465618Y-179369164D01*
X460507165Y-179369164D01*
X461523165Y-179369164D01*
X462102906Y-179349257D01*
X462470754Y-179298361D01*
X462539165Y-179258565D01*
X462424754Y-179056600D01*
X462120229Y-178615821D01*
X461683646Y-178019241D01*
X461523165Y-177805862D01*
X460507165Y-176463757D01*
X460507165Y-179369164D01*
X460465618Y-179369164D01*
X458574213Y-176463757D01*
X458547527Y-176422764D01*
X459543009Y-176360801D01*
X460538491Y-176298839D01*
X460534040Y-176197489D01*
X460710365Y-176197489D01*
X460893224Y-176268057D01*
X461360739Y-176312834D01*
X461726365Y-176321164D01*
X462742365Y-176321164D01*
X462742365Y-174898764D01*
X462734201Y-174197605D01*
X462712719Y-173689570D01*
X462682428Y-173477474D01*
X462679955Y-173476364D01*
X462532874Y-173627978D01*
X462225493Y-174018843D01*
X461827275Y-174552994D01*
X461407681Y-175134462D01*
X461036175Y-175667283D01*
X460782217Y-176055488D01*
X460710365Y-176197489D01*
X460534040Y-176197489D01*
X460472028Y-174785528D01*
X460405565Y-173272218D01*
G37*
%TD*%
M02*
