%TF.GenerationSoftware,KiCad,Pcbnew,(6.0.5)*%
%TF.CreationDate,2023-05-18T03:47:52+09:00*%
%TF.ProjectId,plate,706c6174-652e-46b6-9963-61645f706362,rev?*%
%TF.SameCoordinates,Original*%
%TF.FileFunction,Soldermask,Bot*%
%TF.FilePolarity,Negative*%
%FSLAX46Y46*%
G04 Gerber Fmt 4.6, Leading zero omitted, Abs format (unit mm)*
G04 Created by KiCad (PCBNEW (6.0.5)) date 2023-05-18 03:47:52*
%MOMM*%
%LPD*%
G01*
G04 APERTURE LIST*
%ADD10C,0.300000*%
G04 APERTURE END LIST*
D10*
X231271428Y-270253571D02*
X231271428Y-268753571D01*
X231271428Y-270182142D02*
X231414285Y-270253571D01*
X231700000Y-270253571D01*
X231842857Y-270182142D01*
X231914285Y-270110714D01*
X231985714Y-269967857D01*
X231985714Y-269539285D01*
X231914285Y-269396428D01*
X231842857Y-269325000D01*
X231700000Y-269253571D01*
X231414285Y-269253571D01*
X231271428Y-269325000D01*
X230700000Y-269253571D02*
X230342857Y-270253571D01*
X229985714Y-269253571D02*
X230342857Y-270253571D01*
X230485714Y-270610714D01*
X230557142Y-270682142D01*
X230700000Y-270753571D01*
X229414285Y-269253571D02*
X229414285Y-270253571D01*
X229414285Y-269396428D02*
X229342857Y-269325000D01*
X229200000Y-269253571D01*
X228985714Y-269253571D01*
X228842857Y-269325000D01*
X228771428Y-269467857D01*
X228771428Y-270253571D01*
X227414285Y-270253571D02*
X227414285Y-269467857D01*
X227485714Y-269325000D01*
X227628571Y-269253571D01*
X227914285Y-269253571D01*
X228057142Y-269325000D01*
X227414285Y-270182142D02*
X227557142Y-270253571D01*
X227914285Y-270253571D01*
X228057142Y-270182142D01*
X228128571Y-270039285D01*
X228128571Y-269896428D01*
X228057142Y-269753571D01*
X227914285Y-269682142D01*
X227557142Y-269682142D01*
X227414285Y-269610714D01*
X226700000Y-270253571D02*
X226700000Y-269253571D01*
X226700000Y-269396428D02*
X226628571Y-269325000D01*
X226485714Y-269253571D01*
X226271428Y-269253571D01*
X226128571Y-269325000D01*
X226057142Y-269467857D01*
X226057142Y-270253571D01*
X226057142Y-269467857D02*
X225985714Y-269325000D01*
X225842857Y-269253571D01*
X225628571Y-269253571D01*
X225485714Y-269325000D01*
X225414285Y-269467857D01*
X225414285Y-270253571D01*
X224700000Y-270253571D02*
X224700000Y-269253571D01*
X224700000Y-268753571D02*
X224771428Y-268825000D01*
X224700000Y-268896428D01*
X224628571Y-268825000D01*
X224700000Y-268753571D01*
X224700000Y-268896428D01*
X224057142Y-270182142D02*
X223914285Y-270253571D01*
X223628571Y-270253571D01*
X223485714Y-270182142D01*
X223414285Y-270039285D01*
X223414285Y-269967857D01*
X223485714Y-269825000D01*
X223628571Y-269753571D01*
X223842857Y-269753571D01*
X223985714Y-269682142D01*
X224057142Y-269539285D01*
X224057142Y-269467857D01*
X223985714Y-269325000D01*
X223842857Y-269253571D01*
X223628571Y-269253571D01*
X223485714Y-269325000D01*
X221771428Y-269253571D02*
X221414285Y-270253571D01*
X221057142Y-269253571D01*
X220557142Y-268896428D02*
X220485714Y-268825000D01*
X220342857Y-268753571D01*
X219985714Y-268753571D01*
X219842857Y-268825000D01*
X219771428Y-268896428D01*
X219700000Y-269039285D01*
X219700000Y-269182142D01*
X219771428Y-269396428D01*
X220628571Y-270253571D01*
X219700000Y-270253571D01*
X219057142Y-270110714D02*
X218985714Y-270182142D01*
X219057142Y-270253571D01*
X219128571Y-270182142D01*
X219057142Y-270110714D01*
X219057142Y-270253571D01*
X218057142Y-268753571D02*
X217914285Y-268753571D01*
X217771428Y-268825000D01*
X217700000Y-268896428D01*
X217628571Y-269039285D01*
X217557142Y-269325000D01*
X217557142Y-269682142D01*
X217628571Y-269967857D01*
X217700000Y-270110714D01*
X217771428Y-270182142D01*
X217914285Y-270253571D01*
X218057142Y-270253571D01*
X218200000Y-270182142D01*
X218271428Y-270110714D01*
X218342857Y-269967857D01*
X218414285Y-269682142D01*
X218414285Y-269325000D01*
X218342857Y-269039285D01*
X218271428Y-268896428D01*
X218200000Y-268825000D01*
X218057142Y-268753571D01*
X216914285Y-270110714D02*
X216842857Y-270182142D01*
X216914285Y-270253571D01*
X216985714Y-270182142D01*
X216914285Y-270110714D01*
X216914285Y-270253571D01*
X215914285Y-268753571D02*
X215771428Y-268753571D01*
X215628571Y-268825000D01*
X215557142Y-268896428D01*
X215485714Y-269039285D01*
X215414285Y-269325000D01*
X215414285Y-269682142D01*
X215485714Y-269967857D01*
X215557142Y-270110714D01*
X215628571Y-270182142D01*
X215771428Y-270253571D01*
X215914285Y-270253571D01*
X216057142Y-270182142D01*
X216128571Y-270110714D01*
X216200000Y-269967857D01*
X216271428Y-269682142D01*
X216271428Y-269325000D01*
X216200000Y-269039285D01*
X216128571Y-268896428D01*
X216057142Y-268825000D01*
X215914285Y-268753571D01*
X212985714Y-270253571D02*
X212985714Y-268753571D01*
X212985714Y-270182142D02*
X213128571Y-270253571D01*
X213414285Y-270253571D01*
X213557142Y-270182142D01*
X213628571Y-270110714D01*
X213700000Y-269967857D01*
X213700000Y-269539285D01*
X213628571Y-269396428D01*
X213557142Y-269325000D01*
X213414285Y-269253571D01*
X213128571Y-269253571D01*
X212985714Y-269325000D01*
X211700000Y-270182142D02*
X211842857Y-270253571D01*
X212128571Y-270253571D01*
X212271428Y-270182142D01*
X212342857Y-270039285D01*
X212342857Y-269467857D01*
X212271428Y-269325000D01*
X212128571Y-269253571D01*
X211842857Y-269253571D01*
X211700000Y-269325000D01*
X211628571Y-269467857D01*
X211628571Y-269610714D01*
X212342857Y-269753571D01*
X211057142Y-270182142D02*
X210914285Y-270253571D01*
X210628571Y-270253571D01*
X210485714Y-270182142D01*
X210414285Y-270039285D01*
X210414285Y-269967857D01*
X210485714Y-269825000D01*
X210628571Y-269753571D01*
X210842857Y-269753571D01*
X210985714Y-269682142D01*
X211057142Y-269539285D01*
X211057142Y-269467857D01*
X210985714Y-269325000D01*
X210842857Y-269253571D01*
X210628571Y-269253571D01*
X210485714Y-269325000D01*
X209771428Y-270253571D02*
X209771428Y-269253571D01*
X209771428Y-268753571D02*
X209842857Y-268825000D01*
X209771428Y-268896428D01*
X209700000Y-268825000D01*
X209771428Y-268753571D01*
X209771428Y-268896428D01*
X208414285Y-269253571D02*
X208414285Y-270467857D01*
X208485714Y-270610714D01*
X208557142Y-270682142D01*
X208700000Y-270753571D01*
X208914285Y-270753571D01*
X209057142Y-270682142D01*
X208414285Y-270182142D02*
X208557142Y-270253571D01*
X208842857Y-270253571D01*
X208985714Y-270182142D01*
X209057142Y-270110714D01*
X209128571Y-269967857D01*
X209128571Y-269539285D01*
X209057142Y-269396428D01*
X208985714Y-269325000D01*
X208842857Y-269253571D01*
X208557142Y-269253571D01*
X208414285Y-269325000D01*
X207700000Y-269253571D02*
X207700000Y-270253571D01*
X207700000Y-269396428D02*
X207628571Y-269325000D01*
X207485714Y-269253571D01*
X207271428Y-269253571D01*
X207128571Y-269325000D01*
X207057142Y-269467857D01*
X207057142Y-270253571D01*
X205771428Y-270182142D02*
X205914285Y-270253571D01*
X206200000Y-270253571D01*
X206342857Y-270182142D01*
X206414285Y-270039285D01*
X206414285Y-269467857D01*
X206342857Y-269325000D01*
X206200000Y-269253571D01*
X205914285Y-269253571D01*
X205771428Y-269325000D01*
X205700000Y-269467857D01*
X205700000Y-269610714D01*
X206414285Y-269753571D01*
X204414285Y-270253571D02*
X204414285Y-268753571D01*
X204414285Y-270182142D02*
X204557142Y-270253571D01*
X204842857Y-270253571D01*
X204985714Y-270182142D01*
X205057142Y-270110714D01*
X205128571Y-269967857D01*
X205128571Y-269539285D01*
X205057142Y-269396428D01*
X204985714Y-269325000D01*
X204842857Y-269253571D01*
X204557142Y-269253571D01*
X204414285Y-269325000D01*
X202557142Y-270253571D02*
X202557142Y-268753571D01*
X202557142Y-269325000D02*
X202414285Y-269253571D01*
X202128571Y-269253571D01*
X201985714Y-269325000D01*
X201914285Y-269396428D01*
X201842857Y-269539285D01*
X201842857Y-269967857D01*
X201914285Y-270110714D01*
X201985714Y-270182142D01*
X202128571Y-270253571D01*
X202414285Y-270253571D01*
X202557142Y-270182142D01*
X201342857Y-269253571D02*
X200985714Y-270253571D01*
X200628571Y-269253571D02*
X200985714Y-270253571D01*
X201128571Y-270610714D01*
X201200000Y-270682142D01*
X201342857Y-270753571D01*
X198914285Y-270253571D02*
X198914285Y-268753571D01*
X198914285Y-269325000D02*
X198771428Y-269253571D01*
X198485714Y-269253571D01*
X198342857Y-269325000D01*
X198271428Y-269396428D01*
X198200000Y-269539285D01*
X198200000Y-269967857D01*
X198271428Y-270110714D01*
X198342857Y-270182142D01*
X198485714Y-270253571D01*
X198771428Y-270253571D01*
X198914285Y-270182142D01*
X197557142Y-270253571D02*
X197557142Y-268753571D01*
X197557142Y-269325000D02*
X197414285Y-269253571D01*
X197128571Y-269253571D01*
X196985714Y-269325000D01*
X196914285Y-269396428D01*
X196842857Y-269539285D01*
X196842857Y-269967857D01*
X196914285Y-270110714D01*
X196985714Y-270182142D01*
X197128571Y-270253571D01*
X197414285Y-270253571D01*
X197557142Y-270182142D01*
X196200000Y-270253571D02*
X196200000Y-269253571D01*
X196200000Y-269539285D02*
X196128571Y-269396428D01*
X196057142Y-269325000D01*
X195914285Y-269253571D01*
X195771428Y-269253571D01*
X195485714Y-269253571D02*
X194914285Y-269253571D01*
X195271428Y-270253571D02*
X195271428Y-268967857D01*
X195200000Y-268825000D01*
X195057142Y-268753571D01*
X194914285Y-268753571D01*
X194414285Y-270253571D02*
X194414285Y-268753571D01*
X194271428Y-269682142D02*
X193842857Y-270253571D01*
X193842857Y-269253571D02*
X194414285Y-269825000D01*
X193200000Y-270253571D02*
X193200000Y-269253571D01*
X193200000Y-269539285D02*
X193128571Y-269396428D01*
X193057142Y-269325000D01*
X192914285Y-269253571D01*
X192771428Y-269253571D01*
M02*
