%TF.GenerationSoftware,KiCad,Pcbnew,(6.0.5)*%
%TF.CreationDate,2022-06-26T21:13:54+09:00*%
%TF.ProjectId,plate,706c6174-652e-46b6-9963-61645f706362,rev?*%
%TF.SameCoordinates,Original*%
%TF.FileFunction,Soldermask,Bot*%
%TF.FilePolarity,Negative*%
%FSLAX46Y46*%
G04 Gerber Fmt 4.6, Leading zero omitted, Abs format (unit mm)*
G04 Created by KiCad (PCBNEW (6.0.5)) date 2022-06-26 21:13:54*
%MOMM*%
%LPD*%
G01*
G04 APERTURE LIST*
%ADD10C,0.300000*%
G04 APERTURE END LIST*
D10*
X207796428Y-265203571D02*
X207796428Y-263703571D01*
X207796428Y-265132142D02*
X207939285Y-265203571D01*
X208225000Y-265203571D01*
X208367857Y-265132142D01*
X208439285Y-265060714D01*
X208510714Y-264917857D01*
X208510714Y-264489285D01*
X208439285Y-264346428D01*
X208367857Y-264275000D01*
X208225000Y-264203571D01*
X207939285Y-264203571D01*
X207796428Y-264275000D01*
X207225000Y-264203571D02*
X206867857Y-265203571D01*
X206510714Y-264203571D02*
X206867857Y-265203571D01*
X207010714Y-265560714D01*
X207082142Y-265632142D01*
X207225000Y-265703571D01*
X205939285Y-264203571D02*
X205939285Y-265203571D01*
X205939285Y-264346428D02*
X205867857Y-264275000D01*
X205725000Y-264203571D01*
X205510714Y-264203571D01*
X205367857Y-264275000D01*
X205296428Y-264417857D01*
X205296428Y-265203571D01*
X203939285Y-265203571D02*
X203939285Y-264417857D01*
X204010714Y-264275000D01*
X204153571Y-264203571D01*
X204439285Y-264203571D01*
X204582142Y-264275000D01*
X203939285Y-265132142D02*
X204082142Y-265203571D01*
X204439285Y-265203571D01*
X204582142Y-265132142D01*
X204653571Y-264989285D01*
X204653571Y-264846428D01*
X204582142Y-264703571D01*
X204439285Y-264632142D01*
X204082142Y-264632142D01*
X203939285Y-264560714D01*
X203225000Y-265203571D02*
X203225000Y-264203571D01*
X203225000Y-264346428D02*
X203153571Y-264275000D01*
X203010714Y-264203571D01*
X202796428Y-264203571D01*
X202653571Y-264275000D01*
X202582142Y-264417857D01*
X202582142Y-265203571D01*
X202582142Y-264417857D02*
X202510714Y-264275000D01*
X202367857Y-264203571D01*
X202153571Y-264203571D01*
X202010714Y-264275000D01*
X201939285Y-264417857D01*
X201939285Y-265203571D01*
X201225000Y-265203571D02*
X201225000Y-264203571D01*
X201225000Y-263703571D02*
X201296428Y-263775000D01*
X201225000Y-263846428D01*
X201153571Y-263775000D01*
X201225000Y-263703571D01*
X201225000Y-263846428D01*
X200582142Y-265132142D02*
X200439285Y-265203571D01*
X200153571Y-265203571D01*
X200010714Y-265132142D01*
X199939285Y-264989285D01*
X199939285Y-264917857D01*
X200010714Y-264775000D01*
X200153571Y-264703571D01*
X200367857Y-264703571D01*
X200510714Y-264632142D01*
X200582142Y-264489285D01*
X200582142Y-264417857D01*
X200510714Y-264275000D01*
X200367857Y-264203571D01*
X200153571Y-264203571D01*
X200010714Y-264275000D01*
X198296428Y-264203571D02*
X197939285Y-265203571D01*
X197582142Y-264203571D01*
X196225000Y-265203571D02*
X197082142Y-265203571D01*
X196653571Y-265203571D02*
X196653571Y-263703571D01*
X196796428Y-263917857D01*
X196939285Y-264060714D01*
X197082142Y-264132142D01*
X195582142Y-265060714D02*
X195510714Y-265132142D01*
X195582142Y-265203571D01*
X195653571Y-265132142D01*
X195582142Y-265060714D01*
X195582142Y-265203571D01*
X194582142Y-263703571D02*
X194439285Y-263703571D01*
X194296428Y-263775000D01*
X194225000Y-263846428D01*
X194153571Y-263989285D01*
X194082142Y-264275000D01*
X194082142Y-264632142D01*
X194153571Y-264917857D01*
X194225000Y-265060714D01*
X194296428Y-265132142D01*
X194439285Y-265203571D01*
X194582142Y-265203571D01*
X194725000Y-265132142D01*
X194796428Y-265060714D01*
X194867857Y-264917857D01*
X194939285Y-264632142D01*
X194939285Y-264275000D01*
X194867857Y-263989285D01*
X194796428Y-263846428D01*
X194725000Y-263775000D01*
X194582142Y-263703571D01*
X193439285Y-265060714D02*
X193367857Y-265132142D01*
X193439285Y-265203571D01*
X193510714Y-265132142D01*
X193439285Y-265060714D01*
X193439285Y-265203571D01*
X192439285Y-263703571D02*
X192296428Y-263703571D01*
X192153571Y-263775000D01*
X192082142Y-263846428D01*
X192010714Y-263989285D01*
X191939285Y-264275000D01*
X191939285Y-264632142D01*
X192010714Y-264917857D01*
X192082142Y-265060714D01*
X192153571Y-265132142D01*
X192296428Y-265203571D01*
X192439285Y-265203571D01*
X192582142Y-265132142D01*
X192653571Y-265060714D01*
X192725000Y-264917857D01*
X192796428Y-264632142D01*
X192796428Y-264275000D01*
X192725000Y-263989285D01*
X192653571Y-263846428D01*
X192582142Y-263775000D01*
X192439285Y-263703571D01*
X189510714Y-265203571D02*
X189510714Y-263703571D01*
X189510714Y-265132142D02*
X189653571Y-265203571D01*
X189939285Y-265203571D01*
X190082142Y-265132142D01*
X190153571Y-265060714D01*
X190225000Y-264917857D01*
X190225000Y-264489285D01*
X190153571Y-264346428D01*
X190082142Y-264275000D01*
X189939285Y-264203571D01*
X189653571Y-264203571D01*
X189510714Y-264275000D01*
X188225000Y-265132142D02*
X188367857Y-265203571D01*
X188653571Y-265203571D01*
X188796428Y-265132142D01*
X188867857Y-264989285D01*
X188867857Y-264417857D01*
X188796428Y-264275000D01*
X188653571Y-264203571D01*
X188367857Y-264203571D01*
X188225000Y-264275000D01*
X188153571Y-264417857D01*
X188153571Y-264560714D01*
X188867857Y-264703571D01*
X187582142Y-265132142D02*
X187439285Y-265203571D01*
X187153571Y-265203571D01*
X187010714Y-265132142D01*
X186939285Y-264989285D01*
X186939285Y-264917857D01*
X187010714Y-264775000D01*
X187153571Y-264703571D01*
X187367857Y-264703571D01*
X187510714Y-264632142D01*
X187582142Y-264489285D01*
X187582142Y-264417857D01*
X187510714Y-264275000D01*
X187367857Y-264203571D01*
X187153571Y-264203571D01*
X187010714Y-264275000D01*
X186296428Y-265203571D02*
X186296428Y-264203571D01*
X186296428Y-263703571D02*
X186367857Y-263775000D01*
X186296428Y-263846428D01*
X186225000Y-263775000D01*
X186296428Y-263703571D01*
X186296428Y-263846428D01*
X184939285Y-264203571D02*
X184939285Y-265417857D01*
X185010714Y-265560714D01*
X185082142Y-265632142D01*
X185225000Y-265703571D01*
X185439285Y-265703571D01*
X185582142Y-265632142D01*
X184939285Y-265132142D02*
X185082142Y-265203571D01*
X185367857Y-265203571D01*
X185510714Y-265132142D01*
X185582142Y-265060714D01*
X185653571Y-264917857D01*
X185653571Y-264489285D01*
X185582142Y-264346428D01*
X185510714Y-264275000D01*
X185367857Y-264203571D01*
X185082142Y-264203571D01*
X184939285Y-264275000D01*
X184225000Y-264203571D02*
X184225000Y-265203571D01*
X184225000Y-264346428D02*
X184153571Y-264275000D01*
X184010714Y-264203571D01*
X183796428Y-264203571D01*
X183653571Y-264275000D01*
X183582142Y-264417857D01*
X183582142Y-265203571D01*
X182296428Y-265132142D02*
X182439285Y-265203571D01*
X182725000Y-265203571D01*
X182867857Y-265132142D01*
X182939285Y-264989285D01*
X182939285Y-264417857D01*
X182867857Y-264275000D01*
X182725000Y-264203571D01*
X182439285Y-264203571D01*
X182296428Y-264275000D01*
X182225000Y-264417857D01*
X182225000Y-264560714D01*
X182939285Y-264703571D01*
X180939285Y-265203571D02*
X180939285Y-263703571D01*
X180939285Y-265132142D02*
X181082142Y-265203571D01*
X181367857Y-265203571D01*
X181510714Y-265132142D01*
X181582142Y-265060714D01*
X181653571Y-264917857D01*
X181653571Y-264489285D01*
X181582142Y-264346428D01*
X181510714Y-264275000D01*
X181367857Y-264203571D01*
X181082142Y-264203571D01*
X180939285Y-264275000D01*
X179082142Y-265203571D02*
X179082142Y-263703571D01*
X179082142Y-264275000D02*
X178939285Y-264203571D01*
X178653571Y-264203571D01*
X178510714Y-264275000D01*
X178439285Y-264346428D01*
X178367857Y-264489285D01*
X178367857Y-264917857D01*
X178439285Y-265060714D01*
X178510714Y-265132142D01*
X178653571Y-265203571D01*
X178939285Y-265203571D01*
X179082142Y-265132142D01*
X177867857Y-264203571D02*
X177510714Y-265203571D01*
X177153571Y-264203571D02*
X177510714Y-265203571D01*
X177653571Y-265560714D01*
X177725000Y-265632142D01*
X177867857Y-265703571D01*
X175439285Y-265203571D02*
X175439285Y-263703571D01*
X175439285Y-264275000D02*
X175296428Y-264203571D01*
X175010714Y-264203571D01*
X174867857Y-264275000D01*
X174796428Y-264346428D01*
X174725000Y-264489285D01*
X174725000Y-264917857D01*
X174796428Y-265060714D01*
X174867857Y-265132142D01*
X175010714Y-265203571D01*
X175296428Y-265203571D01*
X175439285Y-265132142D01*
X174082142Y-265203571D02*
X174082142Y-263703571D01*
X174082142Y-264275000D02*
X173939285Y-264203571D01*
X173653571Y-264203571D01*
X173510714Y-264275000D01*
X173439285Y-264346428D01*
X173367857Y-264489285D01*
X173367857Y-264917857D01*
X173439285Y-265060714D01*
X173510714Y-265132142D01*
X173653571Y-265203571D01*
X173939285Y-265203571D01*
X174082142Y-265132142D01*
X172725000Y-265203571D02*
X172725000Y-264203571D01*
X172725000Y-264489285D02*
X172653571Y-264346428D01*
X172582142Y-264275000D01*
X172439285Y-264203571D01*
X172296428Y-264203571D01*
X172010714Y-264203571D02*
X171439285Y-264203571D01*
X171796428Y-265203571D02*
X171796428Y-263917857D01*
X171725000Y-263775000D01*
X171582142Y-263703571D01*
X171439285Y-263703571D01*
X170939285Y-265203571D02*
X170939285Y-263703571D01*
X170796428Y-264632142D02*
X170367857Y-265203571D01*
X170367857Y-264203571D02*
X170939285Y-264775000D01*
X169725000Y-265203571D02*
X169725000Y-264203571D01*
X169725000Y-264489285D02*
X169653571Y-264346428D01*
X169582142Y-264275000D01*
X169439285Y-264203571D01*
X169296428Y-264203571D01*
M02*
