%TF.GenerationSoftware,KiCad,Pcbnew,(6.0.5)*%
%TF.CreationDate,2023-05-18T02:22:56+09:00*%
%TF.ProjectId,dynamis,64796e61-6d69-4732-9e6b-696361645f70,v2.0.0*%
%TF.SameCoordinates,Original*%
%TF.FileFunction,Soldermask,Bot*%
%TF.FilePolarity,Negative*%
%FSLAX46Y46*%
G04 Gerber Fmt 4.6, Leading zero omitted, Abs format (unit mm)*
G04 Created by KiCad (PCBNEW (6.0.5)) date 2023-05-18 02:22:56*
%MOMM*%
%LPD*%
G01*
G04 APERTURE LIST*
G04 Aperture macros list*
%AMRoundRect*
0 Rectangle with rounded corners*
0 $1 Rounding radius*
0 $2 $3 $4 $5 $6 $7 $8 $9 X,Y pos of 4 corners*
0 Add a 4 corners polygon primitive as box body*
4,1,4,$2,$3,$4,$5,$6,$7,$8,$9,$2,$3,0*
0 Add four circle primitives for the rounded corners*
1,1,$1+$1,$2,$3*
1,1,$1+$1,$4,$5*
1,1,$1+$1,$6,$7*
1,1,$1+$1,$8,$9*
0 Add four rect primitives between the rounded corners*
20,1,$1+$1,$2,$3,$4,$5,0*
20,1,$1+$1,$4,$5,$6,$7,0*
20,1,$1+$1,$6,$7,$8,$9,0*
20,1,$1+$1,$8,$9,$2,$3,0*%
G04 Aperture macros list end*
%ADD10C,3.000000*%
%ADD11C,3.987800*%
%ADD12C,1.750000*%
%ADD13R,2.550000X2.500000*%
%ADD14R,0.820000X1.800000*%
%ADD15R,2.500000X2.550000*%
%ADD16C,3.048000*%
%ADD17R,2.000000X2.000000*%
%ADD18C,2.000000*%
%ADD19R,2.500000X3.000000*%
%ADD20RoundRect,0.250000X0.625000X-0.312500X0.625000X0.312500X-0.625000X0.312500X-0.625000X-0.312500X0*%
%ADD21R,1.200000X0.900000*%
%ADD22RoundRect,0.250000X-0.650000X0.325000X-0.650000X-0.325000X0.650000X-0.325000X0.650000X0.325000X0*%
%ADD23C,0.650000*%
%ADD24R,0.600000X1.450000*%
%ADD25R,0.300000X1.450000*%
%ADD26O,1.000000X2.100000*%
%ADD27O,1.000000X1.600000*%
%ADD28R,0.750000X1.000000*%
%ADD29RoundRect,0.250000X-0.625000X0.312500X-0.625000X-0.312500X0.625000X-0.312500X0.625000X0.312500X0*%
%ADD30RoundRect,0.250000X0.650000X-0.325000X0.650000X0.325000X-0.650000X0.325000X-0.650000X-0.325000X0*%
%ADD31RoundRect,0.250000X0.325000X0.650000X-0.325000X0.650000X-0.325000X-0.650000X0.325000X-0.650000X0*%
%ADD32R,0.700000X0.600000*%
%ADD33R,1.400000X1.200000*%
%ADD34RoundRect,0.062500X0.475000X0.062500X-0.475000X0.062500X-0.475000X-0.062500X0.475000X-0.062500X0*%
%ADD35RoundRect,0.062500X0.062500X0.475000X-0.062500X0.475000X-0.062500X-0.475000X0.062500X-0.475000X0*%
%ADD36R,5.200000X5.200000*%
%ADD37R,1.000000X0.750000*%
%ADD38RoundRect,0.150000X-0.512500X-0.150000X0.512500X-0.150000X0.512500X0.150000X-0.512500X0.150000X0*%
%ADD39C,1.300000*%
%ADD40R,0.609000X0.250000*%
%ADD41R,0.609000X0.380000*%
%ADD42RoundRect,0.250000X-0.625000X0.375000X-0.625000X-0.375000X0.625000X-0.375000X0.625000X0.375000X0*%
G04 APERTURE END LIST*
D10*
%TO.C,SW09_00*%
X412235000Y-176480000D03*
D11*
X414775000Y-171400000D03*
D12*
X409695000Y-171400000D03*
D10*
X418585000Y-173940000D03*
D12*
X419855000Y-171400000D03*
D13*
X421860000Y-173940000D03*
X408933000Y-176480000D03*
%TD*%
D12*
%TO.C,SW03_02*%
X185870000Y-228550000D03*
D10*
X187140000Y-226010000D03*
D12*
X196030000Y-228550000D03*
D11*
X190950000Y-228550000D03*
D10*
X193490000Y-223470000D03*
D13*
X183865000Y-226010000D03*
X196792000Y-223470000D03*
%TD*%
D10*
%TO.C,SW03_00*%
X147935000Y-233630000D03*
D12*
X155555000Y-228550000D03*
X145395000Y-228550000D03*
D11*
X150475000Y-228550000D03*
D10*
X154285000Y-231090000D03*
D13*
X157560000Y-231090000D03*
X144633000Y-233630000D03*
%TD*%
D11*
%TO.C,SW01_03*%
X214775000Y-190450000D03*
D10*
X217315000Y-185370000D03*
D12*
X219855000Y-190450000D03*
D10*
X210965000Y-187910000D03*
D12*
X209695000Y-190450000D03*
D13*
X207690000Y-187910000D03*
X220617000Y-185370000D03*
%TD*%
D12*
%TO.C,SW07_03*%
X347770000Y-209500000D03*
X357930000Y-209500000D03*
D10*
X349040000Y-206960000D03*
D11*
X352850000Y-209500000D03*
D10*
X355390000Y-204420000D03*
D13*
X345765000Y-206960000D03*
X358692000Y-204420000D03*
%TD*%
D12*
%TO.C,SW09_04*%
X424630000Y-247600000D03*
D10*
X422090000Y-242520000D03*
X415740000Y-245060000D03*
D12*
X414470000Y-247600000D03*
D11*
X419550000Y-247600000D03*
D13*
X412465000Y-245060000D03*
X425392000Y-242520000D03*
%TD*%
D14*
%TO.C,LED01*%
X442225000Y-165125000D03*
X440725000Y-165125000D03*
X440725000Y-170125000D03*
X442225000Y-170125000D03*
%TD*%
D12*
%TO.C,SW02_05*%
X262680000Y-209500000D03*
D10*
X260140000Y-204420000D03*
D12*
X252520000Y-209500000D03*
D11*
X257600000Y-209500000D03*
D10*
X253790000Y-206960000D03*
D13*
X250515000Y-206960000D03*
X263442000Y-204420000D03*
%TD*%
D10*
%TO.C,SW05_03*%
X334790000Y-168860000D03*
D11*
X338600000Y-171400000D03*
D10*
X341140000Y-166320000D03*
D12*
X343680000Y-171400000D03*
X333520000Y-171400000D03*
D13*
X331515000Y-168860000D03*
X344442000Y-166320000D03*
%TD*%
D12*
%TO.C,SW07_01*%
X390975000Y-214580000D03*
D10*
X385895000Y-206960000D03*
D12*
X390975000Y-204420000D03*
D11*
X390975000Y-209500000D03*
D10*
X388435000Y-213310000D03*
D15*
X388435000Y-216585000D03*
X385895000Y-203658000D03*
%TD*%
D16*
%TO.C,SWRS_L01*%
X386137000Y-221565000D03*
D12*
X392995000Y-228550000D03*
D11*
X386137000Y-236805000D03*
D10*
X400615000Y-223470000D03*
D11*
X410013000Y-236805000D03*
D10*
X394265000Y-226010000D03*
D16*
X410013000Y-221565000D03*
D11*
X398075000Y-228550000D03*
D12*
X403155000Y-228550000D03*
D13*
X390990000Y-226010000D03*
X403917000Y-223470000D03*
%TD*%
D12*
%TO.C,SW05_01*%
X381755000Y-171400000D03*
D11*
X376675000Y-171400000D03*
D10*
X372865000Y-168860000D03*
D12*
X371595000Y-171400000D03*
D10*
X379215000Y-166320000D03*
D13*
X369590000Y-168860000D03*
X382517000Y-166320000D03*
%TD*%
D10*
%TO.C,SWLS_L01*%
X162515000Y-223470000D03*
D11*
X171913000Y-236805000D03*
D12*
X165055000Y-228550000D03*
D10*
X156165000Y-226010000D03*
D12*
X154895000Y-228550000D03*
D11*
X159975000Y-228550000D03*
X148037000Y-236805000D03*
D16*
X171913000Y-221565000D03*
X148037000Y-221565000D03*
D13*
X152890000Y-226010000D03*
X165817000Y-223470000D03*
%TD*%
D10*
%TO.C,SW02_06*%
X272840000Y-206960000D03*
D12*
X271570000Y-209500000D03*
D11*
X276650000Y-209500000D03*
D10*
X279190000Y-204420000D03*
D12*
X281730000Y-209500000D03*
D13*
X269565000Y-206960000D03*
X282492000Y-204420000D03*
%TD*%
D10*
%TO.C,SW09_05*%
X384790000Y-245060000D03*
X391140000Y-242520000D03*
D12*
X393680000Y-247600000D03*
D11*
X388600000Y-247600000D03*
D12*
X383520000Y-247600000D03*
D13*
X381515000Y-245060000D03*
X394442000Y-242520000D03*
%TD*%
D10*
%TO.C,SWSP_L04*%
X266985000Y-252679450D03*
D11*
X219525100Y-239344450D03*
X269525000Y-247599450D03*
D16*
X319524900Y-254584450D03*
D11*
X319524900Y-239344450D03*
D16*
X219525100Y-254584450D03*
D12*
X274605000Y-247599450D03*
D10*
X273335000Y-250139450D03*
D12*
X264445000Y-247599450D03*
D13*
X276610000Y-250139450D03*
X263683000Y-252679450D03*
%TD*%
D12*
%TO.C,SW06_04*%
X323970000Y-190450000D03*
D11*
X329050000Y-190450000D03*
D10*
X331590000Y-185370000D03*
D12*
X334130000Y-190450000D03*
D10*
X325240000Y-187910000D03*
D13*
X321965000Y-187910000D03*
X334892000Y-185370000D03*
%TD*%
D10*
%TO.C,SW02_03*%
X222040000Y-204420000D03*
D11*
X219500000Y-209500000D03*
D12*
X224580000Y-209500000D03*
X214420000Y-209500000D03*
D10*
X215690000Y-206960000D03*
D13*
X212415000Y-206960000D03*
X225342000Y-204420000D03*
%TD*%
D11*
%TO.C,SWLS_S01*%
X171900000Y-228550000D03*
D10*
X169360000Y-233630000D03*
D12*
X166820000Y-228550000D03*
D10*
X175710000Y-231090000D03*
D12*
X176980000Y-228550000D03*
D13*
X178985000Y-231090000D03*
X166058000Y-233630000D03*
%TD*%
D10*
%TO.C,SWSP_S04*%
X260965000Y-245060000D03*
X267315000Y-242520000D03*
D12*
X269855000Y-247600000D03*
D11*
X264775000Y-247600000D03*
D12*
X259695000Y-247600000D03*
D13*
X257690000Y-245060000D03*
X270617000Y-242520000D03*
%TD*%
D12*
%TO.C,SW00_04*%
X219220000Y-171400000D03*
D10*
X226840000Y-166320000D03*
D11*
X224300000Y-171400000D03*
D10*
X220490000Y-168860000D03*
D12*
X229380000Y-171400000D03*
D13*
X217215000Y-168860000D03*
X230142000Y-166320000D03*
%TD*%
D11*
%TO.C,SW01_04*%
X233800000Y-190450000D03*
D10*
X236340000Y-185370000D03*
D12*
X228720000Y-190450000D03*
D10*
X229990000Y-187910000D03*
D12*
X238880000Y-190450000D03*
D13*
X226715000Y-187910000D03*
X239642000Y-185370000D03*
%TD*%
D12*
%TO.C,SW06_02*%
X372255000Y-190450000D03*
X362095000Y-190450000D03*
D10*
X369715000Y-185370000D03*
D11*
X367175000Y-190450000D03*
D10*
X363365000Y-187910000D03*
D13*
X360090000Y-187910000D03*
X373017000Y-185370000D03*
%TD*%
D10*
%TO.C,SW09_03*%
X441140000Y-242520000D03*
D12*
X433520000Y-247600000D03*
X443680000Y-247600000D03*
D11*
X438600000Y-247600000D03*
D10*
X434790000Y-245060000D03*
D13*
X431515000Y-245060000D03*
X444442000Y-242520000D03*
%TD*%
D14*
%TO.C,LED00*%
X436325000Y-165125000D03*
X434825000Y-165125000D03*
X434825000Y-170125000D03*
X436325000Y-170125000D03*
%TD*%
D11*
%TO.C,SW08_00*%
X414800000Y-228550000D03*
D10*
X418610000Y-231090000D03*
X412260000Y-233630000D03*
D12*
X409720000Y-228550000D03*
X419880000Y-228550000D03*
D13*
X421885000Y-231090000D03*
X408958000Y-233630000D03*
%TD*%
D10*
%TO.C,SWBS_S00*%
X393185000Y-176480000D03*
X399535000Y-173940000D03*
D12*
X390645000Y-171400000D03*
X400805000Y-171400000D03*
D11*
X395725000Y-171400000D03*
D13*
X402810000Y-173940000D03*
X389883000Y-176480000D03*
%TD*%
D11*
%TO.C,SW02_01*%
X181425000Y-209500000D03*
D10*
X177615000Y-206960000D03*
D12*
X186505000Y-209500000D03*
X176345000Y-209500000D03*
D10*
X183965000Y-204420000D03*
D13*
X174340000Y-206960000D03*
X187267000Y-204420000D03*
%TD*%
D12*
%TO.C,SW07_05*%
X319830000Y-209500000D03*
X309670000Y-209500000D03*
D10*
X317290000Y-204420000D03*
X310940000Y-206960000D03*
D11*
X314750000Y-209500000D03*
D13*
X307665000Y-206960000D03*
X320592000Y-204420000D03*
%TD*%
D11*
%TO.C,SW00_02*%
X186225000Y-171425000D03*
D12*
X181145000Y-171425000D03*
D10*
X182415000Y-168885000D03*
X188765000Y-166345000D03*
D12*
X191305000Y-171425000D03*
D13*
X179140000Y-168885000D03*
X192067000Y-166345000D03*
%TD*%
D10*
%TO.C,SW01_00*%
X149065000Y-187935000D03*
D11*
X152875000Y-190475000D03*
D12*
X157955000Y-190475000D03*
D10*
X155415000Y-185395000D03*
D12*
X147795000Y-190475000D03*
D13*
X145790000Y-187935000D03*
X158717000Y-185395000D03*
%TD*%
D12*
%TO.C,SW06_01*%
X391305000Y-190450000D03*
D10*
X388765000Y-185370000D03*
D11*
X386225000Y-190450000D03*
D10*
X382415000Y-187910000D03*
D12*
X381145000Y-190450000D03*
D13*
X379140000Y-187910000D03*
X392067000Y-185370000D03*
%TD*%
D10*
%TO.C,SW02_02*%
X203015000Y-204420000D03*
D12*
X205555000Y-209500000D03*
D10*
X196665000Y-206960000D03*
D11*
X200475000Y-209500000D03*
D12*
X195395000Y-209500000D03*
D13*
X193390000Y-206960000D03*
X206317000Y-204420000D03*
%TD*%
D10*
%TO.C,SW05_04*%
X315740000Y-168860000D03*
D11*
X319550000Y-171400000D03*
D12*
X314470000Y-171400000D03*
D10*
X322090000Y-166320000D03*
D12*
X324630000Y-171400000D03*
D13*
X312465000Y-168860000D03*
X325392000Y-166320000D03*
%TD*%
D14*
%TO.C,LED02*%
X448075000Y-165150000D03*
X446575000Y-165150000D03*
X446575000Y-170150000D03*
X448075000Y-170150000D03*
%TD*%
D17*
%TO.C,RE0*%
X460125000Y-221100000D03*
D18*
X455125000Y-221100000D03*
X457625000Y-221100000D03*
D19*
X463225000Y-228600000D03*
X452025000Y-228600000D03*
%TD*%
D11*
%TO.C,SW05_02*%
X357650000Y-171400000D03*
D12*
X352570000Y-171400000D03*
D10*
X360190000Y-166320000D03*
X353840000Y-168860000D03*
D12*
X362730000Y-171400000D03*
D13*
X350565000Y-168860000D03*
X363492000Y-166320000D03*
%TD*%
D10*
%TO.C,SW04_06*%
X337145000Y-245085000D03*
D12*
X335875000Y-247625000D03*
D11*
X340955000Y-247625000D03*
D10*
X343495000Y-242545000D03*
D12*
X346035000Y-247625000D03*
D13*
X333870000Y-245085000D03*
X346797000Y-242545000D03*
%TD*%
D12*
%TO.C,SW01_06*%
X276980000Y-190450000D03*
D10*
X274440000Y-185370000D03*
D11*
X271900000Y-190450000D03*
D10*
X268090000Y-187910000D03*
D12*
X266820000Y-190450000D03*
D13*
X264815000Y-187910000D03*
X277742000Y-185370000D03*
%TD*%
D12*
%TO.C,SW08_06*%
X281120000Y-228550000D03*
X291280000Y-228550000D03*
D10*
X282390000Y-226010000D03*
D11*
X286200000Y-228550000D03*
D10*
X288740000Y-223470000D03*
D13*
X279115000Y-226010000D03*
X292042000Y-223470000D03*
%TD*%
D16*
%TO.C,SWET_IS00*%
X419410000Y-188037000D03*
D11*
X404170000Y-188037000D03*
D12*
X412425000Y-194895000D03*
D11*
X404170000Y-211913000D03*
X412425000Y-199975000D03*
D12*
X412425000Y-205055000D03*
D10*
X409885000Y-203785000D03*
X407345000Y-197435000D03*
D16*
X419410000Y-211913000D03*
D15*
X409885000Y-207060000D03*
X407345000Y-194133000D03*
%TD*%
D12*
%TO.C,SW07_02*%
X376980000Y-209500000D03*
D10*
X368090000Y-206960000D03*
D12*
X366820000Y-209500000D03*
D10*
X374440000Y-204420000D03*
D11*
X371900000Y-209500000D03*
D13*
X364815000Y-206960000D03*
X377742000Y-204420000D03*
%TD*%
D11*
%TO.C,SW04_05*%
X314813000Y-239345000D03*
X290937000Y-239345000D03*
D12*
X307955000Y-247600000D03*
D16*
X314813000Y-254585000D03*
D11*
X302875000Y-247600000D03*
D16*
X290937000Y-254585000D03*
D10*
X305415000Y-242520000D03*
X299065000Y-245060000D03*
D12*
X297795000Y-247600000D03*
D13*
X295790000Y-245060000D03*
X308717000Y-242520000D03*
%TD*%
D10*
%TO.C,SW03_05*%
X250665000Y-223470000D03*
D11*
X248125000Y-228550000D03*
D12*
X253205000Y-228550000D03*
D10*
X244315000Y-226010000D03*
D12*
X243045000Y-228550000D03*
D13*
X241040000Y-226010000D03*
X253967000Y-223470000D03*
%TD*%
D14*
%TO.C,LED04*%
X459800000Y-165125000D03*
X458300000Y-165125000D03*
X458300000Y-170125000D03*
X459800000Y-170125000D03*
%TD*%
D12*
%TO.C,SW03_03*%
X204920000Y-228550000D03*
D10*
X206190000Y-226010000D03*
D12*
X215080000Y-228550000D03*
D10*
X212540000Y-223470000D03*
D11*
X210000000Y-228550000D03*
D13*
X202915000Y-226010000D03*
X215842000Y-223470000D03*
%TD*%
D12*
%TO.C,SW05_05*%
X295420000Y-171400000D03*
X305580000Y-171400000D03*
D10*
X296690000Y-168860000D03*
X303040000Y-166320000D03*
D11*
X300500000Y-171400000D03*
D13*
X293415000Y-168860000D03*
X306342000Y-166320000D03*
%TD*%
D10*
%TO.C,SW09_02*%
X460190000Y-242520000D03*
X453840000Y-245060000D03*
D11*
X457650000Y-247600000D03*
D12*
X462730000Y-247600000D03*
X452570000Y-247600000D03*
D13*
X450565000Y-245060000D03*
X463492000Y-242520000D03*
%TD*%
D12*
%TO.C,SW04_01*%
X169220000Y-247600000D03*
X179380000Y-247600000D03*
D11*
X174300000Y-247600000D03*
D10*
X176840000Y-242520000D03*
X170490000Y-245060000D03*
D13*
X167215000Y-245060000D03*
X180142000Y-242520000D03*
%TD*%
D11*
%TO.C,SW08_03*%
X343350000Y-228550000D03*
D12*
X348430000Y-228550000D03*
D10*
X339540000Y-226010000D03*
X345890000Y-223470000D03*
D12*
X338270000Y-228550000D03*
D13*
X336265000Y-226010000D03*
X349192000Y-223470000D03*
%TD*%
D10*
%TO.C,SW00_06*%
X258590000Y-168860000D03*
D12*
X267480000Y-171400000D03*
X257320000Y-171400000D03*
D10*
X264940000Y-166320000D03*
D11*
X262400000Y-171400000D03*
D13*
X255315000Y-168860000D03*
X268242000Y-166320000D03*
%TD*%
D12*
%TO.C,SW01_02*%
X200830000Y-190475000D03*
D10*
X191940000Y-187935000D03*
D12*
X190670000Y-190475000D03*
D11*
X195750000Y-190475000D03*
D10*
X198290000Y-185395000D03*
D13*
X188665000Y-187935000D03*
X201592000Y-185395000D03*
%TD*%
D10*
%TO.C,SWCL_N00*%
X159035000Y-212040000D03*
X152685000Y-214580000D03*
D12*
X160305000Y-209500000D03*
X150145000Y-209500000D03*
D11*
X155225000Y-209500000D03*
D13*
X162310000Y-212040000D03*
X149383000Y-214580000D03*
%TD*%
D11*
%TO.C,SW04_02*%
X198100000Y-247600000D03*
D12*
X203180000Y-247600000D03*
D10*
X200640000Y-242520000D03*
D12*
X193020000Y-247600000D03*
D10*
X194290000Y-245060000D03*
D13*
X191015000Y-245060000D03*
X203942000Y-242520000D03*
%TD*%
D10*
%TO.C,SW06_06*%
X287140000Y-187910000D03*
X293490000Y-185370000D03*
D11*
X290950000Y-190450000D03*
D12*
X285870000Y-190450000D03*
X296030000Y-190450000D03*
D13*
X283865000Y-187910000D03*
X296792000Y-185370000D03*
%TD*%
D12*
%TO.C,SW03_04*%
X234155000Y-228550000D03*
X223995000Y-228550000D03*
D11*
X229075000Y-228550000D03*
D10*
X225265000Y-226010000D03*
X231615000Y-223470000D03*
D13*
X221990000Y-226010000D03*
X234917000Y-223470000D03*
%TD*%
D14*
%TO.C,LED03*%
X453925000Y-165125000D03*
X452425000Y-165125000D03*
X452425000Y-170125000D03*
X453925000Y-170125000D03*
%TD*%
D12*
%TO.C,SW06_03*%
X353180000Y-190450000D03*
X343020000Y-190450000D03*
D11*
X348100000Y-190450000D03*
D10*
X350640000Y-185370000D03*
X344290000Y-187910000D03*
D13*
X341015000Y-187910000D03*
X353942000Y-185370000D03*
%TD*%
D11*
%TO.C,SW07_04*%
X333800000Y-209500000D03*
D10*
X336340000Y-204420000D03*
D12*
X338880000Y-209500000D03*
D10*
X329990000Y-206960000D03*
D12*
X328720000Y-209500000D03*
D13*
X326715000Y-206960000D03*
X339642000Y-204420000D03*
%TD*%
D11*
%TO.C,SW06_05*%
X310000000Y-190450000D03*
D12*
X304920000Y-190450000D03*
D10*
X312540000Y-185370000D03*
D12*
X315080000Y-190450000D03*
D10*
X306190000Y-187910000D03*
D13*
X302915000Y-187910000D03*
X315842000Y-185370000D03*
%TD*%
D12*
%TO.C,SW08_02*%
X367455000Y-228575000D03*
D10*
X358565000Y-226035000D03*
D12*
X357295000Y-228575000D03*
D11*
X362375000Y-228575000D03*
D10*
X364915000Y-223495000D03*
D13*
X355290000Y-226035000D03*
X368217000Y-223495000D03*
%TD*%
D10*
%TO.C,SW01_05*%
X255390000Y-185370000D03*
D12*
X247770000Y-190450000D03*
D11*
X252850000Y-190450000D03*
D10*
X249040000Y-187910000D03*
D12*
X257930000Y-190450000D03*
D13*
X245765000Y-187910000D03*
X258692000Y-185370000D03*
%TD*%
D10*
%TO.C,SW08_05*%
X301440000Y-226010000D03*
D11*
X305250000Y-228550000D03*
D12*
X300170000Y-228550000D03*
D10*
X307790000Y-223470000D03*
D12*
X310330000Y-228550000D03*
D13*
X298165000Y-226010000D03*
X311092000Y-223470000D03*
%TD*%
D12*
%TO.C,SWRS_S01*%
X393680000Y-228575000D03*
X383520000Y-228575000D03*
D10*
X392410000Y-231115000D03*
D11*
X388600000Y-228575000D03*
D10*
X386060000Y-233655000D03*
D13*
X395685000Y-231115000D03*
X382758000Y-233655000D03*
%TD*%
D10*
%TO.C,SW05_06*%
X283990000Y-166320000D03*
X277640000Y-168860000D03*
D12*
X286530000Y-171400000D03*
D11*
X281450000Y-171400000D03*
D12*
X276370000Y-171400000D03*
D13*
X274365000Y-168860000D03*
X287292000Y-166320000D03*
%TD*%
D11*
%TO.C,SW09_06*%
X364760000Y-247615000D03*
D10*
X367300000Y-242535000D03*
X360950000Y-245075000D03*
D12*
X359680000Y-247615000D03*
X369840000Y-247615000D03*
D13*
X357675000Y-245075000D03*
X370602000Y-242535000D03*
%TD*%
D11*
%TO.C,SW04_03*%
X231435000Y-247605000D03*
D16*
X243373000Y-254590000D03*
D12*
X226355000Y-247605000D03*
X236515000Y-247605000D03*
D16*
X219497000Y-254590000D03*
D11*
X219497000Y-239350000D03*
X243373000Y-239350000D03*
D10*
X227625000Y-245065000D03*
X233975000Y-242525000D03*
D13*
X224350000Y-245065000D03*
X237277000Y-242525000D03*
%TD*%
D11*
%TO.C,SW06_00*%
X410025000Y-190450000D03*
D12*
X410025000Y-195530000D03*
X410025000Y-185370000D03*
D10*
X412565000Y-186640000D03*
X415105000Y-192990000D03*
D15*
X412565000Y-183365000D03*
X415105000Y-196292000D03*
%TD*%
D10*
%TO.C,SW01_01*%
X172865000Y-187935000D03*
D12*
X181755000Y-190475000D03*
D10*
X179215000Y-185395000D03*
D12*
X171595000Y-190475000D03*
D11*
X176675000Y-190475000D03*
D13*
X169590000Y-187935000D03*
X182517000Y-185395000D03*
%TD*%
D10*
%TO.C,SW09_01*%
X441140000Y-223470000D03*
D11*
X438600000Y-228550000D03*
D12*
X443680000Y-228550000D03*
X433520000Y-228550000D03*
D10*
X434790000Y-226010000D03*
D13*
X431515000Y-226010000D03*
X444442000Y-223470000D03*
%TD*%
D10*
%TO.C,SW04_00*%
X146665000Y-245060000D03*
D12*
X145395000Y-247600000D03*
X155555000Y-247600000D03*
D11*
X150475000Y-247600000D03*
D10*
X153015000Y-242520000D03*
D13*
X143390000Y-245060000D03*
X156317000Y-242520000D03*
%TD*%
D12*
%TO.C,SW08_04*%
X329380000Y-228550000D03*
D10*
X326840000Y-223470000D03*
D11*
X324300000Y-228550000D03*
D12*
X319220000Y-228550000D03*
D10*
X320490000Y-226010000D03*
D13*
X317215000Y-226010000D03*
X330142000Y-223470000D03*
%TD*%
D11*
%TO.C,SW00_01*%
X167150000Y-171425000D03*
D10*
X169690000Y-166345000D03*
D12*
X172230000Y-171425000D03*
D10*
X163340000Y-168885000D03*
D12*
X162070000Y-171425000D03*
D13*
X160065000Y-168885000D03*
X172992000Y-166345000D03*
%TD*%
D12*
%TO.C,SW07_06*%
X300780000Y-209500000D03*
D10*
X291890000Y-206960000D03*
D11*
X295700000Y-209500000D03*
D12*
X290620000Y-209500000D03*
D10*
X298240000Y-204420000D03*
D13*
X288615000Y-206960000D03*
X301542000Y-204420000D03*
%TD*%
D10*
%TO.C,SWET_AN00*%
X397795000Y-206960000D03*
D12*
X402875000Y-214580000D03*
X402875000Y-204420000D03*
D11*
X402875000Y-209500000D03*
D10*
X400335000Y-213310000D03*
D15*
X400335000Y-216585000D03*
X397795000Y-203658000D03*
%TD*%
D11*
%TO.C,SW03_06*%
X267175000Y-228550000D03*
D10*
X269715000Y-223470000D03*
D12*
X262095000Y-228550000D03*
X272255000Y-228550000D03*
D10*
X263365000Y-226010000D03*
D13*
X260090000Y-226010000D03*
X273017000Y-223470000D03*
%TD*%
D12*
%TO.C,SWBS_L00*%
X410330000Y-171400550D03*
D11*
X417188000Y-179655550D03*
D10*
X401440000Y-168860550D03*
D12*
X400170000Y-171400550D03*
D16*
X393312000Y-164415550D03*
D11*
X405250000Y-171400550D03*
D16*
X417188000Y-164415550D03*
D10*
X407790000Y-166320550D03*
D11*
X393312000Y-179655550D03*
D13*
X398165000Y-168860550D03*
X411092000Y-166320550D03*
%TD*%
D10*
%TO.C,SWCL_S00*%
X153015000Y-204420000D03*
X146665000Y-206960000D03*
D12*
X155555000Y-209500000D03*
D11*
X150475000Y-209500000D03*
D12*
X145395000Y-209500000D03*
D13*
X143390000Y-206960000D03*
X156317000Y-204420000D03*
%TD*%
D11*
%TO.C,SW02_04*%
X238550000Y-209500000D03*
D10*
X241090000Y-204420000D03*
D12*
X233470000Y-209500000D03*
X243630000Y-209500000D03*
D10*
X234740000Y-206960000D03*
D13*
X231465000Y-206960000D03*
X244392000Y-204420000D03*
%TD*%
D10*
%TO.C,SW00_00*%
X150640000Y-166345000D03*
X144290000Y-168885000D03*
D11*
X148100000Y-171425000D03*
D12*
X153180000Y-171425000D03*
X143020000Y-171425000D03*
D13*
X141015000Y-168885000D03*
X153942000Y-166345000D03*
%TD*%
D12*
%TO.C,SW00_05*%
X248430000Y-171400000D03*
X238270000Y-171400000D03*
D10*
X245890000Y-166320000D03*
X239540000Y-168860000D03*
D11*
X243350000Y-171400000D03*
D13*
X236265000Y-168860000D03*
X249192000Y-166320000D03*
%TD*%
D10*
%TO.C,SW00_03*%
X207815000Y-166320000D03*
D12*
X210355000Y-171400000D03*
X200195000Y-171400000D03*
D10*
X201465000Y-168860000D03*
D11*
X205275000Y-171400000D03*
D13*
X198190000Y-168860000D03*
X211117000Y-166320000D03*
%TD*%
D20*
%TO.C,R5*%
X331000000Y-255537500D03*
X331000000Y-252612500D03*
%TD*%
D21*
%TO.C,D02_04*%
X244425000Y-215775000D03*
X244425000Y-212475000D03*
%TD*%
D22*
%TO.C,C18*%
X320225000Y-259000000D03*
X320225000Y-261950000D03*
%TD*%
D23*
%TO.C,J0*%
X305740000Y-159625000D03*
X299960000Y-159625000D03*
D24*
X299600000Y-161070000D03*
X300400000Y-161070000D03*
D25*
X301600000Y-161070000D03*
X302600000Y-161070000D03*
X303100000Y-161070000D03*
X304100000Y-161070000D03*
D24*
X305300000Y-161070000D03*
X306100000Y-161070000D03*
X306100000Y-161070000D03*
X305300000Y-161070000D03*
D25*
X304600000Y-161070000D03*
X303600000Y-161070000D03*
X302100000Y-161070000D03*
X301100000Y-161070000D03*
D24*
X300400000Y-161070000D03*
X299600000Y-161070000D03*
D26*
X307170000Y-160155000D03*
D27*
X298530000Y-155975000D03*
X307170000Y-155975000D03*
D26*
X298530000Y-160155000D03*
%TD*%
D21*
%TO.C,D05_04*%
X325375000Y-177675000D03*
X325375000Y-174375000D03*
%TD*%
%TO.C,D01_06*%
X277775000Y-196750000D03*
X277775000Y-193450000D03*
%TD*%
%TO.C,D04_01*%
X180125000Y-253875000D03*
X180125000Y-250575000D03*
%TD*%
D22*
%TO.C,C19*%
X438075000Y-183050000D03*
X438075000Y-186000000D03*
%TD*%
D28*
%TO.C,ZD_2*%
X461850000Y-198300000D03*
X461850000Y-200900000D03*
%TD*%
D21*
%TO.C,D05_06*%
X287300000Y-177700000D03*
X287300000Y-174400000D03*
%TD*%
%TO.C,D09_04*%
X425425000Y-253400000D03*
X425425000Y-250100000D03*
%TD*%
%TO.C,D01_00*%
X158700000Y-196750000D03*
X158700000Y-193450000D03*
%TD*%
D22*
%TO.C,C13*%
X308700000Y-259075000D03*
X308700000Y-262025000D03*
%TD*%
D21*
%TO.C,D09_01*%
X444450000Y-234850000D03*
X444450000Y-231550000D03*
%TD*%
D22*
%TO.C,C15*%
X434125000Y-205525000D03*
X434125000Y-208475000D03*
%TD*%
D21*
%TO.C,D03_04*%
X234925000Y-234850000D03*
X234925000Y-231550000D03*
%TD*%
D22*
%TO.C,C17*%
X316275000Y-259025000D03*
X316275000Y-261975000D03*
%TD*%
D29*
%TO.C,R4*%
X325075000Y-158587500D03*
X325075000Y-161512500D03*
%TD*%
D21*
%TO.C,D06_01*%
X392075000Y-196775000D03*
X392075000Y-193475000D03*
%TD*%
%TO.C,D07_04*%
X339675000Y-215800000D03*
X339675000Y-212500000D03*
%TD*%
%TO.C,D09_02*%
X463525000Y-253400000D03*
X463525000Y-250100000D03*
%TD*%
D28*
%TO.C,ZD_1*%
X461900000Y-186575000D03*
X461900000Y-189175000D03*
%TD*%
D21*
%TO.C,D03_03*%
X215850000Y-234825000D03*
X215850000Y-231525000D03*
%TD*%
%TO.C,D08_04*%
X330150000Y-234850000D03*
X330150000Y-231550000D03*
%TD*%
D29*
%TO.C,R9*%
X430325000Y-205462500D03*
X430325000Y-208387500D03*
%TD*%
D21*
%TO.C,D02_06*%
X282525000Y-215800000D03*
X282525000Y-212500000D03*
%TD*%
%TO.C,D08_01*%
X400975000Y-234825000D03*
X400975000Y-231525000D03*
%TD*%
%TO.C,D09_06*%
X370625000Y-253275000D03*
X370625000Y-249975000D03*
%TD*%
%TO.C,D08_00*%
X404825000Y-234850000D03*
X404825000Y-231550000D03*
%TD*%
%TO.C,D06_04*%
X334875000Y-196725000D03*
X334875000Y-193425000D03*
%TD*%
%TO.C,D07_00*%
X408750000Y-215875000D03*
X408750000Y-212575000D03*
%TD*%
D20*
%TO.C,R10*%
X430375000Y-202887500D03*
X430375000Y-199962500D03*
%TD*%
D21*
%TO.C,D09_03*%
X444475000Y-253375000D03*
X444475000Y-250075000D03*
%TD*%
%TO.C,D02_01*%
X187275000Y-215775000D03*
X187275000Y-212475000D03*
%TD*%
D30*
%TO.C,C12*%
X434200000Y-197125000D03*
X434200000Y-194175000D03*
%TD*%
%TO.C,C10*%
X445450000Y-214125000D03*
X445450000Y-211175000D03*
%TD*%
D22*
%TO.C,C5*%
X301275000Y-259025000D03*
X301275000Y-261975000D03*
%TD*%
D21*
%TO.C,D05_02*%
X363500000Y-177725000D03*
X363500000Y-174425000D03*
%TD*%
%TO.C,D06_00*%
X418550000Y-199350000D03*
X418550000Y-196050000D03*
%TD*%
D29*
%TO.C,R8*%
X430300000Y-188762500D03*
X430300000Y-191687500D03*
%TD*%
D20*
%TO.C,R2*%
X277550000Y-262037500D03*
X277550000Y-259112500D03*
%TD*%
D31*
%TO.C,C0*%
X284800000Y-255250000D03*
X281850000Y-255250000D03*
%TD*%
D22*
%TO.C,C14*%
X312450000Y-259025000D03*
X312450000Y-261975000D03*
%TD*%
D21*
%TO.C,D00_05*%
X249225000Y-177675000D03*
X249225000Y-174375000D03*
%TD*%
D32*
%TO.C,ESDD0*%
X310525000Y-161800000D03*
X310525000Y-160400000D03*
%TD*%
D20*
%TO.C,R13*%
X317725000Y-161512500D03*
X317725000Y-158587500D03*
%TD*%
D21*
%TO.C,D04_03*%
X237250000Y-253875000D03*
X237250000Y-250575000D03*
%TD*%
%TO.C,D06_05*%
X315875000Y-196750000D03*
X315875000Y-193450000D03*
%TD*%
%TO.C,D03_06*%
X273025000Y-234850000D03*
X273025000Y-231550000D03*
%TD*%
%TO.C,D00_00*%
X153925000Y-177700000D03*
X153925000Y-174400000D03*
%TD*%
%TO.C,D03_01*%
X162375000Y-234925000D03*
X162375000Y-231625000D03*
%TD*%
%TO.C,D02_02*%
X206325000Y-215800000D03*
X206325000Y-212500000D03*
%TD*%
D33*
%TO.C,Y0*%
X284400000Y-259275000D03*
X282200000Y-259275000D03*
X282200000Y-257525000D03*
X284400000Y-257525000D03*
%TD*%
D29*
%TO.C,R7*%
X449250000Y-211137500D03*
X449250000Y-214062500D03*
%TD*%
D30*
%TO.C,C9*%
X441650000Y-214125000D03*
X441650000Y-211175000D03*
%TD*%
D21*
%TO.C,D07_06*%
X301575000Y-215775000D03*
X301575000Y-212475000D03*
%TD*%
%TO.C,D08_03*%
X349200000Y-234825000D03*
X349200000Y-231525000D03*
%TD*%
%TO.C,D04_05*%
X297025000Y-253850000D03*
X297025000Y-250550000D03*
%TD*%
%TO.C,D04_02*%
X203950000Y-253900000D03*
X203950000Y-250600000D03*
%TD*%
%TO.C,D04_06*%
X346800000Y-253375000D03*
X346800000Y-250075000D03*
%TD*%
%TO.C,D04_00*%
X156325000Y-253900000D03*
X156325000Y-250600000D03*
%TD*%
D29*
%TO.C,R6*%
X438100000Y-188712500D03*
X438100000Y-191637500D03*
%TD*%
D21*
%TO.C,D00_02*%
X192075000Y-177725000D03*
X192075000Y-174425000D03*
%TD*%
%TO.C,D09_05*%
X394450000Y-253400000D03*
X394450000Y-250100000D03*
%TD*%
D30*
%TO.C,C11*%
X438050000Y-197175000D03*
X438050000Y-194225000D03*
%TD*%
D21*
%TO.C,D04_04*%
X258925000Y-253875000D03*
X258925000Y-250575000D03*
%TD*%
D34*
%TO.C,U0*%
X285812500Y-243275000D03*
X285812500Y-243775000D03*
X285812500Y-244275000D03*
X285812500Y-244775000D03*
X285812500Y-245275000D03*
X285812500Y-245775000D03*
X285812500Y-246275000D03*
X285812500Y-246775000D03*
X285812500Y-247275000D03*
X285812500Y-247775000D03*
X285812500Y-248275000D03*
D35*
X284975000Y-249112500D03*
X284475000Y-249112500D03*
X283975000Y-249112500D03*
X283475000Y-249112500D03*
X282975000Y-249112500D03*
X282475000Y-249112500D03*
X281975000Y-249112500D03*
X281475000Y-249112500D03*
X280975000Y-249112500D03*
X280475000Y-249112500D03*
X279975000Y-249112500D03*
D34*
X279137500Y-248275000D03*
X279137500Y-247775000D03*
X279137500Y-247275000D03*
X279137500Y-246775000D03*
X279137500Y-246275000D03*
X279137500Y-245775000D03*
X279137500Y-245275000D03*
X279137500Y-244775000D03*
X279137500Y-244275000D03*
X279137500Y-243775000D03*
X279137500Y-243275000D03*
D35*
X279975000Y-242437500D03*
X280475000Y-242437500D03*
X280975000Y-242437500D03*
X281475000Y-242437500D03*
X281975000Y-242437500D03*
X282475000Y-242437500D03*
X282975000Y-242437500D03*
X283475000Y-242437500D03*
X283975000Y-242437500D03*
X284475000Y-242437500D03*
X284975000Y-242437500D03*
D36*
X282475000Y-245775000D03*
%TD*%
D30*
%TO.C,C20*%
X430350000Y-197175000D03*
X430350000Y-194225000D03*
%TD*%
D21*
%TO.C,D01_01*%
X182525000Y-196750000D03*
X182525000Y-193450000D03*
%TD*%
%TO.C,D02_00*%
X146275000Y-215825000D03*
X146275000Y-212525000D03*
%TD*%
D37*
%TO.C,RESET_SW0*%
X324987500Y-249075000D03*
X330987500Y-249075000D03*
X324987500Y-245325000D03*
X330987500Y-245325000D03*
%TD*%
D21*
%TO.C,D06_03*%
X353950000Y-196750000D03*
X353950000Y-193450000D03*
%TD*%
D22*
%TO.C,C3*%
X293700000Y-259025000D03*
X293700000Y-261975000D03*
%TD*%
D21*
%TO.C,D08_05*%
X311100000Y-234850000D03*
X311100000Y-231550000D03*
%TD*%
%TO.C,D05_01*%
X381750000Y-177725000D03*
X381750000Y-174425000D03*
%TD*%
%TO.C,D05_05*%
X306325000Y-177675000D03*
X306325000Y-174375000D03*
%TD*%
%TO.C,D03_00*%
X141725000Y-234850000D03*
X141725000Y-231550000D03*
%TD*%
D29*
%TO.C,R3*%
X292575000Y-158112500D03*
X292575000Y-161037500D03*
%TD*%
D21*
%TO.C,D07_01*%
X393350000Y-215775000D03*
X393350000Y-212475000D03*
%TD*%
D38*
%TO.C,U3*%
X433062500Y-191075000D03*
X433062500Y-190125000D03*
X433062500Y-189175000D03*
X435337500Y-189175000D03*
X435337500Y-191075000D03*
%TD*%
D21*
%TO.C,D02_05*%
X263475000Y-215775000D03*
X263475000Y-212475000D03*
%TD*%
D29*
%TO.C,R11*%
X434175000Y-183112500D03*
X434175000Y-186037500D03*
%TD*%
D30*
%TO.C,C16*%
X437900000Y-214050000D03*
X437900000Y-211100000D03*
%TD*%
D22*
%TO.C,C8*%
X441675000Y-205475000D03*
X441675000Y-208425000D03*
%TD*%
D21*
%TO.C,D01_04*%
X239650000Y-196750000D03*
X239650000Y-193450000D03*
%TD*%
D22*
%TO.C,C6*%
X304950000Y-259075000D03*
X304950000Y-262025000D03*
%TD*%
D21*
%TO.C,D07_02*%
X377750000Y-215800000D03*
X377750000Y-212500000D03*
%TD*%
%TO.C,D08_02*%
X368200000Y-234850000D03*
X368200000Y-231550000D03*
%TD*%
%TO.C,D01_02*%
X201575000Y-196750000D03*
X201575000Y-193450000D03*
%TD*%
%TO.C,D07_05*%
X320625000Y-215800000D03*
X320625000Y-212500000D03*
%TD*%
D22*
%TO.C,C4*%
X297450000Y-259025000D03*
X297450000Y-261975000D03*
%TD*%
D21*
%TO.C,D05_03*%
X344450000Y-177700000D03*
X344450000Y-174400000D03*
%TD*%
D22*
%TO.C,C7*%
X437875000Y-205500000D03*
X437875000Y-208450000D03*
%TD*%
D21*
%TO.C,D00_06*%
X268250000Y-177700000D03*
X268250000Y-174400000D03*
%TD*%
%TO.C,D00_01*%
X173000000Y-177725000D03*
X173000000Y-174425000D03*
%TD*%
%TO.C,D03_05*%
X253975000Y-234825000D03*
X253975000Y-231525000D03*
%TD*%
%TO.C,D02_03*%
X225350000Y-215775000D03*
X225350000Y-212475000D03*
%TD*%
D20*
%TO.C,R1*%
X329550000Y-242512500D03*
X329550000Y-239587500D03*
%TD*%
%TO.C,R0*%
X326175000Y-242512500D03*
X326175000Y-239587500D03*
%TD*%
D38*
%TO.C,U2*%
X433062500Y-202400000D03*
X433062500Y-201450000D03*
X433062500Y-200500000D03*
X435337500Y-200500000D03*
X435337500Y-202400000D03*
%TD*%
D21*
%TO.C,D09_00*%
X423225000Y-180275000D03*
X423225000Y-176975000D03*
%TD*%
%TO.C,D05_00*%
X385725000Y-177675000D03*
X385725000Y-174375000D03*
%TD*%
%TO.C,D03_02*%
X196800000Y-234850000D03*
X196800000Y-231550000D03*
%TD*%
D28*
%TO.C,ZD_0*%
X461875000Y-192475000D03*
X461875000Y-195075000D03*
%TD*%
D21*
%TO.C,D01_03*%
X220600000Y-196750000D03*
X220600000Y-193450000D03*
%TD*%
%TO.C,D08_06*%
X292025000Y-234800000D03*
X292025000Y-231500000D03*
%TD*%
D39*
%TO.C,U1*%
X441950000Y-201450000D03*
X441950000Y-199670000D03*
X441950000Y-197890000D03*
X441950000Y-196110000D03*
X441950000Y-194330000D03*
X441950000Y-192550000D03*
X441950000Y-190770000D03*
X441950000Y-188990000D03*
X452650000Y-188100000D03*
X452650000Y-189880000D03*
X452650000Y-191660000D03*
X452650000Y-193440000D03*
X452650000Y-195220000D03*
X452650000Y-197000000D03*
X452650000Y-198780000D03*
X452650000Y-200560000D03*
%TD*%
D40*
%TO.C,U4*%
X295585000Y-161450000D03*
X295585000Y-160950000D03*
D41*
X295585000Y-160450000D03*
D40*
X295585000Y-159950000D03*
X295585000Y-159450000D03*
X296415000Y-159450000D03*
X296415000Y-159950000D03*
D41*
X296415000Y-160450000D03*
D40*
X296415000Y-160950000D03*
X296415000Y-161450000D03*
%TD*%
D42*
%TO.C,F0*%
X313925000Y-158625000D03*
X313925000Y-161425000D03*
%TD*%
D21*
%TO.C,D06_06*%
X296775000Y-196725000D03*
X296775000Y-193425000D03*
%TD*%
D22*
%TO.C,C2*%
X289875000Y-259075000D03*
X289875000Y-262025000D03*
%TD*%
D21*
%TO.C,D07_03*%
X358725000Y-215800000D03*
X358725000Y-212500000D03*
%TD*%
%TO.C,D01_05*%
X258675000Y-196750000D03*
X258675000Y-193450000D03*
%TD*%
%TO.C,D06_02*%
X373000000Y-196725000D03*
X373000000Y-193425000D03*
%TD*%
D29*
%TO.C,R12*%
X430350000Y-183162500D03*
X430350000Y-186087500D03*
%TD*%
D21*
%TO.C,D00_04*%
X230150000Y-177700000D03*
X230150000Y-174400000D03*
%TD*%
D30*
%TO.C,C21*%
X321300000Y-161500000D03*
X321300000Y-158550000D03*
%TD*%
D21*
%TO.C,D00_03*%
X211125000Y-177700000D03*
X211125000Y-174400000D03*
%TD*%
D31*
%TO.C,C1*%
X284800000Y-261700000D03*
X281850000Y-261700000D03*
%TD*%
M02*
