M48
; DRILL file {KiCad (6.0.5)} date Sat May 27 18:30:25 2023
; FORMAT={-:-/ absolute / inch / decimal}
; #@! TF.CreationDate,2023-05-27T18:30:25+09:00
; #@! TF.GenerationSoftware,Kicad,Pcbnew,(6.0.5)
; #@! TF.FileFunction,NonPlated,1,2,NPTH
FMAT,2
INCH
; #@! TA.AperFunction,NonPlated,NPTH,ComponentDrill
T1C0.0256
; #@! TA.AperFunction,NonPlated,NPTH,ComponentDrill
T2C0.0689
; #@! TA.AperFunction,NonPlated,NPTH,ComponentDrill
T3C0.1181
; #@! TA.AperFunction,NonPlated,NPTH,ComponentDrill
T4C0.1200
; #@! TA.AperFunction,NonPlated,NPTH,ComponentDrill
T5C0.1570
%
G90
G05
T1
X11.8094Y-6.2844
X12.037Y-6.2844
T2
X5.6307Y-6.749
X5.7242Y-8.248
X5.7242Y-8.998
X5.7242Y-9.748
X5.8187Y-7.499
X5.9112Y-8.248
X6.0307Y-6.749
X6.0982Y-8.998
X6.1242Y-8.248
X6.1242Y-8.998
X6.1242Y-9.748
X6.2187Y-7.499
X6.3112Y-8.248
X6.3807Y-6.749
X6.4982Y-8.998
X6.5677Y-8.998
X6.6622Y-9.748
X6.7557Y-7.499
X6.7807Y-6.749
X6.9427Y-8.248
X6.9677Y-8.998
X7.0622Y-9.748
X7.1317Y-6.749
X7.1557Y-7.499
X7.3177Y-8.998
X7.3427Y-8.248
X7.5067Y-7.499
X7.5317Y-6.749
X7.5992Y-9.748
X7.6927Y-8.248
X7.7177Y-8.998
X7.8817Y-6.748
X7.9067Y-7.499
X7.9992Y-9.748
X8.0677Y-8.998
X8.0927Y-8.248
X8.2557Y-7.498
X8.2817Y-6.748
X8.4417Y-8.248
X8.4677Y-8.998
X8.6307Y-6.748
X8.6557Y-7.498
X8.8187Y-8.998
X8.8417Y-8.248
X8.9116Y-9.7482
X9.0047Y-7.498
X9.0307Y-6.748
X9.1917Y-8.248
X9.2187Y-8.998
X9.3116Y-9.7482
X9.3807Y-6.748
X9.4047Y-7.498
X9.5687Y-8.998
X9.5917Y-8.248
X9.7547Y-7.498
X9.7807Y-6.748
X9.9417Y-8.248
X9.9687Y-8.998
X10.1307Y-6.748
X10.1547Y-7.498
X10.2242Y-9.748
X10.3187Y-8.998
X10.3417Y-8.248
X10.4112Y-9.748
X10.5047Y-7.498
X10.5307Y-6.748
X10.6242Y-9.748
X10.6917Y-8.248
X10.7187Y-8.998
X10.8112Y-9.748
X10.8807Y-6.748
X10.9047Y-7.498
X11.0677Y-8.998
X11.0917Y-8.248
X11.2547Y-7.498
X11.2807Y-6.748
X11.4417Y-8.248
X11.4677Y-8.998
X11.6307Y-6.748
X11.6547Y-7.498
X11.7242Y-9.748
X11.8177Y-8.998
X11.8417Y-8.248
X12.0047Y-7.498
X12.0307Y-6.748
X12.1242Y-9.748
X12.1917Y-8.248
X12.2177Y-8.998
X12.3807Y-6.748
X12.4047Y-7.498
X12.5677Y-8.998
X12.5917Y-8.248
X12.7547Y-7.498
X12.7807Y-6.748
X12.9417Y-8.248
X12.9677Y-8.998
X13.1307Y-6.748
X13.1547Y-7.498
X13.2234Y-9.749
X13.3177Y-8.998
X13.3417Y-8.248
X13.5047Y-7.498
X13.5307Y-6.748
X13.6234Y-9.749
X13.6917Y-8.248
X13.7177Y-8.998
X13.8807Y-6.748
X13.9047Y-7.498
X14.0667Y-8.999
X14.0917Y-8.248
X14.1606Y-9.7486
X14.2557Y-7.498
X14.2807Y-6.748
X14.4417Y-8.248
X14.4667Y-8.999
X14.5606Y-9.7486
X14.6297Y-6.748
X14.6557Y-7.498
X14.8417Y-8.248
X15.0057Y-7.498
X15.0297Y-6.748
X15.0992Y-8.999
X15.0992Y-9.748
X15.3797Y-6.748
X15.3927Y-8.048
X15.3927Y-8.448
X15.4057Y-7.498
X15.4722Y-8.998
X15.4992Y-8.999
X15.4992Y-9.748
X15.7547Y-6.7481
X15.7797Y-6.748
X15.8612Y-8.048
X15.8612Y-8.448
X15.8722Y-8.998
X16.1297Y-6.748
X16.1307Y-8.998
X16.1427Y-7.298
X16.1427Y-7.698
X16.1547Y-6.7481
X16.2372Y-7.673
X16.2372Y-8.073
X16.3177Y-9.748
X16.5297Y-6.748
X16.5307Y-8.998
X16.7177Y-9.748
X17.0677Y-8.998
X17.0677Y-9.748
X17.4677Y-8.998
X17.4677Y-9.748
X17.8177Y-9.748
X18.2177Y-9.748
T3
X5.6807Y-6.649
X5.7742Y-8.148
X5.7742Y-9.648
X5.8242Y-9.198
X5.8687Y-7.399
X5.9307Y-6.549
X6.0112Y-8.448
X6.0242Y-8.048
X6.0242Y-9.548
X6.0742Y-9.098
X6.1187Y-7.299
X6.1482Y-8.898
X6.2612Y-8.348
X6.3982Y-8.798
X6.4307Y-6.649
X6.6677Y-9.198
X6.6807Y-6.549
X6.7122Y-9.648
X6.8057Y-7.399
X6.9177Y-9.098
X6.9622Y-9.548
X6.9927Y-8.148
X7.0557Y-7.299
X7.1817Y-6.649
X7.2427Y-8.048
X7.3677Y-8.898
X7.4317Y-6.549
X7.5567Y-7.399
X7.6177Y-8.798
X7.6492Y-9.648
X7.7427Y-8.148
X7.8067Y-7.299
X7.8992Y-9.548
X7.9317Y-6.648
X7.9927Y-8.048
X8.1177Y-8.898
X8.1817Y-6.548
X8.3057Y-7.398
X8.3677Y-8.798
X8.4917Y-8.148
X8.5557Y-7.298
X8.6807Y-6.648
X8.7417Y-8.048
X8.8687Y-8.898
X8.9307Y-6.548
X8.9616Y-9.6482
X9.0547Y-7.398
X9.1187Y-8.798
X9.2116Y-9.5482
X9.2417Y-8.148
X9.3047Y-7.298
X9.4307Y-6.648
X9.4917Y-8.048
X9.6187Y-8.898
X9.6807Y-6.548
X9.8047Y-7.398
X9.8687Y-8.798
X9.9917Y-8.148
X10.0547Y-7.298
X10.1807Y-6.648
X10.2417Y-8.048
X10.2742Y-9.648
X10.3687Y-8.898
X10.4307Y-6.548
X10.5112Y-9.948
X10.5242Y-9.548
X10.5547Y-7.398
X10.6187Y-8.798
X10.7417Y-8.148
X10.7612Y-9.848
X10.8047Y-7.298
X10.9307Y-6.648
X10.9917Y-8.048
X11.1177Y-8.898
X11.1807Y-6.548
X11.3047Y-7.398
X11.3677Y-8.798
X11.4917Y-8.148
X11.5547Y-7.298
X11.6807Y-6.648
X11.7417Y-8.048
X11.7742Y-9.648
X11.8677Y-8.898
X11.9307Y-6.548
X12.0242Y-9.548
X12.0547Y-7.398
X12.1177Y-8.798
X12.2417Y-8.148
X12.3047Y-7.298
X12.4307Y-6.648
X12.4917Y-8.048
X12.6177Y-8.898
X12.6807Y-6.548
X12.8047Y-7.398
X12.8677Y-8.798
X12.9917Y-8.148
X13.0547Y-7.298
X13.1807Y-6.648
X13.2417Y-8.048
X13.2734Y-9.649
X13.3677Y-8.898
X13.4307Y-6.548
X13.5234Y-9.549
X13.5547Y-7.398
X13.6177Y-8.798
X13.7417Y-8.148
X13.8047Y-7.298
X13.9307Y-6.648
X13.9917Y-8.048
X14.1167Y-8.899
X14.1807Y-6.548
X14.2106Y-9.6486
X14.3057Y-7.398
X14.3667Y-8.799
X14.4606Y-9.5486
X14.4917Y-8.148
X14.5557Y-7.298
X14.6797Y-6.648
X14.7417Y-8.048
X14.9297Y-6.548
X15.0557Y-7.398
X15.1492Y-9.648
X15.1927Y-8.148
X15.1992Y-9.199
X15.2927Y-8.398
X15.3057Y-7.298
X15.3992Y-9.548
X15.4492Y-9.099
X15.4797Y-6.948
X15.5222Y-8.898
X15.6612Y-8.148
X15.7297Y-6.848
X15.7612Y-8.398
X15.7722Y-8.798
X15.8047Y-6.6481
X16.0372Y-7.773
X16.0547Y-6.5481
X16.1372Y-8.023
X16.2297Y-6.948
X16.2307Y-9.198
X16.2427Y-7.348
X16.3427Y-7.598
X16.3677Y-9.648
X16.4797Y-6.848
X16.4807Y-9.098
X16.6177Y-9.548
X17.1177Y-8.898
X17.1177Y-9.648
X17.3677Y-8.798
X17.3677Y-9.548
X17.8677Y-9.648
X18.1177Y-9.548
T4
X5.8282Y-8.723
X6.7682Y-8.723
X8.6416Y-10.0232
X8.6427Y-10.023
X9.5816Y-10.0232
X11.4542Y-10.023
X12.3942Y-10.023
X12.5797Y-10.023
X15.2022Y-8.723
X15.3902Y-8.523
X15.4847Y-6.4731
X16.1422Y-8.723
X16.3302Y-8.523
X16.4247Y-6.4731
X16.5122Y-7.403
X16.5122Y-8.343
T5
X5.8282Y-9.323
X5.8307Y-6.749
X5.9242Y-8.248
X5.9242Y-8.998
X5.9242Y-9.748
X6.0187Y-7.499
X6.1112Y-8.248
X6.2982Y-8.998
X6.5807Y-6.749
X6.7677Y-8.998
X6.7682Y-9.323
X6.8622Y-9.748
X6.9557Y-7.499
X7.1427Y-8.248
X7.3317Y-6.749
X7.5177Y-8.998
X7.7067Y-7.499
X7.7992Y-9.748
X7.8927Y-8.248
X8.0817Y-6.748
X8.2677Y-8.998
X8.4557Y-7.498
X8.6416Y-9.4232
X8.6417Y-8.248
X8.6427Y-9.423
X8.8307Y-6.748
X9.0187Y-8.998
X9.1116Y-9.7482
X9.2047Y-7.498
X9.3917Y-8.248
X9.5807Y-6.748
X9.5816Y-9.4232
X9.7687Y-8.998
X9.9547Y-7.498
X10.1417Y-8.248
X10.3307Y-6.748
X10.4242Y-9.748
X10.5187Y-8.998
X10.6112Y-9.748
X10.7047Y-7.498
X10.8917Y-8.248
X11.0807Y-6.748
X11.2677Y-8.998
X11.4542Y-9.423
X11.4547Y-7.498
X11.6417Y-8.248
X11.8307Y-6.748
X11.9242Y-9.748
X12.0177Y-8.998
X12.2047Y-7.498
X12.3917Y-8.248
X12.3942Y-9.423
X12.5797Y-9.423
X12.5807Y-6.748
X12.7677Y-8.998
X12.9547Y-7.498
X13.1417Y-8.248
X13.3307Y-6.748
X13.4234Y-9.749
X13.5177Y-8.998
X13.7047Y-7.498
X13.8917Y-8.248
X14.0807Y-6.748
X14.2667Y-8.999
X14.3606Y-9.7486
X14.4557Y-7.498
X14.6417Y-8.248
X14.8297Y-6.748
X15.2022Y-9.323
X15.2057Y-7.498
X15.2992Y-8.999
X15.2992Y-9.748
X15.3902Y-7.923
X15.3927Y-8.248
X15.4847Y-7.0731
X15.5797Y-6.748
X15.6722Y-8.998
X15.8612Y-8.248
X15.9122Y-7.403
X15.9122Y-8.343
X15.9547Y-6.7481
X16.1422Y-9.323
X16.1427Y-7.498
X16.2372Y-7.873
X16.3297Y-6.748
X16.3302Y-7.923
X16.3307Y-8.998
X16.4247Y-7.0731
X16.5177Y-9.748
X17.2677Y-8.998
X17.2677Y-9.748
X18.0177Y-9.748
T0
M30
