M48
; DRILL file {KiCad (6.0.5)} date Thu May 18 02:23:02 2023
; FORMAT={-:-/ absolute / inch / decimal}
; #@! TF.CreationDate,2023-05-18T02:23:02+09:00
; #@! TF.GenerationSoftware,Kicad,Pcbnew,(6.0.5)
; #@! TF.FileFunction,Plated,1,2,PTH
FMAT,2
INCH
; #@! TA.AperFunction,Plated,PTH,ViaDrill
T1C0.0157
; #@! TA.AperFunction,Plated,PTH,ComponentDrill
T2C0.0236
; #@! TA.AperFunction,Plated,PTH,ComponentDrill
T3C0.0276
; #@! TA.AperFunction,Plated,PTH,ComponentDrill
T4C0.0394
; #@! TA.AperFunction,Plated,PTH,ComponentDrill
T5C0.0787
%
G90
G05
T1
X5.6073Y-7.1112
X5.6496Y-9.7874
X6.4439Y-6.9675
X6.4439Y-7.0246
X6.5945Y-8.5079
X6.5945Y-8.5649
X6.6772Y-7.7156
X6.6772Y-7.7746
X7.0472Y-9.2165
X7.0472Y-9.2746
X7.2077Y-6.9675
X7.2077Y-7.0246
X7.311Y-9.2175
X7.311Y-9.2776
X7.4961Y-7.7165
X7.4961Y-7.7746
X7.5177Y-8.4666
X7.5177Y-8.5236
X7.8848Y-6.9675
X7.8848Y-7.0246
X8.0955Y-9.2175
X8.1526Y-9.2746
X8.2106Y-7.7136
X8.2106Y-7.7746
X8.3494Y-8.4666
X8.3494Y-8.5236
X8.6427Y-6.9675
X8.6427Y-7.0246
X8.9665Y-7.7175
X8.9675Y-7.7746
X8.9685Y-9.2175
X8.9685Y-9.2746
X9.0492Y-8.4666
X9.0492Y-8.5236
X9.3661Y-6.9636
X9.3661Y-7.0246
X9.7274Y-7.7175
X9.7274Y-7.7746
X9.8071Y-8.4666
X9.8071Y-8.5236
X10.0994Y-6.9557
X10.124Y-7.0266
X10.2815Y-9.8189
X10.3337Y-8.5955
X10.3356Y-8.6525
X10.3504Y-7.7864
X10.3632Y-9.8435
X10.375Y-7.8593
X10.3878Y-7.1397
X10.4528Y-7.7175
X10.4528Y-7.7746
X10.5591Y-9.3445
X10.6122Y-8.5236
X10.6132Y-8.4666
X10.6319Y-9.8848
X10.6368Y-9.4715
X10.6398Y-9.2618
X10.6516Y-9.9606
X10.6673Y-9.626
X10.6713Y-9.4006
X10.689Y-9.2608
X10.7146Y-9.3858
X10.7156Y-9.4626
X10.748Y-9.7067
X10.7549Y-8.6427
X10.7559Y-9.4606
X10.7563Y-9.3858
X10.7953Y-9.3484
X10.7953Y-9.4606
X10.7955Y-9.2697
X10.7972Y-8.6417
X10.8169Y-8.5295
X10.8302Y-9.2352
X10.8317Y-9.1624
X10.8347Y-10.0226
X10.8519Y-8.6452
X10.8661Y-9.3799
X10.8695Y-9.2352
X10.876Y-9.1003
X10.8937Y-7.8632
X10.8996Y-9.4606
X10.905Y-9.1676
X10.9056Y-8.8552
X10.9066Y-9.6028
X10.9072Y-9.5603
X10.9089Y-9.2352
X10.9114Y-9.7717
X10.9134Y-9.3858
X10.9393Y-9.4761
X10.9429Y-8.9823
X10.9429Y-9.1782
X10.9429Y-9.2549
X10.9465Y-9.559
X10.9473Y-9.9355
X10.9646Y-9.3927
X10.9715Y-8.8091
X10.9738Y-9.9647
X10.9823Y-9.3504
X10.9842Y-9.8579
X10.9852Y-9.253
X10.9892Y-9.8189
X11.0033Y-9.9907
X11.0217Y-9.1782
X11.0217Y-9.3514
X11.0295Y-9.9075
X11.0512Y-9.4085
X11.0591Y-9.2352
X11.0778Y-9.1063
X11.0905Y-9.4065
X11.1034Y-9.3445
X11.1298Y-9.4079
X11.1437Y-9.2352
X11.1437Y-9.3445
X11.1654Y-8.5551
X11.1732Y-9.4085
X11.191Y-9.4606
X11.191Y-9.5
X11.2067Y-9.8838
X11.2239Y-9.3588
X11.248Y-9.8268
X11.248Y-9.8847
X11.2746Y-7.935
X11.2765Y-10.0059
X11.2982Y-9.5266
X11.3228Y-9.5836
X11.3474Y-7.8612
X11.3504Y-10.124
X11.3509Y-10.0394
X11.3509Y-10.0817
X11.3627Y-9.7062
X11.373Y-9.1782
X11.4085Y-9.9449
X11.4321Y-9.2392
X11.4773Y-9.881
X11.5974Y-10.0699
X11.687Y-8.6516
X11.7018Y-6.9675
X11.7018Y-7.0246
X11.7042Y-6.3735
X11.7077Y-6.2549
X11.7953Y-6.3858
X11.8376Y-8.5384
X11.8789Y-6.2892
X11.8865Y-6.4236
X11.9134Y-6.2687
X11.9724Y-7.7156
X11.9724Y-7.7736
X11.976Y-6.2882
X12.0059Y-6.4616
X12.0522Y-6.3812
X12.1496Y-7.0827
X12.1498Y-7.1397
X12.189Y-7.0827
X12.189Y-7.1437
X12.2776Y-6.3435
X12.2835Y-7.7825
X12.2835Y-7.8563
X12.2894Y-6.2864
X12.3278Y-7.7795
X12.3278Y-7.8563
X12.4016Y-6.9675
X12.4016Y-7.0246
X12.4341Y-6.3553
X12.4603Y-9.1769
X12.4754Y-9.2579
X12.4774Y-9.2156
X12.5138Y-8.5236
X12.5561Y-8.5236
X12.5571Y-8.6713
X12.6093Y-8.6604
X12.624Y-8.7421
X12.652Y-8.7091
X12.6604Y-9.9528
X12.7047Y-10.0699
X12.7067Y-9.9823
X12.7254Y-7.7116
X12.7254Y-7.7736
X12.7972Y-8.5236
X12.7982Y-8.4666
X12.94Y-10.1988
X12.9508Y-9.2598
X13.1091Y-9.2874
X13.1142Y-9.9823
X13.1171Y-10.0699
X13.1457Y-6.9675
X13.1978Y-7.0246
X13.2372Y-9.2156
X13.2421Y-10.0699
X13.3465Y-9.1437
X13.4262Y-9.2096
X13.5295Y-9.2726
X13.5551Y-8.4665
X13.5551Y-8.5236
X13.563Y-10.1821
X13.5901Y-9.3784
X13.625Y-7.7156
X13.626Y-7.7736
X13.8799Y-6.9626
X13.8809Y-7.0246
X14.2047Y-7.7165
X14.2057Y-7.7736
X14.2933Y-8.4666
X14.2933Y-8.5236
X14.5512Y-6.9675
X14.5512Y-7.0246
X14.6801Y-9.1811
X14.6801Y-9.3209
X14.7972Y-9.2067
X14.9114Y-9.3209
X15.0305Y-7.7166
X15.0305Y-7.7736
X15.3878Y-8.5906
X15.3878Y-8.6476
X15.8199Y-8.8937
X15.8829Y-7.7106
X15.8834Y-7.779
X16.0281Y-7.1186
X16.1708Y-8.3312
X16.1708Y-8.2505
X16.2421Y-9.5561
X16.5079Y-8.8937
X16.8071Y-8.935
X16.9429Y-7.2687
X16.9862Y-9.5246
X17.0167Y-8.0197
X17.0492Y-7.4055
X17.0492Y-7.9961
X17.0571Y-6.4478
X17.1388Y-6.44
X17.1388Y-7.9331
X17.1772Y-6.3947
X17.1781Y-6.7628
X17.2638Y-7.5866
X17.3041Y-7.4035
X17.3041Y-7.4459
X17.3515Y-6.4489
X17.4498Y-6.7087
X17.5374Y-8.3622
X17.5374Y-8.4764
X17.5817Y-6.4518
X17.6752Y-6.7047
X17.8118Y-6.4496
X17.874Y-7.4173
X17.9026Y-7.5758
X17.9026Y-7.6535
X17.9085Y-6.7047
X18.0984Y-7.9567
X18.1348Y-6.7018
X18.1693Y-6.5453
X18.185Y-7.8553
X18.186Y-7.7638
X18.252Y-8.2392
X18.3228Y-7.9528
X18.3462Y-6.86
T3
X17.3996Y-7.4406
X17.3996Y-7.5106
X17.3996Y-7.5807
X17.3996Y-7.6508
X17.3996Y-7.7209
X17.3996Y-7.7909
X17.3996Y-7.861
X17.3996Y-7.9311
X17.8209Y-7.4055
X17.8209Y-7.4756
X17.8209Y-7.5457
X17.8209Y-7.6157
X17.8209Y-7.6858
X17.8209Y-7.7559
X17.8209Y-7.826
X17.8209Y-7.8961
T4
X17.9183Y-8.7047
X18.0167Y-8.7047
X18.1152Y-8.7047
T2
G00X11.7531Y-6.1289
M15
G01X11.7531Y-6.1526
M16
G05
G00X11.7531Y-6.2837
M15
G01X11.7531Y-6.327
M16
G05
G00X12.0933Y-6.1289
M15
G01X12.0933Y-6.1526
M16
G05
G00X12.0933Y-6.2837
M15
G01X12.0933Y-6.327
M16
G05
T5
G00X17.7963Y-8.9902
M15
G01X17.7963Y-9.0098
M16
G05
G00X18.2372Y-8.9902
M15
G01X18.2372Y-9.0098
M16
G05
T0
M30
