%TF.GenerationSoftware,KiCad,Pcbnew,(6.0.5)*%
%TF.CreationDate,2023-05-27T18:30:22+09:00*%
%TF.ProjectId,dynamis,64796e61-6d69-4732-9e6b-696361645f70,v2.0.0*%
%TF.SameCoordinates,Original*%
%TF.FileFunction,Soldermask,Top*%
%TF.FilePolarity,Negative*%
%FSLAX46Y46*%
G04 Gerber Fmt 4.6, Leading zero omitted, Abs format (unit mm)*
G04 Created by KiCad (PCBNEW (6.0.5)) date 2023-05-27 18:30:22*
%MOMM*%
%LPD*%
G01*
G04 APERTURE LIST*
%ADD10C,0.300000*%
%ADD11C,3.000000*%
%ADD12C,3.987800*%
%ADD13C,1.750000*%
%ADD14C,3.048000*%
%ADD15R,2.000000X2.000000*%
%ADD16C,2.000000*%
%ADD17R,2.500000X3.000000*%
%ADD18C,0.650000*%
%ADD19O,1.000000X2.100000*%
%ADD20O,1.000000X1.600000*%
%ADD21C,1.300000*%
G04 APERTURE END LIST*
D10*
X195628571Y-261178571D02*
X195628571Y-259678571D01*
X195628571Y-261107142D02*
X195485714Y-261178571D01*
X195200000Y-261178571D01*
X195057142Y-261107142D01*
X194985714Y-261035714D01*
X194914285Y-260892857D01*
X194914285Y-260464285D01*
X194985714Y-260321428D01*
X195057142Y-260250000D01*
X195200000Y-260178571D01*
X195485714Y-260178571D01*
X195628571Y-260250000D01*
X196200000Y-260178571D02*
X196557142Y-261178571D01*
X196914285Y-260178571D02*
X196557142Y-261178571D01*
X196414285Y-261535714D01*
X196342857Y-261607142D01*
X196200000Y-261678571D01*
X197485714Y-260178571D02*
X197485714Y-261178571D01*
X197485714Y-260321428D02*
X197557142Y-260250000D01*
X197700000Y-260178571D01*
X197914285Y-260178571D01*
X198057142Y-260250000D01*
X198128571Y-260392857D01*
X198128571Y-261178571D01*
X199485714Y-261178571D02*
X199485714Y-260392857D01*
X199414285Y-260250000D01*
X199271428Y-260178571D01*
X198985714Y-260178571D01*
X198842857Y-260250000D01*
X199485714Y-261107142D02*
X199342857Y-261178571D01*
X198985714Y-261178571D01*
X198842857Y-261107142D01*
X198771428Y-260964285D01*
X198771428Y-260821428D01*
X198842857Y-260678571D01*
X198985714Y-260607142D01*
X199342857Y-260607142D01*
X199485714Y-260535714D01*
X200200000Y-261178571D02*
X200200000Y-260178571D01*
X200200000Y-260321428D02*
X200271428Y-260250000D01*
X200414285Y-260178571D01*
X200628571Y-260178571D01*
X200771428Y-260250000D01*
X200842857Y-260392857D01*
X200842857Y-261178571D01*
X200842857Y-260392857D02*
X200914285Y-260250000D01*
X201057142Y-260178571D01*
X201271428Y-260178571D01*
X201414285Y-260250000D01*
X201485714Y-260392857D01*
X201485714Y-261178571D01*
X202200000Y-261178571D02*
X202200000Y-260178571D01*
X202200000Y-259678571D02*
X202128571Y-259750000D01*
X202200000Y-259821428D01*
X202271428Y-259750000D01*
X202200000Y-259678571D01*
X202200000Y-259821428D01*
X202842857Y-261107142D02*
X202985714Y-261178571D01*
X203271428Y-261178571D01*
X203414285Y-261107142D01*
X203485714Y-260964285D01*
X203485714Y-260892857D01*
X203414285Y-260750000D01*
X203271428Y-260678571D01*
X203057142Y-260678571D01*
X202914285Y-260607142D01*
X202842857Y-260464285D01*
X202842857Y-260392857D01*
X202914285Y-260250000D01*
X203057142Y-260178571D01*
X203271428Y-260178571D01*
X203414285Y-260250000D01*
X205128571Y-260178571D02*
X205485714Y-261178571D01*
X205842857Y-260178571D01*
X206342857Y-259821428D02*
X206414285Y-259750000D01*
X206557142Y-259678571D01*
X206914285Y-259678571D01*
X207057142Y-259750000D01*
X207128571Y-259821428D01*
X207200000Y-259964285D01*
X207200000Y-260107142D01*
X207128571Y-260321428D01*
X206271428Y-261178571D01*
X207200000Y-261178571D01*
X207842857Y-261035714D02*
X207914285Y-261107142D01*
X207842857Y-261178571D01*
X207771428Y-261107142D01*
X207842857Y-261035714D01*
X207842857Y-261178571D01*
X208842857Y-259678571D02*
X208985714Y-259678571D01*
X209128571Y-259750000D01*
X209200000Y-259821428D01*
X209271428Y-259964285D01*
X209342857Y-260250000D01*
X209342857Y-260607142D01*
X209271428Y-260892857D01*
X209200000Y-261035714D01*
X209128571Y-261107142D01*
X208985714Y-261178571D01*
X208842857Y-261178571D01*
X208700000Y-261107142D01*
X208628571Y-261035714D01*
X208557142Y-260892857D01*
X208485714Y-260607142D01*
X208485714Y-260250000D01*
X208557142Y-259964285D01*
X208628571Y-259821428D01*
X208700000Y-259750000D01*
X208842857Y-259678571D01*
X209985714Y-261035714D02*
X210057142Y-261107142D01*
X209985714Y-261178571D01*
X209914285Y-261107142D01*
X209985714Y-261035714D01*
X209985714Y-261178571D01*
X210985714Y-259678571D02*
X211128571Y-259678571D01*
X211271428Y-259750000D01*
X211342857Y-259821428D01*
X211414285Y-259964285D01*
X211485714Y-260250000D01*
X211485714Y-260607142D01*
X211414285Y-260892857D01*
X211342857Y-261035714D01*
X211271428Y-261107142D01*
X211128571Y-261178571D01*
X210985714Y-261178571D01*
X210842857Y-261107142D01*
X210771428Y-261035714D01*
X210700000Y-260892857D01*
X210628571Y-260607142D01*
X210628571Y-260250000D01*
X210700000Y-259964285D01*
X210771428Y-259821428D01*
X210842857Y-259750000D01*
X210985714Y-259678571D01*
X213914285Y-261178571D02*
X213914285Y-259678571D01*
X213914285Y-261107142D02*
X213771428Y-261178571D01*
X213485714Y-261178571D01*
X213342857Y-261107142D01*
X213271428Y-261035714D01*
X213200000Y-260892857D01*
X213200000Y-260464285D01*
X213271428Y-260321428D01*
X213342857Y-260250000D01*
X213485714Y-260178571D01*
X213771428Y-260178571D01*
X213914285Y-260250000D01*
X215200000Y-261107142D02*
X215057142Y-261178571D01*
X214771428Y-261178571D01*
X214628571Y-261107142D01*
X214557142Y-260964285D01*
X214557142Y-260392857D01*
X214628571Y-260250000D01*
X214771428Y-260178571D01*
X215057142Y-260178571D01*
X215200000Y-260250000D01*
X215271428Y-260392857D01*
X215271428Y-260535714D01*
X214557142Y-260678571D01*
X215842857Y-261107142D02*
X215985714Y-261178571D01*
X216271428Y-261178571D01*
X216414285Y-261107142D01*
X216485714Y-260964285D01*
X216485714Y-260892857D01*
X216414285Y-260750000D01*
X216271428Y-260678571D01*
X216057142Y-260678571D01*
X215914285Y-260607142D01*
X215842857Y-260464285D01*
X215842857Y-260392857D01*
X215914285Y-260250000D01*
X216057142Y-260178571D01*
X216271428Y-260178571D01*
X216414285Y-260250000D01*
X217128571Y-261178571D02*
X217128571Y-260178571D01*
X217128571Y-259678571D02*
X217057142Y-259750000D01*
X217128571Y-259821428D01*
X217200000Y-259750000D01*
X217128571Y-259678571D01*
X217128571Y-259821428D01*
X218485714Y-260178571D02*
X218485714Y-261392857D01*
X218414285Y-261535714D01*
X218342857Y-261607142D01*
X218200000Y-261678571D01*
X217985714Y-261678571D01*
X217842857Y-261607142D01*
X218485714Y-261107142D02*
X218342857Y-261178571D01*
X218057142Y-261178571D01*
X217914285Y-261107142D01*
X217842857Y-261035714D01*
X217771428Y-260892857D01*
X217771428Y-260464285D01*
X217842857Y-260321428D01*
X217914285Y-260250000D01*
X218057142Y-260178571D01*
X218342857Y-260178571D01*
X218485714Y-260250000D01*
X219200000Y-260178571D02*
X219200000Y-261178571D01*
X219200000Y-260321428D02*
X219271428Y-260250000D01*
X219414285Y-260178571D01*
X219628571Y-260178571D01*
X219771428Y-260250000D01*
X219842857Y-260392857D01*
X219842857Y-261178571D01*
X221128571Y-261107142D02*
X220985714Y-261178571D01*
X220700000Y-261178571D01*
X220557142Y-261107142D01*
X220485714Y-260964285D01*
X220485714Y-260392857D01*
X220557142Y-260250000D01*
X220700000Y-260178571D01*
X220985714Y-260178571D01*
X221128571Y-260250000D01*
X221200000Y-260392857D01*
X221200000Y-260535714D01*
X220485714Y-260678571D01*
X222485714Y-261178571D02*
X222485714Y-259678571D01*
X222485714Y-261107142D02*
X222342857Y-261178571D01*
X222057142Y-261178571D01*
X221914285Y-261107142D01*
X221842857Y-261035714D01*
X221771428Y-260892857D01*
X221771428Y-260464285D01*
X221842857Y-260321428D01*
X221914285Y-260250000D01*
X222057142Y-260178571D01*
X222342857Y-260178571D01*
X222485714Y-260250000D01*
X224342857Y-261178571D02*
X224342857Y-259678571D01*
X224342857Y-260250000D02*
X224485714Y-260178571D01*
X224771428Y-260178571D01*
X224914285Y-260250000D01*
X224985714Y-260321428D01*
X225057142Y-260464285D01*
X225057142Y-260892857D01*
X224985714Y-261035714D01*
X224914285Y-261107142D01*
X224771428Y-261178571D01*
X224485714Y-261178571D01*
X224342857Y-261107142D01*
X225557142Y-260178571D02*
X225914285Y-261178571D01*
X226271428Y-260178571D02*
X225914285Y-261178571D01*
X225771428Y-261535714D01*
X225700000Y-261607142D01*
X225557142Y-261678571D01*
X227985714Y-261178571D02*
X227985714Y-259678571D01*
X227985714Y-260250000D02*
X228128571Y-260178571D01*
X228414285Y-260178571D01*
X228557142Y-260250000D01*
X228628571Y-260321428D01*
X228700000Y-260464285D01*
X228700000Y-260892857D01*
X228628571Y-261035714D01*
X228557142Y-261107142D01*
X228414285Y-261178571D01*
X228128571Y-261178571D01*
X227985714Y-261107142D01*
X229342857Y-261178571D02*
X229342857Y-259678571D01*
X229342857Y-260250000D02*
X229485714Y-260178571D01*
X229771428Y-260178571D01*
X229914285Y-260250000D01*
X229985714Y-260321428D01*
X230057142Y-260464285D01*
X230057142Y-260892857D01*
X229985714Y-261035714D01*
X229914285Y-261107142D01*
X229771428Y-261178571D01*
X229485714Y-261178571D01*
X229342857Y-261107142D01*
X230700000Y-261178571D02*
X230700000Y-260178571D01*
X230700000Y-260464285D02*
X230771428Y-260321428D01*
X230842857Y-260250000D01*
X230985714Y-260178571D01*
X231128571Y-260178571D01*
X231414285Y-260178571D02*
X231985714Y-260178571D01*
X231628571Y-261178571D02*
X231628571Y-259892857D01*
X231700000Y-259750000D01*
X231842857Y-259678571D01*
X231985714Y-259678571D01*
X232485714Y-261178571D02*
X232485714Y-259678571D01*
X232628571Y-260607142D02*
X233057142Y-261178571D01*
X233057142Y-260178571D02*
X232485714Y-260750000D01*
X233700000Y-261178571D02*
X233700000Y-260178571D01*
X233700000Y-260464285D02*
X233771428Y-260321428D01*
X233842857Y-260250000D01*
X233985714Y-260178571D01*
X234128571Y-260178571D01*
%TO.C,LOGO00*%
G36*
X250313200Y-244376054D02*
G01*
X251473382Y-244376527D01*
X252633564Y-244376999D01*
X252692582Y-242701622D01*
X252751600Y-241026244D01*
X253814129Y-242701622D01*
X254876658Y-244376999D01*
X253864929Y-244376999D01*
X253286606Y-244399347D01*
X252920413Y-244456460D01*
X252853200Y-244500674D01*
X252965302Y-244711334D01*
X253263014Y-245160944D01*
X253688444Y-245763081D01*
X253818400Y-245941555D01*
X254783600Y-247258761D01*
X254885200Y-245884960D01*
X254986800Y-244511158D01*
X255948454Y-245960311D01*
X256910108Y-247409465D01*
X254877416Y-250516032D01*
X254220981Y-251508569D01*
X253633694Y-252376405D01*
X253153848Y-253064569D01*
X252819735Y-253518088D01*
X252672472Y-253681429D01*
X252512388Y-253538316D01*
X252172065Y-253104856D01*
X251689358Y-252433622D01*
X251102125Y-251577188D01*
X250477691Y-250633429D01*
X250373253Y-250473000D01*
X250414800Y-250473000D01*
X251430800Y-250473000D01*
X252010541Y-250453093D01*
X252378389Y-250402197D01*
X252446800Y-250362401D01*
X252332389Y-250160436D01*
X252027864Y-249719657D01*
X251591281Y-249123077D01*
X251430800Y-248909698D01*
X250414800Y-247567593D01*
X250414800Y-250473000D01*
X250373253Y-250473000D01*
X248481848Y-247567593D01*
X248455162Y-247526600D01*
X249450644Y-247464637D01*
X250446126Y-247402675D01*
X250441675Y-247301325D01*
X250618000Y-247301325D01*
X250800859Y-247371893D01*
X251268374Y-247416670D01*
X251634000Y-247425000D01*
X252650000Y-247425000D01*
X252650000Y-246002600D01*
X252641836Y-245301441D01*
X252620354Y-244793406D01*
X252590063Y-244581310D01*
X252587590Y-244580200D01*
X252440509Y-244731814D01*
X252133128Y-245122679D01*
X251734910Y-245656830D01*
X251315316Y-246238298D01*
X250943810Y-246771119D01*
X250689852Y-247159324D01*
X250618000Y-247301325D01*
X250441675Y-247301325D01*
X250379663Y-245889364D01*
X250313200Y-244376054D01*
G37*
%TD*%
D11*
%TO.C,SW09_00*%
X412235000Y-176480000D03*
D12*
X414775000Y-171400000D03*
D13*
X409695000Y-171400000D03*
D11*
X418585000Y-173940000D03*
D13*
X419855000Y-171400000D03*
%TD*%
%TO.C,SW03_02*%
X185870000Y-228550000D03*
D11*
X187140000Y-226010000D03*
D13*
X196030000Y-228550000D03*
D12*
X190950000Y-228550000D03*
D11*
X193490000Y-223470000D03*
%TD*%
%TO.C,SW03_00*%
X147935000Y-233630000D03*
D13*
X155555000Y-228550000D03*
X145395000Y-228550000D03*
D12*
X150475000Y-228550000D03*
D11*
X154285000Y-231090000D03*
%TD*%
D12*
%TO.C,SW01_03*%
X214775000Y-190450000D03*
D11*
X217315000Y-185370000D03*
D13*
X219855000Y-190450000D03*
D11*
X210965000Y-187910000D03*
D13*
X209695000Y-190450000D03*
%TD*%
%TO.C,SW07_03*%
X347770000Y-209500000D03*
X357930000Y-209500000D03*
D11*
X349040000Y-206960000D03*
D12*
X352850000Y-209500000D03*
D11*
X355390000Y-204420000D03*
%TD*%
D13*
%TO.C,SW09_04*%
X424630000Y-247600000D03*
D11*
X422090000Y-242520000D03*
X415740000Y-245060000D03*
D13*
X414470000Y-247600000D03*
D12*
X419550000Y-247600000D03*
%TD*%
D13*
%TO.C,SW02_05*%
X262680000Y-209500000D03*
D11*
X260140000Y-204420000D03*
D13*
X252520000Y-209500000D03*
D12*
X257600000Y-209500000D03*
D11*
X253790000Y-206960000D03*
%TD*%
%TO.C,SW05_03*%
X334790000Y-168860000D03*
D12*
X338600000Y-171400000D03*
D11*
X341140000Y-166320000D03*
D13*
X343680000Y-171400000D03*
X333520000Y-171400000D03*
%TD*%
%TO.C,SW07_01*%
X390975000Y-214580000D03*
D11*
X385895000Y-206960000D03*
D13*
X390975000Y-204420000D03*
D12*
X390975000Y-209500000D03*
D11*
X388435000Y-213310000D03*
%TD*%
D14*
%TO.C,SWRS_L01*%
X386137000Y-221565000D03*
D13*
X392995000Y-228550000D03*
D12*
X386137000Y-236805000D03*
D11*
X400615000Y-223470000D03*
D12*
X410013000Y-236805000D03*
D11*
X394265000Y-226010000D03*
D14*
X410013000Y-221565000D03*
D12*
X398075000Y-228550000D03*
D13*
X403155000Y-228550000D03*
%TD*%
%TO.C,SW05_01*%
X381755000Y-171400000D03*
D12*
X376675000Y-171400000D03*
D11*
X372865000Y-168860000D03*
D13*
X371595000Y-171400000D03*
D11*
X379215000Y-166320000D03*
%TD*%
%TO.C,SWLS_L01*%
X162515000Y-223470000D03*
D12*
X171913000Y-236805000D03*
D13*
X165055000Y-228550000D03*
D11*
X156165000Y-226010000D03*
D13*
X154895000Y-228550000D03*
D12*
X159975000Y-228550000D03*
X148037000Y-236805000D03*
D14*
X171913000Y-221565000D03*
X148037000Y-221565000D03*
%TD*%
D11*
%TO.C,SW02_06*%
X272840000Y-206960000D03*
D13*
X271570000Y-209500000D03*
D12*
X276650000Y-209500000D03*
D11*
X279190000Y-204420000D03*
D13*
X281730000Y-209500000D03*
%TD*%
D11*
%TO.C,SW09_05*%
X384790000Y-245060000D03*
X391140000Y-242520000D03*
D13*
X393680000Y-247600000D03*
D12*
X388600000Y-247600000D03*
D13*
X383520000Y-247600000D03*
%TD*%
D11*
%TO.C,SWSP_L04*%
X266985000Y-252679450D03*
D12*
X219525100Y-239344450D03*
X269525000Y-247599450D03*
D14*
X319524900Y-254584450D03*
D12*
X319524900Y-239344450D03*
D14*
X219525100Y-254584450D03*
D13*
X274605000Y-247599450D03*
D11*
X273335000Y-250139450D03*
D13*
X264445000Y-247599450D03*
%TD*%
%TO.C,SW06_04*%
X323970000Y-190450000D03*
D12*
X329050000Y-190450000D03*
D11*
X331590000Y-185370000D03*
D13*
X334130000Y-190450000D03*
D11*
X325240000Y-187910000D03*
%TD*%
%TO.C,SW02_03*%
X222040000Y-204420000D03*
D12*
X219500000Y-209500000D03*
D13*
X224580000Y-209500000D03*
X214420000Y-209500000D03*
D11*
X215690000Y-206960000D03*
%TD*%
D12*
%TO.C,SWLS_S01*%
X171900000Y-228550000D03*
D11*
X169360000Y-233630000D03*
D13*
X166820000Y-228550000D03*
D11*
X175710000Y-231090000D03*
D13*
X176980000Y-228550000D03*
%TD*%
D11*
%TO.C,SWSP_S04*%
X260965000Y-245060000D03*
X267315000Y-242520000D03*
D13*
X269855000Y-247600000D03*
D12*
X264775000Y-247600000D03*
D13*
X259695000Y-247600000D03*
%TD*%
%TO.C,SW00_04*%
X219220000Y-171400000D03*
D11*
X226840000Y-166320000D03*
D12*
X224300000Y-171400000D03*
D11*
X220490000Y-168860000D03*
D13*
X229380000Y-171400000D03*
%TD*%
D12*
%TO.C,SW01_04*%
X233800000Y-190450000D03*
D11*
X236340000Y-185370000D03*
D13*
X228720000Y-190450000D03*
D11*
X229990000Y-187910000D03*
D13*
X238880000Y-190450000D03*
%TD*%
%TO.C,SW06_02*%
X372255000Y-190450000D03*
X362095000Y-190450000D03*
D11*
X369715000Y-185370000D03*
D12*
X367175000Y-190450000D03*
D11*
X363365000Y-187910000D03*
%TD*%
%TO.C,SW09_03*%
X441140000Y-242520000D03*
D13*
X433520000Y-247600000D03*
X443680000Y-247600000D03*
D12*
X438600000Y-247600000D03*
D11*
X434790000Y-245060000D03*
%TD*%
D12*
%TO.C,STAB00*%
X390912000Y-201244450D03*
X414788000Y-201244450D03*
D14*
X414788000Y-216484450D03*
X390912000Y-216484450D03*
%TD*%
D12*
%TO.C,SW08_00*%
X414800000Y-228550000D03*
D11*
X418610000Y-231090000D03*
X412260000Y-233630000D03*
D13*
X409720000Y-228550000D03*
X419880000Y-228550000D03*
%TD*%
D11*
%TO.C,SWBS_S00*%
X393185000Y-176480000D03*
X399535000Y-173940000D03*
D13*
X390645000Y-171400000D03*
X400805000Y-171400000D03*
D12*
X395725000Y-171400000D03*
%TD*%
%TO.C,SW02_01*%
X181425000Y-209500000D03*
D11*
X177615000Y-206960000D03*
D13*
X186505000Y-209500000D03*
X176345000Y-209500000D03*
D11*
X183965000Y-204420000D03*
%TD*%
D13*
%TO.C,SW07_05*%
X319830000Y-209500000D03*
X309670000Y-209500000D03*
D11*
X317290000Y-204420000D03*
X310940000Y-206960000D03*
D12*
X314750000Y-209500000D03*
%TD*%
%TO.C,SW00_02*%
X186225000Y-171425000D03*
D13*
X181145000Y-171425000D03*
D11*
X182415000Y-168885000D03*
X188765000Y-166345000D03*
D13*
X191305000Y-171425000D03*
%TD*%
D11*
%TO.C,SW01_00*%
X149065000Y-187935000D03*
D12*
X152875000Y-190475000D03*
D13*
X157955000Y-190475000D03*
D11*
X155415000Y-185395000D03*
D13*
X147795000Y-190475000D03*
%TD*%
%TO.C,SW06_01*%
X391305000Y-190450000D03*
D11*
X388765000Y-185370000D03*
D12*
X386225000Y-190450000D03*
D11*
X382415000Y-187910000D03*
D13*
X381145000Y-190450000D03*
%TD*%
D11*
%TO.C,SW02_02*%
X203015000Y-204420000D03*
D13*
X205555000Y-209500000D03*
D11*
X196665000Y-206960000D03*
D12*
X200475000Y-209500000D03*
D13*
X195395000Y-209500000D03*
%TD*%
D11*
%TO.C,SW05_04*%
X315740000Y-168860000D03*
D12*
X319550000Y-171400000D03*
D13*
X314470000Y-171400000D03*
D11*
X322090000Y-166320000D03*
D13*
X324630000Y-171400000D03*
%TD*%
D15*
%TO.C,RE0*%
X460125000Y-221100000D03*
D16*
X455125000Y-221100000D03*
X457625000Y-221100000D03*
D17*
X463225000Y-228600000D03*
X452025000Y-228600000D03*
%TD*%
D12*
%TO.C,SW05_02*%
X357650000Y-171400000D03*
D13*
X352570000Y-171400000D03*
D11*
X360190000Y-166320000D03*
X353840000Y-168860000D03*
D13*
X362730000Y-171400000D03*
%TD*%
D11*
%TO.C,SW04_06*%
X337145000Y-245085000D03*
D13*
X335875000Y-247625000D03*
D12*
X340955000Y-247625000D03*
D11*
X343495000Y-242545000D03*
D13*
X346035000Y-247625000D03*
%TD*%
%TO.C,SW01_06*%
X276980000Y-190450000D03*
D11*
X274440000Y-185370000D03*
D12*
X271900000Y-190450000D03*
D11*
X268090000Y-187910000D03*
D13*
X266820000Y-190450000D03*
%TD*%
%TO.C,SW08_06*%
X281120000Y-228550000D03*
X291280000Y-228550000D03*
D11*
X282390000Y-226010000D03*
D12*
X286200000Y-228550000D03*
D11*
X288740000Y-223470000D03*
%TD*%
D14*
%TO.C,SWET_IS00*%
X419410000Y-188037000D03*
D12*
X404170000Y-188037000D03*
D13*
X412425000Y-194895000D03*
D12*
X404170000Y-211913000D03*
X412425000Y-199975000D03*
D13*
X412425000Y-205055000D03*
D11*
X409885000Y-203785000D03*
X407345000Y-197435000D03*
D14*
X419410000Y-211913000D03*
%TD*%
D13*
%TO.C,SW07_02*%
X376980000Y-209500000D03*
D11*
X368090000Y-206960000D03*
D13*
X366820000Y-209500000D03*
D11*
X374440000Y-204420000D03*
D12*
X371900000Y-209500000D03*
%TD*%
%TO.C,SW04_05*%
X314813000Y-239345000D03*
X290937000Y-239345000D03*
D13*
X307955000Y-247600000D03*
D14*
X314813000Y-254585000D03*
D12*
X302875000Y-247600000D03*
D14*
X290937000Y-254585000D03*
D11*
X305415000Y-242520000D03*
X299065000Y-245060000D03*
D13*
X297795000Y-247600000D03*
%TD*%
D11*
%TO.C,SW03_05*%
X250665000Y-223470000D03*
D12*
X248125000Y-228550000D03*
D13*
X253205000Y-228550000D03*
D11*
X244315000Y-226010000D03*
D13*
X243045000Y-228550000D03*
%TD*%
%TO.C,SW03_03*%
X204920000Y-228550000D03*
D11*
X206190000Y-226010000D03*
D13*
X215080000Y-228550000D03*
D11*
X212540000Y-223470000D03*
D12*
X210000000Y-228550000D03*
%TD*%
D13*
%TO.C,SW05_05*%
X295420000Y-171400000D03*
X305580000Y-171400000D03*
D11*
X296690000Y-168860000D03*
X303040000Y-166320000D03*
D12*
X300500000Y-171400000D03*
%TD*%
D11*
%TO.C,SW09_02*%
X460190000Y-242520000D03*
X453840000Y-245060000D03*
D12*
X457650000Y-247600000D03*
D13*
X462730000Y-247600000D03*
X452570000Y-247600000D03*
%TD*%
%TO.C,SW04_01*%
X169220000Y-247600000D03*
X179380000Y-247600000D03*
D12*
X174300000Y-247600000D03*
D11*
X176840000Y-242520000D03*
X170490000Y-245060000D03*
%TD*%
D12*
%TO.C,SW08_03*%
X343350000Y-228550000D03*
D13*
X348430000Y-228550000D03*
D11*
X339540000Y-226010000D03*
X345890000Y-223470000D03*
D13*
X338270000Y-228550000D03*
%TD*%
D11*
%TO.C,SW00_06*%
X258590000Y-168860000D03*
D13*
X267480000Y-171400000D03*
X257320000Y-171400000D03*
D11*
X264940000Y-166320000D03*
D12*
X262400000Y-171400000D03*
%TD*%
D13*
%TO.C,SW01_02*%
X200830000Y-190475000D03*
D11*
X191940000Y-187935000D03*
D13*
X190670000Y-190475000D03*
D12*
X195750000Y-190475000D03*
D11*
X198290000Y-185395000D03*
%TD*%
%TO.C,SWCL_N00*%
X159035000Y-212040000D03*
X152685000Y-214580000D03*
D13*
X160305000Y-209500000D03*
X150145000Y-209500000D03*
D12*
X155225000Y-209500000D03*
%TD*%
%TO.C,SW04_02*%
X198100000Y-247600000D03*
D13*
X203180000Y-247600000D03*
D11*
X200640000Y-242520000D03*
D13*
X193020000Y-247600000D03*
D11*
X194290000Y-245060000D03*
%TD*%
%TO.C,SW06_06*%
X287140000Y-187910000D03*
X293490000Y-185370000D03*
D12*
X290950000Y-190450000D03*
D13*
X285870000Y-190450000D03*
X296030000Y-190450000D03*
%TD*%
%TO.C,SW03_04*%
X234155000Y-228550000D03*
X223995000Y-228550000D03*
D12*
X229075000Y-228550000D03*
D11*
X225265000Y-226010000D03*
X231615000Y-223470000D03*
%TD*%
D13*
%TO.C,SW06_03*%
X353180000Y-190450000D03*
X343020000Y-190450000D03*
D12*
X348100000Y-190450000D03*
D11*
X350640000Y-185370000D03*
X344290000Y-187910000D03*
%TD*%
D12*
%TO.C,SW07_04*%
X333800000Y-209500000D03*
D11*
X336340000Y-204420000D03*
D13*
X338880000Y-209500000D03*
D11*
X329990000Y-206960000D03*
D13*
X328720000Y-209500000D03*
%TD*%
D12*
%TO.C,SW06_05*%
X310000000Y-190450000D03*
D13*
X304920000Y-190450000D03*
D11*
X312540000Y-185370000D03*
D13*
X315080000Y-190450000D03*
D11*
X306190000Y-187910000D03*
%TD*%
D13*
%TO.C,SW08_02*%
X367455000Y-228575000D03*
D11*
X358565000Y-226035000D03*
D13*
X357295000Y-228575000D03*
D12*
X362375000Y-228575000D03*
D11*
X364915000Y-223495000D03*
%TD*%
%TO.C,SW01_05*%
X255390000Y-185370000D03*
D13*
X247770000Y-190450000D03*
D12*
X252850000Y-190450000D03*
D11*
X249040000Y-187910000D03*
D13*
X257930000Y-190450000D03*
%TD*%
D11*
%TO.C,SW08_05*%
X301440000Y-226010000D03*
D12*
X305250000Y-228550000D03*
D13*
X300170000Y-228550000D03*
D11*
X307790000Y-223470000D03*
D13*
X310330000Y-228550000D03*
%TD*%
%TO.C,SWRS_S01*%
X393680000Y-228575000D03*
X383520000Y-228575000D03*
D11*
X392410000Y-231115000D03*
D12*
X388600000Y-228575000D03*
D11*
X386060000Y-233655000D03*
%TD*%
%TO.C,SW05_06*%
X283990000Y-166320000D03*
X277640000Y-168860000D03*
D13*
X286530000Y-171400000D03*
D12*
X281450000Y-171400000D03*
D13*
X276370000Y-171400000D03*
%TD*%
D12*
%TO.C,SW09_06*%
X364760000Y-247615000D03*
D11*
X367300000Y-242535000D03*
X360950000Y-245075000D03*
D13*
X359680000Y-247615000D03*
X369840000Y-247615000D03*
%TD*%
D12*
%TO.C,SW04_03*%
X231435000Y-247605000D03*
D14*
X243373000Y-254590000D03*
D13*
X226355000Y-247605000D03*
X236515000Y-247605000D03*
D14*
X219497000Y-254590000D03*
D12*
X219497000Y-239350000D03*
X243373000Y-239350000D03*
D11*
X227625000Y-245065000D03*
X233975000Y-242525000D03*
%TD*%
D12*
%TO.C,SW06_00*%
X410025000Y-190450000D03*
D13*
X410025000Y-195530000D03*
X410025000Y-185370000D03*
D11*
X412565000Y-186640000D03*
X415105000Y-192990000D03*
%TD*%
%TO.C,SW01_01*%
X172865000Y-187935000D03*
D13*
X181755000Y-190475000D03*
D11*
X179215000Y-185395000D03*
D13*
X171595000Y-190475000D03*
D12*
X176675000Y-190475000D03*
%TD*%
D11*
%TO.C,SW09_01*%
X441140000Y-223470000D03*
D12*
X438600000Y-228550000D03*
D13*
X443680000Y-228550000D03*
X433520000Y-228550000D03*
D11*
X434790000Y-226010000D03*
%TD*%
%TO.C,SW04_00*%
X146665000Y-245060000D03*
D13*
X145395000Y-247600000D03*
X155555000Y-247600000D03*
D12*
X150475000Y-247600000D03*
D11*
X153015000Y-242520000D03*
%TD*%
D13*
%TO.C,SW08_04*%
X329380000Y-228550000D03*
D11*
X326840000Y-223470000D03*
D12*
X324300000Y-228550000D03*
D13*
X319220000Y-228550000D03*
D11*
X320490000Y-226010000D03*
%TD*%
D12*
%TO.C,SW00_01*%
X167150000Y-171425000D03*
D11*
X169690000Y-166345000D03*
D13*
X172230000Y-171425000D03*
D11*
X163340000Y-168885000D03*
D13*
X162070000Y-171425000D03*
%TD*%
%TO.C,SW07_06*%
X300780000Y-209500000D03*
D11*
X291890000Y-206960000D03*
D12*
X295700000Y-209500000D03*
D13*
X290620000Y-209500000D03*
D11*
X298240000Y-204420000D03*
%TD*%
%TO.C,SWET_AN00*%
X397795000Y-206960000D03*
D13*
X402875000Y-214580000D03*
X402875000Y-204420000D03*
D12*
X402875000Y-209500000D03*
D11*
X400335000Y-213310000D03*
%TD*%
D12*
%TO.C,SW03_06*%
X267175000Y-228550000D03*
D11*
X269715000Y-223470000D03*
D13*
X262095000Y-228550000D03*
X272255000Y-228550000D03*
D11*
X263365000Y-226010000D03*
%TD*%
D13*
%TO.C,SWBS_L00*%
X410330000Y-171400550D03*
D12*
X417188000Y-179655550D03*
D11*
X401440000Y-168860550D03*
D13*
X400170000Y-171400550D03*
D14*
X393312000Y-164415550D03*
D12*
X405250000Y-171400550D03*
D14*
X417188000Y-164415550D03*
D11*
X407790000Y-166320550D03*
D12*
X393312000Y-179655550D03*
%TD*%
D11*
%TO.C,SWCL_S00*%
X153015000Y-204420000D03*
X146665000Y-206960000D03*
D13*
X155555000Y-209500000D03*
D12*
X150475000Y-209500000D03*
D13*
X145395000Y-209500000D03*
%TD*%
D12*
%TO.C,SW02_04*%
X238550000Y-209500000D03*
D11*
X241090000Y-204420000D03*
D13*
X233470000Y-209500000D03*
X243630000Y-209500000D03*
D11*
X234740000Y-206960000D03*
%TD*%
%TO.C,SW00_00*%
X150640000Y-166345000D03*
X144290000Y-168885000D03*
D12*
X148100000Y-171425000D03*
D13*
X153180000Y-171425000D03*
X143020000Y-171425000D03*
%TD*%
%TO.C,SW00_05*%
X248430000Y-171400000D03*
X238270000Y-171400000D03*
D11*
X245890000Y-166320000D03*
X239540000Y-168860000D03*
D12*
X243350000Y-171400000D03*
%TD*%
D11*
%TO.C,SW00_03*%
X207815000Y-166320000D03*
D13*
X210355000Y-171400000D03*
X200195000Y-171400000D03*
D11*
X201465000Y-168860000D03*
D12*
X205275000Y-171400000D03*
%TD*%
D18*
%TO.C,J0*%
X305740000Y-159625000D03*
X299960000Y-159625000D03*
D19*
X307170000Y-160155000D03*
D20*
X298530000Y-155975000D03*
X307170000Y-155975000D03*
D19*
X298530000Y-160155000D03*
%TD*%
D21*
%TO.C,U1*%
X441950000Y-201450000D03*
X441950000Y-199670000D03*
X441950000Y-197890000D03*
X441950000Y-196110000D03*
X441950000Y-194330000D03*
X441950000Y-192550000D03*
X441950000Y-190770000D03*
X441950000Y-188990000D03*
X452650000Y-188100000D03*
X452650000Y-189880000D03*
X452650000Y-191660000D03*
X452650000Y-193440000D03*
X452650000Y-195220000D03*
X452650000Y-197000000D03*
X452650000Y-198780000D03*
X452650000Y-200560000D03*
%TD*%
M02*
