%TF.GenerationSoftware,KiCad,Pcbnew,(6.0.5)*%
%TF.CreationDate,2023-05-27T18:30:22+09:00*%
%TF.ProjectId,dynamis,64796e61-6d69-4732-9e6b-696361645f70,v2.0.0*%
%TF.SameCoordinates,Original*%
%TF.FileFunction,Legend,Top*%
%TF.FilePolarity,Positive*%
%FSLAX46Y46*%
G04 Gerber Fmt 4.6, Leading zero omitted, Abs format (unit mm)*
G04 Created by KiCad (PCBNEW (6.0.5)) date 2023-05-27 18:30:22*
%MOMM*%
%LPD*%
G01*
G04 APERTURE LIST*
%ADD10C,0.150000*%
%ADD11C,0.120000*%
G04 APERTURE END LIST*
D10*
%TO.C,RE0*%
X465277380Y-224519047D02*
X464801190Y-224852380D01*
X465277380Y-225090476D02*
X464277380Y-225090476D01*
X464277380Y-224709523D01*
X464325000Y-224614285D01*
X464372619Y-224566666D01*
X464467857Y-224519047D01*
X464610714Y-224519047D01*
X464705952Y-224566666D01*
X464753571Y-224614285D01*
X464801190Y-224709523D01*
X464801190Y-225090476D01*
X464753571Y-224090476D02*
X464753571Y-223757142D01*
X465277380Y-223614285D02*
X465277380Y-224090476D01*
X464277380Y-224090476D01*
X464277380Y-223614285D01*
X464277380Y-222995238D02*
X464277380Y-222900000D01*
X464325000Y-222804761D01*
X464372619Y-222757142D01*
X464467857Y-222709523D01*
X464658333Y-222661904D01*
X464896428Y-222661904D01*
X465086904Y-222709523D01*
X465182142Y-222757142D01*
X465229761Y-222804761D01*
X465277380Y-222900000D01*
X465277380Y-222995238D01*
X465229761Y-223090476D01*
X465182142Y-223138095D01*
X465086904Y-223185714D01*
X464896428Y-223233333D01*
X464658333Y-223233333D01*
X464467857Y-223185714D01*
X464372619Y-223138095D01*
X464325000Y-223090476D01*
X464277380Y-222995238D01*
D11*
X457625000Y-228100000D02*
X457625000Y-229100000D01*
X463925000Y-235300000D02*
X451325000Y-235300000D01*
X451325000Y-235300000D02*
X451325000Y-230400000D01*
X461725000Y-221400000D02*
X461425000Y-221100000D01*
X463925000Y-226700000D02*
X463925000Y-221900000D01*
X463925000Y-230400000D02*
X463925000Y-235300000D01*
X461725000Y-220800000D02*
X461725000Y-221400000D01*
X463925000Y-221900000D02*
X461425000Y-221900000D01*
X458125000Y-228600000D02*
X457125000Y-228600000D01*
X451325000Y-226800000D02*
X451325000Y-221900000D01*
X461425000Y-221100000D02*
X461725000Y-220800000D01*
X451325000Y-221900000D02*
X454125000Y-221900000D01*
X460625000Y-228600000D02*
G75*
G03*
X460625000Y-228600000I-3000000J0D01*
G01*
%TD*%
M02*
