M48
; DRILL file {KiCad (6.0.5)} date Sun Jun 26 21:14:42 2022
; FORMAT={-:-/ absolute / inch / decimal}
; #@! TF.CreationDate,2022-06-26T21:14:42+09:00
; #@! TF.GenerationSoftware,Kicad,Pcbnew,(6.0.5)
; #@! TF.FileFunction,Plated,1,2,PTH
FMAT,2
INCH
; #@! TA.AperFunction,Plated,PTH,ViaDrill
T1C0.0157
; #@! TA.AperFunction,Plated,PTH,ComponentDrill
T2C0.0236
; #@! TA.AperFunction,Plated,PTH,ComponentDrill
T3C0.0276
; #@! TA.AperFunction,Plated,PTH,ComponentDrill
T4C0.0394
; #@! TA.AperFunction,Plated,PTH,ComponentDrill
T5C0.0787
%
G90
G05
T1
X5.1703Y-8.0974
X5.2963Y-8.0974
X5.3255Y-8.1485
X5.3376Y-8.3671
X5.3514Y-8.3248
X5.5502Y-8.4734
X5.739Y-7.7246
X6.003Y-6.312
X6.1033Y-8.4665
X6.1211Y-8.6939
X6.1477Y-7.9488
X6.1703Y-8.5591
X6.19Y-7.061
X6.2047Y-7.9488
X6.2854Y-7.751
X6.2864Y-8.5591
X6.3593Y-7.8091
X6.5335Y-5.6742
X6.5817Y-5.6742
X6.6004Y-9.4154
X6.6014Y-9.4665
X6.6445Y-9.3771
X6.7471Y-5.6683
X6.753Y-6.3091
X6.7904Y-5.5719
X6.7933Y-5.6319
X6.8406Y-9.3455
X6.876Y-9.3701
X7.0522Y-7.061
X7.061Y-8.6959
X7.3159Y-7.8091
X7.502Y-6.3091
X7.6909Y-8.5591
X7.877Y-7.0591
X7.9961Y-8.6939
X8.065Y-7.8091
X8.253Y-6.3091
X8.4409Y-8.56
X8.626Y-7.0591
X8.8159Y-7.8091
X8.8278Y-8.56
X9.002Y-6.3091
X9.3071Y-8.6949
X9.378Y-7.0591
X9.5659Y-7.8091
X9.751Y-6.3091
X9.7726Y-8.6949
X9.94Y-8.3603
X9.94Y-8.4291
X9.94Y-8.56
X9.9508Y-8.8258
X9.9547Y-5.6673
X10.0069Y-5.6742
X10.0079Y-9.4154
X10.0079Y-9.5413
X10.061Y-9.4154
X10.127Y-7.0591
X10.1526Y-7.8091
X10.1536Y-5.6742
X10.1998Y-5.5896
X10.1998Y-5.6329
X10.2431Y-9.377
X10.2648Y-9.4104
X10.2884Y-8.9114
X10.5024Y-6.3091
X10.6865Y-6.2505
X10.69Y-8.3583
X10.69Y-8.4301
X10.69Y-8.56
X10.8386Y-8.4173
X10.8455Y-8.3603
X10.877Y-7.0591
X11.0659Y-7.81
X11.253Y-6.31
X11.438Y-8.2795
X11.4398Y-8.4291
X11.44Y-8.5591
X11.5413Y-7.8091
X11.628Y-7.06
X11.9557Y-9.2096
X12.002Y-6.31
X12.0433Y-9.1526
X12.0856Y-9.1132
X12.1201Y-8.6949
X12.1329Y-9.1575
X12.1909Y-8.56
X12.1939Y-6.1821
X12.375Y-7.062
X12.4833Y-7.9626
X12.565Y-7.8091
X12.753Y-6.31
X12.9114Y-8.3504
X12.9134Y-8.4301
X12.9134Y-8.56
X12.9665Y-8.6969
X13.0413Y-7.8091
X13.127Y-7.062
X13.1361Y-8.4141
X13.3041Y-5.6742
X13.3524Y-5.6742
X13.3593Y-9.4144
X13.3593Y-9.5404
X13.4085Y-9.3789
X13.4281Y-5.6496
X13.4606Y-9.186
X13.501Y-6.31
X13.5561Y-5.6319
X13.5935Y-9.0984
X13.6034Y-9.3578
X13.6329Y-9.3839
X13.689Y-8.56
X13.878Y-7.06
X13.9183Y-8.7707
X13.9852Y-8.6978
X14.0659Y-7.8091
X14.252Y-6.31
X14.4409Y-8.56
X14.4862Y-9.186
X14.4892Y-9.129
X14.5335Y-9.1939
X14.627Y-7.06
X14.8159Y-7.8091
X14.8248Y-7.9656
X15.0039Y-6.31
X15.1216Y-8.061
X15.142Y-5.7363
X15.1919Y-8.061
X15.375Y-7.06
X15.376Y-7.8091
X15.3862Y-8.8244
X15.4154Y-8.9529
X15.4695Y-9.1959
X15.6339Y-8.3445
X15.6791Y-7.06
X15.686Y-8.4291
X15.686Y-8.5591
X15.8189Y-6.8858
X15.8376Y-6.3081
X15.8455Y-8.4902
X15.8455Y-8.5591
X15.9567Y-6.4636
X15.9577Y-7.5925
X16.0325Y-7.8091
X16.0335Y-7.6791
X16.0425Y-5.8236
X16.0787Y-5.9429
X16.2943Y-6.8504
X16.3081Y-7.435
X16.31Y-7.7904
X16.4321Y-6.2254
X16.495Y-6.5177
X16.6004Y-7.2736
X16.6044Y-6.4774
X16.685Y-6.5492
X16.687Y-7.4055
X16.6875Y-7.4936
X16.689Y-9.1959
X16.7057Y-5.6476
X16.7382Y-5.7343
X16.7421Y-5.8701
X16.748Y-6.6348
X16.7657Y-9.4144
X16.7657Y-9.5404
X16.7805Y-9.3711
X16.8455Y-8.7352
X16.9656Y-7.4124
X17.0167Y-9.3504
X17.0531Y-9.3671
X17.0679Y-7.5197
X17.0886Y-5.8022
X17.0896Y-5.8701
X17.1181Y-6.1171
X17.1344Y-7.5472
X17.1428Y-6.2157
X17.1704Y-6.1869
X17.1777Y-7.6312
X17.1831Y-6.0935
X17.2146Y-5.9783
X17.2175Y-5.9341
X17.2196Y-7.4985
X17.2431Y-7.097
X17.2657Y-6.4616
X17.2766Y-7.6929
X17.2894Y-7.3858
X17.3091Y-6.311
X17.31Y-7.5605
X17.3238Y-6.0325
X17.3337Y-7.7598
X17.3632Y-7.589
X17.3687Y-6.1472
X17.4094Y-5.9272
X17.4232Y-6.3445
X17.4399Y-5.879
X17.44Y-8.4291
X17.44Y-9.1969
X17.4695Y-5.9419
X17.4803Y-5.7106
X17.4832Y-7.601
X17.4833Y-7.6929
X17.4833Y-5.7539
X17.5384Y-5.8868
X17.565Y-6.3479
X17.5738Y-7.7598
X17.5768Y-7.5724
X17.628Y-5.9183
X17.6762Y-7.5605
X17.6768Y-6.0212
X17.6814Y-6.0603
X17.689Y-7.6929
X17.6949Y-7.4695
X17.7402Y-6.2569
X17.7534Y-7.1953
X17.7539Y-7.5724
X17.7549Y-6.6644
X17.7549Y-6.7067
X17.7598Y-7.7598
X17.7824Y-7.5098
X17.7835Y-6.2569
X17.8051Y-7.3189
X17.8187Y-7.2607
X17.8248Y-6.2569
X17.8297Y-7.6555
X17.8534Y-6.7894
X17.8642Y-6.2569
X17.877Y-6.061
X17.8848Y-5.7398
X17.8947Y-7.6929
X17.8952Y-7.5674
X17.9026Y-6.8366
X17.9114Y-6.7569
X17.9225Y-5.764
X17.9232Y-6.2874
X17.9322Y-5.9784
X17.9617Y-6.9749
X17.9617Y-7.4966
X17.9626Y-5.8901
X17.971Y-7.7598
X17.9902Y-7.5768
X18.0187Y-7.8041
X18.0472Y-7.8996
X18.0787Y-5.748
X18.1152Y-9.1969
X18.2657Y-8.2953
X18.2667Y-8.1959
X18.312Y-8.1417
T3
X17.2864Y-6.7181
X17.2864Y-6.7882
X17.2864Y-6.8583
X17.2864Y-6.9283
X17.2864Y-6.9984
X17.2864Y-7.0685
X17.2864Y-7.1386
X17.2864Y-7.2087
X17.7077Y-6.6831
X17.7077Y-6.7531
X17.7077Y-6.8232
X17.7077Y-6.8933
X17.7077Y-6.9634
X17.7077Y-7.0335
X17.7077Y-7.1035
X17.7077Y-7.1736
T4
X17.7774Y-7.9814
X17.8758Y-7.9814
X17.9742Y-7.9814
T2
G00X17.8112Y-5.476
M15
G01X17.8112Y-5.4996
M16
G05
G00X17.8112Y-5.6307
M15
G01X17.8112Y-5.674
M16
G05
G00X18.1514Y-5.476
M15
G01X18.1514Y-5.4996
M16
G05
G00X18.1514Y-5.6307
M15
G01X18.1514Y-5.674
M16
G05
T5
G00X17.6553Y-8.2668
M15
G01X17.6553Y-8.2865
M16
G05
G00X18.0963Y-8.2668
M15
G01X18.0963Y-8.2865
M16
G05
T0
M30
