%TF.GenerationSoftware,KiCad,Pcbnew,(6.0.5)*%
%TF.CreationDate,2022-06-26T21:12:03+09:00*%
%TF.ProjectId,sandwitch,73616e64-7769-4746-9368-2e6b69636164,rev?*%
%TF.SameCoordinates,Original*%
%TF.FileFunction,Soldermask,Bot*%
%TF.FilePolarity,Negative*%
%FSLAX46Y46*%
G04 Gerber Fmt 4.6, Leading zero omitted, Abs format (unit mm)*
G04 Created by KiCad (PCBNEW (6.0.5)) date 2022-06-26 21:12:03*
%MOMM*%
%LPD*%
G01*
G04 APERTURE LIST*
G04 APERTURE END LIST*
%TO.C,LOGO01*%
G36*
X451465240Y-178098352D02*
G01*
X450878007Y-178954786D01*
X450395300Y-179626020D01*
X450054977Y-180059480D01*
X449894893Y-180202593D01*
X449747630Y-180039252D01*
X449413517Y-179585733D01*
X448933671Y-178897569D01*
X448346384Y-178029733D01*
X447689949Y-177037196D01*
X447589425Y-176883565D01*
X450120565Y-176883565D01*
X450188976Y-176923361D01*
X450556824Y-176974257D01*
X451136565Y-176994164D01*
X452152565Y-176994164D01*
X452152565Y-174088757D01*
X451136565Y-175430862D01*
X450976084Y-175644241D01*
X450539501Y-176240821D01*
X450234976Y-176681600D01*
X450120565Y-176883565D01*
X447589425Y-176883565D01*
X445667422Y-173946164D01*
X449917365Y-173946164D01*
X450933365Y-173946164D01*
X451298991Y-173937834D01*
X451766506Y-173893057D01*
X451949365Y-173822489D01*
X451877513Y-173680488D01*
X451623555Y-173292283D01*
X451252049Y-172759462D01*
X450832455Y-172177994D01*
X450434237Y-171643843D01*
X450126856Y-171252978D01*
X449979775Y-171101364D01*
X449977302Y-171102474D01*
X449947011Y-171314570D01*
X449925529Y-171822605D01*
X449917365Y-172523764D01*
X449917365Y-173946164D01*
X445667422Y-173946164D01*
X445657257Y-173930629D01*
X446618911Y-172481475D01*
X447580565Y-171032322D01*
X447682165Y-172406124D01*
X447783765Y-173779925D01*
X448748965Y-172462719D01*
X448878921Y-172284245D01*
X449304351Y-171682108D01*
X449602063Y-171232498D01*
X449714165Y-171021838D01*
X449646952Y-170977624D01*
X449280759Y-170920511D01*
X448702436Y-170898163D01*
X447690707Y-170898163D01*
X448753236Y-169222786D01*
X449815765Y-167547408D01*
X449874783Y-169222786D01*
X449933801Y-170898163D01*
X451093983Y-170897691D01*
X452254165Y-170897218D01*
X452187702Y-172410528D01*
X452125690Y-173822489D01*
X452121239Y-173923839D01*
X453116721Y-173985801D01*
X454112203Y-174047764D01*
X454085517Y-174088757D01*
X452089674Y-177154593D01*
X451465240Y-178098352D01*
G37*
%TD*%
M02*
