<?xml version="1.0" encoding="UTF-8" standalone="no"?>
<svg
   version="1.1"
   width="343.013mm"
   height="109.67699mm"
   viewBox="0 0 3.43013e+08 1.0967699e+08"
   id="svg5726"
   sodipodi:docname="plate-foam.svg"
   inkscape:version="1.2.2 (732a01da63, 2022-12-09)"
   inkscape:export-filename="..\case\plate-foam.svg"
   inkscape:export-xdpi="96"
   inkscape:export-ydpi="96"
   xmlns:inkscape="http://www.inkscape.org/namespaces/inkscape"
   xmlns:sodipodi="http://sodipodi.sourceforge.net/DTD/sodipodi-0.dtd"
   xmlns="http://www.w3.org/2000/svg"
   xmlns:svg="http://www.w3.org/2000/svg"
   xmlns:rdf="http://www.w3.org/1999/02/22-rdf-syntax-ns#"
   xmlns:cc="http://creativecommons.org/ns#"
   xmlns:dc="http://purl.org/dc/elements/1.1/">
  <defs
     id="defs5730">
    <inkscape:path-effect
       effect="fillet_chamfer"
       id="path-effect417"
       is_visible="true"
       lpeversion="1"
       nodesatellites_param="F,0,0,1,0,0,0,1 @ F,0,0,1,0,0,0,1 @ F,0,0,1,0,0,0,1 @ F,0,0,1,0,0,0,1 @ F,0,0,1,0,0,0,1 @ F,0,0,1,0,0,0,1 @ F,0,0,1,0,0,0,1 @ F,0,0,1,0,0,0,1 @ F,0,0,1,0,0,0,1 @ F,0,0,1,0,0,0,1 @ F,0,0,1,0,0,0,1 @ F,0,0,1,0,0,0,1 @ F,0,0,1,0,0,0,1 @ F,0,0,1,0,0,0,1 @ F,0,0,1,0,0,0,1 @ F,0,0,1,0,0,0,1 @ F,0,0,1,0,0,0,1 @ F,0,0,1,0,0,0,1 @ F,0,0,1,0,0,0,1 @ F,0,0,1,0,0,0,1 | F,0,0,1,0,0,0,1 @ F,0,0,1,0,0,0,1 @ F,0,0,1,0,0,0,1 @ F,0,0,1,0,0,0,1 | F,0,0,1,0,0,0,1 @ F,0,0,1,0,0,0,1 @ F,0,0,1,0,0,0,1 @ F,0,0,1,0,0,0,1 | F,0,0,1,0,0,0,1 @ F,0,0,1,0,0,0,1 @ F,0,0,1,0,0,0,1 @ F,0,0,1,0,0,0,1 | F,0,0,1,0,0,0,1 @ F,0,0,1,0,0,0,1 @ F,0,0,1,0,0,0,1 @ F,0,0,1,0,0,0,1 | F,0,0,1,0,0,0,1 @ F,0,0,1,0,0,0,1 @ F,0,0,1,0,0,0,1 @ F,0,0,1,0,0,0,1 | F,0,0,1,0,0,0,1 @ F,0,0,1,0,0,0,1 @ F,0,0,1,0,0,0,1 @ F,0,0,1,0,0,0,1 | F,0,0,1,0,0,0,1 @ F,0,0,1,0,0,0,1 @ F,0,0,1,0,0,0,1 @ F,0,0,1,0,0,0,1 | F,0,0,1,0,0,0,1 @ F,0,0,1,0,0,0,1 @ F,0,0,1,0,0,0,1 @ F,0,0,1,0,0,0,1 | F,0,0,1,0,0,0,1 @ F,0,0,1,0,0,0,1 @ F,0,0,1,0,0,0,1 @ F,0,0,1,0,0,0,1 | F,0,0,1,0,0,0,1 @ F,0,0,1,0,0,0,1 @ F,0,0,1,0,0,0,1 @ F,0,0,1,0,0,0,1 | F,0,0,1,0,0,0,1 @ F,0,0,1,0,0,0,1 @ F,0,0,1,0,0,0,1 @ F,0,0,1,0,0,0,1 | F,0,0,1,0,0,0,1 @ F,0,0,1,0,0,0,1 @ F,0,0,1,0,0,0,1 @ F,0,0,1,0,0,0,1 | F,0,0,1,0,0,0,1 @ F,0,0,1,0,0,0,1 @ F,0,0,1,0,0,0,1 @ F,0,0,1,0,0,0,1 | F,0,0,1,0,0,0,1 @ F,0,0,1,0,0,0,1 @ F,0,0,1,0,0,0,1 @ F,0,0,1,0,0,0,1 | F,0,0,1,0,0,0,1 @ F,0,0,1,0,0,0,1 @ F,0,0,1,0,0,0,1 @ F,0,0,1,0,0,0,1 | F,0,0,1,0,0,0,1 @ F,0,0,1,0,0,0,1 @ F,0,0,1,0,0,0,1 @ F,0,0,1,0,0,0,1 | F,0,0,1,0,0,0,1 @ F,0,0,1,0,0,0,1 @ F,0,0,1,0,0,0,1 @ F,0,0,1,0,0,0,1 | F,0,0,1,0,0,0,1 @ F,0,0,1,0,0,0,1 @ F,0,0,1,0,0,0,1 @ F,0,0,1,0,0,0,1 | F,0,0,1,0,0,0,1 @ F,0,0,1,0,0,0,1 @ F,0,0,1,0,0,0,1 @ F,0,0,1,0,0,0,1 | F,0,0,1,0,0,0,1 @ F,0,0,1,0,0,0,1 @ F,0,0,1,0,0,0,1 @ F,0,0,1,0,0,0,1 | F,0,0,1,0,0,0,1 @ F,0,0,1,0,0,0,1 @ F,0,0,1,0,0,0,1 @ F,0,0,1,0,0,0,1 | F,0,0,1,0,0,0,1 @ F,0,0,1,0,0,0,1 @ F,0,0,1,0,0,0,1 @ F,0,0,1,0,0,0,1 | F,0,0,1,0,0,0,1 @ F,0,0,1,0,0,0,1 @ F,0,0,1,0,0,0,1 @ F,0,0,1,0,0,0,1 | F,0,0,1,0,0,0,1 @ F,0,0,1,0,0,0,1 @ F,0,0,1,0,0,0,1 @ F,0,0,1,0,0,0,1 | F,0,0,1,0,0,0,1 @ F,0,0,1,0,0,0,1 @ F,0,0,1,0,0,0,1 @ F,0,0,1,0,0,0,1 | F,0,0,1,0,0,0,1 @ F,0,0,1,0,0,0,1 @ F,0,0,1,0,0,0,1 @ F,0,0,1,0,0,0,1 | F,0,0,1,0,0,0,1 @ F,0,0,1,0,0,0,1 @ F,0,0,1,0,0,0,1 @ F,0,0,1,0,0,0,1 | F,0,0,1,0,0,0,1 @ F,0,0,1,0,0,0,1 @ F,0,0,1,0,0,0,1 @ F,0,0,1,0,0,0,1 | F,0,0,1,0,0,0,1 @ F,0,0,1,0,0,0,1 @ F,0,0,1,0,0,0,1 @ F,0,0,1,0,0,0,1 | F,0,0,1,0,0,0,1 @ F,0,0,1,0,0,0,1 @ F,0,0,1,0,0,0,1 @ F,0,0,1,0,0,0,1 | F,0,0,1,0,0,0,1 @ F,0,0,1,0,0,0,1 @ F,0,0,1,0,0,0,1 @ F,0,0,1,0,0,0,1 | F,0,0,1,0,0,0,1 @ F,0,0,1,0,0,0,1 @ F,0,0,1,0,0,0,1 @ F,0,0,1,0,0,0,1 | F,0,0,1,0,0,0,1 @ F,0,0,1,0,0,0,1 @ F,0,0,1,0,0,0,1 @ F,0,0,1,0,0,0,1 | F,0,0,1,0,0,0,1 @ F,0,0,1,0,0,0,1 @ F,0,0,1,0,0,0,1 @ F,0,0,1,0,0,0,1 | F,0,0,1,0,0,0,1 @ F,0,0,1,0,0,0,1 @ F,0,0,1,0,0,0,1 @ F,0,0,1,0,0,0,1 | F,0,0,1,0,0,0,1 @ F,0,0,1,0,0,0,1 @ F,0,0,1,0,0,0,1 @ F,0,0,1,0,0,0,1 | F,0,0,1,0,0,0,1 @ F,0,0,1,0,0,0,1 @ F,0,0,1,0,0,0,1 @ F,0,0,1,0,0,0,1 | F,0,0,1,0,0,0,1 @ F,0,0,1,0,0,0,1 @ F,0,0,1,0,0,0,1 @ F,0,0,1,0,0,0,1 | F,0,0,1,0,0,0,1 @ F,0,0,1,0,0,0,1 @ F,0,0,1,0,0,0,1 @ F,0,0,1,0,0,0,1 | F,0,0,1,0,0,0,1 @ F,0,0,1,0,0,0,1 @ F,0,0,1,0,0,0,1 @ F,0,0,1,0,0,0,1 | F,0,0,1,0,0,0,1 @ F,0,0,1,0,0,0,1 @ F,0,0,1,0,0,0,1 @ F,0,0,1,0,0,0,1 | F,0,0,1,0,0,0,1 @ F,0,0,1,0,0,0,1 @ F,0,0,1,0,0,0,1 @ F,0,0,1,0,0,0,1 | F,0,0,1,0,0,0,1 @ F,0,0,1,0,0,0,1 @ F,0,0,1,0,0,0,1 @ F,0,0,1,0,0,0,1 | F,0,0,1,0,0,0,1 @ F,0,0,1,0,0,0,1 @ F,0,0,1,0,0,0,1 @ F,0,0,1,0,0,0,1 | F,0,0,1,0,0,0,1 @ F,0,0,1,0,0,0,1 @ F,0,0,1,0,0,0,1 @ F,0,0,1,0,0,0,1 | F,0,0,1,0,0,0,1 @ F,0,0,1,0,0,0,1 @ F,0,0,1,0,0,0,1 @ F,0,0,1,0,0,0,1 | F,0,0,1,0,0,0,1 @ F,0,0,1,0,0,0,1 @ F,0,0,1,0,0,0,1 @ F,0,0,1,0,0,0,1 | F,0,0,1,0,0,0,1 @ F,0,0,1,0,0,0,1 @ F,0,0,1,0,0,0,1 @ F,0,0,1,0,0,0,1 @ F,0,0,1,0,0,0,1 @ F,0,0,1,0,0,0,1 @ F,0,0,1,0,0,0,1 @ F,0,0,1,0,0,0,1 @ F,0,0,1,0,0,0,1 @ F,0,0,1,0,0,0,1 @ F,0,0,1,0,0,0,1 @ F,0,0,1,0,0,0,1 @ F,0,0,1,0,0,0,1 @ F,0,0,1,0,0,0,1 @ F,0,0,1,0,0,0,1 @ F,0,0,1,0,0,0,1 @ F,0,0,1,0,0,0,1 @ F,0,0,1,0,0,0,1 @ F,0,0,1,0,0,0,1 @ F,0,0,1,0,661458.33,0,1 @ F,0,0,1,0,661458.33,0,1 @ F,0,0,1,0,0,0,1 @ F,0,0,1,0,0,0,1 @ F,0,0,1,0,0,0,1 @ F,0,0,1,0,0,0,1 @ F,0,0,1,0,0,0,1 @ F,0,0,1,0,0,0,1 @ F,0,0,1,0,0,0,1 @ F,0,0,1,0,0,0,1 @ F,0,0,1,0,0,0,1 @ F,0,0,1,0,0,0,1 @ F,0,0,1,0,0,0,1 @ F,0,0,1,0,0,0,1 @ F,0,0,1,0,0,0,1 @ F,0,0,1,0,0,0,1 @ F,0,0,1,0,0,0,1 @ F,0,0,1,0,0,0,1 @ F,0,0,1,0,0,0,1 @ F,0,0,1,0,0,0,1 @ F,0,0,1,0,0,0,1 @ F,0,0,1,0,0,0,1 @ F,0,0,1,0,0,0,1 @ F,0,0,1,0,0,0,1 @ F,0,0,1,0,0,0,1 @ F,0,0,1,0,0,0,1 @ F,0,0,1,0,0,0,1 @ F,0,0,1,0,0,0,1 @ F,0,0,1,0,0,0,1 @ F,0,0,1,0,0,0,1 @ F,0,0,1,0,0,0,1 @ F,0,0,1,0,0,0,1 @ F,0,0,1,0,0,0,1 @ F,0,0,1,0,0,0,1 @ F,0,1,1,0,661458.33,0,1 @ F,0,0,1,0,0,0,1 @ F,0,0,1,0,0,0,1 @ F,0,0,1,0,0,0,1 @ F,0,0,1,0,0,0,1 @ F,0,0,1,0,661458.33,0,1 @ F,0,0,1,0,0,0,1 @ F,0,0,1,0,0,0,1 @ F,0,0,1,0,0,0,1 @ F,0,0,1,0,0,0,1 @ F,0,0,1,0,0,0,1 @ F,0,0,1,0,0,0,1 @ F,0,0,1,0,0,0,1 @ F,0,0,1,0,0,0,1 @ F,0,0,1,0,0,0,1 @ F,0,0,1,0,0,0,1 @ F,0,0,1,0,0,0,1 @ F,0,0,1,0,0,0,1 @ F,0,0,1,0,0,0,1 @ F,0,0,1,0,0,0,1 @ F,0,0,1,0,0,0,1 @ F,0,0,1,0,0,0,1 @ F,0,0,1,0,0,0,1 @ F,0,0,1,0,0,0,1 @ F,0,0,1,0,0,0,1 @ F,0,0,1,0,0,0,1 @ F,0,0,1,0,0,0,1 @ F,0,0,1,0,0,0,1 @ F,0,0,1,0,0,0,1 @ F,0,0,1,0,0,0,1 @ F,0,0,1,0,0,0,1 @ F,0,0,1,0,0,0,1 @ F,0,0,1,0,0,0,1"
       unit="px"
       method="auto"
       mode="F"
       radius="1000000"
       chamfer_steps="1"
       flexible="false"
       use_knot_distance="true"
       apply_no_radius="true"
       apply_with_radius="true"
       only_selected="true"
       hide_knots="false" />
  </defs>
  <sodipodi:namedview
     id="namedview5728"
     pagecolor="#ffffff"
     bordercolor="#000000"
     borderopacity="0.25"
     inkscape:showpageshadow="2"
     inkscape:pageopacity="0.0"
     inkscape:pagecheckerboard="0"
     inkscape:deskcolor="#d1d1d1"
     inkscape:document-units="cm"
     showgrid="false"
     inkscape:zoom="16"
     inkscape:cx="1076.5"
     inkscape:cy="120.875"
     inkscape:window-width="1920"
     inkscape:window-height="1009"
     inkscape:window-x="1912"
     inkscape:window-y="-8"
     inkscape:window-maximized="1"
     inkscape:current-layer="g414" />
  <title
     id="title2">SVG Picture created as dynamis-brd.svg date 2023/05/20 02:17:22 </title>
  <desc
     id="desc4">Picture generated by PCBNEW </desc>
  <g
     inkscape:groupmode="layer"
     id="g414"
     inkscape:label="plate-foam"
     style="display:inline"
     transform="translate(-146669820,-214695440)">
    <g
       id="g29824" />
    <g
       id="g29792" />
    <path
       id="path2856-8-46-9"
       style="display:inline;fill:none;stroke:#000000;stroke-width:99974.6;stroke-opacity:1"
       d="m 489602510,274925420 c -18530,-93160 -46170,-184270 -82510,-272020 -72870,-175920 -179680,-335770 -314330,-470420 -67160,-67160 -140750,-127560 -219730,-180330 -78970,-52760 -162930,-97650 -250680,-133990 -87750,-36350 -178860,-63990 -272020,-82520 -93150,-18530 -187900,-27860 -282880,-27860 l -349120,-10 c 0,0 -552920,-27200 -824400,-81200 -271480,-54000 -537000,-134540 -792720,-240470 -255730,-105920 -500430,-236720 -730580,-390500 -230150,-153780 -444630,-329800 -640360,-525520 -195720,-195730 -371740,-410210 -525520,-640360 -153780,-230150 -284580,-474850 -390500,-730580 -105930,-255720 -186470,-521240 -240470,-792720 -54000,-271480 -81200,-547600 -81320,-820540 -120,-272940 27080,-549060 81080,-820540 54000,-271480 134540,-537000 240470,-792720 105920,-255730 236720,-500430 390500,-730580 153780,-230150 329800,-444630 525520,-640360 195730,-195720 410210,-371740 640360,-525520 230150,-153780 474850,-284580 730580,-390500 255720,-105930 521240,-186470 792720,-240470 271480,-54000 824400,-81200 824400,-81200 l 349120,-10 c 94980,0 189730,-9330 282880,-27860 93160,-18530 184270,-46170 272020,-82520 87750,-36340 171710,-81230 250680,-133990 78980,-52770 152570,-113170 219730,-180330 134650,-134650 241460,-294500 314330,-470420 36340,-87750 63980,-178860 82510,-272020 18530,-93150 27860,-187900 27860,-282880 l 2210,-44656490 c 0,-292240 -28710,-583780 -85730,-870400 -57010,-286630 -142050,-566960 -253880,-836950 -111840,-270000 -249930,-528350 -412290,-771340 -162360,-242990 -348200,-469440 -554850,-676090 -206650,-206650 -433100,-392490 -676080,-554850 -242990,-162360 -501350,-300450 -771350,-412290 -269990,-111830 -550320,-196870 -836950,-253880 -286620,-57020 -578160,-85730 -870400,-85730 l -6708830,-240 c -94980,0 -189730,9330 -282880,27860 -93160,18530 -184270,46170 -272020,82510 -175920,72870 -335770,179680 -470420,314330 -67160,67160 -127560,140750 -180330,219730 -52760,78970 -97650,162930 -133990,250680 -36350,87750 -63990,178860 -82520,272020 -18530,93150 -27860,187900 -27860,282880 l -10,349120 c 0,0 -27200,552920 -81200,824400 -54000,271480 -134540,537000 -240470,792720 -105920,255730 -236720,500430 -390500,730580 -153780,230150 -329800,444630 -525520,640360 -195730,195720 -410210,371740 -640360,525520 -230150,153780 -474850,284580 -730580,390500 -255720,105930 -521240,186470 -792720,240470 -271480,54000 -547600,81200 -820540,81320 -272940,120 -549060,-27080 -820540,-81080 -271480,-54000 -537000,-134540 -792720,-240470 -255730,-105920 -500430,-236720 -730580,-390500 -230150,-153780 -444630,-329800 -640360,-525520 -195720,-195730 -371740,-410210 -525520,-640360 -153780,-230150 -284580,-474850 -390500,-730580 -105930,-255720 -186470,-521240 -240470,-792720 -54000,-271480 -81200,-824400 -81200,-824400 l -10,-349120 c 0,-94980 -9330,-189730 -27860,-282880 -18530,-93160 -46170,-184270 -82520,-272020 -36340,-87750 -81230,-171710 -133990,-250680 -52770,-78980 -113170,-152570 -180330,-219730 -134650,-134650 -294500,-241460 -470420,-314330 -87750,-36340 -178860,-63980 -272020,-82510 -93150,-18530 -187900,-27860 -282880,-27860 l -92660090,-350 c -94980,0 -189730,9330 -282880,27860 -93160,18530 -184270,46170 -272020,82510 -175920,72870 -335770,179680 -470420,314330 -67160,67160 -127560,140750 -180330,219730 -52760,78970 -97650,162930 -133990,250680 -36350,87750 -63990,178860 -82520,272020 -18530,93150 -27860,187900 -27860,282880 l -10,349120 c 0,0 -27200,552920 -81200,824400 -54000,271480 -134540,537000 -240470,792720 -105920,255730 -236720,500430 -390500,730580 -153780,230150 -329800,444630 -525520,640360 -195730,195720 -410210,371740 -640360,525520 -230150,153780 -474850,284580 -730580,390500 -255720,105930 -521240,186470 -792720,240470 -271480,54000 -547600,81200 -820540,81320 -272940,120 -549060,-27080 -820540,-81080 -271480,-54000 -537000,-134540 -792720,-240470 -255730,-105920 -500430,-236720 -730580,-390500 -230150,-153780 -444630,-329800 -640360,-525520 -195720,-195730 -371740,-410210 -525520,-640360 -153780,-230150 -284580,-474850 -390500,-730580 -105930,-255720 -186470,-521240 -240470,-792720 -54000,-271480 -81200,-824400 -81200,-824400 l -10,-349120 c 0,-94980 -9330,-189730 -27860,-282880 -18530,-93160 -46170,-184270 -82520,-272020 -36340,-87750 -81230,-171710 -133990,-250680 -52770,-78980 -113170,-152570 -180330,-219730 -134650,-134650 -294500,-241460 -470420,-314330 -87750,-36340 -178860,-63980 -272020,-82510 -93150,-18530 -187900,-27860 -282880,-27860 l -90288520,-250 c -94980,0 -189730,9330 -282880,27860 -93160,18530 -184270,46170 -272020,82510 -175920,72870 -335770,179680 -470420,314330 -67160,67160 -127560,140750 -180330,219730 -52760,78970 -97650,162930 -133990,250680 -36350,87750 -63990,178860 -82520,272020 -18530,93150 -27860,187900 -27860,282880 l -10,349120 c 0,0 -27200,552920 -81200,824400 -54000,271480 -134540,537000 -240470,792720 -105920,255730 -236720,500430 -390500,730580 -153780,230150 -329800,444630 -525520,640360 -195730,195720 -410210,371740 -640360,525520 -230150,153780 -474850,284580 -730580,390500 -255720,105930 -521240,186470 -792720,240470 -271480,54000 -547600,81200 -820540,81320 -272940,120 -549060,-27080 -820540,-81080 -271480,-54000 -537000,-134540 -792720,-240470 -255730,-105920 -500430,-236720 -730580,-390500 -230150,-153780 -444630,-329800 -640360,-525520 -195720,-195730 -371740,-410210 -525520,-640360 -153780,-230150 -284580,-474850 -390500,-730580 -105930,-255720 -186470,-521240 -240470,-792720 -54000,-271480 -81200,-824400 -81200,-824400 l -10,-349120 c 0,-94980 -9330,-189730 -27860,-282880 -18530,-93160 -46170,-184270 -82520,-272020 -36340,-87750 -81230,-171710 -133990,-250680 -52770,-78980 -113170,-152570 -180330,-219730 -134650,-134650 -294500,-241460 -470420,-314330 -87750,-36340 -178860,-63980 -272020,-82510 -93150,-18530 -187900,-27860 -282880,-27860 l -92656160,-240 c -94980,0 -189730,9330 -282880,27860 -93160,18530 -184270,46170 -272020,82510 -175920,72870 -335770,179680 -470420,314330 -67160,67160 -127560,140750 -180330,219730 -52760,78970 -97650,162930 -133990,250680 -36350,87750 -63990,178860 -82520,272020 -18530,93150 -27860,187900 -27860,282880 l -10,349120 c 0,0 -27200,552920 -81200,824400 -54000,271480 -134540,537000 -240470,792720 -105920,255730 -236720,500430 -390500,730580 -153780,230150 -329800,444630 -525520,640360 -195730,195720 -410210,371740 -640360,525520 -230150,153780 -474850,284580 -730580,390500 -255720,105930 -521240,186470 -792720,240470 -271480,54000 -547600,81200 -820540,81320 -272940,120 -549060,-27080 -820540,-81080 -271480,-54000 -537000,-134540 -792720,-240470 -255730,-105920 -500430,-236720 -730580,-390500 -230150,-153780 -444630,-329800 -640360,-525520 -195720,-195730 -371740,-410210 -525520,-640360 -153780,-230150 -284580,-474850 -390500,-730580 -105930,-255720 -186470,-521240 -240470,-792720 -54000,-271480 -81200,-824400 -81200,-824400 l -10,-349120 c 0,-94980 -9330,-189730 -27860,-282880 -18530,-93160 -46170,-184270 -82520,-272020 -36340,-87750 -81230,-171710 -133990,-250680 -52770,-78980 -113170,-152570 -180330,-219730 -134650,-134650 -294500,-241460 -470420,-314330 -87750,-36340 -178860,-63980 -272020,-82510 -93150,-18530 -187900,-27860 -282880,-27860 l -6299030,120 c -292240,0 -583770,28710 -870400,85730 -286620,57010 -566950,142050 -836950,253880 -269990,111840 -528350,249930 -771340,412290 -242990,162360 -469440,348210 -676080,554850 -206650,206650 -392490,433100 -554850,676090 -162360,242990 -300450,501340 -412290,771340 -111830,269990 -196870,550320 -253880,836950 -57020,286630 -85730,578160 -85730,870400 l -1650,44656490 c 0,94980 9330,189730 27860,282880 18530,93160 46170,184270 82510,272020 72870,175920 179680,335770 314330,470420 67160,67160 140750,127560 219730,180330 78970,52760 162930,97650 250680,133990 87750,36350 178860,63990 272020,82520 93150,18530 187900,27860 282880,27860 l 349120,10 c 0,0 552920,27200 824400,81200 271480,54000 537000,134540 792720,240470 255730,105920 500430,236720 730580,390500 230150,153780 444630,329800 640360,525520 195720,195730 371740,410210 525520,640360 153780,230150 284580,474850 390500,730580 105930,255720 186470,521240 240470,792720 54000,271480 81200,547600 81320,820540 120,272940 -27080,549060 -81080,820540 -54000,271480 -134540,537000 -240470,792720 -105920,255730 -236720,500430 -390500,730580 -153780,230150 -329800,444630 -525520,640360 -195730,195720 -410210,371740 -640360,525520 -230150,153780 -474850,284580 -730580,390500 -255720,105930 -521240,186470 -792720,240470 -271480,54000 -824400,81200 -824400,81200 l -349120,10 c -94980,0 -189730,9330 -282880,27860 -93160,18530 -184270,46170 -272020,82520 -87750,36340 -171710,81230 -250680,133990 -78980,52770 -152570,113170 -219730,180330 -134650,134650 -241460,294500 -314330,470420 -36340,87750 -63980,178860 -82510,272020 -18530,93150 -27860,187900 -27860,282880 l 1470,44653200 c 0,292240 28720,583780 85730,870400 57010,286630 142050,566960 253890,836950 111830,270000 249920,528350 412280,771340 162360,242990 348210,469440 554850,676090 206650,206640 433100,392490 676090,554850 242990,162360 501340,300450 771330,412290 270000,111830 550330,196870 836960,253880 286620,57020 578160,85730 870400,85730 l 6298960,-3010 c 94980,0 189730,-9330 282880,-27860 93160,-18530 184270,-46170 272020,-82510 175920,-72870 335770,-179680 470420,-314330 67160,-67160 127560,-140750 180330,-219730 52760,-78970 97650,-162930 133990,-250680 36350,-87750 63990,-178860 82520,-272020 18530,-93150 27850,-187900 27860,-282880 l 10,-349120 c 0,0 27200,-552920 81200,-824400 54000,-271480 134540,-537000 240470,-792720 105920,-255730 236720,-500430 390500,-730580 153780,-230150 329800,-444630 525520,-640360 195730,-195720 410210,-371740 640360,-525520 230150,-153780 474850,-284580 730580,-390500 255720,-105930 521240,-186470 792720,-240470 271480,-54000 547600,-81200 820540,-81080 272940,120 549060,27320 820540,81320 271480,54000 537000,134540 792720,240470 255730,105920 500430,236720 730580,390500 230150,153780 444630,329800 640360,525520 195720,195730 371740,410210 525520,640360 153780,230150 284580,474850 390500,730580 105930,255720 186470,521240 240470,792720 54000,271480 81200,824400 81200,824400 l 10,349120 c 0,94980 9330,189730 27860,282880 18530,93160 46170,184270 82520,272020 36340,87750 81230,171710 133990,250680 52770,78980 113170,152570 180330,219730 134650,134650 294500,241460 470420,314330 87750,36340 178860,63980 272020,82510 93150,18530 187900,27860 282880,27860 l 92656160,-240 c 94980,0 189730,-9330 282880,-27860 93160,-18530 184270,-46170 272020,-82510 175920,-72870 335770,-179680 470420,-314330 67160,-67160 127560,-140750 180330,-219730 52760,-78970 97650,-162930 133990,-250680 36350,-87750 63990,-178860 82520,-272020 18530,-93150 27860,-187900 27860,-282880 l 10,-349120 c 0,0 27200,-552920 81200,-824400 54000,-271480 134540,-537000 240470,-792720 105920,-255730 236720,-500430 390500,-730580 153780,-230150 329800,-444630 525520,-640360 195730,-195720 410210,-371740 640360,-525520 230150,-153780 474850,-284580 730580,-390500 255720,-105930 521240,-186470 792720,-240470 271480,-54000 547600,-81200 820540,-81080 272940,120 549060,27320 820540,81320 271480,54000 537000,134540 792720,240470 255730,105920 500430,236720 730580,390500 230150,153780 444630,329800 640360,525520 195720,195730 371740,410210 525520,640360 153780,230150 284580,474850 390500,730580 105930,255720 186470,521240 240470,792720 54000,271480 81200,824400 81200,824400 l 10,349120 c 0,94980 9330,189730 27860,282880 18530,93160 46170,184270 82520,272020 36340,87750 81230,171710 133990,250680 52770,78980 113170,152570 180330,219730 134650,134650 294500,241460 470420,314330 87750,36340 178860,63980 272020,82510 93150,18530 187900,27860 282880,27860 l 90288520,-250 c 94980,0 189730,-9330 282880,-27860 93160,-18530 184270,-46170 272020,-82510 175920,-72870 335770,-179680 470420,-314330 67160,-67160 127560,-140750 180330,-219730 52760,-78970 97650,-162930 133990,-250680 36350,-87750 63990,-178860 82520,-272020 18530,-93150 27860,-187900 27860,-282880 l 10,-349120 c 0,0 27200,-552920 81200,-824400 54000,-271480 134540,-537000 240470,-792720 105920,-255730 236720,-500430 390500,-730580 153780,-230150 329800,-444630 525520,-640360 195730,-195720 410210,-371740 640360,-525520 230150,-153780 474850,-284580 730580,-390500 255720,-105930 521240,-186470 792720,-240470 271480,-54000 547600,-81200 820540,-81080 272940,120 549060,27320 820540,81320 271480,54000 537000,134540 792720,240470 255730,105920 500430,236720 730580,390500 230150,153780 444630,329800 640360,525520 195720,195730 371740,410210 525520,640360 153780,230150 284580,474850 390500,730580 105930,255720 186470,521240 240470,792720 54000,271480 81200,824400 81200,824400 l 10,349120 c 0,94980 9330,189730 27860,282880 18530,93160 46170,184270 82520,272020 36340,87750 81230,171710 133990,250680 52770,78980 113170,152570 180330,219730 134650,134650 294500,241460 470420,314330 87750,36340 178860,63980 272020,82510 93150,18530 187900,27860 282880,27860 l 92656160,-230 c 94980,0 189730,-9330 282880,-27860 93160,-18530 184270,-46170 272020,-82510 175920,-72870 335770,-179680 470420,-314330 67160,-67160 127560,-140750 180330,-219730 52760,-78970 97650,-162930 133990,-250680 36350,-87750 63990,-178860 82520,-272020 18530,-93150 27860,-187900 27860,-282880 l 10,-349120 c 0,0 27200,-552920 81200,-824400 54000,-271480 134540,-537000 240470,-792720 105920,-255730 236720,-500430 390500,-730580 153780,-230150 329800,-444630 525520,-640360 195730,-195720 410210,-371740 640360,-525520 230150,-153780 474850,-284580 730580,-390500 255720,-105930 521240,-186470 792720,-240470 271480,-54000 547600,-81200 820540,-81080 272940,120 549060,27320 820540,81320 271480,54000 537000,134540 792720,240470 255730,105920 500430,236720 730580,390500 230150,153780 444630,329800 640360,525520 195720,195730 371740,410210 525520,640360 153780,230150 284580,474850 390500,730580 105930,255720 186470,521240 240470,792720 54000,271480 81200,824400 81200,824400 l 10,349120 c 0,94980 9330,189730 27860,282880 18530,93160 46170,184270 82520,272020 36340,87750 81230,171710 133990,250680 52770,78980 113170,152570 180330,219730 134650,134650 294500,241460 470420,314330 87750,36340 178860,63980 272020,82510 93150,18530 187900,27860 282880,27860 l 6712860,2790 c 292240,0 583780,-28710 870400,-85730 286630,-57010 566960,-142050 836950,-253880 270000,-111840 528350,-249930 771340,-412290 242990,-162370 469440,-348210 676080,-554850 206650,-206650 392490,-433100 554850,-676090 162360,-242990 300450,-501340 412290,-771340 111830,-269990 196870,-550320 253880,-836950 57020,-286620 85730,-578160 85730,-870400 l -2060,-44653220 c 0,-94980 -9330,-189730 -27860,-282880 z M 308822640,238448440 v -14000180 h 14000180 v 14000180 z m -4761980,38100000 v -14000180 h 14000180 v 14000180 z m -72723310,40622620 v -21572610 l -13001680,-10 v -14000180 h 14000180 v 14000180 h 5049820 v -14000180 h 14000170 v 14000180 h 5049820 v -14000180 h 14000180 v 14000180 h 5049820 v -14000180 h 14000180 v 14000180 h 5049820 v -14000180 h 14000180 v 14000180 h 5049820 v -14000180 h 14000180 v 14000180 h 5049820 v -14000180 h 14000180 v 14000180 l -8277970,10 v 21572610 z m -72533460,-2522620 h 13999660 v -14000190 h 9812840 v 14000190 h 14000180 v -14000190 h -5877320 l 27550,-5049810 h 3469040 v -14000180 h -3496590 v -2072320 h -30864870 v 2072320 h -1070490 v 14000180 h 1086760 l -16270,5049810 h -1070490 v 0 z m 11618930,-90200180 v 14000180 h -14000180 v -14000180 0 z m 19050000,0 v 14000180 h -14000180 v -14000180 0 z m 19050010,0 v 14000180 h -14000190 v -14000180 0 z m 19050000,0 v 14000180 h -14000180 v -14000180 0 z m 19049990,0 v 14000180 h -14000170 v -14000180 0 z m 19050000,0 v 14000180 h -14000180 v -14000180 0 z m 19050000,0 v 14000180 h -14000180 v -14000180 0 z m 19050000,0 v 14000180 h -14000180 v -14000180 0 z m -128586980,19050000 v 14000180 h -14000180 v -14000180 0 z m 23811980,0 v 14000180 h -14000180 v -14000180 0 z m 19050010,0 v 14000180 h -14000180 v -14000180 0 z m 19050000,0 v 14000180 h -14000180 v -14000180 0 z m 19049990,0 v 14000180 h -14000170 v -14000180 0 z m 19050000,0 v 14000180 h -14000180 v -14000180 0 z m 19050000,0 v 14000180 h -14000180 v -14000180 0 z m 19050000,0 v 14000180 h -14000180 v -14000180 0 z m -135731250,19050000 v 14000180 h -18762680 v -14000180 0 z m 26194280,0 v 14000180 h -14000190 v -14000180 0 z m 19050000,0 v 14000180 h -14000180 v -14000180 0 z m 19050000,0 v 14000180 h -14000180 v -14000180 0 z m 19049990,0 v 14000180 h -14000180 v -14000180 0 z m 19050000,0 v 14000180 h -14000180 v -14000180 0 z m 19050000,0 v 14000180 h -14000180 v -14000180 0 z m -85724990,19050000 v 14000180 h -14000190 v -14000180 0 z m 7142710,19050000 v 14000180 h -13999660 v -14000180 0 z m 261452260,-63901820 v 38498000 h -38498000 v -38498000 0 z m -4109950,-14453610 v 11536300 h -30261300 v -11536300 0 z m -135898050,2155430 v 14000180 h -14000180 v -14000180 0 z m 19050000,0 v 14000180 h -14000180 v -14000180 0 z m 19050000,0 v 14000180 h -14000180 v -14000180 0 z m 19050000,0 v 14000180 h -14000180 v -14000180 0 z m -66675000,19050000 v 14000180 h -14000180 v -14000180 0 z m 19050000,0 v 14000180 h -14000180 v -14000180 0 z m 19050000,0 v 14000180 h -14000180 v -14000180 0 z m 19050000,0 v 14000180 h -14000180 v -14000180 0 z m -52386980,19050000 v 14000180 h -14000180 v -14000180 z m 19050000,0 v 14000180 h -14000180 v -14000180 0 z m 19050000,0 v 14000180 h -14000180 v -14000180 0 z m 19049990,0 v 14000180 h -14000170 v -14000180 0 z m -28574990,19050000 v 14000180 h -14000180 v -14000180 0 z m 19049990,0 v 14000180 h -14000170 v -14000180 0 z m 76200000,0 v 14000180 h -14000170 v -14000180 0 z m 19050000,0 v 14000180 h -14000180 v -14000180 0 z m -116682280,19050000 v 14000180 h -13999660 v -14000180 0 z m 23813020,0 v 14000180 h -14000180 v -14000180 0 z m 73819260,0 v 14000180 h -14000170 v -14000180 0 z m 19050000,0 v 14000180 h -14000180 v -14000180 0 z m -43950270,-76199990 h 1087260 v 14000170 h -1087260 l -6080,6120920 768110,-3400 v 30860660 h -3096000 v 3608340 l -4804790,-20320 -20,2583620 h 8226040 v 14000180 h -8231020 v 5049820 h 12994030 v 14000180 h -14000170 v -14000180 h -16957110 v 14000180 h -13999660 v -14000180 h 1086750 v -5049820 h -1086750 v -14000180 h 1106130 v -2524910 l 4801710,-38490 v -2486420 h -3526070 v -14000180 h 3468000 l 58070,-5049820 h -8289080 v -14000180 l 10617840,-530 -6090,-5049370 h -1086750 v -14000180 l 1092840,80 v -2516830 l 30870070,6750 v 0 z m 45845260,50796170 h -38498000 v -38498000 h 38498000 v 0 z"
       sodipodi:nodetypes="ssssssscssssssssssssssscsssssssccsssssssccssssssscssssssssssssssscsssssssccssssssscssssssssssssssscsssssssccssssssscssssssssssssssscsssssssccscsscsccscscscssscscscsccsccscsccccsssccccscssssscscscscssscscscscsssssssccsssssssccssssssccssssssssssssssscsssssssccssssssscssssssssssssssscsssssssccssssssscssssssssssssssscsssssssccssssssscssssssssssssssscsssssssccsssssssccscccccccccccccccccccccccccccccccccccccccccccccccccccccccccccccccccccccccccccccccccccccccccccccccccccccccccccccccccccccccccccccccccccccccccccccccccccccccccccccccccccccccccccccccccccccccccccccccccccccccccccccccccccccccccccccccccccccccccccccccccccccccccccccccccccccccccccccccccccccccccccccccccccccccccccccccccccccccccccccccccccccccccccccccccccccccccccccccccccccccccccccccccccccccccccccccccccccccccccccc" />
  </g>
  <metadata
     id="metadata1614">
    <rdf:RDF>
      <cc:Work
         rdf:about="">
        <dc:title>SVG Picture created as dynamis-User_Drawings.svg date 2022/06/04 22:09:15 </dc:title>
      </cc:Work>
    </rdf:RDF>
  </metadata>
</svg>
