<?xml version="1.0" encoding="UTF-8" standalone="no"?>
<svg
   version="1.1"
   width="34.548885cm"
   height="11.216938cm"
   viewBox="0 0 3.4548885e+08 1.1216938e+08"
   id="svg5726"
   sodipodi:docname="top.svg"
   inkscape:version="1.2 (dc2aedaf03, 2022-05-15)"
   inkscape:export-filename="..\pcb.svg"
   inkscape:export-xdpi="96"
   inkscape:export-ydpi="96"
   xmlns:inkscape="http://www.inkscape.org/namespaces/inkscape"
   xmlns:sodipodi="http://sodipodi.sourceforge.net/DTD/sodipodi-0.dtd"
   xmlns="http://www.w3.org/2000/svg"
   xmlns:svg="http://www.w3.org/2000/svg"
   xmlns:rdf="http://www.w3.org/1999/02/22-rdf-syntax-ns#"
   xmlns:cc="http://creativecommons.org/ns#"
   xmlns:dc="http://purl.org/dc/elements/1.1/">
  <defs
     id="defs5730">
    <inkscape:path-effect
       effect="fillet_chamfer"
       id="path-effect475"
       is_visible="true"
       lpeversion="1"
       nodesatellites_param="F,0,0,1,0,5291666.7,0,1 @ F,0,0,1,0,5291666.7,0,1 @ F,0,0,1,0,5291666.7,0,1 @ F,0,0,1,0,5291666.7,0,1 | F,0,0,1,0,661458.33,0,1 @ F,0,1,1,0,661458.33,0,1 @ F,0,0,1,0,661458.33,0,1 @ F,0,0,1,0,661458.33,0,1 @ F,0,0,1,0,661458.33,0,1 @ F,0,0,1,0,661458.33,0,1 @ F,0,0,1,0,661458.33,0,1 @ F,0,0,1,0,661458.33,0,1 @ F,0,0,1,0,661458.33,0,1 @ F,0,0,1,0,661458.33,0,1 @ F,0,0,1,0,661458.33,0,1 @ F,0,0,1,0,661458.33,0,1 | F,0,0,1,0,0,0,1 @ F,0,0,1,0,0,0,1 @ F,0,0,1,0,0,0,1 @ F,0,0,1,0,0,0,1"
       unit="px"
       method="auto"
       mode="F"
       radius="1000000"
       chamfer_steps="1"
       flexible="false"
       use_knot_distance="true"
       apply_no_radius="true"
       apply_with_radius="true"
       only_selected="true"
       hide_knots="false" />
  </defs>
  <sodipodi:namedview
     id="namedview5728"
     pagecolor="#ffffff"
     bordercolor="#000000"
     borderopacity="0.25"
     inkscape:showpageshadow="2"
     inkscape:pageopacity="0.0"
     inkscape:pagecheckerboard="0"
     inkscape:deskcolor="#d1d1d1"
     inkscape:document-units="cm"
     showgrid="false"
     inkscape:zoom="0.70710678"
     inkscape:cx="214.96046"
     inkscape:cy="376.88792"
     inkscape:window-width="1409"
     inkscape:window-height="1032"
     inkscape:window-x="404"
     inkscape:window-y="0"
     inkscape:window-maximized="0"
     inkscape:current-layer="layer5" />
  <title
     id="title2">SVG Picture created as dynamis-User_Drawings.svg date 2022/06/04 22:09:15 </title>
  <desc
     id="desc4">Picture generated by PCBNEW </desc>
  <g
     inkscape:groupmode="layer"
     id="layer5"
     inkscape:label="top"
     style="display:inline"
     transform="translate(-124428600,-192825050)">
    <path
       id="path13425-1"
       style="display:inline;fill:none;fill-opacity:1;stroke:#ff0000;stroke-width:100000;stroke-dasharray:none;stroke-opacity:1"
       d="m 124478600,198166720 17780,101435660 a 5293378.6,5293378.6 44.999221 0 0 5292600,5292450 l 334786790,49600 a 5290882.9,5290882.9 135.00424 0 0 5291670,-5290890 V 198166720 a 5291666.7,5291666.7 45 0 0 -5291670,-5291670 l -334806430,0 a 5290739,5290739 134.99498 0 0 -5290740,5291670 z m 8157750,2208130 h 286226960 a 661458.33,661458.33 45 0 1 661460,661460 v 74887410 a 661458.33,661458.33 45 0 0 661460,661460 h 1637110 a 661458.33,661458.33 135 0 0 661460,-661460 v -17717260 a 661458.33,661458.33 135 0 1 661460,-661460 h 38559400 a 661458.33,661458.33 45 0 1 661460,661460 v 38576970 a 661458.33,661458.33 135 0 1 -661460,661460 h -57626970 a 661458.33,661458.33 45 0 1 -661460,-661460 v -17727080 a 661458.33,661458.33 45 0 0 -661460,-661460 h -6383070 a 661458.33,661458.33 135 0 0 -661460,661460 l 0,17676440 a 661458.33,661458.33 135 0 1 -661460,661460 l -262389140,0 a 661623.95,661623.95 44.992828 0 1 -661630,-661460 l -23950,-95696480 a 661292.75,661292.75 134.99283 0 1 661290,-661460 z m 290230860,14315400 h 39099930 v 39104590 h -39102520 z"
       inkscape:path-effect="#path-effect475"
       inkscape:original-d="m 124477670,192875050 19640,112019000 345370130,51160 V 192875050 Z m 7497220,7499800 h 287549880 v 76210330 h 2960030 v -19040180 h 39882320 v 39899890 h -58949890 v -19050000 h -7705990 v 18999360 H 131999180 Z m 290892320,14315400 h 39099930 v 39104590 h -39102520 z" />
  </g>
  <metadata
     id="metadata237">
    <rdf:RDF>
      <cc:Work
         rdf:about="">
        <dc:title>SVG Picture created as dynamis-User_Drawings.svg date 2022/06/04 22:09:15 </dc:title>
      </cc:Work>
    </rdf:RDF>
  </metadata>
</svg>
