<?xml version="1.0" encoding="UTF-8" standalone="no"?>
<svg
   version="1.1"
   width="349.64798mm"
   height="116.31301mm"
   viewBox="0 0 3.4964798e+08 1.1631301e+08"
   id="svg6032"
   sodipodi:docname="debug - コピー.svg"
   inkscape:version="1.2.2 (732a01da63, 2022-12-09)"
   inkscape:export-filename="..\case\3dp\bottom.svg"
   inkscape:export-xdpi="96"
   inkscape:export-ydpi="96"
   xmlns:inkscape="http://www.inkscape.org/namespaces/inkscape"
   xmlns:sodipodi="http://sodipodi.sourceforge.net/DTD/sodipodi-0.dtd"
   xmlns="http://www.w3.org/2000/svg"
   xmlns:svg="http://www.w3.org/2000/svg"
   xmlns:rdf="http://www.w3.org/1999/02/22-rdf-syntax-ns#"
   xmlns:cc="http://creativecommons.org/ns#"
   xmlns:dc="http://purl.org/dc/elements/1.1/">
  <defs
     id="defs6036">
    <inkscape:path-effect
       effect="fillet_chamfer"
       id="path-effect2784"
       is_visible="true"
       lpeversion="1"
       nodesatellites_param="F,0,0,1,0,0,0,1 @ F,0,0,1,0,0,0,1 @ F,0,0,1,0,0,0,1 @ F,0,0,1,0,0,0,1 @ F,0,0,1,0,0,0,1 @ F,0,0,1,0,0,0,1 @ F,0,0,1,0,0,0,1 @ F,0,0,1,0,0,0,1 @ F,0,0,1,0,0,0,1 @ F,0,0,1,0,0,0,1 @ F,0,0,1,0,0,0,1 @ F,0,0,1,0,0,0,1 @ F,0,0,1,0,0,0,1 @ F,0,0,1,0,0,0,1 @ F,0,0,1,0,0,0,1 @ F,0,0,1,0,0,0,1 @ F,0,0,1,0,0,0,1 @ F,0,0,1,0,0,0,1 @ F,0,0,1,0,0,0,1 @ F,0,0,1,0,0,0,1 @ F,0,0,1,0,0,0,1 @ F,0,0,1,0,0,0,1 @ F,0,0,1,0,0,0,1 @ F,0,0,1,0,0,0,1 @ F,0,0,1,0,0,0,1 @ F,0,0,1,0,0,0,1 @ F,0,0,1,0,0,0,1 @ F,0,0,1,0,0,0,1 @ F,0,0,1,0,0,0,1 @ F,0,0,1,0,0,0,1 @ F,0,0,1,0,0,0,1 @ F,0,0,1,0,0,0,1 @ F,0,0,1,0,0,0,1 @ F,0,0,1,0,0,0,1 @ F,0,0,1,0,0,0,1 @ F,0,0,1,0,0,0,1 @ F,0,0,1,0,0,0,1 @ F,0,0,1,0,0,0,1 @ F,0,0,1,0,0,0,1 @ F,0,0,1,0,0,0,1 @ F,0,0,1,0,0,0,1 @ F,0,0,1,0,0,0,1 @ F,0,0,1,0,0,0,1 @ F,0,0,1,0,0,0,1 @ F,0,0,1,0,0,0,1 @ F,0,0,1,0,0,0,1 @ F,0,0,1,0,0,0,1 @ F,0,0,1,0,0,0,1 @ F,0,0,1,0,0,0,1 @ F,0,0,1,0,0,0,1 @ F,0,0,1,0,0,0,1 @ F,0,0,1,0,0,0,1 @ F,0,0,1,0,0,0,1 @ F,0,0,1,0,0,0,1 @ F,0,0,1,0,0,0,1 @ F,0,0,1,0,0,0,1 @ F,0,0,1,0,0,0,1 @ F,0,0,1,0,0,0,1 @ F,0,0,1,0,0,0,1 @ F,0,0,1,0,0,0,1 @ F,0,0,1,0,0,0,1 @ F,0,0,1,0,0,0,1 @ F,0,0,1,0,0,0,1 @ F,0,0,1,0,0,0,1 @ F,0,0,1,0,0,0,1 @ F,0,0,1,0,0,0,1 @ F,0,0,1,0,0,0,1 @ F,0,0,1,0,0,0,1 @ F,0,0,1,0,0,0,1 @ F,0,0,1,0,0,0,1 @ F,0,0,1,0,0,0,1 @ F,0,0,1,0,0,0,1 @ F,0,0,1,0,0,0,1 @ F,0,0,1,0,0,0,1 @ F,0,0,1,0,0,0,1 @ F,0,0,1,0,0,0,1 @ F,0,0,1,0,0,0,1 @ F,0,0,1,0,0,0,1 @ F,0,0,1,0,0,0,1 @ F,0,0,1,0,0,0,1 @ F,0,0,1,0,0,0,1 @ F,0,0,1,0,0,0,1 @ F,0,0,1,0,0,0,1 @ F,0,0,1,0,0,0,1 @ F,0,0,1,0,0,0,1 @ F,0,0,1,0,0,0,1 @ F,0,0,1,0,0,0,1 @ F,0,0,1,0,0,0,1 @ F,0,0,1,0,0,0,1 @ F,0,0,1,0,0,0,1 @ F,0,0,1,0,0,0,1 @ F,0,0,1,0,0,0,1 @ F,0,0,1,0,0,0,1 @ F,0,0,1,0,0,0,1 @ F,0,0,1,0,0,0,1 @ F,0,0,1,0,0,0,1 @ F,0,0,1,0,0,0,1 @ F,0,0,1,0,0,0,1 @ F,0,0,1,0,0,0,1 @ F,0,0,1,0,0,0,1 @ F,0,0,1,0,0,0,1 @ F,0,0,1,0,0,0,1 @ F,0,0,1,0,0,0,1 @ F,0,0,1,0,0,0,1 @ F,0,0,1,0,0,0,1 @ F,0,0,1,0,0,0,1 @ F,0,0,1,0,0,0,1 @ F,0,0,1,0,0,0,1 @ F,0,0,1,0,0,0,1 @ F,0,0,1,0,0,0,1 @ F,0,0,1,0,0,0,1 @ F,0,0,1,0,0,0,1 @ F,0,0,1,0,0,0,1 @ F,0,0,1,0,0,0,1 @ F,0,0,1,0,0,0,1 @ F,0,0,1,0,0,0,1 @ F,0,0,1,0,0,0,1 @ F,0,0,1,0,0,0,1 @ F,0,0,1,0,0,0,1 @ F,0,0,1,0,0,0,1 @ F,0,0,1,0,0,0,1 @ F,0,0,1,0,0,0,1 @ F,0,0,1,0,0,0,1 @ F,0,0,1,0,0,0,1 @ F,0,0,1,0,0,0,1 @ F,0,0,1,0,0,0,1 @ F,0,0,1,0,0,0,1 @ F,0,0,1,0,0,0,1 @ F,0,0,1,0,0,0,1 @ F,0,0,1,0,0,0,1 @ F,0,0,1,0,0,0,1 @ F,0,0,1,0,0,0,1 @ F,0,0,1,0,0,0,1 @ F,0,0,1,0,0,0,1 @ F,0,0,1,0,0,0,1 @ F,0,0,1,0,0,0,1 @ F,0,0,1,0,0,0,1 @ F,0,0,1,0,0,0,1 @ F,0,0,1,0,0,0,1 @ F,0,0,1,0,0,0,1 @ F,0,0,1,0,0,0,1 @ F,0,0,1,0,0,0,1 @ F,0,0,1,0,0,0,1 @ F,0,0,1,0,0,0,1 @ F,0,0,1,0,0,0,1 @ F,0,0,1,0,0,0,1 @ F,0,0,1,0,0,0,1 @ F,0,0,1,0,0,0,1 @ F,0,0,1,0,0,0,1 @ F,0,0,1,0,0,0,1 @ F,0,0,1,0,0,0,1 @ F,0,0,1,0,0,0,1 @ F,0,0,1,0,0,0,1 @ F,0,0,1,0,0,0,1 @ F,0,0,1,0,0,0,1 @ F,0,0,1,0,0,0,1 @ F,0,0,1,0,0,0,1 @ F,0,0,1,0,0,0,1 @ F,0,0,1,0,0,0,1 @ F,0,0,1,0,0,0,1 @ F,0,0,1,0,0,0,1 @ F,0,0,1,0,0,0,1 @ F,0,0,1,0,0,0,1 @ F,0,0,1,0,0,0,1 @ F,0,0,1,0,0,0,1 @ F,0,0,1,0,0,0,1 @ F,0,0,1,0,0,0,1 @ F,0,0,1,0,0,0,1 @ F,0,0,1,0,0,0,1 @ F,0,0,1,0,0,0,1 @ F,0,0,1,0,0,0,1 @ F,0,0,1,0,0,0,1 @ F,0,0,1,0,0,0,1 @ F,0,0,1,0,0,0,1 @ F,0,0,1,0,0,0,1 @ F,0,0,1,0,0,0,1 @ F,0,0,1,0,0,0,1 @ F,0,0,1,0,0,0,1 @ F,0,0,1,0,0,0,1 @ F,0,0,1,0,0,0,1 @ F,0,0,1,0,0,0,1 @ F,0,0,1,0,0,0,1 @ F,0,0,1,0,0,0,1 @ F,0,0,1,0,0,0,1 @ F,0,0,1,0,0,0,1 @ F,0,0,1,0,0,0,1 @ F,0,0,1,0,0,0,1 @ F,0,0,1,0,0,0,1 @ F,0,0,1,0,0,0,1 @ F,0,0,1,0,0,0,1 @ F,0,0,1,0,0,0,1 @ F,0,0,1,0,0,0,1 @ F,0,0,1,0,0,0,1 @ F,0,0,1,0,0,0,1 | F,0,0,1,0,0,0,1 @ F,0,0,1,0,0,0,1 @ F,0,0,1,0,0,0,1 @ F,0,0,1,0,0,0,1 @ F,0,0,1,0,0,0,1 @ F,0,0,1,0,0,0,1 @ F,0,0,1,0,0,0,1 @ F,0,0,1,0,0,0,1 @ F,0,0,1,0,0,0,1 @ F,0,0,1,0,0,0,1 @ F,0,0,1,0,0,0,1 @ F,0,0,1,0,0,0,1 @ F,0,0,1,0,0,0,1 @ F,0,0,1,0,0,0,1 @ F,0,0,1,0,0,0,1 @ F,0,0,1,0,0,0,1 @ F,0,0,1,0,0,0,1 @ F,0,0,1,0,0,0,1 @ F,0,0,1,0,0,0,1 @ F,0,0,1,0,0,0,1 @ F,0,0,1,0,0,0,1 @ F,0,0,1,0,0,0,1 @ F,0,0,1,0,0,0,1 @ F,0,0,1,0,0,0,1 @ F,0,0,1,0,0,0,1 @ F,0,0,1,0,0,0,1 @ F,0,0,1,0,0,0,1 @ F,0,0,1,0,0,0,1 @ F,0,0,1,0,0,0,1 @ F,0,0,1,0,0,0,1 @ F,0,0,1,0,0,0,1 @ F,0,0,1,0,0,0,1 | F,0,0,1,0,0,0,1 @ F,0,0,1,0,0,0,1 @ F,0,0,1,0,0,0,1 @ F,0,0,1,0,0,0,1 @ F,0,0,1,0,0,0,1 @ F,0,0,1,0,0,0,1 @ F,0,0,1,0,0,0,1 @ F,0,0,1,0,0,0,1 @ F,0,0,1,0,0,0,1 @ F,0,0,1,0,0,0,1 @ F,0,0,1,0,0,0,1 @ F,0,0,1,0,0,0,1 @ F,0,0,1,0,0,0,1 @ F,0,0,1,0,0,0,1 @ F,0,0,1,0,0,0,1 @ F,0,0,1,0,0,0,1 @ F,0,0,1,0,0,0,1 @ F,0,0,1,0,0,0,1 @ F,0,0,1,0,0,0,1 @ F,0,0,1,0,0,0,1 @ F,0,0,1,0,0,0,1 @ F,0,0,1,0,0,0,1 @ F,0,0,1,0,0,0,1 @ F,0,0,1,0,0,0,1 @ F,0,0,1,0,0,0,1 @ F,0,0,1,0,0,0,1 @ F,0,0,1,0,0,0,1 @ F,0,0,1,0,0,0,1 @ F,0,0,1,0,0,0,1 @ F,0,0,1,0,0,0,1 @ F,0,0,1,0,0,0,1 @ F,0,0,1,0,0,0,1 | F,0,0,1,0,0,0,1 @ F,0,0,1,0,0,0,1 @ F,0,0,1,0,0,0,1 @ F,0,0,1,0,0,0,1 @ F,0,0,1,0,0,0,1 @ F,0,0,1,0,0,0,1 @ F,0,0,1,0,0,0,1 @ F,0,0,1,0,0,0,1 @ F,0,0,1,0,0,0,1 @ F,0,0,1,0,0,0,1 @ F,0,0,1,0,0,0,1 @ F,0,0,1,0,0,0,1 @ F,0,0,1,0,0,0,1 @ F,0,0,1,0,0,0,1 @ F,0,0,1,0,0,0,1 @ F,0,0,1,0,0,0,1 @ F,0,0,1,0,0,0,1 @ F,0,0,1,0,0,0,1 @ F,0,0,1,0,0,0,1 @ F,0,0,1,0,0,0,1 @ F,0,0,1,0,0,0,1 @ F,0,0,1,0,0,0,1 @ F,0,0,1,0,0,0,1 @ F,0,0,1,0,0,0,1 @ F,0,0,1,0,0,0,1 @ F,0,0,1,0,0,0,1 @ F,0,0,1,0,0,0,1 @ F,0,0,1,0,0,0,1 @ F,0,0,1,0,0,0,1 @ F,0,0,1,0,0,0,1 @ F,0,0,1,0,0,0,1 @ F,0,0,1,0,0,0,1 | F,0,0,1,0,0,0,1 @ F,0,0,1,0,0,0,1 @ F,0,0,1,0,0,0,1 @ F,0,0,1,0,0,0,1 @ F,0,0,1,0,0,0,1 @ F,0,0,1,0,0,0,1 @ F,0,0,1,0,0,0,1 @ F,0,0,1,0,0,0,1 @ F,0,0,1,0,0,0,1 @ F,0,0,1,0,0,0,1 @ F,0,0,1,0,0,0,1 @ F,0,0,1,0,0,0,1 @ F,0,0,1,0,0,0,1 @ F,0,0,1,0,0,0,1 @ F,0,0,1,0,0,0,1 @ F,0,0,1,0,0,0,1 @ F,0,0,1,0,0,0,1 @ F,0,0,1,0,0,0,1 @ F,0,0,1,0,0,0,1 @ F,0,0,1,0,0,0,1 @ F,0,0,1,0,0,0,1 @ F,0,0,1,0,0,0,1 @ F,0,0,1,0,0,0,1 @ F,0,0,1,0,0,0,1 @ F,0,0,1,0,0,0,1 @ F,0,0,1,0,0,0,1 @ F,0,0,1,0,0,0,1 @ F,0,0,1,0,0,0,1 @ F,0,0,1,0,0,0,1 @ F,0,0,1,0,0,0,1 @ F,0,0,1,0,0,0,1 @ F,0,0,1,0,0,0,1 | F,0,0,1,0,0,0,1 @ F,0,0,1,0,0,0,1 @ F,0,0,1,0,0,0,1 @ F,0,0,1,0,0,0,1 @ F,0,0,1,0,0,0,1 @ F,0,0,1,0,0,0,1 @ F,0,0,1,0,0,0,1 @ F,0,0,1,0,0,0,1 @ F,0,0,1,0,0,0,1 @ F,0,0,1,0,0,0,1 @ F,0,0,1,0,0,0,1 @ F,0,0,1,0,0,0,1 @ F,0,0,1,0,0,0,1 @ F,0,0,1,0,0,0,1 @ F,0,0,1,0,0,0,1 @ F,0,0,1,0,0,0,1 @ F,0,0,1,0,0,0,1 @ F,0,0,1,0,0,0,1 @ F,0,0,1,0,0,0,1 @ F,0,0,1,0,0,0,1 @ F,0,0,1,0,0,0,1 @ F,0,0,1,0,0,0,1 @ F,0,0,1,0,0,0,1 @ F,0,0,1,0,0,0,1 @ F,0,0,1,0,0,0,1 @ F,0,0,1,0,0,0,1 @ F,0,0,1,0,0,0,1 @ F,0,0,1,0,0,0,1 @ F,0,0,1,0,0,0,1 @ F,0,0,1,0,0,0,1 @ F,0,0,1,0,0,0,1 @ F,0,0,1,0,0,0,1 | F,0,0,1,0,0,0,1 @ F,0,0,1,0,0,0,1 @ F,0,0,1,0,0,0,1 @ F,0,0,1,0,0,0,1 @ F,0,0,1,0,0,0,1 @ F,0,0,1,0,0,0,1 @ F,0,0,1,0,0,0,1 @ F,0,0,1,0,0,0,1 @ F,0,0,1,0,0,0,1 @ F,0,0,1,0,0,0,1 @ F,0,0,1,0,0,0,1 @ F,0,0,1,0,0,0,1 @ F,0,0,1,0,0,0,1 @ F,0,0,1,0,0,0,1 @ F,0,0,1,0,0,0,1 @ F,0,0,1,0,0,0,1 @ F,0,0,1,0,0,0,1 @ F,0,0,1,0,0,0,1 @ F,0,0,1,0,0,0,1 @ F,0,0,1,0,0,0,1 @ F,0,0,1,0,0,0,1 @ F,0,0,1,0,0,0,1 @ F,0,0,1,0,0,0,1 @ F,0,0,1,0,0,0,1 @ F,0,0,1,0,0,0,1 @ F,0,0,1,0,0,0,1 @ F,0,0,1,0,0,0,1 @ F,0,0,1,0,0,0,1 @ F,0,0,1,0,0,0,1 @ F,0,0,1,0,0,0,1 @ F,0,0,1,0,0,0,1 @ F,0,0,1,0,0,0,1 | F,0,0,1,0,0,0,1 @ F,0,0,1,0,0,0,1 @ F,0,0,1,0,0,0,1 @ F,0,0,1,0,0,0,1 @ F,0,0,1,0,0,0,1 @ F,0,0,1,0,0,0,1 @ F,0,0,1,0,0,0,1 @ F,0,0,1,0,0,0,1 @ F,0,0,1,0,0,0,1 @ F,0,0,1,0,0,0,1 @ F,0,0,1,0,0,0,1 @ F,0,0,1,0,0,0,1 @ F,0,0,1,0,0,0,1 @ F,0,0,1,0,0,0,1 @ F,0,0,1,0,0,0,1 @ F,0,0,1,0,0,0,1 @ F,0,0,1,0,0,0,1 @ F,0,0,1,0,0,0,1 @ F,0,0,1,0,0,0,1 @ F,0,0,1,0,0,0,1 @ F,0,0,1,0,0,0,1 @ F,0,0,1,0,0,0,1 @ F,0,0,1,0,0,0,1 @ F,0,0,1,0,0,0,1 @ F,0,0,1,0,0,0,1 @ F,0,0,1,0,0,0,1 @ F,0,0,1,0,0,0,1 @ F,0,0,1,0,0,0,1 @ F,0,0,1,0,0,0,1 @ F,0,0,1,0,0,0,1 @ F,0,0,1,0,0,0,1 @ F,0,0,1,0,0,0,1 | F,0,0,1,0,0,0,1 @ F,0,0,1,0,0,0,1 @ F,0,0,1,0,0,0,1 @ F,0,0,1,0,0,0,1 @ F,0,0,1,0,0,0,1 @ F,0,0,1,0,0,0,1 @ F,0,0,1,0,0,0,1 @ F,0,0,1,0,0,0,1 @ F,0,0,1,0,0,0,1 @ F,0,0,1,0,0,0,1 @ F,0,0,1,0,0,0,1 @ F,0,0,1,0,0,0,1 @ F,0,0,1,0,0,0,1 @ F,0,0,1,0,0,0,1 @ F,0,0,1,0,0,0,1 @ F,0,0,1,0,0,0,1 @ F,0,0,1,0,0,0,1 @ F,0,0,1,0,0,0,1 @ F,0,0,1,0,0,0,1 @ F,0,0,1,0,0,0,1 @ F,0,0,1,0,0,0,1 @ F,0,0,1,0,0,0,1 @ F,0,0,1,0,0,0,1 @ F,0,0,1,0,0,0,1 @ F,0,0,1,0,0,0,1 @ F,0,0,1,0,0,0,1 @ F,0,0,1,0,0,0,1 @ F,0,0,1,0,0,0,1 @ F,0,0,1,0,0,0,1 @ F,0,0,1,0,0,0,1 @ F,0,0,1,0,0,0,1 @ F,0,0,1,0,0,0,1 | F,0,0,1,0,0,0,1 @ F,0,0,1,0,0,0,1 @ F,0,0,1,0,0,0,1 @ F,0,0,1,0,0,0,1 @ F,0,0,1,0,0,0,1 @ F,0,0,1,0,0,0,1 @ F,0,0,1,0,0,0,1 @ F,0,0,1,0,0,0,1 @ F,0,0,1,0,0,0,1 @ F,0,0,1,0,0,0,1 @ F,0,0,1,0,0,0,1 @ F,0,0,1,0,0,0,1 @ F,0,0,1,0,0,0,1 @ F,0,0,1,0,0,0,1 @ F,0,0,1,0,0,0,1 @ F,0,0,1,0,0,0,1 @ F,0,0,1,0,0,0,1 @ F,0,0,1,0,0,0,1 @ F,0,0,1,0,0,0,1 @ F,0,0,1,0,0,0,1 @ F,0,0,1,0,0,0,1 @ F,0,0,1,0,0,0,1 @ F,0,0,1,0,0,0,1 @ F,0,0,1,0,0,0,1 @ F,0,0,1,0,0,0,1 @ F,0,0,1,0,0,0,1 @ F,0,0,1,0,0,0,1 @ F,0,0,1,0,0,0,1 @ F,0,0,1,0,0,0,1 @ F,0,0,1,0,0,0,1 @ F,0,0,1,0,0,0,1 @ F,0,0,1,0,0,0,1 | F,0,0,1,0,0,0,1 @ F,0,0,1,0,0,0,1 @ F,0,0,1,0,0,0,1 @ F,0,0,1,0,0,0,1 @ F,0,0,1,0,0,0,1 @ F,0,0,1,0,0,0,1 @ F,0,0,1,0,0,0,1 @ F,0,0,1,0,0,0,1 @ F,0,0,1,0,0,0,1 @ F,0,0,1,0,0,0,1 @ F,0,0,1,0,0,0,1 @ F,0,0,1,0,0,0,1 @ F,0,0,1,0,0,0,1 @ F,0,0,1,0,0,0,1 @ F,0,0,1,0,0,0,1 @ F,0,0,1,0,0,0,1 @ F,0,0,1,0,0,0,1 @ F,0,0,1,0,0,0,1 @ F,0,0,1,0,0,0,1 @ F,0,0,1,0,0,0,1 @ F,0,0,1,0,0,0,1 @ F,0,0,1,0,0,0,1 @ F,0,0,1,0,0,0,1 @ F,0,0,1,0,0,0,1 @ F,0,0,1,0,0,0,1 @ F,0,0,1,0,0,0,1 @ F,0,0,1,0,0,0,1 @ F,0,0,1,0,0,0,1 @ F,0,0,1,0,0,0,1 @ F,0,0,1,0,0,0,1 @ F,0,0,1,0,0,0,1 @ F,0,0,1,0,0,0,1 | F,0,0,1,0,0,0,1 @ F,0,0,1,0,0,0,1 @ F,0,0,1,0,0,0,1 @ F,0,0,1,0,0,0,1 @ F,0,0,1,0,0,0,1 @ F,0,0,1,0,0,0,1 @ F,0,0,1,0,0,0,1 @ F,0,0,1,0,0,0,1 @ F,0,0,1,0,0,0,1 @ F,0,0,1,0,0,0,1 @ F,0,0,1,0,0,0,1 @ F,0,0,1,0,0,0,1 @ F,0,0,1,0,0,0,1 @ F,0,0,1,0,0,0,1 @ F,0,0,1,0,0,0,1 @ F,0,0,1,0,0,0,1 @ F,0,0,1,0,0,0,1 @ F,0,0,1,0,0,0,1 @ F,0,0,1,0,0,0,1 @ F,0,0,1,0,0,0,1 @ F,0,0,1,0,0,0,1 @ F,0,0,1,0,0,0,1 @ F,0,0,1,0,0,0,1 @ F,0,0,1,0,0,0,1 @ F,0,0,1,0,0,0,1 @ F,0,0,1,0,0,0,1 @ F,0,0,1,0,0,0,1 @ F,0,0,1,0,0,0,1 @ F,0,0,1,0,0,0,1 @ F,0,0,1,0,0,0,1 @ F,0,0,1,0,0,0,1 @ F,0,0,1,0,0,0,1 | F,0,0,1,0,0,0,1 @ F,0,0,1,0,0,0,1 @ F,0,0,1,0,0,0,1 @ F,0,0,1,0,0,0,1 @ F,0,0,1,0,0,0,1 @ F,0,0,1,0,0,0,1 @ F,0,0,1,0,0,0,1 @ F,0,0,1,0,0,0,1 @ F,0,0,1,0,0,0,1 @ F,0,0,1,0,0,0,1 @ F,0,0,1,0,0,0,1 @ F,0,0,1,0,0,0,1 @ F,0,0,1,0,0,0,1 @ F,0,0,1,0,0,0,1 @ F,0,0,1,0,0,0,1 @ F,0,0,1,0,0,0,1 @ F,0,0,1,0,0,0,1 @ F,0,0,1,0,0,0,1 @ F,0,0,1,0,0,0,1 @ F,0,0,1,0,0,0,1 @ F,0,0,1,0,0,0,1 @ F,0,0,1,0,0,0,1 @ F,0,0,1,0,0,0,1 @ F,0,0,1,0,0,0,1 @ F,0,0,1,0,0,0,1 @ F,0,0,1,0,0,0,1 @ F,0,0,1,0,0,0,1 @ F,0,0,1,0,0,0,1 @ F,0,0,1,0,0,0,1 @ F,0,0,1,0,0,0,1 @ F,0,0,1,0,0,0,1 @ F,0,0,1,0,0,0,1 | F,0,0,1,0,0,0,1 @ F,0,0,1,0,0,0,1 @ F,0,0,1,0,0,0,1 @ F,0,0,1,0,0,0,1 @ F,0,0,1,0,0,0,1 @ F,0,0,1,0,0,0,1 @ F,0,0,1,0,0,0,1 @ F,0,0,1,0,0,0,1 @ F,0,0,1,0,0,0,1 @ F,0,0,1,0,0,0,1 @ F,0,0,1,0,0,0,1 @ F,0,0,1,0,0,0,1 @ F,0,0,1,0,0,0,1 @ F,0,0,1,0,0,0,1 @ F,0,0,1,0,0,0,1 @ F,0,0,1,0,0,0,1 @ F,0,0,1,0,0,0,1 @ F,0,0,1,0,0,0,1 @ F,0,0,1,0,0,0,1 @ F,0,0,1,0,0,0,1 @ F,0,0,1,0,0,0,1 @ F,0,0,1,0,0,0,1 @ F,0,0,1,0,0,0,1 @ F,0,0,1,0,0,0,1 @ F,0,0,1,0,0,0,1 @ F,0,0,1,0,0,0,1 @ F,0,0,1,0,0,0,1 @ F,0,0,1,0,0,0,1 @ F,0,0,1,0,0,0,1 @ F,0,0,1,0,0,0,1 @ F,0,0,1,0,0,0,1 @ F,0,0,1,0,0,0,1 | F,0,0,1,0,0,0,1 @ F,0,0,1,0,0,0,1 @ F,0,0,1,0,0,0,1 @ F,0,0,1,0,0,0,1 @ F,0,0,1,0,0,0,1 @ F,0,0,1,0,0,0,1 @ F,0,0,1,0,0,0,1 @ F,0,0,1,0,0,0,1 @ F,0,0,1,0,0,0,1 @ F,0,0,1,0,0,0,1 @ F,0,0,1,0,0,0,1 @ F,0,0,1,0,0,0,1 @ F,0,0,1,0,0,0,1 @ F,0,0,1,0,0,0,1 @ F,0,0,1,0,0,0,1 @ F,0,0,1,0,0,0,1 @ F,0,0,1,0,0,0,1 @ F,0,0,1,0,0,0,1 @ F,0,0,1,0,0,0,1 @ F,0,0,1,0,0,0,1 @ F,0,0,1,0,0,0,1 @ F,0,0,1,0,0,0,1 @ F,0,0,1,0,0,0,1 @ F,0,0,1,0,0,0,1 @ F,0,0,1,0,0,0,1 @ F,0,0,1,0,0,0,1 @ F,0,0,1,0,0,0,1 @ F,0,0,1,0,0,0,1 @ F,0,0,1,0,0,0,1 @ F,0,0,1,0,0,0,1 @ F,0,0,1,0,0,0,1 @ F,0,0,1,0,0,0,1"
       unit="mm"
       method="auto"
       mode="F"
       radius="1"
       chamfer_steps="1"
       flexible="false"
       use_knot_distance="true"
       apply_no_radius="true"
       apply_with_radius="true"
       only_selected="false"
       hide_knots="false" />
  </defs>
  <sodipodi:namedview
     id="namedview6034"
     pagecolor="#ffffff"
     bordercolor="#000000"
     borderopacity="0.25"
     inkscape:showpageshadow="2"
     inkscape:pageopacity="0.0"
     inkscape:pagecheckerboard="0"
     inkscape:deskcolor="#d1d1d1"
     inkscape:document-units="cm"
     showgrid="false"
     inkscape:zoom="0.70710685"
     inkscape:cx="26.870055"
     inkscape:cy="517.60211"
     inkscape:window-width="1920"
     inkscape:window-height="1009"
     inkscape:window-x="-8"
     inkscape:window-y="-8"
     inkscape:window-maximized="1"
     inkscape:current-layer="layer9"
     showguides="false" />
  <title
     id="title2">SVG Picture created as dynamis-brd.svg date 2023/05/13 16:35:54 </title>
  <desc
     id="desc4">Picture generated by PCBNEW </desc>
  <metadata
     id="metadata6366">
    <rdf:RDF>
      <cc:Work
         rdf:about="">
        <dc:title>SVG Picture created as dynamis-brd.svg date 2023/05/13 16:35:54 </dc:title>
      </cc:Work>
    </rdf:RDF>
  </metadata>
  <g
     inkscape:groupmode="layer"
     id="layer9"
     inkscape:label="case"
     style="display:inline"
     transform="translate(-230218980,-276630000)">
    <g
       inkscape:groupmode="layer"
       id="layer4"
       inkscape:label="top_plate_insert"
       style="display:inline">
      <path
         id="rect409-5"
         style="display:inline;fill:none;stroke:#00ff00;stroke-width:101349;stroke-opacity:1"
         transform="translate(0.40699401,-0.90750572)"
         d="M 230269650,276680670 H 579816300 V 392892330 H 230269650 Z m 305017010,11799440 h 28419950 v 9727950 h -28419950 z m 32457190,4848580 c 0,98110 -9640,195980 -28780,292200 -19140,96220 -47680,190330 -85230,280970 -37540,90640 -83900,177370 -138410,258940 -54500,81580 -116890,157600 -186260,226970 -69370,69370 -145390,131760 -226970,186270 -81570,54500 -168300,100860 -258940,138410 -90640,37540 -184750,66090 -280970,85230 -96220,19140 -194090,28780 -292200,28780 -98110,0 -195980,-9640 -292200,-28780 -96220,-19140 -190330,-47690 -280970,-85230 -90640,-37540 -177370,-83900 -258950,-138410 -81570,-54500 -157590,-116890 -226960,-186270 -69380,-69370 -131770,-145390 -186270,-226960 -54510,-81580 -100870,-168310 -138410,-258950 -37540,-90640 -66090,-184750 -85230,-280970 -19140,-96220 -28780,-194090 -28780,-292200 0,-98110 9640,-195980 28780,-292200 19140,-96220 47690,-190330 85230,-280970 37540,-90640 83900,-177370 138410,-258950 54500,-81570 116890,-157590 186270,-226960 69370,-69380 145390,-131770 226960,-186270 81580,-54510 168310,-100870 258950,-138410 90640,-37540 184750,-66090 280970,-85230 96220,-19140 194090,-28780 292200,-28780 98110,0 195980,9640 292200,28780 96220,19140 190330,47690 280970,85230 90640,37550 177370,83910 258940,138410 81580,54510 157600,116900 226970,186270 69370,69370 131760,145390 186260,226970 54510,81570 100870,168300 138410,258940 37550,90640 66090,184750 85230,280970 19140,96220 28780,194090 28780,292200 z m -33499010,0 c 0,98110 -9640,195980 -28780,292200 -19140,96220 -47680,190330 -85230,280970 -37540,90640 -83900,177370 -138410,258940 -54500,81580 -116890,157600 -186260,226970 -69370,69370 -145390,131760 -226970,186270 -81570,54500 -168300,100860 -258940,138410 -90640,37540 -184750,66090 -280970,85230 -96220,19140 -194090,28780 -292200,28780 -98110,0 -195980,-9640 -292200,-28780 -96220,-19140 -190330,-47690 -280970,-85230 -90640,-37540 -177370,-83900 -258950,-138410 -81570,-54500 -157590,-116890 -226960,-186270 -69380,-69370 -131770,-145390 -186270,-226960 -54510,-81580 -100870,-168310 -138410,-258950 -37540,-90640 -66090,-184750 -85230,-280970 -19140,-96220 -28780,-194090 -28780,-292200 0,-98110 9640,-195980 28780,-292200 19140,-96220 47690,-190330 85230,-280970 37540,-90640 83900,-177370 138410,-258950 54500,-81570 116890,-157590 186270,-226960 69370,-69380 145390,-131770 226960,-186270 81580,-54510 168310,-100870 258950,-138410 90640,-37540 184750,-66090 280970,-85230 96220,-19140 194090,-28780 292200,-28780 98110,0 195980,9640 292200,28780 96220,19140 190330,47690 280970,85230 90640,37550 177370,83910 258940,138410 81580,54510 157600,116900 226970,186270 69370,69370 131760,145390 186260,226970 54510,81570 100870,168300 138410,258940 37550,90640 66090,184750 85230,280970 19140,96220 28780,194090 28780,292200 z m -3997220,8668900 h 38498010 v 38498010 h -38498010 z m -177242280,84121020 c 0,-97360 -9570,-194480 -28560,-289970 -18990,-95490 -47330,-188880 -84580,-278830 -37260,-89950 -83270,-176020 -137360,-256970 -54090,-80950 -116000,-156400 -184850,-225240 -138020,-138020 -301870,-247500 -482210,-322200 -89940,-37260 -183340,-65590 -278830,-84580 -95490,-18990 -192610,-28560 -289970,-28560 -97360,0 -194480,9570 -289970,28560 -95490,19000 -188880,47330 -278830,84580 -180330,74700 -344190,184180 -482210,322200 -138020,138020 -247500,301880 -322200,482210 -37250,89950 -65580,183340 -84580,278830 -18990,95490 -28560,192610 -28560,289970 0,97360 9570,194480 28560,289970 18990,95490 47320,188890 84580,278830 74700,180340 184180,344190 322200,482210 68840,68850 144280,130760 225240,184850 80950,54090 167020,100100 256970,137360 89950,37250 183340,65590 278830,84580 95490,18990 192610,28560 289970,28560 97360,0 194490,-9560 289980,-28560 95480,-18990 188880,-47320 278830,-84580 89950,-37260 176020,-83260 256970,-137350 80950,-54100 156390,-116010 225240,-184850 68840,-68850 130750,-144290 184850,-225240 54090,-80950 100090,-167020 137350,-256970 37260,-89950 65590,-183350 84580,-278830 19000,-95490 28560,-192620 28560,-289980 z m 186632000,0 c 0,-97360 -9570,-194480 -28560,-289970 -18990,-95490 -47330,-188880 -84580,-278830 -37260,-89950 -83270,-176020 -137360,-256970 -54090,-80950 -116000,-156400 -184850,-225240 -138020,-138020 -301870,-247500 -482210,-322200 -89940,-37260 -183340,-65590 -278830,-84580 -95490,-18990 -192610,-28560 -289970,-28560 -97360,0 -194480,9570 -289970,28560 -95490,19000 -188880,47330 -278830,84580 -180330,74700 -344190,184180 -482210,322200 -138020,138020 -247500,301880 -322200,482210 -37250,89950 -65580,183340 -84580,278830 -18990,95490 -28560,192610 -28560,289970 0,97360 9570,194480 28560,289970 18990,95490 47320,188890 84580,278830 74700,180340 184180,344190 322200,482210 68840,68850 144280,130760 225240,184850 80950,54090 167020,100100 256970,137360 89950,37250 183340,65590 278830,84580 95490,18990 192610,28560 289970,28560 97360,0 194490,-9560 289980,-28560 95480,-18990 188880,-47320 278830,-84580 89950,-37260 176020,-83260 256970,-137350 80950,-54100 156390,-116010 225240,-184850 68840,-68850 130750,-144290 184850,-225240 54090,-80950 100090,-167020 137350,-256970 37260,-89950 65590,-183350 84580,-278830 19000,-95490 28560,-192620 28560,-289980 z m -80000000,0 c 0,-97360 -9570,-194480 -28560,-289970 -18990,-95490 -47330,-188880 -84580,-278830 -37260,-89950 -83270,-176020 -137360,-256970 -54090,-80950 -116000,-156400 -184850,-225240 -138020,-138020 -301870,-247500 -482210,-322200 -89940,-37260 -183340,-65590 -278830,-84580 -95490,-18990 -192610,-28560 -289970,-28560 -97360,0 -194480,9570 -289970,28560 -95490,19000 -188880,47330 -278830,84580 -180330,74700 -344190,184180 -482210,322200 -138020,138020 -247500,301880 -322200,482210 -37250,89950 -65580,183340 -84580,278830 -18990,95490 -28560,192610 -28560,289970 0,97360 9570,194480 28560,289970 18990,95490 47320,188890 84580,278830 74700,180340 184180,344190 322200,482210 68840,68850 144280,130760 225240,184850 80950,54090 167020,100100 256970,137360 89950,37250 183340,65590 278830,84580 95490,18990 192610,28560 289970,28560 97360,0 194490,-9560 289980,-28560 95480,-18990 188880,-47320 278830,-84580 89950,-37260 176020,-83260 256970,-137350 80950,-54100 156390,-116010 225240,-184850 68840,-68850 130750,-144290 184850,-225240 54090,-80950 100090,-167020 137350,-256970 37260,-89950 65590,-183350 84580,-278830 19000,-95490 28560,-192620 28560,-289980 z m -186632000,0 c 0,-97360 -9570,-194480 -28560,-289970 -18990,-95490 -47330,-188880 -84580,-278830 -37260,-89950 -83270,-176020 -137360,-256970 -54090,-80950 -116000,-156400 -184850,-225240 -138020,-138020 -301870,-247500 -482210,-322200 -89940,-37260 -183340,-65590 -278830,-84580 -95490,-18990 -192610,-28560 -289970,-28560 -97360,0 -194480,9570 -289970,28560 -95490,19000 -188880,47330 -278830,84580 -180330,74700 -344190,184180 -482210,322200 -138020,138020 -247500,301880 -322200,482210 -37250,89950 -65580,183340 -84580,278830 -18990,95490 -28560,192610 -28560,289970 0,97360 9570,194480 28560,289970 18990,95490 47320,188890 84580,278830 74700,180340 184180,344190 322200,482210 68840,68850 144280,130760 225240,184850 80950,54090 167020,100100 256970,137360 89950,37250 183340,65590 278830,84580 95490,18990 192610,28560 289970,28560 97360,0 194490,-9560 289980,-28560 95480,-18990 188880,-47320 278830,-84580 89950,-37260 176020,-83260 256970,-137350 80950,-54100 156390,-116010 225240,-184850 68840,-68850 130750,-144290 184850,-225240 54090,-80950 100090,-167020 137350,-256970 37260,-89950 65590,-183350 84580,-278830 19000,-95490 28560,-192620 28560,-289980 z m 80000000,-102669010 c 0,97360 -9560,194490 -28560,289980 -18990,95480 -47320,188880 -84580,278830 -37260,89950 -83260,176020 -137350,256970 -54100,80950 -116010,156390 -184850,225240 -68850,68840 -144290,130750 -225240,184850 -80950,54090 -167020,100090 -256970,137350 -89950,37260 -183350,65590 -278830,84580 -95490,19000 -192620,28560 -289980,28560 -97360,0 -194480,-9570 -289970,-28560 -95490,-18990 -188880,-47330 -278830,-84580 -89950,-37260 -176020,-83270 -256970,-137360 -80960,-54090 -156400,-116000 -225240,-184850 -138020,-138020 -247500,-301870 -322200,-482210 -37260,-89940 -65590,-183340 -84580,-278830 -18990,-95490 -28560,-192610 -28560,-289970 0,-97360 9570,-194480 28560,-289970 19000,-95490 47330,-188880 84580,-278830 74700,-180330 184180,-344190 322200,-482210 138020,-138020 301880,-247500 482210,-322200 89950,-37250 183340,-65580 278830,-84580 95490,-18990 192610,-28560 289970,-28560 97360,0 194480,9570 289970,28560 95490,18990 188890,47320 278830,84580 180340,74700 344190,184180 482210,322200 68850,68840 130760,144290 184850,225240 54090,80950 100100,167020 137360,256970 37250,89950 65590,183340 84580,278830 18990,95490 28560,192610 28560,289970 z m 186632000,0 c 0,97360 -9560,194490 -28560,289980 -18990,95480 -47320,188880 -84580,278830 -37260,89950 -83260,176020 -137350,256970 -54100,80950 -116010,156390 -184850,225240 -68850,68840 -144290,130750 -225240,184850 -80950,54090 -167020,100090 -256970,137350 -89950,37260 -183350,65590 -278830,84580 -95490,19000 -192620,28560 -289980,28560 -97360,0 -194480,-9570 -289970,-28560 -95490,-18990 -188880,-47330 -278830,-84580 -89950,-37260 -176020,-83270 -256970,-137360 -80960,-54090 -156400,-116000 -225240,-184850 -138020,-138020 -247500,-301870 -322200,-482210 -37260,-89940 -65590,-183340 -84580,-278830 -18990,-95490 -28560,-192610 -28560,-289970 0,-97360 9570,-194480 28560,-289970 19000,-95490 47330,-188880 84580,-278830 74700,-180330 184180,-344190 322200,-482210 138020,-138020 301880,-247500 482210,-322200 89950,-37250 183340,-65580 278830,-84580 95490,-18990 192610,-28560 289970,-28560 97360,0 194480,9570 289970,28560 95490,18990 188890,47320 278830,84580 180340,74700 344190,184180 482210,322200 68850,68840 130760,144290 184850,225240 54090,80950 100100,167020 137360,256970 37250,89950 65590,183340 84580,278830 18990,95490 28560,192610 28560,289970 z m -80000000,0 c 0,97360 -9560,194490 -28560,289980 -18990,95480 -47320,188880 -84580,278830 -37260,89950 -83260,176020 -137350,256970 -54100,80950 -116010,156390 -184850,225240 -68850,68840 -144290,130750 -225240,184850 -80950,54090 -167020,100090 -256970,137350 -89950,37260 -183350,65590 -278830,84580 -95490,19000 -192620,28560 -289980,28560 -97360,0 -194480,-9570 -289970,-28560 -95490,-18990 -188880,-47330 -278830,-84580 -89950,-37260 -176020,-83270 -256970,-137360 -80960,-54090 -156400,-116000 -225240,-184850 -138020,-138020 -247500,-301870 -322200,-482210 -37260,-89940 -65590,-183340 -84580,-278830 -18990,-95490 -28560,-192610 -28560,-289970 0,-97360 9570,-194480 28560,-289970 19000,-95490 47330,-188880 84580,-278830 74700,-180330 184180,-344190 322200,-482210 138020,-138020 301880,-247500 482210,-322200 89950,-37250 183340,-65580 278830,-84580 95490,-18990 192610,-28560 289970,-28560 97360,0 194480,9570 289970,28560 95490,18990 188890,47320 278830,84580 180340,74700 344190,184180 482210,322200 68850,68840 130760,144290 184850,225240 54090,80950 100100,167020 137360,256970 37250,89950 65590,183340 84580,278830 18990,95490 28560,192610 28560,289970 z m -186632000,0 c 0,97360 -9560,194490 -28560,289980 -18990,95480 -47320,188880 -84580,278830 -37260,89950 -83260,176020 -137350,256970 -54100,80950 -116010,156390 -184850,225240 -68850,68840 -144290,130750 -225240,184850 -80950,54090 -167020,100090 -256970,137350 -89950,37260 -183350,65590 -278830,84580 -95490,19000 -192620,28560 -289980,28560 -97360,0 -194480,-9570 -289970,-28560 -95490,-18990 -188880,-47330 -278830,-84580 -89950,-37260 -176020,-83270 -256970,-137360 -80960,-54090 -156400,-116000 -225240,-184850 -138020,-138020 -247500,-301870 -322200,-482210 -37260,-89940 -65590,-183340 -84580,-278830 -18990,-95490 -28560,-192610 -28560,-289970 0,-97360 9570,-194480 28560,-289970 19000,-95490 47330,-188880 84580,-278830 74700,-180330 184180,-344190 322200,-482210 138020,-138020 301880,-247500 482210,-322200 89950,-37250 183340,-65580 278830,-84580 95490,-18990 192610,-28560 289970,-28560 97360,0 194480,9570 289970,28560 95490,18990 188890,47320 278830,84580 180340,74700 344190,184180 482210,322200 68850,68840 130760,144290 184850,225240 54090,80950 100100,167020 137360,256970 37250,89950 65590,183340 84580,278830 18990,95490 28560,192610 28560,289970 z m 298550420,58838380 c 0,97360 9570,194490 28560,289980 18990,95480 47320,188880 84580,278830 74700,180330 184180,344190 322200,482210 68850,68840 144290,130750 225240,184850 80950,54090 167030,100090 256970,137350 89950,37260 183350,65590 278840,84580 95490,19000 192610,28560 289970,28560 97360,0 194480,-9570 289970,-28560 95490,-18990 188880,-47330 278830,-84580 89950,-37260 176020,-83270 256970,-137360 80960,-54090 156400,-116000 225240,-184850 68840,-68840 130760,-144280 184850,-225230 54090,-80960 100090,-167030 137350,-256980 37260,-89940 65590,-183340 84580,-278830 19000,-95490 28560,-192610 28560,-289970 0,-97360 -9570,-194480 -28560,-289970 -18990,-95490 -47320,-188880 -84580,-278830 -37260,-89950 -83270,-176020 -137360,-256970 -54090,-80950 -116000,-156390 -184840,-225240 -138020,-138020 -301880,-247500 -482210,-322200 -89950,-37250 -183340,-65580 -278830,-84580 -95490,-18990 -192610,-28560 -289970,-28560 -97360,0 -194480,9570 -289970,28560 -95490,18990 -188880,47320 -278830,84580 -180340,74700 -344190,184180 -482210,322200 -138020,138020 -247510,301870 -322210,482210 -37250,89950 -65580,183340 -84580,278830 -18990,95490 -28560,192610 -28560,289970 z m -333031300,0 c 0,97360 -9560,194480 -28560,289970 -18990,95490 -47320,188890 -84580,278830 -37260,89950 -83260,176020 -137350,256980 -54090,80950 -116010,156390 -184850,225230 -68840,68850 -144280,130760 -225240,184850 -80950,54090 -167020,100100 -256970,137360 -89950,37250 -183340,65590 -278830,84580 -95490,18990 -192610,28560 -289970,28560 -97360,0 -194480,-9560 -289970,-28560 -95490,-18990 -188890,-47320 -278840,-84580 -89940,-37260 -176020,-83260 -256970,-137350 -80950,-54100 -156390,-116010 -225240,-184850 -138020,-138020 -247500,-301880 -322200,-482210 -37260,-89950 -65590,-183350 -84580,-278830 -18990,-95490 -28560,-192620 -28560,-289980 0,-97360 9570,-194480 28560,-289970 19000,-95490 47330,-188880 84580,-278830 74700,-180340 184190,-344190 322210,-482210 138020,-138020 301870,-247500 482210,-322200 89950,-37260 183340,-65590 278830,-84580 95490,-18990 192610,-28560 289970,-28560 97360,0 194480,9570 289970,28560 95490,19000 188880,47330 278830,84580 180330,74700 344190,184180 482210,322200 68840,68850 130750,144290 184840,225240 54090,80950 100100,167020 137360,256970 37260,89950 65590,183340 84580,278830 18990,95490 28560,192610 28560,289970 z m 291723190,20066630 h -2761540 V 286175280 H 239763780 v 97223650 h 263934330 v -19052320 h 7510000 v 19052320 h 59154300 v -40103320 h -40114760 z"
         sodipodi:nodetypes="ccccccccccsssssssssssssssssssssssssssssssssssssssssssssssssssssssssssssssssscccccssssssssssssssssssssssssssssssssssssssssssssssssssssssssssssssssssssssssssssssssssssssssssssssssssssssssssssssssssssssssssssssssssssssssssssssssssssssssssssssssssssssssssssssssssssssssssssssssssssssssssssssssssssssssssssssssssssssssssssssssssssssssssssssssssssssssssssssssssssssssssssssssssccccccccccccc" />
    </g>
  </g>
</svg>
