<?xml version="1.0" encoding="UTF-8" standalone="no"?>
<svg
   version="1.1"
   width="349.64801mm"
   height="116.31301mm"
   viewBox="0 0 3.4964801e+08 1.1631301e+08"
   id="svg6032"
   sodipodi:docname="top_case_insert.svg"
   inkscape:version="1.2.2 (732a01da63, 2022-12-09)"
   inkscape:export-filename="..\case\3dp\bottom.svg"
   inkscape:export-xdpi="96"
   inkscape:export-ydpi="96"
   xmlns:inkscape="http://www.inkscape.org/namespaces/inkscape"
   xmlns:sodipodi="http://sodipodi.sourceforge.net/DTD/sodipodi-0.dtd"
   xmlns="http://www.w3.org/2000/svg"
   xmlns:svg="http://www.w3.org/2000/svg"
   xmlns:rdf="http://www.w3.org/1999/02/22-rdf-syntax-ns#"
   xmlns:cc="http://creativecommons.org/ns#"
   xmlns:dc="http://purl.org/dc/elements/1.1/">
  <defs
     id="defs6036">
    <inkscape:path-effect
       effect="fillet_chamfer"
       id="path-effect2784"
       is_visible="true"
       lpeversion="1"
       nodesatellites_param="F,0,0,1,0,0,0,1 @ F,0,0,1,0,0,0,1 @ F,0,0,1,0,0,0,1 @ F,0,0,1,0,0,0,1 @ F,0,0,1,0,0,0,1 @ F,0,0,1,0,0,0,1 @ F,0,0,1,0,0,0,1 @ F,0,0,1,0,0,0,1 @ F,0,0,1,0,0,0,1 @ F,0,0,1,0,0,0,1 @ F,0,0,1,0,0,0,1 @ F,0,0,1,0,0,0,1 @ F,0,0,1,0,0,0,1 @ F,0,0,1,0,0,0,1 @ F,0,0,1,0,0,0,1 @ F,0,0,1,0,0,0,1 @ F,0,0,1,0,0,0,1 @ F,0,0,1,0,0,0,1 @ F,0,0,1,0,0,0,1 @ F,0,0,1,0,0,0,1 @ F,0,0,1,0,0,0,1 @ F,0,0,1,0,0,0,1 @ F,0,0,1,0,0,0,1 @ F,0,0,1,0,0,0,1 @ F,0,0,1,0,0,0,1 @ F,0,0,1,0,0,0,1 @ F,0,0,1,0,0,0,1 @ F,0,0,1,0,0,0,1 @ F,0,0,1,0,0,0,1 @ F,0,0,1,0,0,0,1 @ F,0,0,1,0,0,0,1 @ F,0,0,1,0,0,0,1 @ F,0,0,1,0,0,0,1 @ F,0,0,1,0,0,0,1 @ F,0,0,1,0,0,0,1 @ F,0,0,1,0,0,0,1 @ F,0,0,1,0,0,0,1 @ F,0,0,1,0,0,0,1 @ F,0,0,1,0,0,0,1 @ F,0,0,1,0,0,0,1 @ F,0,0,1,0,0,0,1 @ F,0,0,1,0,0,0,1 @ F,0,0,1,0,0,0,1 @ F,0,0,1,0,0,0,1 @ F,0,0,1,0,0,0,1 @ F,0,0,1,0,0,0,1 @ F,0,0,1,0,0,0,1 @ F,0,0,1,0,0,0,1 @ F,0,0,1,0,0,0,1 @ F,0,0,1,0,0,0,1 @ F,0,0,1,0,0,0,1 @ F,0,0,1,0,0,0,1 @ F,0,0,1,0,0,0,1 @ F,0,0,1,0,0,0,1 @ F,0,0,1,0,0,0,1 @ F,0,0,1,0,0,0,1 @ F,0,0,1,0,0,0,1 @ F,0,0,1,0,0,0,1 @ F,0,0,1,0,0,0,1 @ F,0,0,1,0,0,0,1 @ F,0,0,1,0,0,0,1 @ F,0,0,1,0,0,0,1 @ F,0,0,1,0,0,0,1 @ F,0,0,1,0,0,0,1 @ F,0,0,1,0,0,0,1 @ F,0,0,1,0,0,0,1 @ F,0,0,1,0,0,0,1 @ F,0,0,1,0,0,0,1 @ F,0,0,1,0,0,0,1 @ F,0,0,1,0,0,0,1 @ F,0,0,1,0,0,0,1 @ F,0,0,1,0,0,0,1 @ F,0,0,1,0,0,0,1 @ F,0,0,1,0,0,0,1 @ F,0,0,1,0,0,0,1 @ F,0,0,1,0,0,0,1 @ F,0,0,1,0,0,0,1 @ F,0,0,1,0,0,0,1 @ F,0,0,1,0,0,0,1 @ F,0,0,1,0,0,0,1 @ F,0,0,1,0,0,0,1 @ F,0,0,1,0,0,0,1 @ F,0,0,1,0,0,0,1 @ F,0,0,1,0,0,0,1 @ F,0,0,1,0,0,0,1 @ F,0,0,1,0,0,0,1 @ F,0,0,1,0,0,0,1 @ F,0,0,1,0,0,0,1 @ F,0,0,1,0,0,0,1 @ F,0,0,1,0,0,0,1 @ F,0,0,1,0,0,0,1 @ F,0,0,1,0,0,0,1 @ F,0,0,1,0,0,0,1 @ F,0,0,1,0,0,0,1 @ F,0,0,1,0,0,0,1 @ F,0,0,1,0,0,0,1 @ F,0,0,1,0,0,0,1 @ F,0,0,1,0,0,0,1 @ F,0,0,1,0,0,0,1 @ F,0,0,1,0,0,0,1 @ F,0,0,1,0,0,0,1 @ F,0,0,1,0,0,0,1 @ F,0,0,1,0,0,0,1 @ F,0,0,1,0,0,0,1 @ F,0,0,1,0,0,0,1 @ F,0,0,1,0,0,0,1 @ F,0,0,1,0,0,0,1 @ F,0,0,1,0,0,0,1 @ F,0,0,1,0,0,0,1 @ F,0,0,1,0,0,0,1 @ F,0,0,1,0,0,0,1 @ F,0,0,1,0,0,0,1 @ F,0,0,1,0,0,0,1 @ F,0,0,1,0,0,0,1 @ F,0,0,1,0,0,0,1 @ F,0,0,1,0,0,0,1 @ F,0,0,1,0,0,0,1 @ F,0,0,1,0,0,0,1 @ F,0,0,1,0,0,0,1 @ F,0,0,1,0,0,0,1 @ F,0,0,1,0,0,0,1 @ F,0,0,1,0,0,0,1 @ F,0,0,1,0,0,0,1 @ F,0,0,1,0,0,0,1 @ F,0,0,1,0,0,0,1 @ F,0,0,1,0,0,0,1 @ F,0,0,1,0,0,0,1 @ F,0,0,1,0,0,0,1 @ F,0,0,1,0,0,0,1 @ F,0,0,1,0,0,0,1 @ F,0,0,1,0,0,0,1 @ F,0,0,1,0,0,0,1 @ F,0,0,1,0,0,0,1 @ F,0,0,1,0,0,0,1 @ F,0,0,1,0,0,0,1 @ F,0,0,1,0,0,0,1 @ F,0,0,1,0,0,0,1 @ F,0,0,1,0,0,0,1 @ F,0,0,1,0,0,0,1 @ F,0,0,1,0,0,0,1 @ F,0,0,1,0,0,0,1 @ F,0,0,1,0,0,0,1 @ F,0,0,1,0,0,0,1 @ F,0,0,1,0,0,0,1 @ F,0,0,1,0,0,0,1 @ F,0,0,1,0,0,0,1 @ F,0,0,1,0,0,0,1 @ F,0,0,1,0,0,0,1 @ F,0,0,1,0,0,0,1 @ F,0,0,1,0,0,0,1 @ F,0,0,1,0,0,0,1 @ F,0,0,1,0,0,0,1 @ F,0,0,1,0,0,0,1 @ F,0,0,1,0,0,0,1 @ F,0,0,1,0,0,0,1 @ F,0,0,1,0,0,0,1 @ F,0,0,1,0,0,0,1 @ F,0,0,1,0,0,0,1 @ F,0,0,1,0,0,0,1 @ F,0,0,1,0,0,0,1 @ F,0,0,1,0,0,0,1 @ F,0,0,1,0,0,0,1 @ F,0,0,1,0,0,0,1 @ F,0,0,1,0,0,0,1 @ F,0,0,1,0,0,0,1 @ F,0,0,1,0,0,0,1 @ F,0,0,1,0,0,0,1 @ F,0,0,1,0,0,0,1 @ F,0,0,1,0,0,0,1 @ F,0,0,1,0,0,0,1 @ F,0,0,1,0,0,0,1 @ F,0,0,1,0,0,0,1 @ F,0,0,1,0,0,0,1 @ F,0,0,1,0,0,0,1 @ F,0,0,1,0,0,0,1 @ F,0,0,1,0,0,0,1 @ F,0,0,1,0,0,0,1 @ F,0,0,1,0,0,0,1 @ F,0,0,1,0,0,0,1 @ F,0,0,1,0,0,0,1 @ F,0,0,1,0,0,0,1 @ F,0,0,1,0,0,0,1 @ F,0,0,1,0,0,0,1 @ F,0,0,1,0,0,0,1 @ F,0,0,1,0,0,0,1 @ F,0,0,1,0,0,0,1 @ F,0,0,1,0,0,0,1 @ F,0,0,1,0,0,0,1 @ F,0,0,1,0,0,0,1 @ F,0,0,1,0,0,0,1 @ F,0,0,1,0,0,0,1 @ F,0,0,1,0,0,0,1 @ F,0,0,1,0,0,0,1 @ F,0,0,1,0,0,0,1 | F,0,0,1,0,0,0,1 @ F,0,0,1,0,0,0,1 @ F,0,0,1,0,0,0,1 @ F,0,0,1,0,0,0,1 @ F,0,0,1,0,0,0,1 @ F,0,0,1,0,0,0,1 @ F,0,0,1,0,0,0,1 @ F,0,0,1,0,0,0,1 @ F,0,0,1,0,0,0,1 @ F,0,0,1,0,0,0,1 @ F,0,0,1,0,0,0,1 @ F,0,0,1,0,0,0,1 @ F,0,0,1,0,0,0,1 @ F,0,0,1,0,0,0,1 @ F,0,0,1,0,0,0,1 @ F,0,0,1,0,0,0,1 @ F,0,0,1,0,0,0,1 @ F,0,0,1,0,0,0,1 @ F,0,0,1,0,0,0,1 @ F,0,0,1,0,0,0,1 @ F,0,0,1,0,0,0,1 @ F,0,0,1,0,0,0,1 @ F,0,0,1,0,0,0,1 @ F,0,0,1,0,0,0,1 @ F,0,0,1,0,0,0,1 @ F,0,0,1,0,0,0,1 @ F,0,0,1,0,0,0,1 @ F,0,0,1,0,0,0,1 @ F,0,0,1,0,0,0,1 @ F,0,0,1,0,0,0,1 @ F,0,0,1,0,0,0,1 @ F,0,0,1,0,0,0,1 | F,0,0,1,0,0,0,1 @ F,0,0,1,0,0,0,1 @ F,0,0,1,0,0,0,1 @ F,0,0,1,0,0,0,1 @ F,0,0,1,0,0,0,1 @ F,0,0,1,0,0,0,1 @ F,0,0,1,0,0,0,1 @ F,0,0,1,0,0,0,1 @ F,0,0,1,0,0,0,1 @ F,0,0,1,0,0,0,1 @ F,0,0,1,0,0,0,1 @ F,0,0,1,0,0,0,1 @ F,0,0,1,0,0,0,1 @ F,0,0,1,0,0,0,1 @ F,0,0,1,0,0,0,1 @ F,0,0,1,0,0,0,1 @ F,0,0,1,0,0,0,1 @ F,0,0,1,0,0,0,1 @ F,0,0,1,0,0,0,1 @ F,0,0,1,0,0,0,1 @ F,0,0,1,0,0,0,1 @ F,0,0,1,0,0,0,1 @ F,0,0,1,0,0,0,1 @ F,0,0,1,0,0,0,1 @ F,0,0,1,0,0,0,1 @ F,0,0,1,0,0,0,1 @ F,0,0,1,0,0,0,1 @ F,0,0,1,0,0,0,1 @ F,0,0,1,0,0,0,1 @ F,0,0,1,0,0,0,1 @ F,0,0,1,0,0,0,1 @ F,0,0,1,0,0,0,1 | F,0,0,1,0,0,0,1 @ F,0,0,1,0,0,0,1 @ F,0,0,1,0,0,0,1 @ F,0,0,1,0,0,0,1 @ F,0,0,1,0,0,0,1 @ F,0,0,1,0,0,0,1 @ F,0,0,1,0,0,0,1 @ F,0,0,1,0,0,0,1 @ F,0,0,1,0,0,0,1 @ F,0,0,1,0,0,0,1 @ F,0,0,1,0,0,0,1 @ F,0,0,1,0,0,0,1 @ F,0,0,1,0,0,0,1 @ F,0,0,1,0,0,0,1 @ F,0,0,1,0,0,0,1 @ F,0,0,1,0,0,0,1 @ F,0,0,1,0,0,0,1 @ F,0,0,1,0,0,0,1 @ F,0,0,1,0,0,0,1 @ F,0,0,1,0,0,0,1 @ F,0,0,1,0,0,0,1 @ F,0,0,1,0,0,0,1 @ F,0,0,1,0,0,0,1 @ F,0,0,1,0,0,0,1 @ F,0,0,1,0,0,0,1 @ F,0,0,1,0,0,0,1 @ F,0,0,1,0,0,0,1 @ F,0,0,1,0,0,0,1 @ F,0,0,1,0,0,0,1 @ F,0,0,1,0,0,0,1 @ F,0,0,1,0,0,0,1 @ F,0,0,1,0,0,0,1 | F,0,0,1,0,0,0,1 @ F,0,0,1,0,0,0,1 @ F,0,0,1,0,0,0,1 @ F,0,0,1,0,0,0,1 @ F,0,0,1,0,0,0,1 @ F,0,0,1,0,0,0,1 @ F,0,0,1,0,0,0,1 @ F,0,0,1,0,0,0,1 @ F,0,0,1,0,0,0,1 @ F,0,0,1,0,0,0,1 @ F,0,0,1,0,0,0,1 @ F,0,0,1,0,0,0,1 @ F,0,0,1,0,0,0,1 @ F,0,0,1,0,0,0,1 @ F,0,0,1,0,0,0,1 @ F,0,0,1,0,0,0,1 @ F,0,0,1,0,0,0,1 @ F,0,0,1,0,0,0,1 @ F,0,0,1,0,0,0,1 @ F,0,0,1,0,0,0,1 @ F,0,0,1,0,0,0,1 @ F,0,0,1,0,0,0,1 @ F,0,0,1,0,0,0,1 @ F,0,0,1,0,0,0,1 @ F,0,0,1,0,0,0,1 @ F,0,0,1,0,0,0,1 @ F,0,0,1,0,0,0,1 @ F,0,0,1,0,0,0,1 @ F,0,0,1,0,0,0,1 @ F,0,0,1,0,0,0,1 @ F,0,0,1,0,0,0,1 @ F,0,0,1,0,0,0,1 | F,0,0,1,0,0,0,1 @ F,0,0,1,0,0,0,1 @ F,0,0,1,0,0,0,1 @ F,0,0,1,0,0,0,1 @ F,0,0,1,0,0,0,1 @ F,0,0,1,0,0,0,1 @ F,0,0,1,0,0,0,1 @ F,0,0,1,0,0,0,1 @ F,0,0,1,0,0,0,1 @ F,0,0,1,0,0,0,1 @ F,0,0,1,0,0,0,1 @ F,0,0,1,0,0,0,1 @ F,0,0,1,0,0,0,1 @ F,0,0,1,0,0,0,1 @ F,0,0,1,0,0,0,1 @ F,0,0,1,0,0,0,1 @ F,0,0,1,0,0,0,1 @ F,0,0,1,0,0,0,1 @ F,0,0,1,0,0,0,1 @ F,0,0,1,0,0,0,1 @ F,0,0,1,0,0,0,1 @ F,0,0,1,0,0,0,1 @ F,0,0,1,0,0,0,1 @ F,0,0,1,0,0,0,1 @ F,0,0,1,0,0,0,1 @ F,0,0,1,0,0,0,1 @ F,0,0,1,0,0,0,1 @ F,0,0,1,0,0,0,1 @ F,0,0,1,0,0,0,1 @ F,0,0,1,0,0,0,1 @ F,0,0,1,0,0,0,1 @ F,0,0,1,0,0,0,1 | F,0,0,1,0,0,0,1 @ F,0,0,1,0,0,0,1 @ F,0,0,1,0,0,0,1 @ F,0,0,1,0,0,0,1 @ F,0,0,1,0,0,0,1 @ F,0,0,1,0,0,0,1 @ F,0,0,1,0,0,0,1 @ F,0,0,1,0,0,0,1 @ F,0,0,1,0,0,0,1 @ F,0,0,1,0,0,0,1 @ F,0,0,1,0,0,0,1 @ F,0,0,1,0,0,0,1 @ F,0,0,1,0,0,0,1 @ F,0,0,1,0,0,0,1 @ F,0,0,1,0,0,0,1 @ F,0,0,1,0,0,0,1 @ F,0,0,1,0,0,0,1 @ F,0,0,1,0,0,0,1 @ F,0,0,1,0,0,0,1 @ F,0,0,1,0,0,0,1 @ F,0,0,1,0,0,0,1 @ F,0,0,1,0,0,0,1 @ F,0,0,1,0,0,0,1 @ F,0,0,1,0,0,0,1 @ F,0,0,1,0,0,0,1 @ F,0,0,1,0,0,0,1 @ F,0,0,1,0,0,0,1 @ F,0,0,1,0,0,0,1 @ F,0,0,1,0,0,0,1 @ F,0,0,1,0,0,0,1 @ F,0,0,1,0,0,0,1 @ F,0,0,1,0,0,0,1 | F,0,0,1,0,0,0,1 @ F,0,0,1,0,0,0,1 @ F,0,0,1,0,0,0,1 @ F,0,0,1,0,0,0,1 @ F,0,0,1,0,0,0,1 @ F,0,0,1,0,0,0,1 @ F,0,0,1,0,0,0,1 @ F,0,0,1,0,0,0,1 @ F,0,0,1,0,0,0,1 @ F,0,0,1,0,0,0,1 @ F,0,0,1,0,0,0,1 @ F,0,0,1,0,0,0,1 @ F,0,0,1,0,0,0,1 @ F,0,0,1,0,0,0,1 @ F,0,0,1,0,0,0,1 @ F,0,0,1,0,0,0,1 @ F,0,0,1,0,0,0,1 @ F,0,0,1,0,0,0,1 @ F,0,0,1,0,0,0,1 @ F,0,0,1,0,0,0,1 @ F,0,0,1,0,0,0,1 @ F,0,0,1,0,0,0,1 @ F,0,0,1,0,0,0,1 @ F,0,0,1,0,0,0,1 @ F,0,0,1,0,0,0,1 @ F,0,0,1,0,0,0,1 @ F,0,0,1,0,0,0,1 @ F,0,0,1,0,0,0,1 @ F,0,0,1,0,0,0,1 @ F,0,0,1,0,0,0,1 @ F,0,0,1,0,0,0,1 @ F,0,0,1,0,0,0,1 | F,0,0,1,0,0,0,1 @ F,0,0,1,0,0,0,1 @ F,0,0,1,0,0,0,1 @ F,0,0,1,0,0,0,1 @ F,0,0,1,0,0,0,1 @ F,0,0,1,0,0,0,1 @ F,0,0,1,0,0,0,1 @ F,0,0,1,0,0,0,1 @ F,0,0,1,0,0,0,1 @ F,0,0,1,0,0,0,1 @ F,0,0,1,0,0,0,1 @ F,0,0,1,0,0,0,1 @ F,0,0,1,0,0,0,1 @ F,0,0,1,0,0,0,1 @ F,0,0,1,0,0,0,1 @ F,0,0,1,0,0,0,1 @ F,0,0,1,0,0,0,1 @ F,0,0,1,0,0,0,1 @ F,0,0,1,0,0,0,1 @ F,0,0,1,0,0,0,1 @ F,0,0,1,0,0,0,1 @ F,0,0,1,0,0,0,1 @ F,0,0,1,0,0,0,1 @ F,0,0,1,0,0,0,1 @ F,0,0,1,0,0,0,1 @ F,0,0,1,0,0,0,1 @ F,0,0,1,0,0,0,1 @ F,0,0,1,0,0,0,1 @ F,0,0,1,0,0,0,1 @ F,0,0,1,0,0,0,1 @ F,0,0,1,0,0,0,1 @ F,0,0,1,0,0,0,1 | F,0,0,1,0,0,0,1 @ F,0,0,1,0,0,0,1 @ F,0,0,1,0,0,0,1 @ F,0,0,1,0,0,0,1 @ F,0,0,1,0,0,0,1 @ F,0,0,1,0,0,0,1 @ F,0,0,1,0,0,0,1 @ F,0,0,1,0,0,0,1 @ F,0,0,1,0,0,0,1 @ F,0,0,1,0,0,0,1 @ F,0,0,1,0,0,0,1 @ F,0,0,1,0,0,0,1 @ F,0,0,1,0,0,0,1 @ F,0,0,1,0,0,0,1 @ F,0,0,1,0,0,0,1 @ F,0,0,1,0,0,0,1 @ F,0,0,1,0,0,0,1 @ F,0,0,1,0,0,0,1 @ F,0,0,1,0,0,0,1 @ F,0,0,1,0,0,0,1 @ F,0,0,1,0,0,0,1 @ F,0,0,1,0,0,0,1 @ F,0,0,1,0,0,0,1 @ F,0,0,1,0,0,0,1 @ F,0,0,1,0,0,0,1 @ F,0,0,1,0,0,0,1 @ F,0,0,1,0,0,0,1 @ F,0,0,1,0,0,0,1 @ F,0,0,1,0,0,0,1 @ F,0,0,1,0,0,0,1 @ F,0,0,1,0,0,0,1 @ F,0,0,1,0,0,0,1 | F,0,0,1,0,0,0,1 @ F,0,0,1,0,0,0,1 @ F,0,0,1,0,0,0,1 @ F,0,0,1,0,0,0,1 @ F,0,0,1,0,0,0,1 @ F,0,0,1,0,0,0,1 @ F,0,0,1,0,0,0,1 @ F,0,0,1,0,0,0,1 @ F,0,0,1,0,0,0,1 @ F,0,0,1,0,0,0,1 @ F,0,0,1,0,0,0,1 @ F,0,0,1,0,0,0,1 @ F,0,0,1,0,0,0,1 @ F,0,0,1,0,0,0,1 @ F,0,0,1,0,0,0,1 @ F,0,0,1,0,0,0,1 @ F,0,0,1,0,0,0,1 @ F,0,0,1,0,0,0,1 @ F,0,0,1,0,0,0,1 @ F,0,0,1,0,0,0,1 @ F,0,0,1,0,0,0,1 @ F,0,0,1,0,0,0,1 @ F,0,0,1,0,0,0,1 @ F,0,0,1,0,0,0,1 @ F,0,0,1,0,0,0,1 @ F,0,0,1,0,0,0,1 @ F,0,0,1,0,0,0,1 @ F,0,0,1,0,0,0,1 @ F,0,0,1,0,0,0,1 @ F,0,0,1,0,0,0,1 @ F,0,0,1,0,0,0,1 @ F,0,0,1,0,0,0,1 | F,0,0,1,0,0,0,1 @ F,0,0,1,0,0,0,1 @ F,0,0,1,0,0,0,1 @ F,0,0,1,0,0,0,1 @ F,0,0,1,0,0,0,1 @ F,0,0,1,0,0,0,1 @ F,0,0,1,0,0,0,1 @ F,0,0,1,0,0,0,1 @ F,0,0,1,0,0,0,1 @ F,0,0,1,0,0,0,1 @ F,0,0,1,0,0,0,1 @ F,0,0,1,0,0,0,1 @ F,0,0,1,0,0,0,1 @ F,0,0,1,0,0,0,1 @ F,0,0,1,0,0,0,1 @ F,0,0,1,0,0,0,1 @ F,0,0,1,0,0,0,1 @ F,0,0,1,0,0,0,1 @ F,0,0,1,0,0,0,1 @ F,0,0,1,0,0,0,1 @ F,0,0,1,0,0,0,1 @ F,0,0,1,0,0,0,1 @ F,0,0,1,0,0,0,1 @ F,0,0,1,0,0,0,1 @ F,0,0,1,0,0,0,1 @ F,0,0,1,0,0,0,1 @ F,0,0,1,0,0,0,1 @ F,0,0,1,0,0,0,1 @ F,0,0,1,0,0,0,1 @ F,0,0,1,0,0,0,1 @ F,0,0,1,0,0,0,1 @ F,0,0,1,0,0,0,1 | F,0,0,1,0,0,0,1 @ F,0,0,1,0,0,0,1 @ F,0,0,1,0,0,0,1 @ F,0,0,1,0,0,0,1 @ F,0,0,1,0,0,0,1 @ F,0,0,1,0,0,0,1 @ F,0,0,1,0,0,0,1 @ F,0,0,1,0,0,0,1 @ F,0,0,1,0,0,0,1 @ F,0,0,1,0,0,0,1 @ F,0,0,1,0,0,0,1 @ F,0,0,1,0,0,0,1 @ F,0,0,1,0,0,0,1 @ F,0,0,1,0,0,0,1 @ F,0,0,1,0,0,0,1 @ F,0,0,1,0,0,0,1 @ F,0,0,1,0,0,0,1 @ F,0,0,1,0,0,0,1 @ F,0,0,1,0,0,0,1 @ F,0,0,1,0,0,0,1 @ F,0,0,1,0,0,0,1 @ F,0,0,1,0,0,0,1 @ F,0,0,1,0,0,0,1 @ F,0,0,1,0,0,0,1 @ F,0,0,1,0,0,0,1 @ F,0,0,1,0,0,0,1 @ F,0,0,1,0,0,0,1 @ F,0,0,1,0,0,0,1 @ F,0,0,1,0,0,0,1 @ F,0,0,1,0,0,0,1 @ F,0,0,1,0,0,0,1 @ F,0,0,1,0,0,0,1 | F,0,0,1,0,0,0,1 @ F,0,0,1,0,0,0,1 @ F,0,0,1,0,0,0,1 @ F,0,0,1,0,0,0,1 @ F,0,0,1,0,0,0,1 @ F,0,0,1,0,0,0,1 @ F,0,0,1,0,0,0,1 @ F,0,0,1,0,0,0,1 @ F,0,0,1,0,0,0,1 @ F,0,0,1,0,0,0,1 @ F,0,0,1,0,0,0,1 @ F,0,0,1,0,0,0,1 @ F,0,0,1,0,0,0,1 @ F,0,0,1,0,0,0,1 @ F,0,0,1,0,0,0,1 @ F,0,0,1,0,0,0,1 @ F,0,0,1,0,0,0,1 @ F,0,0,1,0,0,0,1 @ F,0,0,1,0,0,0,1 @ F,0,0,1,0,0,0,1 @ F,0,0,1,0,0,0,1 @ F,0,0,1,0,0,0,1 @ F,0,0,1,0,0,0,1 @ F,0,0,1,0,0,0,1 @ F,0,0,1,0,0,0,1 @ F,0,0,1,0,0,0,1 @ F,0,0,1,0,0,0,1 @ F,0,0,1,0,0,0,1 @ F,0,0,1,0,0,0,1 @ F,0,0,1,0,0,0,1 @ F,0,0,1,0,0,0,1 @ F,0,0,1,0,0,0,1 | F,0,0,1,0,0,0,1 @ F,0,0,1,0,0,0,1 @ F,0,0,1,0,0,0,1 @ F,0,0,1,0,0,0,1 @ F,0,0,1,0,0,0,1 @ F,0,0,1,0,0,0,1 @ F,0,0,1,0,0,0,1 @ F,0,0,1,0,0,0,1 @ F,0,0,1,0,0,0,1 @ F,0,0,1,0,0,0,1 @ F,0,0,1,0,0,0,1 @ F,0,0,1,0,0,0,1 @ F,0,0,1,0,0,0,1 @ F,0,0,1,0,0,0,1 @ F,0,0,1,0,0,0,1 @ F,0,0,1,0,0,0,1 @ F,0,0,1,0,0,0,1 @ F,0,0,1,0,0,0,1 @ F,0,0,1,0,0,0,1 @ F,0,0,1,0,0,0,1 @ F,0,0,1,0,0,0,1 @ F,0,0,1,0,0,0,1 @ F,0,0,1,0,0,0,1 @ F,0,0,1,0,0,0,1 @ F,0,0,1,0,0,0,1 @ F,0,0,1,0,0,0,1 @ F,0,0,1,0,0,0,1 @ F,0,0,1,0,0,0,1 @ F,0,0,1,0,0,0,1 @ F,0,0,1,0,0,0,1 @ F,0,0,1,0,0,0,1 @ F,0,0,1,0,0,0,1"
       unit="mm"
       method="auto"
       mode="F"
       radius="1"
       chamfer_steps="1"
       flexible="false"
       use_knot_distance="true"
       apply_no_radius="true"
       apply_with_radius="true"
       only_selected="false"
       hide_knots="false" />
  </defs>
  <sodipodi:namedview
     id="namedview6034"
     pagecolor="#ffffff"
     bordercolor="#000000"
     borderopacity="0.25"
     inkscape:showpageshadow="2"
     inkscape:pageopacity="0.0"
     inkscape:pagecheckerboard="0"
     inkscape:deskcolor="#d1d1d1"
     inkscape:document-units="cm"
     showgrid="false"
     inkscape:zoom="0.70710685"
     inkscape:cx="346.48229"
     inkscape:cy="318.19802"
     inkscape:window-width="1920"
     inkscape:window-height="1009"
     inkscape:window-x="-8"
     inkscape:window-y="-8"
     inkscape:window-maximized="1"
     inkscape:current-layer="layer9"
     showguides="false" />
  <title
     id="title2">SVG Picture created as dynamis-brd.svg date 2023/05/13 16:35:54 </title>
  <desc
     id="desc4">Picture generated by PCBNEW </desc>
  <metadata
     id="metadata6366">
    <rdf:RDF>
      <cc:Work
         rdf:about="">
        <dc:title>SVG Picture created as dynamis-brd.svg date 2023/05/13 16:35:54 </dc:title>
      </cc:Work>
    </rdf:RDF>
  </metadata>
  <g
     inkscape:groupmode="layer"
     id="layer9"
     inkscape:label="case"
     style="display:inline"
     transform="translate(-250218980,-296630000)">
    <g
       inkscape:groupmode="layer"
       id="layer6"
       inkscape:label="top_case_insert"
       style="display:inline">
      <path
         id="rect409"
         style="fill:none;stroke:#ff00ff;stroke-width:101349;stroke-opacity:1"
         d="M 250269650,296680680 H 599816300 V 412892340 H 250269650 Z m 302587020,111087070 c 0,-144470 -14190,-288590 -42380,-430280 -28180,-141700 -70220,-280280 -125510,-413750 -55280,-133470 -123550,-261190 -203810,-381310 -80270,-120130 -172140,-232070 -274290,-334230 -102160,-102150 -214100,-194020 -334230,-274290 -120120,-80260 -247840,-148530 -381310,-203810 -133470,-55290 -272050,-97330 -413750,-125510 -141690,-28190 -285810,-42380 -430280,-42380 -144470,0 -288590,14190 -430280,42380 -141700,28180 -280280,70220 -413750,125510 -133470,55280 -261190,123550 -381310,203810 -120130,80270 -232070,172140 -334230,274290 -102150,102160 -194020,214100 -274290,334230 -80260,120120 -148530,247840 -203810,381310 -55290,133470 -97330,272050 -125510,413750 -28190,141690 -42380,285810 -42380,430280 0,144470 14190,288590 42380,430280 28180,141700 70220,280280 125510,413750 55280,133470 123550,261190 203810,381310 80270,120130 172140,232070 274290,334230 102160,102150 214100,194020 334230,274290 120120,80260 247840,148530 381310,203810 133470,55290 272050,97330 413750,125510 141690,28190 285810,42380 430280,42380 144470,0 288590,-14190 430280,-42380 141700,-28180 280280,-70220 413750,-125510 133470,-55280 261190,-123550 381310,-203810 120130,-80270 232070,-172140 334230,-274290 102150,-102160 194020,-214100 274290,-334230 80260,-120120 148530,-247840 203810,-381310 55290,-133470 97330,-272050 125510,-413750 28190,-141690 42380,-285810 42380,-430280 z m -80000000,0 c 0,-144470 -14190,-288590 -42380,-430280 -28180,-141700 -70220,-280280 -125510,-413750 -55280,-133470 -123550,-261190 -203810,-381310 -80270,-120130 -172140,-232070 -274290,-334230 -102160,-102150 -214100,-194020 -334230,-274290 -120120,-80260 -247840,-148530 -381310,-203810 -133470,-55290 -272050,-97330 -413750,-125510 -141690,-28190 -285810,-42380 -430280,-42380 -144470,0 -288590,14190 -430280,42380 -141700,28180 -280280,70220 -413750,125510 -133470,55280 -261190,123550 -381310,203810 -120130,80270 -232070,172140 -334230,274290 -102150,102160 -194020,214100 -274290,334230 -80260,120120 -148530,247840 -203810,381310 -55290,133470 -97330,272050 -125510,413750 -28190,141690 -42380,285810 -42380,430280 0,144470 14190,288590 42380,430280 28180,141700 70220,280280 125510,413750 55280,133470 123550,261190 203810,381310 80270,120130 172140,232070 274290,334230 102160,102150 214100,194020 334230,274290 120120,80260 247840,148530 381310,203810 133470,55290 272050,97330 413750,125510 141690,28190 285810,42380 430280,42380 144470,0 288590,-14190 430280,-42380 141700,-28180 280280,-70220 413750,-125510 133470,-55280 261190,-123550 381310,-203810 120130,-80270 232070,-172140 334230,-274290 102150,-102160 194020,-214100 274290,-334230 80260,-120120 148530,-247840 203810,-381310 55290,-133470 97330,-272050 125510,-413750 28190,-141690 42380,-285810 42380,-430280 z m -91632000,0 c 0,-144470 -14190,-288590 -42380,-430280 -28180,-141700 -70220,-280280 -125510,-413750 -55280,-133470 -123550,-261190 -203810,-381310 -80270,-120130 -172140,-232070 -274290,-334230 -102160,-102150 -214100,-194020 -334230,-274290 -120120,-80260 -247840,-148530 -381310,-203810 -133470,-55290 -272050,-97330 -413750,-125510 -141690,-28190 -285810,-42380 -430280,-42380 -144470,0 -288590,14190 -430280,42380 -141700,28180 -280280,70220 -413750,125510 -133470,55280 -261190,123550 -381310,203810 -120130,80270 -232070,172140 -334230,274290 -102150,102160 -194020,214100 -274290,334230 -80260,120120 -148530,247840 -203810,381310 -55290,133470 -97330,272050 -125510,413750 -28190,141690 -42380,285810 -42380,430280 0,144470 14190,288590 42380,430280 28180,141700 70220,280280 125510,413750 55280,133470 123550,261190 203810,381310 80270,120130 172140,232070 274290,334230 102160,102150 214100,194020 334230,274290 120120,80260 247840,148530 381310,203810 133470,55290 272050,97330 413750,125510 141690,28190 285810,42380 430280,42380 144470,0 288590,-14190 430280,-42380 141700,-28180 280280,-70220 413750,-125510 133470,-55280 261190,-123550 381310,-203810 120130,-80270 232070,-172140 334230,-274290 102150,-102160 194020,-214100 274290,-334230 80260,-120120 148530,-247840 203810,-381310 55290,-133470 97330,-272050 125510,-413750 28190,-141690 42380,-285810 42380,-430280 z m -80000000,0 c 0,-144470 -14190,-288590 -42380,-430280 -28180,-141700 -70220,-280280 -125510,-413750 -55280,-133470 -123550,-261190 -203810,-381310 -80270,-120130 -172140,-232070 -274290,-334230 -102160,-102150 -214100,-194020 -334230,-274290 -120120,-80260 -247840,-148530 -381310,-203810 -133470,-55290 -272050,-97330 -413750,-125510 -141690,-28190 -285810,-42380 -430280,-42380 -144470,0 -288590,14190 -430280,42380 -141700,28180 -280280,70220 -413750,125510 -133470,55280 -261190,123550 -381310,203810 -120130,80270 -232070,172140 -334230,274290 -102150,102160 -194020,214100 -274290,334230 -80260,120120 -148530,247840 -203810,381310 -55290,133470 -97330,272050 -125510,413750 -28190,141690 -42380,285810 -42380,430280 0,144470 14190,288590 42380,430280 28180,141700 70220,280280 125510,413750 55280,133470 123550,261190 203810,381310 80270,120130 172140,232070 274290,334230 102160,102150 214100,194020 334230,274290 120120,80260 247840,148530 381310,203810 133470,55290 272050,97330 413750,125510 141690,28190 285810,42380 430280,42380 144470,0 288590,-14190 430280,-42380 141700,-28180 280280,-70220 413750,-125510 133470,-55280 261190,-123550 381310,-203810 120130,-80270 232070,-172140 334230,-274290 102150,-102160 194020,-214100 274290,-334230 80260,-120120 148530,-247840 203810,-381310 55290,-133470 97330,-272050 125510,-413750 28190,-141690 42380,-285810 42380,-430280 z m 291272260,-52980190 c 0,144470 14190,288590 42380,430280 28180,141700 70220,280280 125510,413750 55280,133470 123550,261190 203810,381310 80270,120130 172140,232070 274290,334230 102160,102150 214100,194020 334230,274290 120120,80260 247840,148530 381310,203810 133470,55290 272050,97330 413750,125510 141690,28190 285810,42380 430280,42380 144470,0 288590,-14190 430280,-42380 141700,-28180 280280,-70220 413750,-125510 133470,-55280 261190,-123550 381310,-203810 120130,-80270 232070,-172140 334230,-274290 102150,-102160 194020,-214100 274290,-334230 80260,-120120 148530,-247840 203810,-381310 55290,-133470 97330,-272050 125510,-413750 28190,-141690 42380,-285810 42380,-430280 0,-144470 -14200,-288590 -42380,-430280 -28190,-141690 -70220,-280280 -125510,-413750 -55290,-133470 -123550,-261190 -203820,-381310 -80260,-120120 -172130,-232060 -274290,-334220 -102150,-102150 -214100,-194030 -334220,-274290 -120120,-80260 -247840,-148530 -381310,-203810 -133470,-55290 -272050,-97330 -413750,-125510 -141690,-28190 -285810,-42380 -430280,-42380 -144470,0 -288590,14190 -430280,42380 -141700,28180 -280280,70220 -413750,125510 -133470,55280 -261190,123550 -381310,203810 -120120,80260 -232070,172140 -334220,274290 -102160,102160 -194030,214100 -274290,334220 -80270,120120 -148530,247840 -203820,381310 -55290,133470 -97320,272060 -125510,413750 -28180,141690 -42380,285810 -42380,430280 z m -39640260,-52997320 c 0,144470 -14190,288590 -42380,430280 -28180,141700 -70220,280280 -125510,413750 -55280,133470 -123550,261190 -203810,381310 -80270,120130 -172140,232070 -274290,334230 -102160,102150 -214100,194020 -334230,274290 -120120,80260 -247840,148530 -381310,203810 -133470,55290 -272050,97330 -413750,125510 -141690,28190 -285810,42380 -430280,42380 -144470,0 -288590,-14190 -430280,-42380 -141700,-28180 -280280,-70220 -413750,-125510 -133470,-55280 -261190,-123550 -381310,-203810 -120130,-80270 -232070,-172140 -334230,-274290 -102150,-102160 -194020,-214100 -274290,-334230 -80260,-120120 -148530,-247840 -203810,-381310 -55290,-133470 -97330,-272050 -125510,-413750 -28190,-141690 -42380,-285810 -42380,-430280 0,-144470 14190,-288590 42380,-430280 28180,-141700 70220,-280280 125510,-413750 55280,-133470 123550,-261190 203810,-381310 80270,-120130 172140,-232070 274290,-334230 102160,-102150 214100,-194020 334230,-274290 120120,-80260 247840,-148530 381310,-203810 133470,-55290 272050,-97330 413750,-125510 141690,-28190 285810,-42380 430280,-42380 144470,0 288590,14190 430280,42380 141700,28180 280280,70220 413750,125510 133470,55280 261190,123550 381310,203810 120130,80270 232070,172140 334230,274290 102150,102160 194020,214100 274290,334230 80260,120120 148530,247840 203810,381310 55290,133470 97330,272050 125510,413750 28190,141690 42380,285810 42380,430280 z m -80000000,0 c 0,144470 -14190,288590 -42380,430280 -28180,141700 -70220,280280 -125510,413750 -55280,133470 -123550,261190 -203810,381310 -80270,120130 -172140,232070 -274290,334230 -102160,102150 -214100,194020 -334230,274290 -120120,80260 -247840,148530 -381310,203810 -133470,55290 -272050,97330 -413750,125510 -141690,28190 -285810,42380 -430280,42380 -144470,0 -288590,-14190 -430280,-42380 -141700,-28180 -280280,-70220 -413750,-125510 -133470,-55280 -261190,-123550 -381310,-203810 -120130,-80270 -232070,-172140 -334230,-274290 -102150,-102160 -194020,-214100 -274290,-334230 -80260,-120120 -148530,-247840 -203810,-381310 -55290,-133470 -97330,-272050 -125510,-413750 -28190,-141690 -42380,-285810 -42380,-430280 0,-144470 14190,-288590 42380,-430280 28180,-141700 70220,-280280 125510,-413750 55280,-133470 123550,-261190 203810,-381310 80270,-120130 172140,-232070 274290,-334230 102160,-102150 214100,-194020 334230,-274290 120120,-80260 247840,-148530 381310,-203810 133470,-55290 272050,-97330 413750,-125510 141690,-28190 285810,-42380 430280,-42380 144470,0 288590,14190 430280,42380 141700,28180 280280,70220 413750,125510 133470,55280 261190,123550 381310,203810 120130,80270 232070,172140 334230,274290 102150,102160 194020,214100 274290,334230 80260,120120 148530,247840 203810,381310 55290,133470 97330,272050 125510,413750 28190,141690 42380,285810 42380,430280 z m -91632000,0 c 0,144470 -14190,288590 -42380,430280 -28180,141700 -70220,280280 -125510,413750 -55280,133470 -123550,261190 -203810,381310 -80270,120130 -172140,232070 -274290,334230 -102160,102150 -214100,194020 -334230,274290 -120120,80260 -247840,148530 -381310,203810 -133470,55290 -272050,97330 -413750,125510 -141690,28190 -285810,42380 -430280,42380 -144470,0 -288590,-14190 -430280,-42380 -141700,-28180 -280280,-70220 -413750,-125510 -133470,-55280 -261190,-123550 -381310,-203810 -120130,-80270 -232070,-172140 -334230,-274290 -102150,-102160 -194020,-214100 -274290,-334230 -80260,-120120 -148530,-247840 -203810,-381310 -55290,-133470 -97330,-272050 -125510,-413750 -28190,-141690 -42380,-285810 -42380,-430280 0,-144470 14190,-288590 42380,-430280 28180,-141700 70220,-280280 125510,-413750 55280,-133470 123550,-261190 203810,-381310 80270,-120130 172140,-232070 274290,-334230 102160,-102150 214100,-194020 334230,-274290 120120,-80260 247840,-148530 381310,-203810 133470,-55290 272050,-97330 413750,-125510 141690,-28190 285810,-42380 430280,-42380 144470,0 288590,14190 430280,42380 141700,28180 280280,70220 413750,125510 133470,55280 261190,123550 381310,203810 120130,80270 232070,172140 334230,274290 102150,102160 194020,214100 274290,334230 80260,120120 148530,247840 203810,381310 55290,133470 97330,272050 125510,413750 28190,141690 42380,285810 42380,430280 z m -80000000,0 c 0,144470 -14190,288590 -42380,430280 -28180,141700 -70220,280280 -125510,413750 -55280,133470 -123550,261190 -203810,381310 -80270,120130 -172140,232070 -274290,334230 -102160,102150 -214100,194020 -334230,274290 -120120,80260 -247840,148530 -381310,203810 -133470,55290 -272050,97330 -413750,125510 -141690,28190 -285810,42380 -430280,42380 -144470,0 -288590,-14190 -430280,-42380 -141700,-28180 -280280,-70220 -413750,-125510 -133470,-55280 -261190,-123550 -381310,-203810 -120130,-80270 -232070,-172140 -334230,-274290 -102150,-102160 -194020,-214100 -274290,-334230 -80260,-120120 -148530,-247840 -203810,-381310 -55290,-133470 -97330,-272050 -125510,-413750 -28190,-141690 -42380,-285810 -42380,-430280 0,-144470 14190,-288590 42380,-430280 28180,-141700 70220,-280280 125510,-413750 55280,-133470 123550,-261190 203810,-381310 80270,-120130 172140,-232070 274290,-334230 102160,-102150 214100,-194020 334230,-274290 120120,-80260 247840,-148530 381310,-203810 133470,-55290 272050,-97330 413750,-125510 141690,-28190 285810,-42380 430280,-42380 144470,0 288590,14190 430280,42380 141700,28180 280280,70220 413750,125510 133470,55280 261190,123550 381310,203810 120130,80270 232070,172140 334230,274290 102150,102160 194020,214100 274290,334230 80260,120120 148530,247840 203810,381310 55290,133470 97330,272050 125510,413750 28190,141690 42380,285810 42380,430280 z m -43641120,52997320 c 0,144470 -14190,288590 -42380,430280 -28180,141700 -70220,280280 -125510,413750 -55280,133470 -123550,261190 -203810,381310 -80270,120130 -172140,232070 -274290,334230 -102160,102150 -214100,194020 -334230,274290 -120120,80260 -247840,148530 -381310,203810 -133470,55290 -272050,97330 -413750,125510 -141690,28190 -285810,42380 -430280,42380 -144470,0 -288590,-14190 -430280,-42380 -141700,-28180 -280280,-70220 -413750,-125510 -133470,-55280 -261190,-123550 -381310,-203810 -120130,-80270 -232070,-172140 -334230,-274290 -102150,-102160 -194020,-214100 -274290,-334230 -80260,-120120 -148530,-247840 -203810,-381310 -55290,-133470 -97330,-272050 -125510,-413750 -28190,-141690 -42380,-285810 -42380,-430280 0,-144470 14200,-288590 42380,-430280 28190,-141690 70220,-280280 125510,-413750 55290,-133470 123550,-261190 203820,-381310 80260,-120120 172130,-232060 274290,-334220 102150,-102150 214100,-194030 334220,-274290 120120,-80260 247840,-148530 381310,-203810 133470,-55290 272050,-97330 413750,-125510 141690,-28190 285810,-42380 430280,-42380 144470,0 288590,14190 430280,42380 141700,28180 280280,70220 413750,125510 133470,55280 261190,123550 381310,203810 120120,80260 232070,172140 334220,274290 102160,102160 194030,214100 274290,334220 80270,120120 148530,247840 203820,381310 55290,133470 97320,272060 125510,413750 28180,141690 42380,285810 42380,430280 z m 289329070,-55290320 v 2293020 c 0,244880 24060,489170 71830,729340 47780,240180 119030,475080 212750,701320 93710,226240 209420,442720 345470,646330 136050,203620 291770,393370 464930,566520 173150,173160 362910,328880 566520,464930 203610,136050 420090,251760 646330,345480 226240,93710 461140,164960 701320,212740 240170,47770 484460,71830 729340,71830 244880,0 489170,-24060 729340,-71830 240180,-47780 475080,-119030 701320,-212740 226240,-93720 442720,-209430 646330,-345480 203620,-136050 393370,-291770 566520,-464930 173160,-173150 328880,-362900 464930,-566520 136050,-203610 251760,-420090 345480,-646330 93710,-226240 164960,-461140 212740,-701320 47770,-240170 71830,-484460 71830,-729340 v -2293020 h 42608370 l -2990,51551860 h -2292490 c -244880,0 -489170,24060 -729340,71830 -240180,47780 -475080,119030 -701320,212750 -226240,93710 -442720,209420 -646330,345470 -203620,136050 -393370,291770 -566520,464930 -173160,173150 -328880,362910 -464930,566520 -136050,203610 -251760,420090 -345480,646330 -93710,226240 -164960,461140 -212740,701320 -47770,240170 -71830,484460 -71830,729340 0,244880 24060,489170 71830,729340 47780,240180 119030,475080 212740,701320 93720,226240 209430,442720 345480,646330 136050,203620 291770,393370 464930,566520 173150,173160 362900,328880 566520,464930 203610,136050 420090,251760 646330,345480 226240,93710 461140,164960 701320,212740 240170,47770 484460,71830 729340,71830 h 2292490 l 2990,51548680 -42608370,-4000 v -2293050 c 0,-244880 -24060,-489170 -71830,-729340 -47780,-240180 -119030,-475080 -212750,-701320 -93710,-226240 -209420,-442720 -345470,-646330 -136050,-203620 -291770,-393370 -464930,-566520 -173150,-173160 -362910,-328880 -566520,-464930 -203610,-136050 -420090,-251760 -646330,-345480 -226240,-93710 -461140,-164960 -701320,-212740 -240170,-47770 -484460,-71830 -729340,-71830 -244880,0 -489170,24060 -729340,71830 -240180,47780 -475080,119030 -701320,212740 -226240,93720 -442720,209430 -646330,345480 -203620,136050 -393370,291770 -566520,464930 -173160,173150 -328880,362900 -464930,566520 -136050,203610 -251760,420090 -345480,646330 -93710,226240 -164960,461140 -212740,701320 -47770,240170 -71830,484460 -71830,729340 v 2293050 h -72523020 v -2293050 c 0,-244880 -24060,-489170 -71830,-729340 -47780,-240180 -119030,-475080 -212750,-701320 -93710,-226240 -209420,-442720 -345470,-646330 -136050,-203620 -291770,-393370 -464930,-566520 -173150,-173160 -362910,-328880 -566520,-464930 -203610,-136050 -420090,-251760 -646330,-345480 -226240,-93710 -461140,-164960 -701320,-212740 -240170,-47770 -484460,-71830 -729340,-71830 -244880,0 -489170,24060 -729340,71830 -240180,47780 -475080,119030 -701320,212740 -226240,93720 -442720,209430 -646330,345480 -203620,136050 -393370,291770 -566520,464930 -173160,173150 -328880,362900 -464930,566520 -136050,203610 -251760,420090 -345480,646330 -93710,226240 -164960,461140 -212740,701320 -47770,240170 -71830,484460 -71830,729340 v 2293050 h -84155020 v -2293050 c 0,-244880 -24060,-489170 -71830,-729340 -47780,-240180 -119030,-475080 -212750,-701320 -93710,-226240 -209420,-442720 -345470,-646330 -136050,-203620 -291770,-393370 -464930,-566520 -173150,-173160 -362910,-328880 -566520,-464930 -203610,-136050 -420090,-251760 -646330,-345480 -226240,-93710 -461140,-164960 -701320,-212740 -240170,-47770 -484460,-71830 -729340,-71830 -244880,0 -489170,24060 -729340,71830 -240180,47780 -475080,119030 -701320,212740 -226240,93720 -442720,209430 -646330,345480 -203620,136050 -393370,291770 -566520,464930 -173160,173150 -328880,362900 -464930,566520 -136050,203610 -251760,420090 -345480,646330 -93710,226240 -164960,461140 -212740,701320 -47770,240170 -71830,484460 -71830,729340 v 2293050 h -72523020 v -2293050 c 0,-244880 -24060,-489170 -71830,-729340 -47780,-240180 -119030,-475080 -212750,-701320 -93710,-226240 -209420,-442720 -345470,-646330 -136050,-203620 -291770,-393370 -464930,-566520 -173150,-173160 -362910,-328880 -566520,-464930 -203610,-136050 -420090,-251760 -646330,-345480 -226240,-93710 -461140,-164960 -701320,-212740 -240170,-47770 -484460,-71830 -729340,-71830 -244880,0 -489170,24060 -729340,71830 -240180,47780 -475080,119030 -701320,212740 -226240,93720 -442720,209430 -646330,345480 -203620,136050 -393370,291770 -566520,464930 -173160,173150 -328880,362900 -464930,566520 -136050,203610 -251760,420090 -345480,646330 -93710,226240 -164960,461140 -212740,701320 -47770,240170 -71830,484460 -71830,729340 v 2293050 l -42194130,4000 -1000,-51548690 h 2292500 c 244880,0 489170,-24060 729340,-71830 240180,-47780 475080,-119030 701320,-212750 226240,-93710 442720,-209420 646330,-345470 203620,-136050 393370,-291770 566520,-464930 173160,-173150 328880,-362910 464930,-566520 136050,-203610 251760,-420090 345480,-646330 93710,-226240 164960,-461140 212740,-701320 47770,-240170 71830,-484460 71830,-729340 0,-244880 -24060,-489170 -71830,-729340 -47780,-240180 -119030,-475080 -212740,-701320 -93720,-226240 -209430,-442720 -345480,-646330 -136050,-203620 -291770,-393370 -464930,-566520 -173150,-173160 -362900,-328880 -566520,-464930 -203610,-136050 -420090,-251760 -646330,-345480 -226240,-93710 -461140,-164960 -701320,-212740 -240170,-47770 -484460,-71830 -729340,-71830 h -2292500 l 1000,-51551850 h 42194130 v 2293020 c 0,244880 24060,489170 71830,729340 47780,240180 119030,475080 212750,701320 93710,226240 209420,442720 345470,646330 136050,203620 291770,393370 464930,566520 173150,173160 362910,328880 566520,464930 203610,136050 420090,251760 646330,345480 226240,93710 461140,164960 701320,212740 240170,47770 484460,71830 729340,71830 244880,0 489170,-24060 729340,-71830 240180,-47780 475080,-119030 701320,-212740 226240,-93720 442720,-209430 646330,-345480 203620,-136050 393370,-291770 566520,-464930 173160,-173150 328880,-362900 464930,-566520 136050,-203610 251760,-420090 345480,-646330 93710,-226240 164960,-461140 212740,-701320 47770,-240170 71830,-484460 71830,-729340 v -2293020 h 72523020 v 2293020 c 0,244880 24060,489170 71830,729340 47780,240180 119030,475080 212750,701320 93710,226240 209420,442720 345470,646330 136050,203620 291770,393370 464930,566520 173150,173160 362910,328880 566520,464930 203610,136050 420090,251760 646330,345480 226240,93710 461140,164960 701320,212740 240170,47770 484460,71830 729340,71830 244880,0 489170,-24060 729340,-71830 240180,-47780 475080,-119030 701320,-212740 226240,-93720 442720,-209430 646330,-345480 203620,-136050 393370,-291770 566520,-464930 173160,-173150 328880,-362900 464930,-566520 136050,-203610 251760,-420090 345480,-646330 93710,-226240 164960,-461140 212740,-701320 47770,-240170 71830,-484460 71830,-729340 v -2293020 h 84155020 v 2293020 c 0,244880 24060,489170 71830,729340 47780,240180 119030,475080 212750,701320 93710,226240 209420,442720 345470,646330 136050,203620 291770,393370 464930,566520 173150,173160 362910,328880 566520,464930 203610,136050 420090,251760 646330,345480 226240,93710 461140,164960 701320,212740 240170,47770 484460,71830 729340,71830 244880,0 489170,-24060 729340,-71830 240180,-47780 475080,-119030 701320,-212740 226240,-93720 442720,-209430 646330,-345480 203620,-136050 393370,-291770 566520,-464930 173160,-173150 328880,-362900 464930,-566520 136050,-203610 251760,-420090 345480,-646330 93710,-226240 164960,-461140 212740,-701320 47770,-240170 71830,-484460 71830,-729340 v -2293020 z" />
    </g>
  </g>
</svg>
